<svg version="1.1" xmlns="http://www.w3.org/2000/svg" xmlns:xlink="http://www.w3.org/1999/xlink" width="142.9874" height="212.07111" viewBox="0,0,142.9874,212.07111"><defs><radialGradient cx="260.36013" cy="185.62613" r="39.00129" gradientUnits="userSpaceOnUse" id="color-1"><stop offset="0" stop-color="#4000bf"/><stop offset="1" stop-color="#38a000"/></radialGradient><linearGradient x1="260.36012" y1="152.29279" x2="260.36012" y2="218.95946" gradientUnits="userSpaceOnUse" id="color-2"><stop offset="0" stop-color="#797979"/><stop offset="1" stop-color="#bfbfbf"/></linearGradient><radialGradient cx="256.06694" cy="141.32784" r="16.33333" gradientUnits="userSpaceOnUse" id="color-3"><stop offset="0" stop-color="#b5b5b5"/><stop offset="1" stop-color="#c9c9c9"/></radialGradient><radialGradient cx="241.01332" cy="127.91966" r="9.88289" gradientUnits="userSpaceOnUse" id="color-4"><stop offset="0" stop-color="#bc1818"/><stop offset="1" stop-color="#9b18bc"/></radialGradient><radialGradient cx="237.81102" cy="118.89359" r="7.46965" gradientUnits="userSpaceOnUse" id="color-5"><stop offset="0" stop-color="#bc1818"/><stop offset="1" stop-color="#9b18bc"/></radialGradient><radialGradient cx="204.7889" cy="117.96927" r="10.47714" gradientUnits="userSpaceOnUse" id="color-6"><stop offset="0" stop-color="#569ffe"/><stop offset="1" stop-color="#bfebf3"/></radialGradient><linearGradient x1="207.46702" y1="105.68672" x2="234.95309" y2="127.48358" gradientUnits="userSpaceOnUse" id="color-7"><stop offset="0" stop-color="#070707"/><stop offset="1" stop-color="#ff0000"/></linearGradient><linearGradient x1="207.55487" y1="106.44781" x2="235.04096" y2="128.24468" gradientUnits="userSpaceOnUse" id="color-8"><stop offset="0" stop-color="#070707"/><stop offset="1" stop-color="#ff0000"/></linearGradient><linearGradient x1="207.88216" y1="105.94262" x2="235.36825" y2="127.73949" gradientUnits="userSpaceOnUse" id="color-9"><stop offset="0" stop-color="#070707"/><stop offset="1" stop-color="#ff0000"/></linearGradient><linearGradient x1="207.63532" y1="105.47448" x2="235.12141" y2="127.27135" gradientUnits="userSpaceOnUse" id="color-10"><stop offset="0" stop-color="#ff0000" stop-opacity="0"/><stop offset="1" stop-color="#ff0000"/></linearGradient><linearGradient x1="207.18326" y1="105.73408" x2="234.66934" y2="127.53096" gradientUnits="userSpaceOnUse" id="color-11"><stop offset="0" stop-color="#ff0000" stop-opacity="0"/><stop offset="1" stop-color="#ff0000"/></linearGradient><linearGradient x1="207.28939" y1="105.81824" x2="234.77548" y2="127.61511" gradientUnits="userSpaceOnUse" id="color-12"><stop offset="0" stop-color="#ff0000" stop-opacity="0"/><stop offset="1" stop-color="#ff0000"/></linearGradient></defs><g transform="translate(-160.77425,-59.97273)"><g data-paper-data="{&quot;isPaintingLayer&quot;:true}" fill-rule="nonzero" stroke-linejoin="miter" stroke-miterlimit="10" stroke-dasharray="" stroke-dashoffset="0" style="mix-blend-mode: normal"><g data-paper-data="{&quot;index&quot;:null}"><path d="M292.73507,214.26805c0,0 0.43453,2.60925 0.89781,6.40725c0.45731,3.74901 -0.56151,8.88012 -0.43845,13.57945c0.11006,4.20318 0.22161,8.83029 0.33452,11.14474c0.21116,4.32858 1.21258,9.9976 1.21258,9.9976l-16.23061,2.62292c0,0 0.48578,-2.31806 -0.7033,-5.01398c-1.90087,-4.30969 -5.86187,-10.30314 -6.19465,-14.74959c-0.10981,-1.4673 -0.03104,-3.26004 0.15911,-5.22139c0.31483,-3.24754 0.93499,-6.95729 1.50993,-10.41713c0.83103,-5.00094 1.90734,-8.98011 1.90734,-8.98011" fill="#7f7f7f" stroke="#e3efff" stroke-width="1.5" stroke-linecap="round"/><g stroke="#0f0f0f" stroke-linecap="butt"><path d="M259.9457,270.53147c0,0 -3.5771,-4.09615 -4.45487,-6.1434c-0.93025,-2.16968 5.68887,-9.47377 5.68887,-9.47377l25.49803,-0.78682l1.09578,11.44768z" data-paper-data="{&quot;index&quot;:null}" fill="#000b20" stroke-width="0"/><path d="M261.69325,268.7823c-0.40679,-2.85495 -0.98978,-6.94637 -1.26956,-8.91001c-0.14426,-1.01246 0.91482,-4.92833 2.54746,-5.16096c3.93517,-0.56071 20.99865,-2.99204 28.95752,-4.12608c2.56302,-0.3652 4.20161,1.30434 4.37357,2.65521c0.36846,2.89463 1.70173,13.39832 1.70173,13.39832c0,0 -27.4676,3.91378 -32.67002,4.65506c-1.63264,0.23263 -3.41385,-0.91959 -3.64068,-2.51155z" data-paper-data="{&quot;index&quot;:null}" fill="#3b3b3b" stroke-width="1.5"/></g></g><g><path d="M249.13698,214.83021c0,0 0.12711,3.88851 0.23503,7.19032c0.06165,1.88603 -2.12706,4.93387 -2.00294,8.73107c0.0518,1.58477 0.81894,2.9203 0.87489,4.63205c0.16899,5.17 1.93083,11.19645 2.06499,15.30102c0.1274,3.8977 0.21448,6.56181 0.21448,6.56181l-18.21432,-4.47786c0,0 -2.33083,-13.04642 -2.00191,-19.05091c0.2984,-5.4471 3.89281,-15.46701 3.89281,-15.46701" fill="#7f7f7f" stroke="#e3efff" stroke-width="1.5" stroke-linecap="round"/><g stroke="#0f0f0f" stroke-linecap="butt"><path d="M220.15696,265.09795c0,0 -2.75886,-4.68646 -3.24332,-6.86062c-0.51343,-2.30418 7.34107,-8.25979 7.34107,-8.25979l25.20453,3.93702l-1.03783,11.45308z" fill="#000b20" stroke-width="0"/><path d="M221.18982,263.57842c0.12761,-2.88096 0.31048,-7.00967 0.39825,-8.99119c0.04525,-1.02168 1.80949,-4.67451 3.457,-4.60153c3.97102,0.17589 21.18997,0.93858 29.22135,1.29432c2.58637,0.11456 3.88835,2.05805 3.80779,3.41744c-0.17261,2.91288 -0.80266,13.48209 -0.80266,13.48209c0,0 -27.71785,-1.22772 -32.96767,-1.46026c-1.64751,-0.07298 -3.18522,-1.53441 -3.11407,-3.14087z" fill="#3b3b3b" stroke-width="1.5"/></g></g><g><g stroke-linecap="butt"><g><g><path d="M179.84936,204.36479c0,0 -5.23168,-38.42233 -6.74208,-52.19293c-0.99014,-9.0273 -1.70103,-27.37392 -1.70103,-27.37392l12.08047,-0.55117l10.06154,78.61549z" fill="#c70303" stroke="#9966ff" stroke-width="1"/><path d="M171.62794,132.53014c0.00839,-0.05192 0.01749,-0.10364 0.02725,-0.15522l-0.03257,-0.0009l0.05549,-2.04088c0.01915,-0.70447 0.60576,-1.26002 1.31023,-1.24086c0.55732,0.01516 1.02144,0.38545 1.18153,0.88831l0.46353,1.34629l-0.04004,0.01378l0.0696,0.08481c0.43441,2.5517 1.3748,4.94124 1.86997,7.51059c0.65544,7.73771 1.11838,15.49368 1.81046,23.23783c1.41159,6.75752 2.11547,13.96567 1.9542,20.47461c0,0 -0.03467,1.27555 -1.31022,1.24087c-1.27555,-0.03467 -1.24087,-1.31023 -1.24087,-1.31023c0.03244,-1.08407 -1.51697,-1.37467 -1.53874,-2.48499c-0.16052,-0.14841 0.08065,-1.1785 0.01294,-1.39118l0.21674,-1.3278c-0.31229,-0.90703 -0.11426,-1.80024 -0.42633,-2.70735c-1.12504,-2.9139 -0.47538,-6.09435 -0.85054,-9.16436c-0.89563,-7.32926 -3.73047,-15.90478 -2.31971,-23.41255c-0.01469,-0.10815 -0.02947,-0.21614 -0.04433,-0.324l-0.2377,-0.00646l0.05086,-1.87082c0.00653,-0.23989 0.07885,-0.46248 0.1992,-0.651c-0.41261,-2.14422 -1.46891,-4.9267 -1.18094,-6.70849z" fill="#870303" stroke="none" stroke-width="0.5"/><path d="M179.04896,136.23519c-0.51022,-0.01387 -0.49635,-0.5241 -0.49635,-0.5241l0.00694,-0.25511c0.08871,-1.43144 -0.95013,-2.61331 -0.90946,-4.10949c0,0 0.01387,-0.51023 0.52409,-0.49635c0.51022,0.01387 0.49634,0.52408 0.49634,0.52408c-0.04,1.47125 0.9175,2.63183 0.90948,4.10952l-0.00693,0.25512c0,0 -0.01388,0.51022 -0.5241,0.49636z" fill="#0554ff" stroke="none" stroke-width="0.5"/><path d="M184.87566,146.29637c-0.46255,0.21576 -0.67833,-0.24679 -0.67833,-0.24679l-0.14926,-0.38196c-1.07315,-0.51564 -1.90007,0.03227 -1.89073,-1.68894c0,0 0.01388,-0.51022 0.52409,-0.49634c0.51022,0.01388 0.49634,0.52409 0.49634,0.52409c-0.05638,0.90984 0.77714,0.49738 1.61147,0.95925l0.33321,0.65237c0,0 0.21576,0.46256 -0.24679,0.67833z" fill="#0554ff" stroke="none" stroke-width="0.5"/><path d="M182.62354,156.98466c-0.21576,-0.46255 0.2468,-0.67834 0.2468,-0.67834l0.3062,-0.05871c-0.25311,-0.88725 0.04035,-1.02777 0.75586,-1.44419c0,0 0.46258,-0.21577 0.67834,0.24679c0.21576,0.46255 -0.2468,0.67832 -0.2468,0.67832c-0.4715,0.09041 -0.26313,0.51467 -0.33393,1.07915l-0.72812,0.42376c0,0 -0.46255,0.21576 -0.67833,-0.24678z" fill="#9b7137" stroke="none" stroke-width="0.5"/><path d="M182.7261,171.00194c-0.45015,-0.24058 -0.20956,-0.69073 -0.20956,-0.69073l0.26898,-0.50328c0.53499,-0.99711 1.00614,-1.42893 1.03666,-2.55175c0,0 0.01387,-0.51023 0.52409,-0.49637c0.51022,0.01388 0.49634,0.5241 0.49634,0.5241c-0.03558,1.30864 -0.55539,1.87495 -1.1568,3.00518l-0.26898,0.50329c0,0 -0.24058,0.45015 -0.69074,0.20957z" fill="#0554ff" stroke="none" stroke-width="0.5"/><path d="M188.66085,177.08906c-0.51022,-0.01387 -0.49634,-0.52408 -0.49634,-0.52408c0.02774,-1.02044 0.06243,-2.29599 0.09016,-3.31644c0,0 0.01388,-0.51022 0.5241,-0.49635c0.51021,0.01387 0.49636,0.5241 0.49636,0.5241c-0.02775,1.02046 -0.05549,2.04088 -0.08323,3.06132l-0.00694,0.25511c0,0 -0.01387,0.51021 -0.52409,0.49634z" fill="#0554ff" stroke="none" stroke-width="0.5"/><path d="M183.79121,177.78641c0.12582,0.06724 0.24992,0.19826 0.24298,0.45338c-0.01387,0.51022 -0.5241,0.49635 -0.5241,0.49635l-0.75146,-0.53103c0.01388,-0.51022 0.02776,-1.02044 0.04162,-1.53066c0,0 0.01388,-0.51023 0.5241,-0.49635c0.51021,0.01387 0.49636,0.5241 0.49636,0.5241c-0.00982,0.36141 -0.01966,0.72282 -0.02948,1.08422z" fill="#0554ff" stroke="none" stroke-width="0.5"/><path d="M185.23646,162.18862c0.00693,-0.25512 0.13795,-0.3792 0.26724,-0.4395c0.00057,-0.02127 0.00116,-0.04252 0.00174,-0.06378c0,0 0.01387,-0.51021 0.5241,-0.49634c0.51022,0.01387 0.49634,0.52408 0.49634,0.52408c-0.00462,0.17006 -0.00926,0.34015 -0.01388,0.51022l-0.7792,0.48941c0,0 -0.51022,-0.01387 -0.49635,-0.52409z" fill="#9b7137" stroke="none" stroke-width="0.5"/><path d="M185.76283,160.61724c-0.46255,0.21576 -0.67833,-0.24679 -0.67833,-0.24679l-0.14927,-0.38194c-0.36767,-0.23284 -0.59842,-0.70994 -0.62905,-1.14406c0,0 0.01386,-0.51021 0.52408,-0.49634c0.51022,0.01387 0.49635,0.52408 0.49635,0.52408c-0.05895,0.17087 0.18215,0.34676 0.34979,0.41437l0.33321,0.65235c0,0 0.21578,0.46258 -0.24679,0.67834z" fill="#9b7137" stroke="none" stroke-width="0.5"/><path d="M180.14268,152.34877c-0.51021,-0.01387 -0.49634,-0.52409 -0.49634,-0.52409c0.03237,-1.19052 0.0786,-2.89125 0.11097,-4.08177c0,0 0.01388,-0.51022 0.52408,-0.49634c0.51021,0.01387 0.49634,0.52409 0.49634,0.52409c-0.03236,1.19052 -0.06473,2.38103 -0.09709,3.57154l-0.01388,0.51022c0,0 -0.01387,0.51023 -0.52409,0.49635z" fill="#0554ff" stroke="none" stroke-width="0.5"/><path d="M184.00795,137.75226c-0.31708,-0.3348 -0.04523,-0.65358 0.01023,-0.71204c-0.47694,-0.94927 -1.08578,-1.95796 -1.08014,-2.99698c0,0 0.01387,-0.51023 0.52409,-0.49637c0.51022,0.01388 0.49634,0.5241 0.49634,0.5241c-0.05672,0.91518 0.75785,2.03712 1.14467,2.86636l-0.37363,0.83455c0,0 -0.37058,0.35098 -0.72156,-0.01962z" fill="#9b7137" stroke="none" stroke-width="0.5"/><path d="M178.85477,143.37831c-0.51022,-0.01387 -0.49635,-0.5241 -0.49635,-0.5241c0.01388,-0.51022 0.03468,-1.27555 0.04855,-1.78578c0,0 0.01388,-0.51022 0.5241,-0.49636c0.51022,0.01387 0.49634,0.52408 0.49634,0.52408c-0.01387,0.51021 -0.02775,1.02045 -0.04162,1.53066l-0.00693,0.2551c0,0 -0.01388,0.51023 -0.5241,0.49637z" fill="#9b7137" stroke="none" stroke-width="0.5"/><path d="M181.17308,133.22936c-0.51021,-0.01387 -0.49635,-0.52409 -0.49635,-0.52409l0.01387,-0.51023c0.01339,-0.49256 0.25362,-0.71107 -0.2059,-0.82539c0,0 -0.45015,-0.24058 -0.20957,-0.69073c0.24059,-0.45016 0.69074,-0.20957 0.69074,-0.20957c0.87687,0.5763 0.772,0.76654 0.74518,1.75344l-0.01386,0.51021c0,0 -0.01388,0.51022 -0.5241,0.49636z" fill="#0554ff" stroke="none" stroke-width="0.5"/><path d="M183.26793,140.68998c-0.51021,-0.01387 -0.49633,-0.52409 -0.49633,-0.52409l0.00694,-0.25511c0.01686,-0.27206 -0.0571,-0.55431 -0.17972,-0.79774c0,0 -0.21576,-0.46255 0.2468,-0.67832c0.46255,-0.21576 0.67833,0.24677 0.67833,0.24677c0.17357,0.39223 0.27736,0.82811 0.27503,1.25702l-0.00694,0.25511c0,0 -0.01388,0.51022 -0.5241,0.49636z" fill="#4f340e" stroke="none" stroke-width="0.5"/><path d="M181.93783,148.16325c-0.35098,-0.37059 0.01961,-0.72156 0.01961,-0.72156l0.1028,0.10854c0.01054,-0.38752 -0.09253,-1.01078 0.13217,-1.27845c-0.23038,-0.00108 -0.46785,-0.00718 -0.60772,-0.01098c0,0 -0.51022,-0.01387 -0.49634,-0.52408c0.01387,-0.51022 0.52408,-0.49634 0.52408,-0.49634c2.50845,0.06819 1.50114,1.12734 1.46824,2.3376l-0.42129,0.6049c0,0 -0.3706,0.35099 -0.72156,-0.01961z" fill="#0554ff" stroke="none" stroke-width="0.5"/><path d="M181.32025,157.97042c-0.21576,-0.46255 0.24679,-0.67834 0.24679,-0.67834l0.25328,0.04682c-0.99611,-1.30655 1.78018,-1.57722 0.01798,-1.62513c0,0 -0.51022,-0.01388 -0.49635,-0.52411c0.01387,-0.51022 0.52408,-0.49634 0.52408,-0.49634c2.87011,0.07802 0.52397,1.7411 0.91358,2.9946l-0.78103,0.52929c0,0 -0.46256,0.21576 -0.67833,-0.24679z" fill="#4f340e" stroke="none" stroke-width="0.5"/><path d="M185.48313,171.8967c-0.51021,-0.01387 -0.49636,-0.52409 -0.49636,-0.52409l0.08278,-0.23992c-2.50167,-0.62236 -1.16584,-2.48315 0.22257,-3.47915c0,0 0.41649,-0.29503 0.71154,0.12146c0.29503,0.41649 -0.12147,0.71153 -0.12147,0.71153c-1.70097,1.18708 -1.36998,1.1869 0.07,2.13329l0.05504,0.78053c0,0 -0.01387,0.51022 -0.52409,0.49636z" fill="#0554ff" stroke="none" stroke-width="0.5"/><path d="M187.28058,177.80871c-2.41225,-0.19965 0.23678,-1.76858 -0.30931,-2.32432c0,0 -0.21577,-0.46257 0.24678,-0.67833c0.46255,-0.21576 0.67834,0.24679 0.67834,0.24679c0.56805,1.67997 -1.18047,1.72474 -0.51056,1.7464c0.00418,-0.00004 0.00638,0.00002 0.00638,0.00002l0.00004,0.00019c0.06313,0.00198 0.14693,0.00382 0.25508,0.00675l-0.14143,0.50674l0.11369,0.51369c-0.08986,-0.00245 -0.17437,-0.00633 -0.25381,-0.0116l-0.00131,0.00468c0,0 -0.03387,-0.00092 -0.0839,-0.01101z" fill="#0554ff" stroke="none" stroke-width="0.5"/><path d="M181.07146,165.13899c-0.51022,-0.01387 -0.49635,-0.5241 -0.49635,-0.5241l0.05461,-0.02547c-0.15412,-0.80369 -1.88613,-0.8446 -0.22876,-1.96775c0,0 0.46256,-0.21576 0.67833,0.24678c0.17625,0.37783 -0.10006,0.591 -0.20722,0.65642c0.17202,0.06236 0.45039,0.2337 0.68276,0.633l0.04073,0.48476c0,0 -0.01388,0.51022 -0.5241,0.49636z" fill="#0554ff" stroke="none" stroke-width="0.5"/><path d="M186.33843,152.68207c-0.48767,-0.26064 -0.22704,-0.7483 -0.22704,-0.7483l0.24458,-0.42621c0.02192,-0.80628 0.3597,-0.8259 0.05796,-1.63243c0,0 -0.16054,-0.52912 0.3686,-0.68966c0.52913,-0.16054 0.68965,0.3686 0.68965,0.3686c0.30992,1.18489 -0.01847,1.17967 -0.04721,2.23674l-0.33822,0.66425c0,0 -0.26065,0.48767 -0.7483,0.22704z" fill="#4f340e" stroke="none" stroke-width="0.5"/><path d="M177.25626,136.44176c-0.51022,-0.01387 -0.49636,-0.5241 -0.49636,-0.5241l0.00693,-0.25512c0.01894,-0.69692 -0.32222,-1.55029 -0.94349,-1.86665c0,0 -0.45015,-0.24057 -0.20957,-0.69072c0.24059,-0.45016 0.69073,-0.20958 0.69073,-0.20958c1.41615,0.81259 1.52976,1.06645 1.48278,2.7947l-0.00693,0.25511c0,0 -0.01389,0.51023 -0.5241,0.49635z" fill="#4f340e" stroke="none" stroke-width="0.5"/></g><g><g><path d="M164.05189,154.3838l0.2007,-7.38264c0,0 12.64053,2.92949 19.27734,3.10992c6.84891,0.18621 21.19986,-2.00949 21.19986,-2.00949l-0.20071,7.38263z" fill="#ff0000" stroke="none" stroke-width="0"/><g data-paper-data="{&quot;index&quot;:null}"><path d="M164.15166,152.87397c0,0 10.84286,1.92074 21.21076,1.87055c6.79667,-0.0329 18.89082,-2.06924 18.89082,-2.06924l0.04992,10.31391l-40.83762,-0.84036z" fill="#c70303" stroke="#9966ff" stroke-width="1"/><path d="M198.87409,157.66524c0.05012,-0.37869 0.42882,-0.32859 0.42882,-0.32859l0.18935,0.02506c1.05856,0.17768 2.01932,-0.50341 3.12984,-0.35643c0,0 0.37872,0.05013 0.3286,0.42882c-0.05012,0.37869 -0.42883,0.32859 -0.42883,0.32859c-1.092,-0.14452 -2.03055,0.47767 -3.12983,0.35644l-0.18934,-0.02506c0,0 -0.37872,-0.05012 -0.32859,-0.42881z" fill="#0554ff" stroke="none" stroke-width="0.5"/><path d="M190.93064,161.21757c-0.12453,-0.36114 0.23661,-0.48566 0.23661,-0.48566l0.29595,-0.08132c0.4675,-0.75857 0.12417,-1.41682 1.40462,-1.27562c0,0 0.37871,0.05012 0.32859,0.42882c-0.05012,0.37869 -0.42882,0.32858 -0.42882,0.32858c-0.67283,-0.11294 -0.43085,0.53967 -0.83972,1.12468l-0.51157,0.19714c0,0 -0.36113,0.12452 -0.48566,-0.23661z" fill="#0554ff" stroke="none" stroke-width="0.5"/><path d="M183.15051,158.70756c0.36114,-0.12453 0.48566,0.23661 0.48566,0.23661l0.01983,0.2325c0.68017,-0.1192 0.76186,0.1102 1.01603,0.67526c0,0 0.12452,0.36112 -0.23661,0.48566c-0.36113,0.12453 -0.48565,-0.23661 -0.48565,-0.23661c-0.03053,-0.35801 -0.36258,-0.23602 -0.77722,-0.33274l-0.25864,-0.57502c0,0 -0.12453,-0.36113 0.23662,-0.48566z" fill="#0554ff" stroke="none" stroke-width="0.5"/><path d="M172.70881,157.69061c0.21418,-0.31631 0.53048,-0.10213 0.53048,-0.10213l0.35363,0.23946c0.70046,0.47599 0.98517,0.86036 1.81854,0.97066c0,0 0.3787,0.05013 0.32859,0.42882c-0.05012,0.37869 -0.42883,0.32859 -0.42883,0.32859c-0.97129,-0.12856 -1.35228,-0.55965 -2.14666,-1.09547l-0.35364,-0.23946c0,0 -0.31631,-0.21418 -0.10212,-0.53049z" fill="#0554ff" stroke="none" stroke-width="0.5"/><path d="M167.71498,161.6333c0.05012,-0.37869 0.42881,-0.32857 0.42881,-0.32857c0.75739,0.10025 1.70414,0.22554 2.46155,0.32578c0,0 0.37869,0.05014 0.32859,0.42883c-0.05012,0.37869 -0.42882,0.32858 -0.42882,0.32858c-0.75739,-0.10025 -1.51479,-0.20047 -2.27218,-0.30072l-0.18935,-0.02507c0,0 -0.37869,-0.05013 -0.32857,-0.42882z" fill="#0554ff" stroke="none" stroke-width="0.5"/><path d="M167.57573,157.95423c-0.05987,0.08841 -0.16706,0.17055 -0.35642,0.14549c-0.37869,-0.05012 -0.32859,-0.42882 -0.32859,-0.42882l0.45388,-0.51793c0.37869,0.05012 0.75741,0.10025 1.1361,0.15037c0,0 0.3787,0.05012 0.32858,0.42881c-0.05012,0.37869 -0.42882,0.32857 -0.42882,0.32857c-0.26826,-0.0355 -0.53649,-0.071 -0.80473,-0.1065z" fill="#0554ff" stroke="none" stroke-width="0.5"/><path d="M179.07316,160.24657c0.18935,0.02506 0.2715,0.13228 0.30631,0.23321c0.01577,0.00208 0.03155,0.00419 0.04732,0.00627c0,0 0.37871,0.05012 0.32858,0.42882c-0.05012,0.37869 -0.42882,0.32858 -0.42882,0.32858c-0.12624,-0.01671 -0.25246,-0.03342 -0.3787,-0.05013l-0.30353,-0.61816c0,0 0.05014,-0.37869 0.42883,-0.32858z" fill="#0554ff" stroke="none" stroke-width="0.5"/><path d="M180.20176,160.76093c-0.12453,-0.36114 0.23661,-0.48566 0.23661,-0.48566l0.29595,-0.08132c0.20199,-0.25551 0.57512,-0.39008 0.90063,-0.379c0,0 0.37869,0.05014 0.32859,0.42883c-0.05012,0.37869 -0.42882,0.32857 -0.42882,0.32857c-0.12258,-0.05721 -0.2723,0.10853 -0.33571,0.22804l-0.51157,0.19715c0,0 -0.36114,0.12453 -0.48567,-0.23661z" fill="#0554ff" stroke="none" stroke-width="0.5"/><path d="M186.79472,157.22252c0.05012,-0.37869 0.42881,-0.32857 0.42881,-0.32857c0.88364,0.11695 2.14595,0.28401 3.02959,0.40096c0,0 0.37871,0.05012 0.32859,0.42882c-0.05012,0.37869 -0.42882,0.32859 -0.42882,0.32859c-0.88364,-0.11695 -1.76726,-0.2339 -2.6509,-0.35085l-0.3787,-0.05011c0,0 -0.37869,-0.05014 -0.32858,-0.42883z" fill="#0554ff" stroke="none" stroke-width="0.5"/><path d="M197.35807,161.23811c0.27395,-0.20991 0.49002,0.01731 0.52921,0.06316c0.74379,-0.28099 1.5421,-0.65548 2.31504,-0.57024c0,0 0.3787,0.05013 0.32859,0.42883c-0.05012,0.37869 -0.42882,0.32858 -0.42882,0.32858c-0.67678,-0.1136 -1.57543,0.4052 -2.22285,0.62845l-0.59204,-0.3432c0,0 -0.23234,-0.30322 0.07088,-0.53557z" fill="#0554ff" stroke="none" stroke-width="0.5"/><path d="M193.57229,156.96353c0.05012,-0.37869 0.42882,-0.32859 0.42882,-0.32859c0.37869,0.05012 0.94675,0.12532 1.32545,0.17543c0,0 0.37869,0.05012 0.32857,0.42882c-0.05012,0.37869 -0.42881,0.32859 -0.42881,0.32859c-0.37869,-0.05012 -0.7574,-0.10024 -1.1361,-0.15036l-0.18934,-0.02505c0,0 -0.3787,-0.05013 -0.32859,-0.42882z" fill="#0554ff" stroke="none" stroke-width="0.5"/><path d="M200.94581,159.48076c0.05012,-0.37869 0.42882,-0.32857 0.42882,-0.32857l0.37869,0.05012c0.36559,0.04839 0.50952,0.24424 0.63044,-0.08888c0,0 0.2142,-0.31632 0.5305,-0.10212c0.31631,0.21418 0.10212,0.53048 0.10212,0.53048c-0.49736,0.60775 -0.63078,0.51487 -1.36329,0.41792l-0.37871,-0.05011c0,0 -0.37869,-0.05013 -0.32857,-0.42882z" fill="#0554ff" stroke="none" stroke-width="0.5"/><path d="M195.22913,160.45816c0.05012,-0.37869 0.42882,-0.32859 0.42882,-0.32859l0.18935,0.02506c0.20117,0.03377 0.41703,0.00074 0.60781,-0.07154c0,0 0.36112,-0.12452 0.48566,0.23662c0.12453,0.36114 -0.23661,0.48566 -0.23661,0.48566c-0.30548,0.09859 -0.63803,0.14186 -0.95712,0.10667l-0.18935,-0.02507c0,0 -0.3787,-0.05013 -0.32859,-0.42882z" fill="#0554ff" stroke="none" stroke-width="0.5"/><path d="M189.77018,158.88519c0.30321,-0.23233 0.53557,0.07087 0.53557,0.07087l-0.08882,0.06805c0.28762,0.03807 0.75961,0.00996 0.9413,0.1981c0.01878,-0.17139 0.04182,-0.34768 0.05557,-0.45149c0,0 0.05013,-0.37871 0.42882,-0.3286c0.37869,0.05012 0.32857,0.42883 0.32857,0.42883c-0.24642,1.86184 -0.95621,1.02944 -1.85451,0.91054l-0.41738,-0.36077c0,0 -0.23234,-0.30323 0.07089,-0.53556z" fill="#0554ff" stroke="none" stroke-width="0.5"/><path d="M182.51842,157.66057c0.36114,-0.12453 0.48567,0.23661 0.48567,0.23661l-0.05461,0.18488c1.05023,-0.63954 1.03516,1.4481 1.20827,0.14014c0,0 0.05013,-0.3787 0.42882,-0.32859c0.37869,0.05012 0.32857,0.42883 0.32857,0.42883c-0.28195,2.13026 -1.33684,0.2542 -2.30026,0.44644l-0.33306,-0.62265c0,0 -0.12454,-0.36113 0.2366,-0.48566z" fill="#0554ff" stroke="none" stroke-width="0.5"/><path d="M171.82775,159.67298c0.05012,-0.37869 0.42883,-0.32858 0.42883,-0.32858l0.17212,0.08033c0.65836,-1.81357 1.93926,-0.6741 2.57235,0.43703c0,0 0.18711,0.33302 -0.14592,0.52016c-0.33303,0.18713 -0.52016,-0.14592 -0.52016,-0.14592c-0.75091,-1.35872 -0.7766,-1.11232 -1.59335,-0.11429l-0.58528,-0.01992c0,0 -0.37869,-0.05012 -0.32857,-0.42881z" fill="#0554ff" stroke="none" stroke-width="0.5"/><path d="M167.28698,160.54978c0.33676,-1.77997 1.29796,0.31419 1.75423,-0.04893c0,0 0.36113,-0.12453 0.48565,0.23661c0.12453,0.36114 -0.2366,0.48567 -0.2366,0.48567c-1.29478,0.2918 -1.19173,-1.01321 -1.26012,-0.51625c-0.0003,0.00311 -0.00051,0.00476 -0.00051,0.00476l-0.00014,0.00001c-0.0064,0.04684 -0.0143,0.10906 -0.02492,0.18933l-0.36616,-0.14479l-0.39123,0.04456c0.00883,-0.06671 0.01832,-0.1293 0.02843,-0.18803l-0.00339,-0.00133c0,0 0.00333,-0.02512 0.01474,-0.0616z" fill="#0554ff" stroke="none" stroke-width="0.5"/><path d="M177.20194,156.91626c0.05012,-0.37869 0.42881,-0.32859 0.42881,-0.32859l0.0147,0.04263c0.61025,-0.05203 0.77578,-1.33804 1.48252,-0.0168c0,0 0.12453,0.36113 -0.2366,0.48566c-0.29498,0.10171 -0.4321,-0.12059 -0.47244,-0.20545c-0.05983,0.12316 -0.20909,0.317 -0.52443,0.45885l-0.364,-0.00749c0,0 -0.3787,-0.05013 -0.32857,-0.42882z" fill="#0554ff" stroke="none" stroke-width="0.5"/><path d="M186.06337,161.8083c0.23203,-0.34266 0.5747,-0.11062 0.5747,-0.11062l0.29818,0.21529c0.59844,0.07921 0.5867,0.33216 1.21058,0.17046c0,0 0.40638,-0.07823 0.4846,0.32814c0.07823,0.40638 -0.32815,0.48461 -0.32815,0.48461c-0.90614,0.13826 -0.87664,-0.10578 -1.66121,-0.20962l-0.46805,-0.30357c0,0 -0.34266,-0.23203 -0.11063,-0.57471z" fill="#0554ff" stroke="none" stroke-width="0.5"/><path d="M198.86016,156.31472c0.05012,-0.37869 0.42882,-0.32858 0.42882,-0.32858l0.18935,0.02507c0.51727,0.06845 1.17909,-0.11893 1.46303,-0.5567c0,0 0.21418,-0.31631 0.53049,-0.10212c0.31631,0.21418 0.10212,0.53049 0.10212,0.53049c-0.7153,0.99072 -0.91313,1.05548 -2.19587,0.88571l-0.18935,-0.02506c0,0 -0.3787,-0.05013 -0.32858,-0.42882z" fill="#0554ff" stroke="none" stroke-width="0.5"/></g></g><g fill="#a8a8a8" stroke="#6b6b6b" stroke-width="1"><path d="M174.66616,146.91629c-0.01167,0.4296 -0.97058,0.75205 -2.14178,0.72021c-1.1712,-0.03184 -2.11118,-0.40591 -2.0995,-0.83552c0.01167,-0.4296 0.97059,-0.75204 2.14179,-0.72021c1.17119,0.03185 2.11117,0.40591 2.09948,0.83552z"/><path d="M176.09145,148.15808c-0.01275,0.46866 -1.44723,0.80985 -3.20404,0.7621c-1.7568,-0.04775 -3.17063,-0.4664 -3.15789,-0.93505c0.01274,-0.46866 1.44724,-0.80986 3.20403,-0.76211c1.7568,0.04775 3.17063,0.46641 3.15789,0.93506z"/><path d="M176.5716,150.01107c-0.01275,0.46866 -1.71426,0.80261 -3.80045,0.74589c-2.0862,-0.05671 -3.76705,-0.48261 -3.75431,-0.95127c0.01274,-0.46866 1.71425,-0.8026 3.80045,-0.74588c2.08619,0.05672 3.76706,0.48261 3.75432,0.95126z"/><path d="M177.32456,151.58844c-0.01487,0.54677 -1.89612,0.93919 -4.20192,0.8765c-2.3058,-0.06268 -4.16295,-0.55675 -4.14809,-1.10351c0.01487,-0.54677 1.89612,-0.93919 4.20192,-0.8765c2.3058,0.06268 4.16297,0.55674 4.14809,1.10351z"/></g><g fill="#a8a8a8" stroke="#6b6b6b" stroke-width="1"><path d="M199.10525,147.5807c-0.01168,0.4296 -0.97059,0.75204 -2.14179,0.72021c-1.17119,-0.03185 -2.11117,-0.40591 -2.09948,-0.83552c0.01168,-0.4296 0.9706,-0.75204 2.14179,-0.7202c1.1712,0.03186 2.11117,0.40591 2.09949,0.83551z"/><path d="M200.5305,148.82249c-0.01274,0.46866 -1.44723,0.80985 -3.20404,0.7621c-1.7568,-0.04775 -3.17063,-0.4664 -3.15789,-0.93505c0.01274,-0.46866 1.44723,-0.80985 3.20404,-0.7621c1.7568,0.04775 3.17062,0.46639 3.15789,0.93505z"/><path d="M201.01066,150.67549c-0.01274,0.46866 -1.71426,0.8026 -3.80046,0.74588c-2.08619,-0.05671 -3.76706,-0.48261 -3.75432,-0.95126c0.01274,-0.46866 1.71426,-0.8026 3.80046,-0.74589c2.0862,0.05671 3.76706,0.4826 3.75432,0.95126z"/><path d="M201.76362,152.25285c-0.01487,0.54677 -1.89612,0.93918 -4.20192,0.8765c-2.3058,-0.06268 -4.16295,-0.55675 -4.14809,-1.10351c0.01487,-0.54677 1.89612,-0.93919 4.20191,-0.8765c2.3058,0.06268 4.16297,0.55674 4.14809,1.10351z"/></g></g><g><path d="M161.73168,138.23357l-0.87468,-6.75426c0,0 11.93506,0.85805 18.00698,0.07173c6.26598,-0.81145 19.02505,-4.86738 19.02505,-4.86738l0.87467,6.75427z" data-paper-data="{&quot;index&quot;:null}" fill="#ff0000" stroke="none" stroke-width="0"/><g data-paper-data="{&quot;index&quot;:null}"><path d="M199.63471,140.32107l-37.38702,4.59076l-0.91893,-9.46695c0,0 11.28599,0.73697 17.52453,0.13142c9.5165,-0.92373 19.28442,-3.70006 19.28442,-3.70006z" fill="#c70303" stroke="#9966ff" stroke-width="1"/><path d="M166.46914,139.94381l-0.17138,0.0407c-0.99716,0.21404 -1.91642,-0.26898 -2.90473,-0.03425c0,0 -0.34274,0.0814 -0.42414,-0.26135c-0.0814,-0.34274 0.26135,-0.42414 0.26135,-0.42414c1.00507,-0.23872 1.9502,0.29627 2.90474,0.03425l0.17137,-0.04071c0,0 0.34274,-0.0814 0.42413,0.26133c0.0814,0.34274 -0.26135,0.42414 -0.26135,0.42414z" fill="#0554ff" stroke="none" stroke-width="0.5"/><path d="M173.9269,142.29818l-0.48777,-0.13302c-0.42982,-0.49846 -0.26885,-1.11981 -0.87557,-0.95327c0,0 -0.34274,0.08139 -0.42414,-0.26135c-0.0814,-0.34274 0.26133,-0.42415 0.26133,-0.42415c1.16151,-0.24931 0.9081,0.38669 1.40797,1.03891l0.27912,0.04692c0,0 0.34296,0.08045 0.26249,0.42343c-0.08047,0.34298 -0.42343,0.26251 -0.42343,0.26251z" fill="#0554ff" stroke="none" stroke-width="0.5"/><path d="M181.51577,139.42862l-0.18349,0.55174c-0.37137,0.12752 -0.68742,0.04666 -0.68193,0.37795c0,0 -0.08045,0.34296 -0.42342,0.2625c-0.34298,-0.08047 -0.2625,-0.42343 -0.2625,-0.42343c0.18032,-0.54217 0.23382,-0.76028 0.86897,-0.71454l-0.00356,-0.21516c0,0 0.08046,-0.34296 0.42343,-0.26249c0.34298,0.08047 0.2625,0.42342 0.2625,0.42342z" fill="#0554ff" stroke="none" stroke-width="0.5"/><path d="M190.6936,137.59176l-0.30203,0.25278c-0.67867,0.56586 -0.98789,0.997 -1.86696,1.2058c0,0 -0.34274,0.0814 -0.42413,-0.26133c-0.0814,-0.34274 0.26134,-0.42414 0.26134,-0.42414c0.75427,-0.17914 0.97949,-0.55842 1.57758,-1.06063l0.30205,-0.25277c0,0 0.27015,-0.22608 0.49624,0.04407c0.22609,0.27015 -0.04407,0.49623 -0.04407,0.49623z" fill="#0554ff" stroke="none" stroke-width="0.5"/><path d="M195.4266,140.66975l-0.17137,0.0407c-0.68548,0.1628 -1.37097,0.32562 -2.05645,0.48842c0,0 -0.34274,0.0814 -0.42415,-0.26133c-0.0814,-0.34275 0.26135,-0.42414 0.26135,-0.42414c0.68549,-0.16281 1.54234,-0.36633 2.22782,-0.52913c0,0 0.34273,-0.08142 0.42414,0.26134c0.0814,0.34274 -0.26134,0.42414 -0.26134,0.42414z" fill="#0554ff" stroke="none" stroke-width="0.5"/><path d="M194.74322,137.03024c0,0 -0.34273,0.08142 -0.42414,-0.26134c-0.0814,-0.34274 0.26134,-0.42414 0.26134,-0.42414c0.34274,-0.0814 0.68549,-0.16281 1.02823,-0.2442l0.46484,0.4327c0,0 0.0814,0.34275 -0.26134,0.42414c-0.17137,0.0407 -0.2774,-0.02464 -0.34059,-0.10014c-0.24277,0.05767 -0.48555,0.11532 -0.72833,0.17296z" fill="#0554ff" stroke="none" stroke-width="0.5"/><path d="M185.56203,140.29709l-0.22063,0.59551c-0.11424,0.02713 -0.2285,0.05427 -0.34274,0.08141c0,0 -0.34275,0.0814 -0.42414,-0.26134c-0.0814,-0.34275 0.26134,-0.42415 0.26134,-0.42415c0.01427,-0.00338 0.02857,-0.00679 0.04285,-0.01017c0.02249,-0.09587 0.08783,-0.2019 0.2592,-0.2426c0.34275,-0.08141 0.42413,0.26134 0.42413,0.26134z" fill="#0554ff" stroke="none" stroke-width="0.5"/><path d="M183.72716,140.87571l-0.48777,-0.13302c-0.06934,-0.1037 -0.2222,-0.24176 -0.32933,-0.17781c0,0 -0.34274,0.08139 -0.42413,-0.26134c-0.0814,-0.34274 0.26133,-0.42413 0.26133,-0.42413c0.29761,-0.04062 0.6525,0.04792 0.86172,0.26346l0.27912,0.04692c0,0 0.34296,0.08047 0.26249,0.42344c-0.08047,0.34298 -0.42344,0.26249 -0.42344,0.26249z" fill="#0554ff" stroke="none" stroke-width="0.5"/><path d="M177.50971,138.4078l-0.34274,0.0814c-0.79972,0.18993 -1.59946,0.37989 -2.39919,0.56983c0,0 -0.34274,0.08139 -0.42414,-0.26135c-0.0814,-0.34274 0.26134,-0.42413 0.26134,-0.42413c0.79972,-0.18993 1.9422,-0.46129 2.74193,-0.65123c0,0 0.34274,-0.0814 0.42414,0.26134c0.0814,0.34275 -0.26135,0.42414 -0.26135,0.42414z" fill="#0554ff" stroke="none" stroke-width="0.5"/><path d="M168.57064,143.14042l-0.51105,0.37025c-0.61485,-0.14427 -1.48781,-0.53617 -2.09809,-0.36865c0,0 -0.34273,0.08142 -0.42414,-0.26134c-0.08141,-0.34275 0.26134,-0.42414 0.26134,-0.42414c0.70115,-0.1505 1.46857,0.11842 2.17723,0.30661c0.03167,-0.04572 0.20865,-0.27438 0.4796,-0.10743c0.29991,0.18478 0.11513,0.4847 0.11513,0.4847z" fill="#0554ff" stroke="none" stroke-width="0.5"/><path d="M171.26755,138.80416l-0.17137,0.0407c-0.34275,0.08141 -0.68548,0.16281 -1.02823,0.24421c0,0 -0.34274,0.08141 -0.42414,-0.26134c-0.0814,-0.34274 0.26134,-0.42415 0.26134,-0.42415c0.34274,-0.0814 0.85686,-0.20351 1.1996,-0.28491c0,0 0.34274,-0.0814 0.42414,0.26134c0.0814,0.34274 -0.26134,0.42413 -0.26134,0.42413z" fill="#0554ff" stroke="none" stroke-width="0.5"/><path d="M164.73832,141.80322l-0.34275,0.0814c-0.66296,0.15746 -0.77667,0.25516 -1.28981,-0.25588c0,0 -0.22609,-0.27014 0.04406,-0.49624c0.27016,-0.2261 0.49626,0.04406 0.49626,0.04406c0.1421,0.2943 0.25581,0.10117 0.5867,0.02258l0.34274,-0.0814c0,0 0.34275,-0.08139 0.42414,0.26135c0.0814,0.34274 -0.26134,0.42414 -0.26134,0.42414z" fill="#0554ff" stroke="none" stroke-width="0.5"/><path d="M170.0744,142.16518l-0.17138,0.0407c-0.28944,0.06213 -0.59857,0.05356 -0.88805,-0.00833c0,0 -0.34297,-0.08046 -0.2625,-0.42342c0.08047,-0.34298 0.42342,-0.2625 0.42342,-0.2625c0.18178,0.04847 0.3829,0.05858 0.56432,0.00878l0.17137,-0.0407c0,0 0.34274,-0.0814 0.42413,0.26133c0.0814,0.34275 -0.26133,0.42415 -0.26133,0.42415z" fill="#0554ff" stroke="none" stroke-width="0.5"/><path d="M175.31192,140.27205l-0.34918,0.37001c-0.813,0.1931 -1.38634,1.02316 -1.78656,-0.66191c0,0 -0.08141,-0.34273 0.26134,-0.42413c0.34274,-0.0814 0.42414,0.26134 0.42414,0.26134c0.02233,0.09396 0.05995,0.25352 0.09321,0.40901c0.14909,-0.18959 0.58473,-0.20797 0.84505,-0.26979l-0.08785,-0.05412c0,0 0.18479,-0.29992 0.4847,-0.11513c0.29992,0.18479 0.11513,0.48472 0.11513,0.48472z" fill="#0554ff" stroke="none" stroke-width="0.5"/><path d="M181.99773,138.40896l-0.24732,0.6024c-0.90186,-0.08624 -1.69417,1.73355 -2.1521,-0.19443c0,0 -0.08142,-0.34273 0.26134,-0.42414c0.34274,-0.0814 0.42414,0.26134 0.42414,0.26134c0.28114,1.18376 0.07207,-0.73009 1.09539,-0.24158l-0.0674,-0.16452c0,0 0.08046,-0.34297 0.42343,-0.2625c0.34298,0.08047 0.2625,0.42343 0.2625,0.42343z" fill="#0554ff" stroke="none" stroke-width="0.5"/><path d="M191.47005,139.25596l-0.5351,0.07302c-0.84267,-0.83921 -0.88925,-1.06285 -1.4511,0.25391c0,0 -0.14051,0.32303 -0.46356,0.18251c-0.32304,-0.14052 -0.18252,-0.46356 -0.18252,-0.46356c0.47687,-1.0786 1.54542,-2.24379 2.31907,-0.64155l0.15039,-0.08981c0,0 0.34273,-0.08142 0.42414,0.26134c0.0814,0.34274 -0.26134,0.42414 -0.26134,0.42414z" fill="#0554ff" stroke="none" stroke-width="0.5"/><path d="M195.99854,139.26664l-0.00296,0.00153c0.01477,0.05293 0.02934,0.10949 0.04368,0.16984l-0.36309,-0.00429l-0.32239,0.16708c-0.01726,-0.07265 -0.03032,-0.12899 -0.04058,-0.17137l-0.00012,0c0,0 -0.00036,-0.00149 -0.00092,-0.00431c-0.10923,-0.44953 0.1074,0.73809 -1.10777,0.5915c0,0 -0.34297,-0.08047 -0.26249,-0.42344c0.08047,-0.34297 0.42343,-0.26249 0.42343,-0.26249c0.45256,0.29046 1.13852,-1.72068 1.61396,-0.11919c0.01388,0.03238 0.01929,0.05513 0.01929,0.05513z" fill="#0554ff" stroke="none" stroke-width="0.5"/><path d="M186.28177,137.22953l-0.33325,0.04093c-0.30257,-0.10063 -0.45763,-0.2645 -0.52404,-0.37191c-0.02907,0.08162 -0.13407,0.2984 -0.41421,0.23268c-0.34298,-0.08047 -0.26249,-0.42343 -0.26249,-0.42343c0.52481,-1.27826 0.79696,-0.11392 1.36169,-0.12326l0.0095,-0.04048c0,0 0.34274,-0.08141 0.42414,0.26134c0.0814,0.34275 -0.26134,0.42414 -0.26134,0.42414z" fill="#0554ff" stroke="none" stroke-width="0.5"/><path d="M178.82321,142.65997l-0.401,0.32228c-0.71009,0.16865 -0.6602,0.38979 -1.50444,0.34769c0,0 -0.38014,-0.03376 -0.34639,-0.41389c0.03375,-0.38014 0.4139,-0.34638 0.4139,-0.34638c0.58748,0.08999 0.55306,-0.14099 1.09467,-0.26964l0.25342,-0.22539c0,0 0.29267,-0.24492 0.53759,0.04773c0.24493,0.29267 -0.04774,0.53759 -0.04774,0.53759z" fill="#0554ff" stroke="none" stroke-width="0.5"/><path d="M166.3556,138.70351l-0.17138,0.0407c-1.16094,0.27573 -1.3485,0.23483 -2.0974,-0.60719c0,0 -0.22609,-0.27015 0.04406,-0.49624c0.27016,-0.2261 0.49623,0.04406 0.49623,0.04406c0.30144,0.37506 0.92612,0.48506 1.39428,0.37388l0.17138,-0.0407c0,0 0.34274,-0.08139 0.42413,0.26134c0.0814,0.34274 -0.26134,0.42414 -0.26134,0.42414z" fill="#0554ff" stroke="none" stroke-width="0.5"/></g><g data-paper-data="{&quot;index&quot;:null}" fill="#a8a8a8" stroke="#6b6b6b" stroke-width="1"><path d="M192.69075,126.29118c1.0715,-0.13876 1.98141,0.06737 2.0323,0.4604c0.0509,0.39303 -0.77648,0.82417 -1.84798,0.96293c-1.0715,0.13876 -1.98141,-0.06738 -2.03231,-0.46041c-0.05089,-0.39303 0.77649,-0.82414 1.84799,-0.9629z"/><path d="M192.46102,127.37344c1.60727,-0.20814 2.95523,-0.02929 3.01075,0.39948c0.05552,0.42877 -1.20241,0.94509 -2.80967,1.15323c-1.60727,0.20814 -2.95523,0.02928 -3.01076,-0.39948c-0.05552,-0.42877 1.20242,-0.94509 2.80968,-1.15323z"/><path d="M192.73948,129.04769c1.90863,-0.24717 3.50089,-0.09995 3.55641,0.32882c0.05551,0.42877 -1.44671,0.97673 -3.35534,1.22388c-1.90863,0.24717 -3.50089,0.09994 -3.55642,-0.32882c-0.05553,-0.42876 1.44671,-0.97671 3.35535,-1.22388z"/><path d="M192.54327,130.3887c2.10954,-0.27318 3.87217,-0.08913 3.93695,0.4111c0.06478,0.50023 -1.59282,1.1272 -3.70236,1.4004c-2.10954,0.27318 -3.87217,0.08914 -3.93695,-0.41109c-0.06478,-0.50024 1.59282,-1.1272 3.70236,-1.40039z"/></g><g data-paper-data="{&quot;index&quot;:null}" fill="#a8a8a8" stroke="#6b6b6b" stroke-width="1"><path d="M169.98242,129.23192c1.0715,-0.13876 1.9814,0.06737 2.03231,0.4604c0.0509,0.39303 -0.77649,0.82415 -1.84799,0.96291c-1.0715,0.13876 -1.9814,-0.06738 -2.0323,-0.46041c-0.0509,-0.39303 0.77647,-0.82415 1.84799,-0.9629z"/><path d="M169.75269,130.31416c1.60727,-0.20814 2.95522,-0.02928 3.01075,0.39948c0.05553,0.42876 -1.20242,0.94509 -2.80968,1.15323c-1.60727,0.20814 -2.95523,0.02929 -3.01075,-0.39948c-0.05553,-0.42876 1.20241,-0.94509 2.80968,-1.15323z"/><path d="M170.03115,131.98841c1.90863,-0.24717 3.50089,-0.09994 3.55642,0.32882c0.05553,0.42876 -1.44671,0.97672 -3.35534,1.22389c-1.90863,0.24717 -3.5009,0.09995 -3.55642,-0.32881c-0.05551,-0.42877 1.44672,-0.97674 3.35533,-1.2239z"/><path d="M169.83493,133.32944c2.10954,-0.27318 3.87217,-0.08913 3.93696,0.4111c0.06478,0.50024 -1.59283,1.12719 -3.70236,1.40039c-2.10954,0.27318 -3.87218,0.08912 -3.93696,-0.41111c-0.06478,-0.50023 1.59284,-1.12719 3.70236,-1.40039z"/></g></g></g><g><g><g fill="#8a8a8a" stroke="#212121" stroke-width="1"><path d="M217.933,184.77006c-4.03621,2.31992 -7.85564,7.82083 -11.29102,8.79135c-3.43538,0.97051 -3.26146,-0.92033 -6.00079,-0.39798c-2.73933,0.52235 -3.89974,5.93039 -7.25478,7.90894c-7.35058,4.33482 -14.86409,-4.23549 -15.19188,-5.70475c-0.25289,-1.13352 7.99193,-12.44698 10.75679,-15.31841c2.04725,-2.12616 5.25067,-1.03318 7.45233,-3.02829c2.20166,-1.99511 5.95017,-7.88336 8.14845,-9.65345c2.19826,-1.77008 5.90773,-0.99681 8.89327,-2.71281c4.25314,-2.44461 3.53842,-0.94909 7.10566,-1.89347c3.56725,-0.94438 8.06871,3.42677 8.86809,7.00986c0.78573,3.52195 6.53505,4.04833 1.02342,9.24328c-5.51163,5.19496 -8.12449,3.23531 -12.50952,5.75574z"/></g><path d="M209.61236,182.3576l-0.90213,0.11219c0.20004,-0.55956 0.50545,-1.13889 0.90294,-1.65542c0.41633,-0.52838 1.32944,-0.97986 1.34786,-1.51732c0.00966,-0.28218 -1.88032,-0.53313 -1.88908,-1.12134c-0.00333,-0.22345 1.17705,-2.23278 1.33593,-2.55581c1.38769,-2.82146 2.36591,-4.97449 4.46321,-7.63619c0,0 0.37783,-0.47949 0.73203,-0.26923c0.3542,0.21025 -0.02361,0.68973 -0.02361,0.68973c-2.02396,2.5686 -2.9393,4.61035 -4.27303,7.337c-0.19742,0.40358 -1.14329,1.82649 -1.1993,2.05375c-0.00608,0.02468 1.90167,0.75342 1.88908,1.12134c-0.01528,0.44636 -1.32101,1.86974 -1.67467,2.31857c-0.1406,0.17262 -0.26328,0.35886 -0.36713,0.5497c0.09807,0.23161 -0.15237,0.54942 -0.15237,0.54942l-0.09644,0.012c-0.00826,0.02375 -0.0162,0.04743 -0.02385,0.07104z" fill="#212121" stroke="none" stroke-width="0.5"/><path d="M202.15826,183.92432c-0.51761,0.19038 -0.50093,-0.29734 -0.50093,-0.29734l0.0476,-0.62383c0.34299,-0.95946 1.2186,-1.94353 1.52858,-2.79073c0.13133,-0.35895 -0.47203,-0.31279 -0.64181,-0.53521c-0.10732,-0.14059 -0.50614,-1.3532 -0.47872,-1.53165c0.13209,-0.85991 0.68292,-2.34677 1.10198,-3.25244c0,0 0.24642,-0.52136 0.70193,-0.47353c0.4555,0.04784 0.20909,0.5692 0.20909,0.5692c-0.41221,0.84989 -0.8182,2.05958 -0.98564,2.87059c-0.22856,1.10698 1.28931,1.06378 1.09304,2.20657c-0.12997,0.75673 -1.28068,2.03185 -1.5569,2.88444l0.01609,0.29583c0,0 -0.01669,0.48772 -0.5343,0.6781z" fill="#212121" stroke="none" stroke-width="0.5"/><path d="M196.72812,191.22885c-0.3542,-0.21024 0.02362,-0.68974 0.02362,-0.68974l0.35801,-0.35584c-0.64989,-1.2995 0.83428,-4.91941 1.4467,-6.70319c0,0 0.17951,-0.52288 0.66529,-0.54926c0.48578,-0.02638 0.30625,0.49652 0.30625,0.49652c-0.6852,1.99577 -1.8795,4.96208 -1.41839,6.60948l-0.64948,0.92281c0,0 -0.37781,0.47947 -0.73202,0.26922z" fill="#212121" stroke="none" stroke-width="0.5"/><path d="M212.8797,183.92628c-0.3542,-0.21025 0.02361,-0.68974 0.02361,-0.68974l0.25188,-0.31966c2.131,-2.70445 3.50552,-5.32854 5.57276,-7.95208c0,0 0.3778,-0.47948 0.73202,-0.26924c0.3542,0.21025 -0.02362,0.68974 -0.02362,0.68974c-2.05203,2.60424 -3.44644,5.25358 -5.57276,7.95207l-0.25188,0.31967c0,0 -0.37781,0.47948 -0.73201,0.26924z" fill="#212121" stroke="none" stroke-width="0.5"/><path d="M192.32644,194.3262c-0.49634,0.33483 -0.64417,-0.06765 -0.64417,-0.06765l-0.23767,-0.66879c0.04422,-1.29168 0.6706,-2.8837 1.42015,-4.25791c0.2227,-0.40829 0.85654,-0.70503 0.93911,-1.11093c0.09648,-0.47426 -0.46835,-0.634 -0.45847,-1.08284c0.01902,-0.86464 0.33611,-1.88842 0.96626,-2.73906c0,0 0.37781,-0.47948 0.73201,-0.26924c0.3542,0.21024 -0.02361,0.68974 -0.02361,0.68974c-1.23323,1.40469 0.0619,2.08815 -0.21634,3.25493c-0.15613,0.65474 -0.77719,0.89439 -1.07591,1.44631c-0.59267,1.09508 -1.22068,2.5044 -1.25601,3.5369l0.20312,0.5312c0,0 0.14784,0.4025 -0.34849,0.73731z" fill="#212121" stroke="none" stroke-width="0.5"/></g><path d="M194.04441,197.27639c0.12574,1.00585 -0.45294,1.46225 -0.54152,2.41372c-0.20254,2.17556 -1.78541,3.41842 -3.8592,4.1998c-0.77016,0.29019 -1.22269,0.88271 -1.8254,1.30791c-0.32651,0.23036 -1.57726,0.14263 -1.99925,0.1889c-1.68328,0.18463 -3.24517,-0.1889 -4.89712,-0.00771c-0.29721,0.0326 -1.5798,0.3734 -1.81504,0.11903c-0.18936,-0.20474 0.19513,-0.52734 0.23286,-0.80366c0.14873,-1.08899 0.52121,-1.71455 0.9617,-2.44676l0.0517,0.04154l0.47696,-0.59535c0.0648,-0.08077 0.07598,-0.13739 0.0638,-0.24844c-0.02437,-0.22214 -0.22595,-0.38337 -0.44809,-0.35901l-0.46672,0.0504c-0.62983,-0.22792 -1.04891,-0.16687 -1.71262,-0.08669c-0.23006,0.02778 -0.66599,0.31211 -0.6912,0.08175c-0.03628,-0.33147 0.36263,-0.57235 0.44858,-0.89455c0.38134,-1.42946 1.77507,-2.05795 1.85761,-3.27739c0.04033,-0.00824 0.07929,-0.01648 0.11655,-0.02505l-0.11369,-0.13357c-0.0012,-0.04633 -0.0046,-0.09417 -0.00965,-0.14231l0.20934,-0.02255l-0.06011,-0.53905c-0.02437,-0.22214 -0.22509,-0.38516 -0.44723,-0.36079c-0.22213,0.02438 -0.33096,0.20819 -0.30661,0.43034l-0.03067,0.20082c-1.08506,-0.42127 -3.2318,0.33141 -3.9113,-0.73171c-0.77587,-1.21389 1.14809,-1.95196 1.74549,-2.41127c0.2953,-0.22704 0.63281,-0.57363 0.94617,-0.92022l0.00962,0.01498l0.50026,-0.32414c0.12896,-0.07942 0.20869,-0.23004 0.19107,-0.3906c-0.02437,-0.22214 -0.17662,-0.357 -0.39876,-0.33263l-0.73751,0.05107c-0.5887,-0.45047 -1.08608,-0.72153 -1.57241,-1.30799c-0.33444,-0.26966 -2.35414,-1.48287 -2.06478,-2.07488c1.04541,-2.13867 4.35137,-3.69467 6.49769,-4.27002c0.30226,-0.08102 0.85055,1.02961 0.92358,1.13605c2.32165,0.89105 4.46972,0.4776 6.85827,-0.09036c0.71094,-0.16906 1.65367,0.02478 2.30051,-0.39166c2.362,3.84124 3.0265,8.4795 3.51706,12.95202z" data-paper-data="{&quot;noHover&quot;:false,&quot;origItem&quot;:[&quot;Path&quot;,{&quot;applyMatrix&quot;:true,&quot;segments&quot;:[[[352.98765,211.79952],[7.15143,15.10973],[-2.55196,1.27316]],[[344.36571,212.32209],[2.68815,-0.33561],[-9.03143,1.12755]],[[319.12178,209.89399],[8.19519,4.2219],[-0.22607,-0.42176]],[[316.18244,205.33333],[1.14654,-0.1764],[-8.14174,1.25266]],[[290.56826,218.40736],[4.71675,-7.45853],[-1.30565,2.06461]],[[297.34245,226.88235],[-1.12338,-1.1289],[1.55513,2.35765]],[[302.61113,232.33333],[-1.98728,-1.89794],[0,0]],[[305.18244,232.33333],[0,0],[0.82843,0]],[[306.68244,233.83333],[0,-0.82843],[0,0.5988]],[[305.82419,235.18951],[0.50737,-0.24052],[0,0]],[303.85326,236.17497],[[303.82379,236.11605],[0,0],[-1.29482,1.15054]],[[299.97103,239.10931],[1.17999,-0.71729],[-2.38708,1.45106]],[[292.56826,247.25931],[-2.36844,-4.78677],[2.07425,4.1922]],[[306.68244,251.51318],[-3.82814,-1.9909],[0,0]],[[306.68244,250.83333],[0,0],[0,-0.82843]],[[308.18244,249.33333],[-0.82843,0],[0.82843,0]],[[309.68244,250.83333],[0,-0.82843],[0,0]],[309.68244,252.83333],[[308.90249,252.83333],[0,0],[-0.00083,0.17941]],[[308.87958,253.35911],[0.01432,-0.1712],[0,0]],[[309.2431,253.89399],[0,0],[-0.14078,0.0165]],[[308.80379,253.93991],[0.15196,-0.01408],[-0.79701,4.46031]],[[300.62231,265.24677],[1.98302,-5.11343],[-0.44697,1.15256]],[[298.60546,268.35899],[0.00029,-1.23619],[-0.0002,0.85903]],[[301.18244,268.33333],[-0.85898,0.00943],[2.47817,-0.0272]],[[307.44609,269.33333],[-2.22884,-1.09444],[0,0]],[[309.18244,269.33333],[0,0],[0.82843,0]],[[310.68244,270.83333],[0,-0.82843],[0,0.41421]],[[310.2431,271.89399],[0.27145,-0.27145],[0,0]],[308.2431,273.89399],[[308.06872,273.71962],[0,0],[-1.91921,2.52017]],[[303.64231,282.17796],[0.98821,-3.95282],[-0.25075,1.003]],[[302.45841,285.04474],[-0.61503,-0.83104],[0.76407,1.03243]],[[309.18244,285.33333],[-1.10841,0],[6.16069,0]],[[327.18244,287.33333],[-6.27749,0],[1.57371,0]],[[334.60841,287.44751],[-1.29634,0.7169],[2.39284,-1.32329]],[[341.8448,283.37183],[-2.95535,0.75806],[7.95781,-2.0412]],[[357.72256,269.4887],[-1.62566,7.93509],[0.71097,-3.47035]],[[360.68244,260.83333],[0.05678,3.75743],[0,-16.67958]]],&quot;closed&quot;:true}]}" fill="#001a3a" stroke="#e3efff" stroke-width="1.5"/></g></g><path d="M236.12334,170.94287l-4.6636,6.97248l-15.13751,-14.34653l7.52779,-4.58274" fill="#000000" stroke="#000000" stroke-width="1" stroke-linecap="round"/></g><g stroke-linecap="butt"><g data-paper-data="{&quot;index&quot;:null}"><g><g fill="#8a8a8a" stroke="#212121" stroke-width="1"><path d="M217.05681,198.1191c2.89723,-3.64405 4.4207,-10.16532 7.25666,-12.33352c2.83596,-2.16819 3.37107,-0.34633 5.72512,-1.8414c2.35405,-1.49507 1.43986,-6.95013 3.82967,-10.02582c5.23583,-6.73853 15.37883,-1.54019 16.22499,-0.29513c0.65281,0.96055 -2.84261,14.51612 -4.35472,18.20434c-1.11965,2.73096 -4.50041,2.89541 -5.81188,5.56145c-1.31148,2.66604 -2.62629,9.52127 -4.01755,11.97687c-1.39125,2.4556 -5.12463,3.10373 -7.26768,5.79919c-3.05293,3.8399 -2.93964,2.18625 -5.9078,4.37874c-2.96818,2.19249 -8.76367,-0.21217 -10.8272,-3.24852c-2.02831,-2.98453 -7.56699,-1.35517 -4.35767,-8.21562c3.20933,-6.86046 6.36044,-6.00159 9.50806,-9.96058z"/></g><path d="M225.68089,197.29552l0.79729,-0.43673c0.02024,0.59389 -0.05018,1.24499 -0.22935,1.87166c-0.19232,0.64462 -0.87479,1.40082 -0.69385,1.90723c0.095,0.26587 1.94446,-0.19731 2.16935,0.34628c0.08543,0.20649 -0.2714,2.50939 -0.30005,2.86824c-0.25028,3.13428 -0.36624,5.49627 -1.33507,8.74353c0,0 -0.17453,0.58497 -0.58129,0.52004c-0.40675,-0.06493 -0.23222,-0.64989 -0.23222,-0.64989c0.93496,-3.13369 1.03347,-5.36906 1.26853,-8.39531c0.0348,-0.44793 0.38975,-2.11926 0.35806,-2.35117c-0.00344,-0.02518 -2.04549,0.00039 -2.16936,-0.34627c-0.15028,-0.42058 0.53902,-2.22497 0.70239,-2.77253c0.06709,-0.21229 0.1125,-0.43062 0.13872,-0.6463c-0.17652,-0.17916 -0.06082,-0.56691 -0.06082,-0.56691l0.08524,-0.04669c-0.00107,-0.02512 -0.00241,-0.05006 -0.004,-0.07482z" fill="#212121" stroke="none" stroke-width="0.5"/><path d="M232.03303,193.09212c0.41102,-0.36773 0.57525,0.09181 0.57525,0.09181l0.18564,0.59746c0.03472,1.01833 -0.41662,2.25582 -0.39257,3.15762c0.01019,0.38208 0.55408,0.11683 0.79387,0.26102c0.15158,0.09114 0.96919,1.07145 1.00946,1.24744c0.19409,0.84806 0.22995,2.43327 0.17413,3.42964c0,0 -0.03694,0.57548 -0.47801,0.69887c-0.44108,0.12339 -0.40413,-0.4521 -0.40413,-0.4521c0.07001,-0.94199 0.00163,-2.21616 -0.14158,-3.03179c-0.19546,-1.1133 -1.59059,-0.51378 -1.82927,-1.64847c-0.15804,-0.75135 0.44178,-2.36081 0.38438,-3.25518l-0.12398,-0.26907c0,0 -0.16422,-0.45954 0.2468,-0.82727z" fill="#000000" stroke="none" stroke-width="0.5"/><path d="M234.3892,184.30059c0.40676,0.06492 0.23222,0.64989 0.23222,0.64989l-0.20169,0.46273c1.08303,0.96856 1.03731,4.88063 1.12533,6.76457c0,0 0.0258,0.55224 -0.41606,0.75577c-0.44187,0.20353 -0.46767,-0.34871 -0.46767,-0.34871c-0.09849,-2.10782 -0.08137,-5.30549 -1.11712,-6.66702l0.26371,-1.0972c0,0 0.17453,-0.58496 0.58129,-0.52004z" fill="#000000" stroke="none" stroke-width="0.5"/><path d="M222.06542,197.04129c0.40675,0.06493 0.23223,0.6499 0.23223,0.6499l-0.11635,0.38998c-0.9844,3.29942 -1.29517,6.24537 -2.25012,9.44607c0,0 -0.17452,0.58497 -0.58128,0.52005c-0.40675,-0.06493 -0.23221,-0.6499 -0.23221,-0.6499c0.94792,-3.17716 1.26787,-6.15391 2.25011,-9.44607l0.11635,-0.38998c0,0 0.17453,-0.58497 0.58128,-0.52004z" fill="#212121" stroke="none" stroke-width="0.5"/><path d="M237.33968,179.79914c0.33802,-0.49418 0.62377,-0.17451 0.62377,-0.17451l0.4674,0.53414c0.4349,1.21707 0.43928,2.92788 0.24889,4.4816c-0.05658,0.46162 -0.53645,0.97107 -0.46363,1.37883c0.08508,0.47644 0.66903,0.41679 0.82525,0.83768c0.30095,0.8108 0.38344,1.87937 0.11112,2.90237c0,0 -0.17453,0.58497 -0.58128,0.52005c-0.40676,-0.06492 -0.23223,-0.64989 -0.23223,-0.64989c0.62879,-1.7603 -0.82704,-1.91838 -0.99837,-3.10559c-0.09615,-0.66619 0.3929,-1.11785 0.4672,-1.74102c0.1474,-1.23642 0.21187,-2.77798 -0.13577,-3.75084l-0.38457,-0.41897c0,0 -0.28576,-0.31968 0.05225,-0.81384z" fill="#000000" stroke="none" stroke-width="0.5"/></g></g><path d="M208.70226,203.6338c0.70943,-0.34299 1.42808,-0.64288 2.10171,-0.75452c0.90335,-0.14971 1.83717,0.0003 2.73665,-0.13158c1.06886,-0.15672 1.71994,-1.29858 2.96215,-0.61455c0.24377,0.13423 0.22867,0.51377 0.40109,0.73221c0.87407,1.1074 1.77365,1.64204 2.35328,2.98738c0.85559,1.98583 1.50776,4.95114 2.84429,6.64494c1.71668,2.17558 2.15928,6.01313 0.61708,8.46547c-0.62584,1.542 -0.77612,3.47962 -1.95358,4.78766c-0.35499,0.39436 -1.4714,0.68711 -1.97307,0.90326c-0.45225,0.19485 -1.65771,0.90623 -2.11455,0.80675c-0.67769,-0.14757 -1.72367,-1.87911 -2.12326,-3.23985c-0.53157,0.59859 -2.48234,1.97558 -3.39546,1.77675c-1.37706,-0.29987 -1.39093,-1.88715 -1.55283,-2.87878c-0.25402,-1.5559 -0.94098,-2.97826 0.21793,-4.3989c0.10075,-0.1235 0.19844,-0.28992 0.29767,-0.4765c-0.19042,0.08748 -0.39582,0.15066 -0.62455,0.17576c-3.55036,0.38968 -2.99293,-4.46037 -1.93546,-6.34812c0.08558,-0.15276 0.22528,-0.37169 0.39482,-0.60188c-1.02317,0.03143 -2.27558,-0.29184 -2.74446,-0.3166c-0.24452,-0.0129 -0.45612,0.31325 -0.69183,0.24694c-1.66274,-0.46774 -1.52301,-2.41347 -0.88256,-3.57365c1.12953,-2.04613 2.33793,-3.22614 4.54167,-4.18359c0,0 0.27009,-0.11637 0.52328,-0.00861z" fill="#001a3a" stroke="#e3efff" stroke-width="1.5"/></g><g stroke="#e3efff" stroke-width="1" stroke-linecap="butt"><path d="M221.35883,219.5717v-67.89114h78.00259v67.89114z" fill="url(#color-1)"/><path d="M223.19346,218.95946c0,0 20,-6.10917 20,-13.78729c0,-4.49588 -20,-9.31066 -20,-14.33333c0,-3.1096 24.66666,-7.50445 24.66666,-10.33334c0,-3.95675 -24.66666,-6.12507 -24.66666,-8.66666c0,-7.92594 0,-19.54604 0,-19.54604h74.33334c0,0 0,11.6201 0,19.54604c0,2.96231 -25.66667,4.89549 -25.66667,9.66666c0,6.40187 25.66667,16.04569 25.66667,22.33334c0,2.54328 -24.33334,-1.74744 -24.33334,0.33333c0,4.86813 24.33334,14.7873 24.33334,14.7873z" fill="url(#color-2)"/></g><g stroke-linecap="round"><path d="M241.71353,121.66667l22.33333,12.33333l1,17.33333h-25.33333v-15.33333l-7.33333,-9" fill="url(#color-3)" stroke="#9966ff" stroke-width="0.5"/><path d="M237.96353,135.75l9.75,-9" fill="none" stroke="#000000" stroke-width="1"/><path d="M240.46353,141.25l16.5,-9.5" fill="none" stroke="#000000" stroke-width="1"/><path d="M263.21353,135.5l-23.25,11.5" fill="none" stroke="#000000" stroke-width="1"/><path d="M263.96353,147.25l-25,3.5" fill="none" stroke="#000000" stroke-width="1"/></g><g stroke-linecap="butt"><g><g><path d="M240.04637,131.43752c-3.35163,1.39602 -1.24039,-7.11183 -3.55378,-12.66595c-2.31339,-5.55412 -8.17539,-6.05129 -4.82376,-7.4473c3.35163,-1.39602 7.94404,1.9748 10.25743,7.52892c2.31339,5.55412 1.47174,11.18832 -1.87989,12.58434z" fill="url(#color-4)" stroke="#e3efff" stroke-width="0.5"/><path d="M238.09866,128.42907c-2.9102,1.11342 -6.74273,-1.83501 -8.56021,-6.58548c-1.81748,-4.75047 2.65191,-9.29318 5.5621,-10.40658c1.85203,-0.70856 2.62628,0.14248 3.41289,2.07944c0.44943,1.10667 0.90291,2.56785 1.56375,4.29513c1.81748,4.75047 0.93166,9.50408 -1.97854,10.6175z" fill="url(#color-5)" stroke="#e3efff" stroke-width="1"/><path d="M231.94515,125.13393c-1.10441,1.4625 -1.94993,-0.29565 -3.16408,-1.21252c-1.21415,-0.91687 0.37737,-3.61656 1.48178,-5.07907c1.10441,-1.4625 2.68007,-0.87902 3.89422,0.03785c1.21415,0.91687 -1.10751,4.79124 -2.21192,6.25374z" fill="#5d8d03" stroke="#000000" stroke-width="0"/><path d="M234.63947,124.66275c-1.42062,4.3296 -6.91838,5.84905 -11.07554,7.28572c-3.58634,1.23939 -8.2528,1.67983 -11.62933,0.57194c-1.59341,-0.52282 -2.05941,-2.18673 -3.58005,-2.70233c-2.21786,-0.75201 -4.94441,-1.43958 -5.76339,-3.44911c-0.75943,-1.86342 -0.02315,-4.31844 0.47115,-6.84296c0.42673,-2.17943 0.52099,-4.41961 1.12784,-6.26907c0.5502,-1.67684 2.44526,-1.97823 3.9962,-3.14643c0.64221,-0.48372 1.08181,-1.61455 1.57016,-2.26296c0.40713,-0.54057 1.46669,-0.90654 1.8784,-1.44487c1.96651,-2.57126 3.58728,-5.51736 5.57892,-7.30073c1.69266,-1.51566 3.70976,-2.14877 5.83397,-1.45178c1.94811,0.63921 6.19372,-0.27609 8.23922,1.71084c3.04661,2.95939 3.67964,10.38212 4.04448,14.18455c0.3069,3.1986 0.19387,8.4172 -0.69205,11.1172z" fill="#9966ff" stroke="#e3efff" stroke-width="1"/><path d="M234.81768,123.61569c-1.29195,1.71085 -4.17359,1.71259 -6.43633,0.00389c-2.26274,-1.70871 -2.07285,-4.52769 -0.7809,-6.23854c1.29195,-1.71085 3.52715,-3.14223 5.78989,-1.43352c2.26274,1.70871 2.71929,5.95732 1.42734,7.66818z" fill="#58ff00" stroke="#000000" stroke-width="0"/><path d="M225.92055,120.64457c0.87114,-1.15359 1.88871,-0.83302 3.22657,-0.9163c1.0943,-0.06812 2.75542,-1.07135 3.699,-0.35882c2.09718,1.58369 2.25265,4.91295 0.66897,7.01012c-1.58369,2.09718 -4.5676,2.51344 -6.66477,0.92976c-2.09718,-1.58369 -2.51345,-4.5676 -0.92976,-6.66478z" fill="#070707" stroke="#000000" stroke-width="1"/><path d="M228.30761,122.05488c-0.52095,0.68986 -1.59198,0.75922 -2.39222,0.15492c-0.80024,-0.6043 -1.02665,-1.65342 -0.5057,-2.34328c0.52095,-0.68986 1.59198,-0.75922 2.39222,-0.15492c0.80024,0.6043 1.02665,1.65342 0.5057,2.34328z" fill="#58ff00" stroke="none" stroke-width="0"/><g fill="url(#color-6)" stroke="none" stroke-width="0"><path d="M216.42471,129.27134c-0.07273,0.0963 0.25574,2.52721 0.15103,2.58329c-1.25732,0.6735 -5.11872,-3.79061 -7.86981,-5.8681c-2.9802,-2.25049 -6.75207,-4.14938 -5.80609,-5.40208c0.48982,-0.64865 0.14626,-7.83291 2.04842,-7.44033c1.77139,0.36559 6.26214,5.91433 7.69919,6.99953c2.9802,2.25049 4.72324,7.87499 3.77726,9.12769z"/></g><path d="M232.80869,111.78474c-0.06971,0.37634 -0.44603,0.30663 -0.44603,0.30663l-0.07832,-0.12851c-0.32988,0.22393 -0.69456,0.40065 -1.07035,0.53385c-0.72122,0.33287 -1.39996,0.73762 -2.00063,-0.06626c-0.00791,-0.01058 -0.0156,-0.02127 -0.0231,-0.03207c-0.04412,0.0637 -0.11103,0.12358 -0.21,0.17266c-0.45719,0.22671 -0.68389,-0.23047 -0.68389,-0.23047l0.02527,-0.07033c-0.52995,-0.40325 -0.94103,-0.87057 -1.47092,-1.27246c-1.42083,-1.76051 -3.98335,-2.42958 -5.61874,-3.98787c-0.51011,-0.48606 -0.63006,-1.31898 -0.9298,-1.97404c-0.03012,-0.00945 -0.05993,-0.01814 -0.08939,-0.02603c-0.38912,-0.10418 -1.71964,0.19348 -2.02622,-0.03804c-0.15296,-0.11551 -0.24457,-0.9418 -0.27811,-1.18224c-0.13138,-0.94177 -0.1869,-1.91801 -0.50377,-2.81572c0,0 -0.12619,-0.36132 0.23513,-0.48752c0.36133,-0.1262 0.48752,0.23513 0.48752,0.23513c0.32932,0.95187 0.40029,1.96632 0.53924,2.96235c0.0312,0.22363 -0.19892,0.54106 -0.01872,0.67713c0.20291,0.15323 0.48155,-0.2296 0.73466,-0.20534c0.02753,0.00263 0.05512,0.00499 0.08275,0.00714c-0.11555,-0.06798 -0.37793,-0.27057 -0.21971,-0.6429c0.19958,-0.46967 0.66925,-0.27009 0.66925,-0.27009c0.6045,0.2616 0.907,0.75118 1.16449,1.28401c0.72277,0.35363 1.4862,0.91415 2.04395,1.33533c2.42479,1.83108 5.76082,3.19475 6.75011,6.17353c0.11899,0.3583 0.86574,-0.16809 1.05324,-0.25535c0.32477,-0.11155 0.64258,-0.25866 0.92417,-0.45521l0.65136,0.00664c0,0 0.37634,0.06971 0.30663,0.44603z" fill="#212121" stroke="none" stroke-width="0.5"/><path d="M229.34663,108.63893c-0.23065,0.30543 -0.53608,0.07478 -0.53608,0.07478l-0.18468,-0.16407c-1.6974,-2.47303 -4.1412,-4.51482 -6.53086,-6.31937c0,0 -0.30543,-0.23065 -0.07478,-0.53608c0.23065,-0.30543 0.53608,-0.07478 0.53608,-0.07478c2.45406,1.85318 4.95289,3.95839 6.70036,6.4966l0.01517,-0.01316c0,0 0.30543,0.23065 0.07478,0.53608z" fill="#212121" stroke="none" stroke-width="0.5"/><path d="M228.56926,98.6555c-0.23065,0.30543 -0.53608,0.07478 -0.53608,0.07478l0.10823,0.00118c-1.24804,-0.08189 -2.20759,0.28235 -3.03306,1.39026c0,0 -0.23065,0.30543 -0.53608,0.07478c-0.30543,-0.23065 -0.07478,-0.53608 -0.07478,-0.53608c0.99254,-1.29958 2.17076,-1.76959 3.68889,-1.6931l0.30808,0.1521c0,0 0.30543,0.23065 0.07478,0.53608z" fill="#0e1501" stroke="none" stroke-width="0.5"/><path d="M232.98668,102.59366c0.05288,0.37906 -0.32618,0.43195 -0.32618,0.43195l-0.45891,-0.04916c-1.22908,-0.95003 -3.3117,0.16572 -4.26803,1.08361c0,0 -0.27771,0.26336 -0.54107,-0.01436c-0.26336,-0.27772 0.01437,-0.54107 0.01437,-0.54107c1.27974,-1.20099 3.66433,-2.31918 5.25603,-1.13904l-0.10813,-0.09811c0,0 0.37906,-0.05288 0.43195,0.32618z" fill="#0e1501" stroke="none" stroke-width="0.5"/><path d="M234.82997,106.36461c-0.23065,0.30543 -0.53608,0.07478 -0.53608,0.07478l0.00849,-0.01819c-0.96119,-0.33979 -2.80921,-0.36827 -3.71516,0.09224c0,0 -0.34289,0.17003 -0.51292,-0.17285c-0.17003,-0.34289 0.17285,-0.51292 0.17285,-0.51292c1.11908,-0.5439 3.10407,-0.52042 4.29967,-0.13185l0.20836,0.13272c0,0 0.30543,0.23065 0.07478,0.53608z" fill="#0e1501" stroke="none" stroke-width="0.5"/><path d="M233.28678,110.27236c0.08736,-0.07518 0.26404,-0.17519 0.47713,-0.01427c0.30543,0.23065 0.07478,0.53608 0.07478,0.53608l-0.40338,0.25136c-0.8511,-0.05037 -1.45967,-0.00024 -2.24638,-0.36983c0,0 -0.34473,-0.16627 -0.17847,-0.51101c0.16626,-0.34473 0.51099,-0.17846 0.51099,-0.17846c0.60496,0.30145 1.1228,0.26299 1.76532,0.28613z" fill="#0e1501" stroke="none" stroke-width="0.5"/><path d="M233.4742,99.03901c0.05288,0.37906 -0.32618,0.43195 -0.32618,0.43195l-0.01145,-0.0392c-0.68928,0.46619 -1.46534,0.71905 -2.15773,1.19502c0,0 -0.3154,0.21682 -0.53221,-0.09858c-0.21682,-0.3154 0.09858,-0.53221 0.09858,-0.53221c0.69109,-0.47509 1.48314,-0.72146 2.15772,-1.19502l0.33933,-0.08814c0,0 0.37906,-0.05288 0.43195,0.32618z" fill="#0e1501" stroke="none" stroke-width="0.5"/><path d="M229.70092,99.16171c-0.05765,-0.09681 -0.09332,-0.24239 0.03376,-0.41069c0.23065,-0.30543 0.53608,-0.07478 0.53608,-0.07478l0.23197,0.50312c-0.04215,0.12508 -0.08431,0.25017 -0.12646,0.37524c0,0 -0.12222,0.36269 -0.48491,0.24047c-0.36269,-0.12222 -0.24048,-0.48492 -0.24048,-0.48492c0.01668,-0.04948 0.03334,-0.09896 0.05003,-0.14844z" fill="#0e1501" stroke="none" stroke-width="0.5"/><path d="M235.10538,108.46079c-0.12222,0.36269 -0.48491,0.24047 -0.48491,0.24047l-0.43177,-0.15071c-0.26081,-0.1953 -0.54518,-0.36435 -0.84583,-0.48994c0,0 -0.35225,-0.14968 -0.20257,-0.50192c0.14968,-0.35224 0.50194,-0.20257 0.50194,-0.20257c0.31886,0.13742 0.62777,0.30716 0.90395,0.51758l0.31872,0.10219c0,0 0.36269,0.12222 0.24047,0.48491z" fill="#0e1501" stroke="none" stroke-width="0.5"/><path d="M232.81898,119.85972c1.69584,1.84067 1.63933,4.67683 0.0801,6.74163c-0.09894,0.12929 -0.20395,0.2451 -0.31442,0.34952c-0.26817,0.20068 -0.56772,0.36882 -0.90053,0.49711c-0.7606,0.29319 -1.10295,0.66881 -1.84984,0.24089c0.03169,-0.04347 0.0641,-0.08433 0.09718,-0.12281l0.2457,-0.3105c0.06102,-0.01771 0.12205,-0.03518 0.18294,-0.05265c0.40046,-0.24392 0.86138,-0.32751 1.34414,-0.52606c0.21809,-0.13796 0.41599,-0.31058 0.58395,-0.53679c1.31012,-1.73491 1.42007,-4.06852 0.07449,-5.64295c-0.1179,-0.04552 -0.17655,-0.14783 -0.20455,-0.22202c-0.13923,-0.14034 -0.29132,-0.27343 -0.45652,-0.39817c0,0 -0.30543,-0.23065 -0.07478,-0.53608c0.01194,-0.0158 0.02407,-0.03018 0.03635,-0.04322l-0.72598,0.08907c0.24273,0.11691 1.11883,-0.20958 1.34662,-0.06125l0.05547,-0.04856c0.68144,0.51459 1.34672,1.11835 2.00912,1.6761c0.39162,2.04283 -0.03004,4.70046 -1.7638,5.99789c-0.61716,0.58347 -1.40409,0.81186 -2.24825,1.05341l-0.50211,-0.31543l0.09718,-0.12281c0.13272,-0.15436 0.2763,-0.27036 0.42865,-0.36315c0.47595,-0.13652 0.94403,-0.27295 1.34414,-0.52606c0.04904,-0.02016 0.09831,-0.04153 0.14774,-0.06435c1.83886,-0.84898 1.89328,-3.64939 1.83652,-5.27168c-0.40174,-0.2372 -0.74315,-0.53285 -1.0799,-0.83286c-0.01342,0.00299 -0.02746,0.00552 -0.04215,0.00757c-0.0824,0.01149 -0.1494,0.00258 -0.20377,-0.01841c-0.0648,-0.07581 -0.13297,-0.14988 -0.20455,-0.22202c-0.0185,-0.04901 -0.02363,-0.08574 -0.02363,-0.08574l0.07335,0.06056c-0.05174,-0.05821 -0.09748,-0.13042 -0.13214,-0.20882c-0.08776,-0.07326 -0.17709,-0.14497 -0.26888,-0.21429l-0.14367,-0.52919c0.22509,-0.23896 0.49972,-0.03156 0.49972,-0.03156c0.03384,0.02556 0.06722,0.05142 0.10014,0.07758l0.02079,-0.0182c0.18278,0.11903 0.35254,0.25435 0.49615,0.41592z" fill="#070707" stroke="none" stroke-width="0.5"/><path d="M206.06,130.11479c-0.20362,-0.15376 -0.04986,-0.35738 -0.04986,-0.35738l0.1,-0.13243c0.52601,-0.69656 0.33171,-1.22113 0.80271,-1.88905c0,0 0.15377,-0.20363 0.35738,-0.04986c0.20362,0.15376 0.04986,0.35738 0.04986,0.35738c-0.42263,0.50659 -0.31578,1.24425 -0.80271,1.88905l-0.1,0.13243c0,0 -0.15376,0.20362 -0.35738,0.04986z" fill="#0e1501" stroke="none" stroke-width="0.5"/><path d="M209.39472,132.33142c-0.25271,0.03526 -0.28796,-0.21746 -0.28796,-0.21746l-0.0306,-0.31414c0.10463,-0.56488 -0.00221,-1.10085 0.31757,-1.56666c0,0 0.15376,-0.20362 0.35738,-0.04986c0.20362,0.15376 0.04986,0.35738 0.04986,0.35738c-0.23639,0.26441 -0.14887,0.95167 -0.22303,1.35207l0.03425,0.15069c0,0 0.03526,0.25271 -0.21746,0.28796z" fill="#0e1501" stroke="none" stroke-width="0.5"/><path d="M207.78422,130.58508c-0.20362,-0.15376 -0.04986,-0.35738 -0.04986,-0.35738l0.1,-0.13243c0.31137,-0.41233 0.46317,-0.66475 0.92267,-0.90178c0,0 0.22859,-0.11336 0.34195,0.11523c0.11336,0.22859 -0.11523,0.34195 -0.11523,0.34195c-0.38252,0.17939 -0.48029,0.40536 -0.74215,0.75213l-0.1,0.13243c0,0 -0.15376,0.20362 -0.35738,0.04986z" fill="#0e1501" stroke="none" stroke-width="0.5"/><path d="M211.0596,133.68231c-0.20362,-0.15376 -0.04986,-0.35738 -0.04986,-0.35738l0.05273,-0.02512c0.09842,-0.50558 0.01255,-0.84764 0.1794,-1.36196c0,0 0.08148,-0.24179 0.32329,-0.16031c0.24179,0.08148 0.16031,0.32329 0.16031,0.32329c-0.16541,0.46873 -0.0757,0.81045 -0.16121,1.29193l-0.14727,0.23972c0,0 -0.15377,0.20363 -0.35738,0.04986z" fill="#0e1501" stroke="none" stroke-width="0.5"/></g><path d="M214.00907,111.27568c-1.10441,1.4625 -1.94993,-0.29565 -3.16408,-1.21252c-1.21415,-0.91687 0.37737,-3.61657 1.48178,-5.07907c1.10441,-1.4625 2.68007,-0.87903 3.89422,0.03784c1.21415,0.91687 -1.10751,4.79124 -2.21192,6.25374z" fill="#58ff00" stroke="#000000" stroke-width="0"/><path d="M213.87391,110.21553c-0.48689,1.48391 -1.97995,2.32646 -3.33481,1.88191c-1.35487,-0.44456 -2.0585,-2.00788 -1.5716,-3.49178c0.48689,-1.48391 2.58964,-3.4929 3.9445,-3.04833c0.46704,0.15324 0.20003,1.68225 0.48564,2.07698c0.54293,0.7504 0.79533,1.60884 0.47627,2.58124z" fill="#070707" stroke="#000000" stroke-width="1"/><path d="M211.33207,109.31425c-0.42197,0.55879 -1.1667,0.70771 -1.6634,0.33263c-0.4967,-0.37508 -0.55728,-1.13214 -0.13531,-1.69091c0.42197,-0.55879 1.16669,-0.70771 1.66339,-0.33263c0.4967,0.37508 0.55728,1.13214 0.13531,1.69092z" fill="#58ff00" stroke="none" stroke-width="0"/><path d="M215.03734,107.39968c-0.3154,0.21682 -0.53221,-0.09858 -0.53221,-0.09858l-0.18552,-0.27859c-0.49554,-0.36554 -0.74772,-0.60772 -1.37127,-0.63913c0,0 -0.38207,-0.02249 -0.35958,-0.40456c0.02249,-0.38208 0.40456,-0.35959 0.40456,-0.35959c0.82795,0.05434 1.23569,0.37909 1.87948,0.87419l0.26312,0.37403c0,0 0.21682,0.31541 -0.09858,0.53222z" fill="#58ff00" stroke="none" stroke-width="0.5"/><path d="M222.93153,96.72535c-0.06283,-0.09641 -0.10964,-0.24854 0.02429,-0.4259c0.23065,-0.30543 0.53608,-0.07478 0.53608,-0.07478l0.23197,0.50312c-0.14063,0.40417 -0.14455,0.79068 -0.27944,1.2012c0,0 -0.12222,0.36269 -0.48491,0.24047c-0.36269,-0.12222 -0.24047,-0.48491 -0.24047,-0.48491c0.11271,-0.32392 0.1376,-0.6365 0.21248,-0.95917z" fill="#0e1501" stroke="none" stroke-width="0.5"/><path d="M210.321,111.45549c0.02249,-0.38208 0.40456,-0.35959 0.40456,-0.35959l0.40912,0.02704c1.53509,0.30458 1.94998,-1.2399 1.94996,-2.4726c0,0 0.00125,-0.38273 0.38398,-0.38147c0.38273,0.00125 0.38148,0.38399 0.38148,0.38399c-0.01077,1.74523 -0.80057,3.5827 -2.85484,3.22274l-0.31469,-0.01556c0,0 -0.38208,-0.02248 -0.35959,-0.40456z" fill="#070707" stroke="none" stroke-width="0.5"/><path d="M202.14947,128.40936c-0.20362,-0.15376 -0.04986,-0.35738 -0.04986,-0.35738c0.43333,-0.57383 1.16665,-1.54492 1.59997,-2.11875c0,0 0.15376,-0.20362 0.35738,-0.04986c0.20362,0.15376 0.04986,0.35738 0.04986,0.35738c-0.43333,0.57383 -0.86665,1.14765 -1.29998,1.72148l-0.29999,0.39727c0,0 -0.15377,0.20362 -0.35738,0.04986z" fill="#0e1501" stroke="none" stroke-width="0.5"/></g><g text-anchor="start"><g><g><g fill="none" stroke="none" stroke-width="1" font-family="sans-serif" font-weight="normal" font-size="12"/><g fill="url(#color-7)" stroke="#000000" stroke-width="3.5" font-family="&quot;Helvetica Neue&quot;, Helvetica, Arial, sans-serif" font-weight="400" font-size="16"/><g fill="none" stroke="none" stroke-width="1" font-family="sans-serif" font-weight="normal" font-size="12"/></g><g><g fill="url(#color-8)" stroke="#000000" stroke-width="3.5" font-family="&quot;Helvetica Neue&quot;, Helvetica, Arial, sans-serif" font-weight="400" font-size="16"/><g fill="url(#color-9)" stroke="#e3efff" stroke-width="3.5" font-family="&quot;Helvetica Neue&quot;, Helvetica, Arial, sans-serif" font-weight="400" font-size="16"/><g fill="none" stroke="none" stroke-width="1" font-family="sans-serif" font-weight="normal" font-size="12"/></g></g><g data-paper-data="{&quot;index&quot;:null}"><g><g fill="url(#color-10)" stroke="#000000" stroke-width="3.5" font-family="&quot;Helvetica Neue&quot;, Helvetica, Arial, sans-serif" font-weight="400" font-size="16"/><g fill="url(#color-11)" stroke="#000000" stroke-width="3.5" font-family="&quot;Helvetica Neue&quot;, Helvetica, Arial, sans-serif" font-weight="400" font-size="16"/><g fill="none" stroke="none" stroke-width="1" font-family="sans-serif" font-weight="normal" font-size="12"/></g><g><g fill="url(#color-12)" stroke="#000000" stroke-width="3.5" font-family="&quot;Helvetica Neue&quot;, Helvetica, Arial, sans-serif" font-weight="400" font-size="16"/><g fill="none" stroke="none" stroke-width="1" font-family="sans-serif" font-weight="normal" font-size="12"/><g fill="none" stroke="none" stroke-width="1" font-family="sans-serif" font-weight="normal" font-size="12"/></g></g></g></g><g data-paper-data="{&quot;index&quot;:null}"><g stroke="#000000" stroke-width="2"><path d="M299.09108,95.73367c-3.34804,14.02942 -10.90302,24.24725 -16.87451,22.82218c-5.97149,-1.42506 -8.0982,-13.9534 -4.75017,-27.98279c3.34804,-14.02942 10.90301,-24.24724 16.87449,-22.82217c5.97149,1.42506 8.09822,13.95339 4.75018,27.98278z" fill="#9966ff" stroke-linecap="butt"/><path d="M299.49908,110.97967l-11.8558,15.61502l-2.77407,-10.30019l-13.19579,11.44584l-3.6633,-22.07702" fill="#58ff00" stroke-linecap="round"/><path d="M300.2355,78.40895c-0.70622,2.95931 -3.27789,4.88121 -5.74398,4.29269c-2.46609,-0.58852 -3.89273,-3.4646 -3.18651,-6.4239c0.70622,-2.95931 3.27788,-4.88121 5.74397,-4.29269c2.46609,0.58852 3.89274,3.4646 3.18652,6.42391z" fill="#58ff00" stroke-linecap="butt"/><path d="M287.31769,70.69245l1.71409,5.04279l-1.09235,3.85819l3.0297,3.12571l-0.73624,3.08508l4.83243,1.32486l-5.36942,5.24017l-8.14626,-8.29399l-2.03335,-0.82849" fill="#00e6ff" stroke-linecap="round"/><path d="M298.64128,80.77442l-2.7566,-7.86588" fill="none" stroke-linecap="round"/><path d="M284.21319,77.58865l6.82889,-1.28785l-5.22367,7.50601l6.91377,-0.92436l-2.37658,4.92468" fill="none" stroke-linecap="round"/></g><g stroke="#545454" stroke-width="1"><path d="M300.35901,149.77814c0,1.51048 -1.31275,2.38679 -2.6981,2.38679c-3.83673,0 -22.02678,0 -28.22642,0c-1.30226,0 -2.07547,-0.69029 -2.07547,-1.5566c0,-6.89786 0,-37.90592 0,-43.37737c0,-1.59381 0.85577,-3.00942 2.28303,-3.00942c6.38801,0 24.22407,0 28.01887,0c1.38535,0 2.6981,1.30652 2.6981,2.80189c0,5.1041 0,34.17051 0,42.75472z" fill="#a1a1a0" stroke-linecap="butt"/><path d="M292.26468,103.5989l3.73585,48.56604" fill="none" stroke-linecap="round"/><path d="M279.18921,104.63665l1.86792,47.94339" fill="none" stroke-linecap="round"/><path d="M272.75524,152.78758l-0.4151,-48.56604" fill="none" stroke-linecap="round"/></g><g fill="#c1c1c1" stroke="#545454" stroke-width="1"><path d="M303.04409,65.38847c0.05275,0.14285 -0.90563,0.59081 -1.94926,0.97607c-2.89035,1.06699 -16.59361,6.12564 -21.26403,7.84975c-0.98105,0.36216 -1.58765,0.51191 -1.61789,0.42997c-0.24083,-0.65237 -1.32341,-3.58496 -1.51443,-4.10241c-0.05564,-0.15073 0.53961,-0.52262 1.61482,-0.91953c4.81235,-1.7765 18.24892,-6.7367 21.10769,-7.79203c1.04364,-0.38526 2.0782,-0.62677 2.13041,-0.48535c0.1782,0.48272 1.193,3.23168 1.4927,4.04353z" stroke-linecap="butt"/><path d="M285.26195,71.11984l-2.81961,-7.40456l10.38687,-3.14495l2.95216,5.54589" stroke-linecap="round"/><path d="M286.46091,69.81546l-1.07543,-5.24766l6.55505,-1.3857l1.96109,4.14511" stroke-linecap="round"/></g></g></g></g></svg>