<svg version="1.1" xmlns="http://www.w3.org/2000/svg" xmlns:xlink="http://www.w3.org/1999/xlink" width="60.0238" height="63.89315" viewBox="0,0,60.0238,63.89315"><defs><radialGradient cx="258.06496" cy="182.81909" r="6.68182" gradientUnits="userSpaceOnUse" id="color-1"><stop offset="0" stop-color="#b40404"/><stop offset="1" stop-color="#ff0505"/></radialGradient></defs><g transform="translate(-226.56926,-174.34684)"><g data-paper-data="{&quot;isPaintingLayer&quot;:true}" fill-rule="nonzero" stroke-linejoin="miter" stroke-miterlimit="10" stroke-dasharray="" stroke-dashoffset="0" style="mix-blend-mode: normal"><g><path d="M283.84089,206.06923c0.61819,9.21033 -11.43783,19.08289 -25.13523,20.00226c-13.6974,0.91937 -24.88727,-6.21699 -25.50547,-15.42732c-0.13255,-1.97479 1.82375,-5.12127 2.49929,-7.18677c0.35998,-1.10066 0.12017,-2.51999 0.79197,-3.41963c0.6759,-0.90514 2.48507,-2.36142 2.48507,-2.36142c0,0 1.63495,-1.10477 2.51892,-1.64883c0.39248,-0.24157 1.27627,-0.96439 1.77635,-1.28388c0.91302,-0.58331 1.9916,-1.13274 3.13148,-1.8558c1.8082,-1.147 7.37119,-5.63194 12.70788,-5.92023c5.33668,-0.2883 10.60168,3.88453 12.00381,4.58526c2.34865,1.17377 4.52811,3.07289 6.32619,4.32579c0.78286,0.5455 1.57793,0.49868 2.14194,1.00145c0.46084,0.4108 0.8925,0.83816 1.29296,1.28089c0.73754,0.81541 1.36918,1.68296 1.88199,2.59515c0.53695,0.95514 0.94364,1.95922 1.20523,3.00369c0.16449,0.65675 -0.16846,1.62286 -0.12238,2.30941z" fill="#d7c195" stroke="#6b4b04" stroke-width="0.5" stroke-linecap="butt"/><path d="M256.9143,192.37418l0.76677,-15.15335l6.35544,-0.33546l-4.30975,16.66675" fill="#7b7878" stroke="#42413f" stroke-width="0.5" stroke-linecap="round"/><path d="M266.80864,180.21292c0.2236,3.33131 -2.82663,6.8333 -6.50861,7.08043c-3.68199,0.24713 -6.84808,-2.25309 -7.07168,-5.5844c-0.2236,-3.33131 2.95075,-6.86498 6.63273,-7.11211c3.68199,-0.24713 6.72396,2.28477 6.94756,5.61608z" fill="url(#color-1)" stroke="#7e0707" stroke-width="0.5" stroke-linecap="butt"/><path d="M274.44313,199.98505c0.20137,3.00013 -1.18788,3.42288 -2.77979,3.52972c-1.59191,0.10685 -2.13652,-0.14266 -2.33788,-3.14279c-0.20137,-3.00013 0.27875,-2.56015 1.87066,-2.66699c1.59191,-0.10685 3.04565,-0.72007 3.24701,2.28006z" fill="#0b0a0a" stroke="none" stroke-width="0" stroke-linecap="butt"/><path d="M279.50478,201.01773c0.17877,2.66339 -0.71446,2.58458 -1.78593,2.6565c-1.07148,0.07192 -1.91545,0.26732 -2.09422,-2.39606c-0.17877,-2.66339 0.54492,-3.6172 1.61639,-3.68912c1.07148,-0.07192 2.08499,0.7653 2.26376,3.42868z" fill="#0b0a0a" stroke="none" stroke-width="0" stroke-linecap="butt"/><path d="M274.52462,200.14816c0.05548,0.82657 -1.34904,3.05525 -1.62456,3.07375c-0.27552,0.01849 -2.76685,-1.94301 -2.82233,-2.76958c-0.05548,-0.82657 3.06541,-2.25545 3.34093,-2.27395c0.27552,-0.01849 1.05048,1.14321 1.10596,1.96978z" fill="#f0eeee" stroke="none" stroke-width="0" stroke-linecap="butt"/><path d="M279.10478,199.75923c0.04931,0.73473 -0.32578,3.44239 -0.72376,3.4691c-0.39797,0.02671 -2.30845,-2.49289 -2.35776,-3.22762c-0.04931,-0.73473 1.80127,-1.93099 2.19925,-1.9577c0.39797,-0.02671 0.83296,0.98149 0.88227,1.71622z" fill="#f0eeee" stroke="none" stroke-width="0" stroke-linecap="butt"/><path d="M252.64732,193.74527c0,0 3.50297,-1.28835 5.06442,-1.29076c1.30224,-0.002 4.60989,2.50274 4.60989,2.50274" fill="none" stroke="#6b4b04" stroke-width="1" stroke-linecap="round"/><path d="M278.2302,213.27536c0,0 -4.39312,2.62631 -7.44996,2.56136c-2.71715,-0.05774 -8.91327,-3.0812 -8.91327,-3.0812" fill="none" stroke="#6b4b04" stroke-width="1.5" stroke-linecap="round"/><path d="M261.36612,213.70674c0,0 -0.17541,-1.86062 0.1272,-2.15738c0.36169,-0.3547 1.89744,0.17185 1.89744,0.17185" fill="none" stroke="#6b4b04" stroke-width="1" stroke-linecap="round"/><path d="M276.81761,210.20006c0,0 1.90047,1.60018 2.21985,2.34251c0.39495,0.91795 -0.02834,2.75103 -0.02834,2.75103" fill="none" stroke="#6b4b04" stroke-width="1" stroke-linecap="round"/></g><g stroke-linecap="butt"><g data-paper-data="{&quot;index&quot;:null}"><path d="M267.00131,228.93257c0,0 -1.41436,-3.79219 -1.41436,-5.76686c0,-0.6448 -0.84238,-1.64055 -0.70696,-2.47762c0.27929,-1.72643 1.64987,-3.28924 1.64987,-3.28924c0,0 1.51306,-0.88141 3.03714,-1.20079c0.97252,-0.2038 2.17068,0.10073 2.97156,0.10073c0.88154,0 2.77933,-0.95075 4.07654,-0.83624c2.0741,0.1831 2.61023,0.14958 3.50369,1.46484c0.89345,1.31527 3.25293,4.3206 2.82874,6.55263c-0.56519,2.97393 0.53866,3.1758 0.53866,3.1758l-3.52455,1.33385l-3.58821,4.90949c0,0 -2.78327,-1.295 -2.89195,-1.295c-0.94566,0 -3.37816,-1.53949 -3.37816,-1.53949z" fill="#6b4b04" stroke="#362602" stroke-width="1"/><path d="M268.32435,220.87926l3.99257,-1.53717l-1.29268,5.38916z" fill="#f6dfb1" stroke="none" stroke-width="0"/></g><g data-paper-data="{&quot;index&quot;:null}"><path d="M227.86156,220.14416c0,0 -0.7923,-2.1243 -0.7923,-3.23047c0,-0.3612 -0.05667,-1.33421 0.01919,-1.80312c0.15645,-0.96711 0.92422,-1.84256 0.92422,-1.84256c0,0 0.84758,-0.49375 1.70133,-0.67266c0.54479,-0.11416 1.21597,0.05643 1.66461,0.05643c0.49382,0 0.69056,-1.59628 0.69056,-1.59628c0,0 2.1202,-0.16843 3.31571,0.43702c0.84771,0.42931 0.83261,1.60584 1.04026,1.91152c0.26893,0.39589 1.50421,0.94959 1.66424,1.57119c0.13779,0.53524 -1.18516,1.53603 -1.29511,2.11453c-0.3166,1.66593 0.30175,1.77901 0.30175,1.77901l-1.97438,0.7472l0.63059,2.06839l-2.64062,0.6818c0,0 -1.55913,-0.72543 -1.62001,-0.72543c-0.52974,0 -1.89237,-0.86239 -1.89237,-0.86239z" fill="#6b4b04" stroke="#362602" stroke-width="1"/><path d="M228.13761,215.13764l3.19686,-0.94112c0,0 -1.04096,1.56642 -1.33316,2.10399c-0.26701,0.49122 -0.28633,2.45046 -0.28633,2.45046z" fill="#f6dfb1" stroke="none" stroke-width="0"/></g><g data-paper-data="{&quot;index&quot;:null}"><path d="M284.86751,218.16531c0,0 0.8214,2.20234 0.8214,3.34914c0,0.37447 0.48921,0.95276 0.41057,1.43889c-0.1622,1.00263 -0.95817,1.91025 -0.95817,1.91025c0,0 -0.87872,0.51188 -1.76383,0.69737c-0.5648,0.11836 -1.26064,-0.0585 -1.72576,-0.0585c-0.51196,0 -1.37297,0.31102 -2.12633,0.24451c-1.20455,-0.10634 -1.75704,0.15427 -2.27592,-0.60958c-0.51888,-0.76385 -1.88916,-2.50921 -1.64281,-3.80547c0.32823,-1.72713 -0.31283,-1.84436 -0.31283,-1.84436l2.04691,-0.77464l2.49908,-3.26643c0,0 1.20119,1.16729 1.26431,1.16729c0.5492,0 1.96189,0.89407 1.96189,0.89407z" fill="#6b4b04" stroke="#362602" stroke-width="1"/><path d="M284.09916,222.84231l-2.31871,0.89272l0.75073,-3.12978z" fill="#f6dfb1" stroke="none" stroke-width="0"/></g><g data-paper-data="{&quot;index&quot;:null}"><path d="M278.77869,222.11399c0,0 1.41437,3.79219 1.41437,5.76686c0,0.6448 0.84238,1.64055 0.70696,2.47762c-0.27929,1.72643 -1.64987,3.28924 -1.64987,3.28924c0,0 -1.51306,0.88141 -3.03714,1.20079c-0.97252,0.2038 -2.17068,-0.10073 -2.97156,-0.10073c-0.88154,0 -2.36412,0.53554 -3.66133,0.42102c-2.0741,-0.1831 -3.02545,0.26563 -3.9189,-1.04963c-0.89345,-1.31527 -3.25292,-4.3206 -2.82874,-6.55262c0.56519,-2.97393 -0.53866,-3.1758 -0.53866,-3.1758l3.52455,-1.33385l3.58821,-4.90949c0,0 2.78327,1.295 2.89195,1.295c0.94566,0 3.37816,1.5395 3.37816,1.5395z" fill="#6b4b04" stroke="#362602" stroke-width="1"/><path d="M277.45565,230.1673l-3.99258,1.53718l1.29268,-5.38916z" fill="#f6dfb1" stroke="none" stroke-width="0"/></g><g data-paper-data="{&quot;index&quot;:null}"><path d="M266.10526,234.77895c0,0 -2.4325,1.53949 -3.37816,1.53949c-0.10868,0 -2.89195,1.29499 -2.89195,1.29499l-3.58821,-4.90949l-3.52455,-1.33386c0,0 1.10385,-0.20186 0.53866,-3.17579c-0.42419,-2.23203 1.93528,-5.23736 2.82874,-6.55263c0.89346,-1.31526 1.8448,-0.86654 3.9189,-1.04963c1.29721,-0.11452 2.77979,0.42102 3.66132,0.42102c0.80088,0 1.99904,-0.30453 2.97157,-0.10073c1.52408,0.31939 3.03713,1.20079 3.03713,1.20079c0,0 1.37057,1.56281 1.64987,3.28924c0.13542,0.83708 -0.70696,1.83282 -0.70696,2.47762c0,1.97467 -1.41437,5.76687 -1.41437,5.76687z" fill="#6b4b04" stroke="#362602" stroke-width="1"/><path d="M265.18433,229.44553l-1.29268,-5.38916l3.99257,1.53718z" fill="#f6dfb1" stroke="none" stroke-width="0"/></g><g data-paper-data="{&quot;index&quot;:null}"><path d="M255.81957,233.49324c0,0 -2.4325,1.53949 -3.37816,1.53949c-0.10868,0 -2.89196,1.295 -2.89196,1.295l-3.5882,-4.90949l-3.52455,-1.33385c0,0 1.10385,-0.20186 0.53866,-3.17579c-0.42418,-2.23202 0.50671,-4.52307 1.40017,-5.83834c0.89345,-1.31527 5.63319,-4.04963 5.63319,-4.04963c0,0 2.49407,2.70674 3.37561,2.70674c0.80088,0 1.99905,-0.30453 2.97157,-0.10073c1.52408,0.31939 3.03713,1.20079 3.03713,1.20079c0,0 1.37058,1.56282 1.64987,3.28924c0.13542,0.83707 -0.70695,1.83282 -0.70695,2.47762c0,1.97467 -1.41437,5.76687 -1.41437,5.76687z" fill="#6b4b04" stroke="#362602" stroke-width="1"/><path d="M254.89864,228.01696l-1.29268,-5.38915l3.99257,1.53717z" fill="#f6dfb1" stroke="none" stroke-width="0"/></g><g data-paper-data="{&quot;index&quot;:null}"><path d="M246.63585,217.70147c0,0 1.41437,3.79219 1.41437,5.76687c0,0.6448 0.84238,1.64055 0.70696,2.47762c-0.27929,1.72643 -1.64987,3.28925 -1.64987,3.28925c0,0 -1.51305,0.88141 -3.03713,1.20079c-0.97252,0.2038 -2.17068,-0.10073 -2.97157,-0.10073c-0.88154,0 -3.37561,2.70674 -3.37561,2.70674c0,0 -4.73973,-2.73437 -5.63318,-4.04964c-0.89345,-1.31527 -1.82435,-3.60631 -1.40016,-5.83834c0.56519,-2.97393 -0.53867,-3.17579 -0.53867,-3.17579l3.52455,-1.33385l4.00342,-5.3247c0,0 2.78328,1.295 2.89195,1.295c0.94566,0 2.96295,1.9547 2.96295,1.9547z" fill="#6b4b04" stroke="#362602" stroke-width="1"/><path d="M245.31282,225.89764l-3.99258,1.53717l1.29268,-5.38916z" fill="#f6dfb1" stroke="none" stroke-width="0"/></g></g></g></g></svg>