<svg version="1.1" xmlns="http://www.w3.org/2000/svg" xmlns:xlink="http://www.w3.org/1999/xlink" width="20.28785" height="21.93815" viewBox="0,0,20.28785,21.93815"><g transform="translate(-229.86171,-169.21546)"><g data-paper-data="{&quot;isPaintingLayer&quot;:true}" fill-rule="nonzero" stroke-linejoin="miter" stroke-miterlimit="10" stroke-dasharray="" stroke-dashoffset="0" style="mix-blend-mode: normal"><path d="M241.20279,172.28935l6.08682,1.68067l-1.03839,2.75089l3.14701,1.62342l-1.79286,1.38461l2.13908,3.15915l-2.46445,0.64478l1.87094,4.0233l-4.54741,-0.16326l-1.85744,3.30547l-3.24455,-4.28776l-3.28349,1.19937l-0.18043,-3.29082l-5.69801,-2.11457l2.45346,-2.17318l-1.98063,-2.92515l1.87941,-0.24866l-1.79172,-3.9063l5.091,-0.54611l-0.99947,-2.73623z" fill="#fff900" stroke="#000000" stroke-width="0.5" stroke-linecap="round"/><path d="M242.74537,183.8926c-2.11508,1.43213 -5.02203,0.83214 -6.49286,-1.34009c-1.47083,-2.17224 -0.94857,-5.09416 1.1665,-6.52629c2.11508,-1.43213 5.02203,-0.83214 6.49286,1.34009c1.47083,2.17224 0.94857,5.09416 -1.1665,6.52629z" fill="#ff9800" stroke="none" stroke-width="0" stroke-linecap="butt"/></g></g></svg>