<svg version="1.1" xmlns="http://www.w3.org/2000/svg" xmlns:xlink="http://www.w3.org/1999/xlink" width="94.5" height="45" viewBox="0,0,94.5,45"><g transform="translate(-192.75,-157.5)"><g data-paper-data="{&quot;isPaintingLayer&quot;:true}" fill-rule="nonzero" stroke-linejoin="miter" stroke-miterlimit="10" stroke-dasharray="" stroke-dashoffset="0" style="mix-blend-mode: normal"><path d="M193.75,201.5v-43h92.5v43z" fill="#00ff40" stroke="#00b32d" stroke-width="2" stroke-linecap="butt"/><g stroke-width="0.5"><g stroke-linecap="butt"><path d="M266.19979,173.02265l0.33272,3.01963l-8.81731,0.97154l-0.33272,-3.01963z" fill="#9c671d" stroke="#6b3b0d"/><path d="M257.43497,173.09614c1.18855,-0.05966 2.20879,1.02224 2.27878,2.4165c0.06999,1.39426 -0.83678,2.57289 -2.02533,2.63256c-1.18855,0.05966 -2.20879,-1.02224 -2.27878,-2.4165c-0.06999,-1.39426 0.83678,-2.5729 2.02533,-2.63256z" fill="#5be62d" stroke="#199e25"/></g><g stroke-linecap="butt"><path d="M267.58204,183.01528l0.58384,2.98127l-8.70531,1.70481l-0.58384,-2.98127z" fill="#9c671d" stroke="#6b3b0d"/><path d="M258.854,183.8208c1.17941,-0.15876 2.28648,0.83413 2.47271,2.21766c0.18623,1.38354 -0.61889,2.63381 -1.7983,2.79257c-1.17941,0.15876 -2.28648,-0.83413 -2.47271,-2.21766c-0.18623,-1.38354 0.61889,-2.63381 1.7983,-2.79257z" fill="#5be62d" stroke="#199e25"/></g><path d="M260.24742,180.20495c-0.65564,-4.31269 2.22159,-8.32703 6.42646,-8.96627c4.20488,-0.63925 8.1451,2.33867 8.80073,6.65136c0.65564,4.31269 -2.22159,8.32703 -6.42646,8.96627c-4.20487,0.63924 -8.1451,-2.33867 -8.80073,-6.65136z" fill="#32c302" stroke="#1a6521" stroke-linecap="butt"/><path d="M277.23855,184.68159c-0.21246,-0.118 -0.09446,-0.33046 -0.09446,-0.33046l-0.00084,0.05436c0.03248,-0.30173 -0.2572,-0.69073 -0.49172,-0.88893c-0.67861,-0.57354 -1.67487,-1.06663 -2.45251,-1.49607c0,0 -0.21246,-0.118 -0.09446,-0.33046c0.118,-0.21246 0.33046,-0.09446 0.33046,-0.09446c1.0072,0.56223 3.20381,1.51108 3.19384,2.83098l-0.05984,0.16059c0,0 -0.118,0.21246 -0.33046,0.09446z" fill="#141514" stroke="none" stroke-linecap="butt"/><path d="M278.38425,180.15177c-0.24027,0.03653 -0.2768,-0.20374 -0.2768,-0.20374l0.07794,0.03906c-0.48626,-0.40144 -1.92528,-0.1265 -2.47077,0.07411c0,0 -0.22844,0.08294 -0.31138,-0.1455c-0.08294,-0.22844 0.1455,-0.31138 0.1455,-0.31138c0.76037,-0.27302 2.22356,-0.49126 2.92478,-0.00868l0.11447,0.27934c0,0 0.03653,0.24027 -0.20374,0.2768z" fill="#141514" stroke="none" stroke-linecap="butt"/><path d="M278.26098,177.80923c-0.19857,0.14012 -0.33869,-0.05845 -0.33869,-0.05845l-0.07994,-0.15185c-1.31438,0.08273 -2.5679,0.33847 -3.82752,0.69551c0,0 -0.23389,0.06605 -0.29993,-0.16784c-0.06605,-0.23389 0.16784,-0.29993 0.16784,-0.29993c1.31223,-0.36926 2.83318,-0.86232 4.20331,-0.64829l0.23338,0.29216c0,0 0.14012,0.19857 -0.05845,0.33869z" fill="#141514" stroke="none" stroke-linecap="butt"/><path d="M263.54993,183.63608c-0.1866,-1.22746 0.56305,-2.35947 1.6744,-2.52843c1.11135,-0.16895 2.16355,0.68914 2.35015,1.91659c0.1866,1.22746 -0.56305,2.35947 -1.6744,2.52843c-1.11135,0.16895 -2.16355,-0.68914 -2.35015,-1.91659z" fill="#ffffa8" stroke="#040404" stroke-linecap="butt"/><path d="M262.6473,178.21152c-0.15382,-1.01182 0.505,-1.95118 1.47152,-2.09812c0.96652,-0.14693 1.87473,0.5542 2.02856,1.56602c0.15382,1.01182 -0.505,1.95118 -1.47152,2.09812c-0.96652,0.14693 -1.87473,-0.5542 -2.02856,-1.56602z" fill="#ffffa8" stroke="#040404" stroke-linecap="butt"/><path d="M264.40387,183.99791c-0.05043,-0.33175 0.24485,-0.65178 0.65953,-0.71483c0.41468,-0.06304 0.79173,0.15479 0.84217,0.48653c0.05043,0.33175 -0.24485,0.65178 -0.65953,0.71483c-0.41468,0.06304 -0.79173,-0.15479 -0.84217,-0.48653z" fill="#0c0c0b" stroke="#040404" stroke-linecap="butt"/><path d="M263.09689,178.63482c-0.04287,-0.28198 0.11063,-0.5392 0.34285,-0.5745c0.23222,-0.0353 0.45523,0.16467 0.4981,0.44665c0.04287,0.28198 -0.11063,0.5392 -0.34285,0.5745c-0.23222,0.0353 -0.45523,-0.16467 -0.4981,-0.44665z" fill="#0c0c0b" stroke="none" stroke-linecap="butt"/><path d="M263.41965,181.56637c0.02522,0.16587 -0.08881,0.32078 -0.25468,0.346c-0.16587,0.02522 -0.32078,-0.08881 -0.346,-0.25468c-0.02522,-0.16587 0.08881,-0.32078 0.25468,-0.346c0.16587,-0.02522 0.32078,0.08881 0.346,0.25468z" fill="#0c0c0b" stroke="none" stroke-linecap="butt"/><path d="M262.96022,180.16127c0.02522,0.16587 -0.08881,0.32078 -0.25468,0.346c-0.16587,0.02522 -0.32078,-0.08881 -0.346,-0.25468c-0.02522,-0.16587 0.08881,-0.32078 0.25468,-0.346c0.16587,-0.02522 0.32078,0.08881 0.346,0.25468z" fill="#0c0c0b" stroke="none" stroke-linecap="butt"/><path d="M276.02878,176.40612l8.45305,2.54551l-7.36519,5.25395l0.09101,2.12458l-1.86762,0.07219l-1.55506,-12.41522l1.86292,-0.13643z" fill="#f2870a" stroke="#b16e1e" stroke-linecap="round"/></g><g stroke="none" stroke-width="1" stroke-linecap="butt" font-family="Handwriting" font-weight="normal" font-size="40" text-anchor="start"><text transform="translate(203.57432,185.75416) rotate(6.24959) scale(0.5,0.5)" font-size="40" xml:space="preserve" fill-opacity="0.41261" fill="#6946af" fill-rule="nonzero" stroke="none" stroke-width="1" stroke-linecap="butt" stroke-linejoin="miter" stroke-miterlimit="10" stroke-dasharray="" stroke-dashoffset="0" font-family="Handwriting" font-weight="normal" text-anchor="start" style="mix-blend-mode: normal"><tspan x="0" dy="0">Normal</tspan></text><text transform="translate(201.87432,185.45416) rotate(6.24943) scale(0.5,0.5)" font-size="40" xml:space="preserve" fill="#f2870a" fill-rule="nonzero" stroke="none" stroke-width="1" stroke-linecap="butt" stroke-linejoin="miter" stroke-miterlimit="10" stroke-dasharray="" stroke-dashoffset="0" font-family="Handwriting" font-weight="normal" text-anchor="start" style="mix-blend-mode: normal"><tspan x="0" dy="0">Normal</tspan></text></g></g></g></svg>