<svg version="1.1" xmlns="http://www.w3.org/2000/svg" xmlns:xlink="http://www.w3.org/1999/xlink" width="72.12201" height="85.66157" viewBox="0,0,72.12201,85.66157"><g transform="translate(-226.85933,-134.71848)"><g data-paper-data="{&quot;isPaintingLayer&quot;:true}" fill-rule="nonzero" stroke-linecap="butt" stroke-linejoin="miter" stroke-miterlimit="10" stroke-dasharray="" stroke-dashoffset="0" style="mix-blend-mode: normal"><g><path d="M294.89245,174.94489c4.92015,7.71965 3.99132,17.69933 -1.50825,25.68472c-0.21276,-0.76348 -0.44458,-1.51242 -0.69018,-2.24084c-2.3876,-3.76388 -5.69662,-7.53433 -9.4502,-10.17405c1.24942,-0.24908 1.55707,-1.63808 1.55707,-1.63808l-0.13636,-0.08484c2.4556,-3.60115 4.70263,-7.76454 7.12269,-11.74258c0.64853,-0.48084 1.30082,-0.95611 1.95776,-1.42448c0.40541,0.51673 0.78848,1.05687 1.14748,1.62014z" fill="#d90d0d" stroke="#137a1b" stroke-width="1.5"/><path d="M288.97462,183.508c0.39456,-0.25147 0.91828,-0.13548 1.16975,0.25908c0.25147,0.39456 0.13548,0.91828 -0.25908,1.16975c-0.39456,0.25147 -0.91828,0.13548 -1.16975,-0.25908c-0.25147,-0.39456 -0.13548,-0.91828 0.25908,-1.16975z" fill="#050303" stroke="none" stroke-width="0.5"/><path d="M291.60688,187.85279c0.39456,-0.25147 0.91828,-0.13548 1.16975,0.25908c0.25147,0.39456 0.13548,0.91828 -0.25908,1.16975c-0.39456,0.25147 -0.91828,0.13548 -1.16975,-0.25908c-0.25147,-0.39456 -0.13548,-0.91828 0.25908,-1.16975z" fill="#050303" stroke="none" stroke-width="0.5"/><path d="M293.47722,183.82741c0.39456,-0.25147 0.91828,-0.13548 1.16975,0.25908c0.25147,0.39456 0.13548,0.91828 -0.25908,1.16975c-0.39456,0.25147 -0.91828,0.13548 -1.16975,-0.25908c-0.25147,-0.39456 -0.13548,-0.91828 0.25908,-1.16975z" fill="#050303" stroke="none" stroke-width="0.5"/><path d="M292.97056,179.80897c0.25147,0.39456 0.13548,0.91828 -0.25908,1.16975c-0.39456,0.25147 -0.91828,0.13548 -1.16975,-0.25908c-0.11693,-0.18346 -0.15441,-0.39486 -0.12138,-0.59381c0.129,-0.19156 0.25746,-0.38463 0.38542,-0.57909c0.39398,-0.24737 0.91438,-0.1307 1.16481,0.26222z" fill="#050303" stroke="none" stroke-width="0.5"/><path d="M292.7756,192.34917c0.39456,-0.25147 0.91828,-0.13548 1.16975,0.25908c0.25147,0.39456 0.13548,0.91828 -0.25908,1.16975c-0.39456,0.25147 -0.91828,0.13548 -1.16975,-0.25908c-0.25147,-0.39456 -0.13548,-0.91828 0.25908,-1.16975z" fill="#050303" stroke="none" stroke-width="0.5"/></g><g data-paper-data="{&quot;index&quot;:null}"><path d="M279.07007,138.26207c-0.37593,0.71388 -0.7593,1.42408 -1.14872,2.1313c-3.61706,2.9323 -7.44105,5.71799 -10.67986,8.63489l-0.10238,-0.12374c0,0 -1.33512,0.49137 -1.41418,1.7629c-3.1198,-3.36516 -7.30044,-6.13793 -11.35081,-7.99853c-0.75479,-0.14557 -1.52809,-0.27474 -2.31322,-0.38304c7.17463,-6.52198 16.93924,-8.78238 25.24962,-4.94333c0.60638,0.28011 1.19307,0.58719 1.75955,0.91955z" fill="#d90d0d" stroke="#137a1b" stroke-width="1.5"/><path d="M268.49516,144.77035c-0.42475,-0.19621 -0.61002,-0.69961 -0.4138,-1.12437c0.19621,-0.42475 0.69961,-0.61002 1.12437,-0.4138c0.42475,0.19621 0.61002,0.69961 0.4138,1.12437c-0.19621,0.42475 -0.69961,0.61002 -1.12437,0.4138z" fill="#050303" stroke="none" stroke-width="0.5"/><path d="M263.83626,142.74531c-0.42475,-0.19621 -0.61002,-0.69961 -0.4138,-1.12437c0.19621,-0.42475 0.69961,-0.61002 1.12437,-0.4138c0.42475,0.19621 0.61002,0.69961 0.4138,1.12437c-0.19621,0.42475 -0.69961,0.61002 -1.12437,0.4138z" fill="#050303" stroke="none" stroke-width="0.5"/><path d="M267.57408,140.3514c-0.42475,-0.19621 -0.61002,-0.69961 -0.4138,-1.12437c0.19621,-0.42475 0.69961,-0.61002 1.12437,-0.4138c0.42475,0.19621 0.61002,0.69961 0.4138,1.12437c-0.19621,0.42475 -0.69961,0.61002 -1.12437,0.4138z" fill="#050303" stroke="none" stroke-width="0.5"/><path d="M273.16476,141.01918c-0.17551,0.15292 -0.34959,0.30611 -0.52208,0.45967c-0.19272,0.05944 -0.40723,0.05068 -0.60474,-0.04055c-0.42475,-0.19621 -0.61002,-0.69961 -0.4138,-1.12437c0.19621,-0.42475 0.69961,-0.61002 1.12437,-0.4138c0.42298,0.1954 0.60848,0.69542 0.41624,1.11905z" fill="#050303" stroke="none" stroke-width="0.5"/><path d="M259.22369,142.19091c-0.42475,-0.19621 -0.61002,-0.69961 -0.4138,-1.12437c0.19621,-0.42475 0.69961,-0.61002 1.12437,-0.4138c0.42475,0.19621 0.61002,0.69961 0.4138,1.12437c-0.19621,0.42475 -0.69961,0.61002 -1.12437,0.4138z" fill="#050303" stroke="none" stroke-width="0.5"/></g><g data-paper-data="{&quot;index&quot;:null}"><path d="M239.18787,150.71168c0.39835,0.70161 0.7896,1.40751 1.17509,2.11687c0.51821,4.62742 0.80134,9.34998 1.51061,13.65058l-0.15942,0.01947c0,0 -0.30638,1.38929 0.72169,2.14169c-4.51643,0.81198 -9.10623,2.83675 -12.85767,5.24385c-0.52971,0.55707 -1.05556,1.13857 -1.57027,1.74126c-1.62204,-9.55931 1.74138,-19.00094 9.45657,-23.92809c0.56295,-0.35951 1.13796,-0.68791 1.72338,-0.98566z" fill="#d90d0d" stroke="#137a1b" stroke-width="1.5"/><path d="M238.96435,163.12686c-0.39433,0.25183 -0.91815,0.13631 -1.16999,-0.25802c-0.25183,-0.39433 -0.13631,-0.91815 0.25802,-1.16999c0.39433,-0.25183 0.91815,-0.13631 1.16999,0.25802c0.25183,0.39433 0.13631,0.91815 -0.25802,1.16999z" fill="#050303" stroke="none" stroke-width="0.5"/><path d="M234.74624,165.95767c-0.39433,0.25183 -0.91815,0.13631 -1.16999,-0.25802c-0.25183,-0.39433 -0.13631,-0.91815 0.25802,-1.16999c0.39433,-0.25183 0.91815,-0.13631 1.16999,0.25802c0.25183,0.39433 0.13632,0.91817 -0.25801,1.16999z" fill="#050303" stroke="none" stroke-width="0.5"/><path d="M234.74651,161.51899c-0.39433,0.25183 -0.91815,0.13631 -1.16999,-0.25802c-0.25183,-0.39433 -0.13631,-0.91815 0.25802,-1.16999c0.39433,-0.25183 0.91815,-0.13631 1.16999,0.25802c0.25183,0.39433 0.13631,0.91815 -0.25802,1.16999z" fill="#050303" stroke="none" stroke-width="0.5"/><path d="M238.32432,157.17145c0.03408,0.23028 0.0692,0.45948 0.10547,0.68757c-0.05389,0.19435 -0.17696,0.37026 -0.36034,0.48735c-0.39433,0.25183 -0.91815,0.13631 -1.16999,-0.25802c-0.25183,-0.39433 -0.13631,-0.91815 0.25802,-1.16999c0.39269,-0.25078 0.91378,-0.13727 1.16682,0.2531z" fill="#050303" stroke="none" stroke-width="0.5"/><path d="M231.79144,169.54271c-0.39433,0.25183 -0.91814,0.13632 -1.16998,-0.25801c-0.25183,-0.39433 -0.13631,-0.91815 0.25802,-1.16999c0.39433,-0.25183 0.91815,-0.13631 1.16999,0.25802c0.25183,0.39433 0.13631,0.91815 -0.25802,1.16999z" fill="#050303" stroke="none" stroke-width="0.5"/></g><g data-paper-data="{&quot;index&quot;:null}"><path d="M249.75128,209.45204c0.67149,-0.44728 1.34774,-0.88776 2.02789,-1.32274c0.64584,-0.11935 1.04872,-2.34601 1.63927,-2.65351c1.76304,-0.91799 3.56584,-0.40904 5.47186,-0.74042c1.98199,-0.34458 4.54114,1.35958 6.39736,0.91582l0.03077,0.15763c0,0 1.40758,0.20676 2.08494,-0.87225c0.49655,1.95194 2.09124,1.94198 2.98035,3.81696c1.13661,2.3969 1.66817,6.63154 3.16511,8.63498c0.59335,0.48872 1.21079,0.97187 1.84858,1.44237c-9.41966,2.29815 -19.07668,-0.38492 -24.54034,-7.72995c-0.39867,-0.53595 -0.76713,-1.08613 -1.10579,-1.64888z" fill="#d90d0d" stroke="#137a1b" stroke-width="1.5"/><path d="M263.56261,208.24395c0.27925,0.37541 0.20129,0.90613 -0.17412,1.18539c-0.37541,0.27925 -0.90613,0.20129 -1.18539,-0.17412c-0.27925,-0.37541 -0.20129,-0.90613 0.17412,-1.18539c0.37541,-0.27925 0.90613,-0.20129 1.18539,0.17412z" fill="#050303" stroke="none" stroke-width="0.5"/><path d="M266.6864,212.24995c0.27925,0.37541 0.20129,0.90613 -0.17412,1.18539c-0.37541,0.27925 -0.90613,0.20129 -1.18539,-0.17412c-0.27925,-0.37541 -0.20129,-0.90613 0.17412,-1.18539c0.37541,-0.27925 0.90614,-0.2013 1.1854,0.17411z" fill="#050303" stroke="none" stroke-width="0.5"/><path d="M262.25894,212.56552c0.27925,0.37541 0.20129,0.90613 -0.17412,1.18539c-0.37541,0.27925 -0.90613,0.20129 -1.18539,-0.17412c-0.27925,-0.37541 -0.20129,-0.90613 0.17412,-1.18539c0.37541,-0.27925 0.90613,-0.20129 1.18539,0.17412z" fill="#050303" stroke="none" stroke-width="0.5"/><path d="M257.66784,209.30613c0.22726,-0.05039 0.45339,-0.10172 0.67832,-0.15415c0.19769,0.03993 0.38192,0.15018 0.51176,0.32474c0.27925,0.37541 0.20129,0.90613 -0.17412,1.18539c-0.37541,0.27925 -0.90613,0.20129 -1.18539,-0.17412c-0.2781,-0.37385 -0.20195,-0.9017 0.16943,-1.18187z" fill="#050303" stroke="none" stroke-width="0.5"/><path d="M270.47259,214.94215c0.27925,0.37541 0.20131,0.90612 -0.1741,1.18537c-0.37541,0.27925 -0.90613,0.20129 -1.18539,-0.17412c-0.27925,-0.37541 -0.20129,-0.90613 0.17412,-1.18539c0.37541,-0.27925 0.90613,-0.20129 1.18539,0.17412z" fill="#050303" stroke="none" stroke-width="0.5"/></g><g data-paper-data="{&quot;index&quot;:null}"><path d="M297.16661,172.78713c-0.7755,-0.22261 -1.54889,-0.45326 -2.32062,-0.69044c-0.50885,-0.41523 -2.46735,0.71824 -3.08389,0.46689c-1.84064,-0.75035 -2.61898,-2.45427 -4.10484,-3.6932c-1.54508,-1.28831 -1.90144,-4.34221 -3.44079,-5.47047l0.10028,-0.12543c0,0 -0.75305,-1.20703 -2.01403,-1.02539c1.16708,-1.64151 0.12772,-2.85102 0.98212,-4.74206c1.09224,-2.41746 3.97719,-5.56254 4.53628,-8.00019c-0.01126,-0.76862 -0.04233,-1.55201 -0.09624,-2.34274c7.84682,5.6955 12.04909,14.79485 9.98354,23.71306c-0.15072,0.65074 -0.33184,1.28766 -0.54182,1.90997z" fill="#d90d0d" stroke="#137a1b" stroke-width="1.5"/><path d="M287.30952,163.03776c0.10557,-0.45582 0.56069,-0.73975 1.01651,-0.63418c0.45582,0.10557 0.73974,0.56069 0.63417,1.01651c-0.10557,0.45582 -0.56068,0.73974 -1.0165,0.63418c-0.45582,-0.10557 -0.73975,-0.56069 -0.63418,-1.01651z" fill="#050303" stroke="none" stroke-width="0.5"/><path d="M288.34299,158.06403c0.10557,-0.45582 0.56069,-0.73975 1.01651,-0.63418c0.45582,0.10557 0.73975,0.56069 0.63418,1.01651c-0.10557,0.45582 -0.56068,0.73973 -1.0165,0.63417c-0.45582,-0.10557 -0.73974,-0.56068 -0.63418,-1.0165z" fill="#050303" stroke="none" stroke-width="0.5"/><path d="M291.44815,161.23575c0.10557,-0.45582 0.56069,-0.73975 1.01651,-0.63418c0.45582,0.10557 0.73974,0.56068 0.63418,1.0165c-0.10557,0.45582 -0.56068,0.73974 -1.0165,0.63418c-0.45582,-0.10557 -0.73974,-0.56068 -0.63418,-1.0165z" fill="#050303" stroke="none" stroke-width="0.5"/><path d="M291.93334,166.84524c-0.18547,-0.14068 -0.37092,-0.2799 -0.55641,-0.41749c-0.09746,-0.17658 -0.13259,-0.38837 -0.0835,-0.60031c0.10557,-0.45582 0.56068,-0.73974 1.0165,-0.63418c0.45582,0.10557 0.73974,0.56069 0.63417,1.01651c-0.10514,0.45392 -0.55687,0.73739 -1.01077,0.63548z" fill="#050303" stroke="none" stroke-width="0.5"/><path d="M287.9461,153.43525c0.10557,-0.45582 0.56066,-0.73976 1.01648,-0.6342c0.45582,0.10557 0.73975,0.56069 0.63418,1.01651c-0.10557,0.45582 -0.56068,0.73973 -1.0165,0.63417c-0.45582,-0.10557 -0.73974,-0.56068 -0.63418,-1.0165z" fill="#050303" stroke="none" stroke-width="0.5"/></g><g data-paper-data="{&quot;index&quot;:null}"><path d="M235.55036,183.75356c0.7755,0.22261 1.54889,0.45326 2.32063,0.69043c0.50885,0.41523 2.46735,-0.71824 3.08389,-0.46689c1.84064,0.75035 2.61898,2.45427 4.10482,3.6932c1.54508,1.28831 1.90144,4.34221 3.44079,5.47047l-0.10028,0.12543c0,0 0.75305,1.20703 2.01403,1.02539c-1.16708,1.64151 -0.12772,2.85102 -0.98212,4.74206c-1.09224,2.41746 -3.9772,5.56255 -4.53628,8.00019c0.01125,0.7686 0.04233,1.55201 0.09624,2.34274c-7.84682,-5.6955 -12.04909,-14.79487 -9.98354,-23.71306c0.15073,-0.65072 0.33182,-1.28764 0.54182,-1.90997z" fill="#d90d0d" stroke="#137a1b" stroke-width="1.5"/><path d="M245.40744,193.50295c-0.10557,0.45582 -0.56069,0.73975 -1.01651,0.63418c-0.45582,-0.10557 -0.73974,-0.56069 -0.63418,-1.01651c0.10557,-0.45582 0.56069,-0.73975 1.01651,-0.63418c0.45582,0.10557 0.73975,0.56069 0.63418,1.01651z" fill="#050303" stroke="none" stroke-width="0.5"/><path d="M244.37398,198.47667c-0.10557,0.45582 -0.56069,0.73975 -1.01651,0.63418c-0.45582,-0.10557 -0.73975,-0.56069 -0.63418,-1.01651c0.10557,-0.45582 0.56068,-0.73974 1.0165,-0.63418c0.45582,0.10557 0.73975,0.56069 0.63418,1.01651z" fill="#050303" stroke="none" stroke-width="0.5"/><path d="M241.2688,195.30495c-0.10557,0.45582 -0.56069,0.73975 -1.01651,0.63418c-0.45582,-0.10557 -0.73973,-0.56068 -0.63418,-1.0165c0.10557,-0.45582 0.56068,-0.73974 1.0165,-0.63418c0.45582,0.10557 0.73977,0.56067 0.6342,1.01649z" fill="#050303" stroke="none" stroke-width="0.5"/><path d="M240.78361,189.69547c0.18546,0.14069 0.37092,0.2799 0.55641,0.41749c0.09745,0.17657 0.1326,0.38836 0.0835,0.60031c-0.10557,0.45582 -0.56069,0.73975 -1.01651,0.63418c-0.45582,-0.10557 -0.73974,-0.56069 -0.63418,-1.01651c0.10513,-0.45393 0.55686,-0.73738 1.01077,-0.63548z" fill="#050303" stroke="none" stroke-width="0.5"/><path d="M244.77086,203.10546c-0.10557,0.45582 -0.56066,0.73976 -1.01648,0.6342c-0.45582,-0.10557 -0.73975,-0.56069 -0.63418,-1.01651c0.10557,-0.45582 0.56068,-0.73974 1.0165,-0.63418c0.45582,0.10557 0.73974,0.56067 0.63418,1.0165z" fill="#050303" stroke="none" stroke-width="0.5"/></g></g></g></svg>