<svg version="1.1" xmlns="http://www.w3.org/2000/svg" xmlns:xlink="http://www.w3.org/1999/xlink" width="141.22979" height="182.0604" viewBox="0,0,141.22979,182.0604"><g transform="translate(-169.3851,-88.96979)"><g data-paper-data="{&quot;isPaintingLayer&quot;:true}" fill-rule="nonzero" stroke-linejoin="miter" stroke-miterlimit="10" stroke-dasharray="" stroke-dashoffset="0" style="mix-blend-mode: normal"><path d="M268.49453,168.533c-3.28628,12.03023 -16.57612,18.88003 -29.68369,15.29946c-13.10757,-3.58057 -21.06929,-16.23565 -17.78301,-28.26589c1.45373,-5.32172 -2.55702,-26.7339 3.6589,-41.95867c6.21592,-15.22478 17.74344,-25.8246 23.10345,-23.59086c5.71274,2.38076 -1.69295,29.95426 -1.69295,29.95426c0,0 32.87048,-22.29546 33.98402,-21.99126c4.08591,1.11616 -7.58896,20.24674 -8.05339,31.63454c-0.17364,4.25698 -1.65433,32.04011 -3.53332,38.91849z" fill="#03ca1e" stroke="#0f681c" stroke-width="1.5" stroke-linecap="butt"/><path d="M240.34013,167.60941l-15.84025,36.73591l-17.52539,-1.34811l22.91781,-39.09509" fill="#03ca1e" stroke="#0f681c" stroke-width="1.5" stroke-linecap="round"/><path d="M264.26903,162.8909l21.56971,44.15049l-18.19944,0.67405l-13.81809,-38.08401" fill="#03ca1e" stroke="#0f681c" stroke-width="1.5" stroke-linecap="round"/><path d="M244.8542,234.1198c-3.67656,18.03571 -23.24918,29.27427 -43.71674,25.10202c-20.46749,-4.17226 -34.07933,-22.17541 -30.40277,-40.21119c3.14715,-15.43865 17.94209,-25.89679 34.97548,-25.97148c2.86533,-0.0126 6.35396,8.9854 9.63283,9.99412c3.27886,1.00872 10.21231,-5.62551 14.68877,-2.51159c11.2389,7.81807 17.45164,20.69977 14.82237,33.59812z" fill="#ff0000" stroke="#920707" stroke-width="1.5" stroke-linecap="butt"/><path d="M218.62267,223.99094c3.93229,-1.99843 8.81547,-0.2825 10.90686,3.83273c2.09139,4.11523 0.59903,9.07127 -3.33326,11.06971c-3.93229,1.99843 -8.81547,0.2825 -10.90686,-3.83273c-2.09139,-4.11523 -0.5991,-9.07127 3.33326,-11.06971z" data-paper-data="{&quot;index&quot;:null}" fill="#f9ffab" stroke="#000000" stroke-width="1.5" stroke-linecap="butt"/><path d="M309.86476,236.95204c0,18.40664 -15.25686,33.32816 -34.0771,33.32816c-18.82024,0 -34.0771,-14.92152 -34.0771,-33.32816c0,-14.38935 9.32384,-26.64877 22.38511,-31.3147c3.64656,-1.30268 7.41452,2.42922 12.441,2.48018c5.02648,0.05103 7.77453,-3.69388 11.60464,-2.23617c12.71339,4.83856 21.72359,16.92555 21.72359,31.07069z" fill="#ff0000" stroke="#920707" stroke-width="1.5" stroke-linecap="butt"/><path d="M195.44731,219.57885c4.41094,0 7.98679,3.74207 7.98679,8.35826c0,4.61619 -3.57585,8.35826 -7.98679,8.35826c-4.41094,0 -7.98679,-3.74207 -7.98679,-8.35826c0,-4.61619 3.57579,-8.35826 7.98679,-8.35826z" data-paper-data="{&quot;index&quot;:null}" fill="#f9ffab" stroke="#000000" stroke-width="1.5" stroke-linecap="butt"/><path d="M253.84526,234.02496c2.09139,-4.11523 6.97456,-5.83117 10.90686,-3.83273c3.93229,1.99843 5.42465,6.95448 3.33326,11.06971c-2.09139,4.11523 -6.97456,5.83117 -10.90686,3.83273c-3.93229,-1.99843 -5.42465,-6.95455 -3.33326,-11.06971z" data-paper-data="{&quot;index&quot;:null}" fill="#f9ffab" stroke="#000000" stroke-width="1.5" stroke-linecap="butt"/><path d="M223.118,130.73863c0,0 -0.48566,-4.90589 1.25542,-10.37624c1.89254,-5.94636 6.02435,-12.6085 6.02435,-15.64222c0,-2.65469 6.74053,-9.57156 6.74053,-9.57156l8.76269,-4.04432c0,0 -4.69694,2.76598 -5.019,5.77185c-0.34296,3.20088 -10.6739,11.27085 -10.94703,18.12759c-0.28499,7.15602 -1.28973,29.48559 -1.28973,29.48559z" fill="#badbbf" stroke="none" stroke-width="1.5" stroke-linecap="butt"/><path d="M244.6203,123.59366l27.771,-18.87349l7.27978,-5.12281c0,0 -2.72506,4.07418 -5.74334,6.90574c-2.14214,2.00962 -6.10288,5.92169 -10.21905,9.47719c-4.11624,3.55556 -10.19088,8.15254 -10.19088,8.15254c0,0 -3.55732,2.96179 -4.867,5.51672c-1.30969,2.555 -6.43734,16.53621 -6.43734,16.53621z" fill="#badbbf" stroke="#000000" stroke-width="1.5" stroke-linecap="butt"/><path d="M278.78928,230.63346c3.27239,-3.25581 8.44724,-3.36022 11.55826,-0.23329c3.11109,3.12693 2.98033,8.30117 -0.29207,11.55698c-3.27239,3.25581 -8.44724,3.36022 -11.55833,0.23329c-3.11109,-3.12693 -2.98026,-8.30117 0.29213,-11.55698z" data-paper-data="{&quot;index&quot;:null}" fill="#f9ffab" stroke="#000000" stroke-width="1.5" stroke-linecap="butt"/><path d="M201.09142,230.05823c0,2.5413 -2.06016,4.60156 -4.60156,4.60156c-2.5413,0 -4.60156,-2.06016 -4.60156,-4.60156c0,-2.5413 2.06016,-4.60156 4.60156,-4.60156c2.5413,0 4.60156,2.06016 4.60156,4.60156z" fill="#03ca1e" stroke="none" stroke-width="1.5" stroke-linecap="butt"/><path d="M225.84067,233.98474c0,2.29761 -1.71099,4.16038 -3.82159,4.16038c-2.11069,0 -3.82159,-1.86268 -3.82159,-4.16038c0,-2.29761 1.71099,-4.16019 3.82159,-4.16019c2.11069,0 3.82159,1.86258 3.82159,4.16019z" fill="#03ca1e" stroke="none" stroke-width="1.5" stroke-linecap="butt"/><path d="M267.72925,239.22752c0,3.30876 -2.68236,5.99111 -5.99111,5.99111c-3.30876,0 -5.99101,-2.68236 -5.99101,-5.99111c0,-3.30876 2.68225,-5.99101 5.99101,-5.99101c3.30876,0 5.99111,2.68225 5.99111,5.99101z" fill="#03ca1e" stroke="none" stroke-width="1.5" stroke-linecap="butt"/><path d="M289.14956,240.34818c0,2.74135 -2.48394,4.96365 -5.54811,4.96365c-3.06415,0 -5.54811,-2.2223 -5.54811,-4.96365c0,-2.74135 2.48394,-4.96365 5.54811,-4.96365c3.06415,0 5.54811,2.2223 5.54811,4.96365z" fill="#03ca1e" stroke="none" stroke-width="1.5" stroke-linecap="butt"/><path d="M197.70619,215.53447l8.62788,11.86334l-6.47091,2.42659c0,0 -1.1045,1.59131 -5.88826,-3.26963c-4.78376,-4.86094 -8.94091,-20.72667 -8.94091,-20.72667" fill="#f84141" stroke="#3b1010" stroke-width="1.5" stroke-linecap="round"/><path d="M234.91394,213.91674c0,0 -4.58093,6.55524 -8.15166,10.1836c-3.57073,3.62836 -8.56486,6.80261 -8.56486,6.80261l-6.47091,-2.42659l11.05447,-12.13296" data-paper-data="{&quot;index&quot;:null}" fill="#f84141" stroke="#3b1010" stroke-width="1.5" stroke-linecap="round"/><path d="M198.34742,231.74828c0,0.40248 -0.4078,0.72872 -0.91085,0.72872c-0.50311,0 -0.91085,-0.32631 -0.91085,-0.72872c0,-0.40248 0.4078,-0.72872 0.91085,-0.72872c0.50311,0 0.91085,0.32624 0.91085,0.72872z" fill="#fac1c1" stroke="none" stroke-width="0" stroke-linecap="butt"/><path d="M221.48383,232.477c0,0.40248 -0.36702,0.72865 -0.81978,0.72865c-0.45276,0 -0.81978,-0.32624 -0.81978,-0.72865c0,-0.40248 0.36702,-0.72872 0.81978,-0.72872c0.45276,0 0.81978,0.32631 0.81978,0.72872z" fill="#fac1c1" stroke="none" stroke-width="1.5" stroke-linecap="butt"/><path d="M266.22952,240.33179c0,0.90552 -0.85638,1.63956 -1.91286,1.63956c-1.05648,0 -1.91286,-0.73404 -1.91286,-1.63956c0,-0.90552 0.85638,-1.63956 1.91286,-1.63956c1.05648,0 1.91286,0.73404 1.91286,1.63956z" fill="#fac1c1" stroke="none" stroke-width="1.5" stroke-linecap="butt"/><path d="M283.3521,239.21549c0,0.55333 -0.48936,1.00198 -1.09304,1.00198c-0.60368,0 -1.09311,-0.44865 -1.09311,-1.00198c0,-0.55333 0.48943,-1.00198 1.09311,-1.00198c0.60368,0 1.09304,0.44858 1.09304,1.00198z" fill="#fac1c1" stroke="none" stroke-width="1.5" stroke-linecap="butt"/><path d="M261.87607,223.62311l10.24561,12.94182l-6.47091,2.42659l-16.71652,-16.98614" data-paper-data="{&quot;index&quot;:null}" fill="#f84141" stroke="#3b1010" stroke-width="1.5" stroke-linecap="round"/><path d="M299.30517,227.67188l-21.9736,9.22678l-5.03484,-4.73408l14.94113,-7.78242" data-paper-data="{&quot;index&quot;:null}" fill="#f84141" stroke="#3b1010" stroke-width="1.5" stroke-linecap="round"/><path d="M213.375,248.625c0,2.1401 -1.90279,3.875 -4.25,3.875c-2.34721,0 -4.25,-1.7349 -4.25,-3.875c0,-2.1401 1.90279,-3.875 4.25,-3.875c2.34721,0 4.25,1.7349 4.25,3.875z" fill="#272626" stroke="#000000" stroke-width="1.5" stroke-linecap="butt"/><path d="M284.125,256.375c0,2.41625 -2.29454,4.375 -5.125,4.375c-2.83046,0 -5.125,-1.95875 -5.125,-4.375c0,-2.41625 2.29454,-4.375 5.125,-4.375c2.83046,0 5.125,1.95875 5.125,4.375z" fill="#2f0505" stroke="#000000" stroke-width="1.5" stroke-linecap="butt"/></g></g></svg>