<svg version="1.1" xmlns="http://www.w3.org/2000/svg" xmlns:xlink="http://www.w3.org/1999/xlink" width="81.03174" height="76.2084" viewBox="0,0,81.03174,76.2084"><defs><radialGradient cx="240" cy="188.23995" r="40.26587" gradientUnits="userSpaceOnUse" id="color-1"><stop offset="0" stop-color="#e59406"/><stop offset="1" stop-color="#955904"/></radialGradient></defs><g transform="translate(-199.48413,-141.8958)"><g data-paper-data="{&quot;isPaintingLayer&quot;:true}" fill-rule="nonzero" stroke-linejoin="miter" stroke-miterlimit="10" stroke-dasharray="" stroke-dashoffset="0" style="mix-blend-mode: normal"><g stroke-width="0.5" stroke-linecap="butt"><path d="M206.00933,215.27889c0,0 0,-11.07209 0,-14.68501c0,-2.1132 -6.62882,-12.48776 -1.04586,-13.13921c5.58294,-0.65144 30.35368,-6.18224 58.04562,-1.5458c27.6919,4.63644 6.79813,13.10938 6.79813,15.45791c0,3.63831 0,13.91211 0,13.91211z" fill="#c27e07" stroke="#87611e"/><path d="M256.47241,206.39059c0,0.96613 -1.30734,0.96612 -1.30734,0.96612l-0.63247,-0.04959c-0.43163,0.09725 -0.86327,0.1945 -1.29489,0.29175c-3.8141,2.89306 -15.96897,5.02837 -21.29113,4.38272c-3.27664,-0.3975 -6.39525,-1.95032 -9.72632,-1.91976c0,0 -1.30734,0 -1.30734,-0.96613c0,-0.96613 1.30734,-0.96612 1.30734,-0.96612c3.56661,0.02503 6.66687,1.50817 10.14513,1.94471c4.91554,0.61693 15.8954,-1.51768 19.49768,-4.11912c0.61421,-0.1604 1.22847,-0.32077 1.8427,-0.48117l1.45929,-0.04956c0,0 1.30734,0 1.30734,0.96613z" fill="#87611e" stroke="none"/><path d="M233.78651,205.32248c-1.16932,0.43206 -1.75398,-0.43206 -1.75398,-0.43206l-0.27804,-0.52181c-1.36466,-1.23676 -4.46543,-0.117 -6.39663,-0.10348c0,0 -1.30734,0 -1.30734,-0.96613c0,-0.96613 1.30734,-0.96613 1.30734,-0.96613c3.21457,0.02949 5.51173,-1.15742 8.24549,0.66941l0.76782,1.02399c0,0 0.58466,0.86412 -0.58465,1.29619z" fill="#87611e" stroke="none"/><path d="M253.65799,204.54958c-1.16932,0.43206 -1.75397,-0.43205 -1.75397,-0.43205l0.23295,-0.28841c-4.05965,-1.00004 -6.25589,-0.74657 -9.843,1.04666c0,0 -1.08775,0.53591 -1.81294,-0.26797c-0.72518,-0.80387 0.36258,-1.33976 0.36258,-1.33976c4.23807,-2.06263 7.29508,-2.46063 12.12018,-1.27203l1.27883,1.25738c0,0 0.58468,0.86411 -0.58464,1.29618z" fill="#87611e" stroke="none"/><path d="M280.26587,188.23995c0,7.69028 -18.02766,13.92451 -40.26587,13.92451c-22.23821,0 -40.26587,-6.2342 -40.26587,-13.92451c0,-7.69028 18.02766,-13.9245 40.26587,-13.9245c22.23821,0 40.26587,6.2342 40.26587,13.9245z" fill="url(#color-1)" stroke="#87611e"/></g><g><path d="M238.19875,146.89162l-3.23272,19.5579l3.07107,25.37678l-2.7478,23.76043h-3.87925l2.58617,-22.14407l-7.92014,-46.22777z" fill="#abf9b2" stroke="none" stroke-width="0" stroke-linecap="round"/><g><g stroke="#029f0f" stroke-width="1.5"><path d="M230.5134,174.14807c-0.00998,0.0869 -0.02889,0.17063 -0.05568,0.25036l0.04291,0.01612l0.17726,0.41381l0.23962,0.25839l-0.01561,0.26457l0.08229,0.1921l-0.01397,0.01902l0.08032,0.15672l-0.12959,0.37453l-0.03519,0.30626l-0.05276,0.14041l-0.01712,0.14904l-0.0609,0.16209l-0.06328,0.55065l0.00624,0.01219l-0.01145,0.03308l-0.00387,0.03373l-0.09847,0.26211l-0.09155,0.26462l-0.01855,0.02844l-0.01231,0.03276l-0.01257,0.00539l-0.005,0.00766l-0.48098,1.03193l-0.42212,0.96348l-0.00891,0.01151l-0.00277,0.0143l-0.12589,0.27007l-0.00427,0.03714l-0.06889,0.18338l-0.03722,0.19232l-0.02117,0.04543l-0.05459,0.47496l0.07688,0.05648l0.08175,0.62269l-0.03565,0.31034l0.00624,0.01219l-0.01145,0.03308l-0.00387,0.03373l-0.09847,0.26211l-0.09155,0.26462l-0.01855,0.02844l-0.01231,0.03276l-0.01257,0.00539l-0.05233,0.08019l-0.07294,0.06765l-0.01029,0.05992l-0.20015,0.13523l-0.17712,0.16425l-0.06069,-0.00358l-0.08244,0.0557l-0.08997,0.03276l-0.0081,0.01103l-0.0347,0.00457l-0.0319,0.01162l-0.27848,0.02913l-0.27761,0.03645l-0.03373,-0.00387l-0.0105,0.0011l-0.04195,0.00883l-0.09659,-0.00364l-0.09247,0.02817l-0.47616,0.02417l-0.0872,-0.01716l-0.1565,0.01637l-0.11004,0.01445l-0.17589,0.03699l-0.19575,-0.00738l-0.19423,0.0255l-0.10071,-0.01157l-0.56971,0.05959l-0.30453,0.03998l-0.02786,-0.0032l-0.06126,0.04139l-0.17712,0.16426l-0.06069,-0.00359l-0.08244,0.0557l-0.16468,0.05996l-0.13348,0.01397l-0.12484,0.04923l-0.64083,0.08414l-0.02952,-0.0034l-0.02813,0.00958l-0.32268,0.02683l-0.41087,0.08642l-0.07695,-0.00289l-0.07289,0.0248l-0.23565,0.0196l-0.01135,0.00414l-0.27848,0.02913l-0.27761,0.03645l-0.03373,-0.00387l-0.0348,0.00365l-0.01045,-0.00885l-0.00559,-0.00064l-0.17167,0.02253l-0.14904,-0.01712l-0.14874,0.01953l-0.34733,-0.03992l-0.27803,0.02313l-0.11978,-0.01958l-0.12033,0.0158l-0.1916,-0.02202l-0.11541,0.00959l-0.01135,0.00414l-0.27848,0.02913l-0.27761,0.03645l-0.03373,-0.00387l-0.0348,0.00365l-0.01045,-0.00885l-1.71083,-0.19662l-0.01219,0.00624l-0.03308,-0.01145l-0.03373,-0.00387l-0.26211,-0.09847l-0.26462,-0.09155l-0.02845,-0.01855l-0.03276,-0.01231l-0.00539,-0.01257l-0.45061,-0.29398l-0.2509,0.09136l-0.08724,0.00912l-0.0789,0.03834l-0.24254,0.05101l-0.15323,-0.00577l-0.00105,0.00038l-0.53322,0.05579l-0.02288,0.0098l-0.00883,-0.00649l-0.05973,0.00625l-0.31305,-0.26499l-0.04165,-0.01564l-0.01318,-0.03075l-0.0802,-0.0679l-1.86064,0.13872l1.90499,-2.39779l0.06712,-0.1109l0.32628,-0.32383l0.75459,-0.86042l0.34293,-0.46682l0.01027,-0.00851l0.00531,-0.01222l0.27834,-0.36249l0.0389,-0.03088l0.02336,-0.04383l0.38563,-0.42689l0.06656,-0.14282l0.12336,-0.15218l0.09612,-0.17067l0.26939,-0.28463l0.01648,-0.01051l0.01011,-0.01672l0.35621,-0.35354l0.01077,-0.0064l0.00669,-0.01059l1.76329,-1.68142l0.34755,-0.34495l0.02368,-0.01408l0.01528,-0.02292l0.50095,-0.45517l0.10611,-0.16264l0.14363,-0.1332l0.1193,-0.15537l0.07445,-0.0591l0.12376,-0.11479l0.18121,-0.18857l0.06839,-0.0429l0.01915,-0.01775l0.00837,0.00049l0.32923,-0.20655l0.07899,-0.02576l0.06508,-0.05167l0.37716,-0.17114l0.79395,-0.42994l0.91854,-0.51908l0.00516,-0.00143l0.00392,-0.00365l0.55194,-0.30571l0.00847,-0.01515l0.31835,-0.08296l0.31786,-0.08485l0.01483,0.00901l0.5886,-0.00585l0.0749,0.01793l0.07635,-0.01003l3.42615,0.39375c0.20634,0.02371 0.39471,0.09768 0.55425,0.20825l0.03366,0.01265l0.00727,0.01701c0.33261,0.2516 0.52735,0.66752 0.47628,1.11185z" fill="#01d312" stroke-linecap="butt"/><path d="M229.99556,176.21873l-15.87612,6.84258" fill="none" stroke-linecap="round"/></g><g stroke-linecap="butt"><g><path d="M262.78132,180.58656c-0.6685,5.81687 -4.24569,10.18355 -7.98989,9.75325c-3.7442,-0.4303 -6.23754,-5.49463 -5.56904,-11.3115c0.6685,-5.81687 4.24569,-10.18355 7.98989,-9.75325c3.7442,0.4303 6.23754,5.49463 5.56904,11.3115z" fill="#01d312" stroke="#029f0f" stroke-width="2.5"/><path d="M261.81282,180.47524c-0.46872,4.07849 -2.63733,7.17921 -4.84373,6.92564c-2.2064,-0.25357 -3.61506,-3.76539 -3.14636,-7.8439c0.46872,-4.07849 2.63733,-7.17921 4.84371,-6.92564c2.2064,0.25357 3.61507,3.76539 3.14636,7.8439z" fill="#0f0f0f" stroke="none" stroke-width="0"/></g><path d="M252.44408,181.02022c-0.73765,6.41861 -6.91837,10.98035 -13.805,10.18889c-6.88663,-0.79144 -11.87139,-6.63634 -11.13371,-13.05496c0.73765,-6.41861 6.91837,-10.98035 13.805,-10.18889c6.88663,0.79144 11.87139,6.63634 11.13371,13.05496z" fill="#01d312" stroke="#029f0f" stroke-width="2.5"/><path d="M252.1256,182.85346c0,0.99479 -1.2463,1.80122 -2.7837,1.80122c-1.5374,0 -2.78369,-0.80643 -2.78369,-1.80122c0,-0.99479 1.2463,-1.80122 2.78369,-1.80122c1.5374,0 2.7837,0.80643 2.7837,1.80122z" fill="#0f0f0f" stroke="#498f82" stroke-width="0"/><path d="M249.66029,182.8293c0.03842,-0.33429 0.34057,-0.57416 0.67487,-0.53574c0.33429,0.03842 0.57415,0.34057 0.53574,0.67487c-0.03842,0.33429 -0.34057,0.57416 -0.67487,0.53574c-0.33429,-0.03842 -0.57416,-0.34057 -0.53574,-0.67487z" fill="#e8e4e4" stroke="none" stroke-width="0.5"/><path d="M251.7981,176.52192c0,0.99479 -1.2463,1.80122 -2.7837,1.80122c-1.5374,0 -2.7837,-0.80643 -2.7837,-1.80122c0,-0.99479 1.2463,-1.80121 2.7837,-1.80121c1.5374,0 2.7837,0.80643 2.7837,1.80121z" fill="#0f0f0f" stroke="#498f82" stroke-width="0"/><path d="M248.98667,175.88289c0.03842,-0.33429 0.34057,-0.57416 0.67487,-0.53574c0.33429,0.03842 0.57416,0.34057 0.53574,0.67487c-0.03842,0.33429 -0.34057,0.57416 -0.67487,0.53574c-0.33429,-0.03842 -0.57415,-0.34057 -0.53574,-0.67487z" fill="#e8e4e4" stroke="none" stroke-width="0.5"/><path d="M229.53938,184.03161c0,0 -1.19632,-4.58074 -0.96675,-6.53216c0.21663,-1.84131 2.30762,-4.86523 2.30762,-4.86523l3.18457,-3.01697c0,0 -2.7386,6.00394 -3.08427,8.53888c-0.32325,2.37057 3.5871,9.22768 3.5871,9.22768z" fill="#abf9b2" stroke="none" stroke-width="0"/></g></g><g><g data-paper-data="{&quot;index&quot;:null}" stroke="#029f0f" stroke-width="1.5"><path d="M227.40353,156.02814c0.29985,-0.13178 0.63297,-0.08544 0.88091,0.09288l0.01347,0.00142l0.01612,0.02082c0.11186,0.08774 0.20433,0.20353 0.26554,0.34277l1.01617,2.31209l0.00949,0.05559l0.02873,0.04852l0.12316,0.41308l0.0095,0.00843l0.00935,0.24074l0.01078,0.24068l-0.00876,0.00919l-0.09458,0.45228l-0.00172,0.00352l0.00011,0.00392l-0.16461,0.75491l-0.12918,0.64846l-0.03822,0.30089l-0.02207,0.0567l-0.00096,0.06084l-0.07334,0.27501l0.00217,0.00575l-0.00829,0.01724l-0.01522,0.05712l-0.09276,0.16756l-0.05357,0.11141l-0.02525,0.06486l-0.08291,0.11705l-0.06215,0.12929l-0.09085,0.1094l-0.21017,0.44892l-0.01274,0.01565l-0.00473,0.0196l-0.16622,0.31777l-0.79526,1.59724l-0.00597,0.00698l-0.00216,0.00893l-0.17035,0.32566l-0.00951,0.01068l-0.0038,0.0138l-0.14092,0.25002l-0.09864,0.10416l-0.0798,0.1192l-0.08553,0.07745l-0.21532,0.36212l-0.02561,0.02582l-0.0132,0.03389l-0.19345,0.27312l-0.00741,0.00635l-0.00373,0.00902l-0.25248,0.34085l-0.4389,0.71398l-0.15603,0.2983l-0.06309,0.07094l-1.26586,1.85125l-0.30518,-1.33185l-0.06484,-0.04143l-0.02437,-0.00256l-0.01995,-0.02575l-0.25308,-0.16176l-0.00853,-0.04313l-0.00645,-0.00477l0.00191,-0.01813l-0.07623,-0.38514l0.00003,-0.00082l-0.03716,-0.10597l-0.01673,-0.18074l0.00977,-0.06349l-0.01247,-0.06301l0.00968,-0.19531l-0.30312,-0.25174l-0.00996,-0.00105l-0.0157,-0.02026l-0.01913,-0.01589l-0.12127,-0.16535l-0.12556,-0.1621l-0.01,-0.02277l-0.01517,-0.02066l0.00174,-0.00987l-0.50743,-1.15452l-0.00844,-0.00539l-0.00497,-0.02514l-0.01001,-0.02277l-0.03451,-0.20212l-0.03981,-0.20114l0.00044,-0.00884l-0.01823,-0.08281l-0.05683,-0.12931l-0.01495,-0.08761l-0.03959,-0.07957l-0.04392,-0.19954l-0.10303,-0.23439l-0.01849,-0.10829l-0.0442,-0.10058l-0.02135,-0.12499l-0.00165,-0.00377l-0.00846,-0.0054l-0.00496,-0.02514l-0.01001,-0.02277l-0.03452,-0.20211l-0.03981,-0.20114l0.00044,-0.00884l-0.03723,-0.16913l0.0016,-0.05637l-0.01865,-0.05322l-0.02836,-0.30615l-0.05098,-0.23157l0.00062,-0.02175l-0.00875,-0.01992l-0.07967,-0.46658l0.00745,-0.09799l-0.01908,-0.09641l0.00635,-0.12819l0.02114,-0.06974l-0.01562,-0.04169l0.07663,-0.15943l0.01572,-0.05181l-0.00825,-0.0188l-0.03786,-0.22172l-0.08145,-0.41151l-0.02988,-0.06796l-0.02415,-0.14142l-0.04747,-0.13537l-0.01214,-0.13107l-0.01368,-0.08012l-0.02238,-0.11305l-0.03085,-0.05731l-0.08602,-0.33838l-0.00028,-0.07078l-0.02342,-0.0668l-0.00289,-0.03127l-0.0015,-0.00759l-0.01001,-0.02277l-0.03452,-0.20211l-0.03981,-0.20114l0.00124,-0.02483l-0.00431,-0.02527l0.00597,-0.00806l0.00346,-0.07003l0.02116,-0.06972l-0.01563,-0.04169l0.07664,-0.15943l0.05135,-0.16928l0.0397,-0.02014l0.03156,-0.06568l0.0448,-0.05395l0.00105,-0.00997l0.02027,-0.0157l0.01589,-0.01913l0.16535,-0.12126l0.16209,-0.12556l0.02277,-0.01l0.02066,-0.01516l0.00987,0.00174l0.20943,-0.09204l0.45337,-0.0774l0.05613,0.04157l0.32051,-0.14086l0.0272,-0.02462l0.12651,-0.06762l0.11342,-0.08785l0.02506,-0.01102l0.16174,-0.14646l0.00941,-0.00503l0.00614,-0.00871l0.58289,-0.50364l0.61805,-0.55964l0.00428,-0.00516l0.00105,-0.00996l0.02027,-0.0157l0.01588,-0.01913l0.16535,-0.12126l0.16209,-0.12556l0.02277,-0.01001l0.02067,-0.01516l0.00987,0.00174l0.3716,-0.16332l0.10025,-0.07765l0.10058,-0.0442l0.08686,-0.06727l0.20669,-0.09083l0.23403,-0.17164l0.12701,0.02232l0.0103,-0.01389l0.1522,0.01606l0.18174,-0.0681l0.23258,0.1118l0.32785,0.03458l0.02057,0.02654c0.04999,-0.03599 0.10448,-0.06731 0.16313,-0.09308z" data-paper-data="{&quot;index&quot;:null}" fill="#01d312" stroke-linecap="butt"/><path d="M226.06674,156.83812l-1.35545,12.58748" data-paper-data="{&quot;index&quot;:null}" fill="none" stroke-linecap="round"/></g><g><g stroke="#029f0f" stroke-width="1.5"><path d="M229.07179,149.4225c-0.01,0.08697 -0.02891,0.17075 -0.05573,0.25054l0.04294,0.01614l0.17738,0.4141l0.23981,0.25858l-0.01562,0.26476l0.08236,0.19226l-0.01398,0.01904l0.08037,0.15683l-0.12969,0.37481l-0.03522,0.30649l-0.05279,0.14054l-0.01714,0.14914l-0.06094,0.16221l-0.06333,0.55107l0.00624,0.0122l-0.01146,0.0331l-0.00388,0.03375l-0.09854,0.2623l-0.09162,0.26481l-0.01856,0.02847l-0.01232,0.0328l-0.01258,0.00539l-0.005,0.00767l-0.48134,1.03269l-0.42244,0.96422l-0.00891,0.01154l-0.00277,0.0143l-0.12598,0.27027l-0.00427,0.03717l-0.06895,0.18351l-0.03725,0.19245l-0.02118,0.04546l-0.05462,0.47531l0.07693,0.05651l0.08182,0.62316l-0.03569,0.31058l0.00624,0.0122l-0.01146,0.0331l-0.00388,0.03375l-0.09854,0.2623l-0.09162,0.26481l-0.01856,0.02846l-0.01232,0.0328l-0.01258,0.00539l-0.05236,0.08025l-0.07301,0.0677l-0.01029,0.05996l-0.2003,0.13533l-0.17725,0.16438l-0.06074,-0.00359l-0.08251,0.05574l-0.09003,0.03279l-0.00811,0.01104l-0.03473,0.00458l-0.03192,0.01162l-0.27868,0.02916l-0.27783,0.03649l-0.03375,-0.00388l-0.0105,0.0011l-0.04197,0.00884l-0.09665,-0.00364l-0.09254,0.02819l-0.47651,0.0242l-0.08728,-0.01717l-0.15664,0.01638l-0.11013,0.01446l-0.17601,0.03703l-0.19589,-0.00739l-0.19437,0.02552l-0.10078,-0.01158l-0.57014,0.05965l-0.30475,0.04001l-0.02789,-0.0032l-0.0613,0.04142l-0.17725,0.16438l-0.06074,-0.00359l-0.08251,0.05574l-0.1648,0.06001l-0.13357,0.01398l-0.12494,0.04926l-0.64132,0.08421l-0.02954,-0.0034l-0.02814,0.00958l-0.32293,0.02686l-0.41116,0.08649l-0.07701,-0.00289l-0.07296,0.02482l-0.23583,0.01961l-0.01135,0.00414l-0.27868,0.02916l-0.27783,0.03649l-0.03375,-0.00388l-0.03482,0.00365l-0.01046,-0.00885l-0.00559,-0.00064l-0.17182,0.02256l-0.14914,-0.01714l-0.14885,0.01954l-0.34757,-0.03995l-0.27825,0.02314l-0.11986,-0.01959l-0.12042,0.01581l-0.19173,-0.02203l-0.11549,0.0096l-0.01136,0.00414l-0.27868,0.02916l-0.27783,0.03649l-0.03375,-0.00388l-0.03483,0.00365l-0.01046,-0.00885l-1.7121,-0.19677l-0.0122,0.00625l-0.0331,-0.01146l-0.03375,-0.00387l-0.2623,-0.09855l-0.26481,-0.09162l-0.02847,-0.01856l-0.03279,-0.01232l-0.00539,-0.01258l-0.45095,-0.29421l-0.25109,0.09142l-0.08731,0.00913l-0.07894,0.03836l-0.24273,0.05106l-0.15336,-0.00577l-0.00105,0.00038l-0.53362,0.05583l-0.02289,0.0098l-0.00884,-0.0065l-0.05977,0.00625l-0.31329,-0.26518l-0.04167,-0.01565l-0.01319,-0.03077l-0.08026,-0.06795l-1.86202,0.13882l1.9064,-2.39957l0.06716,-0.111l0.32652,-0.32406l0.75516,-0.86106l0.34318,-0.46716l0.01028,-0.00851l0.00531,-0.01223l0.27855,-0.36275l0.03894,-0.0309l0.02338,-0.04386l0.38593,-0.42721l0.06661,-0.14292l0.12344,-0.15228l0.0962,-0.1708l0.26959,-0.28483l0.01649,-0.01052l0.01012,-0.01673l0.35647,-0.35379l0.01078,-0.00641l0.0067,-0.01059l1.76461,-1.68267l0.34782,-0.34521l0.02369,-0.01409l0.01529,-0.02294l0.50134,-0.45552l0.10619,-0.16276l0.14373,-0.13329l0.11939,-0.15548l0.0745,-0.05914l0.12386,-0.11487l0.18135,-0.18871l0.06843,-0.04293l0.01916,-0.01777l0.00838,0.00049l0.32947,-0.2067l0.07905,-0.02578l0.06513,-0.0517l0.37744,-0.17128l0.79454,-0.43025l0.91923,-0.51946l0.00517,-0.00143l0.00392,-0.00365l0.55235,-0.30595l0.00847,-0.01516l0.31859,-0.08301l0.31809,-0.08491l0.01483,0.00901l0.58903,-0.00585l0.07494,0.01795l0.07641,-0.01003l3.42869,0.39403c0.20651,0.02374 0.39499,0.09774 0.55467,0.20841l0.03369,0.01266l0.00729,0.01702c0.33286,0.25179 0.52775,0.66802 0.47664,1.11267z" fill="#01d312" stroke-linecap="butt"/><path d="M228.55358,151.49471l-15.88795,6.84766" fill="none" stroke-linecap="round"/></g><g stroke-linecap="butt"><g><path d="M261.36373,155.86578c-0.66899,5.8212 -4.24886,10.19114 -7.99583,9.76052c-3.74699,-0.43062 -6.24218,-5.49873 -5.57318,-11.31993c0.66899,-5.8212 4.24886,-10.19113 7.99583,-9.76051c3.74699,0.43062 6.24218,5.49872 5.57318,11.31991z" fill="#01d312" stroke="#029f0f" stroke-width="2.5"/><path d="M260.39452,155.75439c-0.46906,4.08154 -2.63929,7.18455 -4.84733,6.9308c-2.20804,-0.25375 -3.61776,-3.76819 -3.14871,-7.84973c0.46906,-4.08154 2.6393,-7.18455 4.84733,-6.9308c2.20804,0.25375 3.61776,3.76819 3.14869,7.84973z" fill="#0f0f0f" stroke="none" stroke-width="0"/></g><path d="M251.01878,156.29978c-0.7382,6.4234 -6.92352,10.98852 -13.81529,10.19648c-6.89177,-0.79204 -11.88022,-6.64129 -11.14201,-13.06469c0.7382,-6.4234 6.92352,-10.98851 13.81529,-10.19648c6.89177,0.79204 11.88021,6.64128 11.14201,13.06469z" fill="#01d312" stroke="#029f0f" stroke-width="2.5"/><path d="M250.70008,158.13437c0,0.99553 -1.24724,1.80257 -2.78577,1.80257c-1.53855,0 -2.78577,-0.80704 -2.78577,-1.80257c0,-0.99553 1.24724,-1.80256 2.78577,-1.80256c1.53855,0 2.78577,0.80702 2.78577,1.80256z" fill="#0f0f0f" stroke="#498f82" stroke-width="0"/><path d="M248.23293,158.11019c0.03845,-0.33455 0.34082,-0.57459 0.67538,-0.53615c0.33455,0.03845 0.57459,0.34082 0.53615,0.67538c-0.03845,0.33455 -0.34082,0.57459 -0.67538,0.53615c-0.33455,-0.03845 -0.57459,-0.34082 -0.53615,-0.67538z" fill="#e8e4e4" stroke="none" stroke-width="0.5"/><path d="M250.37233,151.79811c0,0.99553 -1.24724,1.80256 -2.78577,1.80256c-1.53855,0 -2.78577,-0.80702 -2.78577,-1.80256c0,-0.99553 1.24724,-1.80256 2.78577,-1.80256c1.53855,0 2.78577,0.80702 2.78577,1.80256z" fill="#0f0f0f" stroke="#498f82" stroke-width="0"/><path d="M247.55882,151.1586c0.03845,-0.33455 0.34082,-0.57459 0.67538,-0.53614c0.33455,0.03845 0.57459,0.34082 0.53615,0.67538c-0.03845,0.33455 -0.34082,0.57459 -0.67538,0.53615c-0.33455,-0.03845 -0.57459,-0.34083 -0.53615,-0.67538z" fill="#e8e4e4" stroke="none" stroke-width="0.5"/><path d="M228.09705,159.3134c0,0 -1.19722,-4.58416 -0.96748,-6.53704c0.21678,-1.84267 2.30934,-4.86884 2.30934,-4.86884l3.18694,-3.01921c0,0 -2.74065,6.00841 -3.08657,8.54523c-0.3235,2.37233 3.58978,9.23454 3.58978,9.23454z" fill="#abf9b2" stroke="none" stroke-width="0"/></g></g></g><g><g data-paper-data="{&quot;index&quot;:null}" stroke="#029f0f" stroke-width="1.5"><path d="M231.74402,199.1175c0.03449,0.3 -0.09701,0.58083 -0.32159,0.75072l-0.00491,0.01148l-0.02272,0.00853c-0.10774,0.07466 -0.2349,0.12459 -0.37422,0.14061l-2.3133,0.26585l-0.05154,-0.00677l-0.05056,0.0121l-0.39741,-0.00395l-0.01001,0.00608l-0.21461,-0.05729l-0.21495,-0.05602l-0.00571,-0.01023l-0.37267,-0.20641l-0.00264,-0.00246l-0.00349,-0.00097l-0.6202,-0.35049l-0.53607,-0.29029l-0.25465,-0.11557l-0.04394,-0.03488l-0.05333,-0.01741l-0.22229,-0.13946l-0.00566,0.00034l-0.01293,-0.012l-0.04618,-0.02896l-0.12235,-0.12732l-0.08357,-0.0775l-0.05027,-0.0399l-0.08054,-0.10491l-0.09698,-0.08993l-0.07165,-0.10981l-0.33824,-0.30733l-0.01032,-0.01548l-0.01598,-0.0095l-0.23467,-0.23291l-1.19056,-1.13528l-0.00451,-0.00715l-0.00727,-0.00433l-0.24051,-0.2387l-0.00683,-0.01129l-0.01112,-0.00709l-0.18189,-0.19217l-0.06491,-0.11523l-0.08328,-0.10274l-0.04494,-0.09643l-0.26039,-0.28824l-0.01578,-0.02959l-0.02627,-0.02086l-0.18793,-0.24475l-0.00359,-0.00825l-0.00694,-0.00575l-0.23154,-0.31519l-0.50949,-0.58094l-0.2203,-0.21864l-0.04531,-0.07488l-1.28623,-1.61896l1.2563,0.09366l0.05415,-0.04584l0.00889,-0.02077l0.02811,-0.01056l0.21138,-0.1789l0.04032,0.00422l0.00596,-0.00439l0.01544,0.00661l0.36003,0.03767l0.0007,0.00026l0.10347,-0.00389l0.16377,0.03444l0.05326,0.02588l0.0589,0.00616l0.1694,0.06168l0.30425,-0.1985l0.00364,-0.00849l0.02213,-0.00831l0.01919,-0.01253l0.17867,-0.06182l0.17697,-0.06649l0.02278,-0.00262l0.02233,-0.00774l0.00822,0.00422l1.15514,-0.13276l0.00705,-0.00597l0.0235,0.00246l0.02278,-0.00262l0.18744,0.02461l0.18803,0.01967l0.00766,0.0028l0.07792,0.00649l0.12936,-0.01486l0.08125,0.01066l0.08088,-0.01322l0.18772,0.01562l0.23452,-0.02696l0.10042,0.01319l0.10063,-0.01156l0.11591,0.01521l0.00377,-0.00043l0.00706,-0.00598l0.02349,0.00246l0.02278,-0.00262l0.18744,0.02461l0.18803,0.01967l0.00766,0.0028l0.15912,0.01323l0.04923,0.01674l0.05196,-0.00196l0.27741,0.05836l0.21786,0.01811l0.01899,0.00647l0.01994,-0.00229l0.43268,0.05682l0.0843,0.03324l0.09012,0.00943l0.11119,0.04049l0.05567,0.03761l0.04097,-0.00242l0.11959,0.1109l0.04137,0.02795l0.01881,-0.00217l0.20562,0.027l0.38466,0.04024l0.06799,-0.00781l0.13114,0.01721l0.13216,-0.00497l0.11876,0.02498l0.0743,0.00976l0.10567,0.01105l0.05888,-0.01158l0.3215,0.01633l0.06243,0.01901l0.06522,-0.00245l0.02833,0.00596l0.00709,0.00075l0.02278,-0.00262l0.18744,0.02461l0.18803,0.01967l0.02153,0.00785l0.02343,0.00308l0.00548,0.00745l0.06075,0.02212l0.05566,0.03761l0.04097,-0.00242l0.11959,0.1109l0.13514,0.0913l0.00695,0.04044l0.04927,0.04568l0.03532,0.05415l0.0085,0.00364l0.00831,0.02213l0.01253,0.01919l0.06181,0.17867l0.0665,0.17696l0.00262,0.02278l0.00772,0.02233l-0.00422,0.00822l0.02408,0.20954l-0.05521,0.42045l-0.0519,0.03813l0.03686,0.32069l0.01429,0.03067l0.02513,0.12985l0.04652,0.12382l0.00289,0.02509l0.085,0.18234l0.00187,0.00965l0.00602,0.00778l0.28501,0.65054l0.32476,0.69674l0.00337,0.00518l0.00849,0.00363l0.00831,0.02213l0.01253,0.01919l0.06181,0.17867l0.0665,0.17696l0.00262,0.02278l0.00772,0.02233l-0.00422,0.00822l0.04273,0.37179l0.04113,0.10944l0.01156,0.10062l0.03562,0.09482l0.02376,0.20679l0.0875,0.25288l-0.05423,0.10582l0.00943,0.01284l-0.05557,0.12971l0.01054,0.17863l-0.16179,0.17446l-0.11968,0.27939l-0.02898,0.0109c0.01809,0.05382 0.03085,0.11035 0.03759,0.16904z" data-paper-data="{&quot;index&quot;:null}" fill="#01d312" stroke-linecap="butt"/><path d="M231.39437,197.71946l-10.71941,-4.62004" data-paper-data="{&quot;index&quot;:null}" fill="none" stroke-linecap="round"/></g><g stroke="#029f0f" stroke-width="1.5"><path d="M230.7742,208.10922c-0.00675,0.05867 -0.0195,0.11519 -0.03759,0.16904l0.02898,0.0109l0.11968,0.27939l0.16179,0.17446l-0.01054,0.17863l0.05557,0.12971l-0.00943,0.01284l0.05423,0.10582l-0.0875,0.25288l-0.02376,0.20679l-0.03562,0.09482l-0.01156,0.10062l-0.04113,0.10944l-0.04273,0.37179l0.00422,0.00822l-0.00772,0.02233l-0.00262,0.02278l-0.0665,0.17696l-0.06181,0.17867l-0.01253,0.01919l-0.00831,0.02213l-0.00849,0.00363l-0.00337,0.00518l-0.32476,0.69674l-0.28501,0.65054l-0.00602,0.00778l-0.00187,0.00965l-0.085,0.18234l-0.00289,0.02509l-0.04652,0.12382l-0.02513,0.12985l-0.01429,0.03067l-0.03686,0.32069l0.0519,0.03813l0.05521,0.42045l-0.02408,0.20954l0.00422,0.00822l-0.00772,0.02233l-0.00262,0.02278l-0.0665,0.17696l-0.06181,0.17867l-0.01253,0.01919l-0.00831,0.02213l-0.0085,0.00364l-0.03532,0.05415l-0.04927,0.04568l-0.00695,0.04044l-0.13514,0.0913l-0.11959,0.1109l-0.04097,-0.00242l-0.05566,0.03761l-0.06075,0.02212l-0.00548,0.00745l-0.02343,0.00308l-0.02153,0.00785l-0.18803,0.01967l-0.18744,0.02461l-0.02278,-0.00262l-0.00709,0.00075l-0.02833,0.00596l-0.06522,-0.00245l-0.06243,0.01901l-0.3215,0.01633l-0.05888,-0.01158l-0.10567,0.01105l-0.0743,0.00976l-0.11876,0.02498l-0.13216,-0.00497l-0.13114,0.01721l-0.06799,-0.00781l-0.38466,0.04024l-0.20562,0.027l-0.01881,-0.00217l-0.04137,0.02795l-0.11959,0.1109l-0.04097,-0.00242l-0.05567,0.03761l-0.11119,0.04049l-0.09012,0.00943l-0.0843,0.03324l-0.43268,0.05682l-0.01994,-0.00229l-0.01899,0.00647l-0.21786,0.01811l-0.27741,0.05836l-0.05196,-0.00196l-0.04923,0.01674l-0.15912,0.01323l-0.00766,0.0028l-0.18803,0.01967l-0.18744,0.02461l-0.02278,-0.00262l-0.02349,0.00246l-0.00706,-0.00598l-0.00377,-0.00043l-0.11591,0.01521l-0.10063,-0.01156l-0.10042,0.01319l-0.23452,-0.02696l-0.18772,0.01562l-0.08088,-0.01322l-0.08125,0.01066l-0.12936,-0.01486l-0.07792,0.00649l-0.00766,0.0028l-0.18803,0.01967l-0.18744,0.02461l-0.02278,-0.00262l-0.0235,0.00246l-0.00705,-0.00597l-1.15514,-0.13276l-0.00822,0.00422l-0.02233,-0.00774l-0.02278,-0.00262l-0.17697,-0.06649l-0.17867,-0.06182l-0.01919,-0.01253l-0.02213,-0.00831l-0.00364,-0.00849l-0.30425,-0.1985l-0.1694,0.06168l-0.0589,0.00616l-0.05326,0.02588l-0.16377,0.03444l-0.10347,-0.00389l-0.0007,0.00026l-0.36003,0.03767l-0.01544,0.00661l-0.00596,-0.00439l-0.04032,0.00422l-0.21138,-0.1789l-0.02811,-0.01056l-0.00889,-0.02077l-0.05415,-0.04584l-1.2563,0.09366l1.28623,-1.61896l0.04531,-0.07488l0.2203,-0.21864l0.50949,-0.58094l0.23154,-0.31519l0.00694,-0.00575l0.00359,-0.00825l0.18793,-0.24475l0.02627,-0.02086l0.01578,-0.02959l0.26039,-0.28824l0.04494,-0.09643l0.08328,-0.10274l0.06491,-0.11523l0.18189,-0.19217l0.01112,-0.00709l0.00683,-0.01129l0.24051,-0.2387l0.00727,-0.00433l0.00451,-0.00715l1.19056,-1.13528l0.23467,-0.23291l0.01598,-0.0095l0.01032,-0.01548l0.33824,-0.30733l0.07165,-0.10981l0.09698,-0.08993l0.08054,-0.10491l0.05027,-0.0399l0.08357,-0.0775l0.12235,-0.12732l0.04618,-0.02896l0.01293,-0.012l0.00566,0.00034l0.22229,-0.13946l0.05333,-0.01741l0.04394,-0.03488l0.25465,-0.11557l0.53607,-0.29029l0.6202,-0.35049l0.00349,-0.00097l0.00264,-0.00246l0.37267,-0.20641l0.00571,-0.01023l0.21495,-0.05602l0.21461,-0.05729l0.01001,0.00608l0.39741,-0.00395l0.05056,0.0121l0.05154,-0.00677l2.3133,0.26585c0.13932,0.01601 0.26649,0.06595 0.37422,0.14061l0.02272,0.00853l0.00491,0.01148c0.22458,0.16987 0.35606,0.4507 0.32159,0.75072z" data-paper-data="{&quot;index&quot;:null}" fill="#01d312" stroke-linecap="butt"/><path d="M219.70516,214.12735l10.71941,-4.62004" data-paper-data="{&quot;index&quot;:null}" fill="none" stroke-linecap="round"/></g><g><g stroke="#029f0f" stroke-width="1.5"><path d="M231.73819,199.92785c-0.00986,0.08577 -0.0285,0.16839 -0.05496,0.24708l0.04236,0.01591l0.17493,0.40839l0.23651,0.25501l-0.01539,0.26111l0.08123,0.1896l-0.01379,0.01878l0.07927,0.15466l-0.1279,0.36965l-0.03473,0.30226l-0.05207,0.1386l-0.01691,0.14709l-0.0601,0.15998l-0.06245,0.54347l0.00616,0.01202l-0.0113,0.03265l-0.00382,0.03329l-0.09719,0.25868l-0.09035,0.26116l-0.01832,0.02806l-0.01215,0.03234l-0.01241,0.00531l-0.00492,0.00757l-0.47471,1.01845l-0.41661,0.95091l-0.00878,0.01138l-0.00273,0.01411l-0.12423,0.26654l-0.00422,0.03666l-0.06799,0.18098l-0.03673,0.1898l-0.02089,0.04482l-0.05387,0.46875l0.07587,0.05574l0.08071,0.61457l-0.03519,0.3063l0.00616,0.01202l-0.0113,0.03264l-0.00382,0.03329l-0.09719,0.25868l-0.09035,0.26116l-0.01832,0.02806l-0.01215,0.03234l-0.01241,0.00531l-0.05164,0.07915l-0.07201,0.06678l-0.01014,0.05913l-0.19755,0.13347l-0.17481,0.16212l-0.0599,-0.00353l-0.08136,0.05498l-0.08879,0.03234l-0.00799,0.0109l-0.03425,0.0045l-0.03148,0.01146l-0.27484,0.02876l-0.27399,0.03598l-0.03329,-0.00382l-0.01037,0.00108l-0.0414,0.00871l-0.09534,-0.0036l-0.09124,0.02781l-0.46994,0.02386l-0.08606,-0.01693l-0.15447,0.01617l-0.10862,0.01426l-0.17358,0.03652l-0.19319,-0.00727l-0.19169,0.02516l-0.09939,-0.01142l-0.56227,0.05883l-0.30054,0.03946l-0.02749,-0.00317l-0.06046,0.04085l-0.17481,0.1621l-0.0599,-0.00353l-0.08137,0.05498l-0.16253,0.05919l-0.13172,0.01379l-0.12321,0.04857l-0.63247,0.08305l-0.02913,-0.00335l-0.02775,0.00946l-0.31846,0.02649l-0.40548,0.08529l-0.07595,-0.00286l-0.07194,0.02447l-0.23258,0.01935l-0.0112,0.00409l-0.27484,0.02876l-0.27399,0.03598l-0.03329,-0.00382l-0.03435,0.00361l-0.01031,-0.00873l-0.00551,-0.00063l-0.16945,0.02224l-0.14709,-0.0169l-0.14679,0.01928l-0.34278,-0.0394l-0.2744,0.02281l-0.11822,-0.01932l-0.11876,0.0156l-0.1891,-0.02172l-0.11389,0.00947l-0.0112,0.00409l-0.27484,0.02876l-0.27399,0.03598l-0.03329,-0.00382l-0.03435,0.0036l-0.01031,-0.00871l-1.68848,-0.19405l-0.01202,0.00617l-0.03264,-0.0113l-0.03329,-0.00382l-0.25868,-0.09719l-0.26116,-0.09036l-0.02806,-0.01832l-0.03234,-0.01215l-0.00531,-0.0124l-0.44473,-0.29015l-0.24763,0.09018l-0.0861,0.00901l-0.07786,0.03784l-0.23938,0.05036l-0.15123,-0.00569l-0.00103,0.00038l-0.52625,0.05506l-0.02257,0.00967l-0.0087,-0.0064l-0.05894,0.00617l-0.30897,-0.26151l-0.04109,-0.01544l-0.013,-0.03035l-0.07916,-0.06701l-1.83635,0.13691l1.8801,-2.36647l0.06624,-0.10946l0.32202,-0.3196l0.74473,-0.84919l0.33844,-0.46072l0.01013,-0.0084l0.00524,-0.01205l0.27471,-0.35776l0.0384,-0.03047l0.02306,-0.04327l0.38061,-0.42132l0.06569,-0.14094l0.12174,-0.15019l0.09489,-0.16845l0.26586,-0.28091l0.01626,-0.01038l0.00998,-0.01651l0.35157,-0.34892l0.01063,-0.00632l0.00661,-0.01046l1.74027,-1.65946l0.34302,-0.34045l0.02335,-0.01389l0.01509,-0.02262l0.49441,-0.44922l0.10473,-0.16052l0.14175,-0.13146l0.11775,-0.15335l0.07348,-0.05833l0.12214,-0.11328l0.17884,-0.18611l0.0675,-0.04234l0.0189,-0.01753l0.00825,0.00049l0.32493,-0.20385l0.07797,-0.02543l0.06423,-0.05098l0.37223,-0.16891l0.78358,-0.42431l0.90656,-0.51231l0.0051,-0.00142l0.00387,-0.00361l0.54474,-0.30172l0.00835,-0.01494l0.31419,-0.08187l0.31371,-0.08373l0.01463,0.00888l0.58091,-0.00577l0.07392,0.0177l0.07536,-0.00989l3.3814,0.38861c0.20365,0.0234 0.38955,0.09639 0.54702,0.20552l0.03323,0.01248l0.00718,0.01678c0.32827,0.24831 0.52046,0.6588 0.47007,1.09733z" fill="#01d312" stroke-linecap="butt"/><path d="M231.2271,201.97148l-15.66881,6.75323" fill="none" stroke-linecap="round"/></g><g stroke-linecap="butt"><g><path d="M263.58478,206.28227c-0.65976,5.74091 -4.19026,10.05058 -7.88556,9.6259c-3.69531,-0.42468 -6.1561,-5.42289 -5.49632,-11.16381c0.65976,-5.74091 4.19026,-10.05057 7.88556,-9.62589c3.69531,0.42468 6.1561,5.42288 5.49632,11.1638z" fill="#01d312" stroke="#029f0f" stroke-width="2.5"/><path d="M262.62892,206.17242c-0.46259,4.02524 -2.60289,7.08547 -4.78048,6.83521c-2.17759,-0.25026 -3.56787,-3.71623 -3.10527,-7.74146c0.46259,-4.02524 2.60289,-7.08547 4.78048,-6.83521c2.17759,0.25026 3.56786,3.71623 3.10526,7.74146z" fill="#0f0f0f" stroke="none" stroke-width="0"/></g><path d="M253.3825,206.71029c-0.72802,6.33481 -6.82803,10.83696 -13.62475,10.05586c-6.79672,-0.78111 -11.71637,-6.54969 -10.98834,-12.8845c0.72802,-6.33481 6.82804,-10.83696 13.62475,-10.05586c6.79672,0.78111 11.71637,6.54968 10.98834,12.88449z" fill="#01d312" stroke="#029f0f" stroke-width="2.5"/><path d="M253.06818,208.51958c0,0.9818 -1.23003,1.77771 -2.74735,1.77771c-1.51732,0 -2.74735,-0.7959 -2.74735,-1.77771c0,-0.9818 1.23002,-1.77769 2.74735,-1.77769c1.51732,0 2.74735,0.79589 2.74735,1.77769z" fill="#0f0f0f" stroke="#498f82" stroke-width="0"/><path d="M250.63507,208.49574c0.03793,-0.32993 0.33612,-0.56666 0.66607,-0.52876c0.32993,0.03793 0.56666,0.33612 0.52876,0.66607c-0.03793,0.32993 -0.33612,0.56666 -0.66607,0.52876c-0.32993,-0.03793 -0.56666,-0.33612 -0.52876,-0.66607z" fill="#e8e4e4" stroke="none" stroke-width="0.5"/><path d="M252.74496,202.2707c0,0.9818 -1.23003,1.77771 -2.74735,1.77771c-1.51732,0 -2.74735,-0.7959 -2.74735,-1.77771c0,-0.9818 1.23002,-1.77769 2.74735,-1.77769c1.51732,0 2.74735,0.7959 2.74735,1.77769z" fill="#0f0f0f" stroke="#498f82" stroke-width="0"/><path d="M249.97024,201.64002c0.03793,-0.32993 0.33612,-0.56666 0.66607,-0.52875c0.32993,0.03793 0.56666,0.33612 0.52876,0.66607c-0.03793,0.32993 -0.33612,0.56666 -0.66607,0.52876c-0.32993,-0.03793 -0.56666,-0.33613 -0.52876,-0.66607z" fill="#e8e4e4" stroke="none" stroke-width="0.5"/><path d="M230.7769,209.68236c0,0 -1.18072,-4.52093 -0.95414,-6.44689c0.21379,-1.81726 2.27749,-4.8017 2.27749,-4.8017l3.14299,-2.97757c0,0 -2.70286,5.92554 -3.044,8.42738c-0.31904,2.33961 3.54028,9.10718 3.54028,9.10718z" fill="#abf9b2" stroke="none" stroke-width="0"/></g></g></g></g></g></g></svg>