<svg version="1.1" xmlns="http://www.w3.org/2000/svg" xmlns:xlink="http://www.w3.org/1999/xlink" width="86.77001" height="118.79904" viewBox="0,0,86.77001,118.79904"><defs><linearGradient x1="243.63179" y1="126.45747" x2="242.57332" y2="224.35178" gradientUnits="userSpaceOnUse" id="color-1"><stop offset="0" stop-color="#b1cf16"/><stop offset="1" stop-color="#e9f366"/></linearGradient><radialGradient cx="234.86974" cy="154.99203" r="3.86729" gradientUnits="userSpaceOnUse" id="color-2"><stop offset="0" stop-color="#020702"/><stop offset="1" stop-color="#050a02"/></radialGradient><radialGradient cx="266.34855" cy="158.45342" r="3.03317" gradientUnits="userSpaceOnUse" id="color-3"><stop offset="0" stop-color="#020702"/><stop offset="1" stop-color="#050a02"/></radialGradient></defs><g transform="translate(-198.9651,-106.88292)"><g data-paper-data="{&quot;isPaintingLayer&quot;:true}" fill-rule="nonzero" stroke-linejoin="miter" stroke-miterlimit="10" stroke-dasharray="" stroke-dashoffset="0" style="mix-blend-mode: normal"><g><g stroke-linecap="butt"><g stroke="#004700" stroke-width="1"><path d="M238.12039,142.56292c0,0 2.84715,-12.11141 4.47503,-17.23154c1.45759,-4.58451 6.76796,-14.40035 6.76796,-14.40035c0,0 8.09218,5.3262 9.40373,5.71697c0.27548,0.08209 2.64941,1.70996 2.64941,1.70996c0,0 -4.70428,6.47481 -6.1152,10.91255c-1.65446,5.20371 -5.34716,16.81825 -5.34716,16.81825z" fill="#399435"/><path d="M262.6558,118.14013c-0.579,1.82107 -2.65929,0.81216 -5.85786,-0.29442c-0.53868,-0.18636 -0.44557,-2.46234 -1.04584,-2.6412c-0.77862,-0.23198 -2.15723,1.48365 -2.80098,1.01949c-2.79952,-2.0186 -4.24911,-5.79529 -3.69908,-7.52525c0.67649,-2.12777 4.428,-1.31669 8.59261,-0.07586c4.16462,1.24084 5.48764,7.38949 4.81115,9.51725z" fill="#91e665"/></g><path d="M201.54277,206.1809c-2.63965,-8.14786 -1.4813,-15.96255 -0.03543,-24.45562c1.57511,-9.25206 3.20832,-17.30431 8.0903,-25.58294c2.67927,-3.80179 5.44608,-7.74244 7.81999,-11.72611c3.73204,-6.26276 6.3057,-13.67089 13.7838,-16.63804c4.33399,-1.71963 10.19856,-2.18173 13.92065,0.68492c1.06382,0.81932 2.52575,1.28686 3.49667,2.1684c2.33588,-1.47076 2.77876,-2.02971 6.14422,0.04953c0.81357,0.50264 1.51933,1.23238 1.97218,2.0617c0.61662,-0.54663 1.45242,-0.87934 2.19657,-1.26422c2.64575,-1.3684 3.37698,-1.59678 6.32867,-1.29975c7.0055,0.70496 8.44445,7.39997 9.82965,13.00305c0.84784,3.731 2.30497,7.44291 2.87313,11.21241c0.13608,0.90283 0.12431,3.77081 0.52304,4.87735c1.22049,3.38709 3.03364,6.393 3.83708,9.97957c1.58717,7.08514 1.79624,14.70774 2.41183,21.92137c0.45989,5.38909 1.56351,10.97351 0.61748,16.31973c-0.08266,0.55541 -0.97694,6.64448 -1.0754,6.95369c-0.5038,1.58225 -1.99275,2.74929 -2.53214,4.32051c-0.31642,0.92173 0.11732,2.08901 -0.46715,2.87864c-2.48937,3.36303 -8.88914,3.53876 -12.62687,2.41611c-2.43391,-0.73104 -3.52299,-1.79677 -5.1394,-3.5756c-0.60641,-0.66735 -1.23889,-1.33524 -1.67204,-2.11862c-0.1535,-0.27763 0.30401,-0.95348 -0.0213,-0.94398c-0.40461,0.01182 -0.33058,0.78813 -0.69169,0.96481c-1.83486,0.89782 -3.86334,1.40881 -5.87565,1.81963c-5.4989,1.1226 -9.80487,-0.18532 -14.02126,-3.51375c-0.47525,-0.84743 -0.99024,-1.67513 -1.42572,-2.54229c-0.14296,-0.28466 0.02263,-0.9154 -0.30425,-0.90256c-0.44019,0.01729 -0.48713,0.76515 -0.8843,0.94926c-3.09013,1.43246 -6.82548,2.2122 -10.23917,2.46313c-9.13376,0.67139 -23.28712,1.62682 -28.08985,-7.45119c0,0 -0.99602,-1.97848 1.0492,-2.94022c0.07029,-0.03306 0.13935,-0.06264 0.20717,-0.08895z" fill="url(#color-1)" stroke="#334a0d" stroke-width="2"/><path d="M262.30697,155.06735c2.0183,0.02183 3.39037,-4.13399 4.85552,-3.03167c2.02691,1.52496 3.31539,3.88241 3.28692,6.51497c-0.04904,4.5355 -3.98845,8.1701 -8.79893,8.11808c-4.81048,-0.05202 -8.25538,-1.87107 -8.20634,-6.40658c0.04904,-4.5355 2.65233,-5.44681 7.46281,-5.3948z" data-paper-data="{&quot;index&quot;:null}" fill="#f6f9df" stroke="#354c0d" stroke-width="1.5"/><path d="M246.37432,157.39284c-0.04904,4.5355 -3.53246,6.27966 -8.34294,6.22765c-4.81048,-0.05202 -8.67038,-3.77093 -8.62134,-8.30642c0.02847,-2.63256 1.36761,-4.96161 3.42702,-6.44239c1.48863,-1.07037 3.77453,4.54446 5.79283,4.56628c4.81048,0.05202 7.79346,-0.58061 7.74442,3.95489z" fill="#f6f9df" stroke="#354c0d" stroke-width="1.5"/><path d="M269.32647,156.24147c-0.9099,-0.00984 -0.90038,-0.88972 -0.90038,-0.88972l0.02724,-0.00627c-0.43758,-2.23598 -2.06436,-1.12127 -3.88242,-1.1354c-1.87754,-0.08338 -3.89236,1.88306 -6.05436,2.12791c-5.65365,0.64029 -10.51215,-0.41509 -15.53271,-2.9099c-1.57354,-0.93587 -3.65357,-0.3069 -5.78927,-1.05415c-3.67289,-1.2851 -7.54767,-3.19562 -9.56298,0.73031c0,0 -0.41542,0.7826 -1.22501,0.38029c-0.80959,-0.4023 -0.39416,-1.18489 -0.39416,-1.18489c3.91856,-7.20176 12.48922,-3.60126 17.8638,-0.4047c4.70006,2.33554 9.14988,3.25535 14.43687,2.69406c2.41197,-0.25607 3.97953,-2.11521 6.27684,-2.13868c2.74102,0.03948 4.72123,-0.7965 5.63347,2.48744l0.02248,0.43367c0,0 -0.00952,0.87989 -0.91941,0.87005z" fill="#334a0d" stroke="none" stroke-width="0.5"/><path d="M237.06866,155.01581c-0.02233,2.06528 -1.02493,3.72885 -2.23936,3.71572c-1.21443,-0.01313 -2.18081,-1.69801 -2.15848,-3.76328c0.02233,-2.06528 1.02492,-3.72886 2.23935,-3.71573c1.21443,0.01313 2.18082,1.69801 2.15849,3.76328z" fill="url(#color-2)" stroke="none" stroke-width="0"/><path d="M268.62331,158.47801c-0.01752,1.61982 -1.05016,2.92193 -2.30646,2.90835c-1.2563,-0.01359 -2.26055,-1.33772 -2.24304,-2.95754c0.01752,-1.61982 1.05016,-2.92194 2.30646,-2.90835c1.2563,0.01359 2.26055,1.33772 2.24304,2.95754z" fill="url(#color-3)" stroke="none" stroke-width="0"/><path d="M222.53639,193.37092c-0.65013,0.61522 -1.28679,-0.01392 -1.28679,-0.01392l-0.60727,-0.69579c-2.73981,0.29669 -6.14471,1.2142 -6.88101,-2.4452c-0.02978,-0.14801 0.00364,-2.58791 0.00639,-2.84208c0,0 0.00951,-0.87988 0.91941,-0.87004c0.9099,0.00984 0.90038,0.88972 0.90038,0.88972c-0.00878,0.81253 -0.20061,1.63759 -0.05069,2.43723c0.47646,2.54139 3.85581,1.08622 5.81951,1.21207l1.19351,1.08364c0,0 0.63667,0.62913 -0.01345,1.24434z" fill="#334a0d" stroke="none" stroke-width="0.5"/><path d="M276.77588,204.86787c0.80959,0.4023 0.39416,1.18489 0.39416,1.18489l-0.80379,1.22631c-1.54293,0.12924 -3.03687,0.51802 -4.55594,0.52188c-0.00769,0.0001 -0.01541,0.00012 -0.02314,0.00003c-0.115,-0.00125 -0.2248,-0.02307 -0.32569,-0.0618c-0.26009,-0.08858 -0.58037,-0.30403 -0.5747,-0.82792c0.00567,-0.52389 0.33053,-0.73236 0.59247,-0.8153c0.1017,-0.03655 0.21195,-0.056 0.32695,-0.05475c0.00743,0.00008 0.01484,0.00025 0.02224,0.00049c1.2825,0.02454 2.30108,-0.68001 3.59728,-0.26993l0.12515,-0.52361c0,0 0.41542,-0.7826 1.22501,-0.38029z" fill="#334a0d" stroke="none" stroke-width="0.5"/></g><path d="M274.5,197c0,2.54624 -11.00284,-3.19814 -17.26285,-4.90346c-5.87722,-1.60105 -11.62854,-3.69654 -11.83715,-3.69654c-3.31301,0 -6.41783,0.48201 -8.99998,1.05263c-4.26198,0.94184 -16.30003,-0.61979 -16.30003,-3.85263c0,-5.19147 15.91867,-12 24.7,-12c8.78133,0 29.7,18.20853 29.7,23.4z" fill="#ffffff" stroke="#334a0d" stroke-width="1.5" stroke-linecap="butt"/><path d="M231.3,177.6l2.6,10.4" fill="none" stroke="#334a0d" stroke-width="1.5" stroke-linecap="round"/><path d="M251.5,176.6l-1.2,15.6" fill="none" stroke="#334a0d" stroke-width="1.5" stroke-linecap="round"/><path d="M264.9,185l-1.2,9.8" fill="none" stroke="#334a0d" stroke-width="1.5" stroke-linecap="round"/><path d="M221.9,186.6l28,-5.4l24.2,15.2" fill="none" stroke="#334a0d" stroke-width="1.5" stroke-linecap="round"/></g></g></g></svg>