<svg version="1.1" xmlns="http://www.w3.org/2000/svg" xmlns:xlink="http://www.w3.org/1999/xlink" width="113.11456" height="99.27055" viewBox="0,0,113.11456,99.27055"><g transform="translate(-193.39758,-124.10699)"><g data-paper-data="{&quot;isPaintingLayer&quot;:true}" fill-rule="nonzero" stroke-linecap="butt" stroke-linejoin="miter" stroke-miterlimit="10" stroke-dasharray="" stroke-dashoffset="0" style="mix-blend-mode: normal"><g data-paper-data="{&quot;index&quot;:null}"><path d="M296.51661,214.4992c-6.27958,2.25318 -14.27757,0.94218 -17.86399,-2.92819c-3.58643,-3.87037 -1.40319,-8.8345 4.8764,-11.08768c6.27958,-2.25318 14.27757,-0.94218 17.86399,2.9282c3.58643,3.87037 1.40319,8.8345 -4.8764,11.08767z" fill="#32c302" stroke="#000000" stroke-width="2.5"/><path d="M263.74316,212.91189c-7.18894,2.57946 -16.29311,1.13475 -20.33474,-3.22687c-4.04163,-4.36162 -1.49022,-9.98848 5.69871,-12.56794c7.18894,-2.57946 16.2931,-1.13475 20.33473,3.22687c4.04163,4.36162 1.49023,9.98847 -5.69871,12.56794z" fill="#32c302" stroke="#000000" stroke-width="3"/><path d="M277.42716,213.94437c-6.10017,2.18881 -13.9527,0.82562 -17.53913,-3.04476c-3.58643,-3.87037 -1.54863,-8.78231 4.55154,-10.97112c6.10017,-2.18881 13.9527,-0.82561 17.53913,3.04476c3.58643,3.87037 1.54863,8.78231 -4.55154,10.97111z" fill="#32c302" stroke="#000000" stroke-width="3"/><path d="M263.52659,212.9896c-7.18894,2.57946 -16.29311,1.13475 -20.33473,-3.22687c-4.04163,-4.36162 -1.49022,-9.98847 5.69871,-12.56794c7.18894,-2.57946 16.29311,-1.13476 20.33473,3.22686c4.04163,4.36162 1.49023,9.98848 -5.69871,12.56795z" fill="#8c3801" stroke="none" stroke-width="0"/><path d="M277.21058,214.02208c-6.10017,2.18881 -13.9527,0.82562 -17.53913,-3.04476c-3.58643,-3.87037 -1.54863,-8.78231 4.55154,-10.97112c6.10017,-2.18881 13.9527,-0.82562 17.53913,3.04475c3.58643,3.87037 1.54863,8.78232 -4.55154,10.97112z" fill="#8c3801" stroke="none" stroke-width="0"/><path d="M296.51661,214.4992c-6.27958,2.25318 -14.27757,0.94218 -17.86399,-2.92819c-3.58643,-3.87037 -1.40319,-8.8345 4.8764,-11.08768c6.27958,-2.25318 14.27757,-0.94218 17.86399,2.9282c3.58643,3.87037 1.40319,8.8345 -4.8764,11.08767z" fill="#32c302" stroke="none" stroke-width="0"/></g><g data-paper-data="{&quot;index&quot;:null}"><path d="M301.23153,192.34692c-4.84942,0.84886 -12.16068,-2.58891 -16.33016,-7.67847c-4.16949,-5.08956 -3.61829,-9.90361 1.23111,-10.75248c4.84942,-0.84886 12.16068,2.58891 16.33016,7.67847c4.16949,5.08956 3.6183,9.9036 -1.23111,10.75247z" fill="#32c302" stroke="#000000" stroke-width="2.5"/><path d="M273.06215,177.03333c-5.46492,0.9566 -13.76461,-2.99131 -18.53788,-8.81789c-4.77328,-5.82658 -4.21259,-11.32545 1.25233,-12.28205c5.46492,-0.9566 13.76461,2.9913 18.53789,8.81789c4.77328,5.82658 4.21259,11.32545 -1.25233,12.28205z" fill="#32c302" stroke="#000000" stroke-width="3"/><path d="M284.79739,182.00379c-4.84942,0.84886 -12.0641,-2.47102 -16.11446,-7.41517c-4.05036,-4.94415 -3.40259,-9.64032 1.44682,-10.48918c4.84942,-0.84886 12.0641,2.47102 16.11446,7.41517c4.05036,4.94415 3.4026,9.64032 -1.44681,10.48918z" fill="#32c302" stroke="#000000" stroke-width="3"/><path d="M272.91835,176.85779c-5.46492,0.9566 -13.76461,-2.9913 -18.53788,-8.81788c-4.77328,-5.82658 -4.21259,-11.32545 1.25233,-12.28205c5.46492,-0.9566 13.76461,2.9913 18.53789,8.81788c4.77328,5.82658 4.21259,11.32545 -1.25233,12.28205z" fill="#8c3801" stroke="none" stroke-width="0"/><path d="M284.65359,181.82826c-4.84942,0.84886 -12.0641,-2.47102 -16.11446,-7.41517c-4.05036,-4.94415 -3.4026,-9.64031 1.44681,-10.48917c4.84942,-0.84886 12.0641,2.47102 16.11446,7.41517c4.05036,4.94415 3.4026,9.64032 -1.44681,10.48918z" fill="#8c3801" stroke="none" stroke-width="0"/><path d="M301.23153,192.34692c-4.84942,0.84886 -12.16068,-2.58891 -16.33016,-7.67847c-4.16949,-5.08956 -3.61829,-9.90361 1.23111,-10.75248c4.84942,-0.84886 12.16068,2.58891 16.33016,7.67847c4.16949,5.08956 3.6183,9.9036 -1.23111,10.75247z" fill="#32c302" stroke="none" stroke-width="0"/></g><g><g fill="none" stroke="none" stroke-width="1" font-family="sans-serif" font-weight="normal" font-size="12" text-anchor="start"/><g fill="none" stroke="none" stroke-width="1" font-family="sans-serif" font-weight="normal" font-size="12" text-anchor="start"/><path d="M268.51482,164.79402c9.26728,15.37183 4.63009,35.15797 -10.35744,44.19357c-14.98755,9.0356 -34.64995,3.89906 -43.91723,-11.47277c-9.26728,-15.37183 -4.6301,-35.15796 10.35744,-44.19356c14.98754,-9.0356 34.64995,-3.89907 43.91723,11.47276z" fill="#32c302" stroke="#1a6521" stroke-width="2.5"/></g><path d="M232.32566,186.55713c0,-3.57806 2.90059,-6.47865 6.47865,-6.47865c3.57806,0 6.47865,2.90059 6.47865,6.47865c0,3.57806 -2.90059,6.47865 -6.47865,6.47865c-3.57806,0 -6.47865,-2.90059 -6.47865,-6.47865z" fill="#f2eda6" stroke="#000000" stroke-width="1.5"/><path d="M238.17994,168.8687c0,-3.57806 2.90059,-6.47865 6.47865,-6.47865c3.57806,0 6.47865,2.90059 6.47865,6.47865c0,3.57806 -2.90059,6.47865 -6.47865,6.47865c-3.57806,0 -6.47865,-2.90059 -6.47865,-6.47865z" fill="#f2eda6" stroke="#000000" stroke-width="1.5"/><path d="M246.73762,170.01696c0,-0.69036 0.55964,-1.25 1.25,-1.25c0.69036,0 1.25,0.55964 1.25,1.25c0,0.69036 -0.55964,1.25 -1.25,1.25c-0.69036,0 -1.25,-0.55964 -1.25,-1.25z" fill="#383727" stroke="none" stroke-width="0.5"/><path d="M241.40686,187.94769c0,-0.69036 0.55964,-1.25 1.25,-1.25c0.69036,0 1.25,0.55964 1.25,1.25c0,0.69036 -0.55964,1.25 -1.25,1.25c-0.69036,0 -1.25,-0.55964 -1.25,-1.25z" fill="#383727" stroke="none" stroke-width="0.5"/><g><g fill="none" stroke="none" stroke-width="1" font-family="sans-serif" font-weight="normal" font-size="12" text-anchor="start"/><g fill="none" stroke="none" stroke-width="1" font-family="sans-serif" font-weight="normal" font-size="12" text-anchor="start"/><path d="M226.81154,205.34221l-0.05134,-0.04401l-1.29004,-1.50504l-0.49813,-0.02768l-0.3111,-0.26665l-0.4405,-0.881l-0.41124,-0.47978l-0.21253,-0.59509l-0.96923,-1.45385l-0.10251,-0.09319l-0.13979,-0.39142l-0.48461,-0.72692l-0.31053,-0.2823l-0.20882,-0.34803l-0.20757,-0.58121l-0.48461,-0.72692l-0.20392,-0.18537l-0.07629,-0.12716l-0.19702,-0.19702l-0.1542,-0.24231l-0.11014,-0.02203l-0.02324,-0.02324l-0.07573,-0.04543l-0.40889,-0.68149l-0.50786,-0.50786l-0.02203,-0.11014l-0.24231,-0.1542l-0.19703,-0.19702l-1.54106,-0.92464l-0.05384,-0.04895l-0.02488,0.00172l-0.35051,-0.21031l-0.55122,-0.35077l-0.26508,-0.9278l-0.11132,-0.19296l-0.01709,-0.22211l-0.48461,-1.45384l-0.38642,-0.60724l-0.15614,-0.70262l-0.72692,-1.45384l-0.25518,-0.29771l-0.11417,-0.37511l-0.52561,-0.87601l-0.01633,-0.04899l-0.041,-0.06442l-0.25926,-0.51851l-0.10904,-0.12721l-0.13327,-0.59971l-0.14974,-0.29948l-0.24838,-0.8693v-0.90137l0.24231,-0.96923v-0.46509l0.18604,-0.74416v-0.87608l0.02772,-0.08315l0.04252,-0.55277l0.22834,-0.91335v-0.02933l0.16509,-0.42648l0.21701,-1.73603l0.45108,-2.70647l-0.06665,-0.83314l0.20272,-0.81085v-0.98547l0.25659,-1.79613l0.19948,-0.59841l0.04565,-0.59349l0.01179,-0.02357l0.05,-0.08334l0.56153,-0.65512l0.24231,-0.48461l0.06158,-0.27711l0.39084,-0.61417l0.27451,-0.32026l0.2423,-0.48462l0.00248,-0.01116l0.05546,-0.08716l0.08811,-0.26434l0.14777,-0.24629l-0.02955,-0.10836l0.03597,-0.10793l0.00909,-0.11812l0.23322,-0.36649l0.24231,-0.72692l0.03007,-0.39095l0.18452,-0.34597l0.48462,-1.93846v-0.45726l2.03992,-1.01997l0.66069,-0.5663l0.76185,-0.30474l0.0959,-0.06926l0.00943,-0.00397l0.10223,-0.07667l0.78412,-0.56632l0.15284,-0.05095l0.17158,-0.10918l0.90742,-0.38207l0.23085,-0.0513l0.96923,-0.48462l0.47977,-0.41124l0.1368,-0.04885l0.11035,-0.02453l0.10422,-0.05211l0.24372,-0.08704l0.20891,-0.13927l0.41238,-0.20619l0.69013,-0.59154l0.83773,-0.35273l0.55653,-0.4174l0.43366,-0.2602l0.41157,-0.13719l1.33502,-0.33375l0.00723,-0.00145h3.99756l0.63747,0.10625l0.83315,-0.06665l0.81085,0.20271h1.93846l0.12479,0.03119l0.24922,0.12462l0.08853,0.01967l0.0198,0.01056l0.96922,0.24231h0.14888l0.99033,0.22007l0.77884,0.36893l0.34233,0.06846l0.1527,0.09718l0.72692,0.2423l0.30713,0.02363l0.32147,0.16073l0.08852,0.01967l0.0198,0.01056l0.96923,0.24231h0.06058l0.90866,0.48461l1.28004,0.32001l0.5814,0.23256l1.07497,0.14658l0.99495,0.43259l1.29478,0.2158l0.82008,0.16402l0.36579,0.09145l0.0838,0.02793l0.93869,0.37547l0.29794,0.04063l0.25368,0.16144l0.65423,0.21807l0.79962,0.50884l0.44814,0.14938l0.93869,0.37547l0.07261,0.0099l0.12994,0.19491c-2.09061,3.24076 -3.19037,8.17366 -3.99291,11.78509l-0.36662,1.46649c-6.0155,12.78295 -6.79447,22.99636 -15.63938,33.71149z" fill-opacity="0.84677" fill="#ffa403" stroke="#b58802" stroke-width="2"/></g><g><path d="M251.20045,151.32904c0.6193,-0.71103 1.18565,-1.49278 2.00035,-1.94289c3.04806,-1.68403 3.91887,-0.87757 6.89518,-0.25742c7.58035,1.57942 10.00193,7.54739 13.69839,13.67879c2.47109,4.09885 7.16956,9.42749 7.48742,14.36631c0.29244,4.54381 -2.45188,9.68791 -4.74399,13.45145c-2.6005,4.26991 -6.42079,9.71144 -10.52871,12.60947c-2.35465,1.66114 -3.78431,1.7371 -6.48336,2.35015c-5.69028,1.29247 -10.93716,2.23841 -16.77776,1.57671c-1.31287,-1.1353 -3.55683,-1.71274 -3.93862,-3.4059c-0.15105,-0.66983 3.13699,-5.48106 3.88802,-6.50207c3.75716,-5.10773 10.31229,-9.88154 12.5785,-15.88674c0.9714,-2.57409 0.33029,-7.4318 0.1073,-9.85712c-0.23481,-2.55389 -0.34665,-6.58296 -1.45808,-9.03074c-0.71473,-1.57414 -1.71692,-3.12015 -2.71811,-4.63843c-0.52357,0.04296 -1.12874,-0.10546 -1.76511,-0.64859c-1.62615,-1.3879 -0.67479,-2.97955 -0.3651,-3.41149c-0.02338,-0.67463 0.22128,-1.47585 1.23445,-2.08667c0.31532,-0.1901 0.6122,-0.30576 0.88923,-0.36479z" fill="#c2c2c2" stroke="#666666" stroke-width="1.5"/><path d="M252.06693,193.11152c-0.67424,-0.73852 0.06428,-1.41275 0.06428,-1.41275l0.98851,-0.89587c1.15474,-0.69617 1.83582,-1.35989 2.71616,-2.38516c2.19119,-4.1596 2.31232,-8.35827 2.45839,-12.93386c0.05764,-1.8055 0.82506,-3.55919 1.12542,-5.34119c0.31297,-1.85682 0.07367,-3.66978 0.31467,-5.52985c0,0 0.13183,-0.99127 1.1231,-0.85944c0.99127,0.13183 0.85944,1.12309 0.85944,1.12309c-0.2573,1.87945 -0.01172,3.72 -0.32671,5.60835c-0.27709,1.66113 -1.07154,3.38142 -1.09665,5.05237c-0.0747,4.97176 -0.41195,9.52282 -2.80384,14.00517c-1.0099,1.18896 -1.84226,2.0606 -3.17363,2.86325l-0.83642,0.77019c0,0 -0.73851,0.67423 -1.41275,-0.06428z" fill="#7f7f7f" stroke="none" stroke-width="0.5"/><path d="M267.97569,161.75253c0.8564,-0.5163 1.37271,0.3401 1.37271,0.3401l0.12511,0.20751c2.45817,4.07743 3.51668,10.99083 3.62253,15.74236c-0.77722,5.02774 -2.61275,11.5427 -5.89296,15.59028c-2.20515,2.72102 -6.18163,4.35582 -9.13035,6.13353c0,0 -0.85641,0.5163 -1.37271,-0.3401c-0.5163,-0.8564 0.3401,-1.37271 0.3401,-1.37271c2.72735,-1.64425 6.59773,-3.17979 8.63038,-5.70571c3.01148,-3.74229 4.69903,-9.80384 5.42986,-14.43663c-0.05851,-2.37043 -0.78834,-4.15377 -1.16854,-6.43144c-0.51225,-3.06884 -0.55658,-5.46887 -2.17113,-8.14697l-0.12511,-0.20752c0,0 -0.5163,-0.8564 0.3401,-1.37271z" fill="#7f7f7f" stroke="none" stroke-width="0.5"/><path d="M269.03137,194.90763c-0.76063,-0.64918 -0.11143,-1.40982 -0.11143,-1.40982l0.58383,-0.67215c2.17613,-1.98671 2.7796,-4.03075 4.30337,-6.45489c2.04037,-3.19249 3.89632,-8.51704 2.77051,-12.22475c-0.7214,-2.37582 -2.54296,-4.63026 -3.82172,-6.75137c0,0 -0.5163,-0.85641 0.3401,-1.37271c0.8564,-0.5163 1.37271,0.3401 1.37271,0.3401c1.37439,2.27973 3.23136,4.64354 4.02014,7.19469c1.30949,4.23536 -0.68404,10.21233 -2.99214,13.88422c-1.6268,2.54539 -2.32385,4.7431 -4.6445,6.86174l-0.41104,0.49349c0,0 -0.64918,0.76063 -1.40981,0.11144z" fill="#7f7f7f" stroke="none" stroke-width="0.5"/></g><g><path d="M205.51859,190.20367c4.05622,3.95263 7.73665,8.00809 11.26336,12.44544c1.20545,1.51671 4.00765,4.43986 4.31778,6.38153c0.01997,0.125 -0.01278,0.23547 -0.07762,0.3371l0.1786,0.04751c0.27955,0.07279 0.54435,0.20497 0.77374,0.39249c0.27341,-0.2986 0.58755,-0.51982 0.98486,-0.58031c2.55357,-0.38879 6.47112,3.89454 6.7925,6.26255c0.3517,2.59142 -2.01928,5.83442 -4.78545,7.26187l-0.03156,-0.03682l-0.01038,-0.1868l-0.56439,-0.48376l-0.48377,-0.5644l-0.1868,-0.01037l-0.02358,-0.02021l-1.17274,-1.17274l-0.32028,-0.19216l-0.25124,-0.27638l-0.41796,-0.27864l-0.28967,-0.28966l-0.15264,-0.68687l0.00308,-0.0113l-0.00888,-0.01481l-0.04073,-0.18326l-0.24231,-0.48461l-0.3923,-0.45769l-0.31015,-0.51691l-1.5077,-1.5077l-0.56702,-0.75602l-0.41379,-0.33621l-0.33621,-0.41379l-0.92236,-0.69177l-1.00361,-0.80289l-1.06467,-1.06467l-0.14866,-0.0892l-0.10229,-0.13998l-1.32317,-1.10263l-2.32564,-2.32564l-0.9441,-1.32174l-0.53185,-0.88641l-0.77939,-1.75364l-0.65853,-2.1951l-0.02982,-0.05014l-0.00447,-0.05816l-0.68138,-2.04414l-0.20738,-0.82951l-0.0692,-0.12974l-0.01128,-0.14661l-0.40724,-1.22172l0.01108,-0.04064l-0.05541,-0.09236l-0.03305,-0.09912l-0.46259,-0.72694l-0.44332,-0.73886l-0.07388,-0.07389l-0.05783,-0.09087l-0.0413,-0.00826l-0.3116,-0.3116l-0.51691,-0.31015l-0.45769,-0.39231l-0.06453,-0.03226l-0.04328,-0.12986v-2.05447l0.02336,-0.03504l-0.02336,-0.10514v-0.10449l-0.20898,-0.83592l-0.03016,-0.13569l0.02019,-0.03029l-0.02337,-0.10514v-0.10449l-0.20898,-0.83592l-0.18691,-0.84113l-0.04673,-0.09346l-0.02613,-0.10449l-0.03657,-0.02089l-0.37519,-0.75038l-0.15422,-0.17992l-0.0797,-0.22316l-0.30304,-0.45457c1.50513,0.64458 2.61652,2.19415 3.69837,3.24838zM220.68135,217.73614l1.00358,0.82379c1.14114,1.45594 1.27017,0.39819 2.67236,-0.68309c0.22383,-0.17261 1.73149,-0.77481 1.40745,-1.5815c-0.38426,-0.95661 -1.36203,-1.57969 -1.80826,-2.50902c-0.08685,-0.18087 -0.02168,-0.79064 -0.07503,-0.59723c-0.524,1.89962 -1.79274,3.20146 -3.20011,4.54704z" fill="#adadad" stroke="#000000" stroke-width="1"/><path d="M214.92786,142.5499c4.91107,-4.04132 9.38426,-8.28226 14.99943,-11.39374c1.01528,-0.56259 4.11581,-2.38658 5.33374,-2.6174c2.41828,-0.4583 5.33993,0.16215 7.85658,0.3155c-0.09812,-0.54207 -0.15406,-1.82398 1.35005,-2.32228c0.04013,-0.01329 0.07971,-0.02549 0.11874,-0.0366c0.45165,-0.75585 1.37384,-0.95608 1.37384,-0.95608l2.01115,-0.43666c1.00167,-0.13456 2.04463,-0.71858 3.00499,-0.40369c3.65143,1.19723 5.73216,7.78215 3.63734,10.78953c-1.36589,1.9609 -6.80568,3.98642 -8.90098,2.47592c-0.32602,-0.23502 -0.50469,-0.57515 -0.61185,-0.96558c-0.28967,0.06228 -0.58561,0.05915 -0.86758,-0.00354l-0.18061,-0.03917c0.01136,0.12001 -0.00988,0.23326 -0.08465,0.3354c-1.16146,1.58659 -4.98835,2.91024 -6.75281,3.71034c-5.16219,2.34081 -10.28705,4.27169 -15.69944,5.93966c-1.69456,0.52222 -3.73657,1.63334 -5.61745,1.04886c-0.93856,-0.29166 -1.4964,-1.27461 -2.2446,-1.91192c0,0 -1.45429,-1.42175 -0.03255,-2.87604c0.44781,-0.45807 0.89886,-0.63081 1.30667,-0.65251zM248.34005,134.85915c-0.04072,0.19646 0.17935,-0.37594 0.33912,-0.4973c0.82092,-0.62358 1.97524,-0.73221 2.75346,-1.40833c0.65625,-0.57015 -0.4109,-1.79363 -0.53139,-2.04932c-0.75481,-1.60174 -0.38728,-2.60194 -2.0668,-1.82659l-1.26882,0.27549c0.63889,1.83931 1.17436,3.57649 0.77443,5.50605z" data-paper-data="{&quot;index&quot;:null}" fill="#adadad" stroke="#000000" stroke-width="1"/><path d="M222.23342,205.08178c0,0 -8.34784,-3.43553 -16.84178,-9.18833l-0.34462,-0.57436l-0.07388,-0.07389l-0.05783,-0.09087l-0.0413,-0.00826l-0.3116,-0.3116l-0.51691,-0.31015l-0.45769,-0.39231l-0.06453,-0.03226l-0.04328,-0.12986v-2.05447l0.02336,-0.03504l-0.02336,-0.10514v-0.10449l-0.20898,-0.83592l-0.03016,-0.13569l0.02019,-0.03029l-0.02337,-0.10514v-0.10449l-0.20898,-0.83592l-0.18691,-0.84113l-0.04673,-0.09346l-0.02613,-0.10449l-0.03657,-0.02089l-0.37519,-0.75038l-0.15422,-0.17992l-0.0797,-0.22316l-0.35511,-0.53267l-0.13789,-0.27579l-0.39231,-0.45769l-0.31015,-0.51691l-0.46746,-0.46746v-0.30994l0.0328,-0.13119l0.16788,-0.33577l0.27951,-1.25779l0.13975,-0.20963l-0.04658,-0.20963l0.04658,-0.20963l-0.13975,-0.20963l-0.27951,-1.25779l-0.2423,-0.48461l-1.25779,-1.46742l-0.14785,-0.00821l-0.07346,-0.12857l-1.37929,-0.34483l-0.99549,-0.33183l-0.42842,-0.21421l-0.69872,-0.52404l-0.0982,-0.04135l-0.07167,-0.07884l-0.13123,-0.08749c2.83764,-4.20745 6.44068,-8.45044 7.66246,-13.4529c0.29769,-0.01397 0.57642,-0.0343 0.80785,-0.03554c0.48248,-0.00257 1.60297,-0.23148 1.43077,0.21923c-0.26726,0.6995 -2.05433,2.92454 0.32148,2.75848c0.37688,-0.02634 -0.68972,0.37072 -0.90684,0.6799c-0.69999,0.99679 -0.85809,1.93479 -0.86849,3.10391c0.00646,1.00894 -0.23693,1.89229 -0.24231,2.90768v0.72692c0,0 0,0.75 0.75,0.75c0.75,0 0.75,-0.75 0.75,-0.75v-0.72692c-0.00646,-1.00894 0.23693,-1.89229 0.24231,-2.90768c-0.01778,-1.55886 2.06655,-3.13453 1.61697,-4.45464c-0.13945,-0.40947 -1.28673,-0.22975 -1.13235,-0.63381c0.20788,-0.54407 1.00901,-0.87277 0.96923,-1.45385c-0.07017,-1.02506 -0.721,-1.43741 -1.48173,-1.6043c0.16511,-0.13757 0.2702,-0.34475 0.2702,-0.57646v-0.96923c0,-3.11768 -0.07549,-6.83791 -1.28144,-9.76614c-0.48667,-1.18171 -1.21599,-2.10104 -2.33577,-2.1697c0.84584,-0.63162 1.72037,-1.25204 2.62103,-1.86075c14.22892,-9.61657 37.28132,-5.8901 37.28132,-5.8901z" fill="#adadad" stroke="#666666" stroke-width="2.5"/><path d="M202.9711,153.07799c0.38894,1.72879 0.63729,3.42108 0.76098,5.14169c-0.04071,-0.00684 -0.08252,-0.0104 -0.12517,-0.0104c-0.21463,0 -0.40821,0.09016 -0.54492,0.23467c-0.29723,-2.08705 -0.91532,-4.14628 -1.06776,-6.25705c0,0 -0.07179,-0.93329 -0.65649,-1.71713c0.90368,-0.55657 1.49566,1.99617 1.63335,2.60822z" fill="#adadad" stroke="#666666" stroke-width="2.5"/><path d="M203.39956,160.67363c0.10993,0.22414 0.23028,0.44376 0.35992,0.65787l-0.13716,0.04572l0.23683,0.71052c0.02778,0.09035 0.07218,0.17342 0.12962,0.24565c-0.1312,-0.0033 -0.25928,-0.00431 -0.38186,-0.00489c-0.13231,-0.00062 -0.31618,0.0156 -0.51982,0.0394c0.06265,-0.44644 0.10514,-0.89911 0.12544,-1.35846c0.00027,-0.00598 0.00052,-0.01194 0.00078,-0.01792c0.07039,-0.10611 0.13331,-0.2127 0.18626,-0.3179z" fill="#adadad" stroke="#666666" stroke-width="2.5"/><path d="" fill="#adadad" stroke="#666666" stroke-width="2.5"/><path d="" fill="#adadad" stroke="#666666" stroke-width="2.5"/><g><path d="M226.51387,167.58888c-1.26812,7.64054 -9.02614,14.46076 -14.68936,19.2313c-0.45296,0.5037 -1.8705,2.13557 -2.27322,2.2137c-0.68421,0.13273 -2.37357,-1.56266 -2.79702,-1.86716c-1.9042,-1.36935 -3.81074,-2.78265 -5.77101,-4.10616l0.09702,-0.14553l-0.04658,-0.20963l0.04658,-0.20963l-0.13975,-0.20963l-0.27951,-1.25779l-0.2423,-0.48461l-1.25779,-1.46742l-0.14785,-0.00821l-0.07346,-0.12857l-1.37929,-0.34483l-0.99549,-0.33183l-0.42842,-0.21421l-0.69872,-0.52404l-0.0982,-0.04135l-0.07167,-0.07884l-0.13123,-0.08749c0.25905,-0.3841 0.52447,-0.7685 0.79389,-1.15374c0.03798,-0.0299 0.07603,-0.06139 0.11409,-0.09466c2.33385,-2.04 4.18633,-5.21274 5.99305,-7.72174c1.29484,-1.53103 1.98551,-3.01229 2.51722,-4.57858c0.3254,-0.00276 0.57008,0.05112 0.48282,0.27951c-0.26726,0.6995 -2.05433,2.92454 0.32148,2.75848c0.37688,-0.02634 -0.68972,0.37072 -0.90684,0.6799c-0.69999,0.99679 -0.85809,1.93479 -0.86849,3.10391c0.00646,1.00894 -0.23693,1.89229 -0.24231,2.90768v0.72692c0,0 0,0.75 0.75,0.75c0.75,0 0.75,-0.75 0.75,-0.75v-0.72692c-0.00646,-1.00894 0.23693,-1.89229 0.24231,-2.90768c-0.01778,-1.55886 2.06655,-3.13453 1.61697,-4.45464c-0.13945,-0.40947 -1.28673,-0.22975 -1.13235,-0.63381c0.20788,-0.54407 1.00901,-0.87277 0.96923,-1.45385c-0.07017,-1.02506 -0.721,-1.43741 -1.48173,-1.6043c0.16511,-0.13757 0.2702,-0.34475 0.2702,-0.57646v-0.6585c0.18197,-0.63183 0.3744,-1.28538 0.60042,-1.96766c2.21032,-6.67218 6.60084,-13.35016 13.8779,-14.47409c3.30146,0.65454 2.74438,2.92434 3.73499,5.54065c2.11541,5.58698 3.4913,10.56529 2.58042,16.33377c0.49769,0.30514 0.39399,0.94774 0.39399,0.94774z" data-paper-data="{&quot;index&quot;:null}" fill="#ff1c1c" stroke="#bf1515" stroke-width="1.5"/><g><path d="M203.79357,183.03528c-0.30358,-0.15093 -0.44543,-0.46664 -0.44543,-0.46664l-0.28538,-0.68733c-0.73102,-3.54137 -1.14597,-7.65844 0.51656,-11.00677c-0.03314,0.89354 -0.23293,1.7043 -0.2378,2.62319v0.72692c0,0 0,0.75 0.75,0.75c0.75,0 0.75,-0.75 0.75,-0.75v-0.72692c-0.00646,-1.00894 0.23693,-1.89229 0.24231,-2.90768c-0.0097,-0.8508 0.60676,-1.7066 1.0957,-2.52313c0.83242,-0.40891 1.7108,-0.68365 2.40007,-1.30048c0.42951,-0.38438 0.86267,-1.86351 1.15244,-2.38544c0.48907,-1.29199 1.01245,-2.93153 2.0698,-3.88696c1.86693,-1.68697 6.80686,-1.56629 8.63974,0.35062c3.22715,3.37511 1.36452,9.17834 -1.51422,11.81959c-0.28448,0.19378 -1.18083,0.55555 -1.22873,1.1296c-0.07361,0.88208 0.19593,1.84125 -0.16277,2.65045c-0.63414,1.43057 -2.25743,2.42222 -3.5583,3.10989c-0.51354,0.27147 -0.97442,0.81085 -1.33736,0.6793c-0.03296,0.33837 -0.20146,0.66297 -0.32476,0.98296c-0.525,1.3625 -0.59105,1.53611 -1.727,2.42743c-1.98788,1.5598 -4.7078,1.20878 -6.53111,-0.24703c0,0 -0.16436,-0.13914 -0.26377,-0.36157z" fill="#ffaaaa" stroke="#ae7575" stroke-width="1"/><path d="M214.65118,179.31564c-0.03712,0.8956 -0.93271,0.85849 -0.93271,0.85849l-0.98207,-0.0407c-0.68406,-0.02936 -1.37895,-0.02565 -2.07993,0.00008c-0.34903,1.55242 -0.67224,3.12382 -1.04649,4.68281c0,0 -0.21204,0.87092 -1.08296,0.65889c-0.87092,-0.21203 -0.65889,-1.08296 -0.65889,-1.08296c0.34192,-1.38742 0.64487,-2.77598 0.95718,-4.14955c-1.8,0.14137 -3.61276,0.36341 -5.36017,0.48479c0,0 -0.89422,0.06201 -0.95623,-0.8322c-0.06202,-0.89422 0.8322,-0.95623 0.8322,-0.95623c1.9279,-0.13348 3.92968,-0.37998 5.91033,-0.51723c0.04622,-0.18997 0.09304,-0.3795 0.1406,-0.56856c-0.87086,-0.24353 -1.60494,-0.81289 -2.17285,-1.82602c-0.48888,-0.87213 -0.6647,-1.77767 -0.84939,-2.72333c-0.53082,0.10838 -1.04414,0.2681 -1.52828,0.51559v-0.32179c-0.00366,-0.57185 0.07294,-1.10336 0.14097,-1.64144c1.38389,-0.45815 2.87882,-0.52701 4.44838,-0.65667c0.80893,-0.06682 1.6162,-0.18886 2.426,-0.27514c0.73011,-1.40501 1.62726,-2.73817 2.76686,-3.97422c-2.4176,0.07158 -4.90483,0.66672 -6.90731,1.5672c0,0 -0.81764,0.36732 -1.18497,-0.45032c-0.07779,-0.17316 -0.10244,-0.32611 -0.09296,-0.45967c0.08263,-0.15983 0.15446,-0.31776 0.2095,-0.47344c0.15329,-0.17078 0.33378,-0.25187 0.33378,-0.25187c2.48164,-1.11385 5.52938,-1.76438 8.44438,-1.71018c-0.06402,-0.72762 -0.1141,-1.46582 -0.16514,-2.22063c-0.09458,-1.39872 -0.4584,-2.10354 -0.07821,-3.50645c0,0 0.25322,-0.85985 1.11308,-0.60663c0.85986,0.25322 0.60663,1.11307 0.60663,1.11307c-0.36739,1.10858 0.0643,1.71193 0.14829,2.89738c0.04697,0.66288 0.08975,1.31224 0.14163,1.9527c1.29202,-0.73943 2.70812,-1.12073 4.26064,-1.44548l1.07608,0.52651c0,0 0.60704,0.65953 -0.05248,1.26657c-0.4736,0.43591 -0.92015,0.2187 -1.13427,0.0616c-0.65145,0.14091 -1.27695,0.2986 -1.87443,0.50906l0.13754,-0.00769c0,0 0.89559,0.0371 0.85848,0.9327c-0.03712,0.8956 -0.93271,0.85849 -0.93271,0.85849l-0.70714,-0.05609c-0.44245,-0.13388 -0.90245,-0.23943 -1.375,-0.3186c0.16904,1.12262 0.41979,2.23461 0.82896,3.36246c0.09822,-0.13299 0.19563,-0.26267 0.29245,-0.38816l-0.01552,-0.26998c0,0 0.21204,-0.87093 1.08297,-0.6589c0.87092,0.21203 0.65888,1.08296 0.65888,1.08296l-0.31191,0.94744c-0.10291,0.13069 -0.20488,0.26119 -0.30612,0.39133c0.04961,0.11509 0.07747,0.25647 0.07027,0.43011c-0.03712,0.8956 -0.93271,0.85848 -0.93271,0.85848l-0.0272,-0.02791c-0.03506,0.00702 -0.06994,0.01377 -0.10465,0.02026c-1.82376,2.32381 -3.64962,4.33634 -6.86586,4.97858c-0.21948,0.04382 -0.43429,0.07817 -0.64419,0.10205c-0.0319,0.12485 -0.0634,0.24992 -0.09451,0.3752c0.58217,-0.0144 1.15988,-0.01307 1.73063,0.00983l0.98208,0.04069c0,0 0.8956,0.03712 0.85848,0.93272zM212.44853,175.89462c1.63038,-0.32218 2.9053,-1.54601 4.00078,-2.9184c-0.6147,-0.05301 -1.2327,-0.15931 -1.91587,-0.2762c-0.51091,-0.08742 -1.02168,-0.10694 -1.5316,-0.08808c-0.51968,1.11361 -0.9412,2.27265 -1.30328,3.46133c0.26288,-0.06519 0.51646,-0.1325 0.74997,-0.17864zM209.1938,175.82507c0.19396,0.18568 0.41056,0.30309 0.64108,0.37112c0.3289,-1.15231 0.70113,-2.28118 1.14826,-3.37605c-0.47073,0.06392 -0.93993,0.12726 -1.40706,0.16631c-0.47617,0.03982 -0.95617,0.06532 -1.43261,0.09954c0.16679,0.96696 0.36467,2.08267 1.05034,2.73907zM214.82597,170.93131c0.6567,0.10763 1.22872,0.22239 1.80544,0.27298c-0.35727,-0.98164 -0.60956,-1.95114 -0.79521,-2.92412c-0.73164,0.80792 -1.35505,1.66386 -1.89352,2.55831c0.29358,0.01488 0.58794,0.04442 0.88329,0.09283z" fill="#c78686" stroke="none" stroke-width="0.5"/><path d="M202.49675,174.52752c-0.60704,-0.65953 0.05249,-1.26657 0.05249,-1.26657c0.27632,-0.24938 0.55934,-0.46521 0.84867,-0.65254c-0.03151,0.28914 -0.05476,0.58322 -0.05638,0.8893v0.72692c0,0 0,0.29233 0.18251,0.51198c-0.24645,0.12025 -0.64716,0.2039 -1.02728,-0.20909z" fill="#c78686" stroke="none" stroke-width="0.5"/></g></g></g></g></g></svg>