<svg version="1.1" xmlns="http://www.w3.org/2000/svg" xmlns:xlink="http://www.w3.org/1999/xlink" width="204.24188" height="204.24188" viewBox="0,0,204.24188,204.24188"><g transform="translate(-137.87906,-77.87906)"><g data-paper-data="{&quot;isPaintingLayer&quot;:true}" fill-rule="nonzero" stroke-linejoin="miter" stroke-miterlimit="10" stroke-dasharray="" stroke-dashoffset="0" style="mix-blend-mode: normal"><path d="M138.87906,180c0,-55.84755 45.27338,-101.12094 101.12094,-101.12094c55.84756,0 101.12094,45.27339 101.12094,101.12094c0,55.84756 -45.27339,101.12094 -101.12094,101.12094c-55.84755,0 -101.12094,-45.27339 -101.12094,-101.12094z" fill-opacity="0.65323" fill="#b8b5b5" stroke="#000000" stroke-width="2" stroke-linecap="butt"/><path d="M268.49453,168.533c-3.28628,12.03023 -16.57612,18.88003 -29.68369,15.29946c-13.10757,-3.58057 -21.06929,-16.23565 -17.78301,-28.26589c1.45373,-5.32172 -2.55702,-26.7339 3.6589,-41.95867c6.21592,-15.22478 17.74344,-25.8246 23.10345,-23.59086c5.71274,2.38076 -1.69295,29.95426 -1.69295,29.95426c0,0 32.87048,-22.29546 33.98402,-21.99126c4.08591,1.11616 -7.58896,20.24674 -8.05339,31.63454c-0.17364,4.25698 -1.65433,32.04011 -3.53332,38.91849z" fill="#03ca1e" stroke="#0f681c" stroke-width="1.5" stroke-linecap="butt"/><path d="M240.34013,167.60941l-15.84025,36.73591l-17.52539,-1.34811l22.91781,-39.09509" fill="#03ca1e" stroke="#0f681c" stroke-width="1.5" stroke-linecap="round"/><path d="M264.26903,162.8909l21.56971,44.15049l-18.19944,0.67405l-13.81809,-38.08401" fill="#03ca1e" stroke="#0f681c" stroke-width="1.5" stroke-linecap="round"/><path d="M244.8542,234.1198c-3.67656,18.03571 -23.24918,29.27427 -43.71674,25.10202c-20.46749,-4.17226 -34.07933,-22.17541 -30.40277,-40.21119c3.14715,-15.43865 17.94209,-25.89679 34.97548,-25.97148c2.86533,-0.0126 6.35396,8.9854 9.63283,9.99412c3.27886,1.00872 10.21231,-5.62551 14.68877,-2.51159c11.2389,7.81807 17.45164,20.69977 14.82237,33.59812z" fill="#ff0000" stroke="#920707" stroke-width="1.5" stroke-linecap="butt"/><path d="M218.62267,223.99094c3.93229,-1.99843 8.81547,-0.2825 10.90686,3.83273c2.09139,4.11523 0.59903,9.07127 -3.33326,11.06971c-3.93229,1.99843 -8.81547,0.2825 -10.90686,-3.83273c-2.09139,-4.11523 -0.5991,-9.07127 3.33326,-11.06971z" data-paper-data="{&quot;index&quot;:null}" fill="#f9ffab" stroke="#000000" stroke-width="1.5" stroke-linecap="butt"/><path d="M309.86476,236.95204c0,18.40664 -15.25686,33.32816 -34.0771,33.32816c-18.82024,0 -34.0771,-14.92152 -34.0771,-33.32816c0,-14.38935 9.32384,-26.64877 22.38511,-31.3147c3.64656,-1.30268 7.41452,2.42922 12.441,2.48018c5.02648,0.05103 7.77453,-3.69388 11.60464,-2.23617c12.71339,4.83856 21.72359,16.92555 21.72359,31.07069z" fill="#ff0000" stroke="#920707" stroke-width="1.5" stroke-linecap="butt"/><path d="M195.44731,219.57885c4.41094,0 7.98679,3.74207 7.98679,8.35826c0,4.61619 -3.57585,8.35826 -7.98679,8.35826c-4.41094,0 -7.98679,-3.74207 -7.98679,-8.35826c0,-4.61619 3.57579,-8.35826 7.98679,-8.35826z" data-paper-data="{&quot;index&quot;:null}" fill="#f9ffab" stroke="#000000" stroke-width="1.5" stroke-linecap="butt"/><path d="M253.84526,234.02496c2.09139,-4.11523 6.97456,-5.83117 10.90686,-3.83273c3.93229,1.99843 5.42465,6.95448 3.33326,11.06971c-2.09139,4.11523 -6.97456,5.83117 -10.90686,3.83273c-3.93229,-1.99843 -5.42465,-6.95455 -3.33326,-11.06971z" data-paper-data="{&quot;index&quot;:null}" fill="#f9ffab" stroke="#000000" stroke-width="1.5" stroke-linecap="butt"/><path d="M223.118,130.73863c0,0 -0.48566,-4.90589 1.25542,-10.37624c1.89254,-5.94636 6.02435,-12.6085 6.02435,-15.64222c0,-2.65469 6.74053,-9.57156 6.74053,-9.57156l8.76269,-4.04432c0,0 -4.69694,2.76598 -5.019,5.77185c-0.34296,3.20088 -10.6739,11.27085 -10.94703,18.12759c-0.28499,7.15602 -1.28973,29.48559 -1.28973,29.48559z" fill="#badbbf" stroke="none" stroke-width="1.5" stroke-linecap="butt"/><path d="M244.6203,123.59366l27.771,-18.87349l7.27978,-5.12281c0,0 -2.72506,4.07418 -5.74334,6.90574c-2.14214,2.00962 -6.10288,5.92169 -10.21905,9.47719c-4.11624,3.55556 -10.19088,8.15254 -10.19088,8.15254c0,0 -3.55732,2.96179 -4.867,5.51672c-1.30969,2.555 -6.43734,16.53621 -6.43734,16.53621z" fill="#badbbf" stroke="#000000" stroke-width="1.5" stroke-linecap="butt"/><path d="M278.78928,230.63346c3.27239,-3.25581 8.44724,-3.36022 11.55826,-0.23329c3.11109,3.12693 2.98033,8.30117 -0.29207,11.55698c-3.27239,3.25581 -8.44724,3.36022 -11.55833,0.23329c-3.11109,-3.12693 -2.98026,-8.30117 0.29213,-11.55698z" data-paper-data="{&quot;index&quot;:null}" fill="#f9ffab" stroke="#000000" stroke-width="1.5" stroke-linecap="butt"/><path d="M201.09142,231.43323c0,1.78193 -1.44456,3.22656 -3.22656,3.22656c-1.78193,0 -3.22656,-1.44456 -3.22656,-3.22656c0,-1.78193 1.44456,-3.22656 3.22656,-3.22656c1.78193,0 3.22656,1.44456 3.22656,3.22656z" fill="#03ca1e" stroke="none" stroke-width="1.5" stroke-linecap="butt"/><path d="M224.34067,232.89613c0,1.69639 -1.3752,3.07173 -3.07159,3.07173c-1.69646,0 -3.07159,-1.37527 -3.07159,-3.07173c0,-1.69639 1.3752,-3.07159 3.07159,-3.07159c1.69646,0 3.07159,1.3752 3.07159,3.07159z" fill="#03ca1e" stroke="none" stroke-width="1.5" stroke-linecap="butt"/><path d="M266.72925,239.10254c0,1.99709 -1.61901,3.61609 -3.61609,3.61609c-1.99709,0 -3.61603,-1.61901 -3.61603,-3.61609c0,-1.99709 1.61894,-3.61603 3.61603,-3.61603c1.99709,0 3.61609,1.61894 3.61609,3.61603z" fill="#03ca1e" stroke="none" stroke-width="1.5" stroke-linecap="butt"/><path d="M284.39956,238.22337c0,1.56785 -1.42063,2.83884 -3.17311,2.83884c-1.75247,0 -3.17311,-1.27099 -3.17311,-2.83884c0,-1.56785 1.42063,-2.83884 3.17311,-2.83884c1.75247,0 3.17311,1.27099 3.17311,2.83884z" fill="#03ca1e" stroke="none" stroke-width="1.5" stroke-linecap="butt"/><path d="M197.70619,215.53447l8.62788,11.86334l-6.47091,2.42659c0,0 -1.1045,1.59131 -5.88826,-3.26963c-4.78376,-4.86094 -8.94091,-20.72667 -8.94091,-20.72667" fill="#f84141" stroke="#3b1010" stroke-width="1.5" stroke-linecap="round"/><path d="M234.91394,213.91674c0,0 -4.58093,6.55524 -8.15166,10.1836c-3.57073,3.62836 -8.56486,6.80261 -8.56486,6.80261l-6.47091,-2.42659l11.05447,-12.13296" data-paper-data="{&quot;index&quot;:null}" fill="#f84141" stroke="#3b1010" stroke-width="1.5" stroke-linecap="round"/><path d="M198.34742,231.74828c0,0.40248 -0.4078,0.72872 -0.91085,0.72872c-0.50311,0 -0.91085,-0.32631 -0.91085,-0.72872c0,-0.40248 0.4078,-0.72872 0.91085,-0.72872c0.50311,0 0.91085,0.32624 0.91085,0.72872z" fill="#fac1c1" stroke="#3b1010" stroke-width="1.5" stroke-linecap="butt"/><path d="M221.48383,232.477c0,0.40248 -0.36702,0.72865 -0.81978,0.72865c-0.45276,0 -0.81978,-0.32624 -0.81978,-0.72865c0,-0.40248 0.36702,-0.72872 0.81978,-0.72872c0.45276,0 0.81978,0.32631 0.81978,0.72872z" fill="#fac1c1" stroke="none" stroke-width="1.5" stroke-linecap="butt"/><path d="M264.8419,239.58179c0,0.60368 -0.57092,1.09304 -1.27524,1.09304c-0.70432,0 -1.27524,-0.48936 -1.27524,-1.09304c0,-0.60368 0.57092,-1.09304 1.27524,-1.09304c0.70432,0 1.27524,0.48936 1.27524,1.09304z" fill="#fac1c1" stroke="none" stroke-width="1.5" stroke-linecap="butt"/><path d="M281.6021,238.21549c0,0.55333 -0.48936,1.00198 -1.09304,1.00198c-0.60368,0 -1.09311,-0.44865 -1.09311,-1.00198c0,-0.55333 0.48943,-1.00198 1.09311,-1.00198c0.60368,0 1.09304,0.44858 1.09304,1.00198z" fill="#fac1c1" stroke="none" stroke-width="1.5" stroke-linecap="butt"/><path d="M261.87607,223.62311l10.24561,12.94182l-6.47091,2.42659l-16.71652,-16.98614" data-paper-data="{&quot;index&quot;:null}" fill="#f84141" stroke="#3b1010" stroke-width="1.5" stroke-linecap="round"/><path d="M299.30517,227.67188l-21.9736,9.22678l-5.03484,-4.73408l14.94113,-7.78242" data-paper-data="{&quot;index&quot;:null}" fill="#f84141" stroke="#3b1010" stroke-width="1.5" stroke-linecap="round"/><path d="M221.78547,247.68809c0,3.14999 -5.10717,5.70357 -11.40707,5.70357c-4.81173,0 -12.41842,-1.00434 -12.41842,-1.00434l-0.02561,-4.69923c0,0 6.14413,-5.7035 12.4441,-5.7035c6.2999,0 11.40707,2.55352 11.40707,5.7035z" fill="#272626" stroke="#000000" stroke-width="1.5" stroke-linecap="butt"/><path d="M287.63529,253.91014l0.34303,6.39225c0,0 -7.67005,-0.68868 -11.75016,-0.68868c-6.2999,0 -11.40707,-2.55358 -11.40707,-5.70357c0,-3.14999 5.1071,-5.70357 11.40707,-5.70357c6.2999,0 11.40707,5.70357 11.40707,5.70357z" fill="#000000" stroke="#000000" stroke-width="1.5" stroke-linecap="butt"/><path d="M207.26744,242.76224v4.92578l-5.18502,0.77779l-1.29627,-3.11103" fill="#e8e3e3" stroke="#000000" stroke-width="1.5" stroke-linecap="round"/><path d="M199.48987,253.13235l-0.77779,-5.70357l-0.25924,5.44426l0.77779,-5.96274z" fill="none" stroke="#000000" stroke-width="1.5" stroke-linecap="round"/><path d="M202.6009,251.83615l3.37027,-3.11103l4.92578,0.51848v4.66654" fill="#e8e3e3" stroke="#000000" stroke-width="1.5" stroke-linecap="round"/><path d="M217.37817,243.02149l-0.77772,4.4073l-2.33324,1.03703l-4.4073,-6.22205" fill="#e8e3e3" stroke="#000000" stroke-width="1.5" stroke-linecap="round"/><path d="M213.48942,251.83601l2.07399,-3.11103l2.33324,-0.51848l1.29627,2.33324" fill="#e8e3e3" stroke="#000000" stroke-width="1.5" stroke-linecap="round"/><path d="M268.85293,257.41583l3.37027,-3.11103l4.92578,0.51848v4.66654" fill="#e8e3e3" stroke="#000000" stroke-width="1.5" stroke-linecap="round"/><path d="M275.19887,257.90377l3.37027,-3.11103l4.92578,0.51848v4.66654" fill="#e8e3e3" stroke="#000000" stroke-width="1.5" stroke-linecap="round"/><path d="M273.86856,248.46204v4.66654l-4.92578,0.51848l-3.37027,-3.11103" data-paper-data="{&quot;index&quot;:null}" fill="#e8e3e3" stroke="#000000" stroke-width="1.5" stroke-linecap="round"/></g></g></svg>