<svg version="1.1" xmlns="http://www.w3.org/2000/svg" xmlns:xlink="http://www.w3.org/1999/xlink" width="183.71438" height="191.62623" viewBox="0,0,183.71438,191.62623"><defs><radialGradient cx="240.54824" cy="229.93175" r="50.0729" gradientUnits="userSpaceOnUse" id="color-1"><stop offset="0" stop-color="#625f63"/><stop offset="1" stop-color="#322935"/></radialGradient><linearGradient x1="240" y1="84.82187" x2="240" y2="192.39522" gradientUnits="userSpaceOnUse" id="color-2"><stop offset="0" stop-color="#7b7879"/><stop offset="1" stop-color="#151316"/></linearGradient><linearGradient x1="214.87274" y1="86.79562" x2="214.87274" y2="137.23563" gradientUnits="userSpaceOnUse" id="color-3"><stop offset="0" stop-color="#c2bfc0"/><stop offset="1" stop-color="#626060"/></linearGradient><radialGradient cx="240.54824" cy="229.93175" r="50.0729" gradientUnits="userSpaceOnUse" id="color-4"><stop offset="0" stop-color="#625f63"/><stop offset="1" stop-color="#322935"/></radialGradient><linearGradient x1="246.65625" y1="186.57552" x2="246.65625" y2="192.24141" gradientUnits="userSpaceOnUse" id="color-5"><stop offset="0" stop-color="#f40857"/><stop offset="1" stop-color="#aa0808"/></linearGradient><linearGradient x1="219.63377" y1="165.4636" x2="219.63377" y2="177.94338" gradientUnits="userSpaceOnUse" id="color-6"><stop offset="0" stop-color="#f40857"/><stop offset="1" stop-color="#aa0808"/></linearGradient><linearGradient x1="275.09487" y1="164.09774" x2="275.09487" y2="176.57752" gradientUnits="userSpaceOnUse" id="color-7"><stop offset="0" stop-color="#f40857"/><stop offset="1" stop-color="#aa0808"/></linearGradient><linearGradient x1="274.55547" y1="178.73713" x2="290.55924" y2="168.79074" gradientUnits="userSpaceOnUse" id="color-8"><stop offset="0" stop-color="#a83336"/><stop offset="1" stop-color="#271216"/></linearGradient><linearGradient x1="222.25147" y1="182.94751" x2="206.2477" y2="173.00111" gradientUnits="userSpaceOnUse" id="color-9"><stop offset="0" stop-color="#a83336"/><stop offset="1" stop-color="#271216"/></linearGradient></defs><g transform="translate(-147.44963,-83.82185)"><g data-paper-data="{&quot;isPaintingLayer&quot;:true}" fill-rule="nonzero" stroke-linejoin="miter" stroke-miterlimit="10" stroke-dasharray="" stroke-dashoffset="0" style="mix-blend-mode: normal"><path d="M190.47534,185.14432h100.14579c0,0 -6.12002,24.11057 -6.12002,38.38922c0,10.77821 4.58396,22.99779 7.36944,29.42816c1.21566,2.8064 0.48751,6.08032 -2.24994,8.26205c-5.36056,4.27233 -15.07801,10.8897 -25.65991,12.65335c-10.93413,1.82235 -52.46438,5.6529 -70.13224,-20.49027c-11.76746,-17.41234 -3.35311,-68.24251 -3.35311,-68.24251z" fill="url(#color-1)" stroke="#000000" stroke-width="0.5" stroke-linecap="butt"/><g stroke-linecap="butt"><path d="M195.11969,189.13597c-0.25843,0.94804 -1.33568,0.94804 -1.33568,0.94804c-2.74754,0 -5.78776,0.3344 -8.51543,-0.01042c-2.11996,-0.268 -4.0087,-1.414 -6.12002,-1.6691c-2.81056,-0.33958 -5.59713,-0.49522 -8.23027,-1.80011c-1.69849,-0.84171 -3.78149,-1.77361 -5.27801,-2.95565c-0.82326,-0.65026 -1.40561,-1.57091 -2.22546,-2.22546c-1.00941,-0.80588 -2.15319,-1.42732 -3.22791,-2.1438c-1.99216,-1.33721 -3.52937,-2.93481 -5.21928,-4.62471c-0.24954,-0.24954 -2.32493,-2.31035 -2.42512,-2.47774c-0.99866,-1.66844 -1.1931,-4.01512 -1.80545,-5.85506c-0.79023,-2.3744 -1.40148,-4.93265 -1.71124,-7.41908c-0.62028,-4.97899 0.47776,-10.15031 -0.02247,-15.13832c-0.15918,-1.58727 -0.54686,-3.15838 -0.55324,-4.7536c0.20944,-0.85203 0.79811,-3.59017 1.31057,-4.46019c0.29714,-0.50447 0.85515,-0.80563 1.22026,-1.26331c1.24578,-1.56162 2.08786,-3.44711 3.33819,-5.00729c1.18545,-1.47921 2.66841,-2.35195 4.08839,-3.53202c1.73642,-1.44306 3.22674,-3.05315 5.00729,-4.45092c0.89856,-0.70539 1.31682,-1.88111 2.12376,-2.6897c0.45253,-0.45345 1.19584,-0.56088 1.60988,-1.04972c1.02213,-1.20676 1.24431,-2.92218 2.08502,-4.26166c1.5563,-2.47963 3.80584,-4.42149 5.86501,-6.46443c0.67288,-0.4407 1.27015,-1.02757 2.01864,-1.32211c0.86503,-0.3404 1.86361,-0.22278 2.73436,-0.54826c0.61564,-0.23012 1.05442,-0.79817 1.64412,-1.08838c1.00995,-0.49703 2.25033,-0.45778 3.21167,-1.04334c0.39612,-0.24128 0.60038,-0.71494 0.96216,-1.0052c1.56181,-1.25307 3.44646,-2.37544 5.14532,-3.43788c1.40169,-0.87659 3.0098,-1.38175 4.43684,-2.21643c1.53827,-0.89974 2.31344,-2.55462 4.04133,-3.42137c1.40271,-0.70363 3.07184,-0.67234 4.56036,-1.16936c0.8035,-0.26829 1.4757,-0.85608 2.27949,-1.12354c2.93787,-0.97757 5.49089,-1.36626 8.31056,-2.76944c0.20459,-0.05189 4.56318,-1.16369 4.76355,-1.18871c1.45473,-0.18165 2.94756,0.22023 4.39807,0.00754c0.58026,-0.08508 1.08826,-0.47535 1.6691,-0.55637c1.97083,-0.27491 4.34771,-0.01796 6.34282,-0.01796c1.84145,0 3.91791,-0.21911 5.7336,0.01042c2.1236,0.26846 4.00962,1.37552 6.12002,1.6691c5.06809,0.70503 10.42212,1.80217 15.32788,3.41174c1.9303,0.7887 3.83272,1.26418 5.86686,1.60309c1.21792,0.20292 2.51202,0.15972 3.64767,0.64428c2.67418,1.14102 4.70863,3.17931 7.31157,4.48648c2.617,1.31423 5.74447,1.49606 8.34548,2.78183c5.28319,2.61167 10.39366,5.78733 15.29259,9.07567c1.38047,1.36959 2.80319,2.58655 3.70585,4.35911c0.24575,0.48257 0.21071,1.08503 0.49007,1.54895c0.27059,0.44937 0.84285,0.66294 1.11273,1.11273c0.30173,0.50289 0.25812,1.16414 0.55637,1.6691c0.91669,1.55204 2.66144,2.85764 3.78703,4.30035c0.34714,0.44495 0.43839,1.09588 0.88136,1.44555c0.42594,0.33624 1.09126,0.19848 1.55607,0.47855c0.50147,0.30216 0.80515,0.85575 1.26331,1.22026c1.59533,1.26923 4.55597,3.00864 5.4105,4.9943c0.24813,0.57656 -0.10152,1.27763 0.06867,1.88181c0.73095,2.59489 2.90068,4.351 3.72403,6.82107c1.48324,1.39776 2.89952,2.73268 3.94342,4.53664c0.2776,0.47972 0.19925,1.12277 0.50751,1.58338c0.41969,0.62711 1.17528,0.97331 1.61428,1.58706c0.48251,0.67458 0.65266,1.53539 1.11273,2.22546c0.30889,0.46331 0.88474,0.71509 1.16754,1.19477c1.33825,2.26985 1.33389,4.88621 1.32046,7.40763c-0.0054,1.01497 0.16577,2.04798 -0.0251,3.04486c-0.3063,1.59979 -1.24205,3.01809 -1.70071,4.58103c-0.23218,0.79117 -0.28662,1.64025 -0.61855,2.39503c-0.88586,2.01434 -1.61842,2.07308 -3.00307,3.68682c-2.08916,2.43481 -4.32312,5.10158 -6.09514,7.75961c-1.22713,1.23687 -2.23327,2.80652 -3.43032,3.99626c-1.4906,1.48148 -4.01757,3.18588 -5.89964,4.14202c-1.33662,0.67904 -2.68239,1.39923 -4.13548,1.76826c-1.83612,0.46631 -3.80032,0.17661 -5.65563,0.5595c-3.58614,0.74009 -6.9885,2.77469 -10.66278,3.37786c-1.35434,0.22233 -2.74489,0.01796 -4.11736,0.01796c-2.78183,0 -5.56366,0 -8.34548,0c-2.86775,0 -5.76024,-0.10372 -8.57259,-0.57503c-2.21683,-0.37151 -4.1653,-1.04567 -6.47969,-1.0944c-2.95335,-0.06218 -5.91738,0.00033 -8.87144,0.00033c-1.59484,0 -3.21107,-0.27852 -4.78449,-0.01796c-0.89682,0.14851 -1.69337,0.69112 -2.58468,0.86975c-2.02269,0.40538 -5.14493,0.48931 -7.23339,0.25417c-3.57785,-0.40282 -7.18595,-2.02956 -10.65361,-3.02184c-1.45624,-0.28845 -2.88719,-0.75785 -4.36727,-0.87261c-1.8419,-0.14282 -3.70104,0.15288 -5.5423,0.00193c-1.93449,-0.1586 -5.17619,-1.23421 -7.14211,-0.6575c-0.45219,0.13265 -0.53795,0.82786 -0.95971,1.03807c-0.74995,0.37379 -1.64458,0.35371 -2.42819,0.65051c-2.066,0.78251 -2.0274,1.37361 -4.15433,1.73754c-3.1745,0.54316 -5.94598,-0.97057 -8.9017,-1.48644z" fill="url(#color-2)" stroke="#4f4548" stroke-width="2"/><path d="M229.14275,117.48465c0,10.90816 -10.08828,19.75098 -22.5328,19.75098c-12.44452,0 -22.5328,-8.84281 -22.5328,-19.75098c0,-10.90816 10.08828,-19.75098 22.5328,-19.75098c0.86732,0 4.57031,-7.57895 12.90542,-9.88361c9.09451,-2.51464 22.87807,0.23375 23.7597,0.4188c9.90386,2.07888 -14.13231,19.89737 -14.13231,29.21578z" fill="url(#color-3)" stroke="none" stroke-width="0"/></g><path d="M190.47534,185.14432h100.14579c0,0 -6.12002,24.11057 -6.12002,38.38922c0,10.77821 4.58396,22.99779 7.36944,29.42816c1.21566,2.8064 0.48751,6.08032 -2.24994,8.26205c-5.36056,4.27233 -15.07801,10.8897 -25.65991,12.65335c-10.93413,1.82235 -52.46438,5.6529 -70.13224,-20.49027c-11.76746,-17.41234 -3.35311,-68.24251 -3.35311,-68.24251z" fill="url(#color-4)" stroke="#000000" stroke-width="0.5" stroke-linecap="butt"/><path d="M240.63232,266.55191c-1.88914,-0.47229 -1.41686,-2.36142 -1.41686,-2.36142l0.14235,-0.51107c0.60534,-4.63116 2.84544,-9.12429 4.34489,-13.5249c0.56086,-1.64601 0.47899,-3.42725 0.68141,-5.14999h-0.03405v-0.27379l-0.17579,-1.75791l0.00425,-0.00043l-0.0051,-0.00831c-0.34795,-3.83284 -1.01627,-7.55918 -1.64901,-11.34901c-0.92577,-5.19493 -0.00471,-10.10723 0.73191,-15.25647c0.49241,-3.44214 0.59638,-6.89889 1.31622,-10.30667c0.66036,-3.12622 1.92083,-6.06241 2.19644,-9.25661c0,0 0.1763,-1.93928 2.11558,-1.76298c1.93928,0.1763 1.76298,2.11558 1.76298,2.11558c-0.3173,3.34776 -1.56786,6.38641 -2.25449,9.65981c-0.70012,3.33775 -0.79902,6.72122 -1.28015,10.09341c-0.67312,4.7178 -1.63753,9.28417 -0.75173,14.04545c0.6272,3.76992 1.28959,7.48223 1.65558,11.28849c0.14543,0.27276 0.22787,0.58419 0.22787,0.91488v1.48364v0.37091h-0.03528c-0.00784,0.04064 -0.01694,0.08083 -0.02726,0.12053c0.03188,2.10869 -0.12524,4.24718 -0.77373,6.2277c-1.36282,4.16211 -3.67195,8.43894 -4.18605,12.80973l-0.22856,0.97258c0,0 -0.47228,1.88914 -2.36142,1.41686z" fill="#918890" stroke="none" stroke-width="0.5" stroke-linecap="butt"/><path d="M267.18081,245.56978c0.32299,0.46911 0.78665,1.47494 -0.21919,2.48077c-1.37693,1.37693 -2.75387,0 -2.75387,0l-0.69766,-1.0901c-0.87117,-3.49906 -0.98853,-6.79602 -0.983,-10.38986c-0.38633,-3.81397 -0.65851,-7.65785 -1.2715,-11.44526c-0.73977,-4.57074 -2.91259,-8.70832 -3.17757,-13.37377c-0.42067,-7.40687 -0.00427,-14.95747 -0.00427,-22.38359c0,0 0,-1.94728 1.94728,-1.94728c1.94728,0 1.94728,1.94728 1.94728,1.94728c0,7.34249 -0.40121,14.80101 -0.00427,22.12566c0.243,4.48421 2.40825,8.55083 3.12791,12.96086c0.64362,3.94408 0.93225,7.94852 1.32487,11.92209c0.00436,3.18284 0.05128,6.11032 0.76399,9.19321z" fill="#918890" stroke="none" stroke-width="0.5" stroke-linecap="butt"/><path d="M274.42082,211.73825c0.20436,0.27954 0.3439,0.66127 0.3439,1.18253c0,1.94728 -1.94728,1.94728 -1.94728,1.94728l-2.1177,-1.70575c-0.32949,-2.74974 -1.91796,-5.02889 -2.39471,-7.6832c-0.03891,-0.21663 -0.03125,-3.03215 -0.03125,-3.50018c0,-3.27638 0,-6.55275 0,-9.82912c0,0 0,-1.94728 1.94728,-1.94728c1.94728,0 1.94728,1.94728 1.94728,1.94728c0,2.65819 0,5.31638 0,7.97457c0,1.41356 -0.27136,3.25936 -0.03125,4.65985c0.14875,0.86763 0.7083,1.6128 1.01686,2.43724c0.559,1.49359 0.99521,2.97009 1.26686,4.51679z" fill="#918890" stroke="none" stroke-width="0.5" stroke-linecap="butt"/><path d="M228.73553,258.24444c-1.7417,-0.87085 -0.87085,-2.61255 -0.87085,-2.61255l-0.01047,0.30618c0.79808,-7.872 0.73216,-15.80909 0.73216,-23.72996c0,-5.93901 -0.43725,-11.79347 -0.74014,-17.72277c-0.38104,-7.45909 -0.00169,-15.04619 -0.00169,-22.521c0,0 0,-1.94728 1.94728,-1.94728c1.94728,0 1.94728,1.94728 1.94728,1.94728c0,7.41971 -0.38471,14.95561 -0.00168,22.35915c0.30955,5.98315 0.7435,11.8913 0.7435,17.88462c0,8.05397 0.03915,16.11139 -0.75149,24.11748l-0.38137,1.048c0,0 -0.87085,1.7417 -2.61255,0.87085z" fill="#918890" stroke="none" stroke-width="0.5" stroke-linecap="butt"/><path d="M221.44636,262.15912c-1.94728,0 -1.94728,-1.94728 -1.94728,-1.94728v-0.37091c0,-4.52752 0.00752,-9.17914 0.37658,-13.68671c0.18786,-2.2944 0.50558,-4.45602 0.369,-6.77782c-0.22884,-3.89032 -1.87147,-7.45526 -1.84669,-11.40674c-0.87495,-3.85151 -0.38501,-7.6846 -0.56423,-11.5897c-0.35387,-7.71061 -0.56013,-15.37731 -0.56013,-23.11744c0,0 0,-1.94728 1.94728,-1.94728c1.94728,0 1.94728,1.94728 1.94728,1.94728c0,7.66022 0.20892,15.24498 0.5526,22.87544c0.17346,3.85122 -0.27848,7.60921 0.5485,11.40674c0.02178,4.00126 1.62932,7.62711 1.86241,11.58971c0.14682,2.49607 -0.16337,4.84952 -0.37281,7.31678c-0.37385,4.40383 -0.36524,8.96355 -0.36524,13.38975v0.37091c0,0 0,1.94728 -1.94728,1.94728z" fill="#918890" stroke="none" stroke-width="0.5" stroke-linecap="butt"/><path d="M193.57665,246.12765c-1.94728,0 -1.94728,-1.94728 -1.94728,-1.94728v-0.74182c0.01943,-4.41894 -1.63129,-8.61699 -2.03053,-12.97543c-0.0119,-0.12991 -0.00947,-3.84069 -0.00947,-4.2719c0,-6.0606 0.89741,-11.90585 1.30246,-17.93266c0.5404,-8.04059 -0.00428,-16.28728 -0.00428,-24.35112c0,0 0,-1.94728 1.94728,-1.94728c1.94728,0 1.94728,1.94728 1.94728,1.94728c0,8.15195 0.53361,16.47924 -0.00428,24.60905c-0.39312,5.94172 -1.29391,11.70185 -1.29391,17.67473c0,2.85665 0.4818,5.64551 0.97713,8.43149c0.07147,-0.89992 0.18055,-1.79733 0.35818,-2.68987c0.51817,-2.60371 1.51346,-5.13625 2.29255,-7.6683c0.46089,-1.22353 0.69699,-2.52237 1.12947,-3.75622c0.34438,-0.9825 1.01908,-1.854 1.21849,-2.87584c0.52721,-2.7017 0.1442,-5.75753 0.1442,-8.50315c0,-4.6982 0,-9.39639 0,-14.09459c0,0 0,-1.94728 1.94728,-1.94728c1.94728,0 1.94728,1.94728 1.94728,1.94728c0,5.25457 0,10.50912 0,15.76369c0,2.49028 0.27227,5.17827 -0.22671,7.63145c-0.24556,1.2073 -0.97146,2.26658 -1.37788,3.42964c-0.42032,1.20283 -0.65025,2.46834 -1.09599,3.66199c-0.72778,2.36528 -1.66951,4.73773 -2.15837,7.16811c-0.51094,2.5402 -0.38743,5.13043 -0.52167,7.69318c-0.14467,2.76179 -0.55587,5.47367 -0.55395,8.24848v1.11273c0,0 0,1.94728 -1.94728,1.94728c-1.94728,0 -1.94728,-1.94728 -1.94728,-1.94728v-1.11273c0.00054,-0.84115 0.03666,-1.67674 0.09113,-2.50969c-0.05927,0.00398 -0.12053,0.00604 -0.18386,0.00604z" fill="#918890" stroke="none" stroke-width="0.5" stroke-linecap="butt"/><path d="M198.76747,247.17663c-0.68847,0.68847 -1.37693,0 -1.37693,0l-0.33188,-0.37299c-1.11049,-1.85083 -2.47648,-4.13306 -2.90496,-6.26178c-0.2659,-1.32104 0.366,-2.55869 0.35529,-3.88282c0.00787,-3.27167 0.3337,-6.5005 0.74656,-9.73961c0.23805,-1.8676 -0.13548,-3.83279 -0.00285,-5.71367c0.27674,-3.92488 0.55449,-7.86868 0.55449,-11.80863c0,-3.84723 -0.07668,-7.60306 -0.36846,-11.4292c-0.17488,-2.29316 0.44331,-4.86863 0.01512,-7.11765c-0.2437,-1.28004 -0.38848,-2.35204 -0.38848,-3.70777c0,0 0,-0.97364 0.97364,-0.97364c0.97364,0 0.97364,0.97364 0.97364,0.97364c0,1.28007 0.1444,2.14326 0.35334,3.33953c0.41329,2.36619 -0.1709,4.95243 0.01512,7.34785c0.30071,3.87231 0.37336,7.67423 0.37336,11.56724c0,3.97911 -0.27135,7.96644 -0.55825,11.92963c-0.13814,1.90828 0.23025,3.88607 -0.00285,5.78455c-0.39005,3.17673 -0.74582,6.33881 -0.73708,9.54773c-0.00718,1.09345 -0.62938,2.497 -0.38653,3.53538c0.44925,1.92093 1.6478,3.92252 2.6587,5.60735l0.03903,-0.00208c0,0 0.68847,0.68847 0,1.37693z" fill="#d6d3d6" stroke="none" stroke-width="0.5" stroke-linecap="butt"/><path d="M201.88663,255.78473l-1.80074,0.32171c-0.06284,-0.37745 -0.12568,-0.7549 -0.18852,-1.13235c-0.2168,-1.73322 -0.49627,-3.47435 -0.37778,-5.22804c0.24307,-3.59725 1.59749,-7.20755 2.04521,-10.80464c0.64017,-5.14333 0.91494,-10.23633 1.48107,-15.37176c0.29569,-2.66102 0.30418,-5.4957 0.95003,-8.10175c0.64353,-2.59667 1.30149,-5.40315 1.45777,-8.0923c0.18553,-3.19246 -0.00283,-6.46267 -0.00283,-9.66216c0,0 0,-0.97364 0.97364,-0.97364c0.97364,0 0.97364,0.97364 0.97364,0.97364c0,3.24855 0.18993,6.5694 -0.00283,9.81064c-0.16603,2.79165 -0.82981,5.71986 -1.50952,8.41321c-0.63405,2.51245 -0.61917,5.27907 -0.90452,7.8474c-0.57665,5.1468 -0.83905,10.25782 -1.48621,15.4138c-0.44667,3.55864 -1.80152,7.15127 -2.0348,10.70817c-0.1051,1.60248 0.16622,3.20278 0.36405,4.78654c0.03686,0.22092 0.07372,0.44184 0.11058,0.66277c0.08505,0.21327 0.08505,0.40495 0.08505,0.40495l-0.01698,0.00303c0.00124,0.00745 0.00249,0.01491 0.00373,0.02235z" fill="#d6d3d6" stroke="none" stroke-width="0.5" stroke-linecap="butt"/><path d="M222.01203,262.41403c-0.904,-0.3616 -0.5424,-1.2656 -0.5424,-1.2656l0.31884,-0.7498c-0.08713,-4.60533 0.17034,-9.20871 0.17034,-13.79404c0.21638,-1.51465 0.46307,-3.39804 0.36924,-4.89942c-0.11609,-1.8575 -1.3156,-3.5936 -1.4811,-5.5222c-0.14961,-1.74353 0.09048,-3.70816 -0.34552,-5.40926c-0.39511,-1.54157 -1.06611,-2.90792 -1.47634,-4.42327c-0.49538,-1.8299 -0.25503,-3.93138 -0.02583,-5.781c0.65209,-3.81045 0.62091,-7.56392 0.36318,-11.47421c-0.35671,-5.41195 -0.00245,-10.9666 -0.00245,-16.38908c0,0 0,-0.97364 0.97364,-0.97364c0.97364,0 0.97364,0.97364 0.97364,0.97364c0,5.37411 -0.36423,10.88813 -0.00245,16.25104c0.27336,4.05218 0.25885,7.93613 -0.37865,11.89314c-0.19688,1.56001 -0.4515,3.43023 -0.02583,4.9754c0.42079,1.52745 1.10841,2.91379 1.49094,4.47858c0.4456,1.82277 0.24629,3.85702 0.3963,5.71805c0.1597,1.98119 1.33441,3.65989 1.48619,5.60511c0.12099,1.55069 -0.15008,3.55762 -0.37259,5.11516c0,4.65307 -0.1373,9.35358 -0.20058,14.02424l-0.42298,1.10475c0,0 -0.3616,0.904 -1.2656,0.5424z" fill="#d6d3d6" stroke="none" stroke-width="0.5" stroke-linecap="butt"/><path d="M230.66843,189.53612c0.94457,-0.23614 1.18071,0.70843 1.18071,0.70843l0.16456,0.67007c0.77817,2.36389 1.46331,5.51801 1.15796,8.0075c-0.33374,2.7209 -0.85847,5.07665 -0.55312,7.82479c0.00477,3.7371 1.05033,7.18524 1.29636,10.91539c0.14474,2.19461 0.24101,4.89755 -0.00609,7.07719c-0.11031,0.97301 -0.48548,1.90886 -0.54844,2.88608c-0.12987,2.01584 0.18694,4.0429 0.18694,6.06618c0,3.39602 0.22921,6.87368 -0.00188,10.26053c-0.09629,1.41122 -0.6392,2.70485 -0.74325,4.09982c-0.10083,1.35168 0.11257,2.72857 0,4.08001c-0.16398,1.96868 -1.00017,3.73082 -1.30812,5.64342c0,0 -0.16007,0.96039 -1.12046,0.80033c-0.96039,-0.16007 -0.80033,-1.12046 -0.80033,-1.12046c0.31891,-1.86092 1.12903,-3.57415 1.28826,-5.48389c0.11258,-1.35017 -0.10663,-2.72842 0,-4.08001c0.10936,-1.38617 0.64985,-2.66495 0.74038,-4.06021c0.21731,-3.34911 -0.00188,-6.78193 -0.00188,-10.13953c0,-2.05877 -0.32483,-4.12107 -0.18397,-6.17387c0.07075,-1.031 0.4459,-2.02187 0.56429,-3.04848c0.23537,-2.0411 0.13238,-4.59261 -0.00609,-6.64649c-0.25236,-3.74307 -1.3053,-7.20964 -1.30001,-10.96832c-0.31612,-2.8451 0.201,-5.3135 0.55961,-8.12436c0.2816,-2.20726 -0.36193,-5.11376 -1.0675,-7.19983l-0.20635,-0.81357c0,0 -0.23614,-0.94457 0.70843,-1.18071z" fill="#d6d3d6" stroke="none" stroke-width="0.5" stroke-linecap="butt"/><path d="M241.89978,264.79486c-0.58976,-0.58976 -0.16911,-1.17952 -0.03637,-1.33651c0.37097,-2.25233 0.70905,-4.51707 1.69054,-6.61121c0.63252,-1.34954 2.13721,-2.33513 2.34369,-3.86672c0.3086,-2.28915 -0.20302,-4.73905 -0.20302,-7.04863c0,-4.17769 -0.39933,-8.20229 -0.7385,-12.34519c-0.42014,-5.13189 -0.1998,-10.39402 -0.18545,-15.55339c0.3249,-1.94937 0.31341,-3.93757 0.76234,-5.88292c1.18272,-5.12513 3.51431,-10.41365 3.49981,-15.73503c0,0 0,-0.97364 0.97364,-0.97364c0.97364,0 0.97364,0.97364 0.97364,0.97364c-0.01321,5.48909 -2.32794,10.8786 -3.54748,16.16326c-0.42865,1.85748 -0.41107,3.75388 -0.72131,5.6153c0.01623,5.05303 -0.24118,10.20742 0.18545,15.23216c0.35604,4.1933 0.74514,8.27607 0.74514,12.5058c0,2.43377 0.52746,5.00262 0.16789,7.41688c-0.27176,1.82468 -1.77013,2.72859 -2.47815,4.2933c-0.9331,2.06215 -1.23006,4.23337 -1.59755,6.43904l-0.45738,0.71386c0,0 -0.68847,0.68847 -1.37693,0z" fill="#d6d3d6" stroke="none" stroke-width="0.5" stroke-linecap="butt"/><path d="M266.88287,247.27634c-0.97364,0 -0.97364,-0.97364 -0.97364,-0.97364l0.00979,-0.41867c-0.19516,-1.36614 -0.37822,-2.6502 -0.3807,-4.03225c0,-9.175 -3.06032,-18.03182 -4.07226,-27.13929c-1.21386,-8.49452 -1.30594,-17.30997 -1.30594,-25.90089c0,0 0,-0.97364 0.97364,-0.97364c0.97364,0 0.97364,0.97364 0.97364,0.97364c0,8.51022 0.08881,17.24193 1.29043,25.65565c1.02151,9.19365 4.08777,18.11726 4.08777,27.38453c-0.00257,1.28928 0.17895,2.48167 0.36113,3.75686l0.00979,0.69406c0,0 0,0.97364 -0.97364,0.97364z" fill="#d6d3d6" stroke="none" stroke-width="0.5" stroke-linecap="butt"/><path d="M275.01474,211.71983c0.22886,0.1282 0.44544,0.37082 0.44544,0.83003c0,0.97364 -0.97364,0.97364 -0.97364,0.97364l-1.08946,-0.61204c-0.88366,-2.21478 -1.88634,-4.32731 -2.28253,-6.69657c-0.81342,-4.86432 -0.56894,-9.86108 -0.56894,-14.80692c0,0 0,-0.97364 0.97364,-0.97364c0.97364,0 0.97364,0.97364 0.97364,0.97364c0,4.84135 -0.2467,9.73459 0.54379,14.495c0.3413,2.05533 1.19275,3.90615 1.97805,5.81687z" fill="#d6d3d6" stroke="none" stroke-width="0.5" stroke-linecap="butt"/><path d="M255.47832,191.02652c-1.17949,0.73718 -1.91667,-0.44231 -1.91667,-0.44231l-0.76115,-1.26808c-2.08489,-1.44001 -3.43777,-1.34134 -5.87086,-1.05506c-0.98343,0.11571 -1.99522,0.07703 -2.95201,0.33208c-3.09438,0.82485 -5.86034,3.6644 -7.82619,6.03887c0,0 -0.89044,1.06853 -1.95897,0.17809c-1.06853,-0.89044 -0.17809,-1.95897 -0.17809,-1.95897c1.77778,-2.12142 3.90745,-4.22739 6.2763,-5.67368c4.31714,-2.63581 10.52809,-2.68616 14.53657,0.23318l1.0934,1.6992c0,0 0.73718,1.17949 -0.44231,1.91667z" fill="#342b37" stroke="none" stroke-width="0.5" stroke-linecap="butt"/><path d="M249.98115,190.10098c-2.63038,-0.40373 -5.36497,0.37304 -7.81441,1.36517c-0.22711,0.45936 -0.70046,0.77526 -1.24759,0.77526c-0.76818,0 -1.39091,-0.62273 -1.39091,-1.39091c0,-0.04937 0.00257,-0.09813 0.00759,-0.14616c-0.22624,-1.0482 0.83542,-1.5032 0.83542,-1.5032c1.29284,-0.55407 2.60061,-1.02066 3.9241,-1.35103c0.17958,-0.38325 0.52885,-0.67115 0.95107,-0.76697l1.45541,-0.36385l0.00945,0.03781l0.07249,-0.05569c1.18999,-0.13485 4.16452,-0.45557 4.99178,1.01471c0.05292,0.01289 0.10587,0.0261 0.15884,0.03965l0.16034,0.29207l0.10035,-0.12041l1.10457,0.92047c0.31055,0.25509 0.50863,0.64208 0.50863,1.07533c0,0.76818 -0.62273,1.39091 -1.39091,1.39091c-0.25991,0 -0.50317,-0.07129 -0.7113,-0.19538l-1.27698,-0.7297l0.01793,-0.03138c-0.04049,-0.01076 -0.08088,-0.02202 -0.12117,-0.03378c-0.13486,-0.0394 -0.24463,-0.12232 -0.34472,-0.22291z" fill="url(#color-5)" stroke="none" stroke-width="0.5" stroke-linecap="butt"/><path d="M235.95822,165.98891c-0.83455,1.11273 -1.94728,0.27818 -1.94728,0.27818l-0.95962,-0.73473c-1.94479,-0.77792 -4.10075,-2.09995 -5.6028,-3.5827c-1.43623,-1.41779 -2.4478,-2.59093 -4.41178,-3.37187c-2.70434,-2.00968 -6.01451,-3.84597 -9.06839,-5.22917c-1.3904,-0.62976 -3.45957,-1.91493 -4.97874,-2.10348c-0.94248,-0.11698 -1.66624,0.91972 -2.54285,1.28512c-2.1857,0.91107 -4.26929,2.27757 -6.47908,3.0906c-0.72185,0.26558 -1.52016,0.42901 -2.1205,0.90984c0,0 -1.11273,0.83455 -1.94728,-0.27818c-0.83455,-1.11273 0.27818,-1.94728 0.27818,-1.94728c0.85868,-0.6172 1.89152,-0.95827 2.88679,-1.31563c2.1462,-0.77061 4.19397,-2.14505 6.31732,-3.02942c0.74604,-0.31072 2.7497,-1.53868 3.57717,-1.49671c1.86188,0.09443 4.44286,1.56964 6.14857,2.34745c3.11624,1.42102 6.5535,3.26757 9.29168,5.34177c3.8896,1.56481 6.05729,5.37165 10.01458,6.95457l1.26584,0.93437c0,0 1.11273,0.83455 0.27818,1.94728z" fill="#342b37" stroke="none" stroke-width="0.5" stroke-linecap="butt"/><path d="M293.61442,155.56829c0.09722,0.05138 1.21052,0.67226 0.61533,1.86263c-0.62203,1.24407 -1.86611,0.62203 -1.86611,0.62203l-1.29823,-1.24947c-0.40847,-2.43227 -2.15523,-3.20997 -4.09645,-4.37507c-1.45777,-0.87493 -2.90868,-1.87348 -4.69072,-2.02444c-2.96898,-0.25151 -5.83622,0.8644 -8.78051,0.81617c-1.4607,0.6147 -3.18323,1.35915 -4.72911,1.6691c-0.39709,0.07962 -0.8266,-0.16403 -1.2141,-0.04628c-1.35799,0.41267 -2.88385,2.28455 -4.06978,3.14143c-2.37451,1.71565 -3.51858,4.05029 -5.27014,6.38579c-1.96754,2.62349 -3.23774,4.08657 -2.53243,7.51871c0,0 0.27278,1.3639 -1.09112,1.63668c-1.3639,0.27278 -1.63668,-1.09112 -1.63668,-1.09112c-0.45362,-2.32058 -0.47026,-4.64644 0.70772,-6.79606c0.41096,-0.74995 1.89625,-2.36291 2.3235,-2.93256c1.93651,-2.58191 3.2219,-5.03884 5.85717,-6.96698c1.47263,-1.07747 3.09788,-2.92445 4.83207,-3.53496c0.49314,-0.1736 1.05502,0.056 1.56773,-0.04628c1.54428,-0.30808 3.24771,-1.10008 4.72911,-1.6691c3.20496,-0.04239 6.34947,-1.15651 9.57955,-0.85293c2.22113,0.20875 4.04277,1.32434 5.88023,2.42648c2.5053,1.50272 4.35274,2.74423 5.18297,5.50624z" fill="#342b37" stroke="none" stroke-width="0.5" stroke-linecap="butt"/><path d="M206.94863,165.8948c4.89731,-2.2603 16.39847,5.1015 16.39847,5.1015l8.9718,4.24544c0,0 -5.12108,3.43291 -8.45676,2.55928c-3.33567,-0.87363 -14.9106,-8.6793 -14.9106,-8.6793l-1.55782,-2.44801" fill="url(#color-6)" stroke="#ca1414" stroke-width="1.5" stroke-linecap="round"/><path d="M287.33491,165.30785l-1.55782,2.44801c0,0 -11.57492,7.80567 -14.9106,8.6793c-3.33567,0.87363 -8.45676,-2.55928 -8.45676,-2.55928l8.9718,-4.24544c0,0 11.50115,-7.3618 16.39847,-5.1015" data-paper-data="{&quot;index&quot;:null}" fill="url(#color-7)" stroke="#ca1414" stroke-width="1.5" stroke-linecap="round"/><path d="M276.28198,179.48974c-0.34499,-0.15038 0.78189,-0.85074 0.78189,-0.85074l0.66856,-0.38942c1.79111,-0.8785 2.29606,-1.52927 3.45978,-2.4992c2.30376,-1.92015 3.23973,-3.39382 4.26117,-4.86839c0.43779,-0.63201 0.82669,-1.12429 0.94118,-1.60654c0,0 0.0982,-0.39973 1.27261,-0.99415c1.1744,-0.59442 1.07621,-0.19468 1.07621,-0.19468c-0.13657,0.54032 -0.56171,1.11857 -1.04569,1.81704c-1.147,1.65535 -2.24808,3.29588 -4.84559,5.46081c-1.10076,0.91744 -2.00975,1.84669 -3.71247,2.85843c-0.52345,0.31103 -1.06906,0.55077 -1.60359,0.82616l0.21781,-0.10928c0,0 -1.12688,0.70036 -1.47186,0.54998z" fill="url(#color-8)" stroke="none" stroke-width="0.5" stroke-linecap="butt"/><path d="M219.05309,183.15014l0.21781,0.10928c-0.53453,-0.27538 -1.08014,-0.51513 -1.60359,-0.82615c-1.70271,-1.01174 -2.61171,-1.94099 -3.71247,-2.85843c-2.59751,-2.16494 -3.69859,-3.80545 -4.84559,-5.46081c-0.48398,-0.69847 -0.90912,-1.27673 -1.04569,-1.81705c0,0 -0.0982,-0.39974 1.07621,0.19468c1.17441,0.59442 1.27261,0.99415 1.27261,0.99415c0.11448,0.48225 0.50338,0.97453 0.94118,1.60654c1.02144,1.47457 1.9574,2.94825 4.26117,4.86839c1.16371,0.96993 1.66866,1.6207 3.45978,2.4992l0.66856,0.38942c0,0 1.12688,0.70036 0.7819,0.85074c-0.34499,0.15039 -1.47186,-0.54998 -1.47186,-0.54998z" data-paper-data="{&quot;index&quot;:null}" fill="url(#color-9)" stroke="none" stroke-width="0.5" stroke-linecap="butt"/></g></g></svg>