<svg version="1.1" xmlns="http://www.w3.org/2000/svg" xmlns:xlink="http://www.w3.org/1999/xlink" width="71.34643" height="50.40284" viewBox="0,0,71.34643,50.40284"><g transform="translate(-198.41848,-161.39396)"><g data-paper-data="{&quot;isPaintingLayer&quot;:true}" fill-rule="nonzero" stroke-linejoin="miter" stroke-miterlimit="10" stroke-dasharray="" stroke-dashoffset="0" style="mix-blend-mode: normal"><path d="M200.3823,188.26492c0,0 2.54284,-1.71268 2.46326,-2.84306c-0.02695,-0.38275 1.11988,-1.62362 0.09026,-1.76936c-1.00061,-0.14163 -4.17401,0.81583 -4.5002,0.19087c-0.28799,-0.55176 3.14436,-1.36104 3.34131,-2.10144c0.38641,-1.45261 -2.05328,-2.83285 -2.05328,-2.83285l6.69853,1.04084c0,0 -2.48221,-1.61186 -2.46009,-2.80205c0.01525,-0.82053 3.75448,-0.52259 4.31515,-1.97278c0.73498,-1.90102 -1.66394,-5.50651 -1.66394,-5.50651l3.20871,1.32478c0,0 3.27021,0.0198 2.80191,-0.23038c-5.4543,-2.9139 -1.44615,-3.59084 -1.44615,-3.59084l4.97812,1.69887l1.25698,-0.63089l2.73884,-2.54877l-0.87143,4.98707l7.6254,0.98657l-0.82887,2.11849l3.44004,3.93849l-2.80872,0.32368l-0.66822,7.76165l-5.87688,-1.80547c0,0 3.91635,3.15895 3.75885,4.0603c-0.09135,0.52281 -3.20335,-1.14408 -4.23268,-0.69346c-1.34673,0.58956 -0.67871,3.22896 -0.67871,3.22896l-6.31221,-1.93921c0,0 4.0687,2.13931 4.68414,3.26863c0.38244,0.70178 -1.3864,1.32707 -1.68237,2.21994c-0.24888,0.75079 0.99248,1.84086 0.99248,1.84086l2.79428,2.38403l-2.97739,1.28892l-0.2811,1.60873l-5.43434,-3.02558l-1.15898,2.69511c0,0 -1.69739,-4.16615 -3.03891,-5.20001c-1.20382,-0.92774 -4.64194,-0.71936 -4.64194,-0.71936l-1.93807,0.59116c0,0 2.32794,-3.42074 2.39486,-4.76311c0.02036,-0.40839 -3.15794,0.36007 -3.70162,-0.21074c-0.477,-0.50081 1.67297,-2.37205 1.67297,-2.37205z" fill-opacity="0.78226" fill="#8cedf3" stroke="none" stroke-width="0" stroke-linecap="round"/><path d="M250.51646,189.57466c-0.03802,0.24908 -0.10987,0.5141 -0.22717,0.79192c-0.72655,1.72079 -1.74371,0.49165 -1.74371,0.49165c-2.27237,-2.94693 -3.69209,-10.31436 -0.86108,-14.06482c0.47254,-0.62602 3.50417,-1.79105 4.09471,-2.04996c5.08307,-2.2286 9.6927,-3.94899 14.95626,-2.84221l0.05426,0.04642l0.00356,-0.02709l1.46875,0.55217c0.57199,0.19405 1.00287,1.04858 1.00287,2.07337c0,0.64728 -0.1719,1.22663 -0.44268,1.61453l-1.15488,1.67467l-0.26351,-0.52009c-0.98462,1.35716 -1.97395,2.24664 -3.19022,4.12388c-0.03166,0.04887 -0.06822,0.10206 -0.10861,0.15792c3.452,0.98643 4.34557,6.93986 3.83058,12.16147c-0.12214,1.23838 0.15061,2.89668 -0.42033,3.69876c-0.60803,0.85418 -1.5782,0.28554 -2.36752,0.21772c-2.23405,-0.19196 -4.46159,-0.52163 -6.73986,-0.54602c-2.83328,-1.18143 -5.27095,-5.63067 -7.8914,-7.55427z" fill="#27d3fe" stroke="#0499be" stroke-width="1" stroke-linecap="butt"/><path d="M262.78537,186.59537c0,13.228 -9.27881,23.95143 -20.72481,23.95143c-11.446,0 -20.72481,-10.72342 -20.72481,-23.95142c0,-13.228 9.27881,-23.95142 20.72481,-23.95142c11.446,0 20.72481,10.72342 20.72481,23.95143z" fill="#27d3fe" stroke="#04acd6" stroke-width="2.5" stroke-linecap="butt"/><path d="M258.52556,173.14256c0.1615,-0.08269 0.36435,-0.13462 0.61913,-0.13462c1.25,0 1.25,1.25 1.25,1.25l-1.49515,1.47393c-1.48398,-0.30502 -2.90401,-0.22742 -4.42271,-0.24007c-3.97796,-1.29024 -7.94962,-1.4006 -12.06474,-1.72553c-4.84646,-0.38267 -9.37745,-1.48495 -14.29257,-1.48495c0,0 -1.25,0 -1.25,-1.25c0,-1.25 1.25,-1.25 1.25,-1.25c4.98223,0 9.58977,1.12663 14.49877,1.49347c4.14794,0.30996 8.26674,0.37634 12.25899,1.74929c1.26275,-0.01326 2.43411,-0.03347 3.64827,0.11848z" fill="#04acd6" stroke="none" stroke-width="0.5" stroke-linecap="butt"/><path d="M261.13928,197.58886c0,1.25 -1.25,1.25 -1.25,1.25l-0.96064,-0.0894c-0.70373,-0.29837 -1.49241,-0.41985 -2.25685,-0.40716c-0.00598,0.00016 -0.00912,0.00016 -0.00912,0.00016c0,0 -0.00183,0 -0.00534,-0.00007l-1.72026,-0.02248c-1.69906,-0.65633 -3.50865,-1.15092 -5.29668,-1.50853c-1.61289,-0.55468 -2.67306,-0.21794 -4.32016,-0.46661c-1.76597,-0.26661 -3.37278,-1.10143 -5.08136,-1.5114c-2.26098,-0.54252 -4.28329,0.20607 -6.51383,0.03001c-4.28658,-0.33834 -8.31363,-1.85824 -12.40216,-3.02225c0,0 -1.2019,-0.3434 -0.8585,-1.54531c0.3434,-1.2019 1.54531,-0.8585 1.54531,-0.8585c3.93821,1.12892 7.79731,2.56792 11.92156,2.93458c1.51635,0.13481 2.88842,-0.34794 4.43365,-0.25055c2.61252,0.16467 4.76628,1.3487 7.30209,1.74758c1.66437,0.2618 2.93956,-0.01725 4.61508,0.5262c1.72342,0.34468 3.5074,0.79478 5.12778,1.46989l1.24299,-0.02238c0.00644,-0.00018 0.00984,-0.00018 0.00984,-0.00018c0.00185,0.00002 0.0037,0.00005 0.00555,0.00007c1.0807,0.0147 2.17983,0.19879 3.1889,0.58573l0.03216,-0.0894c0,0 1.25,0 1.25,1.25z" fill="#04acd6" stroke="none" stroke-width="0.5" stroke-linecap="butt"/><path d="M256.95813,203.34872c0.69338,1.04006 -0.34669,1.73344 -0.34669,1.73344l-1.43798,0.70634c-0.8317,-0.0037 -1.67039,0.05647 -2.48507,0.22393c-1.21515,0.24303 -2.73496,0.7799 -3.96816,0.76888c-2.96993,-0.02653 -5.53901,-2.84945 -8.329,-3.78429c-4.94408,-1.65661 -10.63918,-1.42794 -15.74653,-1.42794c0,0 -1.25,0 -1.25,-1.25c0,-1.25 1.25,-1.25 1.25,-1.25c5.38538,0 11.30778,-0.17942 16.51964,1.55048c1.38999,0.46136 3.53867,1.32482 4.76918,2.13079c1.00332,0.65716 1.41147,1.5511 2.7867,1.53096c1.0901,-0.01597 2.40629,-0.50601 3.47787,-0.72033c0.97744,-0.19104 1.97943,-0.26872 2.97536,-0.27248l0.05123,-0.28647c0,0 1.04006,-0.69338 1.73344,0.34669z" fill="#04acd6" stroke="none" stroke-width="0.5" stroke-linecap="butt"/><path d="M260.78466,179.83146c0.15725,-0.07537 0.35218,-0.12209 0.59383,-0.12209c1.25,0 1.25,1.25 1.25,1.25l-1.49515,1.47393c-4.24492,-0.84898 -8.48082,-0.21377 -12.78449,-0.23001c-3.08055,-0.60226 -5.61786,-1.73261 -8.49936,-2.80111c-1.96949,-0.73032 -4.20893,-0.04283 -6.17881,-0.73528c-3.20006,-1.12488 -6.55755,-2.92617 -10.01878,-2.91076c0,0 -1.25,0 -1.25,-1.25c0,-1.25 1.25,-1.25 1.25,-1.25c3.7212,0.01404 7.4097,1.74706 10.83012,3.04607c1.90713,0.72429 4.24149,0.0413 6.23125,0.75393c2.67865,0.95935 5.03414,2.07466 7.88192,2.65932c4.11184,-0.01831 8.13077,-0.52977 12.18946,0.116z" fill="#04acd6" stroke="none" stroke-width="0.5" stroke-linecap="butt"/><path d="M261.75193,192.06582c0.55902,1.11803 -0.55902,1.67705 -0.55902,1.67705l-1.30056,0.35589c-2.82927,-0.58154 -5.77366,-0.5069 -8.6474,-0.98554c-1.37203,-0.22867 -3.21321,-0.25745 -4.49228,-0.82275c-0.87994,-0.3889 -2.74199,-2.06793 -3.79302,-2.13974c-0.39313,-0.02686 -0.68171,0.46439 -1.07477,0.49225c-3.00603,0.21304 -6.59059,-2.17701 -9.54566,-2.74981c-3.50116,-0.67865 -7.12991,-0.47157 -10.67293,-0.47157c0,0 -1.25,0 -1.25,-1.25c0,-1.25 1.25,-1.25 1.25,-1.25c3.71394,0 7.49896,-0.1904 11.16878,0.52124c2.28243,0.4426 4.65206,1.29242 6.85786,2.02798c0.03034,0.01012 1.65045,0.72559 1.96338,0.68263c0.49325,-0.06771 0.91209,-0.55258 1.40724,-0.50056c1.63601,0.17189 3.23111,1.66168 4.64583,2.32788c1.05965,0.499 2.79976,0.47533 3.94657,0.66646c2.90783,0.48496 5.85092,0.43801 8.72669,1.00007l-0.30776,-0.14051c0,0 1.11803,-0.55902 1.67705,0.55902z" fill="#04acd6" stroke="none" stroke-width="0.5" stroke-linecap="butt"/><g data-paper-data="{&quot;index&quot;:null}" stroke-width="0" stroke-linecap="butt"><path d="M254.80359,195.67131c-0.00315,2.30899 -2.8436,4.17692 -6.34432,4.17214c-3.50072,-0.00478 -6.33607,-1.88046 -6.33292,-4.18945c0.00315,-2.30899 2.8436,-4.17692 6.34432,-4.17214c3.50072,0.00478 6.33607,1.88046 6.33292,4.18945z" fill="#0f0f0f" stroke="#029f0f"/><path d="M252.37769,194.45421c-0.00122,0.8938 -1.08906,1.61688 -2.42976,1.61505c-1.3407,-0.00183 -2.42656,-0.72788 -2.42534,-1.62169c0.00122,-0.8938 1.08906,-1.61688 2.42976,-1.61505c1.3407,0.00183 2.42656,0.72788 2.42534,1.62169z" fill="#ece4e4" stroke="none"/></g><g data-paper-data="{&quot;index&quot;:null}" stroke-width="0" stroke-linecap="butt"><path d="M255.05179,175.07061c-0.00315,2.30899 -2.8436,4.17692 -6.34432,4.17214c-3.50072,-0.00478 -6.33607,-1.88046 -6.33292,-4.18945c0.00315,-2.30899 2.8436,-4.17692 6.34432,-4.17214c3.50072,0.00478 6.33607,1.88046 6.33292,4.18945z" fill="#0f0f0f" stroke="#029f0f"/><path d="M252.62589,173.85351c-0.00122,0.8938 -1.08906,1.61688 -2.42976,1.61505c-1.3407,-0.00183 -2.42656,-0.72788 -2.42534,-1.62169c0.00122,-0.8938 1.08906,-1.61688 2.42976,-1.61505c1.3407,0.00183 2.42656,0.72788 2.42534,1.62169z" fill="#ece4e4" stroke="none"/></g><path d="M262.63029,185.59764c0,1.25 -1.25,1.25 -1.25,1.25l-0.32091,-0.00965c-3.60904,-0.45816 -7.28078,-0.29967 -10.9022,-0.65867c-3.60253,-0.27703 -7.51828,-0.52124 -11.0665,-1.17745c-2.95769,-0.54699 -5.62263,-1.93999 -8.52972,-2.66916c-2.6167,-0.65634 -5.31352,-0.6269 -7.99315,-0.6269c0,0 -1.25,0 -1.25,-1.25c0,-1.25 1.25,-1.25 1.25,-1.25c2.88554,0 5.7756,-0.00231 8.59338,0.70002c2.86166,0.71327 5.48738,2.08576 8.38854,2.63854c3.45681,0.65865 7.31012,0.87399 10.82772,1.14466c3.65636,0.36899 7.34407,0.21859 10.99203,0.66826l0.01082,-0.00966c0,0 1.25,0 1.25,1.25z" fill="#04acd6" stroke="none" stroke-width="0.5" stroke-linecap="butt"/><g stroke-linecap="butt"><path d="M216.56782,194.23825c-4.97785,-0.99985 -7.56943,-5.84809 -6.31538,-11.14889c1.25405,-5.3008 5.87885,-9.04686 10.8567,-8.04702c1.44898,0.29104 2.73196,0.93014 3.79187,1.82074c-2.39065,3.08521 -4.51649,7.72658 -5.64441,11.81006c-0.32487,0.64649 -0.57929,1.33511 -0.75251,2.05953c-0.29676,1.24104 -0.32935,2.47902 -0.13233,3.66412c-0.59465,0.01405 -1.19799,-0.03683 -1.80393,-0.15854z" fill="#27d3fe" stroke="#04acd6" stroke-width="1.5"/><path d="M220.19483,179.58398c-2.07144,-0.5767 -3.93746,-1.41421 -6.07504,-1.84356c0,0 -0.54362,-0.10919 -0.42512,-0.6101c0.1185,-0.50091 0.66213,-0.39172 0.66213,-0.39172c2.16677,0.43521 4.06377,1.28917 6.16391,1.86499c0.90522,0.24819 1.81315,0.47032 2.69866,0.74772c-0.1814,0.30371 -0.35984,0.61439 -0.53492,0.9309c-0.81533,-0.25199 -1.64766,-0.46382 -2.48962,-0.69823z" fill="#04acd6" stroke="none" stroke-width="0.5"/><path d="M217.25249,187.83628c-0.93186,-0.41491 -1.88233,-0.29158 -2.8357,-0.55698c-1.83215,-0.51003 -3.43942,-1.47087 -5.10717,-2.29446c0,0 -0.49015,-0.2426 -0.22686,-0.69424c0.26329,-0.45164 0.75344,-0.20904 0.75344,-0.20904c1.6057,0.7964 3.14759,1.71015 4.90646,2.21735c0.64668,0.18648 1.28916,0.11288 1.95194,0.28689c1.0466,0.27478 1.83486,0.87094 2.80208,1.25915c-0.08437,0.27815 -0.16447,0.55442 -0.24009,0.82819c-0.02666,0.05306 -0.05285,0.10641 -0.07856,0.16004c-0.6813,-0.26856 -1.26638,-0.70343 -1.92554,-0.99691z" fill="#04acd6" stroke="none" stroke-width="0.5"/><path d="M216.54481,191.12097c-1.99312,-1.09573 -4.49159,-1.50158 -6.71277,-1.94773c0,0 -0.54362,-0.10919 -0.42512,-0.6101c0.1185,-0.50091 0.66213,-0.39172 0.66213,-0.39172c2.34209,0.47043 4.93475,0.91587 7.03738,2.06436c0.37873,0.20687 0.89058,0.51747 1.32431,0.82994c-0.0964,0.47866 -0.15391,0.95619 -0.17451,1.42974c-0.56596,-0.48027 -1.09774,-1.03713 -1.71142,-1.3745z" fill="#04acd6" stroke="none" stroke-width="0.5"/><path d="M218.54606,181.61859c-0.78729,-0.4647 -1.8264,-0.38483 -2.61745,-0.83439c-1.28506,-0.7303 -2.57446,-1.74542 -4.08121,-2.04159c0,0 -0.54362,-0.10919 -0.42512,-0.6101c0.1185,-0.50091 0.66213,-0.39172 0.66213,-0.39172c1.61701,0.33069 3.05684,1.34735 4.42123,2.16669c0.76074,0.45684 1.8407,0.38706 2.63849,0.84644c0.87485,0.50376 1.64663,1.03025 2.54222,1.46927c-0.14881,0.3112 -0.29404,0.62544 -0.43537,0.94181c-0.95406,-0.45709 -1.77926,-1.00004 -2.70492,-1.54641z" fill="#04acd6" stroke="none" stroke-width="0.5"/><path d="M218.87967,186.19749c-0.16843,-0.0451 -0.3405,0.12654 -0.51408,0.10337c-1.32752,-0.17722 -2.65985,-1.44809 -3.89071,-1.93577c-1.45831,-0.57779 -3.05608,-0.81179 -4.59694,-1.12129c0,0 -0.54362,-0.10919 -0.42512,-0.6101c0.1185,-0.50091 0.66213,-0.39172 0.66213,-0.39172c1.61519,0.32443 3.27934,0.57876 4.80787,1.18451c0.95067,0.37674 1.90065,0.92428 2.79022,1.41172c0.01224,0.00671 0.64899,0.43494 0.78916,0.44506c0.22093,0.01595 0.44905,-0.14176 0.65946,-0.07766c0.36657,0.11167 0.69345,0.36918 1.00152,0.64494c-0.128,0.35125 -0.25026,0.70195 -0.36635,1.05087c-0.30515,-0.3023 -0.64717,-0.63163 -0.91717,-0.70393z" fill="#04acd6" stroke="none" stroke-width="0.5"/><path d="M217.68519,183.79624c-1.23444,-0.47756 -2.26136,-1.26856 -3.45652,-1.8147c-1.07578,-0.49159 -2.25141,-0.71537 -3.41678,-0.94944c0,0 -0.54362,-0.10919 -0.42512,-0.6101c0.1185,-0.50091 0.66213,-0.39172 0.66213,-0.39172c1.25492,0.25206 2.51202,0.50359 3.67089,1.03118c1.17691,0.5358 2.18872,1.31516 3.39802,1.7901c0.90098,0.35385 1.88581,0.65178 2.86508,0.92702c-0.13592,0.31813 -0.26774,0.63777 -0.39515,0.95802c-0.99023,-0.28121 -1.9846,-0.58523 -2.90254,-0.94035z" fill="#04acd6" stroke="none" stroke-width="0.5"/></g><path d="M228.08827,183.81106c0.03314,-0.14216 0.0661,-0.28439 0.09865,-0.42456c-0.07753,0.16972 -0.12488,0.29991 -0.11301,0.35905c0.0044,0.02195 0.00919,0.0438 0.01436,0.06551zM223.86766,186.60289c1.32618,-1.77862 0.92108,-3.18721 1.04907,-5.25899c0.03424,-0.55433 -0.49129,1.763 -0.96481,3.08744c-0.15611,0.43664 -0.248,0.88028 -0.372,1.32042c0.00796,0.3269 0.11371,0.61461 0.28774,0.85113zM221.94207,188.34677c-0.24219,-0.51466 -0.40681,-1.13184 -0.4709,-1.84629c0.49484,-1.93361 2.16009,-8.17183 4.24239,-8.65456c1.11055,-0.25745 1.51074,1.22209 1.51982,3.03671c0.69244,-1.34136 1.57127,-2.42345 2.38529,-2.41955c0.32716,0.00157 0.55423,0.21364 0.70404,0.56156c0.36252,-0.39428 0.72503,-0.78856 1.08755,-1.18285c1.01566,0.99194 1.77751,1.03734 1.62208,3.30543c-0.12258,1.78879 -1.85611,5.5689 -3.32836,6.40606c-0.22876,0.13008 -0.62104,0.08134 -1.03883,-0.04843c-1.55157,2.38984 -3.60914,3.13478 -5.1314,2.47308c-1.67452,1.60361 -3.56898,2.51166 -4.70382,1.61998c-1.7628,-1.38508 -1.65706,-5.47446 -0.38818,-8.67853c0,0 0.60337,-1.4713 1.48168,-1.16549c0.87831,0.30581 0.27494,1.77711 0.27494,1.77711c-1.42488,3.29695 -0.33966,5.85038 1.74369,4.81577zM230.48586,182.0675c-0.10144,0.92526 -0.28203,1.82575 -0.45537,2.41893c0.54094,-0.65307 0.63414,-1.78509 0.72726,-2.66689c-0.07697,0.08256 -0.16348,0.16274 -0.26068,0.2392c-0.00375,0.00295 -0.00748,0.00587 -0.01121,0.00876zM226.33154,186.1002c-0.18073,0.39812 -0.39516,0.79827 -0.63601,1.19223c0.45294,-0.06439 0.91208,-0.27353 1.30231,-0.658c-0.21384,-0.17906 -0.46492,-0.3282 -0.6663,-0.53422z" fill="#ab7809" stroke="#8e6201" stroke-width="0.5" stroke-linecap="butt"/><path d="M242.66181,207.23658l-1.67705,0.55902l-1.0841,-0.54617l-5.10688,-8.32187l1.25,-1.25l1.25,1.25l3.89312,6.17813l0.9159,0.45383l0.55902,1.67705z" fill="#a4f7e8" stroke="none" stroke-width="0.5" stroke-linecap="butt"/><g fill="#ab7809" stroke="#8e6201" stroke-width="0.5" stroke-linecap="butt"><path d="M222.5109,172.03464c0.64642,0.22507 -0.9357,5.54331 -3.53376,11.87863c-2.59807,6.33532 -5.22824,11.28865 -5.87466,11.06358c-0.64642,-0.22507 0.9357,-5.54331 3.53376,-11.87863c2.59807,-6.33532 5.22824,-11.28865 5.87466,-11.06358z"/><path d="M215.39671,189.97546c1.58667,0.55244 2.31488,2.36105 1.62651,4.03964c-0.68838,1.67859 -2.53267,2.59151 -4.11934,2.03907c-1.58667,-0.55244 -2.31488,-2.36105 -1.62651,-4.03964c0.68838,-1.67859 2.53267,-2.59151 4.11934,-2.03907z"/><path d="M217.80501,185.88409c1.64544,0.5729 2.5833,2.00304 2.09477,3.19429c-0.48853,1.19126 -2.21844,1.69253 -3.86388,1.11963c-1.64544,-0.5729 -2.5833,-2.00304 -2.09477,-3.19429c0.48853,-1.19126 2.21844,-1.69253 3.86388,-1.11963z"/><path d="M219.40815,182.42073c1.91448,0.66658 3.07852,2.15298 2.59995,3.31997c-0.47857,1.16699 -2.41853,1.57265 -4.33301,0.90607c-1.91448,-0.66658 -3.07852,-2.15298 -2.59995,-3.31997c0.47857,-1.16699 2.41853,-1.57265 4.33301,-0.90607z"/><path d="M219.71309,178.25901c1.53159,0.53326 2.40327,1.86759 1.94696,2.9803c-0.45631,1.11271 -2.06783,1.58244 -3.59941,1.04918c-1.53159,-0.53326 -2.40327,-1.86759 -1.94696,-2.9803c0.45631,-1.11271 2.06783,-1.58244 3.59941,-1.04918z"/><path d="M220.09375,175.69604c1.44323,0.5025 2.24328,1.81188 1.78696,2.92459c-0.45631,1.11271 -1.9962,1.60738 -3.43942,1.10488c-1.44323,-0.5025 -2.24328,-1.81188 -1.78696,-2.92459c0.45631,-1.11271 1.9962,-1.60738 3.43942,-1.10488z"/><path d="M221.69288,171.648c1.53159,0.53326 2.3762,1.93359 1.8865,3.12772c-0.4897,1.19413 -2.12828,1.72986 -3.65987,1.1966c-1.53159,-0.53326 -2.3762,-1.93359 -1.8865,-3.12772c0.4897,-1.19413 2.12828,-1.72986 3.65987,-1.1966z"/></g><path d="M200.44125,188.7947l-0.65865,-9.35584l6.69854,1.04084l0.19112,-10.28135l3.20871,1.32478l1.35575,-3.82122l4.97812,1.69887l1.25698,-0.63089l2.73884,-2.54877l-0.87143,4.98707l7.62541,0.98657l-0.82887,2.11849l3.44004,3.93849l-2.80872,0.32368l-0.66822,7.76164l-5.87688,-1.80547l-1.15254,6.5958l-6.31221,-1.93921l3.99425,7.32942l2.79428,2.38403l-2.97739,1.28892l-0.28111,1.60873l-5.43434,-3.02558l-1.15898,2.69511l-7.68085,-5.91937l-1.93807,0.59116z" fill-opacity="0.5" fill="#27d4fe" stroke="none" stroke-width="0" stroke-linecap="round"/></g></g></svg>