<svg version="1.1" xmlns="http://www.w3.org/2000/svg" xmlns:xlink="http://www.w3.org/1999/xlink" width="183.3354" height="212.07111" viewBox="0,0,183.3354,212.07111"><defs><radialGradient cx="260.36013" cy="185.62613" r="39.00129" gradientUnits="userSpaceOnUse" id="color-1"><stop offset="0" stop-color="#4000bf"/><stop offset="1" stop-color="#38a000"/></radialGradient><linearGradient x1="260.36012" y1="152.29279" x2="260.36012" y2="218.95946" gradientUnits="userSpaceOnUse" id="color-2"><stop offset="0" stop-color="#797979"/><stop offset="1" stop-color="#bfbfbf"/></linearGradient><radialGradient cx="256.06694" cy="141.32784" r="16.33333" gradientUnits="userSpaceOnUse" id="color-3"><stop offset="0" stop-color="#b5b5b5"/><stop offset="1" stop-color="#c9c9c9"/></radialGradient><radialGradient cx="241.01332" cy="127.91966" r="9.88289" gradientUnits="userSpaceOnUse" id="color-4"><stop offset="0" stop-color="#bc1818"/><stop offset="1" stop-color="#9b18bc"/></radialGradient><radialGradient cx="237.81102" cy="118.89359" r="7.46965" gradientUnits="userSpaceOnUse" id="color-5"><stop offset="0" stop-color="#bc1818"/><stop offset="1" stop-color="#9b18bc"/></radialGradient><radialGradient cx="204.7889" cy="117.96927" r="10.47714" gradientUnits="userSpaceOnUse" id="color-6"><stop offset="0" stop-color="#569ffe"/><stop offset="1" stop-color="#bfebf3"/></radialGradient></defs><g transform="translate(-120.42626,-59.97273)"><g data-paper-data="{&quot;isPaintingLayer&quot;:true}" fill-rule="nonzero" stroke-linejoin="miter" stroke-miterlimit="10" stroke-dasharray="" stroke-dashoffset="0" style="mix-blend-mode: normal"><g stroke-linecap="butt"><g><path d="M206.88521,219.42046c0,0 -38.52829,20.44763 -52.44597,27.35013c-9.12373,4.52492 -28.05577,12.20079 -28.05577,12.20079l-4.19023,-13.90672l79.02468,-41.08663z" fill="#c70303" stroke="#9966ff" stroke-width="1"/><path d="M134.38572,255.82742c-0.05669,0.00958 -0.11338,0.01825 -0.17013,0.02608l0.00881,0.03838l-2.14627,0.69666c-0.74085,0.24047 -1.49611,-0.23751 -1.68693,-1.06762c-0.15095,-0.65671 0.09656,-1.33707 0.57339,-1.7117l1.26615,-1.04382l0.02636,0.04163l0.06768,-0.11295c2.53272,-1.45956 4.74479,-3.44969 7.27774,-4.98683c7.87819,-3.65277 15.83304,-7.08743 23.707,-10.7854c6.62908,-4.17037 13.94018,-7.6821 20.78053,-9.92232c0,0 1.34142,-0.43543 1.68694,1.06761c0.34553,1.50303 -0.9959,1.93844 -0.9959,1.93844c-1.14095,0.36659 -0.98052,2.28501 -2.13262,2.72474c-0.10683,0.2429 -1.25391,0.3455 -1.45558,0.50396l-1.45042,0.24224c-0.85302,0.70324 -1.84437,0.80518 -2.69757,1.5082c-2.70402,2.40149 -6.21722,2.82925 -9.30852,4.41297c-7.3801,3.78094 -15.48038,10.29226 -23.73692,11.4455c-0.10847,0.05751 -0.21672,0.11507 -0.32482,0.17267l0.06439,0.2801l-1.96743,0.6386c-0.25228,0.08187 -0.50619,0.08045 -0.73893,0.01019c-2.11403,1.28206 -4.70145,3.5542 -6.64693,3.88263z" fill="#870303" stroke="none" stroke-width="0.5"/><path d="M136.03121,245.77578c0.13821,0.6012 -0.39836,0.77537 -0.39836,0.77537l-0.26828,0.08707c-1.52027,0.43048 -2.44269,2.08501 -4.01611,2.59573c0,0 -0.53658,0.17418 -0.67478,-0.42703c-0.13821,-0.6012 0.39835,-0.77537 0.39835,-0.77537c1.54722,-0.50222 2.47175,-2.0538 4.01615,-2.59579l0.2683,-0.0871c0,0 0.53657,-0.17415 0.67477,0.42704z" fill="#0554ff" stroke="none" stroke-width="0.5"/><path d="M144.78646,235.21503c0.36356,0.45986 -0.05453,0.8845 -0.05453,0.8845l-0.3539,0.31686c-0.21694,1.44604 0.60227,2.20761 -1.19662,2.8389c0,0 -0.53657,0.17415 -0.67477,-0.42706c-0.1382,-0.60121 0.39837,-0.77538 0.39837,-0.77538c0.9663,-0.27361 0.28647,-1.09345 0.51875,-2.24043l0.58104,-0.63268c0,0 0.41814,-0.42463 0.78169,0.03519z" fill="#0554ff" stroke="none" stroke-width="0.5"/><path d="M156.61367,233.85798c-0.41812,0.42463 -0.7817,-0.03521 -0.7817,-0.03521l-0.15289,-0.33579c-0.85009,0.62673 -1.08456,0.33633 -1.73321,-0.34414c0,0 -0.36359,-0.45989 0.05453,-0.88452c0.41812,-0.42463 0.7817,0.03523 0.7817,0.03523c0.23544,0.51708 0.6158,0.11536 1.22604,-0.01254l0.66008,0.69247c0,0 0.36356,0.45987 -0.05451,0.8845z" fill="#9b7137" stroke="none" stroke-width="0.5"/><path d="M171.21007,228.5081c-0.11634,0.61563 -0.65806,0.50251 -0.65806,0.50251l-0.60567,-0.12645c-1.20059,-0.25295 -1.79219,-0.64222 -2.97298,-0.25891c0,0 -0.53658,0.17418 -0.6748,-0.42703c-0.1382,-0.60121 0.39836,-0.77536 0.39836,-0.77536c1.37622,-0.44672 2.12271,-0.05076 3.4821,0.23009l0.60568,0.12644c0,0 0.54172,0.11309 0.4254,0.72872z" fill="#0554ff" stroke="none" stroke-width="0.5"/><path d="M175.78604,219.30393c0.13821,0.6012 -0.39835,0.77537 -0.39835,0.77537c-1.07315,0.34834 -2.41455,0.78373 -3.4877,1.1321c0,0 -0.53657,0.17415 -0.67477,-0.42705c-0.13821,-0.60119 0.39836,-0.77539 0.39836,-0.77539c1.07317,-0.34834 2.14627,-0.69666 3.2194,-1.04501l0.26828,-0.08707c0,0 0.53655,-0.17416 0.67477,0.42706z" fill="#0554ff" stroke="none" stroke-width="0.5"/><path d="M177.97097,224.73244c0.0325,-0.17207 0.13209,-0.36592 0.40039,-0.45301c0.53656,-0.17416 0.67477,0.42705 0.67477,0.42705l-0.32925,1.07599c-0.53657,0.17415 -1.07314,0.34832 -1.60971,0.5225c0,0 -0.53658,0.17415 -0.67477,-0.42705c-0.13821,-0.60119 0.39836,-0.77538 0.39836,-0.77538c0.38008,-0.12338 0.76014,-0.24674 1.14022,-0.3701z" fill="#0554ff" stroke="none" stroke-width="0.5"/><path d="M161.26211,228.8639c-0.2683,0.0871 -0.43697,-0.01968 -0.5386,-0.1482c-0.02236,0.00727 -0.04471,0.0145 -0.06706,0.02176c0,0 -0.53655,0.17416 -0.67477,-0.42705c-0.13821,-0.6012 0.39835,-0.77537 0.39835,-0.77537c0.17884,-0.05806 0.35773,-0.1161 0.53657,-0.17415l0.74389,0.72767c0,0 0.13821,0.6012 -0.39834,0.77538z" fill="#9b7137" stroke="none" stroke-width="0.5"/><path d="M159.46487,228.83531c0.36356,0.45986 -0.05453,0.8845 -0.05453,0.8845l-0.3539,0.31687c-0.13294,0.51638 -0.56173,0.96397 -1.00557,1.16172c0,0 -0.53656,0.17417 -0.67477,-0.42703c-0.13821,-0.6012 0.39834,-0.77538 0.39834,-0.77538c0.19595,0.00513 0.30734,-0.34217 0.32772,-0.56323l0.58101,-0.63266c0,0 0.41813,-0.42467 0.7817,0.03521z" fill="#9b7137" stroke="none" stroke-width="0.5"/><path d="M152.51852,238.48585c0.13821,0.60119 -0.39837,0.77538 -0.39837,0.77538c-1.252,0.4064 -3.04055,0.98695 -4.29256,1.39335c0,0 -0.53657,0.17415 -0.67477,-0.42703c-0.13821,-0.60119 0.39838,-0.77537 0.39838,-0.77537c1.25199,-0.40639 2.504,-0.81279 3.75597,-1.21919l0.53657,-0.17415c0,0 0.53658,-0.17418 0.67478,0.42703z" fill="#0554ff" stroke="none" stroke-width="0.5"/><path d="M136.13029,239.41667c-0.25447,0.49532 -0.66848,0.29671 -0.74609,0.25373c-0.84785,0.91135 -1.71821,1.99895 -2.80412,2.38003c0,0 -0.53658,0.17418 -0.6748,-0.42703c-0.1382,-0.60121 0.39836,-0.77537 0.39836,-0.77537c0.97196,-0.27521 1.89895,-1.64542 2.64852,-2.40668l0.98267,0.12508c0,0 0.47714,0.30195 0.19544,0.85025z" fill="#9b7137" stroke="none" stroke-width="0.5"/><path d="M143.5432,243.33742c0.13821,0.6012 -0.39837,0.77537 -0.39837,0.77537c-0.53657,0.17415 -1.34142,0.4354 -1.87799,0.60958c0,0 -0.53657,0.17415 -0.67478,-0.42704c-0.13821,-0.6012 0.39835,-0.77537 0.39835,-0.77537c0.53655,-0.17416 1.07316,-0.34833 1.60971,-0.52251l0.26829,-0.08708c0,0 0.53658,-0.17415 0.6748,0.42706z" fill="#9b7137" stroke="none" stroke-width="0.5"/><path d="M132.25899,244.41592c0.13821,0.60119 -0.39834,0.77538 -0.39834,0.77538l-0.53658,0.17418c-0.51797,0.16814 -0.8179,-0.03097 -0.79968,0.54848c0,0 -0.11634,0.61563 -0.65808,0.50253c-0.54175,-0.11309 -0.4254,-0.72873 -0.4254,-0.72873c0.33897,-1.23938 0.56887,-1.18786 1.60673,-1.52476l0.53656,-0.17416c0,0 0.53657,-0.17415 0.67478,0.42704z" fill="#0554ff" stroke="none" stroke-width="0.5"/><path d="M139.41727,239.18503c0.13821,0.60119 -0.39837,0.77536 -0.39837,0.77536l-0.26828,0.08707c-0.28894,0.08181 -0.56133,0.27353 -0.77866,0.5076c0,0 -0.41812,0.42463 -0.78169,-0.03524c-0.36356,-0.45986 0.05451,-0.8845 0.05451,-0.8845c0.35735,-0.34911 0.78115,-0.63299 1.2294,-0.79031l0.26828,-0.08707c0,0 0.53657,-0.17415 0.67478,0.42704z" fill="#4f340e" stroke="none" stroke-width="0.5"/><path d="M147.61369,237.95045c-0.28168,0.54829 -0.75881,0.24632 -0.75881,0.24632l0.0825,-0.16059c-0.40753,0.13226 -1.02706,0.48523 -1.37362,0.3226c0.06782,0.26953 0.1325,0.54922 0.17041,0.71403c0,0 0.1382,0.60121 -0.39835,0.77537c-0.53656,0.17416 -0.67476,-0.42703 -0.67476,-0.42703c-0.67948,-2.95581 0.72716,-2.17424 1.99993,-2.58739l0.75729,0.26644c0,0 0.47717,0.30197 0.19547,0.85023z" fill="#0554ff" stroke="none" stroke-width="0.5"/><path d="M158.03234,235.01268c-0.41812,0.42463 -0.7817,-0.0352 -0.7817,-0.0352l-0.02693,-0.31335c-1.06531,1.65116 -2.17855,-1.49112 -1.70122,0.58535c0,0 0.1382,0.60122 -0.39838,0.77539c-0.53656,0.17416 -0.67477,-0.42704 -0.67477,-0.42704c-0.77747,-3.38197 1.66005,-1.26174 2.85149,-2.18459l0.78605,0.71491c0,0 0.36356,0.45988 -0.05453,0.88451z" fill="#4f340e" stroke="none" stroke-width="0.5"/><path d="M171.3187,224.95349c0.13821,0.60119 -0.39835,0.7754 -0.39835,0.7754l-0.27513,-0.00718c0.09918,3.15467 -2.24231,2.28844 -3.69711,1.03811c0,0 -0.4325,-0.37647 -0.08619,-0.87652c0.34633,-0.50005 0.77884,-0.12357 0.77884,-0.12357c1.74773,1.54415 1.6485,1.15754 2.20515,-0.87774l0.79803,-0.35552c0,0 0.53656,-0.17416 0.67479,0.42703z" fill="#0554ff" stroke="none" stroke-width="0.5"/><path d="M176.95005,220.64786c0.51353,2.89247 -1.91638,0.38328 -2.33288,1.22859c0,0 -0.4181,0.42464 -0.78169,-0.03519c-0.36356,-0.45986 0.05453,-0.88452 0.05453,-0.88452c1.58306,-1.29041 2.15303,0.73549 1.97515,-0.05518c-0.00129,-0.00487 -0.00189,-0.00745 -0.00189,-0.00745l0.00019,-0.00011c-0.01683,-0.0745 -0.03999,-0.17307 -0.06929,-0.30051l0.57112,-0.02386l0.50202,-0.32447c0.02433,0.10589 0.04558,0.20607 0.06385,0.30083l0.00527,-0.00022c0,0 0.00918,0.0399 0.01362,0.10211z" fill="#0554ff" stroke="none" stroke-width="0.5"/><path d="M165.5872,232.62862c0.13821,0.6012 -0.39836,0.77536 -0.39836,0.77536l-0.04293,-0.05429c-0.79253,0.47992 -0.31692,2.51852 -1.98491,1.00144c0,0 -0.36356,-0.45987 0.05451,-0.88449c0.34153,-0.34687 0.64667,-0.10362 0.74699,-0.00286c0.01359,-0.22422 0.10908,-0.61333 0.45621,-1.03378l0.49366,-0.22846c0,0 0.53657,-0.17415 0.67478,0.42704z" fill="#0554ff" stroke="none" stroke-width="0.5"/><path d="M151.01221,231.12364c-0.12605,0.66693 -0.71291,0.54442 -0.71291,0.54442l-0.51795,-0.1267c-0.84791,0.27522 -0.96947,-0.11205 -1.72081,0.54138c0,0 -0.50408,0.38497 -0.82995,-0.17327c-0.32586,-0.55823 0.17827,-0.94318 0.17827,-0.94318c1.1437,-0.80415 1.23653,-0.41858 2.34817,-0.77941l0.79434,0.14726c0,0 0.58689,0.12253 0.46085,0.78945z" fill="#4f340e" stroke="none" stroke-width="0.5"/><path d="M136.78324,247.79294c0.13821,0.6012 -0.39836,0.77539 -0.39836,0.77539l-0.26829,0.0871c-0.73291,0.23792 -1.52131,0.95485 -1.66552,1.79866c0,0 -0.11632,0.61563 -0.65804,0.50254c-0.54175,-0.11309 -0.42541,-0.72872 -0.42541,-0.72872c0.42416,-1.95753 0.65508,-2.18497 2.47257,-2.77493l0.26829,-0.08709c0,0 0.53658,-0.17414 0.67476,0.42705z" fill="#4f340e" stroke="none" stroke-width="0.5"/></g><g><g><path d="M159.45724,256.52379l-7.76388,2.52012c0,0 -0.72574,-15.85969 -2.52353,-23.68012c-1.85522,-8.07036 -8.44097,-24.01586 -8.44097,-24.01586l7.76386,-2.52012z" fill="#ff0000" stroke="none" stroke-width="0"/><g data-paper-data="{&quot;index&quot;:null}"><path d="M157.85185,256.97057c0,0 -1.24042,-13.38326 -4.39539,-25.4763c-2.06823,-7.92759 -7.81234,-21.29615 -7.81234,-21.29615l10.74768,-3.90661l11.34375,48.01998z" fill="#c70303" stroke="#9966ff" stroke-width="1"/><path d="M152.46089,214.6202c-0.41015,0.08275 -0.4712,-0.37834 -0.4712,-0.37834l-0.03051,-0.23055c-0.13136,-1.30291 -1.1296,-2.17113 -1.30853,-3.52329c0,0 -0.06102,-0.46113 0.34913,-0.54386c0.41015,-0.08275 0.47122,0.37833 0.47122,0.37833c0.17596,1.32959 1.10609,2.19385 1.30855,3.52325l0.03051,0.23052c0,0 0.06102,0.46112 -0.34913,0.54384z" fill="#0554ff" stroke="none" stroke-width="0.5"/><path d="M158.54483,222.5743c-0.3396,0.28022 -0.57759,-0.09521 -0.57759,-0.09521l-0.17341,-0.3154c-0.93147,-0.26311 -1.51561,0.38359 -1.75144,-1.16492c0,0 -0.06102,-0.46112 0.34914,-0.54384c0.41015,-0.08275 0.47119,0.37835 0.47119,0.37835c0.08349,0.82815 0.69208,0.30197 1.4249,0.56133l0.35881,0.52406c0,0 0.23801,0.37541 -0.10157,0.65563z" fill="#0554ff" stroke="none" stroke-width="0.5"/><path d="M158.25384,232.59954c-0.23802,-0.37543 0.10157,-0.65563 0.10157,-0.65563l0.23669,-0.10991c-0.32793,-0.75009 -0.11299,-0.93112 0.40059,-1.43888c0,0 0.33957,-0.28022 0.57759,0.0952c0.23802,0.3754 -0.10158,0.65562 -0.10158,0.65562c-0.36445,0.16925 -0.13779,0.51164 -0.11464,1.0321l-0.52263,0.51669c0,0 -0.33956,0.28023 -0.5776,-0.09521z" fill="#0554ff" stroke="none" stroke-width="0.5"/><path d="M160.31731,245.17696c-0.39417,-0.13218 -0.26531,-0.5816 -0.26531,-0.5816l0.14404,-0.50245c0.28708,-0.99586 0.60298,-1.4719 0.46868,-2.48658c0,0 -0.06102,-0.46109 0.34914,-0.54384c0.41015,-0.08275 0.47122,0.37834 0.47122,0.37834c0.1565,1.18262 -0.17934,1.78855 -0.50075,2.91647l-0.14405,0.50247c0,0 -0.12884,0.44942 -0.523,0.31721z" fill="#0554ff" stroke="none" stroke-width="0.5"/><path d="M165.92593,249.53965c-0.41015,0.08275 -0.47118,-0.37834 -0.47118,-0.37834c-0.12203,-0.92217 -0.27461,-2.07491 -0.39666,-2.99714c0,0 -0.061,-0.4611 0.34914,-0.54387c0.41015,-0.08275 0.4712,0.37836 0.4712,0.37836c0.12203,0.92217 0.24411,1.84437 0.36614,2.76656l0.0305,0.23055c0,0 0.061,0.46109 -0.34915,0.54384z" fill="#0554ff" stroke="none" stroke-width="0.5"/><path d="M162.12848,251.07505c0.11017,0.03696 0.22795,0.13153 0.25848,0.36208c0.06103,0.46107 -0.34914,0.54384 -0.34914,0.54384l-0.67629,-0.33696c-0.06103,-0.46107 -0.12204,-0.92221 -0.18307,-1.3833c0,0 -0.06103,-0.46108 0.34914,-0.54384c0.41015,-0.08275 0.47119,0.37835 0.47119,0.37835c0.04322,0.32661 0.08645,0.65321 0.12966,0.97981z" fill="#0554ff" stroke="none" stroke-width="0.5"/><path d="M161.07993,236.78846c-0.03051,-0.23055 0.05679,-0.36652 0.15169,-0.44484c-0.00255,-0.01918 -0.00508,-0.03842 -0.00762,-0.05762c0,0 -0.06102,-0.46112 0.34915,-0.54384c0.41015,-0.08275 0.47119,0.37835 0.47119,0.37835c0.02034,0.1537 0.04066,0.3074 0.06102,0.46109l-0.55423,0.58523c0,0 -0.41018,0.08271 -0.4712,-0.37837z" fill="#0554ff" stroke="none" stroke-width="0.5"/><path d="M161.27894,235.27812c-0.3396,0.28022 -0.57759,-0.0952 -0.57759,-0.0952l-0.17342,-0.31539c-0.32708,-0.14062 -0.57916,-0.5263 -0.665,-0.9107c0,0 -0.061,-0.4611 0.34915,-0.54387c0.41015,-0.08275 0.47119,0.37835 0.47119,0.37835c-0.02302,0.16455 0.19474,0.27761 0.33842,0.30709l0.35882,0.52405c0,0 0.23802,0.37543 -0.10157,0.65564z" fill="#0554ff" stroke="none" stroke-width="0.5"/><path d="M155.61365,228.89648c-0.41015,0.08275 -0.47118,-0.37833 -0.47118,-0.37833c-0.14241,-1.07589 -0.34582,-2.61285 -0.4882,-3.68877c0,0 -0.06102,-0.46112 0.34914,-0.54384c0.41015,-0.08275 0.4712,0.37835 0.4712,0.37835c0.14241,1.07589 0.28479,2.1518 0.42717,3.22769l0.06105,0.4611c0,0 0.061,0.4611 -0.34916,0.54386z" fill="#0554ff" stroke="none" stroke-width="0.5"/><path d="M156.64286,215.05811c-0.30102,-0.24172 -0.12858,-0.57889 -0.09244,-0.6418c-0.51579,-0.76404 -1.14547,-1.55691 -1.28783,-2.49166c0,0 -0.06103,-0.46109 0.34914,-0.54387c0.41015,-0.08275 0.47119,0.37835 0.47119,0.37835c0.08399,0.83301 0.89428,1.68923 1.32097,2.36224l-0.18097,0.81968c0,0 -0.24689,0.38455 -0.58008,0.11704z" fill="#0554ff" stroke="none" stroke-width="0.5"/><path d="M153.31521,221.07559c-0.41015,0.08275 -0.4712,-0.37835 -0.4712,-0.37835c-0.06103,-0.46107 -0.15255,-1.15274 -0.21359,-1.61383c0,0 -0.06103,-0.46108 0.34915,-0.54384c0.41015,-0.08275 0.4712,0.37834 0.4712,0.37834c0.06103,0.46107 0.12205,0.92222 0.18308,1.38329l0.03052,0.23053c0,0 0.06102,0.46109 -0.34914,0.54384z" fill="#0554ff" stroke="none" stroke-width="0.5"/><path d="M153.73542,211.52261c-0.41015,0.08275 -0.4712,-0.37835 -0.4712,-0.37835l-0.06103,-0.46107c-0.05891,-0.44513 0.10239,-0.68638 -0.28142,-0.70332c0,0 -0.39418,-0.13221 -0.26532,-0.58162c0.12884,-0.44943 0.523,-0.31722 0.523,-0.31722c0.78303,0.35426 0.72603,0.54478 0.84406,1.43664l0.06103,0.46111c0,0 0.06101,0.46109 -0.34915,0.54384z" fill="#0554ff" stroke="none" stroke-width="0.5"/><path d="M156.46608,217.83614c-0.41015,0.08275 -0.4712,-0.37834 -0.4712,-0.37834l-0.03052,-0.23056c-0.02496,-0.24761 -0.12402,-0.48746 -0.25654,-0.68336c0,0 -0.23801,-0.3754 0.10158,-0.65564c0.3396,-0.28022 0.57759,0.0952 0.57759,0.0952c0.1943,0.32007 0.33896,0.69241 0.39774,1.07831l0.0305,0.23055c0,0 0.06102,0.46109 -0.34914,0.54384z" fill="#0554ff" stroke="none" stroke-width="0.5"/><path d="M156.45824,224.80018c-0.33318,-0.26753 -0.08632,-0.6521 -0.08632,-0.6521l0.0976,0.07837c-0.04636,-0.35021 -0.21692,-0.89108 -0.07497,-1.17354c-0.18447,0.04202 -0.37532,0.08088 -0.48776,0.10352c0,0 -0.41021,0.08273 -0.47122,-0.37833c-0.06103,-0.46107 0.34916,-0.54385 0.34916,-0.54385c2.01658,-0.40684 1.36038,0.73294 1.50511,1.82668l-0.25157,0.62219c0,0 -0.2469,0.38456 -0.58008,0.11701z" fill="#0554ff" stroke="none" stroke-width="0.5"/><path d="M157.35044,233.7286c-0.23802,-0.37543 0.10157,-0.65564 0.10157,-0.65564l0.20927,-0.00519c-0.98164,-0.98826 1.20133,-1.74958 -0.21533,-1.4638c0,0 -0.41016,0.08274 -0.4712,-0.37834c-0.06103,-0.46107 0.34916,-0.54385 0.34916,-0.54385c2.30732,-0.46546 0.66532,1.46685 1.15421,2.52059l-0.55009,0.62141c0,0 -0.33957,0.28024 -0.57759,-0.09519z" fill="#0554ff" stroke="none" stroke-width="0.5"/><path d="M162.64958,245.46655c-0.41015,0.08275 -0.4712,-0.37837 -0.4712,-0.37837l0.03233,-0.23102c-2.08947,-0.09242 -1.28374,-2.01392 -0.31373,-3.16808c0,0 0.29151,-0.34284 0.58645,-0.02362c0.29494,0.31922 0.00339,0.66209 0.00339,0.66209c-1.19312,1.38417 -0.9283,1.32226 0.35756,1.90401l0.15435,0.69116c0,0 0.06103,0.46107 -0.34913,0.54383z" fill="#0554ff" stroke="none" stroke-width="0.5"/><path d="M164.92337,250.44393c-1.95817,0.27073 -0.06055,-1.6335 -0.57601,-2.03103c0,0 -0.23802,-0.37539 0.10158,-0.65562c0.3396,-0.28022 0.57761,0.09517 0.57761,0.09517c0.69197,1.40369 -0.70067,1.77023 -0.16162,1.6647c0.00334,-0.0008 0.00512,-0.00118 0.00512,-0.00118l0.00006,0.00016c0.0508,-0.00999 0.11809,-0.02401 0.20503,-0.04152l-0.04152,0.48176l0.16358,0.44041c-0.07225,0.01457 -0.14041,0.02684 -0.20471,0.03693l-0.00037,0.00446c0,0 -0.02721,0.00549 -0.06868,0.00576z" fill="#0554ff" stroke="none" stroke-width="0.5"/><path d="M158.16471,240.21701c-0.41015,0.08275 -0.4712,-0.37834 -0.4712,-0.37834l0.04008,-0.0331c-0.23691,-0.69347 -1.62841,-0.40702 -0.46117,-1.72559c0,0 0.33957,-0.28022 0.57759,0.09519c0.19441,0.30663 0.00346,0.54978 -0.073,0.62855c0.14642,0.02396 0.39335,0.12598 0.63576,0.44144l0.10111,0.42802c0,0 0.06102,0.46109 -0.34915,0.54384z" fill="#0554ff" stroke="none" stroke-width="0.5"/><path d="M160.61781,228.0398c-0.42699,-0.14321 -0.28742,-0.6301 -0.28742,-0.6301l0.13542,-0.42867c-0.09644,-0.72865 0.17105,-0.80935 -0.18439,-1.4778c0,0 -0.20324,-0.44553 0.19739,-0.68854c0.40064,-0.24302 0.60389,0.20252 0.60389,0.20252c0.41543,1.00696 0.15197,1.06355 0.27838,2.01883l-0.17672,0.66005c0,0 -0.13958,0.48686 -0.56659,0.34369z" fill="#0554ff" stroke="none" stroke-width="0.5"/><path d="M151.05578,215.14038c-0.41015,0.08275 -0.47119,-0.37835 -0.47119,-0.37835l-0.0305,-0.23055c-0.08336,-0.62982 -0.47693,-1.33304 -1.01873,-1.50139c0,0 -0.39417,-0.13218 -0.26529,-0.5816c0.12884,-0.44943 0.523,-0.31721 0.523,-0.31721c1.24788,0.46597 1.37467,0.67291 1.58135,2.23473l0.03051,0.23055c0,0 0.06102,0.46109 -0.34915,0.54384z" fill="#0554ff" stroke="none" stroke-width="0.5"/></g></g><g fill="#a8a8a8" stroke="#6b6b6b" stroke-width="1"><path d="M148.48854,246.91047c0.45178,-0.14667 1.07522,0.85323 1.39246,2.23332c0.31726,1.38008 0.20819,2.61773 -0.2436,2.76436c-0.45178,0.14667 -1.07522,-0.85325 -1.39247,-2.23331c-0.31726,-1.38006 -0.2082,-2.61771 0.2436,-2.76435z"/><path d="M149.35783,244.78211c0.49287,-0.15998 1.27816,1.38849 1.75405,3.45862c0.4759,2.0701 0.46212,3.87796 -0.03073,4.03792c-0.49285,0.16 -1.27818,-1.38848 -1.75407,-3.45858c-0.4759,-2.0701 -0.4621,-3.87795 0.03074,-4.03792z"/><path d="M151.14775,243.52981c0.49287,-0.15998 1.35052,1.70312 1.91562,4.16137c0.56511,2.45826 0.62369,4.58074 0.13082,4.74072c-0.49285,0.16 -1.3505,-1.70312 -1.91561,-4.16138c-0.56511,-2.45826 -0.62369,-4.58075 -0.13083,-4.74071z"/><path d="M152.56842,242.06168c0.57501,-0.18662 1.54745,1.86461 2.17205,4.58163c0.62461,2.71703 0.66478,5.07088 0.0898,5.25753c-0.57501,0.18662 -1.54745,-1.86461 -2.17205,-4.58163c-0.62461,-2.71703 -0.66482,-5.07091 -0.0898,-5.25752z"/></g><g fill="#a8a8a8" stroke="#6b6b6b" stroke-width="1"><path d="M141.86846,218.11287c0.45178,-0.14662 1.07522,0.85325 1.39247,2.23331c0.31726,1.38006 0.2082,2.61771 -0.2436,2.76435c-0.45178,0.14662 -1.0752,-0.85325 -1.39245,-2.23332c-0.31725,-1.38007 -0.2082,-2.61771 0.24359,-2.76436z"/><path d="M142.73777,215.98456c0.49285,-0.16 1.27816,1.38848 1.75405,3.45861c0.4759,2.0701 0.46212,3.87796 -0.03073,4.03792c-0.49285,0.16 -1.27816,-1.38849 -1.75405,-3.45862c-0.4759,-2.0701 -0.46213,-3.87793 0.03073,-4.03792z"/><path d="M144.52769,214.73226c0.49285,-0.16 1.35051,1.70313 1.91562,4.16139c0.56511,2.45823 0.62369,4.58074 0.13083,4.74071c-0.49285,0.16 -1.35051,-1.70313 -1.91562,-4.16139c-0.56511,-2.45826 -0.6237,-4.58074 -0.13083,-4.74071z"/><path d="M145.94835,213.26411c0.57501,-0.18662 1.54744,1.86462 2.17205,4.58163c0.62461,2.71703 0.66478,5.07088 0.0898,5.25752c-0.57501,0.18662 -1.54745,-1.86461 -2.17205,-4.58162c-0.62461,-2.71703 -0.66482,-5.07091 -0.0898,-5.25753z"/></g></g><g><path d="M143.29872,265.26015l-6.78635,3.54192c0,0 -2.6762,-14.26265 -5.31374,-21.06249c-2.72186,-7.01714 -10.77237,-20.40892 -10.77237,-20.40892l6.78636,-3.54192z" data-paper-data="{&quot;index&quot;:null}" fill="#ff0000" stroke="none" stroke-width="0"/><g data-paper-data="{&quot;index&quot;:null}"><path d="M134.13458,220.20304l15.97855,41.96255l-9.60382,4.60578c0,0 -2.6083,-13.45924 -5.10707,-20.52117c-3.81174,-10.7725 -9.63188,-21.14747 -9.63188,-21.14747z" fill="#c70303" stroke="#9966ff" stroke-width="1"/><path d="M143.66568,259.08776l0.09376,0.18501c0.52175,1.08502 0.2928,2.33911 0.83349,3.40608c0,0 0.1875,0.37002 -0.1458,0.59302c-0.3333,0.22296 -0.52081,-0.14706 -0.52081,-0.14706c-0.54989,-1.08506 -0.27444,-2.38876 -0.83352,-3.4061l-0.09376,-0.18501c0,0 -0.1875,-0.37002 0.14579,-0.59296c0.3333,-0.22296 0.52081,0.14706 0.52081,0.14706z" fill="#0554ff" stroke="none" stroke-width="0.5"/><path d="M143.89073,249.49716l0.00715,0.61945c-0.39153,0.68809 -1.08806,0.73188 -0.73272,1.37852c0,0 0.1875,0.37003 -0.1458,0.59301c-0.3333,0.22296 -0.5208,-0.14703 -0.5208,-0.14703c-0.60775,-1.26385 0.13177,-1.20512 0.66277,-2.03242l-0.03457,-0.34358c0,0 -0.0187,-0.43066 0.36331,-0.46463c0.38198,-0.03396 0.40065,0.39671 0.40065,0.39671z" fill="#0554ff" stroke="none" stroke-width="0.5"/><path d="M138.62536,241.70254l0.63066,0.00849c0.2442,0.38626 0.2544,0.78563 0.59845,0.65561c0,0 0.38196,-0.034 0.40062,0.3967c0.01865,0.43069 -0.3633,0.46464 -0.3633,0.46464c-0.6197,-0.00836 -0.86333,0.01051 -1.00567,-0.74852l-0.22347,0.08444c0,0 -0.38195,0.03397 -0.40062,-0.39672c-0.01865,-0.43069 0.36329,-0.46463 0.36329,-0.46463z" fill="#0554ff" stroke="none" stroke-width="0.5"/><path d="M133.96215,231.66638l0.35416,0.25851c0.79357,0.5817 1.336,0.78204 1.81695,1.73107c0,0 0.1875,0.37002 -0.14579,0.59296c-0.3333,0.22296 -0.52079,-0.14705 -0.52079,-0.14705c-0.41265,-0.8143 -0.87583,-0.93588 -1.57887,-1.44719l-0.35414,-0.25853c0,0 -0.31676,-0.23122 -0.10252,-0.59614c0.21424,-0.3649 0.531,-0.13368 0.531,-0.13368z" fill="#0554ff" stroke="none" stroke-width="0.5"/><path d="M135.75768,224.98883l0.09376,0.185c0.37502,0.74004 0.75005,1.48007 1.12506,2.2201c0,0 0.1875,0.37002 -0.14577,0.593c-0.33332,0.22297 -0.52081,-0.14706 -0.52081,-0.14706c-0.37504,-0.74004 -0.8438,-1.66508 -1.21882,-2.40512c0,0 -0.18752,-0.36999 0.14579,-0.59299c0.3333,-0.22296 0.52079,0.14704 0.52079,0.14704z" fill="#0554ff" stroke="none" stroke-width="0.5"/><path d="M132.16434,227.14512c0,0 0.18752,0.36999 -0.14579,0.59299c-0.3333,0.22296 -0.52079,-0.14704 -0.52079,-0.14704c-0.1875,-0.37002 -0.37504,-0.74005 -0.56252,-1.11007l0.31243,-0.70446c0,0 0.33332,-0.22297 0.5208,0.14705c0.09376,0.18499 0.0573,0.33325 -0.00257,0.43524c0.13282,0.26207 0.26564,0.5242 0.39845,0.7863z" fill="#0554ff" stroke="none" stroke-width="0.5"/><path d="M138.32077,236.65167l0.68743,0.03554c0.06249,0.12334 0.12502,0.24667 0.18751,0.37003c0,0 0.18749,0.37004 -0.14579,0.59299c-0.33332,0.22297 -0.52079,-0.14704 -0.52079,-0.14704c-0.0078,-0.0154 -0.01563,-0.03084 -0.02342,-0.04627c-0.10677,0.00949 -0.23697,-0.02726 -0.33072,-0.21228c-0.18752,-0.37002 0.14579,-0.59297 0.14579,-0.59297z" fill="#0554ff" stroke="none" stroke-width="0.5"/><path d="M139.47367,238.57926l0.00715,0.61945c-0.08747,0.1197 -0.18579,0.34979 -0.08699,0.45106c0,0 0.1875,0.37003 -0.14579,0.59298c-0.3333,0.22296 -0.52078,-0.14704 -0.52078,-0.14704c-0.13144,-0.33251 -0.14525,-0.78013 0.01705,-1.10498l-0.03457,-0.34358c0,0 -0.01866,-0.43068 0.36331,-0.46463c0.38198,-0.03396 0.40062,0.39672 0.40062,0.39672z" fill="#0554ff" stroke="none" stroke-width="0.5"/><path d="M138.75895,246.76329l0.1875,0.37002c0.43751,0.86335 0.87506,1.72675 1.31257,2.59013c0,0 0.1875,0.37002 -0.1458,0.59301c-0.3333,0.22296 -0.52078,-0.14705 -0.52078,-0.14705c-0.43751,-0.86335 -1.06255,-2.09675 -1.50008,-2.96014c0,0 -0.1875,-0.37002 0.14578,-0.59298c0.33332,-0.22297 0.52081,0.14706 0.52081,0.14706z" fill="#0554ff" stroke="none" stroke-width="0.5"/><path d="M146.37249,255.44008l0.53929,0.45885c0.03345,0.7721 -0.11427,1.93812 0.24316,2.58854c0,0 0.18752,0.36999 -0.14579,0.59299c-0.3333,0.22299 -0.52079,-0.14704 -0.52079,-0.14704c-0.36687,-0.76292 -0.3159,-1.75976 -0.33159,-2.65784c-0.05719,-0.01994 -0.34873,-0.14137 -0.25563,-0.52017c0.10307,-0.41931 0.47134,-0.31535 0.47134,-0.31535z" fill="#0554ff" stroke="none" stroke-width="0.5"/><path d="M141.04054,253.9075l0.09376,0.18499c0.18752,0.37002 0.37502,0.74004 0.56252,1.11007c0,0 0.18751,0.37003 -0.14579,0.59299c-0.3333,0.22296 -0.5208,-0.14704 -0.5208,-0.14704c-0.1875,-0.37002 -0.46878,-0.92506 -0.65628,-1.29507c0,0 -0.18749,-0.37002 0.14579,-0.59298c0.3333,-0.22296 0.52078,0.14705 0.52078,0.14705z" fill="#0554ff" stroke="none" stroke-width="0.5"/><path d="M146.12393,260.41592l0.18749,0.37004c0.3627,0.71571 0.49869,0.8121 0.11898,1.60222c0,0 -0.21424,0.36489 -0.53102,0.13369c-0.31678,-0.23125 -0.10253,-0.59616 -0.10253,-0.59616c0.26459,-0.27582 0.02902,-0.33658 -0.152,-0.69381l-0.1875,-0.37002c0,0 -0.18749,-0.37003 0.1458,-0.59301c0.3333,-0.22296 0.5208,0.14705 0.5208,0.14705z" fill="#0554ff" stroke="none" stroke-width="0.5"/><path d="M144.90482,254.04727l0.09376,0.185c0.15145,0.31495 0.23502,0.67925 0.25706,1.04054c0,0 0.01867,0.43069 -0.36329,0.46463c-0.38198,0.03396 -0.40061,-0.3967 -0.40061,-0.3967c-0.00383,-0.23044 -0.05346,-0.46916 -0.15972,-0.66251l-0.09375,-0.185c0,0 -0.1875,-0.37002 0.14578,-0.59296c0.33332,-0.22297 0.5208,0.14703 0.5208,0.14703z" fill="#0554ff" stroke="none" stroke-width="0.5"/><path d="M141.362,248.63517l0.4906,0.26985c0.44479,0.87769 1.48253,1.23777 -0.15607,2.33403c0,0 -0.33327,0.22298 -0.52079,-0.14706c-0.1875,-0.37002 0.14578,-0.59298 0.14578,-0.59298c0.09138,-0.06113 0.24662,-0.16463 0.39891,-0.2615c-0.24246,-0.10343 -0.392,-0.60547 -0.5344,-0.88653l-0.03018,0.12282c0,0 -0.36826,-0.10397 -0.26519,-0.52327c0.10308,-0.4193 0.47135,-0.31535 0.47135,-0.31535z" fill="#0554ff" stroke="none" stroke-width="0.5"/><path d="M137.41712,241.51997l0.70263,0.06416c0.1799,1.08573 2.31596,1.33232 0.44112,2.58662c0,0 -0.33326,0.22299 -0.52079,-0.14705c-0.1875,-0.37002 0.14578,-0.59298 0.14578,-0.59298c1.15112,-0.77012 -0.78342,0.18822 -0.57988,-1.1895l-0.15151,0.14011c0,0 -0.38199,0.03398 -0.40064,-0.39671c-0.01865,-0.43069 0.3633,-0.46464 0.3633,-0.46464z" fill="#0554ff" stroke="none" stroke-width="0.5"/><path d="M135.46638,230.13839l0.23633,0.59785c-0.62355,1.29753 -0.84299,1.43539 0.6992,1.60043c0,0 0.37914,0.04361 0.32918,0.47341c-0.04995,0.42981 -0.42911,0.38618 -0.42911,0.38618c-1.26823,-0.15465 -2.80386,-0.96817 -1.36343,-2.46976l-0.13874,-0.14217c0,0 -0.18752,-0.36999 0.14579,-0.59299c0.3333,-0.22296 0.5208,0.14705 0.5208,0.14705z" fill="#0554ff" stroke="none" stroke-width="0.5"/><path d="M134.12238,224.84424l0.00248,0.0029c0.05082,-0.03701 0.10546,-0.07512 0.16416,-0.11439l0.10417,0.42578l0.27081,0.31428c-0.07065,0.04726 -0.12553,0.08357 -0.16668,0.11135l0.00004,0.00016c0,0 -0.00144,0.00096 -0.00422,0.0027c-0.43641,0.29534 0.73806,-0.40086 0.94872,1.07339c0,0 0.01867,0.43069 -0.36331,0.46462c-0.38198,0.03397 -0.40062,-0.39672 -0.40062,-0.39672c0.16766,-0.63706 -2.13623,-0.68799 -0.60735,-1.84096c0.02963,-0.02829 0.05174,-0.0431 0.05174,-0.0431z" fill="#0554ff" stroke="none" stroke-width="0.5"/><path d="M134.9044,236.95543l0.14244,0.37402c-0.01446,0.39101 -0.13906,0.63331 -0.23127,0.75095c0.09387,0.0035 0.35151,0.04528 0.36675,0.39705c0.01865,0.43069 -0.36331,0.46463 -0.36331,0.46463c-1.49091,-0.13616 -0.35736,-0.88851 -0.5361,-1.54474l-0.04509,0.00401c0,0 -0.18751,-0.37003 0.14579,-0.59299c0.33332,-0.22297 0.5208,0.14705 0.5208,0.14705z" fill="#0554ff" stroke="none" stroke-width="0.5"/><path d="M142.80304,243.64231l0.45629,0.34821c0.38847,0.76659 0.6043,0.62582 0.81302,1.62775c0,0 0.07853,0.45667 -0.32823,0.55909c-0.40678,0.1024 -0.48532,-0.35428 -0.48532,-0.35428c-0.0819,-0.71987 -0.31264,-0.59347 -0.60895,-1.17819l-0.31104,-0.21195c0,0 -0.34315,-0.2505 -0.11106,-0.6458c0.23212,-0.39532 0.57527,-0.14484 0.57527,-0.14484z" fill="#0554ff" stroke="none" stroke-width="0.5"/><path d="M142.4054,259.68318l0.09376,0.18501c0.63513,1.25333 0.64859,1.48769 -0.00597,2.67673c0,0 -0.21425,0.3649 -0.53102,0.13369c-0.31678,-0.23125 -0.10253,-0.59614 -0.10253,-0.59614c0.30116,-0.4921 0.22902,-1.26287 -0.02709,-1.7683l-0.09376,-0.18501c0,0 -0.1875,-0.37002 0.14579,-0.59297c0.3333,-0.22296 0.52079,0.14704 0.52079,0.14704z" fill="#0554ff" stroke="none" stroke-width="0.5"/></g><g data-paper-data="{&quot;index&quot;:null}" fill="#a8a8a8" stroke="#6b6b6b" stroke-width="1"><path d="M121.57229,233.54973c-0.46544,-1.19995 -0.52263,-2.33982 -0.12773,-2.54591c0.3949,-0.20611 1.09239,0.59958 1.55784,1.79952c0.46544,1.19995 0.52263,2.33983 0.12774,2.54592c-0.39489,0.2061 -1.09236,-0.59958 -1.5578,-1.79953z"/><path d="M122.77038,233.41431c-0.69817,-1.79996 -0.91491,-3.44138 -0.4841,-3.6662c0.4308,-0.22485 1.34605,1.05201 2.0442,2.85195c0.69817,1.79996 0.91491,3.44136 0.48411,3.66621c-0.4308,0.22485 -1.34604,-1.05202 -2.04419,-2.85196z"/><path d="M124.43413,232.46432c-0.82907,-2.13745 -1.15195,-4.05244 -0.72114,-4.27729c0.43081,-0.22484 1.45214,1.32563 2.28121,3.46306c0.82907,2.13745 1.15194,4.05244 0.72114,4.2773c-0.4308,0.22486 -1.45214,-1.32561 -2.28122,-3.46308z"/><path d="M125.89221,232.19319c-0.91635,-2.36244 -1.25175,-4.49021 -0.74914,-4.75251c0.50262,-0.26232 1.65289,1.44016 2.56924,3.80258c0.91635,2.36244 1.25177,4.49021 0.74915,4.75252c-0.50263,0.26231 -1.65289,-1.44016 -2.56924,-3.80258z"/></g><g data-paper-data="{&quot;index&quot;:null}" fill="#a8a8a8" stroke="#6b6b6b" stroke-width="1"><path d="M131.43643,258.98033c-0.46544,-1.19995 -0.52264,-2.33979 -0.12774,-2.54592c0.3949,-0.20611 1.09236,0.5996 1.55782,1.79955c0.46544,1.19995 0.52263,2.3398 0.12773,2.54592c-0.3949,0.20611 -1.09238,-0.59956 -1.55781,-1.79953z"/><path d="M132.63449,258.8449c-0.69817,-1.79996 -0.9149,-3.44134 -0.4841,-3.6662c0.4308,-0.22486 1.34605,1.05202 2.0442,2.85196c0.69817,1.79996 0.91491,3.44138 0.4841,3.6662c-0.4308,0.22486 -1.34605,-1.05202 -2.0442,-2.85196z"/><path d="M134.29825,257.89492c-0.82907,-2.13745 -1.15194,-4.05244 -0.72114,-4.2773c0.4308,-0.22486 1.45213,1.32563 2.2812,3.46305c0.82907,2.13745 1.15194,4.05245 0.72115,4.27729c-0.43081,0.22484 -1.45215,-1.32562 -2.28123,-3.46301z"/><path d="M135.75633,257.62378c-0.91635,-2.36244 -1.25175,-4.49021 -0.74914,-4.75254c0.50263,-0.26231 1.65289,1.44017 2.56924,3.80258c0.91635,2.36244 1.25174,4.49022 0.74914,4.75256c-0.50262,0.26232 -1.65289,-1.4402 -2.56923,-3.80258z"/></g></g></g><g><g stroke-linecap="butt"><g><g fill="#8a8a8a" stroke="#212121" stroke-width="1"><path d="M229.57756,185.96443c-2.81265,4.4805 -3.41266,11.74847 -6.43283,14.64223c-3.02015,2.89374 -4.01588,1.06014 -6.58098,3.13718c-2.5651,2.07704 -0.41691,7.70826 -2.72361,11.47855c-5.05375,8.26036 -18.32795,4.79398 -19.59021,3.63934c-0.97381,-0.89079 0.67133,-16.0658 1.79832,-20.30964c0.8345,-3.14235 4.8968,-4.01048 5.97599,-7.12289c1.07918,-3.1124 1.36277,-10.69381 2.57874,-13.59814c1.21592,-2.90428 5.61288,-4.36058 7.6934,-7.67474c2.96382,-4.72133 3.14226,-2.93426 6.31788,-5.88101c3.17562,-2.94677 10.65227,-1.56938 13.73051,1.24645c3.02574,2.76781 9.4214,-0.10503 6.84476,7.87015c-2.57665,7.97518 -6.55621,7.70478 -9.61192,12.57251z"/></g><path d="M219.29201,188.60999l-0.88208,0.62921c-0.13788,-0.62931 -0.17689,-1.33825 -0.07955,-2.04337c0.10983,-0.72698 0.79189,-1.67339 0.47612,-2.1765c-0.16579,-0.26413 -2.31684,0.60889 -2.69293,0.07516c-0.14289,-0.20275 -0.15035,-2.7322 -0.18413,-3.12082c-0.2952,-3.39441 -0.60561,-5.93752 -0.0523,-9.59968c0,0 0.09969,-0.6597 0.60463,-0.6738c0.50493,-0.01409 0.40525,0.6456 0.40525,0.6456c-0.53398,3.53406 -0.22658,5.93857 0.06642,9.21463c0.04336,0.4849 -0.06743,2.34034 0.0152,2.58121c0.00896,0.02615 2.47676,-0.41953 2.69293,-0.07516c0.26225,0.4178 -0.22802,2.48366 -0.32131,3.1012c-0.04072,0.24018 -0.05403,0.48237 -0.0446,0.71778c0.24794,0.15494 0.18186,0.59222 0.18186,0.59222l-0.09429,0.06727c0.0061,0.02658 0.01248,0.0529 0.01912,0.079z" fill="#212121" stroke="none" stroke-width="0.5"/><path d="M212.40264,194.39503c-0.4275,0.47645 -0.71409,0.01995 -0.71409,0.01995l-0.33884,-0.59925c-0.23642,-1.07906 0.0739,-2.4915 -0.12735,-3.44845c-0.08527,-0.40546 -0.69323,-0.01108 -1.01111,-0.11576c-0.20094,-0.06616 -1.37808,-0.94426 -1.46045,-1.12372c-0.3969,-0.86479 -0.74289,-2.5483 -0.8655,-3.62248c0,0 -0.06509,-0.62139 0.44543,-0.8434c0.51055,-0.22198 0.57566,0.39941 0.57566,0.39941c0.09503,1.01909 0.42102,2.36414 0.75011,3.2048c0.44916,1.14743 2.02408,0.22209 2.52967,1.38351c0.3348,0.76904 -0.08432,2.60863 0.15589,3.55084l0.20149,0.2616c0,0 0.28657,0.45652 -0.14095,0.93296z" fill="#212121" stroke="none" stroke-width="0.5"/><path d="M211.22766,204.25513c-0.50492,0.01409 -0.40523,-0.64562 -0.40523,-0.64562l0.1559,-0.53489c-1.4963,-0.81117 -2.18761,-4.99328 -2.65381,-6.98473c0,0 -0.13666,-0.58373 0.35954,-0.89139c0.4962,-0.30764 0.63285,0.27613 0.63285,0.27613c0.52159,2.22808 1.11121,5.64232 2.62525,6.88235l-0.10989,1.22436c0,0 -0.09969,0.65968 -0.60461,0.67379z" fill="#212121" stroke="none" stroke-width="0.5"/><path d="M223.71845,188.14034c-0.50493,0.01409 -0.40525,-0.64561 -0.40525,-0.64561l0.06646,-0.43982c0.56222,-3.72097 0.37624,-6.92689 0.92164,-10.53653c0,0 0.09968,-0.65969 0.60461,-0.6738c0.50493,-0.01409 0.40523,0.64562 0.40523,0.64562c-0.54137,3.58307 -0.36062,6.82373 -0.92163,10.53652l-0.06646,0.43982c0,0 -0.09967,0.6597 -0.6046,0.67381z" fill="#212121" stroke="none" stroke-width="0.5"/><path d="M208.51419,209.66107c-0.31498,0.59635 -0.72199,0.31392 -0.72199,0.31392l-0.66792,-0.47394c-0.7589,-1.20907 -1.09078,-3.03296 -1.1568,-4.72921c-0.01962,-0.50396 0.46422,-1.14568 0.29822,-1.56569c-0.19396,-0.49075 -0.88966,-0.30748 -1.15916,-0.7244c-0.51918,-0.80315 -0.82304,-1.92603 -0.68854,-3.07299c0,0 0.09967,-0.6597 0.6046,-0.67381c0.50492,-0.01409 0.40525,0.64562 0.40525,0.64562c-0.4254,2.00642 1.36765,1.87674 1.80168,3.10794c0.24357,0.69088 -0.26237,1.27285 -0.23342,1.95275c0.05752,1.349 0.2737,3.00649 0.88034,3.97294l0.54565,0.36807c0,0 0.40705,0.28244 0.09205,0.8788z" fill="#212121" stroke="none" stroke-width="0.5"/></g><path d="M212.16714,211.36108c0.76002,0.84803 0.43395,1.60382 0.93388,2.52709c1.14309,2.11112 0.24776,4.17334 -1.45343,6.09928c-0.63178,0.71525 -0.73983,1.52212 -1.11069,2.26333c-0.20092,0.40155 -1.57556,1.05107 -1.99204,1.3397c-1.66125,1.15141 -3.54249,1.72068 -5.17284,2.85066c-0.2933,0.20331 -1.43434,1.26393 -1.84122,1.16819c-0.32752,-0.07706 -0.12296,-0.59694 -0.25547,-0.87207c-0.52219,-1.08436 -0.51926,-1.87478 -0.51104,-2.80256l0.08048,0.00787l0.13206,-0.82371c0.01799,-0.11181 -0.00551,-0.17019 -0.08762,-0.26481c-0.16424,-0.18926 -0.47755,-0.21935 -0.69678,-0.0674l-0.4611,0.31852c-0.80683,0.15875 -1.211,0.45923 -1.86143,0.91999c-0.22546,0.15969 -0.50819,0.67454 -0.67845,0.47823c-0.24502,-0.28247 0.02575,-0.73591 -0.0845,-1.08123c-0.48907,-1.532 0.5898,-2.92103 -0.08363,-4.08627c0.03742,-0.03108 0.07341,-0.06138 0.10738,-0.09096l-0.2033,-0.056c-0.03017,-0.04172 -0.06358,-0.08357 -0.09895,-0.12472l0.20686,-0.14283l-0.39962,-0.45873c-0.16424,-0.18926 -0.47776,-0.22148 -0.69697,-0.06953c-0.21921,0.15196 -0.21942,0.38384 -0.05519,0.57313l0.09289,0.20187c-1.40783,0.24728 -3.2039,2.1895 -4.58404,1.61215c-1.57587,-0.65922 -0.00576,-2.45807 0.33824,-3.22744c0.17005,-0.38032 0.31007,-0.89475 0.4246,-1.39512l0.0195,0.00811l0.32578,-0.58886c0.08656,-0.148 0.07677,-0.33253 -0.04196,-0.46932c-0.16424,-0.18926 -0.40905,-0.22396 -0.62828,-0.07202l-0.74647,0.47716c-0.90221,-0.06912 -1.59615,-0.02718 -2.47514,-0.28061c-0.52112,-0.05186 -3.40919,0.01536 -3.47303,-0.69581c-0.23057,-2.56918 2.28784,-5.92378 4.1941,-7.70329c0.26846,-0.2506 1.53974,0.44684 1.6832,0.50173c3.00581,-0.53856 5.01487,-2.17078 7.18135,-4.08492c0.64484,-0.56974 1.76061,-0.94228 2.18351,-1.70124c4.88834,2.14045 8.48232,6.00157 11.78936,9.81241z" data-paper-data="{&quot;noHover&quot;:false,&quot;origItem&quot;:[&quot;Path&quot;,{&quot;applyMatrix&quot;:true,&quot;segments&quot;:[[[352.98765,211.79952],[7.15143,15.10973],[-2.55196,1.27316]],[[344.36571,212.32209],[2.68815,-0.33561],[-9.03143,1.12755]],[[319.12178,209.89399],[8.19519,4.2219],[-0.22607,-0.42176]],[[316.18244,205.33333],[1.14654,-0.1764],[-8.14174,1.25266]],[[290.56826,218.40736],[4.71675,-7.45853],[-1.30565,2.06461]],[[297.34245,226.88235],[-1.12338,-1.1289],[1.55513,2.35765]],[[302.61113,232.33333],[-1.98728,-1.89794],[0,0]],[[305.18244,232.33333],[0,0],[0.82843,0]],[[306.68244,233.83333],[0,-0.82843],[0,0.5988]],[[305.82419,235.18951],[0.50737,-0.24052],[0,0]],[303.85326,236.17497],[[303.82379,236.11605],[0,0],[-1.29482,1.15054]],[[299.97103,239.10931],[1.17999,-0.71729],[-2.38708,1.45106]],[[292.56826,247.25931],[-2.36844,-4.78677],[2.07425,4.1922]],[[306.68244,251.51318],[-3.82814,-1.9909],[0,0]],[[306.68244,250.83333],[0,0],[0,-0.82843]],[[308.18244,249.33333],[-0.82843,0],[0.82843,0]],[[309.68244,250.83333],[0,-0.82843],[0,0]],[309.68244,252.83333],[[308.90249,252.83333],[0,0],[-0.00083,0.17941]],[[308.87958,253.35911],[0.01432,-0.1712],[0,0]],[[309.2431,253.89399],[0,0],[-0.14078,0.0165]],[[308.80379,253.93991],[0.15196,-0.01408],[-0.79701,4.46031]],[[300.62231,265.24677],[1.98302,-5.11343],[-0.44697,1.15256]],[[298.60546,268.35899],[0.00029,-1.23619],[-0.0002,0.85903]],[[301.18244,268.33333],[-0.85898,0.00943],[2.47817,-0.0272]],[[307.44609,269.33333],[-2.22884,-1.09444],[0,0]],[[309.18244,269.33333],[0,0],[0.82843,0]],[[310.68244,270.83333],[0,-0.82843],[0,0.41421]],[[310.2431,271.89399],[0.27145,-0.27145],[0,0]],[308.2431,273.89399],[[308.06872,273.71962],[0,0],[-1.91921,2.52017]],[[303.64231,282.17796],[0.98821,-3.95282],[-0.25075,1.003]],[[302.45841,285.04474],[-0.61503,-0.83104],[0.76407,1.03243]],[[309.18244,285.33333],[-1.10841,0],[6.16069,0]],[[327.18244,287.33333],[-6.27749,0],[1.57371,0]],[[334.60841,287.44751],[-1.29634,0.7169],[2.39284,-1.32329]],[[341.8448,283.37183],[-2.95535,0.75806],[7.95781,-2.0412]],[[357.72256,269.4887],[-1.62566,7.93509],[0.71097,-3.47035]],[[360.68244,260.83333],[0.05678,3.75743],[0,-16.67958]]],&quot;closed&quot;:true}]}" fill="#001a3a" stroke="#e3efff" stroke-width="1.5"/></g><path d="M242.14065,160.91044l-0.57311,9.10862l-24.92242,-4.30875l5.08617,-8.59087" fill="#000000" stroke="#000000" stroke-width="1" stroke-linecap="round"/></g><g data-paper-data="{&quot;index&quot;:null}"><path d="M292.73507,214.26805c0,0 0.43453,2.60925 0.89781,6.40725c0.45731,3.74901 -0.56151,8.88012 -0.43845,13.57945c0.11006,4.20318 0.22161,8.83029 0.33452,11.14474c0.21116,4.32858 1.21258,9.9976 1.21258,9.9976l-16.23061,2.62292c0,0 0.48578,-2.31806 -0.7033,-5.01398c-1.90087,-4.30969 -5.86187,-10.30314 -6.19465,-14.74959c-0.10981,-1.4673 -0.03104,-3.26004 0.15911,-5.22139c0.31483,-3.24754 0.93499,-6.95729 1.50993,-10.41713c0.83103,-5.00094 1.90734,-8.98011 1.90734,-8.98011" fill="#7f7f7f" stroke="#e3efff" stroke-width="1.5" stroke-linecap="round"/><g stroke="#0f0f0f" stroke-linecap="butt"><path d="M259.9457,270.53147c0,0 -3.5771,-4.09615 -4.45487,-6.1434c-0.93025,-2.16968 5.68887,-9.47377 5.68887,-9.47377l25.49803,-0.78682l1.09578,11.44768z" data-paper-data="{&quot;index&quot;:null}" fill="#000b20" stroke-width="0"/><path d="M261.69325,268.7823c-0.40679,-2.85495 -0.98978,-6.94637 -1.26956,-8.91001c-0.14426,-1.01246 0.91482,-4.92833 2.54746,-5.16096c3.93517,-0.56071 20.99865,-2.99204 28.95752,-4.12608c2.56302,-0.3652 4.20161,1.30434 4.37357,2.65521c0.36846,2.89463 1.70173,13.39832 1.70173,13.39832c0,0 -27.4676,3.91378 -32.67002,4.65506c-1.63264,0.23263 -3.41385,-0.91959 -3.64068,-2.51155z" data-paper-data="{&quot;index&quot;:null}" fill="#3b3b3b" stroke-width="1.5"/></g></g><g><path d="M249.13698,214.83021c0,0 0.12711,3.88851 0.23503,7.19032c0.06165,1.88603 -2.12706,4.93387 -2.00294,8.73107c0.0518,1.58477 0.81894,2.9203 0.87489,4.63205c0.16899,5.17 1.93083,11.19645 2.06499,15.30102c0.1274,3.8977 0.21448,6.56181 0.21448,6.56181l-18.21432,-4.47786c0,0 -2.33083,-13.04642 -2.00191,-19.05091c0.2984,-5.4471 3.89281,-15.46701 3.89281,-15.46701" fill="#7f7f7f" stroke="#e3efff" stroke-width="1.5" stroke-linecap="round"/><g stroke="#0f0f0f" stroke-linecap="butt"><path d="M220.15696,265.09795c0,0 -2.75886,-4.68646 -3.24332,-6.86062c-0.51343,-2.30418 7.34107,-8.25979 7.34107,-8.25979l25.20453,3.93702l-1.03783,11.45308z" fill="#000b20" stroke-width="0"/><path d="M221.18982,263.57842c0.12761,-2.88096 0.31048,-7.00967 0.39825,-8.99119c0.04525,-1.02168 1.80949,-4.67451 3.457,-4.60153c3.97102,0.17589 21.18997,0.93858 29.22135,1.29432c2.58637,0.11456 3.88835,2.05805 3.80779,3.41744c-0.17261,2.91288 -0.80266,13.48209 -0.80266,13.48209c0,0 -27.71785,-1.22772 -32.96767,-1.46026c-1.64751,-0.07298 -3.18522,-1.53441 -3.11407,-3.14087z" fill="#3b3b3b" stroke-width="1.5"/></g></g><g stroke-linecap="butt"><g data-paper-data="{&quot;index&quot;:null}"><g><g fill="#8a8a8a" stroke="#212121" stroke-width="1"><path d="M217.05681,198.1191c2.89723,-3.64405 4.4207,-10.16532 7.25666,-12.33352c2.83596,-2.16819 3.37107,-0.34633 5.72512,-1.8414c2.35405,-1.49507 1.43986,-6.95013 3.82967,-10.02582c5.23583,-6.73853 15.37883,-1.54019 16.22499,-0.29513c0.65281,0.96055 -2.84261,14.51612 -4.35472,18.20434c-1.11965,2.73096 -4.50041,2.89541 -5.81188,5.56145c-1.31148,2.66604 -2.62629,9.52127 -4.01755,11.97687c-1.39125,2.4556 -5.12463,3.10373 -7.26768,5.79919c-3.05293,3.8399 -2.93964,2.18625 -5.9078,4.37874c-2.96818,2.19249 -8.76367,-0.21217 -10.8272,-3.24852c-2.02831,-2.98453 -7.56699,-1.35517 -4.35767,-8.21562c3.20933,-6.86046 6.36044,-6.00159 9.50806,-9.96058z"/></g><path d="M225.68089,197.29552l0.79729,-0.43673c0.02024,0.59389 -0.05018,1.24499 -0.22935,1.87166c-0.19232,0.64462 -0.87479,1.40082 -0.69385,1.90723c0.095,0.26587 1.94446,-0.19731 2.16935,0.34628c0.08543,0.20649 -0.2714,2.50939 -0.30005,2.86824c-0.25028,3.13428 -0.36624,5.49627 -1.33507,8.74353c0,0 -0.17453,0.58497 -0.58129,0.52004c-0.40675,-0.06493 -0.23222,-0.64989 -0.23222,-0.64989c0.93496,-3.13369 1.03347,-5.36906 1.26853,-8.39531c0.0348,-0.44793 0.38975,-2.11926 0.35806,-2.35117c-0.00344,-0.02518 -2.04549,0.00039 -2.16936,-0.34627c-0.15028,-0.42058 0.53902,-2.22497 0.70239,-2.77253c0.06709,-0.21229 0.1125,-0.43062 0.13872,-0.6463c-0.17652,-0.17916 -0.06082,-0.56691 -0.06082,-0.56691l0.08524,-0.04669c-0.00107,-0.02512 -0.00241,-0.05006 -0.004,-0.07482z" fill="#212121" stroke="none" stroke-width="0.5"/><path d="M232.03303,193.09212c0.41102,-0.36773 0.57525,0.09181 0.57525,0.09181l0.18564,0.59746c0.03472,1.01833 -0.41662,2.25582 -0.39257,3.15762c0.01019,0.38208 0.55408,0.11683 0.79387,0.26102c0.15158,0.09114 0.96919,1.07145 1.00946,1.24744c0.19409,0.84806 0.22995,2.43327 0.17413,3.42964c0,0 -0.03694,0.57548 -0.47801,0.69887c-0.44108,0.12339 -0.40413,-0.4521 -0.40413,-0.4521c0.07001,-0.94199 0.00163,-2.21616 -0.14158,-3.03179c-0.19546,-1.1133 -1.59059,-0.51378 -1.82927,-1.64847c-0.15804,-0.75135 0.44178,-2.36081 0.38438,-3.25518l-0.12398,-0.26907c0,0 -0.16422,-0.45954 0.2468,-0.82727z" fill="#000000" stroke="none" stroke-width="0.5"/><path d="M234.3892,184.30059c0.40676,0.06492 0.23222,0.64989 0.23222,0.64989l-0.20169,0.46273c1.08303,0.96856 1.03731,4.88063 1.12533,6.76457c0,0 0.0258,0.55224 -0.41606,0.75577c-0.44187,0.20353 -0.46767,-0.34871 -0.46767,-0.34871c-0.09849,-2.10782 -0.08137,-5.30549 -1.11712,-6.66702l0.26371,-1.0972c0,0 0.17453,-0.58496 0.58129,-0.52004z" fill="#000000" stroke="none" stroke-width="0.5"/><path d="M222.06542,197.04129c0.40675,0.06493 0.23223,0.6499 0.23223,0.6499l-0.11635,0.38998c-0.9844,3.29942 -1.29517,6.24537 -2.25012,9.44607c0,0 -0.17452,0.58497 -0.58128,0.52005c-0.40675,-0.06493 -0.23221,-0.6499 -0.23221,-0.6499c0.94792,-3.17716 1.26787,-6.15391 2.25011,-9.44607l0.11635,-0.38998c0,0 0.17453,-0.58497 0.58128,-0.52004z" fill="#212121" stroke="none" stroke-width="0.5"/><path d="M237.33968,179.79914c0.33802,-0.49418 0.62377,-0.17451 0.62377,-0.17451l0.4674,0.53414c0.4349,1.21707 0.43928,2.92788 0.24889,4.4816c-0.05658,0.46162 -0.53645,0.97107 -0.46363,1.37883c0.08508,0.47644 0.66903,0.41679 0.82525,0.83768c0.30095,0.8108 0.38344,1.87937 0.11112,2.90237c0,0 -0.17453,0.58497 -0.58128,0.52005c-0.40676,-0.06492 -0.23223,-0.64989 -0.23223,-0.64989c0.62879,-1.7603 -0.82704,-1.91838 -0.99837,-3.10559c-0.09615,-0.66619 0.3929,-1.11785 0.4672,-1.74102c0.1474,-1.23642 0.21187,-2.77798 -0.13577,-3.75084l-0.38457,-0.41897c0,0 -0.28576,-0.31968 0.05225,-0.81384z" fill="#000000" stroke="none" stroke-width="0.5"/></g></g><path d="M208.70226,203.6338c0.70943,-0.34299 1.42808,-0.64288 2.10171,-0.75452c0.90335,-0.14971 1.83717,0.0003 2.73665,-0.13158c1.06886,-0.15672 1.71994,-1.29858 2.96215,-0.61455c0.24377,0.13423 0.22867,0.51377 0.40109,0.73221c0.87407,1.1074 1.77365,1.64204 2.35328,2.98738c0.85559,1.98583 1.50776,4.95114 2.84429,6.64494c1.71668,2.17558 2.15928,6.01313 0.61708,8.46547c-0.62584,1.542 -0.77612,3.47962 -1.95358,4.78766c-0.35499,0.39436 -1.4714,0.68711 -1.97307,0.90326c-0.45225,0.19485 -1.65771,0.90623 -2.11455,0.80675c-0.67769,-0.14757 -1.72367,-1.87911 -2.12326,-3.23985c-0.53157,0.59859 -2.48234,1.97558 -3.39546,1.77675c-1.37706,-0.29987 -1.39093,-1.88715 -1.55283,-2.87878c-0.25402,-1.5559 -0.94098,-2.97826 0.21793,-4.3989c0.10075,-0.1235 0.19844,-0.28992 0.29767,-0.4765c-0.19042,0.08748 -0.39582,0.15066 -0.62455,0.17576c-3.55036,0.38968 -2.99293,-4.46037 -1.93546,-6.34812c0.08558,-0.15276 0.22528,-0.37169 0.39482,-0.60188c-1.02317,0.03143 -2.27558,-0.29184 -2.74446,-0.3166c-0.24452,-0.0129 -0.45612,0.31325 -0.69183,0.24694c-1.66274,-0.46774 -1.52301,-2.41347 -0.88256,-3.57365c1.12953,-2.04613 2.33793,-3.22614 4.54167,-4.18359c0,0 0.27009,-0.11637 0.52328,-0.00861z" fill="#001a3a" stroke="#e3efff" stroke-width="1.5"/></g><g stroke="#e3efff" stroke-width="1" stroke-linecap="butt"><path d="M221.35883,219.5717v-67.89114h78.00259v67.89114z" fill="url(#color-1)"/><path d="M223.19346,218.95946c0,0 20,-6.10917 20,-13.78729c0,-4.49588 -20,-9.31066 -20,-14.33333c0,-3.1096 24.66666,-7.50445 24.66666,-10.33334c0,-3.95675 -24.66666,-6.12507 -24.66666,-8.66666c0,-7.92594 0,-19.54604 0,-19.54604h74.33334c0,0 0,11.6201 0,19.54604c0,2.96231 -25.66667,4.89549 -25.66667,9.66666c0,6.40187 25.66667,16.04569 25.66667,22.33334c0,2.54328 -24.33334,-1.74744 -24.33334,0.33333c0,4.86813 24.33334,14.7873 24.33334,14.7873z" fill="url(#color-2)"/></g><g stroke-linecap="round"><path d="M241.71353,121.66667l22.33333,12.33333l1,17.33333h-25.33333v-15.33333l-7.33333,-9" fill="url(#color-3)" stroke="#9966ff" stroke-width="0.5"/><path d="M247.71353,126.75l-9.75,9" fill="none" stroke="#000000" stroke-width="1"/><path d="M256.96353,131.75l-16.5,9.5" fill="none" stroke="#000000" stroke-width="1"/><path d="M263.21353,135.5l-23.25,11.5" fill="none" stroke="#000000" stroke-width="1"/><path d="M263.96353,147.25l-25,3.5" fill="none" stroke="#000000" stroke-width="1"/></g><g stroke-linecap="butt"><g><g><path d="M240.04637,131.43752c-3.35163,1.39602 -1.24039,-7.11183 -3.55378,-12.66595c-2.31339,-5.55412 -8.17539,-6.05129 -4.82376,-7.4473c3.35163,-1.39602 7.94404,1.9748 10.25743,7.52892c2.31339,5.55412 1.47174,11.18832 -1.87989,12.58434z" fill="url(#color-4)" stroke="#e3efff" stroke-width="0.5"/><path d="M238.09866,128.42907c-2.9102,1.11342 -6.74273,-1.83501 -8.56021,-6.58548c-1.81748,-4.75047 2.65191,-9.29318 5.5621,-10.40658c1.85203,-0.70856 2.62628,0.14248 3.41289,2.07944c0.44943,1.10667 0.90291,2.56785 1.56375,4.29513c1.81748,4.75047 0.93166,9.50408 -1.97854,10.6175z" fill="url(#color-5)" stroke="#e3efff" stroke-width="1"/><path d="M231.94515,125.13393c-1.10441,1.4625 -1.94993,-0.29565 -3.16408,-1.21252c-1.21415,-0.91687 0.37737,-3.61656 1.48178,-5.07907c1.10441,-1.4625 2.68007,-0.87902 3.89422,0.03785c1.21415,0.91687 -1.10751,4.79124 -2.21192,6.25374z" fill="#5d8d03" stroke="#000000" stroke-width="0"/><path d="M234.63947,124.66275c-1.42062,4.3296 -6.91838,5.84905 -11.07554,7.28572c-3.58634,1.23939 -8.2528,1.67983 -11.62933,0.57194c-1.59341,-0.52282 -2.05941,-2.18673 -3.58005,-2.70233c-2.21786,-0.75201 -4.94441,-1.43958 -5.76339,-3.44911c-0.75943,-1.86342 -0.02315,-4.31844 0.47115,-6.84296c0.42673,-2.17943 0.52099,-4.41961 1.12784,-6.26907c0.5502,-1.67684 2.44526,-1.97823 3.9962,-3.14643c0.64221,-0.48372 1.08181,-1.61455 1.57016,-2.26296c0.40713,-0.54057 1.46669,-0.90654 1.8784,-1.44487c1.96651,-2.57126 3.58728,-5.51736 5.57892,-7.30073c1.69266,-1.51566 3.70976,-2.14877 5.83397,-1.45178c1.94811,0.63921 6.19372,-0.27609 8.23922,1.71084c3.04661,2.95939 3.67964,10.38212 4.04448,14.18455c0.3069,3.1986 0.19387,8.4172 -0.69205,11.1172z" fill="#9966ff" stroke="#e3efff" stroke-width="1"/><path d="M234.81768,123.61569c-1.29195,1.71085 -4.17359,1.71259 -6.43633,0.00389c-2.26274,-1.70871 -2.07285,-4.52769 -0.7809,-6.23854c1.29195,-1.71085 3.52715,-3.14223 5.78989,-1.43352c2.26274,1.70871 2.71929,5.95732 1.42734,7.66818z" fill="#58ff00" stroke="#000000" stroke-width="0"/><path d="M225.92055,120.64457c0.87114,-1.15359 1.88871,-0.83302 3.22657,-0.9163c1.0943,-0.06812 2.75542,-1.07135 3.699,-0.35882c2.09718,1.58369 2.25265,4.91295 0.66897,7.01012c-1.58369,2.09718 -4.5676,2.51344 -6.66477,0.92976c-2.09718,-1.58369 -2.51345,-4.5676 -0.92976,-6.66478z" fill="#070707" stroke="#000000" stroke-width="1"/><path d="M228.30761,122.05488c-0.52095,0.68986 -1.59198,0.75922 -2.39222,0.15492c-0.80024,-0.6043 -1.02665,-1.65342 -0.5057,-2.34328c0.52095,-0.68986 1.59198,-0.75922 2.39222,-0.15492c0.80024,0.6043 1.02665,1.65342 0.5057,2.34328z" fill="#58ff00" stroke="none" stroke-width="0"/><g fill="url(#color-6)" stroke="none" stroke-width="0"><path d="M216.42471,129.27134c-0.07273,0.0963 0.25574,2.52721 0.15103,2.58329c-1.25732,0.6735 -5.11872,-3.79061 -7.86981,-5.8681c-2.9802,-2.25049 -6.75207,-4.14938 -5.80609,-5.40208c0.48982,-0.64865 0.14626,-7.83291 2.04842,-7.44033c1.77139,0.36559 6.26214,5.91433 7.69919,6.99953c2.9802,2.25049 4.72324,7.87499 3.77726,9.12769z"/></g><path d="M232.80869,111.78474c-0.06971,0.37634 -0.44603,0.30663 -0.44603,0.30663l-0.07832,-0.12851c-0.32988,0.22393 -0.69456,0.40065 -1.07035,0.53385c-0.72122,0.33287 -1.39996,0.73762 -2.00063,-0.06626c-0.00791,-0.01058 -0.0156,-0.02127 -0.0231,-0.03207c-0.04412,0.0637 -0.11103,0.12358 -0.21,0.17266c-0.45719,0.22671 -0.68389,-0.23047 -0.68389,-0.23047l0.02527,-0.07033c-0.52995,-0.40325 -0.94103,-0.87057 -1.47092,-1.27246c-1.42083,-1.76051 -3.98335,-2.42958 -5.61874,-3.98787c-0.51011,-0.48606 -0.63006,-1.31898 -0.9298,-1.97404c-0.03012,-0.00945 -0.05993,-0.01814 -0.08939,-0.02603c-0.38912,-0.10418 -1.71964,0.19348 -2.02622,-0.03804c-0.15296,-0.11551 -0.24457,-0.9418 -0.27811,-1.18224c-0.13138,-0.94177 -0.1869,-1.91801 -0.50377,-2.81572c0,0 -0.12619,-0.36132 0.23513,-0.48752c0.36133,-0.1262 0.48752,0.23513 0.48752,0.23513c0.32932,0.95187 0.40029,1.96632 0.53924,2.96235c0.0312,0.22363 -0.19892,0.54106 -0.01872,0.67713c0.20291,0.15323 0.48155,-0.2296 0.73466,-0.20534c0.02753,0.00263 0.05512,0.00499 0.08275,0.00714c-0.11555,-0.06798 -0.37793,-0.27057 -0.21971,-0.6429c0.19958,-0.46967 0.66925,-0.27009 0.66925,-0.27009c0.6045,0.2616 0.907,0.75118 1.16449,1.28401c0.72277,0.35363 1.4862,0.91415 2.04395,1.33533c2.42479,1.83108 5.76082,3.19475 6.75011,6.17353c0.11899,0.3583 0.86574,-0.16809 1.05324,-0.25535c0.32477,-0.11155 0.64258,-0.25866 0.92417,-0.45521l0.65136,0.00664c0,0 0.37634,0.06971 0.30663,0.44603z" fill="#212121" stroke="none" stroke-width="0.5"/><path d="M229.34663,108.63893c-0.23065,0.30543 -0.53608,0.07478 -0.53608,0.07478l-0.18468,-0.16407c-1.6974,-2.47303 -4.1412,-4.51482 -6.53086,-6.31937c0,0 -0.30543,-0.23065 -0.07478,-0.53608c0.23065,-0.30543 0.53608,-0.07478 0.53608,-0.07478c2.45406,1.85318 4.95289,3.95839 6.70036,6.4966l0.01517,-0.01316c0,0 0.30543,0.23065 0.07478,0.53608z" fill="#212121" stroke="none" stroke-width="0.5"/><path d="M228.56926,98.6555c-0.23065,0.30543 -0.53608,0.07478 -0.53608,0.07478l0.10823,0.00118c-1.24804,-0.08189 -2.20759,0.28235 -3.03306,1.39026c0,0 -0.23065,0.30543 -0.53608,0.07478c-0.30543,-0.23065 -0.07478,-0.53608 -0.07478,-0.53608c0.99254,-1.29958 2.17076,-1.76959 3.68889,-1.6931l0.30808,0.1521c0,0 0.30543,0.23065 0.07478,0.53608z" fill="#0e1501" stroke="none" stroke-width="0.5"/><path d="M232.98668,102.59366c0.05288,0.37906 -0.32618,0.43195 -0.32618,0.43195l-0.45891,-0.04916c-1.22908,-0.95003 -3.3117,0.16572 -4.26803,1.08361c0,0 -0.27771,0.26336 -0.54107,-0.01436c-0.26336,-0.27772 0.01437,-0.54107 0.01437,-0.54107c1.27974,-1.20099 3.66433,-2.31918 5.25603,-1.13904l-0.10813,-0.09811c0,0 0.37906,-0.05288 0.43195,0.32618z" fill="#0e1501" stroke="none" stroke-width="0.5"/><path d="M234.82997,106.36461c-0.23065,0.30543 -0.53608,0.07478 -0.53608,0.07478l0.00849,-0.01819c-0.96119,-0.33979 -2.80921,-0.36827 -3.71516,0.09224c0,0 -0.34289,0.17003 -0.51292,-0.17285c-0.17003,-0.34289 0.17285,-0.51292 0.17285,-0.51292c1.11908,-0.5439 3.10407,-0.52042 4.29967,-0.13185l0.20836,0.13272c0,0 0.30543,0.23065 0.07478,0.53608z" fill="#0e1501" stroke="none" stroke-width="0.5"/><path d="M233.28678,110.27236c0.08736,-0.07518 0.26404,-0.17519 0.47713,-0.01427c0.30543,0.23065 0.07478,0.53608 0.07478,0.53608l-0.40338,0.25136c-0.8511,-0.05037 -1.45967,-0.00024 -2.24638,-0.36983c0,0 -0.34473,-0.16627 -0.17847,-0.51101c0.16626,-0.34473 0.51099,-0.17846 0.51099,-0.17846c0.60496,0.30145 1.1228,0.26299 1.76532,0.28613z" fill="#0e1501" stroke="none" stroke-width="0.5"/><path d="M233.4742,99.03901c0.05288,0.37906 -0.32618,0.43195 -0.32618,0.43195l-0.01145,-0.0392c-0.68928,0.46619 -1.46534,0.71905 -2.15773,1.19502c0,0 -0.3154,0.21682 -0.53221,-0.09858c-0.21682,-0.3154 0.09858,-0.53221 0.09858,-0.53221c0.69109,-0.47509 1.48314,-0.72146 2.15772,-1.19502l0.33933,-0.08814c0,0 0.37906,-0.05288 0.43195,0.32618z" fill="#0e1501" stroke="none" stroke-width="0.5"/><path d="M229.70092,99.16171c-0.05765,-0.09681 -0.09332,-0.24239 0.03376,-0.41069c0.23065,-0.30543 0.53608,-0.07478 0.53608,-0.07478l0.23197,0.50312c-0.04215,0.12508 -0.08431,0.25017 -0.12646,0.37524c0,0 -0.12222,0.36269 -0.48491,0.24047c-0.36269,-0.12222 -0.24048,-0.48492 -0.24048,-0.48492c0.01668,-0.04948 0.03334,-0.09896 0.05003,-0.14844z" fill="#0e1501" stroke="none" stroke-width="0.5"/><path d="M235.10538,108.46079c-0.12222,0.36269 -0.48491,0.24047 -0.48491,0.24047l-0.43177,-0.15071c-0.26081,-0.1953 -0.54518,-0.36435 -0.84583,-0.48994c0,0 -0.35225,-0.14968 -0.20257,-0.50192c0.14968,-0.35224 0.50194,-0.20257 0.50194,-0.20257c0.31886,0.13742 0.62777,0.30716 0.90395,0.51758l0.31872,0.10219c0,0 0.36269,0.12222 0.24047,0.48491z" fill="#0e1501" stroke="none" stroke-width="0.5"/><path d="M232.81898,119.85972c1.69584,1.84067 1.63933,4.67683 0.0801,6.74163c-0.09894,0.12929 -0.20395,0.2451 -0.31442,0.34952c-0.26817,0.20068 -0.56772,0.36882 -0.90053,0.49711c-0.7606,0.29319 -1.10295,0.66881 -1.84984,0.24089c0.03169,-0.04347 0.0641,-0.08433 0.09718,-0.12281l0.2457,-0.3105c0.06102,-0.01771 0.12205,-0.03518 0.18294,-0.05265c0.40046,-0.24392 0.86138,-0.32751 1.34414,-0.52606c0.21809,-0.13796 0.41599,-0.31058 0.58395,-0.53679c1.31012,-1.73491 1.42007,-4.06852 0.07449,-5.64295c-0.1179,-0.04552 -0.17655,-0.14783 -0.20455,-0.22202c-0.13923,-0.14034 -0.29132,-0.27343 -0.45652,-0.39817c0,0 -0.30543,-0.23065 -0.07478,-0.53608c0.01194,-0.0158 0.02407,-0.03018 0.03635,-0.04322l-0.72598,0.08907c0.24273,0.11691 1.11883,-0.20958 1.34662,-0.06125l0.05547,-0.04856c0.68144,0.51459 1.34672,1.11835 2.00912,1.6761c0.39162,2.04283 -0.03004,4.70046 -1.7638,5.99789c-0.61716,0.58347 -1.40409,0.81186 -2.24825,1.05341l-0.50211,-0.31543l0.09718,-0.12281c0.13272,-0.15436 0.2763,-0.27036 0.42865,-0.36315c0.47595,-0.13652 0.94403,-0.27295 1.34414,-0.52606c0.04904,-0.02016 0.09831,-0.04153 0.14774,-0.06435c1.83886,-0.84898 1.89328,-3.64939 1.83652,-5.27168c-0.40174,-0.2372 -0.74315,-0.53285 -1.0799,-0.83286c-0.01342,0.00299 -0.02746,0.00552 -0.04215,0.00757c-0.0824,0.01149 -0.1494,0.00258 -0.20377,-0.01841c-0.0648,-0.07581 -0.13297,-0.14988 -0.20455,-0.22202c-0.0185,-0.04901 -0.02363,-0.08574 -0.02363,-0.08574l0.07335,0.06056c-0.05174,-0.05821 -0.09748,-0.13042 -0.13214,-0.20882c-0.08776,-0.07326 -0.17709,-0.14497 -0.26888,-0.21429l-0.14367,-0.52919c0.22509,-0.23896 0.49972,-0.03156 0.49972,-0.03156c0.03384,0.02556 0.06722,0.05142 0.10014,0.07758l0.02079,-0.0182c0.18278,0.11903 0.35254,0.25435 0.49615,0.41592z" fill="#070707" stroke="none" stroke-width="0.5"/><path d="M206.06,130.11479c-0.20362,-0.15376 -0.04986,-0.35738 -0.04986,-0.35738l0.1,-0.13243c0.52601,-0.69656 0.33171,-1.22113 0.80271,-1.88905c0,0 0.15377,-0.20363 0.35738,-0.04986c0.20362,0.15376 0.04986,0.35738 0.04986,0.35738c-0.42263,0.50659 -0.31578,1.24425 -0.80271,1.88905l-0.1,0.13243c0,0 -0.15376,0.20362 -0.35738,0.04986z" fill="#0e1501" stroke="none" stroke-width="0.5"/><path d="M209.39472,132.33142c-0.25271,0.03526 -0.28796,-0.21746 -0.28796,-0.21746l-0.0306,-0.31414c0.10463,-0.56488 -0.00221,-1.10085 0.31757,-1.56666c0,0 0.15376,-0.20362 0.35738,-0.04986c0.20362,0.15376 0.04986,0.35738 0.04986,0.35738c-0.23639,0.26441 -0.14887,0.95167 -0.22303,1.35207l0.03425,0.15069c0,0 0.03526,0.25271 -0.21746,0.28796z" fill="#0e1501" stroke="none" stroke-width="0.5"/><path d="M207.78422,130.58508c-0.20362,-0.15376 -0.04986,-0.35738 -0.04986,-0.35738l0.1,-0.13243c0.31137,-0.41233 0.46317,-0.66475 0.92267,-0.90178c0,0 0.22859,-0.11336 0.34195,0.11523c0.11336,0.22859 -0.11523,0.34195 -0.11523,0.34195c-0.38252,0.17939 -0.48029,0.40536 -0.74215,0.75213l-0.1,0.13243c0,0 -0.15376,0.20362 -0.35738,0.04986z" fill="#0e1501" stroke="none" stroke-width="0.5"/><path d="M211.0596,133.68231c-0.20362,-0.15376 -0.04986,-0.35738 -0.04986,-0.35738l0.05273,-0.02512c0.09842,-0.50558 0.01255,-0.84764 0.1794,-1.36196c0,0 0.08148,-0.24179 0.32329,-0.16031c0.24179,0.08148 0.16031,0.32329 0.16031,0.32329c-0.16541,0.46873 -0.0757,0.81045 -0.16121,1.29193l-0.14727,0.23972c0,0 -0.15377,0.20363 -0.35738,0.04986z" fill="#0e1501" stroke="none" stroke-width="0.5"/></g><path d="M214.00907,111.27568c-1.10441,1.4625 -1.94993,-0.29565 -3.16408,-1.21252c-1.21415,-0.91687 0.37737,-3.61657 1.48178,-5.07907c1.10441,-1.4625 2.68007,-0.87903 3.89422,0.03784c1.21415,0.91687 -1.10751,4.79124 -2.21192,6.25374z" fill="#58ff00" stroke="#000000" stroke-width="0"/><path d="M213.87391,110.21553c-0.48689,1.48391 -1.97995,2.32646 -3.33481,1.88191c-1.35487,-0.44456 -2.0585,-2.00788 -1.5716,-3.49178c0.48689,-1.48391 2.58964,-3.4929 3.9445,-3.04833c0.46704,0.15324 0.20003,1.68225 0.48564,2.07698c0.54293,0.7504 0.79533,1.60884 0.47627,2.58124z" fill="#070707" stroke="#000000" stroke-width="1"/><path d="M211.33207,109.31425c-0.42197,0.55879 -1.1667,0.70771 -1.6634,0.33263c-0.4967,-0.37508 -0.55728,-1.13214 -0.13531,-1.69091c0.42197,-0.55879 1.16669,-0.70771 1.66339,-0.33263c0.4967,0.37508 0.55728,1.13214 0.13531,1.69092z" fill="#58ff00" stroke="none" stroke-width="0"/><path d="M215.03734,107.39968c-0.3154,0.21682 -0.53221,-0.09858 -0.53221,-0.09858l-0.18552,-0.27859c-0.49554,-0.36554 -0.74772,-0.60772 -1.37127,-0.63913c0,0 -0.38207,-0.02249 -0.35958,-0.40456c0.02249,-0.38208 0.40456,-0.35959 0.40456,-0.35959c0.82795,0.05434 1.23569,0.37909 1.87948,0.87419l0.26312,0.37403c0,0 0.21682,0.31541 -0.09858,0.53222z" fill="#58ff00" stroke="none" stroke-width="0.5"/><path d="M222.93153,96.72535c-0.06283,-0.09641 -0.10964,-0.24854 0.02429,-0.4259c0.23065,-0.30543 0.53608,-0.07478 0.53608,-0.07478l0.23197,0.50312c-0.14063,0.40417 -0.14455,0.79068 -0.27944,1.2012c0,0 -0.12222,0.36269 -0.48491,0.24047c-0.36269,-0.12222 -0.24047,-0.48491 -0.24047,-0.48491c0.11271,-0.32392 0.1376,-0.6365 0.21248,-0.95917z" fill="#0e1501" stroke="none" stroke-width="0.5"/><path d="M210.321,111.45549c0.02249,-0.38208 0.40456,-0.35959 0.40456,-0.35959l0.40912,0.02704c1.53509,0.30458 1.94998,-1.2399 1.94996,-2.4726c0,0 0.00125,-0.38273 0.38398,-0.38147c0.38273,0.00125 0.38148,0.38399 0.38148,0.38399c-0.01077,1.74523 -0.80057,3.5827 -2.85484,3.22274l-0.31469,-0.01556c0,0 -0.38208,-0.02248 -0.35959,-0.40456z" fill="#070707" stroke="none" stroke-width="0.5"/><path d="M202.14947,128.40936c-0.20362,-0.15376 -0.04986,-0.35738 -0.04986,-0.35738c0.43333,-0.57383 1.16665,-1.54492 1.59997,-2.11875c0,0 0.15376,-0.20362 0.35738,-0.04986c0.20362,0.15376 0.04986,0.35738 0.04986,0.35738c-0.43333,0.57383 -0.86665,1.14765 -1.29998,1.72148l-0.29999,0.39727c0,0 -0.15377,0.20362 -0.35738,0.04986z" fill="#0e1501" stroke="none" stroke-width="0.5"/></g><g fill="none" stroke="none" stroke-width="1" font-family="sans-serif" font-weight="normal" font-size="12" text-anchor="start"><g><g><g/><g/><g/></g><g><g/><g/><g/></g></g><g data-paper-data="{&quot;index&quot;:null}"><g><g/><g/><g/></g><g><g/><g/><g/></g></g></g></g><g data-paper-data="{&quot;index&quot;:null}"><g stroke="#000000" stroke-width="2"><path d="M299.09108,95.73367c-3.34804,14.02942 -10.90302,24.24725 -16.87451,22.82218c-5.97149,-1.42506 -8.0982,-13.9534 -4.75017,-27.98279c3.34804,-14.02942 10.90301,-24.24724 16.87449,-22.82217c5.97149,1.42506 8.09822,13.95339 4.75018,27.98278z" fill="#9966ff" stroke-linecap="butt"/><path d="M299.49908,110.97967l-11.8558,15.61502l-2.77407,-10.30019l-13.19579,11.44584l-3.6633,-22.07702" fill="#58ff00" stroke-linecap="round"/><path d="M300.2355,78.40895c-0.70622,2.95931 -3.27789,4.88121 -5.74398,4.29269c-2.46609,-0.58852 -3.89273,-3.4646 -3.18651,-6.4239c0.70622,-2.95931 3.27788,-4.88121 5.74397,-4.29269c2.46609,0.58852 3.89274,3.4646 3.18652,6.42391z" fill="#58ff00" stroke-linecap="butt"/><path d="M287.31769,70.69245l1.71409,5.04279l-1.09235,3.85819l3.0297,3.12571l-0.73624,3.08508l4.83243,1.32486l-5.36942,5.24017l-8.14626,-8.29399l-2.03335,-0.82849" fill="#00e6ff" stroke-linecap="round"/><path d="M298.64128,80.77442l-2.7566,-7.86588" fill="none" stroke-linecap="round"/><path d="M284.21319,77.58865l6.82889,-1.28785l-5.22367,7.50601l6.91377,-0.92436l-2.37658,4.92468" fill="none" stroke-linecap="round"/></g><g stroke="#545454" stroke-width="1"><path d="M300.35901,149.77814c0,1.51048 -1.31275,2.38679 -2.6981,2.38679c-3.83673,0 -22.02678,0 -28.22642,0c-1.30226,0 -2.07547,-0.69029 -2.07547,-1.5566c0,-6.89786 0,-37.90592 0,-43.37737c0,-1.59381 0.85577,-3.00942 2.28303,-3.00942c6.38801,0 24.22407,0 28.01887,0c1.38535,0 2.6981,1.30652 2.6981,2.80189c0,5.1041 0,34.17051 0,42.75472z" fill="#a1a1a0" stroke-linecap="butt"/><path d="M296.00053,152.16494l-3.73585,-48.56604" fill="none" stroke-linecap="round"/><path d="M279.18921,104.63665l1.86792,47.94339" fill="none" stroke-linecap="round"/><path d="M272.75524,152.78758l-0.4151,-48.56604" fill="none" stroke-linecap="round"/></g><g fill="#c1c1c1" stroke="#545454" stroke-width="1"><path d="M303.04409,65.38847c0.05275,0.14285 -0.90563,0.59081 -1.94926,0.97607c-2.89035,1.06699 -16.59361,6.12564 -21.26403,7.84975c-0.98105,0.36216 -1.58765,0.51191 -1.61789,0.42997c-0.24083,-0.65237 -1.32341,-3.58496 -1.51443,-4.10241c-0.05564,-0.15073 0.53961,-0.52262 1.61482,-0.91953c4.81235,-1.7765 18.24892,-6.7367 21.10769,-7.79203c1.04364,-0.38526 2.0782,-0.62677 2.13041,-0.48535c0.1782,0.48272 1.193,3.23168 1.4927,4.04353z" stroke-linecap="butt"/><path d="M285.26195,71.11984l-2.81961,-7.40456l10.38687,-3.14495l2.95216,5.54589" stroke-linecap="round"/><path d="M286.46091,69.81546l-1.07543,-5.24766l6.55505,-1.3857l1.96109,4.14511" stroke-linecap="round"/></g></g></g></g></svg>