<svg version="1.1" xmlns="http://www.w3.org/2000/svg" xmlns:xlink="http://www.w3.org/1999/xlink" width="115.13045" height="25.63224" viewBox="0,0,115.13045,25.63224"><defs><radialGradient cx="240" cy="179.5" r="33.125" gradientUnits="userSpaceOnUse" id="color-1"><stop offset="0" stop-color="#08ae26"/><stop offset="1" stop-color="#05ff0e"/></radialGradient><radialGradient cx="211.625" cy="180" r="15.33334" gradientUnits="userSpaceOnUse" id="color-2"><stop offset="0" stop-color="#08ae26"/><stop offset="1" stop-color="#08ae26" stop-opacity="0"/></radialGradient><radialGradient cx="241.06161" cy="179.7011" r="15.33333" gradientUnits="userSpaceOnUse" id="color-3"><stop offset="0" stop-color="#08ae26"/><stop offset="1" stop-color="#08ae26" stop-opacity="0"/></radialGradient></defs><g transform="translate(-183.49639,-167.03443)"><g data-paper-data="{&quot;isPaintingLayer&quot;:true}" fill-rule="nonzero" stroke-linecap="butt" stroke-linejoin="miter" stroke-miterlimit="10" stroke-dasharray="" stroke-dashoffset="0" style="mix-blend-mode: normal"><path d="M206.625,189.5c-25.7147,-3.54274 -22.5,-3.49252 -22.5,-10.625c0,-7.13248 15.65415,-8.59512 22.75,-9.375c3.63905,-0.39996 27.11501,-1.39786 27.11501,-1.39786c0,0 26.61719,-0.01288 39.13499,1.39786c25.69558,2.89585 25,5.22254 25,11.625c0,6.40246 -18.21938,7.4171 -25,8.375c-3.97868,0.56207 -32.88114,1.80006 -32.88114,1.80006c0,0 -22.99284,-0.3361 -33.61886,-1.80006z" fill="url(#color-1)" stroke="#0d0d0d" stroke-width="1"/><path d="M203.25,180c0,-4.62538 3.74962,-8.375 8.375,-8.375c4.62538,0 8.375,3.74962 8.375,8.375c0,4.62538 -3.74962,8.375 -8.375,8.375c-4.62538,0 -8.375,-3.74962 -8.375,-8.375z" fill="#4c04ec" stroke="#0d0d0d" stroke-width="0"/><path d="M231.625,180c0,-4.62538 3.74962,-8.375 8.375,-8.375c4.62538,0 8.375,3.74962 8.375,8.375c0,4.62538 -3.74962,8.375 -8.375,8.375c-4.62538,0 -8.375,-3.74962 -8.375,-8.375z" fill="#4c04ec" stroke="#0d0d0d" stroke-width="0"/><path d="M262.125,180c0,-4.62538 3.74962,-8.375 8.375,-8.375c4.62538,0 8.375,3.74962 8.375,8.375c0,4.62538 -3.74962,8.375 -8.375,8.375c-4.62538,0 -8.375,-3.74962 -8.375,-8.375z" fill="#4c04ec" stroke="#0d0d0d" stroke-width="0"/><g><g fill="url(#color-2)" stroke="#08ae26" stroke-width="0"><path d="M226.95834,180c0,6.99561 -6.86497,12.66666 -15.33334,12.66666c-8.46837,0 -15.33333,-5.67106 -15.33333,-12.66666c0,-6.99561 6.86496,-12.66667 15.33333,-12.66667c8.46837,0 15.33334,5.67106 15.33334,12.66667z"/><path d="M226.95834,180c0,6.99561 -6.86497,12.66666 -15.33334,12.66666c-8.46837,0 -15.33334,-5.67106 -15.33334,-12.66666c0,-6.99561 6.86497,-12.66667 15.33334,-12.66667c8.46837,0 15.33334,5.67106 15.33334,12.66667z"/><path d="M226.95834,180c0,6.99561 -6.86497,12.66666 -15.33334,12.66666c-8.46837,0 -15.33334,-5.67106 -15.33334,-12.66666c0,-6.99561 6.86497,-12.66667 15.33334,-12.66667c8.46837,0 15.33334,5.67106 15.33334,12.66667z"/></g><g><path d="M221.1267,171.24521c1.04958,-0.28234 2.00927,-0.95066 3.09313,-1.03181c0.03285,-0.00246 0.0657,-0.00454 0.09855,-0.00626l-0.00331,-0.01657l1.26802,-0.2536c0.09017,-0.01989 0.18387,-0.03037 0.28002,-0.03037c0.71478,0 1.29423,0.57945 1.29423,1.29423c0,0.23655 -0.06346,0.45828 -0.17429,0.64909l-0.6357,1.14425l-0.00575,-0.0032l-0.00487,0.02196c-2.35799,3.92892 -5.36308,8.31712 -9.24107,10.80748c-3.37709,2.01813 -6.57895,2.47554 -10.44578,2.26273c-0.7617,-0.04192 -1.43613,0.0404 -2.07103,-0.11614c-1.70347,1.41418 -3.45513,2.75619 -5.39544,3.83729l-1.65042,0.28438c0,0 -1.28631,0.14292 -1.42924,-1.14339c-0.14292,-1.28631 1.14339,-1.42924 1.14339,-1.42924l0.6792,0.02553c1.71576,-0.95012 3.22558,-2.15886 4.66698,-3.45116c-0.69904,-1.61838 -0.027,-3.33572 0.77392,-4.82893c1.91359,-3.56763 15.43467,-7.39088 17.75946,-8.01626z" fill="#08ae26" stroke="#048f1d" stroke-width="1.5"/><path d="M226.92996,171.43182c-0.2894,0.5788 -0.8682,0.2894 -0.8682,0.2894l-0.11095,-0.06953c-1.55128,-0.49511 -2.79065,0.63737 -3.92386,1.50075c-1.58802,1.20988 -3.36625,2.32535 -5.23197,3.0268c-2.90509,1.03761 -4.82246,2.9308 -7.26366,4.7486c-1.87483,1.39606 -3.73305,2.79453 -5.4638,4.38167c0,0 -0.47702,0.43727 -0.91429,-0.03975c-0.43727,-0.47702 0.03975,-0.91429 0.03975,-0.91429c1.76841,-1.62043 3.6649,-3.0507 5.58029,-4.47661c2.5412,-1.89179 4.54709,-3.833 7.57684,-4.91498c3.19856,-1.1961 6.34477,-5.44322 9.94124,-4.56081l0.34922,0.16056c0,0 0.5788,0.2894 0.2894,0.8682z" fill="#080808" stroke="none" stroke-width="0"/></g></g><g><g fill="url(#color-3)" stroke="#08ae26" stroke-width="0"><path d="M256.39495,179.7011c0,6.99561 -6.86497,12.66667 -15.33333,12.66667c-8.46837,0 -15.33333,-5.67106 -15.33333,-12.66667c0,-6.99561 6.86496,-12.66667 15.33333,-12.66667c8.46837,0 15.33333,5.67106 15.33333,12.66667z"/><path d="M256.39495,179.7011c0,6.99561 -6.86497,12.66667 -15.33333,12.66667c-8.46837,0 -15.33334,-5.67106 -15.33334,-12.66667c0,-6.99561 6.86497,-12.66667 15.33334,-12.66667c8.46837,0 15.33333,5.67106 15.33333,12.66667z"/><path d="M256.39495,179.7011c0,6.99561 -6.86497,12.66667 -15.33333,12.66667c-8.46837,0 -15.33334,-5.67106 -15.33334,-12.66667c0,-6.99561 6.86497,-12.66667 15.33334,-12.66667c8.46837,0 15.33333,5.67106 15.33333,12.66667z"/></g><g><path d="M250.56331,170.94631c1.04958,-0.28234 2.00927,-0.95066 3.09313,-1.03181c0.03285,-0.00246 0.0657,-0.00454 0.09855,-0.00626l-0.00331,-0.01657l1.26802,-0.2536c0.09017,-0.01989 0.18387,-0.03037 0.28002,-0.03037c0.71478,0 1.29423,0.57945 1.29423,1.29423c0,0.23655 -0.06346,0.45828 -0.17429,0.64909l-0.6357,1.14425l-0.00575,-0.0032l-0.00487,0.02196c-2.35799,3.92892 -5.36308,8.31712 -9.24107,10.80748c-3.37709,2.01813 -6.57895,2.47554 -10.44578,2.26273c-0.7617,-0.04192 -1.43613,0.0404 -2.07103,-0.11614c-1.70347,1.41418 -3.45513,2.75619 -5.39544,3.83729l-1.65042,0.28438c0,0 -1.28631,0.14292 -1.42924,-1.14339c-0.14292,-1.28631 1.14339,-1.42924 1.14339,-1.42924l0.6792,0.02553c1.71576,-0.95012 3.22558,-2.15886 4.66698,-3.45116c-0.69904,-1.61838 -0.027,-3.33572 0.77392,-4.82893c1.91359,-3.56763 15.43467,-7.39088 17.75946,-8.01626z" fill="#08ae26" stroke="#048f1d" stroke-width="1.5"/><path d="M256.36657,171.13292c-0.2894,0.5788 -0.8682,0.2894 -0.8682,0.2894l-0.11095,-0.06953c-1.55128,-0.49511 -2.79065,0.63737 -3.92386,1.50075c-1.58802,1.20988 -3.36625,2.32535 -5.23197,3.0268c-2.90509,1.03761 -4.82246,2.9308 -7.26366,4.7486c-1.87483,1.39606 -3.73305,2.79453 -5.4638,4.38167c0,0 -0.47702,0.43727 -0.91429,-0.03975c-0.43727,-0.47702 0.03975,-0.91429 0.03975,-0.91429c1.76841,-1.62043 3.6649,-3.0507 5.58029,-4.47661c2.5412,-1.89179 4.54709,-3.833 7.57684,-4.91498c3.19856,-1.1961 6.34477,-5.44322 9.94124,-4.56081l0.34922,0.16056c0,0 0.5788,0.2894 0.2894,0.8682z" fill="#080808" stroke="none" stroke-width="0"/></g></g></g></g></svg>