<svg version="1.1" xmlns="http://www.w3.org/2000/svg" xmlns:xlink="http://www.w3.org/1999/xlink" width="66.62509" height="51.5" viewBox="0,0,66.62509,51.5"><defs><radialGradient cx="266.2798" cy="176.82388" r="13.35573" gradientUnits="userSpaceOnUse" id="color-1"><stop offset="0" stop-color="#939496"/><stop offset="1" stop-color="#ababb2"/></radialGradient><radialGradient cx="226.42942" cy="179.95283" r="24" gradientUnits="userSpaceOnUse" id="color-2"><stop offset="0" stop-color="#939496"/><stop offset="1" stop-color="#ababb2"/></radialGradient></defs><g transform="translate(-205.92942,-154.20283)"><g data-paper-data="{&quot;isPaintingLayer&quot;:true}" fill-rule="nonzero" stroke-linejoin="miter" stroke-miterlimit="10" stroke-dasharray="" stroke-dashoffset="0" style="mix-blend-mode: normal"><g><path d="M239.82372,181.33923c0,0 6.26754,-5.91935 9.75156,-6.98285c3.86153,-1.17874 12.40179,0.2205 12.40179,0.2205" fill="none" stroke="#000000" stroke-width="3.5" stroke-linecap="round"/><path d="M264.79888,188.96027c-2.60536,-0.30668 -4.01085,-6.558 -3.13925,-13.96273c0.87161,-7.40472 3.69025,-13.15882 6.29562,-12.85215c2.60536,0.30668 4.01085,6.558 3.13925,13.96273c-0.87161,7.40472 -3.69025,13.15882 -6.29562,12.85215z" fill="url(#color-1)" stroke="#000000" stroke-width="1.5" stroke-linecap="butt"/><path d="M270.91225,176.04741c1.19636,0.33597 1.89385,1.57817 1.55788,2.77453c-0.33597,1.19636 -1.57817,1.89385 -2.77453,1.55788c-1.15588,-0.3246 -1.84608,-1.49515 -1.58846,-2.65297c-1.02006,-0.87072 -2.3624,-1.85606 -3.49786,-2.15258c-0.01742,-0.00391 -0.03484,-0.0083 -0.05223,-0.01319c-0.12168,-0.03417 -0.23175,-0.08944 -0.32736,-0.16072c-0.24983,-0.17139 -0.52601,-0.49917 -0.36503,-1.0724c0.16098,-0.57323 0.56741,-0.70931 0.86995,-0.72559c0.11875,-0.01109 0.24149,-0.00097 0.36318,0.0332c0.01708,0.0048 0.03393,0.01001 0.05054,0.01562c1.42806,0.44795 2.98688,1.49156 4.20571,2.52273c0.47062,-0.21943 1.01907,-0.27791 1.55821,-0.1265z" fill="#003f41" stroke="none" stroke-width="0.5" stroke-linecap="butt"/></g><g stroke-linecap="butt"><path d="M245.17942,179.95283c0,13.25484 -8.39467,24 -18.75,24c-10.35533,0 -18.75,-10.74516 -18.75,-24c0,-13.25484 8.39467,-24 18.75,-24c10.35533,0 18.75,10.74516 18.75,24z" fill="url(#color-2)" stroke="none" stroke-width="0"/><path d="M235.69549,202.62536c-0.55909,0 -0.8056,-0.31259 -0.91429,-0.58823c-1.05251,-0.51766 -1.98927,-0.93247 -3.04454,-1.36592c-0.02729,0.56851 -0.04118,1.13673 -0.04118,1.70414c0,0 0,1 -1,1c-1,0 -1,-1 -1,-1c0,-0.86793 0.03083,-1.73786 0.09091,-2.60803c-0.14755,-0.07919 -0.29529,-0.15947 -0.44323,-0.24072c-0.65156,1.54194 -1.42764,2.96429 -2.34768,4.19876l-1.23377,0.59868c0,0 -0.94869,0.31623 -1.26492,-0.63246c-0.31623,-0.94869 0.63246,-1.26491 0.63246,-1.26491l0.26623,0.09868c1.01829,-1.34792 1.60732,-2.68539 2.04474,-4.08413c-2.80882,-1.64959 -5.69429,-3.50335 -8.68198,-4.93209c-0.95718,1.1856 -1.7469,2.43681 -2.09261,3.85875c0,0 -0.24254,0.97014 -1.21268,0.72761c-0.97015,-0.24254 -0.72761,-1.21268 -0.72761,-1.21268c0.40088,-1.56853 1.23643,-2.91154 2.23464,-4.1721c-0.88476,-0.3605 -1.77867,-0.67406 -2.68237,-0.925c-0.11555,0.54393 -0.23861,1.07467 -0.36199,1.58218l-1.22015,0.75747c0,0 -1,0 -1,-1c0,-0.45092 0.20333,-0.69851 0.42661,-0.83446c0.07311,-0.308 0.14272,-0.62214 0.20835,-0.94061c-0.86896,-0.14552 -1.74711,-0.22493 -2.63496,-0.22493c0,0 -1,0 -1,-1c0,-1 1,-1 1,-1c1.009,0 2.00134,0.0933 2.97895,0.26324c0.13421,-0.92652 0.22887,-1.85843 0.27298,-2.75509c-1.52833,-0.03153 -3.04442,-0.00815 -4.50193,-0.00815c0,0 -1,0 -1,-1c0,-1 1,-1 1,-1c1.65771,0 3.35577,-0.01223 5.0551,0.04891c0.49205,-1.27588 0.81391,-2.57534 1.02016,-3.89093c-1.87865,-0.00554 -3.7646,0.09202 -5.57527,0.09202c0,0 -1,0 -1,-1c0,-1 1,-1 1,-1c1.89452,0 3.85369,-0.09288 5.80491,-0.07842c0.14715,-1.87767 0.11832,-3.7801 0.06717,-5.6864c-2.16204,0.03227 -4.41213,0.26482 -6.37209,0.26482c0,0 -1,0 -1,-1c0,-1 1,-1 1,-1c1.97358,0 4.17395,-0.20047 6.31753,-0.23644c-0.03857,-1.52285 -0.05759,-3.04357 0.02124,-4.55151c-0.95268,0.02293 -1.89986,0.03794 -2.83877,0.03794c0,0 -1,0 -1,-1c0,-1 1,-1 1,-1c0.99535,0 1.99928,-0.01608 3.00878,-0.04023c0.06727,-0.55455 0.15283,-1.1067 0.26064,-1.65589c0,0 0.19611,-0.98058 1.17669,-0.78447c0.98058,0.19611 0.78447,1.1767 0.78447,1.1767c-0.08171,0.39992 -0.15049,0.80247 -0.20806,1.2073c2.70389,-0.08348 5.43337,-0.1867 8.13221,-0.15888c-0.0171,-0.97477 -0.06169,-1.9423 -0.14987,-2.89601c-0.16917,-1.82989 -0.67506,-3.65703 -0.74664,-5.49273c-0.00823,-0.06506 -0.00823,-0.1058 -0.00823,-0.1058l0.00457,-0.00058c-0.00247,-0.08312 -0.00402,-0.16626 -0.00457,-0.24942l1,0.125l1,-0.125c-0.01599,1.87348 0.57762,3.77917 0.74514,5.65146c0.09259,1.03476 0.13709,2.0838 0.15233,3.13993c0.80899,0.03071 1.61393,0.07675 2.41326,0.14227c-0.35658,-2.50807 -0.71419,-5.01899 -1.04978,-7.53516c-0.00722,-0.04845 -0.01095,-0.09804 -0.01095,-0.1485c0,-0.07951 0.00928,-0.15685 0.02681,-0.231c0.05743,-0.29221 0.24352,-0.66814 0.81061,-0.75585c0.01758,-0.00287 0.03533,-0.00529 0.0532,-0.00724c0.57607,-0.06771 0.85604,0.24867 0.98845,0.51701c0.05924,0.10892 0.09882,0.23008 0.11399,0.35872c0.35769,2.68175 0.75041,5.35616 1.1354,8.02808c1.70431,0.23764 3.4212,0.57916 5.13002,0.74696c-0.23967,-1.23489 -0.43471,-2.4684 -0.49164,-3.69548c-0.15193,-0.14811 -0.26685,-0.3722 -0.26685,-0.7112c0,-1 1,-1 1,-1l1.25,1c0,1.53498 0.20312,3.0409 0.466,4.53004c1.76319,0.41911 3.53916,0.57745 5.27654,0.99982l0.8237,0.27146c0,0 0.94868,0.31622 0.63245,1.26491c-0.31623,0.94869 -1.26492,0.63246 -1.26492,0.63246l-0.6763,-0.22854c-0.24824,-0.06424 -0.49815,-0.12122 -0.74935,-0.17311c0.05421,1.80725 0.37247,3.2007 0.72897,5.04279c0.22297,1.15212 0.18154,2.44637 0.11361,3.72052c0.21697,0.09312 0.3564,0.23256 0.3564,0.23256l-0.02671,0.0547c0.00561,0.00266 0.01122,0.00531 0.01683,0.00798l-0.0391,0.03763l-0.36657,0.75053c-0.02364,0.46402 -0.04154,0.91889 -0.04154,1.35628c0,2.0856 0.09163,4.13874 0.16395,6.1996c0.10966,0.0262 0.2192,0.05294 0.32859,0.08026l0.70468,0.32572c0,0 0.89442,0.44721 0.44721,1.34164c-0.44722,0.89443 -1.34164,0.44721 -1.34164,0.44721l-0.07516,-0.04435c0.01387,0.63092 0.02238,1.26385 0.02238,1.89993c-0.04042,2.23589 -1.11687,4.31128 -2.45,6.1l-0.34289,0.3571c0,0 -0.7071,0.70711 -1.41421,0c-0.25171,-0.25171 -0.32422,-0.50341 -0.31321,-0.72323c-2.02896,-0.98738 -4.20238,-1.66297 -6.36186,-2.33796c-0.42049,1.75582 -0.73127,3.53108 -0.91697,5.30975c1.49875,0.60947 2.77287,1.1704 4.24635,1.89991l0.55279,1.14443c0,0 0,1 -1,1zM223.70279,188.99556c-0.22755,-0.13336 -0.45814,-0.25931 -0.69153,-0.37824c-0.85559,1.17107 -1.91828,2.2653 -2.9363,3.37837c2.70011,1.34998 5.31542,2.98881 7.89554,4.4865c0.16452,-0.67747 0.32373,-1.37492 0.50484,-2.09937c0.19745,-0.78982 0.38692,-1.57062 0.565,-2.34673c-1.8986,-0.79758 -3.61039,-2.02824 -5.33755,-3.04053zM221.13535,187.82369c-1.97339,-0.68241 -4.0861,-0.98323 -6.21364,-1.11283c-0.00449,1.00113 -0.11397,2.06479 -0.28017,3.12345c1.23556,0.34305 2.44878,0.79469 3.64381,1.31924c0.97684,-1.09333 1.99266,-2.16867 2.85,-3.32986zM224.68819,187.25516c1.57727,0.8838 3.09587,2.01987 4.78385,2.7878c0.34243,-1.69286 0.616,-3.3811 0.78488,-5.11056c-1.57334,-0.55918 -3.12747,-1.20231 -4.69579,-1.8141c-0.40192,1.33812 -0.90017,2.62276 -1.50603,3.80035c0.21266,0.1071 0.42373,0.21919 0.63308,0.3365zM241.69549,189.87536c0,-0.81594 -0.014,-1.62671 -0.03538,-2.4347c-2.18968,-0.44796 -4.39382,-0.75421 -6.56258,-1.18179c-0.68453,1.65946 -1.28174,3.35939 -1.77664,5.0842c2.35279,0.74731 4.71183,1.48955 6.93509,2.57085c0.80496,-1.22056 1.47608,-2.64379 1.43951,-4.03856zM223.70335,182.41849c-1.1441,-0.41106 -2.30245,-0.78215 -3.48762,-1.06988c-1.16565,-0.28299 -2.37111,-0.43248 -3.59304,-0.50521c-0.19075,1.3436 -0.50347,2.66482 -0.99957,3.95174c2.25512,0.18264 4.48362,0.55858 6.59328,1.32993c0.60154,-1.124 1.09412,-2.38364 1.48695,-3.70658zM220.67525,179.40211c1.19537,0.28827 2.36587,0.66702 3.52319,1.08777c0.41068,-1.87256 0.64244,-3.79911 0.719,-5.59359c-2.12865,-0.59154 -4.26207,-1.13701 -6.41106,-1.53897c-0.54183,-0.10135 -1.10853,-0.16634 -1.69164,-0.20466c0.07011,1.91381 0.12641,3.82733 0.00719,5.7092c1.30725,0.07824 2.59914,0.23779 3.85331,0.54024zM233.68803,183.90522c0.07319,0.01894 0.14648,0.03761 0.21988,0.05601c0.86622,-1.9246 1.84371,-3.78829 2.91098,-5.56707c0.08762,-0.17155 0.16924,-0.34343 0.24516,-0.51566c-1.14788,-0.12953 -2.28916,-0.26531 -3.36109,-0.53299c-0.33918,-0.0848 -0.6781,-0.1718 -1.01681,-0.26064c-0.10095,1.35244 -0.24066,2.7068 -0.24066,4.0405c0,0.77821 -0.01432,1.59144 -0.04567,2.43023c0.42723,0.1273 0.85644,0.24465 1.28821,0.34963zM241.44549,179.62536c0,-0.31754 0.01155,-0.64767 0.02869,-0.98573c-0.76136,-0.23717 -1.56196,-0.3921 -2.3784,-0.51173c-0.14779,0.40814 -0.32138,0.81761 -0.52369,1.22867c-0.96961,1.61602 -1.86403,3.30426 -2.66489,5.0456c1.87448,0.36657 3.78948,0.63559 5.68697,0.99563c-0.0693,-1.91711 -0.14869,-3.83028 -0.14869,-5.77244zM230.44549,181.12536c0,-1.49657 0.19666,-3.038 0.29871,-4.5677c-1.29054,-0.36037 -2.57921,-0.7365 -3.86841,-1.10667c-0.11495,1.87582 -0.37509,3.84028 -0.81052,5.75025c1.44952,0.57145 2.88803,1.16815 4.33907,1.69211c0.02701,-0.58238 0.04116,-1.17117 0.04116,-1.76799zM231.97215,188.92931c0.34616,-1.04786 0.72746,-2.08465 1.14086,-3.10697c-0.27487,-0.07129 -0.54859,-0.14706 -0.82133,-0.22672c-0.07494,1.08936 -0.1797,2.20673 -0.31954,3.33369zM218.8846,171.3934c2.03208,0.36067 4.05043,0.86332 6.06329,1.41814c0.01754,-2.11722 0.12601,-4.29046 0.15419,-6.45004c-2.76414,-0.03211 -5.56415,0.08122 -8.33401,0.16932c-0.09462,1.52618 -0.07357,3.07635 -0.02445,4.63353c0.73602,0.03614 1.45387,0.10709 2.14098,0.22905zM234.18803,175.40522c1.14774,0.28727 2.31865,0.45153 3.48618,0.60703c0.61241,-2.76292 0.0506,-5.59506 -0.54827,-8.43475c-1.74508,-0.11653 -3.51016,-0.46176 -5.25655,-0.72677c0.29037,2.0508 0.56969,4.10089 0.81862,6.15244c0.08179,0.67414 0.10678,1.3547 0.09844,2.03871c0.46688,0.12496 0.93404,0.24645 1.40159,0.36333zM241.45841,173.78554c-0.42173,-2.02802 -0.7422,-3.64568 -0.76195,-5.70777c-0.54372,-0.08578 -1.08858,-0.17463 -1.63086,-0.28763c0.55298,2.84155 1.07228,5.64267 0.53461,8.49086c0.67137,0.10495 1.33665,0.22824 1.99064,0.39226c0.04873,-1.00584 0.05116,-2.00478 -0.13244,-2.88772zM230.70298,173.24754c-0.28647,-2.21821 -0.59462,-4.43651 -0.90846,-6.65655c-0.89368,-0.08407 -1.7954,-0.14154 -2.7028,-0.17861c-0.03096,2.33419 -0.14623,4.6807 -0.14623,6.96298c0,0.00036 0,0.00072 0,0.00108c1.28443,0.37029 2.56773,0.74973 3.85206,1.11489c-0.01205,-0.41788 -0.0415,-0.83288 -0.09457,-1.2438z" fill="#a9a9a9" stroke="none" stroke-width="0.5"/><path d="M245.17942,179.95283c0,13.25484 -8.39467,24 -18.75,24c-10.35533,0 -18.75,-10.74516 -18.75,-24c0,-13.25484 8.39467,-24 18.75,-24c10.35533,0 18.75,10.74516 18.75,24z" fill="none" stroke="#14435c" stroke-width="3.5"/></g><g><g data-paper-data="{&quot;index&quot;:null}" stroke-width="0" stroke-linecap="butt"><path d="M230.21736,174.92753c-0.00249,1.82055 -2.24207,3.29334 -5.00226,3.28957c-2.76019,-0.00377 -4.99575,-1.48267 -4.99326,-3.30322c0.00249,-1.82055 2.24207,-3.29334 5.00226,-3.28957c2.76019,0.00377 4.99575,1.48267 4.99326,3.30322z" fill="#0f0f0f" stroke="#029f0f"/><path d="M228.30463,173.9679c-0.00096,0.70473 -0.85869,1.27485 -1.91578,1.27341c-1.05709,-0.00144 -1.91326,-0.57391 -1.91229,-1.27864c0.00096,-0.70473 0.85869,-1.27485 1.91578,-1.27341c1.05709,0.00144 1.91326,0.57391 1.91229,1.27864z" fill="#ece4e4" stroke="none"/></g><g data-paper-data="{&quot;index&quot;:null}" stroke-width="0" stroke-linecap="butt"><path d="M232.73827,184.35963c-0.00315,2.30899 -2.8436,4.17692 -6.34432,4.17214c-3.50072,-0.00478 -6.33607,-1.88046 -6.33292,-4.18945c0.00315,-2.30899 2.8436,-4.17692 6.34432,-4.17214c3.50072,0.00478 6.33607,1.88046 6.33292,4.18945z" fill="#0f0f0f" stroke="#029f0f"/><path d="M230.31237,183.14253c-0.00122,0.8938 -1.08906,1.61688 -2.42976,1.61505c-1.3407,-0.00183 -2.42656,-0.72788 -2.42534,-1.62169c0.00122,-0.8938 1.08906,-1.61688 2.42976,-1.61505c1.3407,0.00183 2.42656,0.72788 2.42534,1.62169z" fill="#ece4e4" stroke="none"/></g><path d="M233.41932,178.43672c-0.88388,0.88388 -1.76777,0 -1.76777,0l-0.99546,-1.24738c-0.4901,-1.96038 -0.70399,-3.61647 -0.70399,-5.6365c0,0 0,-1.25 1.25,-1.25c1.25,0 1.25,1.25 1.25,1.25c0,1.83193 0.18471,3.25164 0.62934,5.03016l0.33787,0.08595c0,0 0.88388,0.88388 0,1.76777z" fill="#111111" stroke="none" stroke-width="0.5" stroke-linecap="butt"/><path d="M235.26405,176.73869c-1.18585,0.39528 -1.58114,-0.79057 -1.58114,-0.79057l-0.36016,-1.09212c-0.23602,-0.9693 -0.36437,-1.97223 -0.37066,-2.96984c0,0 0,-1.25 1.25,-1.25c1.25,0 1.25,1.25 1.25,1.25c-0.0063,0.79396 0.09754,1.59472 0.29601,2.3635l0.30651,0.90788c0,0 0.39528,1.18585 -0.79057,1.58114z" fill="#111111" stroke="none" stroke-width="0.5" stroke-linecap="butt"/><path d="M233.86877,186.80284c-1.25,0 -1.25,-1.25 -1.25,-1.25c0,-1.33333 0,-3.66667 0,-5c0,0 0,-1.25 1.25,-1.25c1.25,0 1.25,1.25 1.25,1.25c0,1.33333 0,2.66667 0,4v1c0,0 0,1.25 -1.25,1.25z" fill="#111111" stroke="none" stroke-width="0.5" stroke-linecap="butt"/><path d="M237.86877,188.13617c-1.25,0 -1.25,-1.25 -1.25,-1.25c0,-2.11111 0,-5.22222 0,-7.33333c0,0 0,-1.25 1.25,-1.25c1.25,0 1.25,1.25 1.25,1.25c0,2.11111 0,4.22222 0,6.33333v1c0,0 0,1.25 -1.25,1.25z" fill="#111111" stroke="none" stroke-width="0.5" stroke-linecap="butt"/><path d="M228.793,171.81245c0.34423,0.38455 -0.93102,2.49349 -0.93102,2.49349c0,0 1.24456,1.93302 1.10025,2.42189c-0.16541,0.56036 -2.44793,0.24739 -2.44793,0.24739c0,0 -1.24765,2.29598 -1.54624,2.29166c-0.43202,-0.00625 -1.13605,-2.80927 -1.13605,-2.80927c0,0 -2.31168,-0.77235 -2.36328,-1.06447c-0.10218,-0.57853 2.12893,-1.58528 2.12893,-1.58528c0,0 0.01441,-3.11896 0.30927,-3.22266c0.49681,-0.17474 2.00845,1.85223 2.00845,1.85223c0,0 2.5026,-1.04393 2.87762,-0.62498z" data-paper-data="{&quot;index&quot;:null}" fill="#ed1515" stroke="none" stroke-width="0" stroke-linecap="round"/><path d="M227.25551,187.40561c0,0 -1.85945,2.49336 -2.47057,2.27841c-0.3627,-0.12757 -0.38043,-3.96416 -0.38043,-3.96416c0,0 -2.74446,-1.23839 -2.61877,-1.95003c0.06347,-0.35933 2.90705,-1.3094 2.90705,-1.3094c0,0 0.86602,-3.44795 1.39744,-3.45564c0.3673,-0.00531 1.90202,2.81895 1.90202,2.81895c0,0 2.80769,-0.385 3.01117,0.3043c0.17751,0.60136 -1.3534,2.97914 -1.3534,2.97914c0,0 1.56867,2.59418 1.14523,3.06721c-0.46131,0.51534 -3.53973,-0.76878 -3.53973,-0.76878z" data-paper-data="{&quot;index&quot;:null}" fill="#ed1515" stroke="none" stroke-width="0" stroke-linecap="round"/></g></g></g></svg>