<svg version="1.1" xmlns="http://www.w3.org/2000/svg" xmlns:xlink="http://www.w3.org/1999/xlink" width="74.16182" height="77.85521" viewBox="0,0,74.16182,77.85521"><g transform="translate(-223.31099,-135.86658)"><g data-paper-data="{&quot;isPaintingLayer&quot;:true}" fill-rule="nonzero" stroke-linejoin="miter" stroke-miterlimit="10" stroke-dasharray="" stroke-dashoffset="0" style="mix-blend-mode: normal"><g data-paper-data="{&quot;index&quot;:null}" stroke-linecap="butt"><path d="M242.10589,149.79693c0.32358,0.5669 0.64141,1.13727 0.95458,1.71048c0.42774,3.74282 0.66548,7.56306 1.24719,11.04112l-0.12894,0.01604c0,0 -0.24532,1.12455 0.58781,1.7314c-3.65249,0.6652 -7.36211,2.31175 -10.39276,4.26607c-0.42753,0.45166 -0.85191,0.92308 -1.2672,1.41164c-1.32985,-7.7309 1.37399,-15.37573 7.60684,-19.37615c0.45478,-0.2919 0.9194,-0.55864 1.39248,-0.8006z" fill="#82e7ff" stroke="#04acd6" stroke-width="1.5"/><path d="M241.94783,159.84172c-0.31856,0.20447 -0.74257,0.11197 -0.94704,-0.2066c-0.20447,-0.31856 -0.11197,-0.74257 0.2066,-0.94704c0.31856,-0.20447 0.74257,-0.11197 0.94704,0.2066c0.20447,0.31856 0.11197,0.74257 -0.2066,0.94704z" fill="#050303" stroke="none" stroke-width="0.5"/><path d="M238.54038,162.1397c-0.31856,0.20447 -0.74257,0.11197 -0.94704,-0.2066c-0.20447,-0.31856 -0.11197,-0.74257 0.2066,-0.94704c0.31856,-0.20447 0.74257,-0.11197 0.94704,0.2066c0.20447,0.31856 0.11197,0.74257 -0.2066,0.94704z" fill="#050303" stroke="none" stroke-width="0.5"/><path d="M238.53247,158.54861c-0.31856,0.20447 -0.74257,0.11197 -0.94704,-0.2066c-0.20447,-0.31856 -0.11197,-0.74257 0.2066,-0.94704c0.31856,-0.20447 0.74257,-0.11197 0.94704,0.2066c0.20447,0.31856 0.11197,0.74257 -0.2066,0.94704z" fill="#050303" stroke="none" stroke-width="0.5"/><path d="M241.41909,155.02473c0.02801,0.18624 0.05683,0.37162 0.08659,0.55607c-0.04325,0.15733 -0.1425,0.29987 -0.29063,0.39495c-0.31856,0.20447 -0.74257,0.11197 -0.94704,-0.2066c-0.20447,-0.31856 -0.11197,-0.74257 0.2066,-0.94704c0.31724,-0.20361 0.73904,-0.11274 0.94447,0.20262z" fill="#050303" stroke="none" stroke-width="0.5"/><path d="M236.15643,165.04557c-0.31856,0.20447 -0.74257,0.11197 -0.94704,-0.2066c-0.20447,-0.31856 -0.11197,-0.74257 0.2066,-0.94704c0.31856,-0.20447 0.74257,-0.11197 0.94704,0.2066c0.20447,0.31856 0.11197,0.74257 -0.2066,0.94704z" fill="#050303" stroke="none" stroke-width="0.5"/></g><g data-paper-data="{&quot;index&quot;:null}" stroke-linecap="butt"><path d="M233.25745,182.42019c0.65189,0.03331 1.30362,0.07333 1.95521,0.11878c3.3824,1.65862 6.7275,3.51899 9.97001,4.90515l-0.05604,0.11723c0,0 0.81462,0.81314 1.77499,0.43891c-1.40993,3.43442 -2.02434,7.44627 -2.01335,11.05239c0.14973,0.60363 0.3178,1.21525 0.50517,1.82848c-7.22718,-3.05009 -12.20622,-9.45035 -12.21294,-16.85656c-0.00049,-0.5404 0.0255,-1.0755 0.07692,-1.60438z" fill="#82e7ff" stroke="#04acd6" stroke-width="1.5"/><path d="M241.63054,187.97125c0.00034,0.37854 -0.30625,0.68568 -0.68479,0.68603c-0.37854,0.00034 -0.68568,-0.30625 -0.68603,-0.68479c-0.00034,-0.37854 0.30625,-0.68568 0.68479,-0.68603c0.37854,-0.00034 0.68568,0.30625 0.68603,0.68479z" fill="#050303" stroke="none" stroke-width="0.5"/><path d="M241.72768,192.08001c0.00034,0.37854 -0.30625,0.68568 -0.68479,0.68603c-0.37854,0.00034 -0.68568,-0.30625 -0.68603,-0.68479c-0.00034,-0.37854 0.30625,-0.68568 0.68479,-0.68603c0.37854,-0.00034 0.6857,0.30625 0.68604,0.68478z" fill="#050303" stroke="none" stroke-width="0.5"/><path d="M238.6995,190.14973c0.00034,0.37854 -0.30625,0.68568 -0.68479,0.68603c-0.37854,0.00034 -0.68568,-0.30625 -0.68603,-0.68479c-0.00034,-0.37854 0.30625,-0.68568 0.68479,-0.68603c0.37854,-0.00034 0.68568,0.30625 0.68603,0.68479z" fill="#050303" stroke="none" stroke-width="0.5"/><path d="M237.28914,185.81829c0.17193,0.07688 0.34357,0.15259 0.51496,0.22702c0.10916,0.12128 0.17566,0.28173 0.17581,0.45776c0.00034,0.37854 -0.30625,0.68568 -0.68479,0.68603c-0.37854,0.00034 -0.68568,-0.30625 -0.68603,-0.68479c-0.00034,-0.37696 0.30369,-0.68312 0.68005,-0.68601z" fill="#050303" stroke="none" stroke-width="0.5"/><path d="M242.88873,195.65483c0.00034,0.37854 -0.30624,0.68568 -0.68478,0.68603c-0.37854,0.00034 -0.68568,-0.30625 -0.68603,-0.68479c-0.00034,-0.37854 0.30625,-0.68568 0.68479,-0.68603c0.37854,-0.00034 0.68568,0.30625 0.68603,0.68479z" fill="#050303" stroke="none" stroke-width="0.5"/></g><g data-paper-data="{&quot;index&quot;:null}" stroke-linecap="butt"><path d="M277.92654,200.7557c-0.01317,-0.65262 -0.01963,-1.30553 -0.02064,-1.95871c0.19941,-0.49252 -1.14455,-1.73562 -1.09755,-2.27224c0.14033,-1.60201 1.27149,-2.61067 1.87421,-4.05515c0.62675,-1.50205 2.90223,-2.50701 3.40662,-3.96638l0.12092,0.04755c0,0 0.75313,-0.87042 0.31151,-1.80174c1.54763,0.51 2.23427,-0.58231 3.90009,-0.3736c2.12953,0.2668 5.24976,1.74552 7.26754,1.5954c0.59144,-0.1923 1.18956,-0.40346 1.78789,-0.634c-2.52809,7.4259 -8.55784,12.84773 -15.9448,13.38144c-0.53901,0.03894 -1.07459,0.05109 -1.60579,0.03744z" fill="#82e7ff" stroke="#04acd6" stroke-width="1.5"/><path d="M283.10799,190.80757c0.37755,-0.02728 0.70574,0.25669 0.73302,0.63424c0.02728,0.37755 -0.25669,0.70574 -0.63424,0.73302c-0.37755,0.02728 -0.70574,-0.25669 -0.73302,-0.63424c-0.02728,-0.37755 0.25669,-0.70574 0.63424,-0.73302z" fill="#050303" stroke="none" stroke-width="0.5"/><path d="M287.19943,190.41831c0.37755,-0.02728 0.70574,0.25669 0.73302,0.63424c0.02728,0.37755 -0.25669,0.70574 -0.63424,0.73302c-0.37755,0.02728 -0.70574,-0.25669 -0.73302,-0.63424c-0.02728,-0.37755 0.25669,-0.70575 0.63424,-0.73303z" fill="#050303" stroke="none" stroke-width="0.5"/><path d="M285.48951,193.57617c0.37755,-0.02728 0.70574,0.25669 0.73302,0.63424c0.02728,0.37755 -0.25669,0.70574 -0.63424,0.73302c-0.37755,0.02728 -0.70574,-0.25669 -0.73302,-0.63424c-0.02728,-0.37755 0.25669,-0.70574 0.63424,-0.73302z" fill="#050303" stroke="none" stroke-width="0.5"/><path d="M281.26941,195.29116c0.06444,-0.17696 0.12775,-0.35356 0.18979,-0.52981c0.1132,-0.11751 0.26853,-0.19526 0.44409,-0.20794c0.37755,-0.02728 0.70574,0.25669 0.73302,0.63424c0.02728,0.37755 -0.25669,0.70574 -0.63424,0.73302c-0.37599,0.02717 -0.703,-0.25431 -0.73266,-0.62951z" fill="#050303" stroke="none" stroke-width="0.5"/><path d="M290.68255,189.00583c0.37755,-0.02728 0.70574,0.25667 0.73302,0.63422c0.02728,0.37755 -0.25669,0.70574 -0.63424,0.73302c-0.37755,0.02728 -0.70574,-0.25669 -0.73302,-0.63424c-0.02728,-0.37755 0.25669,-0.70574 0.63424,-0.73302z" fill="#050303" stroke="none" stroke-width="0.5"/></g><g data-paper-data="{&quot;index&quot;:null}" stroke-linecap="butt"><path d="M273.52972,152.46326c-0.48909,0.43229 -0.98275,0.85964 -1.48014,1.28302c-0.50456,0.16661 -0.58287,1.99567 -1.02245,2.30701c-1.3123,0.9295 -2.81326,0.7196 -4.30463,1.1946c-1.55081,0.49393 -3.7893,-0.59089 -5.22842,-0.03127l-0.04197,-0.12296c0,0 -1.15095,-0.01109 -1.57535,0.9282c-0.61244,-1.51003 -1.88958,-1.32686 -2.80822,-2.73207c-1.17437,-1.79638 -2.06563,-5.13224 -3.48561,-6.57366c-0.52929,-0.32654 -1.07727,-0.64599 -1.64019,-0.95305c7.29785,-2.8769 15.3332,-1.78719 20.51949,3.5c0.37843,0.38579 0.73421,0.78632 1.06748,1.20018z" fill="#82e7ff" stroke="#04acd6" stroke-width="1.5"/><path d="M262.59197,154.9489c-0.26508,-0.27023 -0.26089,-0.7042 0.00934,-0.96928c0.27023,-0.26508 0.7042,-0.26088 0.96928,0.00935c0.26508,0.27023 0.26089,0.70419 -0.00934,0.96927c-0.27023,0.26508 -0.7042,0.26089 -0.96928,-0.00934z" fill="#050303" stroke="none" stroke-width="0.5"/><path d="M259.64802,152.08106c-0.26508,-0.27023 -0.26089,-0.7042 0.00934,-0.96928c0.27023,-0.26508 0.7042,-0.26089 0.96928,0.00934c0.26508,0.27023 0.26088,0.70419 -0.00935,0.96927c-0.27023,0.26508 -0.70419,0.26089 -0.96927,-0.00934z" fill="#050303" stroke="none" stroke-width="0.5"/><path d="M263.16217,151.34173c-0.26508,-0.27023 -0.26089,-0.7042 0.00934,-0.96928c0.27023,-0.26508 0.70419,-0.26089 0.96927,0.00934c0.26508,0.27023 0.26089,0.70419 -0.00934,0.96927c-0.27023,0.26508 -0.70419,0.26089 -0.96927,-0.00934z" fill="#050303" stroke="none" stroke-width="0.5"/><path d="M267.20024,153.44992c-0.17663,0.06536 -0.35225,0.13135 -0.52678,0.19807c-0.16285,-0.01029 -0.32262,-0.07842 -0.44587,-0.20407c-0.26508,-0.27023 -0.26089,-0.70419 0.00934,-0.96927c0.27023,-0.26508 0.7042,-0.26088 0.96928,0.00935c0.26397,0.26911 0.26094,0.70057 -0.00596,0.96593z" fill="#050303" stroke="none" stroke-width="0.5"/><path d="M256.31744,150.33908c-0.26508,-0.27023 -0.26091,-0.70419 0.00932,-0.96927c0.27023,-0.26508 0.7042,-0.26089 0.96928,0.00934c0.26508,0.27023 0.26088,0.70419 -0.00935,0.96927c-0.27023,0.26508 -0.70419,0.26089 -0.96927,-0.00934z" fill="#050303" stroke="none" stroke-width="0.5"/></g><g data-paper-data="{&quot;index&quot;:null}" stroke-linecap="butt"><path d="M254.21863,199.26969c0.48909,-0.43229 0.98275,-0.85964 1.48014,-1.28303c0.50456,-0.16661 0.58287,-1.99567 1.02245,-2.30701c1.3123,-0.9295 2.81326,-0.7196 4.30462,-1.19459c1.55081,-0.49393 3.7893,0.59089 5.22842,0.03127l0.04197,0.12296c0,0 1.15095,0.01109 1.57535,-0.9282c0.61244,1.51003 1.88958,1.32686 2.80822,2.73207c1.17437,1.79638 2.06563,5.13225 3.48561,6.57366c0.52927,0.32654 1.07727,0.64599 1.64019,0.95305c-7.29785,2.8769 -15.33321,1.78718 -20.51949,-3.5c-0.37841,-0.38579 -0.73421,-0.7863 -1.06748,-1.20018z" fill="#82e7ff" stroke="#04acd6" stroke-width="1.5"/><path d="M265.15639,196.78406c0.26508,0.27023 0.26089,0.7042 -0.00934,0.96928c-0.27023,0.26508 -0.7042,0.26088 -0.96928,-0.00934c-0.26508,-0.27023 -0.26089,-0.7042 0.00934,-0.96928c0.27023,-0.26508 0.7042,-0.26089 0.96928,0.00934z" fill="#050303" stroke="none" stroke-width="0.5"/><path d="M268.10033,199.65189c0.26508,0.27023 0.26089,0.7042 -0.00934,0.96928c-0.27023,0.26508 -0.7042,0.26089 -0.96928,-0.00934c-0.26508,-0.27023 -0.26089,-0.70419 0.00934,-0.96927c0.27023,-0.26508 0.7042,-0.26089 0.96928,0.00934z" fill="#050303" stroke="none" stroke-width="0.5"/><path d="M264.58618,200.39123c0.26508,0.27023 0.26089,0.7042 -0.00934,0.96928c-0.27023,0.26508 -0.70419,0.26088 -0.96927,-0.00934c-0.26508,-0.27023 -0.26089,-0.70419 0.00934,-0.96927c0.27023,-0.26508 0.7042,-0.26091 0.96928,0.00932z" fill="#050303" stroke="none" stroke-width="0.5"/><path d="M260.54812,198.28305c0.17663,-0.06535 0.35225,-0.13135 0.52678,-0.19807c0.16284,0.01029 0.32262,0.07841 0.44587,0.20407c0.26508,0.27023 0.26089,0.7042 -0.00934,0.96928c-0.27023,0.26508 -0.7042,0.26088 -0.96928,-0.00934c-0.26398,-0.26911 -0.26094,-0.70056 0.00596,-0.96593z" fill="#050303" stroke="none" stroke-width="0.5"/><path d="M271.43092,201.39388c0.26508,0.27023 0.26091,0.70419 -0.00932,0.96927c-0.27023,0.26508 -0.7042,0.26089 -0.96928,-0.00934c-0.26508,-0.27023 -0.26089,-0.70419 0.00934,-0.96927c0.27023,-0.26508 0.70418,-0.26089 0.96927,0.00934z" fill="#050303" stroke="none" stroke-width="0.5"/></g><g><path d="M227.13503,169.59298l2.35656,-19.98821l18.75842,1.44677l-2.6922,20.65949z" fill="#3b9987" stroke="#3b9987" stroke-width="1" stroke-linecap="butt"/><path d="M228.67005,155.32543l0.78953,-5.51206l19.06788,1.36246l-0.92379,5.78057z" fill-opacity="0.62059" fill="#7bcebf" stroke="#29907d" stroke-width="0" stroke-linecap="butt"/><path d="M227.13503,169.59298l1.81953,-15.82628c0,0 5.71364,0.91004 8.68674,1.38357c3.13668,0.49959 9.66891,1.54001 9.66891,1.54001l-1.7524,15.02074z" fill-opacity="0.25158" fill="#7bcebf" stroke="none" stroke-width="0" stroke-linecap="butt"/><path d="M239.02509,171.01106l0.99818,-15.48224l7.24499,1.16147c0,0 -0.44981,9.10172 -0.57976,11.96364c-0.06581,1.44944 -0.14871,3.27527 -0.14871,3.27527z" fill-opacity="0.54612" fill="#7bcebf" stroke="none" stroke-width="0" stroke-linecap="butt"/><path d="M238.78335,170.80882l1.04888,-15.26325" fill="none" stroke="#29907d" stroke-width="0.5" stroke-linecap="round"/><path d="M228.97007,153.79185l18.59448,2.95363" fill="none" stroke="#29907d" stroke-width="0.5" stroke-linecap="round"/><path d="M231.63761,156.44575c1.67291,-0.44597 3.36762,-0.94356 4.92605,0.09656c0.66029,0.68946 1.14481,2.23511 0.27471,3.01917c-0.39517,0.3561 -1.5182,0.31922 -1.7593,0.90877c-0.54183,1.32491 1.74114,1.3008 2.08812,2.16822c0.40557,1.01389 -0.34722,2.39969 -1.13106,2.94254c-1.64229,0.82477 0.30352,1.76904 -1.19321,2.5766c-2.48705,1.34189 -2.5546,-1.93405 -3.44848,-2.67126c-0.75415,-0.62196 -1.69466,0.82169 -2.05408,-0.9902c-0.00061,-1.59703 1.08606,-2.31759 1.35313,-3.62184c0.26871,-1.31223 -1.20691,-1.04058 -1.35163,-2.13449c-0.15616,-1.18044 0.98046,-2.19824 1.99068,-2.36016c0,0 0.16583,-0.02073 0.30505,0.0661z" fill="#b9f8ed" stroke="none" stroke-width="0.5" stroke-linecap="butt"/><path d="M237.23294,151.22863l0.04662,-0.00441c1.74598,0.50303 3.23631,-0.37828 4.94786,-0.00512c0.99276,0.21645 1.4437,0.79387 2.51774,0.79387c1.11204,0.00278 2.04819,-0.12016 2.96175,0.70305c0.96656,0.87097 0.2218,2.66073 -0.93078,3.02902c-1.14043,0.3644 -3.2446,-1.24833 -4.78322,-1.24833c-1.00244,0 -2.16701,0.69247 -3.06114,0.60228c-0.92856,-0.09366 -1.09111,-1.19688 -1.95333,-1.42301c-0.13498,-0.0354 -1.10231,-0.10338 -1.12219,-0.11711c-1.28416,-0.88669 0.08146,-2.37556 1.10206,-2.41857c0,0 0.15043,0 0.27464,0.08833z" fill="#b9f8ed" stroke="none" stroke-width="0.5" stroke-linecap="butt"/><path d="M242.94299,159.89015c0.06404,0.04217 0.1069,0.0931 0.135,0.14639c1.99462,0.16649 2.16185,1.38635 1.09938,3.23735c2.31804,1.42721 -0.19122,2.87209 0.08305,4.39698c0.13732,0.76345 0.91061,1.58018 0.41262,2.37888c-0.91354,1.46517 -3.84105,0.51966 -4.43607,-0.62926c-0.29773,-1.97292 0.64382,-3.15927 1.27686,-4.88653c0.59912,-1.63471 -1.36446,-3.18514 0.82473,-4.72344c0,0 0.34997,-0.23331 0.60444,0.07962z" fill="#b9f8ed" stroke="none" stroke-width="0.5" stroke-linecap="butt"/><path d="M231.4134,159.71086c-0.24926,-0.35286 -0.77122,-0.6272 -0.74779,-1.05859c0.03744,-0.68927 0.40121,-1.03834 0.85874,-1.15099c-0.07398,-0.08225 -0.14607,-0.16686 -0.21678,-0.25414l-0.06124,0.07655l-0.66656,-0.53325c-0.15245,-0.11983 -0.25036,-0.30591 -0.25036,-0.51486c0,-0.36147 0.29303,-0.6545 0.6545,-0.6545c0.09972,0 0.19423,0.0223 0.27881,0.06218l0.59116,0.26274l-0.00482,0.01084l0.02885,0.00043c0.25399,0.13834 0.50798,0.27667 0.76197,0.415c0,0 0.39608,0.21604 0.35117,0.61824c0.30941,0.25827 0.62246,0.55865 0.96696,0.74977l0.02632,0.03924l0.01027,-0.01369l0.53093,0.3982c0.16243,0.1191 0.26789,0.31132 0.26789,0.52817c0,0.36147 -0.29303,0.6545 -0.6545,0.6545c-0.01932,0 -0.03846,-0.00084 -0.05735,-0.00248l-0.86551,-0.06658l0.00109,-0.01413c-0.02676,0.0015 -0.05358,0.00255 -0.08044,0.00311c-0.06204,0.00128 -0.14285,-0.01749 -0.23293,-0.04926l0.02943,0.04414c0.07247,0.10534 0.11488,0.23297 0.11488,0.3705c0,0.36147 -0.29303,0.6545 -0.6545,0.6545c-0.14972,0 -0.28771,-0.05028 -0.39799,-0.13487l-0.53174,-0.3988l0.01737,-0.02315z" fill="#e7fffb" stroke="none" stroke-width="0.5" stroke-linecap="butt"/><path d="M245.64057,156.7588c0.18807,0.6269 -0.43883,0.81496 -0.43883,0.81496l-0.0919,0.02566c0.07737,0.05395 0.1418,0.12234 0.18795,0.21109c0.12705,0.24431 0.02205,0.59234 -0.19728,0.94016c0.06198,0.10002 0.09777,0.21797 0.09777,0.34429c0,0.13753 -0.04242,0.26515 -0.11488,0.3705l-0.3978,0.59671l-0.02224,-0.01483l-0.01619,0.06672c-0.50254,0.50432 -1.92403,2.06509 -2.83044,1.27358c-0.76139,-0.66488 0.55452,-2.56984 0.89944,-3.11396c0,0 0.01663,-0.02613 0.04834,-0.06341c0.01096,-0.048 0.0272,-0.09399 0.04807,-0.13734l0.32983,-0.72562l0.23541,0.10701c0.15927,-0.34734 0.37405,-0.65828 0.66452,-0.88773l0.78326,-0.24662c0,0 0.6269,-0.18807 0.81496,0.43883z" fill="#e7fffb" stroke="none" stroke-width="0.5" stroke-linecap="butt"/><path d="M230.79956,153.01069c-0.36264,-0.54485 0.18222,-0.90749 0.18222,-0.90749l0.21208,-0.13969c0.00567,-0.04691 0.01654,-0.09393 0.03296,-0.14032c0.03326,-0.09401 0.08581,-0.17567 0.15162,-0.24211l0.44487,-0.46967l0.05625,0.05328l0.08153,-0.16403c1.46455,-0.43319 2.31878,-0.56757 2.95833,0.25176l0.24008,-0.15979l0.25959,0.39003c0.13953,0.07588 0.39271,0.26369 0.35382,0.61384l0.04014,0.0536c0.13124,0.17005 0.17618,0.40116 0.09921,0.61873c-0.10731,0.3033 -0.41536,0.47806 -0.72207,0.42783l-0.66562,-0.0956l0.00497,-0.03458l-0.09982,0.01368c-0.29883,-0.1437 -0.54906,-0.36387 -0.76431,-0.6247l-0.1577,0.13355l-0.02317,-0.02736c-0.0701,0.03025 -0.14555,0.04834 -0.22295,0.05266l-0.62351,0.04884c-0.1416,0.06867 -0.285,0.13339 -0.43084,0.19262l-0.50017,0.33716c0,0 -0.54485,0.36264 -0.90749,-0.18222z" fill="#e7fffb" stroke="none" stroke-width="0.5" stroke-linecap="butt"/></g><g><path d="M258.39105,136.5581l16.94675,10.8577l-9.50182,16.23843l-17.40376,-11.45303z" fill="#3b9987" stroke="#3b9987" stroke-width="1" stroke-linecap="butt"/><path d="M270.55191,144.17601l4.61227,3.1198l-9.56129,16.55361l-4.79506,-3.35793z" fill-opacity="0.62059" fill="#7bcebf" stroke="#29907d" stroke-width="0" stroke-linecap="butt"/><path d="M258.39105,136.5581l13.43837,8.55523c0,0 -3.3163,4.74088 -5.04195,7.20781c-1.82059,2.60265 -5.61201,8.02276 -5.61201,8.02276l-12.74324,-8.1427z" fill-opacity="0.25158" fill="#7bcebf" stroke="none" stroke-width="0" stroke-linecap="butt"/><path d="M251.91767,146.63182l13.48803,7.66612l-4.2119,6.00823c0,0 -7.98925,-4.38356 -10.50639,-5.75157c-1.27483,-0.69284 -2.88069,-1.5656 -2.88069,-1.5656z" fill-opacity="0.54612" fill="#7bcebf" stroke="none" stroke-width="0" stroke-linecap="butt"/><path d="M252.20524,146.50282l13.2689,7.61598" fill="none" stroke="#29907d" stroke-width="0.5" stroke-linecap="round"/><path d="M271.80001,145.11628l-10.78539,15.43224" fill="none" stroke="#29907d" stroke-width="0.5" stroke-linecap="round"/><path d="M268.24698,146.3552c-0.33025,1.69955 -0.6236,3.44126 -2.24037,4.38816c-0.90875,0.29243 -2.51069,0.05249 -2.83547,-1.07282c-0.14751,-0.51109 0.37662,-1.50499 -0.04821,-1.97956c-0.95473,-1.06652 -1.93109,0.99728 -2.86292,0.93013c-1.08917,-0.07848 -2.00644,-1.36136 -2.15199,-2.30364c-0.02382,-1.83761 -1.72373,-0.50039 -1.7957,-2.19956c-0.1196,-2.82343 2.85624,-1.45204 3.91005,-1.93369c0.88907,-0.40636 0.00185,-1.88336 1.78855,-1.41451c1.4366,0.69763 1.6096,1.98996 2.66585,2.80034c1.06272,0.81534 1.4635,-0.63056 2.51061,-0.28249c1.12993,0.3756 1.54842,1.84281 1.25241,2.82217c0,0 -0.05385,0.15821 -0.19281,0.24547z" fill="#b9f8ed" stroke="none" stroke-width="0.5" stroke-linecap="butt"/><path d="M270.49304,153.6683l-0.01641,0.04385c-1.21571,1.35039 -1.0746,3.07604 -2.15845,4.45223c-0.62867,0.79824 -1.34513,0.95138 -1.81467,1.91735c-0.48865,0.99893 -0.78734,1.89463 -1.9271,2.35639c-1.20589,0.48854 -2.48997,-0.96372 -2.31732,-2.16132c0.17083,-1.18498 2.54117,-2.37239 3.2138,-3.75619c0.43824,-0.90157 0.32456,-2.25169 0.79656,-3.01643c0.49017,-0.79418 1.55344,-0.45808 2.13376,-1.13468c0.09085,-0.10592 0.57488,-0.9462 0.59592,-0.95808c1.35887,-0.76731 2.10091,1.1118 1.69342,2.0485c0,0 -0.06576,0.1353 -0.1995,0.20839z" fill="#b9f8ed" stroke="none" stroke-width="0.5" stroke-linecap="butt"/><path d="M260.20678,155.01723c-0.06592,0.03916 -0.13046,0.05544 -0.19068,0.05741c-1.02172,1.72113 -2.19195,1.33825 -3.39222,-0.42652c-2.29698,1.46086 -2.4995,-1.42757 -3.99086,-1.84754c-0.74666,-0.21026 -1.81927,0.12817 -2.3199,-0.66888c-0.91837,-1.46215 1.21183,-3.68174 2.50526,-3.71461c1.90457,0.59473 2.55992,1.96017 3.83663,3.28463c1.2083,1.25349 3.46115,0.16528 3.88761,2.80669c0,0 0.05684,0.41675 -0.33585,0.50881z" fill="#b9f8ed" stroke="none" stroke-width="0.5" stroke-linecap="butt"/><path d="M265.40843,144.72615c0.42633,-0.06992 0.90124,-0.41943 1.27898,-0.20976c0.60355,0.335 0.75846,0.81478 0.65976,1.2755c0.10632,-0.03058 0.21393,-0.05843 0.32334,-0.08386l-0.04208,-0.08854l0.77099,-0.36637c0.17442,-0.08472 0.38457,-0.09143 0.5725,-0.00008c0.3251,0.15802 0.46054,0.54967 0.30252,0.87477c-0.04359,0.08968 -0.10497,0.16493 -0.17782,0.22357l-0.49474,0.41682l-0.00764,-0.00907l-0.013,0.02576c-0.23545,0.16796 -0.4709,0.33591 -0.70635,0.50387c0,0 -0.36746,0.26178 -0.70955,0.04556c-0.36754,0.16537 -0.77456,0.3156 -1.09705,0.54189l-0.0468,0.00652l0.00782,0.01522l-0.59024,0.30343c-0.17813,0.09402 -0.39711,0.10483 -0.59214,0.01003c-0.3251,-0.15802 -0.46054,-0.54967 -0.30251,-0.87476c0.00845,-0.01738 0.01756,-0.03423 0.0273,-0.0505l0.43825,-0.74931l0.01223,0.00716c0.01035,-0.02472 0.02112,-0.0493 0.03237,-0.07371c0.02597,-0.05636 0.07819,-0.12083 0.14614,-0.18796l-0.05256,0.00717c-0.12643,0.01912 -0.25975,0.00148 -0.38344,-0.05864c-0.3251,-0.15802 -0.46054,-0.54967 -0.30252,-0.87477c0.06546,-0.13466 0.17099,-0.23678 0.29528,-0.29898l0.59114,-0.30389l0.01323,0.02574z" fill="#e7fffb" stroke="none" stroke-width="0.5" stroke-linecap="butt"/><path d="M261.84375,158.8123c-0.64603,-0.10492 -0.54112,-0.75095 -0.54112,-0.75095l0.0171,-0.09387c-0.08235,0.046 -0.17201,0.07405 -0.27202,0.07676c-0.27527,0.00746 -0.54238,-0.23913 -0.75932,-0.58845c-0.11705,0.01202 -0.23878,-0.00736 -0.35239,-0.06259c-0.12369,-0.06012 -0.21993,-0.15406 -0.28299,-0.26529l-0.36276,-0.61864l0.02306,-0.01352l-0.05294,-0.04373c-0.23388,-0.67245 -1.01617,-2.63323 0.09195,-3.1024c0.93084,-0.39412 2.06884,1.62218 2.40742,2.17027c0,0 0.01623,0.02638 0.0359,0.0712c0.03838,0.03084 0.07265,0.06555 0.10251,0.10327l0.50842,0.61386l-0.19915,0.16495c0.24276,0.29509 0.42852,0.6242 0.5079,0.98575l-0.12062,0.81226c0,0 -0.10492,0.64603 -0.75095,0.54111z" fill="#e7fffb" stroke="none" stroke-width="0.5" stroke-linecap="butt"/><path d="M271.70277,147.10319c0.64857,-0.08796 0.73651,0.56061 0.73651,0.56061l0.03292,0.2518c0.03971,0.02561 0.07725,0.05594 0.1118,0.09099c0.07001,0.07101 0.12048,0.15397 0.15146,0.2422l0.22793,0.60543l-0.07251,0.0273l0.11189,0.14504c-0.25066,1.50657 -0.50325,2.33358 -1.51973,2.55059l0.03876,0.28578l-0.46427,0.06296c-0.12924,0.09231 -0.40884,0.23792 -0.70675,0.04986l-0.06575,0.01267c-0.21032,0.0437 -0.43781,-0.01692 -0.59984,-0.18127c-0.22587,-0.2291 -0.24837,-0.58256 -0.06911,-0.83645l0.37697,-0.55685l0.02893,0.01959l0.03133,-0.09576c0.25987,-0.20594 0.5673,-0.33474 0.89598,-0.41431l-0.05117,-0.20022l0.03474,-0.00888c0.00344,-0.07627 0.02015,-0.15204 0.05011,-0.22354l0.22865,-0.58213c0.00015,-0.15737 0.00463,-0.31464 0.01512,-0.47169l-0.08458,-0.59723c0,0 -0.08796,-0.64857 0.56061,-0.73652z" fill="#e7fffb" stroke="none" stroke-width="0.5" stroke-linecap="butt"/></g><g stroke-linecap="butt"><path d="M273.62293,154.33349c6.82381,0 12.72493,4.58214 15.54121,11.23847c-0.56516,-0.17214 -1.12883,-0.32648 -1.68511,-0.46392c-3.32256,-0.00711 -7.0184,0.56234 -10.18158,1.86427c0.344,-0.88518 -0.40587,-1.63506 -0.40587,-1.63506l-0.10797,0.05173c-1.27988,-2.98637 -2.99673,-6.06688 -4.52776,-9.18191c-0.04243,-0.60031 -0.07985,-1.20076 -0.11107,-1.80136c0.48724,-0.04782 0.98025,-0.07222 1.47815,-0.07222z" fill="#82e7ff" stroke="#04acd6" stroke-width="1.5"/><path d="M276.6348,161.4842c0,-0.34877 0.28274,-0.63151 0.63151,-0.63151c0.34877,0 0.63151,0.28274 0.63151,0.63151c0,0.34877 -0.28274,0.63151 -0.63151,0.63151c-0.34877,0 -0.63151,-0.28274 -0.63151,-0.63151z" fill="#050303" stroke="none" stroke-width="0.5"/><path d="M280.42053,161.57026c0,-0.34877 0.28274,-0.63151 0.63151,-0.63151c0.34877,0 0.63151,0.28274 0.63151,0.63151c0,0.34877 -0.28274,0.63151 -0.63151,0.63151c-0.34877,0 -0.63151,-0.28274 -0.63151,-0.63151z" fill="#050303" stroke="none" stroke-width="0.5"/><path d="M278.63951,158.78182c0,-0.34877 0.28274,-0.63151 0.63151,-0.63151c0.34877,0 0.63151,0.28274 0.63151,0.63151c0,0.34877 -0.28274,0.63151 -0.63151,0.63151c-0.34877,0 -0.63151,-0.28274 -0.63151,-0.63151z" fill="#050303" stroke="none" stroke-width="0.5"/><path d="M275.91051,157.49035c0.34877,0 0.63151,0.28274 0.63151,0.63151c0,0.34877 -0.28274,0.63151 -0.63151,0.63151c-0.16217,0 -0.31008,-0.06113 -0.4219,-0.16161c-0.06873,-0.15784 -0.13863,-0.31594 -0.2096,-0.47428c0.00235,-0.34676 0.28418,-0.62714 0.6315,-0.62714z" fill="#050303" stroke="none" stroke-width="0.5"/><path d="M283.71521,162.63703c0,-0.34877 0.28274,-0.63151 0.63151,-0.63151c0.34877,0 0.63151,0.28274 0.63151,0.63151c0,0.34877 -0.28274,0.63151 -0.63151,0.63151c-0.34877,0 -0.63151,-0.28274 -0.63151,-0.63151z" fill="#050303" stroke="none" stroke-width="0.5"/></g><g><path d="M278.80506,147.07396l15.61412,10.00389l-8.75463,14.9615l-16.03519,-10.5524z" fill="#3b9987" stroke="#3b9987" stroke-width="1" stroke-linecap="butt"/><path d="M290.00964,154.09283l4.24958,2.87447l-8.80942,15.25189l-4.418,-3.09387z" fill-opacity="0.62059" fill="#7bcebf" stroke="#29907d" stroke-width="0" stroke-linecap="butt"/><path d="M278.80506,147.07396l12.38162,7.88248c0,0 -3.05552,4.36807 -4.64546,6.64101c-1.67743,2.39799 -5.1707,7.39187 -5.1707,7.39187l-11.74116,-7.50239z" fill-opacity="0.25158" fill="#7bcebf" stroke="none" stroke-width="0" stroke-linecap="butt"/><path d="M272.84073,156.35552l12.42737,7.06328l-3.88069,5.53576c0,0 -7.361,-4.03885 -9.6802,-5.29929c-1.17458,-0.63836 -2.65416,-1.44248 -2.65416,-1.44248z" fill-opacity="0.54612" fill="#7bcebf" stroke="none" stroke-width="0" stroke-linecap="butt"/><path d="M273.10568,156.23666l12.22548,7.01709" fill="none" stroke="#29907d" stroke-width="0.5" stroke-linecap="round"/><path d="M291.15959,154.95915l-9.93726,14.2187" fill="none" stroke="#29907d" stroke-width="0.5" stroke-linecap="round"/><path d="M287.88597,156.10066c-0.30428,1.5659 -0.57457,3.17065 -2.0642,4.04309c-0.83728,0.26943 -2.31325,0.04836 -2.6125,-0.98846c-0.13591,-0.4709 0.347,-1.38664 -0.04442,-1.8239c-0.87965,-0.98265 -1.77923,0.91885 -2.63779,0.85699c-1.00353,-0.07231 -1.84866,-1.2543 -1.98276,-2.12249c-0.02195,-1.6931 -1.58818,-0.46104 -1.65449,-2.02659c-0.11019,-2.60141 2.63164,-1.33786 3.60258,-1.78164c0.81916,-0.37441 0.0017,-1.73526 1.6479,-1.30327c1.32363,0.64277 1.48302,1.83348 2.45622,2.58013c0.97916,0.75123 1.34842,-0.58097 2.31318,-0.26028c1.04108,0.34606 1.42666,1.6979 1.15393,2.60024c0,0 -0.04962,0.14576 -0.17765,0.22616z" fill="#b9f8ed" stroke="none" stroke-width="0.5" stroke-linecap="butt"/><path d="M289.9554,162.83868l-0.01512,0.0404c-1.12011,1.2442 -0.99009,2.83416 -1.98872,4.10213c-0.57924,0.73546 -1.23935,0.87656 -1.67197,1.76658c-0.45023,0.92038 -0.72543,1.74564 -1.77556,2.17109c-1.11106,0.45013 -2.29416,-0.88793 -2.13509,-1.99137c0.1574,-1.0918 2.34134,-2.18583 2.96108,-3.46082c0.40377,-0.83068 0.29904,-2.07463 0.73393,-2.77923c0.45163,-0.73173 1.43128,-0.42205 1.96596,-1.04545c0.08371,-0.09759 0.52967,-0.87179 0.54905,-0.88274c1.25201,-0.70697 1.93571,1.02437 1.56026,1.88741c0,0 -0.06059,0.12466 -0.18382,0.192z" fill="#b9f8ed" stroke="none" stroke-width="0.5" stroke-linecap="butt"/><path d="M280.47802,164.08153c-0.06074,0.03608 -0.12021,0.05108 -0.17569,0.0529c-0.94138,1.58579 -2.01958,1.23301 -3.12547,-0.39298c-2.11635,1.34598 -2.30295,-1.31531 -3.67704,-1.70225c-0.68795,-0.19373 -1.67621,0.11809 -2.13747,-0.61628c-0.84615,-1.34717 1.11654,-3.39222 2.30826,-3.4225c1.7548,0.54797 2.35862,1.80603 3.53493,3.02633c1.11328,1.15492 3.18898,0.15228 3.5819,2.58598c0,0 0.05237,0.38398 -0.30944,0.4688z" fill="#b9f8ed" stroke="none" stroke-width="0.5" stroke-linecap="butt"/><path d="M285.27063,154.59971c0.3928,-0.06442 0.83037,-0.38645 1.17841,-0.19327c0.55608,0.30866 0.69882,0.7507 0.60787,1.1752c0.09795,-0.02818 0.19711,-0.05384 0.29792,-0.07727l-0.03877,-0.08158l0.71036,-0.33756c0.1607,-0.07805 0.35433,-0.08424 0.52748,-0.00008c0.29954,0.1456 0.42433,0.50644 0.27873,0.80598c-0.04016,0.08263 -0.09671,0.15197 -0.16383,0.20599l-0.45584,0.38404l-0.00704,-0.00836l-0.01198,0.02373c-0.21694,0.15475 -0.43387,0.3095 -0.65081,0.46425c0,0 -0.33856,0.24119 -0.65375,0.04198c-0.33864,0.15236 -0.71365,0.29078 -1.01079,0.49927l-0.04312,0.00601l0.00721,0.01402l-0.54383,0.27957c-0.16412,0.08663 -0.36588,0.09659 -0.54558,0.00924c-0.29954,-0.1456 -0.42432,-0.50644 -0.27872,-0.80597c0.00779,-0.01601 0.01618,-0.03154 0.02515,-0.04653l0.40379,-0.69039l0.01127,0.0066c0.00954,-0.02278 0.01946,-0.04542 0.02982,-0.06791c0.02392,-0.05193 0.07204,-0.11133 0.13465,-0.17317l-0.04843,0.00661c-0.11648,0.01762 -0.23932,0.00136 -0.35329,-0.05403c-0.29954,-0.1456 -0.42432,-0.50645 -0.27873,-0.80598c0.06031,-0.12407 0.15755,-0.21816 0.27206,-0.27547l0.54465,-0.27999l0.01219,0.02371z" fill="#e7fffb" stroke="none" stroke-width="0.5" stroke-linecap="butt"/><path d="M281.98626,167.57817c-0.59523,-0.09667 -0.49856,-0.69189 -0.49856,-0.69189l0.01576,-0.08649c-0.07587,0.04238 -0.15849,0.06823 -0.25062,0.07072c-0.25362,0.00687 -0.49973,-0.22033 -0.69961,-0.54218c-0.10785,0.01108 -0.22,-0.00679 -0.32467,-0.05766c-0.11396,-0.0554 -0.20264,-0.14195 -0.26074,-0.24443l-0.33423,-0.56999l0.02125,-0.01246l-0.04877,-0.04029c-0.21549,-0.61958 -0.93626,-2.42617 0.08472,-2.85844c0.85764,-0.36312 1.90615,1.49462 2.21811,1.99961c0,0 0.01495,0.02431 0.03307,0.0656c0.03536,0.02841 0.06693,0.0604 0.09444,0.09515l0.46844,0.56558l-0.18349,0.15198c0.22367,0.27189 0.39482,0.57511 0.46796,0.90823l-0.11113,0.74839c0,0 -0.09667,0.59523 -0.6919,0.49856z" fill="#e7fffb" stroke="none" stroke-width="0.5" stroke-linecap="butt"/><path d="M291.07,156.78982c0.59756,-0.08104 0.67859,0.51653 0.67859,0.51653l0.03033,0.232c0.03659,0.02359 0.07117,0.05155 0.103,0.08383c0.0645,0.06543 0.11101,0.14186 0.13955,0.22316l0.21001,0.55782l-0.06681,0.02515l0.10309,0.13363c-0.23095,1.38809 -0.46368,2.15008 -1.40022,2.35002l0.03571,0.26331l-0.42777,0.05801c-0.11908,0.08506 -0.37669,0.21922 -0.65117,0.04594l-0.06058,0.01167c-0.19378,0.04026 -0.40339,-0.01558 -0.55267,-0.16701c-0.2081,-0.21108 -0.22884,-0.53675 -0.06367,-0.77067l0.34733,-0.51306l0.02666,0.01805l0.02887,-0.08823c0.23944,-0.18975 0.52269,-0.30842 0.82553,-0.38173l-0.04715,-0.18447l0.03201,-0.00818c0.00317,-0.07027 0.01857,-0.14008 0.04616,-0.20596l0.21067,-0.53635c0.00014,-0.14499 0.00426,-0.2899 0.01393,-0.4346l-0.07793,-0.55027c0,0 -0.08104,-0.59757 0.51653,-0.6786z" fill="#e7fffb" stroke="none" stroke-width="0.5" stroke-linecap="butt"/></g><g><path d="M279.85199,178.19233l16.94675,10.8577l-9.50182,16.23843l-17.40376,-11.45302z" fill="#3b9987" stroke="#3b9987" stroke-width="1" stroke-linecap="butt"/><path d="M292.01285,185.81024l4.61227,3.1198l-9.56128,16.55361l-4.79506,-3.35792z" fill-opacity="0.62059" fill="#7bcebf" stroke="#29907d" stroke-width="0" stroke-linecap="butt"/><path d="M279.85199,178.19233l13.43836,8.55523c0,0 -3.3163,4.74088 -5.04194,7.20781c-1.82059,2.60265 -5.61201,8.02275 -5.61201,8.02275l-12.74324,-8.1427z" fill-opacity="0.25158" fill="#7bcebf" stroke="none" stroke-width="0" stroke-linecap="butt"/><path d="M273.37861,188.26605l13.48803,7.66612l-4.2119,6.00823c0,0 -7.98925,-4.38356 -10.50639,-5.75157c-1.27483,-0.69284 -2.88069,-1.5656 -2.88069,-1.5656z" fill-opacity="0.54612" fill="#7bcebf" stroke="none" stroke-width="0" stroke-linecap="butt"/><path d="M273.66618,188.13705l13.2689,7.61598" fill="none" stroke="#29907d" stroke-width="0.5" stroke-linecap="round"/><path d="M293.26095,186.75051l-10.78539,15.43224" fill="none" stroke="#29907d" stroke-width="0.5" stroke-linecap="round"/><path d="M289.70793,187.98944c-0.33024,1.69955 -0.62361,3.44126 -2.24037,4.38817c-0.90875,0.29243 -2.51068,0.05249 -2.83547,-1.07283c-0.14751,-0.51109 0.37661,-1.50499 -0.04822,-1.97956c-0.95473,-1.06652 -1.93108,0.99728 -2.86292,0.93013c-1.08918,-0.07848 -2.00644,-1.36136 -2.15199,-2.30364c-0.02382,-1.8376 -1.72373,-0.50039 -1.7957,-2.19956c-0.1196,-2.82343 2.85624,-1.45204 3.91005,-1.9337c0.88907,-0.40636 0.00185,-1.88336 1.78855,-1.41451c1.4366,0.69762 1.6096,1.98996 2.66585,2.80034c1.06273,0.81535 1.4635,-0.63056 2.51061,-0.28249c1.12993,0.3756 1.54843,1.84282 1.25241,2.82217c0,0 -0.05385,0.15821 -0.19281,0.24546z" fill="#b9f8ed" stroke="none" stroke-width="0.5" stroke-linecap="butt"/><path d="M291.95398,195.30254l-0.01641,0.04385c-1.21571,1.35038 -1.07459,3.07604 -2.15845,4.45224c-0.62867,0.79824 -1.34513,0.95138 -1.81467,1.91735c-0.48865,0.99893 -0.78734,1.89463 -1.9271,2.35638c-1.20589,0.48854 -2.48996,-0.96372 -2.31732,-2.16133c0.17083,-1.18499 2.54116,-2.37239 3.2138,-3.75619c0.43824,-0.90158 0.32457,-2.25169 0.79656,-3.01643c0.49018,-0.79418 1.55344,-0.45808 2.13376,-1.13468c0.09085,-0.10592 0.57488,-0.9462 0.59592,-0.95808c1.35887,-0.76731 2.10091,1.1118 1.69342,2.0485c0,0 -0.06577,0.1353 -0.19951,0.20839z" fill="#b9f8ed" stroke="none" stroke-width="0.5" stroke-linecap="butt"/><path d="M281.66773,196.65146c-0.06592,0.03915 -0.13046,0.05544 -0.19068,0.05741c-1.02173,1.72113 -2.19195,1.33825 -3.39222,-0.42652c-2.29698,1.46086 -2.4995,-1.42757 -3.99086,-1.84753c-0.74666,-0.21026 -1.81927,0.12817 -2.3199,-0.66888c-0.91837,-1.46215 1.21183,-3.68174 2.50527,-3.71461c1.90456,0.59474 2.55993,1.96017 3.83663,3.28463c1.2083,1.25349 3.46115,0.16528 3.88761,2.80669c0,0 0.05683,0.41675 -0.33586,0.50881z" fill="#b9f8ed" stroke="none" stroke-width="0.5" stroke-linecap="butt"/><path d="M286.86937,186.36038c0.42633,-0.06992 0.90124,-0.41943 1.27898,-0.20977c0.60354,0.335 0.75846,0.81477 0.65976,1.27551c0.10631,-0.03058 0.21393,-0.05843 0.32335,-0.08387l-0.04208,-0.08854l0.77099,-0.36637c0.17442,-0.08471 0.38457,-0.09143 0.5725,-0.00008c0.3251,0.15803 0.46055,0.54967 0.30252,0.87476c-0.04359,0.08968 -0.10496,0.16493 -0.17782,0.22357l-0.49474,0.41682l-0.00765,-0.00907l-0.013,0.02576c-0.23546,0.16796 -0.4709,0.33592 -0.70635,0.50387c0,0 -0.36746,0.26178 -0.70955,0.04556c-0.36754,0.16537 -0.77456,0.3156 -1.09706,0.54189l-0.04679,0.00652l0.00782,0.01522l-0.59024,0.30344c-0.17813,0.09402 -0.39711,0.10483 -0.59214,0.01003c-0.3251,-0.15803 -0.46053,-0.54966 -0.30251,-0.87476c0.00845,-0.01738 0.01756,-0.03423 0.0273,-0.05051l0.43826,-0.74931l0.01223,0.00716c0.01035,-0.02472 0.02112,-0.0493 0.03237,-0.07371c0.02596,-0.05636 0.07819,-0.12083 0.14614,-0.18796l-0.05257,0.00717c-0.12642,0.01913 -0.25975,0.00148 -0.38344,-0.05864c-0.3251,-0.15803 -0.46054,-0.54967 -0.30252,-0.87477c0.06545,-0.13466 0.171,-0.23678 0.29528,-0.29898l0.59114,-0.30389l0.01322,0.02573z" fill="#e7fffb" stroke="none" stroke-width="0.5" stroke-linecap="butt"/><path d="M283.30469,200.44654c-0.64603,-0.10492 -0.54111,-0.75095 -0.54111,-0.75095l0.0171,-0.09387c-0.08234,0.046 -0.17201,0.07405 -0.27202,0.07676c-0.27527,0.00746 -0.54239,-0.23914 -0.75932,-0.58845c-0.11705,0.01202 -0.23878,-0.00737 -0.35239,-0.06259c-0.12369,-0.06012 -0.21993,-0.15406 -0.28299,-0.26529l-0.36276,-0.61864l0.02306,-0.01352l-0.05294,-0.04372c-0.23388,-0.67246 -1.01616,-2.63324 0.09196,-3.10241c0.93084,-0.39411 2.06884,1.62218 2.40742,2.17027c0,0 0.01623,0.02638 0.03589,0.0712c0.03838,0.03084 0.07265,0.06555 0.10251,0.10327l0.50842,0.61386l-0.19916,0.16495c0.24275,0.29509 0.42852,0.62419 0.5079,0.98574l-0.12062,0.81226c0,0 -0.10492,0.64604 -0.75095,0.54112z" fill="#e7fffb" stroke="none" stroke-width="0.5" stroke-linecap="butt"/><path d="M293.16371,188.73742c0.64857,-0.08795 0.73651,0.56061 0.73651,0.56061l0.03292,0.2518c0.03971,0.02561 0.07724,0.05595 0.11179,0.09099c0.07001,0.07101 0.12048,0.15397 0.15146,0.24221l0.22793,0.60543l-0.07251,0.0273l0.11189,0.14504c-0.25066,1.50656 -0.50325,2.33358 -1.51973,2.55059l0.03876,0.28578l-0.46427,0.06297c-0.12924,0.09232 -0.40884,0.23792 -0.70675,0.04986l-0.06575,0.01266c-0.21031,0.0437 -0.43782,-0.01691 -0.59984,-0.18126c-0.22586,-0.2291 -0.24837,-0.58256 -0.0691,-0.83645l0.37697,-0.55685l0.02893,0.01959l0.03134,-0.09576c0.25988,-0.20594 0.5673,-0.33474 0.89598,-0.4143l-0.05117,-0.20022l0.03474,-0.00887c0.00344,-0.07627 0.02015,-0.15204 0.0501,-0.22354l0.22866,-0.58213c0.00015,-0.15737 0.00462,-0.31464 0.01511,-0.47169l-0.08458,-0.59723c0,0 -0.08796,-0.64857 0.56061,-0.73652z" fill="#e7fffb" stroke="none" stroke-width="0.5" stroke-linecap="butt"/></g><g data-paper-data="{&quot;index&quot;:null}"><path d="M250.89064,191.90395l-17.40376,11.45302l-9.50182,-16.23843l16.94675,-10.8577z" fill="#3b9987" stroke="#3b9987" stroke-width="1" stroke-linecap="butt"/><path d="M238.51503,200.19424l-4.79506,3.35792l-9.56128,-16.55361l4.61227,-3.1198z" fill-opacity="0.62059" fill="#7bcebf" stroke="#29907d" stroke-width="0" stroke-linecap="butt"/><path d="M250.89064,191.90395l-12.74324,8.1427c0,0 -3.79142,-5.4201 -5.61201,-8.02275c-1.72564,-2.46693 -5.04194,-7.20781 -5.04194,-7.20781l13.43836,-8.55524z" fill-opacity="0.25158" fill="#7bcebf" stroke="none" stroke-width="0" stroke-linecap="butt"/><path d="M251.51615,192.69175c0,0 -1.60586,0.87276 -2.88069,1.5656c-2.51714,1.36801 -10.50639,5.75157 -10.50639,5.75157l-4.2119,-6.00822l13.48803,-7.66612z" fill-opacity="0.54612" fill="#7bcebf" stroke="none" stroke-width="0" stroke-linecap="butt"/><path d="M233.84872,193.82155l13.2689,-7.61598" fill="none" stroke="#29907d" stroke-width="0.5" stroke-linecap="round"/><path d="M227.52285,184.81902l10.78539,15.43224" fill="none" stroke="#29907d" stroke-width="0.5" stroke-linecap="round"/><path d="M231.07588,186.05794c-0.13896,-0.08726 -0.19281,-0.24547 -0.19281,-0.24547c-0.29601,-0.97935 0.12248,-2.44657 1.25241,-2.82217c1.04711,-0.34807 1.44788,1.09784 2.51061,0.28249c1.05626,-0.81038 1.22925,-2.10272 2.66585,-2.80034c1.7867,-0.46885 0.89948,1.00814 1.78855,1.4145c1.05381,0.48165 4.02965,-0.88974 3.91005,1.9337c-0.07198,1.69917 -1.77188,0.36195 -1.7957,2.19956c-0.14555,0.94228 -1.06282,2.22516 -2.15199,2.30364c-0.93183,0.06715 -1.90819,-1.99665 -2.86292,-0.93013c-0.42483,0.47457 0.09929,1.46848 -0.04822,1.97957c-0.32479,1.12532 -1.92672,1.36525 -2.83547,1.07282c-1.61676,-0.9469 -1.91013,-2.68862 -2.24037,-4.38817z" fill="#b9f8ed" stroke="none" stroke-width="0.5" stroke-linecap="butt"/><path d="M228.82981,193.37105c-0.13374,-0.07309 -0.19951,-0.20839 -0.19951,-0.20839c-0.40749,-0.9367 0.33456,-2.81581 1.69343,-2.0485c0.02104,0.01188 0.50507,0.85216 0.59591,0.95808c0.58031,0.6766 1.64358,0.3405 2.13376,1.13468c0.472,0.76474 0.35833,2.11486 0.79656,3.01643c0.67264,1.3838 3.04297,2.5712 3.2138,3.75619c0.17264,1.19761 -1.11143,2.64987 -2.31732,2.16132c-1.13976,-0.46176 -1.43845,-1.35745 -1.9271,-2.35638c-0.46954,-0.96597 -1.18599,-1.11911 -1.81467,-1.91735c-1.08386,-1.37619 -0.94275,-3.10185 -2.15845,-4.45224l-0.01641,-0.04385z" fill="#b9f8ed" stroke="none" stroke-width="0.5" stroke-linecap="butt"/><path d="M239.11608,194.71998c-0.39269,-0.09206 -0.33586,-0.50881 -0.33586,-0.50881c0.42646,-2.64141 2.67931,-1.5532 3.88761,-2.80669c1.2767,-1.32445 1.93206,-2.68989 3.83663,-3.28463c1.29343,0.03286 3.42364,2.25245 2.50527,3.71461c-0.50063,0.79705 -1.57324,0.45862 -2.3199,0.66888c-1.49136,0.41996 -1.69388,3.30839 -3.99087,1.84753c-1.20027,1.76477 -2.3705,2.14765 -3.39222,0.42652c-0.06022,-0.00197 -0.12476,-0.01826 -0.19068,-0.05742z" fill="#b9f8ed" stroke="none" stroke-width="0.5" stroke-linecap="butt"/><path d="M233.96101,184.48169l0.01322,-0.02573l0.59114,0.30388c0.12428,0.0622 0.22983,0.16432 0.29528,0.29898c0.15803,0.3251 0.02258,0.71675 -0.30252,0.87477c-0.12369,0.06012 -0.25702,0.07777 -0.38344,0.05864l-0.05257,-0.00717c0.06795,0.06713 0.12018,0.13159 0.14614,0.18795c0.01125,0.02441 0.02202,0.04899 0.03237,0.07371l0.01223,-0.00716l0.43826,0.74931c0.00974,0.01628 0.01885,0.03313 0.0273,0.05051c0.15803,0.3251 0.02259,0.71673 -0.30251,0.87476c-0.19503,0.0948 -0.41401,0.08399 -0.59214,-0.01003l-0.59024,-0.30344l0.00782,-0.01522l-0.04679,-0.00653c-0.3225,-0.22629 -0.72951,-0.37652 -1.09706,-0.54189c-0.34209,0.21622 -0.70955,-0.04556 -0.70955,-0.04556c-0.23546,-0.16796 -0.4709,-0.33591 -0.70635,-0.50387l-0.013,-0.02575l-0.00765,0.00907l-0.49474,-0.41682c-0.07285,-0.05864 -0.13423,-0.13389 -0.17782,-0.22357c-0.15803,-0.3251 -0.02258,-0.71674 0.30252,-0.87476c0.18793,-0.09134 0.39808,-0.08463 0.5725,0.00009l0.77099,0.36637l-0.04208,0.08854c0.10942,0.02543 0.21703,0.05329 0.32335,0.08387c-0.0987,-0.46073 0.05621,-0.94051 0.65976,-1.27551c0.37774,-0.20967 0.85265,0.13985 1.27898,0.20977z" fill="#e7fffb" stroke="none" stroke-width="0.5" stroke-linecap="butt"/><path d="M237.47911,198.51505c-0.64603,0.10492 -0.75095,-0.54111 -0.75095,-0.54111l-0.12062,-0.81226c0.07939,-0.36155 0.26515,-0.69066 0.5079,-0.98575l-0.19916,-0.16495l0.50842,-0.61386c0.02986,-0.03772 0.06412,-0.07243 0.10251,-0.10327c0.01966,-0.04481 0.03589,-0.07119 0.03589,-0.07119c0.33858,-0.54809 1.47658,-2.56439 2.40742,-2.17027c1.10812,0.46917 0.32584,2.42995 0.09196,3.10241l-0.05294,0.04372l0.02306,0.01352l-0.36276,0.61864c-0.06306,0.11123 -0.1593,0.20517 -0.28299,0.26529c-0.11361,0.05522 -0.23534,0.07461 -0.35239,0.06258c-0.21693,0.34931 -0.48405,0.59591 -0.75932,0.58845c-0.1,-0.00271 -0.18967,-0.03076 -0.27201,-0.07676l0.0171,0.09387c0,0 0.10492,0.64603 -0.54111,0.75095z" fill="#e7fffb" stroke="none" stroke-width="0.5" stroke-linecap="butt"/><path d="M227.62009,186.80593c0.64857,0.08795 0.56061,0.73652 0.56061,0.73652l-0.08458,0.59724c0.01049,0.15705 0.01496,0.31432 0.01511,0.47169l0.22866,0.58213c0.02995,0.0715 0.04666,0.14727 0.05011,0.22354l0.03474,0.00888l-0.05117,0.20021c0.32869,0.07957 0.63611,0.20837 0.89598,0.41431l0.03134,0.09576l0.02893,-0.01959l0.37697,0.55685c0.17926,0.25388 0.15676,0.60735 -0.0691,0.83645c-0.16203,0.16435 -0.38953,0.22496 -0.59984,0.18126l-0.06575,-0.01266c-0.29791,0.18806 -0.57751,0.04245 -0.70675,-0.04987l-0.46427,-0.06296l0.03876,-0.28578c-1.01648,-0.21701 -1.26907,-1.04403 -1.51973,-2.55059l0.11189,-0.14504l-0.07251,-0.0273l0.22793,-0.60543c0.03098,-0.08823 0.08145,-0.1712 0.15146,-0.24221c0.03455,-0.03504 0.07208,-0.06538 0.11179,-0.09099l0.03292,-0.2518c0,0 0.08794,-0.64856 0.73651,-0.56061z" fill="#e7fffb" stroke="none" stroke-width="0.5" stroke-linecap="butt"/></g><g data-paper-data="{&quot;index&quot;:null}"><path d="M260.96636,185.91827l16.94675,10.8577l-9.50182,16.23843l-17.40376,-11.45302z" fill="#3b9987" stroke="#3b9987" stroke-width="1" stroke-linecap="butt"/><path d="M273.12722,193.53618l4.61227,3.1198l-9.56128,16.5536l-4.79507,-3.35792z" fill-opacity="0.62059" fill="#7bcebf" stroke="#29907d" stroke-width="0" stroke-linecap="butt"/><path d="M260.96636,185.91827l13.43837,8.55524c0,0 -3.31631,4.74088 -5.04195,7.20781c-1.82059,2.60265 -5.61201,8.02276 -5.61201,8.02276l-12.74324,-8.1427z" fill-opacity="0.25158" fill="#7bcebf" stroke="none" stroke-width="0" stroke-linecap="butt"/><path d="M254.49298,195.99199l13.48802,7.66612l-4.2119,6.00822c0,0 -7.98925,-4.38356 -10.50639,-5.75157c-1.27482,-0.69284 -2.88069,-1.5656 -2.88069,-1.5656z" fill-opacity="0.54612" fill="#7bcebf" stroke="none" stroke-width="0" stroke-linecap="butt"/><path d="M268.04945,203.47897l-13.2689,-7.61598" fill="none" stroke="#29907d" stroke-width="0.5" stroke-linecap="round"/><path d="M274.37533,194.47644l-10.78539,15.43224" fill="none" stroke="#29907d" stroke-width="0.5" stroke-linecap="round"/><path d="M270.8223,195.71537c-0.33024,1.69955 -0.62361,3.44126 -2.24037,4.38816c-0.90875,0.29243 -2.51069,0.05249 -2.83547,-1.07282c-0.1475,-0.51109 0.37662,-1.50499 -0.04821,-1.97957c-0.95473,-1.06652 -1.93108,0.99728 -2.86292,0.93013c-1.08917,-0.07848 -2.00644,-1.36136 -2.15199,-2.30364c-0.02382,-1.8376 -1.72373,-0.50039 -1.7957,-2.19956c-0.1196,-2.82343 2.85624,-1.45204 3.91005,-1.9337c0.88907,-0.40636 0.00185,-1.88336 1.78855,-1.4145c1.4366,0.69762 1.6096,1.98996 2.66585,2.80034c1.06273,0.81535 1.4635,-0.63056 2.51061,-0.28249c1.12993,0.3756 1.54843,1.84282 1.25241,2.82217c0,0 -0.05385,0.15821 -0.19281,0.24546z" fill="#b9f8ed" stroke="none" stroke-width="0.5" stroke-linecap="butt"/><path d="M273.06835,203.02847l-0.01641,0.04385c-1.21571,1.35038 -1.07459,3.07604 -2.15845,4.45224c-0.62867,0.79824 -1.34513,0.95138 -1.81467,1.91735c-0.48865,0.99893 -0.78734,1.89463 -1.9271,2.35639c-1.20589,0.48854 -2.48996,-0.96372 -2.31732,-2.16133c0.17083,-1.18499 2.54116,-2.37239 3.2138,-3.75619c0.43823,-0.90158 0.32457,-2.25169 0.79656,-3.01643c0.49018,-0.79418 1.55344,-0.45808 2.13376,-1.13468c0.09085,-0.10592 0.57487,-0.9462 0.59591,-0.95808c1.35887,-0.76731 2.10091,1.11179 1.69342,2.04849c0,0 -0.06576,0.1353 -0.1995,0.20839z" fill="#b9f8ed" stroke="none" stroke-width="0.5" stroke-linecap="butt"/><path d="M262.7821,204.3774c-0.06592,0.03915 -0.13047,0.05544 -0.19068,0.05741c-1.02173,1.72113 -2.19195,1.33825 -3.39222,-0.42652c-2.29698,1.46086 -2.49951,-1.42757 -3.99087,-1.84753c-0.74666,-0.21026 -1.81927,0.12817 -2.31989,-0.66888c-0.91837,-1.46215 1.21183,-3.68174 2.50527,-3.7146c1.90456,0.59473 2.55993,1.96017 3.83663,3.28462c1.2083,1.25349 3.46115,0.16528 3.88761,2.80669c0,0 0.05683,0.41675 -0.33586,0.50881z" fill="#b9f8ed" stroke="none" stroke-width="0.5" stroke-linecap="butt"/><path d="M267.98375,194.08632c0.42633,-0.06992 0.90124,-0.41943 1.27898,-0.20977c0.60355,0.335 0.75846,0.81477 0.65976,1.2755c0.10631,-0.03058 0.21393,-0.05843 0.32335,-0.08386l-0.04208,-0.08854l0.77099,-0.36637c0.17442,-0.08471 0.38457,-0.09143 0.5725,-0.00009c0.3251,0.15803 0.46055,0.54967 0.30252,0.87477c-0.04359,0.08968 -0.10496,0.16493 -0.17782,0.22357l-0.49474,0.41682l-0.00765,-0.00907l-0.013,0.02576c-0.23546,0.16796 -0.47089,0.33592 -0.70635,0.50387c0,0 -0.36746,0.26178 -0.70955,0.04556c-0.36754,0.16537 -0.77456,0.3156 -1.09705,0.54189l-0.0468,0.00652l0.00782,0.01522l-0.59024,0.30344c-0.17813,0.09402 -0.39711,0.10483 -0.59214,0.01003c-0.3251,-0.15803 -0.46053,-0.54966 -0.30251,-0.87476c0.00845,-0.01738 0.01756,-0.03423 0.0273,-0.0505l0.43825,-0.74931l0.01223,0.00716c0.01035,-0.02472 0.02112,-0.0493 0.03237,-0.07371c0.02596,-0.05636 0.07819,-0.12083 0.14614,-0.18795l-0.05256,0.00717c-0.12643,0.01913 -0.25975,0.00148 -0.38344,-0.05865c-0.3251,-0.15803 -0.46054,-0.54967 -0.30252,-0.87477c0.06546,-0.13466 0.171,-0.23678 0.29528,-0.29898l0.59114,-0.30389l0.01322,0.02573z" fill="#e7fffb" stroke="none" stroke-width="0.5" stroke-linecap="butt"/><path d="M264.41906,208.17247c-0.64603,-0.10492 -0.54111,-0.75095 -0.54111,-0.75095l0.0171,-0.09387c-0.08234,0.046 -0.17201,0.07405 -0.27201,0.07676c-0.27527,0.00746 -0.54239,-0.23914 -0.75932,-0.58845c-0.11705,0.01202 -0.23878,-0.00736 -0.35239,-0.06258c-0.12369,-0.06012 -0.21993,-0.15406 -0.283,-0.26529l-0.36276,-0.61864l0.02306,-0.01352l-0.05293,-0.04373c-0.23388,-0.67246 -1.01617,-2.63323 0.09195,-3.1024c0.93084,-0.39411 2.06884,1.62218 2.40742,2.17027c0,0 0.01623,0.02638 0.0359,0.07119c0.03838,0.03084 0.07265,0.06556 0.10251,0.10328l0.50842,0.61385l-0.19916,0.16495c0.24275,0.29509 0.42852,0.6242 0.5079,0.98575l-0.12062,0.81226c0,0 -0.10492,0.64603 -0.75095,0.54111z" fill="#e7fffb" stroke="none" stroke-width="0.5" stroke-linecap="butt"/><path d="M274.27809,196.46335c0.64857,-0.08795 0.73651,0.56061 0.73651,0.56061l0.03292,0.25181c0.03971,0.02561 0.07724,0.05595 0.11179,0.09099c0.07001,0.07101 0.12048,0.15397 0.15146,0.2422l0.22793,0.60543l-0.07251,0.02729l0.11189,0.14504c-0.25066,1.50656 -0.50325,2.33358 -1.51973,2.55059l0.03876,0.28578l-0.46427,0.06296c-0.12924,0.09232 -0.40884,0.23793 -0.70675,0.04987l-0.06575,0.01266c-0.21032,0.0437 -0.43782,-0.01691 -0.59984,-0.18126c-0.22586,-0.2291 -0.24837,-0.58257 -0.06911,-0.83645l0.37697,-0.55685l0.02893,0.01959l0.03134,-0.09576c0.25987,-0.20594 0.5673,-0.33474 0.89598,-0.41431l-0.05117,-0.20021l0.03474,-0.00888c0.00345,-0.07627 0.02016,-0.15204 0.05011,-0.22354l0.22866,-0.58213c0.00015,-0.15737 0.00462,-0.31464 0.01511,-0.47169l-0.08458,-0.59724c0,0 -0.08795,-0.64857 0.56061,-0.73652z" fill="#e7fffb" stroke="none" stroke-width="0.5" stroke-linecap="butt"/></g></g></g></svg>