<svg version="1.1" xmlns="http://www.w3.org/2000/svg" xmlns:xlink="http://www.w3.org/1999/xlink" width="118.54679" height="118.03201" viewBox="0,0,118.54679,118.03201"><defs><linearGradient x1="319.75593" y1="131.71713" x2="331.5348" y2="229.23008" gradientUnits="userSpaceOnUse" id="color-1"><stop offset="0" stop-color="#b1cf16"/><stop offset="1" stop-color="#e9f366"/></linearGradient><radialGradient cx="311.84981" cy="160.25684" r="5.14225" gradientUnits="userSpaceOnUse" id="color-2"><stop offset="0" stop-color="#020702"/><stop offset="1" stop-color="#050a02"/></radialGradient><radialGradient cx="354.54195" cy="163.27112" r="4.03315" gradientUnits="userSpaceOnUse" id="color-3"><stop offset="0" stop-color="#020702"/><stop offset="1" stop-color="#050a02"/></radialGradient></defs><g transform="translate(-269.18378,-112.10711)"><g data-paper-data="{&quot;isPaintingLayer&quot;:true}" fill-rule="nonzero" stroke-linejoin="miter" stroke-miterlimit="10" stroke-dasharray="" stroke-dashoffset="0" style="mix-blend-mode: normal"><path d="M375.87705,212.24063c1.17935,0.3327 0.7121,1.00331 0.7121,1.00331l-0.9442,1.05262c-2.1227,0.12808 -4.1412,0.47634 -6.24828,0.49748c-0.01065,0.00017 -0.02137,0.00029 -0.03209,0.00029c-0.15972,0.0003 -0.3151,-0.01698 -0.46048,-0.04873c-0.3732,-0.0723 -0.84763,-0.25181 -0.91282,-0.69753c-0.06517,-0.44573 0.35647,-0.62688 0.70832,-0.7005c0.136,-0.03228 0.28628,-0.05012 0.44601,-0.05042c0.01031,-0.00001 0.02061,0.00003 0.0309,0.00016c1.78278,0.00581 3.09777,-0.6055 4.95334,-0.27189l0.10064,-0.4469c0,0 0.46721,-0.67062 1.64658,-0.33789z" fill="#334a0d" stroke="none" stroke-width="0.5" stroke-linecap="butt"/><g><g stroke="#004700" stroke-width="1" stroke-linecap="butt"><path d="M314.53442,147.83329c0,0 2.18622,-12.10163 3.67953,-17.22342c1.33707,-4.58601 7.13697,-14.43523 7.13697,-14.43523c0,0 11.57291,5.19331 13.38489,5.56446c0.38058,0.07798 3.78444,1.6666 3.78444,1.6666c0,0 -5.43732,6.51334 -6.7316,10.95255c-1.51769,5.20543 -4.9051,16.82379 -4.9051,16.82379z" fill="#399435"/><path d="M344.15325,123.17169c-0.53114,1.82166 -3.45764,0.84546 -7.8974,-0.21264c-0.74771,-0.17821 -0.92967,-2.44624 -1.75897,-2.61614c-1.07572,-0.22033 -2.69366,1.50732 -3.61975,1.05391c-4.02742,-1.97192 -6.48106,-5.7134 -5.97652,-7.44392c0.62055,-2.12847 5.76217,-1.37228 11.51584,-0.19378c5.75371,1.17853 8.35738,7.28409 7.73683,9.41256z" fill="#91e665"/></g><path d="M274.04681,211.69724c-4.63935,-8.0786 -4.13917,-15.87762 -3.34478,-24.35621c0.86542,-9.23632 1.97055,-17.27847 7.40305,-25.59079c3.08137,-3.82327 6.26146,-7.78605 8.90869,-11.78628c4.16174,-6.28878 6.61524,-13.70234 16.24627,-16.76039c5.58173,-1.77231 13.38613,-2.31323 18.76541,0.4906c1.53746,0.80135 3.56152,1.24692 4.98277,2.11151c2.93504,-1.49695 3.45374,-2.05973 8.24849,-0.03522c1.15908,0.48942 2.20417,1.2065 2.92345,2.02623c0.75342,-0.55291 1.82971,-0.89577 2.77602,-1.28934c3.3645,-1.39926 4.31457,-1.6368 8.31401,-1.38158c9.4922,0.60571 12.32503,7.25385 14.93858,12.81522c1.64032,3.70425 4.09538,7.38109 5.36572,11.12755c0.30426,0.89731 0.67514,3.75385 1.3592,4.85042c2.09383,3.35659 4.93124,6.3254 6.49255,9.88642c3.08428,7.03464 4.39245,14.62355 6.19079,21.79953c1.34347,5.36096 3.5768,10.90763 3.0286,16.24525c-0.036,0.5543 -0.4146,6.63104 -0.505,6.94036c-0.46246,1.58277 -2.30238,2.76559 -2.81408,4.33787c-0.30016,0.92237 0.43903,2.07894 -0.23851,2.87342c-2.88581,3.38367 -11.44672,3.64675 -16.61185,2.58007c-3.36339,-0.69459 -4.96798,-1.74103 -7.37605,-3.49043c-0.90341,-0.65631 -1.84186,-1.31279 -2.52853,-2.08704c-0.24333,-0.2744 0.27924,-0.9538 -0.15584,-0.93986c-0.54115,0.01734 -0.33719,0.78949 -0.79776,0.97041c-2.34021,0.91944 -4.9923,1.45626 -7.63622,1.8931c-7.22483,1.1937 -13.17717,-0.04965 -19.28178,-3.30663c-0.75174,-0.83747 -1.55415,-1.65474 -2.25523,-2.51239c-0.23013,-0.28154 -0.09307,-0.91201 -0.52982,-0.89472c-0.58813,0.02326 -0.55029,0.76876 -1.0582,0.95757c-3.95194,1.46918 -8.85741,2.29716 -13.40267,2.59405c-12.16145,0.79434 -31.01784,1.94065 -38.68415,-7.03458c0,0 -1.60279,-1.95678 1.01098,-2.94278c0.08983,-0.03388 0.17848,-0.0643 0.2659,-0.09142z" fill="url(#color-1)" stroke="#334a0d" stroke-width="2" stroke-linecap="butt"/><path d="M348.66406,159.95435c2.71028,-0.00602 3.99045,-4.16392 6.10441,-3.08622c2.92447,1.49091 4.9707,3.82108 5.28745,6.4434c0.54571,4.51781 -4.24854,8.19194 -10.70831,8.2063c-6.45977,0.01439 -11.32597,-1.7499 -11.87171,-6.26776c-0.54571,-4.51781 2.82344,-5.46129 9.2832,-5.47565z" data-paper-data="{&quot;index&quot;:null}" fill="#f6f9df" stroke="#354c0d" stroke-width="1.5" stroke-linecap="butt"/><path d="M327.60565,162.48967c0.54571,4.51781 -3.89177,6.30286 -10.35154,6.31725c-6.45977,0.01439 -12.13881,-3.63637 -12.68452,-8.1542c-0.31674,-2.62231 1.16554,-4.96037 3.72838,-6.46348c1.85252,-1.08654 5.67584,4.47415 8.38611,4.4681c6.45977,-0.01439 10.37581,-0.68548 10.92153,3.83234z" fill="#f6f9df" stroke="#354c0d" stroke-width="1.5" stroke-linecap="butt"/><path d="M358.23829,161.02714c-1.22185,0.00273 -1.32772,-0.87373 -1.32772,-0.87373l0.03571,-0.00663c-0.88844,-2.22091 -2.92029,-1.08835 -5.36091,-1.07738c-2.52977,-0.05721 -4.96729,1.929 -7.83439,2.20261c-7.49744,0.71549 -14.15689,-0.26878 -21.22779,-2.68441c-2.23692,-0.91043 -4.94226,-0.2554 -7.90782,-0.97022c-5.10007,-1.22936 -10.55525,-3.07884 -12.72925,0.85893c0,0 -0.45171,0.78516 -1.59194,0.3956c-1.14022,-0.38952 -0.68847,-1.17467 -0.68847,-1.17467c4.28535,-7.22655 16.26743,-3.75851 23.90782,-0.64887c6.61953,2.26143 12.71249,3.1163 19.72873,2.48453c3.20087,-0.28823 5.05294,-2.16141 8.13135,-2.21639c3.68213,0.0016 6.22562,-0.85823 7.89208,2.39988l0.08863,0.43162c0,0 0.10587,0.87646 -1.11599,0.87916z" fill="#334a0d" stroke="none" stroke-width="0.5" stroke-linecap="butt"/><path d="M314.8026,160.25026c0.24851,2.05723 -0.87209,3.7279 -2.5029,3.7315c-1.6308,0.00363 -3.15427,-1.66115 -3.40275,-3.71836c-0.24851,-2.05723 0.87208,-3.72787 2.50286,-3.73151c1.6308,-0.00363 3.15428,1.66114 3.40276,3.71836z" fill="url(#color-2)" stroke="none" stroke-width="0" stroke-linecap="butt"/><path d="M357.59659,163.26432c0.1949,1.61351 -1.01473,2.92455 -2.70175,2.92833c-1.68702,0.00373 -3.21266,-1.30121 -3.40757,-2.9147c-0.1949,-1.61351 1.01471,-2.92456 2.70175,-2.92833c1.68702,-0.00373 3.21266,1.30121 3.40757,2.9147z" fill="url(#color-3)" stroke="none" stroke-width="0" stroke-linecap="butt"/><path d="M300.4804,198.65021c-0.78914,0.62168 -1.72797,0.00385 -1.72797,0.00385l-0.90841,-0.68461c-3.63517,0.33317 -8.07877,1.29383 -9.55982,-2.34064c-0.0599,-0.14702 -0.34402,-2.57749 -0.37463,-2.83066c0,0 -0.10589,-0.87646 1.116,-0.87915c1.22185,-0.00273 1.32772,0.87373 1.32772,0.87373c0.09778,0.80937 -0.0483,1.63372 0.26061,2.42806c0.98176,2.52457 5.31861,1.02877 7.96967,1.12708l1.74709,1.06283c0,0 0.93884,0.61783 0.14972,1.23949z" fill="#334a0d" stroke="none" stroke-width="0.5" stroke-linecap="butt"/><path d="M370.67332,201.54965c0.3433,2.53594 -15.19033,-3.03382 -23.81738,-4.64612c-8.09954,-1.5137 -16.09684,-3.5216 -16.37667,-3.51872c-4.44405,0.04559 -8.54387,0.56838 -11.93058,1.1722c-5.59002,0.99665 -21.9483,-0.39301 -22.38418,-3.61278c-0.69996,-5.17048 19.73529,-12.17049 31.51451,-12.2913c11.77922,-0.12083 42.29438,17.72624 42.99432,22.89673z" fill="#ffffff" stroke="#334a0d" stroke-width="1.5" stroke-linecap="butt"/><path d="M310.10951,182.8225l4.88983,10.32215" fill="none" stroke="#334a0d" stroke-width="1.5" stroke-linecap="round"/><path d="M337.07086,181.54861l0.49359,15.55343" fill="none" stroke="#334a0d" stroke-width="1.5" stroke-linecap="round"/><path d="M355.88965,199.50714l0.28838,-9.77688" fill="none" stroke="#334a0d" stroke-width="1.5" stroke-linecap="round"/><path d="M298.71384,191.91543l36.83095,-5.76341l34.51109,14.80555" fill="none" stroke="#334a0d" stroke-width="1.5" stroke-linecap="round"/></g></g></g></svg>