<svg version="1.1" xmlns="http://www.w3.org/2000/svg" xmlns:xlink="http://www.w3.org/1999/xlink" width="149.20136" height="118.12847" viewBox="0,0,149.20136,118.12847"><g transform="translate(-167.99374,-123.54206)"><g data-paper-data="{&quot;isPaintingLayer&quot;:true}" fill-rule="nonzero" stroke-linecap="butt" stroke-linejoin="miter" stroke-miterlimit="10" stroke-dasharray="" stroke-dashoffset="0" style="mix-blend-mode: normal"><g stroke="none" stroke-width="0.5"><path d="M179.58814,175.05558c-1.89326,-0.49597 -1.89326,-2.38166 -1.89326,-2.38166c0.00852,-1.21631 -0.1692,-2.44432 0.02557,-3.64893c0.18971,-1.17324 0.35913,-2.43352 1.11742,-3.42001c1.18237,-1.5382 2.40664,-3.69607 4.52607,-3.92183c5.05391,-0.53833 11.57666,9.02784 16.7942,5.00123c6.89927,-5.32447 12.96681,-11.54037 19.8429,-16.94758c0.92093,-0.7242 5.91681,-4.82322 6.99861,-4.88798c4.63608,-0.27757 6.31415,2.50389 8.6342,4.94964c0.60418,1.1178 1.29052,2.20506 1.81256,3.35341c0.23695,0.52123 -0.09536,1.33797 0.45458,1.6336c0.96243,0.51738 6.10035,-0.66553 6.35757,-0.6965c5.26157,-0.63355 10.46913,-0.51111 15.75981,-0.50053c3.37697,0.00675 6.91748,-0.44422 10.07524,0.98245c6.63826,2.99915 8.91815,10.2736 11.18647,15.85429c0.91335,2.24709 2.24305,4.38278 2.85768,6.70461c0.12762,0.4821 -0.54921,1.2821 -0.02704,1.48356c6.00576,2.31701 14.97533,-3.97978 17.36645,4.72271c0.43611,1.58722 -0.56444,3.22613 -0.84665,4.83919c-3.30712,9.93297 -11.81378,18.11907 -17.02511,27.40357c-1.81831,3.2395 -3.19397,9.41625 -7.81353,10.69689c-1.38142,0.38296 -2.78125,-0.77072 -4.22299,-0.90936c-4.70949,-0.45287 -9.59646,0.48454 -13.87137,2.16549c-0.34548,0.13585 -3.44662,1.43564 -3.81763,2.33881c-0.61453,1.49596 0.12436,5.58965 -1.04027,6.56623c-2.60363,2.18325 -6.34913,0.82776 -9.04072,0.22141c-7.05568,-2.25236 -13.95802,-5.15512 -20.19176,-8.84333c-1.47272,-0.87134 -2.91927,-1.78276 -4.27708,-2.78407c-0.30257,-0.22313 -0.27356,-0.93152 -0.66203,-0.85828c-0.39512,0.07449 -0.02744,0.73144 -0.24097,1.02852c-0.74217,1.03261 -1.78542,1.88275 -2.57462,2.88892c-3.54226,4.51609 -7.53527,12.75733 -15.82045,10.95318c-7.58609,-1.65191 -3.53395,-9.2344 -6.67887,-12.96293c-2.49178,-2.95419 -9.94739,-2.09961 -13.18501,-2.10021c-1.39135,0.11028 -7.7783,0.63574 -8.06121,0.53138c-3.97556,-1.46663 -3.79218,-4.55758 -3.99672,-7.43464c-0.45213,-6.35982 0.45585,-12.1752 1.97176,-18.35817c0.26583,-1.08426 0.19679,-2.24891 0.69379,-3.27051c1.02096,-2.09862 4.77056,-5.7377 6.25712,-7.30159c0.64906,-0.68283 2.62885,-1.75037 1.73855,-2.18441c-2.40905,-1.17448 -6.2102,-0.14946 -6.78467,-4.08712c-0.52843,-3.62208 3.69363,-5.50574 7.60135,-6.81942z" fill-opacity="0.65323" fill="#f3efef"/><g fill-opacity="0.48866" fill="#f3efef"><path d="M219.34699,139.08083c-1.27958,-1.30495 -0.0972,-2.88917 -0.0972,-2.88917c0.76982,-1.01785 1.3905,-2.13293 2.30947,-3.05357c0.89502,-0.89667 1.82759,-1.87597 3.08321,-2.34897c1.95783,-0.73754 4.33943,-1.97603 6.26157,-1.1713c4.58347,1.91891 4.06516,13.01603 10.97336,12.08112c9.13485,-1.23625 18.12989,-3.61165 27.29715,-4.92829c1.22778,-0.17634 7.99516,-1.27608 8.94462,-0.82294c4.06893,1.94194 3.73469,5.06604 4.15027,8.20929c-0.1933,1.22257 -0.29844,2.45801 -0.5799,3.6677c-0.12775,0.54907 -0.91906,1.07932 -0.6424,1.58571c0.48415,0.88622 5.54237,2.30301 5.77789,2.39767c4.81763,1.93634 9.11587,4.48248 13.55409,6.97364c2.83285,1.59007 6.09009,2.87233 7.84845,5.55245c3.69643,5.63418 1.05054,12.81532 -0.54302,18.56804c-0.64165,2.31636 -0.86367,4.73448 -1.80317,6.97348c-0.19507,0.4649 -1.26533,0.81945 -0.95295,1.23369c3.59277,4.76434 15.07661,3.68256 11.62875,12.11561c-0.62884,1.53808 -2.49707,2.44554 -3.7456,3.66831c-9.00665,6.79333 -21.28622,9.67957 -31.48603,15.03469c-3.55886,1.86848 -8.58758,6.41231 -13.27159,5.32082c-1.40069,-0.32639 -1.85334,-1.9524 -2.97766,-2.74531c-3.67261,-2.59005 -8.36607,-4.09536 -13.01154,-4.68884c-0.37544,-0.04796 -3.79578,-0.41096 -4.6738,0.17375c-1.45428,0.96848 -3.4004,4.75437 -4.99117,5.0284c-3.55634,0.61264 -5.85309,-2.28344 -7.73418,-4.05569c-4.51538,-5.20263 -8.49411,-10.87973 -11.41863,-16.90303c-0.69092,-1.423 -1.33471,-2.8674 -1.84759,-4.34568c-0.11429,-0.32942 0.35427,-0.91094 -0.01803,-1.03168c-0.37866,-0.1228 -0.48169,0.60162 -0.84735,0.75103c-1.27098,0.51931 -2.68051,0.74407 -3.97444,1.21911c-5.80766,2.13214 -14.32977,7.1824 -20.15913,1.77947c-5.33747,-4.94703 2.82125,-9.41611 2.51702,-14.02407c-0.24105,-3.65098 -7.04056,-6.43102 -9.76019,-7.95055c-1.23806,-0.56014 -6.93339,-3.1153 -7.10562,-3.33571c-2.42035,-3.0974 -0.32819,-5.60815 1.30397,-8.12121c3.60794,-5.55518 8.01716,-10.01484 13.16761,-14.49809c0.9032,-0.78619 1.57546,-1.79704 2.63358,-2.42213c2.17364,-1.2841 7.60557,-2.58216 9.83507,-3.19857c0.97345,-0.26914 3.30609,-0.23713 2.83029,-1.01949c-1.28748,-2.11698 -5.12363,-3.03924 -3.13724,-6.61691c1.82719,-3.29093 6.55537,-2.89256 10.66206,-2.1628z"/><path d="M275.68431,137.44458c0.74856,-1.58391 2.91888,-1.4069 2.91888,-1.4069c1.3991,0.12152 2.82916,0.08373 4.1973,0.36455c1.33252,0.2735 2.76712,0.53771 3.83133,1.28335c1.65938,1.16265 4.02806,2.41955 4.08893,4.26599c0.14518,4.40295 -11.47721,9.12236 -7.33259,13.99367c5.48052,6.44145 12.06509,12.25029 17.64302,18.67953c0.74706,0.86108 4.99583,5.5483 4.96882,6.48602c-0.11572,4.01863 -3.47454,5.20271 -6.50723,6.97115c-1.34324,0.4154 -2.65903,0.9044 -4.02972,1.2462c-0.62215,0.15514 -1.53096,-0.20772 -1.92285,0.23814c-0.68582,0.78028 0.19335,5.31608 0.20485,5.54051c0.23528,4.59072 -0.39448,9.06397 -0.90329,13.61932c-0.32477,2.90761 -0.13808,5.99902 -2.0765,8.58455c-4.07497,5.43533 -12.66145,6.71591 -19.29742,8.14553c-2.672,0.57564 -5.25487,1.52031 -7.98486,1.83167c-0.56684,0.06465 -1.42406,-0.59333 -1.70495,-0.16255c-3.2305,4.95466 3.17476,13.27031 -7.06575,14.51264c-1.86773,0.22658 -3.6601,-0.78892 -5.49015,-1.18338c-11.12183,-3.78049 -19.74504,-11.87484 -29.94175,-17.23436c-3.55779,-1.87001 -10.53773,-3.63454 -11.57804,-7.73311c-0.31109,-1.22562 1.14813,-2.32286 1.44303,-3.55147c0.9633,-4.01329 0.34313,-8.30995 -1.19026,-12.14928c-0.12393,-0.31028 -1.32879,-3.10299 -2.33347,-3.50729c-1.66408,-0.66965 -6.44505,-0.41761 -7.45971,-1.51225c-2.26839,-2.44719 -0.35671,-5.54556 0.59383,-7.80663c3.25464,-5.86491 7.24347,-11.53672 12.07354,-16.55899c1.14111,-1.18651 2.32588,-2.34672 3.60579,-3.42207c0.28521,-0.23963 1.0978,-0.14814 1.04998,-0.48958c-0.04865,-0.34727 -0.83927,-0.0923 -1.16114,-0.30407c-1.11881,-0.73608 -1.99933,-1.71433 -3.0833,-2.48844c-4.86524,-3.47451 -13.9756,-7.68689 -11.1214,-14.65272c2.61336,-6.37805 10.95997,-2.1766 15.54651,-4.535c3.63401,-1.8686 3.35029,-8.36959 3.6549,-11.15776c0.00368,-1.20858 -0.00155,-6.75834 0.14512,-6.99218c2.06119,-3.28607 5.60148,-2.83801 8.932,-2.74408c7.36222,0.20762 13.97015,1.53546 20.94409,3.42135c1.22296,0.33071 2.56989,0.38059 3.69903,0.9045c2.31956,1.07625 6.15594,4.64699 7.81635,6.07402c0.72497,0.62307 1.7678,2.42826 2.35093,1.70229c1.57789,-1.96442 0.75497,-5.33417 5.34092,-5.45928c4.2184,-0.11508 5.99006,3.69777 7.13522,7.1864z"/></g></g><path d="M251.22725,188.15303c-0.03802,0.24908 -0.10987,0.5141 -0.22717,0.79192c-0.72655,1.72079 -1.74371,0.49165 -1.74371,0.49165c-2.27237,-2.94693 -3.69209,-10.31436 -0.86108,-14.06482c0.47254,-0.62602 3.50417,-1.79105 4.09471,-2.04996c5.08307,-2.2286 9.6927,-3.94899 14.95626,-2.84221l0.05426,0.04642l0.00356,-0.02709l1.46875,0.55217c0.57199,0.19405 1.00287,1.04858 1.00287,2.07337c0,0.64728 -0.1719,1.22663 -0.44268,1.61453l-1.15488,1.67467l-0.26351,-0.52009c-0.98462,1.35716 -1.97395,2.24664 -3.19022,4.12388c-0.03166,0.04887 -0.06822,0.10206 -0.10861,0.15792c3.452,0.98643 4.34557,6.93986 3.83058,12.16147c-0.12214,1.23838 0.15061,2.89668 -0.42033,3.69876c-0.60803,0.85418 -1.5782,0.28554 -2.36752,0.21772c-2.23405,-0.19196 -4.46159,-0.52163 -6.73986,-0.54602c-2.83328,-1.18143 -5.27095,-5.63067 -7.8914,-7.55427z" fill="#08ab14" stroke="#137a1b" stroke-width="1"/><g><g><path d="M241.40146,204.48012c-4.95911,0 -9.51141,-2.01296 -13.07851,-5.37043c1.12094,-1.24257 2.11433,-2.4004 2.9402,-3.31924c2.34853,-2.61294 2.89716,-7.5005 2.96556,-10.85199c0.07604,-3.72578 -0.47677,-6.87325 -0.48227,-10.28847c-0.00647,-4.01626 0.16462,-10.25692 -0.77285,-16.0094c2.57486,-1.32617 5.42688,-2.06332 8.42787,-2.06332c11.446,0 20.7248,10.72341 20.72481,23.95141v0.00002c-0.00001,13.22799 -9.27881,23.95141 -20.72481,23.95141z" fill="#0dd81d" stroke="#137a1b" stroke-width="2.5"/><path d="M257.86646,167.21047c0.1615,-0.08269 0.36435,-0.13462 0.61913,-0.13462c1.25,0 1.25,1.25 1.25,1.25l-1.49515,1.47393c-1.48398,-0.30502 -2.90401,-0.22742 -4.42271,-0.24007c-3.97796,-1.29024 -7.94962,-1.4006 -12.06474,-1.72553c-2.74474,-0.21672 -5.3883,-0.66425 -8.05776,-1.01164c-0.02615,-0.82512 -0.06316,-1.66737 -0.11512,-2.5181c2.77964,0.35604 5.52854,0.82525 8.37909,1.03826c4.14794,0.30996 8.26674,0.37634 12.25899,1.74929c1.26275,-0.01326 2.43411,-0.03347 3.64827,0.11848z" fill="#137a1b" stroke="none" stroke-width="0.5"/><path d="M260.48019,191.65677c0,1.25 -1.25,1.25 -1.25,1.25l-0.96064,-0.0894c-0.70373,-0.29837 -1.49241,-0.41985 -2.25685,-0.40716c-0.00598,0.00016 -0.00912,0.00016 -0.00912,0.00016c0,0 -0.00183,0 -0.00534,-0.00007l-1.72026,-0.02248c-1.69906,-0.65633 -3.50865,-1.15092 -5.29668,-1.50853c-1.61289,-0.55468 -2.67306,-0.21794 -4.32016,-0.46661c-1.76597,-0.26661 -3.37278,-1.10143 -5.08136,-1.5114c-1.97288,-0.47339 -3.76404,0.03626 -5.67038,0.05686c0.12552,-0.85464 0.20673,-1.70136 0.25684,-2.50192c1.17741,-0.05133 2.30305,-0.34489 3.53957,-0.26695c2.61252,0.16467 4.76628,1.3487 7.30209,1.74758c1.66437,0.2618 2.93956,-0.01725 4.61508,0.5262c1.72342,0.34468 3.5074,0.79478 5.12778,1.46989l1.24299,-0.02238c0.00644,-0.00018 0.00984,-0.00018 0.00984,-0.00018c0.00185,0.00002 0.0037,0.00005 0.00555,0.00007c1.0807,0.0147 2.17983,0.19879 3.1889,0.58573l0.03216,-0.0894c0,0 1.25,0 1.25,1.25z" fill="#137a1b" stroke="none" stroke-width="0.5"/><path d="M256.29903,197.41663c0.69338,1.04006 -0.34669,1.73344 -0.34669,1.73344l-1.43798,0.70634c-0.8317,-0.0037 -1.67039,0.05647 -2.48507,0.22393c-1.21515,0.24303 -2.73496,0.7799 -3.96816,0.76888c-2.96993,-0.02653 -5.53901,-2.84945 -8.329,-3.78429c-2.64954,-0.88778 -5.51478,-1.23413 -8.38965,-1.36438c0.58766,-0.67838 1.05957,-1.50144 1.43755,-2.40626c2.64592,0.18537 5.26475,0.57652 7.72521,1.39319c1.38999,0.46136 3.53867,1.32482 4.76918,2.13079c1.00332,0.65716 1.41147,1.5511 2.7867,1.53096c1.0901,-0.01597 2.40629,-0.50601 3.47787,-0.72033c0.97744,-0.19104 1.97943,-0.26872 2.97536,-0.27248l0.05123,-0.28647c0,0 1.04006,-0.69338 1.73344,0.34669z" fill="#137a1b" stroke="none" stroke-width="0.5"/><path d="M260.12556,173.89937c0.15725,-0.07537 0.35218,-0.12209 0.59383,-0.12209c1.25,0 1.25,1.25 1.25,1.25l-1.49515,1.47393c-4.24492,-0.84898 -8.48082,-0.21377 -12.78449,-0.23001c-3.08055,-0.60226 -5.61786,-1.73261 -8.49936,-2.80111c-1.72706,-0.64042 -3.6617,-0.1906 -5.44013,-0.53708c0.0032,-0.80949 0.00659,-1.67768 0.00299,-2.58939c0.02323,0.00886 0.04646,0.01769 0.06967,0.0265c1.90713,0.72429 4.24149,0.0413 6.23125,0.75393c2.67865,0.95935 5.03414,2.07466 7.88192,2.65932c4.11184,-0.01831 8.13077,-0.52977 12.18946,0.116z" fill="#137a1b" stroke="none" stroke-width="0.5"/><path d="M261.09283,186.13373c0.55902,1.11803 -0.55902,1.67705 -0.55902,1.67705l-1.30056,0.35589c-2.82927,-0.58154 -5.77366,-0.5069 -8.6474,-0.98554c-1.37203,-0.22867 -3.21321,-0.25745 -4.49228,-0.82275c-0.87994,-0.3889 -2.74199,-2.06793 -3.79302,-2.13974c-0.39313,-0.02686 -0.68171,0.46439 -1.07477,0.49225c-2.1882,0.15508 -4.68297,-1.0692 -7.01833,-1.96779c-0.03528,-0.956 -0.09929,-1.88207 -0.16861,-2.79506c1.6872,0.45587 3.38475,1.05373 4.99499,1.59069c0.03034,0.01012 1.65045,0.72559 1.96338,0.68263c0.49325,-0.06771 0.91209,-0.55258 1.40724,-0.50056c1.63601,0.17189 3.23111,1.66168 4.64583,2.32788c1.05965,0.499 2.79976,0.47533 3.94657,0.66646c2.90783,0.48496 5.85092,0.43801 8.72669,1.00007l-0.30776,-0.14051c0,0 1.11803,-0.55902 1.67705,0.55902z" fill="#137a1b" stroke="none" stroke-width="0.5"/><path d="M261.97119,179.66555c0,1.25 -1.25,1.25 -1.25,1.25l-0.32091,-0.00965c-3.60904,-0.45816 -7.28078,-0.29967 -10.9022,-0.65867c-3.60253,-0.27703 -7.51828,-0.52124 -11.0665,-1.17745c-1.57695,-0.29164 -3.07067,-0.82377 -4.56225,-1.36756c-0.06124,-0.89031 -0.10883,-1.78144 -0.12029,-2.68956c1.68888,0.61413 3.36351,1.26083 5.14159,1.59962c3.45681,0.65865 7.31012,0.87399 10.82772,1.14466c3.65636,0.36899 7.34407,0.21859 10.99203,0.66826l0.01082,-0.00966c0,0 1.25,0 1.25,1.25z" fill="#137a1b" stroke="none" stroke-width="0.5"/></g><path d="M238.77218,179.4713c0,13.228 -4.67828,23.95142 -10.44923,23.95142c-5.77094,0 -10.44922,-10.72341 -10.44922,-23.95142c0,-13.228 4.67828,-23.95142 10.44922,-23.95142c5.77095,0 10.44923,10.72342 10.44923,23.95142z" fill="#046a0c" stroke="#000901" stroke-width="1.5"/></g><g data-paper-data="{&quot;index&quot;:null}" stroke-width="0"><path d="M255.51438,194.24968c-0.00315,2.30899 -2.8436,4.17692 -6.34432,4.17214c-3.50072,-0.00478 -6.33607,-1.88046 -6.33292,-4.18945c0.00315,-2.30899 2.8436,-4.17692 6.34432,-4.17214c3.50072,0.00478 6.33607,1.88046 6.33292,4.18945z" fill="#0f0f0f" stroke="#029f0f"/><path d="M253.08848,193.03258c-0.00122,0.8938 -1.08906,1.61688 -2.42976,1.61505c-1.3407,-0.00183 -2.42656,-0.72788 -2.42534,-1.62169c0.00122,-0.8938 1.08906,-1.61688 2.42976,-1.61505c1.3407,0.00183 2.42656,0.72788 2.42534,1.62169z" fill="#ece4e4" stroke="none"/></g><g data-paper-data="{&quot;index&quot;:null}" stroke-width="0"><path d="M255.76258,173.64898c-0.00315,2.30899 -2.8436,4.17692 -6.34432,4.17214c-3.50072,-0.00478 -6.33607,-1.88046 -6.33292,-4.18945c0.00315,-2.30899 2.8436,-4.17692 6.34432,-4.17214c3.50072,0.00478 6.33607,1.88046 6.33292,4.18945z" fill="#0f0f0f" stroke="#029f0f"/><path d="M253.33668,172.43188c-0.00122,0.8938 -1.08906,1.61688 -2.42976,1.61505c-1.3407,-0.00183 -2.42656,-0.72788 -2.42534,-1.62169c0.00122,-0.8938 1.08906,-1.61688 2.42976,-1.61505c1.3407,0.00183 2.42656,0.72788 2.42534,1.62169z" fill="#ece4e4" stroke="none"/></g></g></g></svg>