<svg version="1.1" xmlns="http://www.w3.org/2000/svg" xmlns:xlink="http://www.w3.org/1999/xlink" width="97.30218" height="45.49909" viewBox="0,0,97.30218,45.49909"><g transform="translate(-191.34891,-205.5)"><g data-paper-data="{&quot;isPaintingLayer&quot;:true}" fill-rule="nonzero" stroke-linejoin="miter" stroke-miterlimit="10" stroke-dasharray="" stroke-dashoffset="0" style="mix-blend-mode: normal"><path d="M193.75,249.75v-43h92.5v43z" fill="#ff0000" stroke="#7d0000" stroke-width="2" stroke-linecap="butt"/><g><path d="M237.69271,249.74909c-22.88066,-0.10417 -41.26234,-9.11671 -41.05661,-20.13006c0.20573,-11.01336 18.92096,-19.857 41.80163,-19.75283c22.88067,0.10417 41.26234,9.1167 41.0566,20.13006c-0.20573,11.01335 -18.92096,19.857 -41.80162,19.75283z" fill="#32c302" stroke="#1a6521" stroke-width="2.5" stroke-linecap="butt"/><path d="M193.394,207.89137l93.98363,0.42789l-0.77163,41.30724l-93.98363,-0.42789z" fill="#a90000" stroke="#7d0000" stroke-width="2.5" stroke-linecap="butt"/><path d="M219.64349,222.26599l53.62074,0.24413l-0.22008,11.78128l-53.62075,-0.24412z" fill="#000000" stroke="#040404" stroke-width="2.5" stroke-linecap="butt"/><path d="M260.80357,232.08099c-1.76005,-0.00802 -3.1704,-0.89499 -3.15011,-1.98112c0.02029,-1.08613 1.46354,-1.96012 3.22359,-1.9521c1.76005,0.00802 3.17041,0.89499 3.15012,1.98112c-0.02029,1.08613 -1.46355,1.96012 -3.22359,1.9521z" fill="#060606" stroke="#040404" stroke-width="0" stroke-linecap="butt"/><path d="M231.19404,233.17262c-1.49605,-0.00681 -2.69962,-0.5054 -2.68826,-1.11363c0.01136,-0.60824 1.23335,-1.09578 2.7294,-1.08897c1.49605,0.00681 2.69961,0.5054 2.68825,1.11364c-0.01136,0.60824 -1.23335,1.09578 -2.7294,1.08897z" fill="#070606" stroke="none" stroke-width="0" stroke-linecap="butt"/><path d="M279.55688,248.43071l1.32826,-39.55917" fill="none" stroke="#9d9a9a" stroke-width="2.5" stroke-linecap="round"/><path d="M262.33497,208.20524l-1.13654,13.52264" fill="none" stroke="#9d9a9a" stroke-width="2.5" stroke-linecap="round"/><path d="M261.28502,248.63844l-0.6203,-14.11248" fill="none" stroke="#9d9a9a" stroke-width="2.5" stroke-linecap="round"/><path d="M247.36219,221.08305l1.423,-13.08496" fill="none" stroke="#9d9a9a" stroke-width="2.5" stroke-linecap="round"/><path d="M245.63369,234.74845l-0.55002,13.67077" fill="none" stroke="#9d9a9a" stroke-width="2.5" stroke-linecap="round"/><path d="M238.24256,220.31423l1.11209,-12.21361" fill="none" stroke="#9d9a9a" stroke-width="2.5" stroke-linecap="round"/><path d="M236.20586,234.70553l-0.24997,13.38121" fill="none" stroke="#9d9a9a" stroke-width="2.5" stroke-linecap="round"/><path d="M230.24589,206.75l-0.57719,15.12525" fill="none" stroke="#9d9a9a" stroke-width="2.5" stroke-linecap="round"/><path d="M226.80367,249.06331l0.85279,-14.10578" fill="none" stroke="#9d9a9a" stroke-width="2.5" stroke-linecap="round"/><path d="M221.10726,206.99932l-1.14469,13.95899" fill="none" stroke="#9d9a9a" stroke-width="2.5" stroke-linecap="round"/><path d="M220.60733,233.76175l-0.85822,14.39667" fill="none" stroke="#9d9a9a" stroke-width="2.5" stroke-linecap="round"/><path d="M206.89509,248.69362l2.23658,-40.86418" fill="none" stroke="#9d9a9a" stroke-width="2.5" stroke-linecap="round"/><path d="M200.11285,242.54153l85.1396,0.67854" fill="none" stroke="#9d9a9a" stroke-width="2.5" stroke-linecap="round"/><path d="M286.26401,236.38804l-87.20466,-0.54248" fill="none" stroke="#9d9a9a" stroke-width="2.5" stroke-linecap="round"/><path d="M284.02116,230.2685l-10.29809,-0.77419" fill="none" stroke="#9d9a9a" stroke-width="2.5" stroke-linecap="round"/><path d="M221.2808,229.25555l-25.33728,-0.11536" fill="none" stroke="#9d9a9a" stroke-width="2.5" stroke-linecap="round"/><path d="M286.92271,216.89934l-89.56976,-0.11687" fill="none" stroke="#9d9a9a" stroke-width="2.5" stroke-linecap="round"/><path d="M286.42857,211.80598l-88.394,0.03394" fill="none" stroke="#9d9a9a" stroke-width="2.5" stroke-linecap="round"/><path d="M195.18464,222.44555l89.87253,-0.31813" fill="none" stroke="#9d9a9a" stroke-width="2.5" stroke-linecap="round"/></g><g stroke-linecap="butt" font-family="Handwriting" font-weight="normal" font-size="40" text-anchor="start"><text transform="translate(224.15221,231.72449) rotate(6.023) scale(0.35042,0.35042)" font-size="40" xml:space="preserve" fill-opacity="0.64963" fill="#7e2121" fill-rule="nonzero" stroke-opacity="0.6371" stroke="#7d2222" stroke-width="2" stroke-linecap="butt" stroke-linejoin="miter" stroke-miterlimit="10" stroke-dasharray="" stroke-dashoffset="0" font-family="Handwriting" font-weight="normal" text-anchor="start" style="mix-blend-mode: normal"><tspan x="0" dy="0">HARD</tspan></text><text transform="translate(222.63358,231.42331) rotate(6.023) scale(0.35042,0.35042)" font-size="40" xml:space="preserve" fill="#ffdf42" fill-rule="nonzero" stroke="none" stroke-width="1" stroke-linecap="butt" stroke-linejoin="miter" stroke-miterlimit="10" stroke-dasharray="" stroke-dashoffset="0" font-family="Handwriting" font-weight="normal" text-anchor="start" style="mix-blend-mode: normal"><tspan x="0" dy="0">HARD</tspan></text></g><path d="M207.84015,249.87329c-0.38323,0.65931 -4.5325,-1.99387 -4.5325,-1.99387c0.42734,-1.4516 2.22779,-8.09227 3.21996,-9.42289c1.5735,-2.11027 5.88532,-2.0909 6.78676,-4.27438c1.46692,-3.55322 2.20127,-7.52823 5.90218,-9.73907c1.59655,-0.95374 4.9179,-1.42499 6.72395,-1.55275c1.45141,-0.10267 2.87932,0.43016 4.16166,-0.57407c1.37542,-1.07713 2.94691,-4.01396 4.50605,-4.77746c1.07443,-0.52614 3.56299,-0.43143 3.56299,-0.43143c0,0 6.60559,-0.67133 10.66189,0.44592c2.12331,2.21792 3.35276,0.33685 5.9434,-0.6892c3.30016,-1.30706 10.77413,0.23326 10.77413,0.23326c0,0 1.80685,7.58036 1.85423,10.20948c0.02001,1.11034 0.25126,2.27221 -0.08542,3.33046c-0.18608,0.58487 -1.46951,0.62875 -1.36671,1.23383c0.09681,0.5698 1.25931,0.08213 1.6609,0.49778c0.69778,0.72222 0.85801,1.82204 1.39829,2.66855c2.31511,3.62735 6.36715,5.61179 5.58688,10.53801c-0.24227,1.52956 -0.21517,3.44543 -1.41431,4.42539c-1.05938,0.86574 -2.73823,-0.0041 -4.10353,0.08386c-2.33404,0.15038 -54.80908,0.96797 -58.82705,0.15889z" fill-opacity="0.79032" fill="#de6727" stroke="none" stroke-width="0.5" stroke-linecap="butt"/></g></g></svg>