<svg version="1.1" xmlns="http://www.w3.org/2000/svg" xmlns:xlink="http://www.w3.org/1999/xlink" width="85.75231" height="92.82723" viewBox="0,0,85.75231,92.82723"><defs><radialGradient cx="240.25161" cy="204.95217" r="22.98176" gradientUnits="userSpaceOnUse" id="color-1"><stop offset="0" stop-color="#625f63"/><stop offset="1" stop-color="#322935"/></radialGradient><radialGradient cx="240.25161" cy="204.95217" r="22.98176" gradientUnits="userSpaceOnUse" id="color-2"><stop offset="0" stop-color="#625f63"/><stop offset="1" stop-color="#322935"/></radialGradient><linearGradient x1="243.05498" y1="185.05313" x2="243.05498" y2="187.65358" gradientUnits="userSpaceOnUse" id="color-3"><stop offset="0" stop-color="#f40857"/><stop offset="1" stop-color="#aa0808"/></linearGradient><linearGradient x1="240.71648" y1="134.28258" x2="239.28346" y2="183.63429" gradientUnits="userSpaceOnUse" id="color-4"><stop offset="0" stop-color="#7b7879"/><stop offset="1" stop-color="#151316"/></linearGradient><linearGradient x1="229.16248" y1="134.85335" x2="228.49056" y2="157.99385" gradientUnits="userSpaceOnUse" id="color-5"><stop offset="0" stop-color="#c2bfc0"/><stop offset="1" stop-color="#626060"/></linearGradient><linearGradient x1="230.29875" y1="171.00749" x2="230.1325" y2="176.73288" gradientUnits="userSpaceOnUse" id="color-6"><stop offset="0" stop-color="#f40857"/><stop offset="1" stop-color="#aa0808"/></linearGradient><linearGradient x1="255.76099" y1="171.11969" x2="255.59475" y2="176.84507" gradientUnits="userSpaceOnUse" id="color-7"><stop offset="0" stop-color="#f40857"/><stop offset="1" stop-color="#aa0808"/></linearGradient><linearGradient x1="255.31851" y1="177.82866" x2="262.7931" y2="173.47872" gradientUnits="userSpaceOnUse" id="color-8"><stop offset="0" stop-color="#a83336"/><stop offset="1" stop-color="#271216"/></linearGradient><linearGradient x1="231.26678" y1="179.0635" x2="224.05718" y2="174.28718" gradientUnits="userSpaceOnUse" id="color-9"><stop offset="0" stop-color="#a83336"/><stop offset="1" stop-color="#271216"/></linearGradient></defs><g transform="translate(-196.99316,-133.15065)"><g data-paper-data="{&quot;isPaintingLayer&quot;:true}" fill-rule="nonzero" stroke-linejoin="miter" stroke-miterlimit="10" stroke-dasharray="" stroke-dashoffset="0" style="mix-blend-mode: normal"><g><g stroke-width="0.5" stroke-linecap="butt"><path d="M217.26985,184.39625h45.96352c0,0 -2.80888,11.06594 -2.80888,17.61935c0,4.94683 2.10388,10.55521 3.38232,13.50653c0.55795,1.28804 0.22375,2.79066 -1.03264,3.792c-2.46031,1.96085 -6.9203,4.99801 -11.77702,5.80746c-5.0184,0.83639 -24.07937,2.59449 -32.18832,-9.40434c-5.40087,-7.99167 -1.53896,-31.32099 -1.53896,-31.32099z" fill="url(#color-1)" stroke="#000000"/><path d="M217.08886,182.76728c0,0 38.36478,-2.6148 43.65423,-2.42808c1.1631,0.04106 2.49029,4.05704 2.49029,4.05704c0,0 -2.80888,11.06594 -2.80888,17.61935c0,4.94683 2.10388,10.55521 3.38232,13.50653c0.55795,1.28804 0.22375,2.79066 -1.03264,3.792c-2.46031,1.96085 -6.9203,4.99801 -11.77702,5.80746c-5.0184,0.83639 -24.07937,2.59449 -32.18832,-9.40434c-5.40087,-7.99167 -1.53896,-31.32099 -1.53896,-31.32099z" fill="url(#color-2)" stroke="#000000"/><path d="M240.2902,221.75958c-0.86705,-0.21676 -0.65029,-1.08381 -0.65029,-1.08381l0.06533,-0.23457c0.27783,-2.12554 1.30596,-4.18774 1.99416,-6.20747c0.25742,-0.75546 0.21984,-1.57299 0.31274,-2.36367h-0.01563v-0.12566l-0.08068,-0.80682l0.00195,-0.0002l-0.00234,-0.00382c-0.15969,-1.75915 -0.46643,-3.46941 -0.75684,-5.20881c-0.4249,-2.38429 -0.00216,-4.63887 0.33592,-7.00221c0.226,-1.57983 0.27372,-3.16635 0.6041,-4.73041c0.30308,-1.43483 0.8816,-2.78244 1.00809,-4.24847c0,0 0.08092,-0.89006 0.97098,-0.80915c0.89006,0.08092 0.80915,0.97098 0.80915,0.97098c-0.14563,1.53651 -0.7196,2.93115 -1.03474,4.43352c-0.32133,1.53191 -0.36672,3.08481 -0.58755,4.63253c-0.30894,2.16531 -0.75157,4.26112 -0.34502,6.44638c0.28787,1.73027 0.59188,3.43409 0.75985,5.18103c0.06675,0.12519 0.10459,0.26812 0.10459,0.4199v0.68094v0.17024h-0.01619c-0.0036,0.01865 -0.00778,0.0371 -0.01251,0.05532c0.01463,0.96782 -0.05748,1.94931 -0.35512,2.8583c-0.62549,1.91027 -1.6853,3.87318 -1.92126,5.87923l-0.1049,0.44638c0,0 -0.21676,0.86705 -1.08381,0.65029z" fill="#918890" stroke="none"/><path d="M252.47506,212.12949c0.14824,0.2153 0.36105,0.67694 -0.1006,1.13859c-0.63196,0.63196 -1.26394,0 -1.26394,0l-0.3202,-0.50032c-0.39984,-1.60595 -0.4537,-3.11915 -0.45116,-4.7686c-0.17731,-1.75049 -0.30223,-3.51469 -0.58357,-5.25299c-0.33953,-2.09782 -1.33678,-3.99682 -1.4584,-6.13811c-0.19307,-3.3995 -0.00196,-6.86497 -0.00196,-10.27331c0,0 0,-0.89373 0.89373,-0.89373c0.89373,0 0.89373,0.89373 0.89373,0.89373c0,3.36996 -0.18414,6.79316 -0.00196,10.15493c0.11153,2.0581 1.1053,3.92454 1.4356,5.9486c0.2954,1.8102 0.42787,3.6481 0.60807,5.47184c0.002,1.46082 0.02354,2.80443 0.35064,4.21937z" fill="#918890" stroke="none"/><path d="M255.79798,196.60197c0.09379,0.1283 0.15784,0.3035 0.15784,0.54274c0,0.89373 -0.89373,0.89373 -0.89373,0.89373l-0.97195,-0.78288c-0.15123,-1.26203 -0.88028,-2.30809 -1.09909,-3.52633c-0.01786,-0.09942 -0.01434,-1.39166 -0.01434,-1.60647c0,-1.50375 0,-3.00749 0,-4.51123c0,0 0,-0.89373 0.89373,-0.89373c0.89373,0 0.89373,0.89373 0.89373,0.89373c0,1.22002 0,2.44004 0,3.66006c0,0.64877 -0.12455,1.49593 -0.01434,2.13871c0.06827,0.39821 0.32509,0.74022 0.4667,1.11861c0.25657,0.68551 0.45677,1.36317 0.58145,2.07306z" fill="#918890" stroke="none"/><path d="M234.82998,217.94673c-0.79938,-0.39969 -0.39969,-1.19907 -0.39969,-1.19907l-0.00481,0.14053c0.36629,-3.61298 0.33604,-7.25583 0.33604,-10.89124c0,-2.7258 -0.20068,-5.4128 -0.3397,-8.13415c-0.17488,-3.42347 -0.00078,-6.90569 -0.00078,-10.33637c0,0 0,-0.89373 0.89373,-0.89373c0.89373,0 0.89373,0.89373 0.89373,0.89373c0,3.40539 -0.17657,6.86412 -0.00077,10.26209c0.14207,2.74606 0.34124,5.4577 0.34124,8.20843c0,3.6965 0.01797,7.39458 -0.34491,11.0691l-0.17503,0.481c0,0 -0.39969,0.79938 -1.19907,0.39969z" fill="#918890" stroke="none"/><path d="M231.48449,219.74343c-0.89373,0 -0.89373,-0.89373 -0.89373,-0.89373v-0.17024c0,-2.07798 0.00345,-4.21291 0.17284,-6.28174c0.08622,-1.05305 0.23204,-2.04516 0.16936,-3.11079c-0.10503,-1.78553 -0.85894,-3.42171 -0.84757,-5.2353c-0.40157,-1.76771 -0.1767,-3.52697 -0.25896,-5.31928c-0.16241,-3.53891 -0.25708,-7.05766 -0.25708,-10.61012c0,0 0,-0.89373 0.89373,-0.89373c0.89373,0 0.89373,0.89373 0.89373,0.89373c0,3.51578 0.09589,6.99693 0.25362,10.49905c0.07961,1.76758 -0.12781,3.49237 0.25174,5.2353c0.00999,1.83644 0.7478,3.50059 0.85478,5.31928c0.06739,1.14561 -0.07498,2.22577 -0.17111,3.35815c-0.17158,2.02121 -0.16764,4.11397 -0.16764,6.14544v0.17024c0,0 0,0.89373 -0.89373,0.89373z" fill="#918890" stroke="none"/><path d="M218.69325,212.38554c-0.89373,0 -0.89373,-0.89373 -0.89373,-0.89373v-0.34047c0.00892,-2.02815 -0.74871,-3.95491 -0.93195,-5.95528c-0.00546,-0.05962 -0.00434,-1.76275 -0.00434,-1.96065c0,-2.78161 0.41188,-5.46438 0.59778,-8.23048c0.24802,-3.69035 -0.00197,-7.47531 -0.00197,-11.17634c0,0 0,-0.89373 0.89373,-0.89373c0.89373,0 0.89373,0.89373 0.89373,0.89373c0,3.74147 0.24491,7.56341 -0.00197,11.29472c-0.18043,2.72705 -0.59386,5.37075 -0.59386,8.1121c0,1.3111 0.22113,2.5911 0.44847,3.86977c0.0328,-0.41303 0.08286,-0.82492 0.16439,-1.23456c0.23782,-1.19501 0.69463,-2.35736 1.0522,-3.51949c0.21154,-0.56156 0.3199,-1.15769 0.51839,-1.72398c0.15806,-0.45093 0.46772,-0.85092 0.55924,-1.31992c0.24197,-1.23999 0.06618,-2.64251 0.06618,-3.90266c0,-2.15632 0,-4.31263 0,-6.46894c0,0 0,-0.89373 0.89373,-0.89373c0.89373,0 0.89373,0.89373 0.89373,0.89373c0,2.41167 0,4.82333 0,7.235c0,1.14295 0.12496,2.37665 -0.10405,3.50257c-0.11271,0.55411 -0.44587,1.04028 -0.6324,1.57409c-0.19292,0.55206 -0.29844,1.13289 -0.50302,1.68073c-0.33402,1.08558 -0.76625,2.17445 -0.99062,3.28992c-0.23451,1.16586 -0.17782,2.35469 -0.23943,3.53091c-0.0664,1.26757 -0.25513,2.51223 -0.25424,3.78577v0.51071c0,0 0,0.89373 -0.89373,0.89373c-0.89373,0 -0.89373,-0.89373 -0.89373,-0.89373v-0.51071c0.00025,-0.38606 0.01682,-0.76956 0.04183,-1.15186c-0.0272,0.00183 -0.05532,0.00277 -0.08439,0.00277z" fill="#918890" stroke="none"/><path d="M221.07565,212.86698c-0.31598,0.31598 -0.63196,0 -0.63196,0l-0.15232,-0.17119c-0.50968,-0.84947 -1.13662,-1.89693 -1.33328,-2.87395c-0.12204,-0.60631 0.16798,-1.17435 0.16307,-1.78208c0.00361,-1.50158 0.15315,-2.98351 0.34264,-4.47015c0.10926,-0.85717 -0.06218,-1.75912 -0.00131,-2.62238c0.12702,-1.80139 0.25449,-3.61146 0.25449,-5.41976c0,-1.76575 -0.03519,-3.48954 -0.16911,-5.24561c-0.08026,-1.05249 0.20346,-2.23453 0.00694,-3.26676c-0.11185,-0.58749 -0.1783,-1.07951 -0.1783,-1.70174c0,0 0,-0.44687 0.44687,-0.44687c0.44687,0 0.44687,0.44687 0.44687,0.44687c0,0.58751 0.06628,0.98368 0.16217,1.53273c0.18969,1.086 -0.07843,2.273 0.00694,3.37241c0.13802,1.77726 0.17136,3.52221 0.17136,5.30897c0,1.82627 -0.12454,3.65633 -0.25622,5.4753c-0.0634,0.87583 0.10568,1.78357 -0.00131,2.65491c-0.17902,1.45801 -0.34231,2.9093 -0.33829,4.38208c-0.00329,0.50186 -0.28886,1.14604 -0.1774,1.62262c0.20619,0.88164 0.75628,1.80031 1.22025,2.57359l0.01791,-0.00096c0,0 0.31598,0.31598 0,0.63196z" fill="#d6d3d6" stroke="none"/><path d="M222.50724,216.81781l-0.82648,0.14766c-0.02884,-0.17324 -0.05768,-0.34647 -0.08653,-0.51971c-0.0995,-0.79549 -0.22777,-1.59461 -0.17339,-2.3995c0.11156,-1.65101 0.73319,-3.30802 0.93868,-4.95896c0.29382,-2.36061 0.41992,-4.69813 0.67976,-7.05512c0.13571,-1.22132 0.13961,-2.52234 0.43603,-3.71843c0.29536,-1.19178 0.59734,-2.47986 0.66907,-3.71409c0.08515,-1.46523 -0.0013,-2.96614 -0.0013,-4.43461c0,0 0,-0.44687 0.44687,-0.44687c0.44687,0 0.44687,0.44687 0.44687,0.44687c0,1.49098 0.08717,3.01513 -0.0013,4.50275c-0.0762,1.28128 -0.38085,2.62522 -0.69282,3.86138c-0.29101,1.15313 -0.28418,2.42291 -0.41514,3.60169c-0.26466,2.36221 -0.3851,4.70799 -0.68212,7.07441c-0.20501,1.6333 -0.82684,3.28219 -0.93391,4.91469c-0.04824,0.73548 0.07629,1.46997 0.16709,2.19686c0.01692,0.10139 0.03383,0.20279 0.05075,0.30419c0.03904,0.09789 0.03904,0.18586 0.03904,0.18586l-0.0078,0.00139c0.00057,0.00342 0.00114,0.00684 0.00171,0.01026z" fill="#d6d3d6" stroke="none"/><path d="M231.74412,219.86043c-0.41491,-0.16596 -0.24894,-0.58087 -0.24894,-0.58087l0.14634,-0.34414c-0.03999,-2.11369 0.07818,-4.22649 0.07818,-6.331c0.09931,-0.69518 0.21253,-1.55958 0.16947,-2.24867c-0.05328,-0.85253 -0.60382,-1.64934 -0.67978,-2.5345c-0.06867,-0.80022 0.04152,-1.70192 -0.15858,-2.48267c-0.18134,-0.70753 -0.48931,-1.33463 -0.67759,-2.03013c-0.22736,-0.83986 -0.11705,-1.80437 -0.01185,-2.65328c0.29928,-1.74887 0.28497,-3.47158 0.16668,-5.26627c-0.16371,-2.4839 -0.00112,-5.0333 -0.00112,-7.52203c0,0 0,-0.44687 0.44687,-0.44687c0.44687,0 0.44687,0.44687 0.44687,0.44687c0,2.46653 -0.16717,4.99728 -0.00112,7.45868c0.12546,1.85981 0.1188,3.64241 -0.17379,5.45855c-0.09036,0.71599 -0.20723,1.57436 -0.01185,2.28354c0.19313,0.70105 0.50872,1.33733 0.68429,2.05552c0.20451,0.83659 0.11304,1.77024 0.18189,2.62439c0.0733,0.9093 0.61245,1.67977 0.68211,2.57256c0.05553,0.71172 -0.06888,1.63283 -0.17101,2.34769c0,2.1356 -0.06302,4.29298 -0.09206,6.43665l-0.19413,0.50704c0,0 -0.16596,0.41491 -0.58087,0.24894z" fill="#d6d3d6" stroke="none"/><path d="M235.71711,186.41194c0.43353,-0.10838 0.54191,0.32515 0.54191,0.32515l0.07553,0.30754c0.35715,1.08495 0.67161,2.53258 0.53147,3.67517c-0.15317,1.2488 -0.39401,2.33001 -0.25387,3.59131c0.00219,1.71521 0.48207,3.29778 0.59498,5.00979c0.06643,1.00725 0.11061,2.24781 -0.00279,3.24819c-0.05063,0.44658 -0.22282,0.8761 -0.25171,1.32461c-0.0596,0.9252 0.0858,1.85555 0.0858,2.78417c0,1.55866 0.1052,3.15479 -0.00086,4.70924c-0.04419,0.6477 -0.29337,1.24143 -0.34113,1.88168c-0.04628,0.62038 0.05166,1.25232 0,1.87258c-0.07526,0.90356 -0.45905,1.71232 -0.60038,2.59014c0,0 -0.07346,0.44079 -0.51425,0.36732c-0.44079,-0.07346 -0.36732,-0.51425 -0.36732,-0.51425c0.14637,-0.8541 0.51819,-1.64041 0.59127,-2.51692c0.05167,-0.61968 -0.04894,-1.25225 0,-1.87258c0.05019,-0.63621 0.29826,-1.22312 0.33981,-1.8635c0.09974,-1.53713 -0.00086,-3.11268 -0.00086,-4.6537c0,-0.94491 -0.14909,-1.89143 -0.08443,-2.8336c0.03247,-0.4732 0.20465,-0.92797 0.25899,-1.39915c0.10803,-0.9368 0.06076,-2.10785 -0.00279,-3.05051c-0.11583,-1.71794 -0.59909,-3.30898 -0.59666,-5.03408c-0.14509,-1.3058 0.09225,-2.43872 0.25684,-3.7288c0.12925,-1.01306 -0.16611,-2.34704 -0.48995,-3.30448l-0.09471,-0.3734c0,0 -0.10838,-0.43353 0.32515,-0.54191z" fill="#d6d3d6" stroke="none"/><path d="M240.87192,220.95315c-0.27068,-0.27068 -0.07762,-0.54136 -0.01669,-0.61341c0.17026,-1.03375 0.32543,-2.07318 0.7759,-3.03432c0.29031,-0.61939 0.98091,-1.07175 1.07567,-1.7747c0.14164,-1.05064 -0.09318,-2.17506 -0.09318,-3.23509c0,-1.91742 -0.18328,-3.76457 -0.33895,-5.66603c-0.19283,-2.35536 -0.0917,-4.7705 -0.08511,-7.13848c0.14912,-0.8947 0.14385,-1.80721 0.34989,-2.70006c0.54283,-2.35226 1.61295,-4.77951 1.6063,-7.22185c0,0 0,-0.44687 0.44687,-0.44687c0.44687,0 0.44687,0.44687 0.44687,0.44687c-0.00607,2.5193 -1.06845,4.99291 -1.62818,7.41839c-0.19674,0.85252 -0.18866,1.7229 -0.33106,2.57723c0.00745,2.31917 -0.11069,4.68486 0.08511,6.99104c0.16341,1.92458 0.342,3.79843 0.342,5.73974c0,1.11702 0.24208,2.29603 0.07706,3.40409c-0.12473,0.83746 -0.81243,1.25233 -1.13739,1.97048c-0.42826,0.94646 -0.56456,1.94297 -0.73322,2.9553l-0.20992,0.32764c0,0 -0.31598,0.31598 -0.63196,0z" fill="#d6d3d6" stroke="none"/><path d="M252.33831,212.91275c-0.44687,0 -0.44687,-0.44687 -0.44687,-0.44687l0.0045,-0.19216c-0.08957,-0.62701 -0.17359,-1.21635 -0.17473,-1.85067c0,-4.21102 -1.40458,-8.276 -1.86903,-12.45602c-0.55712,-3.8987 -0.59938,-7.94469 -0.59938,-11.88763c0,0 0,-0.44687 0.44687,-0.44687c0.44687,0 0.44687,0.44687 0.44687,0.44687c0,3.9059 0.04076,7.91346 0.59227,11.77507c0.46884,4.21957 1.87615,8.31521 1.87615,12.56857c-0.00118,0.59174 0.08213,1.139 0.16575,1.72427l0.0045,0.31855c0,0 0,0.44687 -0.44687,0.44687z" fill="#d6d3d6" stroke="none"/><path d="M256.07057,196.59351c0.10504,0.05884 0.20444,0.1702 0.20444,0.38095c0,0.44687 -0.44687,0.44687 -0.44687,0.44687l-0.50003,-0.28091c-0.40557,-1.01651 -0.86577,-1.98609 -1.0476,-3.0735c-0.37333,-2.23256 -0.26113,-4.5259 -0.26113,-6.79588c0,0 0,-0.44687 0.44687,-0.44687c0.44687,0 0.44687,0.44687 0.44687,0.44687c0,2.22201 -0.11323,4.46785 0.24958,6.65271c0.15665,0.94332 0.54743,1.79279 0.90786,2.66974z" fill="#d6d3d6" stroke="none"/><path d="M247.10401,187.09598c-0.54135,0.33834 -0.87969,-0.20301 -0.87969,-0.20301l-0.34934,-0.58201c-0.9569,-0.66092 -1.57782,-0.61563 -2.69452,-0.48424c-0.45136,0.05311 -0.91574,0.03535 -1.35487,0.15241c-1.42022,0.37858 -2.6897,1.68183 -3.59195,2.77164c0,0 -0.40868,0.49042 -0.8991,0.08174c-0.49042,-0.40868 -0.08174,-0.8991 -0.08174,-0.8991c0.81594,-0.97366 1.79339,-1.94023 2.88061,-2.60403c1.98142,-1.20974 4.83203,-1.23285 6.67179,0.10702l0.50183,0.77987c0,0 0.33834,0.54135 -0.20301,0.87969z" fill="#342b37" stroke="none"/><path d="M244.581,186.6712c-1.20726,-0.1853 -2.46234,0.17121 -3.58655,0.62657c-0.10424,0.21083 -0.32149,0.35582 -0.5726,0.35582c-0.35257,0 -0.63838,-0.28581 -0.63838,-0.63838c0,-0.02266 0.00118,-0.04504 0.00349,-0.06708c-0.10383,-0.48109 0.38343,-0.68992 0.38343,-0.68992c0.59337,-0.2543 1.19359,-0.46845 1.80103,-0.62008c0.08242,-0.1759 0.24272,-0.30804 0.43651,-0.35202l0.66798,-0.167l0.00434,0.01735l0.03327,-0.02556c0.54617,-0.06189 1.91137,-0.20909 2.29105,0.46572c0.02429,0.00591 0.04859,0.01198 0.0729,0.0182l0.07359,0.13405l0.04606,-0.05527l0.50696,0.42246c0.14253,0.11707 0.23344,0.29469 0.23344,0.49354c0,0.35257 -0.28581,0.63838 -0.63838,0.63838c-0.11929,0 -0.23094,-0.03272 -0.32647,-0.08968l-0.58609,-0.33491l0.00823,-0.0144c-0.01858,-0.00494 -0.03712,-0.01011 -0.05561,-0.0155c-0.06189,-0.01809 -0.11228,-0.05614 -0.15822,-0.10231z" fill="url(#color-3)" stroke="none"/></g><g><g stroke-linecap="butt"><path d="M218.73701,181.54118c-0.13119,0.43149 -0.6254,0.41714 -0.6254,0.41714c-1.26049,-0.0366 -2.65972,0.07632 -3.9065,-0.11822c-0.96901,-0.15119 -1.82025,-0.70211 -2.78546,-0.84726c-1.28488,-0.19322 -2.56121,-0.30176 -3.75185,-0.93548c-0.76801,-0.40877 -1.71121,-0.86406 -2.38204,-1.42628c-0.36903,-0.30929 -0.62393,-0.73942 -0.99133,-1.05063c-0.45235,-0.38316 -0.96881,-0.6835 -1.45232,-1.02652c-0.89613,-0.64002 -1.58008,-1.39343 -2.33285,-2.19122c-0.11116,-0.11781 -1.03584,-1.09089 -1.07957,-1.16903c-0.43593,-0.77874 -0.49387,-1.85792 -0.75029,-2.7102c-0.33091,-1.09984 -0.57725,-2.28164 -0.68624,-3.42646c-0.21824,-2.29249 0.3544,-4.65032 0.19136,-6.94534c-0.05188,-0.73031 -0.20881,-1.45626 -0.19049,-2.18819c0.10743,-0.3881 0.41398,-1.63644 0.66067,-2.02876c0.14303,-0.22748 0.40305,-0.35821 0.57665,-0.56332c0.59233,-0.69983 1.00378,-1.55362 1.59818,-2.25274c0.56356,-0.66282 1.25553,-1.04347 1.92269,-1.56593c0.81585,-0.63891 1.52101,-1.35772 2.3565,-1.97526c0.42163,-0.31164 0.62918,-0.84545 1.01016,-1.20567c0.21364,-0.202 0.55609,-0.24138 0.75255,-0.46013c0.485,-0.54001 0.60979,-1.32404 1.01332,-1.92736c0.74702,-1.11686 1.80491,-1.97776 2.77682,-2.88758c0.31457,-0.19322 0.5964,-0.4545 0.94371,-0.57966c0.40139,-0.14464 0.85794,-0.07738 1.26175,-0.2151c0.28551,-0.09737 0.49437,-0.35213 0.76877,-0.47742c0.46996,-0.21457 1.03848,-0.18003 1.48733,-0.43587c0.18495,-0.10542 0.28497,-0.32 0.4548,-0.44835c0.73321,-0.55407 1.61279,-1.04388 2.40633,-1.50866c0.65474,-0.38349 1.39921,-0.59382 2.06503,-0.95773c0.7177,-0.39228 1.09537,-1.14117 1.89963,-1.5158c0.6529,-0.30412 1.41823,-0.26753 2.10775,-0.47571c0.3722,-0.11237 0.68841,-0.37309 1.06074,-0.48509c1.36083,-0.40934 2.53727,-0.55366 3.84956,-1.15984c0.09455,-0.02107 2.10896,-0.47308 2.20122,-0.48189c0.66981,-0.06396 1.34933,0.14029 2.01761,0.06205c0.26734,-0.0313 0.50559,-0.20358 0.77315,-0.23302c0.90783,-0.09987 1.99485,0.04968 2.91015,0.07626c0.8448,0.02453 1.80035,-0.04834 2.63028,0.08117c0.97067,0.15145 1.82118,0.68446 2.78546,0.84726c2.31571,0.39097 4.75738,0.96562 6.98657,1.7694c0.87507,0.38754 1.74151,0.63103 2.6702,0.8136c0.55604,0.10931 1.15032,0.10674 1.66487,0.34417c1.21163,0.55909 2.11784,1.5213 3.29458,2.15567c1.18311,0.6378 2.61548,0.76287 3.79162,1.3874c2.38899,1.26854 4.69124,2.79353 6.89492,4.36739c0.61508,0.64671 1.25157,1.22398 1.64207,2.0492c0.10631,0.22466 0.08222,0.50059 0.2042,0.71715c0.11815,0.20976 0.37785,0.31537 0.49567,0.52532c0.13172,0.23473 0.10291,0.53751 0.23302,0.77315c0.39988,0.72425 1.18293,1.34646 1.6801,2.02334c0.15334,0.20876 0.18653,0.5086 0.38508,0.67492c0.19093,0.15993 0.498,0.10559 0.7075,0.24028c0.22604,0.1453 0.35797,0.40332 0.56332,0.57665c0.71498,0.60355 2.05008,1.44097 2.41566,2.36333c0.10615,0.26781 -0.06359,0.58479 0.00644,0.86424c0.30077,1.20021 1.27279,2.03476 1.61762,3.17893c0.66185,0.66102 1.29382,1.29231 1.7487,2.13382c0.12097,0.22379 0.07645,0.51776 0.21174,0.73317c0.18419,0.29329 0.52622,0.46219 0.71945,0.74961c0.21238,0.31591 0.27897,0.71309 0.48085,1.0358c0.13554,0.21667 0.39637,0.33985 0.51972,0.56368c0.58371,1.05918 0.54686,2.25943 0.50712,3.41601c-0.016,0.46557 0.04878,0.94176 -0.05208,1.39657c-0.16183,0.72986 -0.61002,1.36807 -0.84127,2.07899c-0.11705,0.35987 -0.15334,0.74868 -0.31568,1.09054c-0.43324,0.91232 -0.7701,0.92952 -1.42684,1.6514c-0.99089,1.08919 -2.05129,2.28287 -2.89966,3.4787c-0.57945,0.55109 -1.06194,1.25781 -1.62697,1.78768c-0.70358,0.65981 -1.88559,1.40807 -2.76178,1.82165c-0.62226,0.29371 -1.24924,0.6062 -1.92081,0.75614c-0.84858,0.18947 -1.74583,0.0304 -2.6021,0.18134c-1.65509,0.29175 -3.24309,1.17986 -4.9368,1.40762c-0.6243,0.08396 -1.25952,-0.02833 -1.88917,-0.04661c-1.27623,-0.03706 -2.55245,-0.07412 -3.82868,-0.11117c-1.31565,-0.0382 -2.64126,-0.12431 -3.92521,-0.37801c-1.01207,-0.19997 -1.89699,-0.53521 -2.95813,-0.5884c-1.35409,-0.06787 -2.71474,-0.07868 -4.06998,-0.11803c-0.73167,-0.02125 -1.46944,-0.17055 -2.19476,-0.07197c-0.41341,0.05618 -0.78608,0.29451 -1.19737,0.36458c-0.93336,0.15904 -2.36687,0.15595 -3.32187,0.02024c-1.63605,-0.23246 -3.26968,-1.02683 -4.84733,-1.52826c-0.66424,-0.15173 -1.31447,-0.38614 -1.99196,-0.45851c-0.84311,-0.09006 -1.69997,0.02083 -2.54268,-0.07295c-0.88538,-0.09853 -2.35825,-0.63517 -3.26785,-0.39679c-0.20922,0.05483 -0.25782,0.37263 -0.45411,0.46345c-0.34903,0.1615 -0.75919,0.14036 -1.12266,0.26609c-0.95824,0.33148 -0.94842,0.60317 -1.92904,0.74179c-1.46361,0.2069 -2.71492,-0.52448 -4.06406,-0.80051z" fill="url(#color-4)" stroke="#4f4548" stroke-width="2"/><path d="M235.30035,149.12273c-0.14531,5.00436 -4.89134,8.92682 -10.60054,8.76104c-5.7092,-0.16578 -10.21964,-4.35701 -10.07432,-9.36138c0.14531,-5.00436 4.89134,-8.92682 10.60054,-8.76104c0.3979,0.01155 2.1977,-3.41613 6.05232,-4.36241c4.20581,-1.03249 10.49272,0.41201 10.89472,0.50865c4.51592,1.08567 -6.74858,8.94011 -6.87271,13.21514z" fill="url(#color-5)" stroke="none" stroke-width="0"/></g><path d="M237.78097,171.46595c-0.39769,0.49938 -0.89706,0.10169 -0.89706,0.10169l-0.43046,-0.34986c-0.88185,-0.3828 -1.85334,-1.01803 -2.52268,-1.71828c-0.64002,-0.66958 -1.08846,-1.22126 -1.97909,-1.6057c-1.21391,-0.95801 -2.70806,-1.84455 -4.09068,-2.5198c-0.62949,-0.30744 -1.56165,-0.92461 -2.25609,-1.03134c-0.43082,-0.06622 -0.77668,0.39975 -1.18371,0.55571c-1.01487,0.38886 -1.98897,0.98802 -3.0136,1.33157c-0.3347,0.11222 -0.70312,0.17657 -0.98495,0.38917c0,0 -0.52161,0.36805 -0.88965,-0.15357c-0.36805,-0.52161 0.15357,-0.88965 0.15357,-0.88965c0.40216,-0.27171 0.88054,-0.41443 1.34191,-0.56512c0.99488,-0.32495 1.95265,-0.92823 2.93857,-1.30566c0.3464,-0.13261 1.28199,-0.66927 1.66105,-0.639c0.85292,0.06812 2.01735,0.77929 2.78953,1.15885c1.41072,0.69344 2.96303,1.58637 4.19161,2.57443c1.76359,0.76971 2.70736,2.54505 4.50177,3.32397l0.56829,0.44552c0,0 0.49938,0.39769 0.10169,0.89706z" fill="#342b37" stroke="none" stroke-width="0.5" stroke-linecap="butt"/><path d="M264.37087,167.45331c0.04392,0.02487 0.5464,0.32454 0.25748,0.86272c-0.30194,0.56245 -0.86441,0.26051 -0.86441,0.26051l-0.57894,-0.59052c-0.155,-1.1213 -0.946,-1.50136 -1.82106,-2.06173c-0.65713,-0.42081 -1.30946,-0.89825 -2.125,-0.99125c-1.35874,-0.15493 -2.68902,0.31882 -4.03913,0.25747c-0.67832,0.26255 -1.47849,0.58113 -2.19182,0.70274c-0.18323,0.03123 -0.37703,-0.08627 -0.55638,-0.0374c-0.6285,0.17123 -1.35347,1.00967 -1.90895,1.38699c-1.11222,0.75546 -1.66818,1.81129 -2.50287,2.85942c-0.9376,1.17737 -1.53982,1.83168 -1.26197,3.41564c0,0 0.10697,0.62935 -0.52238,0.73633c-0.62935,0.10697 -0.73633,-0.52238 -0.73633,-0.52238c-0.1772,-1.07066 -0.15384,-2.13793 0.41522,-3.10842c0.19853,-0.33858 0.90143,-1.05878 1.10503,-1.31443c0.92281,-1.15871 1.54525,-2.26877 2.77993,-3.11824c0.68996,-0.47469 1.46018,-1.3004 2.26391,-1.55738c0.22855,-0.07308 0.48327,0.03974 0.71985,-0.00035c0.71258,-0.12077 1.50462,-0.46142 2.19182,-0.70274c1.47092,0.02324 2.92837,-0.44599 4.4062,-0.26369c1.01621,0.12536 1.83707,0.66143 2.66537,1.19153c1.12935,0.72278 1.96036,1.31696 2.30446,2.59516z" fill="#342b37" stroke="none" stroke-width="0.5" stroke-linecap="butt"/><path d="M224.47341,171.03634c2.27686,-0.97172 7.45521,2.55888 7.45521,2.55888l4.05946,2.06721c0,0 -2.39514,1.50671 -3.91382,1.06147c-1.51868,-0.44524 -6.72496,-4.18046 -6.72496,-4.18046l-0.68207,-1.14383" fill="url(#color-6)" stroke="#ca1414" stroke-width="1.5" stroke-linecap="round"/><path d="M261.36027,171.83791l-0.74729,1.10232c0,0 -5.41424,3.42684 -6.9562,3.7832c-1.54195,0.35637 -3.84563,-1.28678 -3.84563,-1.28678l4.17257,-1.82817c0,0 5.37448,-3.22418 7.59113,-2.12198" data-paper-data="{&quot;index&quot;:null}" fill="url(#color-7)" stroke="#ca1414" stroke-width="1.5" stroke-linecap="round"/><path d="M256.10056,178.19694c-0.15627,-0.07359 0.37004,-0.37988 0.37004,-0.37988l0.31191,-0.16975c0.83342,-0.37917 1.07374,-0.671 1.62054,-1.10048c1.08248,-0.85023 1.5315,-1.51384 2.01976,-2.17672c0.20926,-0.28412 0.39424,-0.50478 0.45319,-0.7245c0,0 0.05038,-0.18207 0.59709,-0.43913c0.5467,-0.25706 0.49633,-0.07498 0.49633,-0.07498c-0.06985,0.24607 -0.2726,0.50569 -0.50394,0.81968c-0.54827,0.74415 -1.07526,1.48212 -2.29577,2.44072c-0.51722,0.40623 -0.94662,0.82044 -1.74126,1.26191c-0.24429,0.13572 -0.49779,0.23843 -0.74669,0.35766l0.10138,-0.04724c0,0 -0.52631,0.30629 -0.68257,0.23271z" fill="url(#color-8)" stroke="none" stroke-width="0.5" stroke-linecap="butt"/><path d="M229.79675,179.11387l0.09847,0.05304c-0.24156,-0.13346 -0.48867,-0.25072 -0.72467,-0.40038c-0.76767,-0.48684 -1.17233,-0.92527 -1.6651,-1.36082c-1.16283,-1.02781 -1.64612,-1.7951 -2.15028,-2.56982c-0.21273,-0.32688 -0.40008,-0.59783 -0.45553,-0.84755c0,0 -0.03973,-0.1847 0.49114,0.10365c0.53086,0.28835 0.5706,0.47304 0.5706,0.47304c0.04609,0.22277 0.21795,0.4538 0.41039,0.74958c0.44897,0.6901 0.85873,1.37866 1.89005,2.29025c0.52095,0.46047 0.74395,0.76577 1.55396,1.19266l0.30153,0.18756c0,0 0.50765,0.33632 0.34739,0.40071c-0.16028,0.0644 -0.66792,-0.27192 -0.66792,-0.27192z" data-paper-data="{&quot;index&quot;:null}" fill="url(#color-9)" stroke="none" stroke-width="0.5" stroke-linecap="butt"/></g></g></g></g></svg>