<svg version="1.1" xmlns="http://www.w3.org/2000/svg" xmlns:xlink="http://www.w3.org/1999/xlink" width="93.61626" height="70.66879" viewBox="0,0,93.61626,70.66879"><g transform="translate(-196.29545,-143.08121)"><g data-paper-data="{&quot;isPaintingLayer&quot;:true}" fill-rule="nonzero" stroke-linecap="butt" stroke-linejoin="miter" stroke-miterlimit="10" stroke-dasharray="" stroke-dashoffset="0" style="mix-blend-mode: normal"><g stroke-width="2.5"><g><path d="M243.03187,205.53607l0.51394,-12.48944l36.46914,1.50071l-0.51394,12.48943z" fill="#9c671d" stroke="#6b3b0d"/><path d="M278.73211,210.65752c-4.87185,-0.49232 -8.35307,-5.5244 -7.77553,-11.23945c0.57754,-5.71505 4.99514,-9.9489 9.86698,-9.45657c4.87185,0.49232 8.35307,5.5244 7.77553,11.23945c-0.57754,5.71505 -4.99513,9.94891 -9.86698,9.45657z" fill="#5be62d" stroke="#199e25"/></g><g><path d="M243.58869,164.03179l-0.53133,-12.4887l36.46701,-1.55147l0.53132,12.4887z" fill="#9c671d" stroke="#6b3b0d"/><path d="M279.592,166.15265c-4.89595,-0.08357 -8.78542,-4.8072 -8.68738,-10.55052c0.09803,-5.74332 4.14645,-10.33146 9.04239,-10.24788c4.89595,0.08357 8.78543,4.8072 8.68739,10.55053c-0.09803,5.74332 -4.14645,10.33146 -9.0424,10.24788z" fill="#5be62d" stroke="#199e25"/></g></g><path d="M204.73463,184.18069l-6.88813,-3.12977c1.54776,-2.17593 1.14367,-4.53413 -0.42855,-9.44108c-0.10393,-0.32437 -0.25722,-0.63551 -0.4532,-0.93482c-0.16677,-0.95735 -0.3567,-1.93056 -0.5566,-2.92978c-0.50768,-2.53771 0.84112,-5.86211 1.24231,-8.34667c0.10079,-0.62417 -0.07346,-2.1188 -0.36023,-3.8099l7.86044,-3.80852l0.9863,-8.69894l7.98727,0.86131l-1.4131,51.46614l-8.00879,-0.59709z" fill="#b46507" stroke="none" stroke-width="0"/><path d="M271.6875,180c0,17.94925 -14.18698,32.5 -31.6875,32.5c-17.50053,0 -31.6875,-14.55075 -31.6875,-32.5c0,-17.94925 14.18697,-32.5 31.6875,-32.5c17.50052,0 31.6875,14.55075 31.6875,32.5z" fill="#32c302" stroke="#1a6521" stroke-width="2.5"/><path d="M206.62144,151.53836c0.79132,0.61141 0.17991,1.40272 0.17991,1.40272l0.03704,-0.2206c-0.31873,1.20732 0.61912,2.9689 1.45054,3.92021c2.40584,2.75278 6.15365,5.37476 9.05147,7.60265c0,0 0.79132,0.61141 0.17991,1.40272c-0.61141,0.79132 -1.40272,0.17991 -1.40272,0.17991c-3.74953,-2.90998 -12.09844,-8.12833 -11.24161,-13.49144l0.34274,-0.61626c0,0 0.61141,-0.79132 1.40272,-0.17991z" fill="#141514" stroke="none" stroke-width="0.5"/><path d="M197.875,169c1,0 1,1 1,1l-0.29289,-0.20711c1.72983,1.93375 7.75372,1.70523 10.09678,1.22653c0,0 0.98058,-0.19612 1.1767,0.78446c0.19612,0.98058 -0.78446,1.1767 -0.78446,1.1767c-3.26199,0.64038 -9.34913,0.62331 -11.90322,-1.77347l-0.29289,-1.20711c0,0 0,-1 1,-1z" fill="#141514" stroke="none" stroke-width="0.5"/><path d="M196.92779,178.60557c0.89443,-0.44721 1.34164,0.44721 1.34164,0.44721l0.2313,0.66717c5.39799,0.47632 10.65539,0.21117 16.00024,-0.46224c0,0 0.99228,-0.12403 1.11631,0.86824c0.12403,0.99228 -0.86824,1.11631 -0.86824,1.11631c-5.56644,0.69061 -12.05852,1.75576 -17.49976,0.03776l-0.7687,-1.33283c0,0 -0.44721,-0.89443 0.44721,-1.34164z" fill="#141514" stroke="none" stroke-width="0.5"/><path d="M260.375,164c0,5.10863 -3.74962,9.25 -8.375,9.25c-4.62538,0 -8.375,-4.14137 -8.375,-9.25c0,-5.10863 3.74962,-9.25 8.375,-9.25c4.62538,0 8.375,4.14137 8.375,9.25z" fill="#ffffa8" stroke="#040404" stroke-width="2.5"/><path d="M260.69216,186.625c0,4.21117 -3.26097,7.625 -7.28358,7.625c-4.02261,0 -7.28358,-3.41383 -7.28358,-7.625c0,-4.21117 3.26097,-7.625 7.28358,-7.625c4.02261,0 7.28358,3.41383 7.28358,7.625z" fill="#ffffa8" stroke="#040404" stroke-width="2.5"/><path d="M257.125,162c0,1.38071 -1.39911,2.5 -3.125,2.5c-1.72589,0 -3.125,-1.11929 -3.125,-2.5c0,-1.38071 1.39911,-2.5 3.125,-2.5c1.72589,0 3.125,1.11929 3.125,2.5z" fill="#0c0c0b" stroke="#040404" stroke-width="0"/><path d="M259.125,184.625c0,1.17361 -0.7835,2.125 -1.75,2.125c-0.9665,0 -1.75,-0.95139 -1.75,-2.125c0,-1.17361 0.7835,-2.125 1.75,-2.125c0.9665,0 1.75,0.95139 1.75,2.125z" fill="#0c0c0b" stroke="none" stroke-width="0"/><path d="M259.625,172.5c0,-0.69036 0.55964,-1.25 1.25,-1.25c0.69036,0 1.25,0.55964 1.25,1.25c0,0.69036 -0.55964,1.25 -1.25,1.25c-0.69036,0 -1.25,-0.55964 -1.25,-1.25z" fill="#0c0c0b" stroke="none" stroke-width="0.5"/><path d="M260.625,178.5c0,-0.69036 0.55964,-1.25 1.25,-1.25c0.69036,0 1.25,0.55964 1.25,1.25c0,0.69036 -0.55964,1.25 -1.25,1.25c-0.69036,0 -1.25,-0.55964 -1.25,-1.25z" fill="#0c0c0b" stroke="none" stroke-width="0.5"/><path d="M206.93869,186.23577l-6.59039,-3.12978c1.48086,-2.17593 1.09423,-4.53413 -0.41003,-9.44108c-0.09944,-0.32437 -0.2461,-0.6355 -0.43361,-0.93481c-0.15956,-0.95735 -0.34128,-1.93056 -0.53254,-2.92979c-0.48574,-2.53771 0.80477,-5.86211 1.18861,-8.34667c0.09643,-0.62417 -0.07028,-2.1188 -0.34466,-3.8099l7.52067,-3.80852l0.94367,-8.69894l7.64202,0.86131l-1.35202,51.46614l-7.66261,-0.59709z" fill="#f2870a" stroke="#b16e1e" stroke-width="2"/><path d="" fill="#f2870a" stroke="#b16e1e" stroke-width="2"/></g></g></svg>