<svg version="1.1" xmlns="http://www.w3.org/2000/svg" xmlns:xlink="http://www.w3.org/1999/xlink" width="472.94822" height="50.20215" viewBox="0,0,472.94822,50.20215"><g transform="translate(-7.55036,-148.98732)"><g data-paper-data="{&quot;isPaintingLayer&quot;:true}" fill="none" fill-rule="nonzero" stroke="#000000" stroke-width="4" stroke-linecap="round" stroke-linejoin="miter" stroke-miterlimit="10" stroke-dasharray="" stroke-dashoffset="0" style="mix-blend-mode: normal"><path d="M41.74607,168.2625c-0.4299,-5.15883 4.00891,-7.21869 8.56821,-10.12607c4.5593,-2.90738 5.82064,-2.69551 9.34714,-1.29821c3.52651,1.39729 5.5829,3.69342 4.41393,6.75071c-1.16897,3.0573 -8.60842,12.21492 -14.54,19.73286c-5.93158,7.51794 -5.56071,4.62536 -7.78929,8.56821c-2.22857,3.94286 -0.81691,3.79706 1.03857,3.37536c1.85548,-0.4217 5.75712,-5.25646 10.38571,-5.97179c4.62859,-0.71533 13.80245,-4.08173 18.175,1.55786"/><path d="M93.67464,164.84626c2.43611,-8.02484 10.34185,-8.52186 18.95393,-10.12607c8.61208,-1.60421 6.13574,1.09313 7.52964,5.19286c1.39391,4.09973 -0.49564,5.51526 -3.11571,7.78929c-2.62007,2.27402 -11.45844,-0.25961 -10.64536,4.15429c0.81309,4.41389 8.28073,1.98744 12.46286,5.71214c4.18212,3.7247 4.36113,5.08851 4.15429,9.0875c-0.20684,3.99899 -1.92548,4.95566 -4.93321,5.97179c-3.00774,1.01613 -8.80103,1.63752 -14.28036,0.51929c-5.47933,-1.11823 -10.14054,-0.8869 -11.16464,-5.71214"/><path d="M230.8825,157.09786c-7.16504,7.45164 -17.14048,-4.89447 -26.48357,0.51929c-9.34309,5.41375 -6.7403,11.09686 -1.29821,15.57857c5.44208,4.48172 8.08162,-5.06499 14.54,-4.67357c6.45838,0.39142 8.94431,1.61998 11.16464,6.23143c2.22033,4.61145 2.70418,10.25076 -1.03857,14.79964c-3.74275,4.54888 -9.14779,5.96461 -15.83821,5.71214c-6.69043,-0.25247 -11.32857,-1.34472 -11.68393,-6.75071"/><path d="M254.76964,176.57106c2.39521,-4.03768 8.23734,-2.19326 11.68393,-2.85607c3.44658,-0.6628 5.05061,-3.02966 8.56821,-1.03857c3.5176,1.9911 4.87987,5.54144 5.19286,8.82786c0.31299,3.28642 -0.7603,4.41538 -3.635,7.52964c-2.87471,3.11427 -4.35953,5.32506 -8.82786,5.97179c-4.46833,0.64674 -7.25592,0.17445 -10.905,-3.11571c-3.64908,-3.29015 -5.0634,-4.06955 -4.93321,-11.16464c0.13019,-7.0951 1.15706,-11.9048 5.4525,-17.13643c4.29544,-5.23162 12.79343,-1.36771 14.79964,-7.52964"/><path d="M300.26536,158.91536c5.58873,-7.16504 21.13437,-12.14044 23.10821,-2.85607c1.97384,9.28436 -1.13752,31.60282 -16.09786,35.83071"/><path d="M415.07071,179.94642c-8.38532,3.00243 -16.94722,-5.21234 -18.43464,-12.20321c-1.48741,-6.99086 7.3702,-10.91146 13.24179,-12.20321c5.87159,-1.29175 10.50535,-0.84847 12.7225,6.49107c2.21715,7.33954 1.59442,9.95054 -5.19286,18.43464c-6.78728,8.48411 -20.01874,5.07292 -21.81,15.31893"/><path d="M461.88144,155.54c9.23372,2.3829 16.08421,8.45579 16.61714,17.91536c0.53293,9.45958 -6.94014,15.55702 -14.54,18.95393c-7.59986,3.39691 -14.65285,4.20914 -19.73286,-3.635c-5.08002,-7.84414 -1.52414,-16.84862 2.07714,-23.6275c3.60128,-6.77888 6.34485,-11.98969 15.57857,-9.60679z"/><g><path d="M10.58893,163.58893c-0.37423,-5.66624 8.65216,-13.17262 9.60679,-8.30857c0.95463,4.86405 -0.4338,22.38807 -4.15429,36.09036c-3.72049,13.70229 -8.27845,-1.75446 -6.49107,3.11571"/><path d="M15.2625,193.18821c1.07476,-1.36136 3.21868,-1.88086 4.41393,-0.51929"/></g><g><path d="M179.23251,170.23169c-8.22952,10.80762 -27.3482,6.22448 -34.27286,1.55786c-6.92466,-4.66661 12.39192,-9.91747 10.38571,-17.65571"/><path d="M166.51,152.83563c11.89397,11.46406 14.80552,32.27135 0.77893,42.32179"/></g><g><path d="M372.70571,184.62c0,3.29592 -2.84586,4.52905 -5.97179,5.97179c-3.12593,1.44274 -8.73324,4.83147 -14.28036,3.37536c-5.54712,-1.45612 -6.70109,-4.31241 -6.49107,-8.82786c0.21002,-4.51545 5.37683,-7.79648 7.52964,-13.50143c2.15281,-5.70495 -2.05995,2.2319 -2.33679,-0.25964c-0.27684,-2.49154 -2.08002,-9.20038 0.77893,-13.76107c2.85894,-4.5607 5.73646,-3.18313 10.12607,-3.635c4.38961,-0.45187 5.89227,-0.79206 7.52964,1.8175c1.63737,2.60956 4.01812,8.27771 0.77893,11.42429"/><path d="M355.05001,171.11858c3.16476,-3.98949 9.87076,-1.4889 12.98214,-1.03857c3.11137,0.45033 5.18578,0.76478 6.75071,3.89464c1.56492,3.12985 -2.74045,6.06045 -0.51929,8.56821"/></g></g></g></svg>