<svg version="1.1" xmlns="http://www.w3.org/2000/svg" xmlns:xlink="http://www.w3.org/1999/xlink" width="26" height="27.23684" viewBox="0,0,26,27.23684"><g transform="translate(-270,-168.75)"><g data-paper-data="{&quot;isPaintingLayer&quot;:true}" fill-rule="nonzero" stroke-linecap="butt" stroke-linejoin="miter" stroke-miterlimit="10" stroke-dasharray="" stroke-dashoffset="0" style="mix-blend-mode: normal"><path d="M294.75,182.36842c0,6.83088 -5.26065,12.36842 -11.75,12.36842c-6.48935,0 -11.75,-5.53754 -11.75,-12.36842c0,-6.83088 5.26065,-12.36842 11.75,-12.36842c6.48935,0 11.75,5.53754 11.75,12.36842z" fill="#09f4c9" stroke="#29907d" stroke-width="2.5"/><path d="M285.49303,186.30902c-0.55902,1.11803 -1.67705,0.55902 -1.67705,0.55902l-1.0841,-0.54617c-3.50606,-2.13146 -5.08859,-4.19374 -5.10688,-8.32187c0,0 0,-1.25 1.25,-1.25c1.25,0 1.25,1.25 1.25,1.25c-0.01766,3.27131 1.02225,4.48351 3.89312,6.17813l0.9159,0.45383c0,0 1.11803,0.55902 0.55902,1.67705z" fill="#a4f7e8" stroke="none" stroke-width="0.5"/></g></g></svg>