<svg version="1.1" xmlns="http://www.w3.org/2000/svg" xmlns:xlink="http://www.w3.org/1999/xlink" width="242.638" height="208.51926" viewBox="0,0,242.638,208.51926"><g transform="translate(-118.31498,-75.84934)"><g data-paper-data="{&quot;isPaintingLayer&quot;:true}" fill="#faff4f" fill-rule="nonzero" stroke="#000000" stroke-width="1.5" stroke-linecap="round" stroke-linejoin="miter" stroke-miterlimit="10" stroke-dasharray="" stroke-dashoffset="0" style="mix-blend-mode: normal"><path d="M143.53497,153.16864l-18.27794,-35.22171l24.58923,-4.06732l20.39776,-20.52006l10.15441,19.56762l28.07657,-34.43975l8.37739,16.14329l34.24333,-17.77021l11.67757,22.50276l22.01357,-11.42371l13.47312,27.15934l7.82705,-4.06176l15.75786,31.56205l14.18652,-7.36195l15.79492,34.02653l-11.74057,6.09265l13.20073,25.4379l-7.59172,3.31871l14.21617,27.39467l-17.88325,7.41754l-3.04076,10.8919l-21.70968,-1.15256l-22.42864,16.60653l-9.12044,-16.37862l-19.65471,20.75539l-5.0772,-9.78381l-23.31437,23.27546l-8.105,-14.42185l-25.67324,13.94378l-10.68066,-21.77824l-22.01357,11.42371l2.94255,-33.81529l-33.28348,16.03025l4.93082,-49.12844l-25.71029,11.4793l21.37058,-37.78996l-11.74057,6.09265z"/></g></g></svg>