<svg version="1.1" xmlns="http://www.w3.org/2000/svg" xmlns:xlink="http://www.w3.org/1999/xlink" width="88.68022" height="123.79904" viewBox="0,0,88.68022,123.79904"><defs><linearGradient x1="242.54055" y1="130.31563" x2="242.54055" y2="231.5552" gradientUnits="userSpaceOnUse" id="color-1"><stop offset="0" stop-color="#b1cf16"/><stop offset="1" stop-color="#e9f366"/></linearGradient><radialGradient cx="242.5" cy="161.06674" r="3.86729" gradientUnits="userSpaceOnUse" id="color-2"><stop offset="0" stop-color="#020702"/><stop offset="1" stop-color="#050a02"/></radialGradient><radialGradient cx="263.00856" cy="163.7966" r="3.03317" gradientUnits="userSpaceOnUse" id="color-3"><stop offset="0" stop-color="#020702"/><stop offset="1" stop-color="#050a02"/></radialGradient><linearGradient x1="241.32762" y1="129.17351" x2="240.26915" y2="231.24067" gradientUnits="userSpaceOnUse" id="color-4"><stop offset="0" stop-color="#b1cf16"/><stop offset="1" stop-color="#e9f366"/></linearGradient><radialGradient cx="232.56557" cy="158.92439" r="3.86731" gradientUnits="userSpaceOnUse" id="color-5"><stop offset="0" stop-color="#020702"/><stop offset="1" stop-color="#050a02"/></radialGradient><radialGradient cx="264.04439" cy="162.53332" r="3.03319" gradientUnits="userSpaceOnUse" id="color-6"><stop offset="0" stop-color="#020702"/><stop offset="1" stop-color="#050a02"/></radialGradient></defs><g transform="translate(-196.66093,-108.78589)"><g data-paper-data="{&quot;isPaintingLayer&quot;:true}" fill-rule="nonzero" stroke-linejoin="miter" stroke-miterlimit="10" stroke-dasharray="" stroke-dashoffset="0" style="mix-blend-mode: normal"><g stroke="#004700" stroke-width="1" stroke-linecap="butt"><path d="M237.20144,146.8243c0,0 2.71603,-12.55565 4.28846,-17.86832c1.40794,-4.75691 6.61187,-14.96637 6.61187,-14.96637c0,0 8.14929,5.41709 9.46499,5.8065c0.27635,0.0818 2.66774,1.73856 2.66774,1.73856c0,0 -4.634,6.74788 -5.99686,11.35251c-1.5981,5.3994 -5.16501,17.45072 -5.16501,17.45072z" fill="#399435"/><path d="M261.47136,121.29557c-0.55927,1.88956 -2.65036,0.86955 -5.8607,-0.23895c-0.54066,-0.18669 -0.47216,-2.54121 -1.07433,-2.71945c-0.78108,-0.23118 -2.14106,1.55829 -2.78979,1.08552c-2.82118,-2.05603 -4.31152,-5.94513 -3.78023,-7.74014c0.65345,-2.20779 4.41351,-1.41103 8.59129,-0.17451c4.17779,1.23653 5.56722,7.57975 4.91377,9.78753z" fill="#91e665"/></g><path d="M201.31594,213.22432c-2.72759,-8.39579 -1.6538,-16.48954 -0.29983,-25.28797c1.47498,-9.58472 3.02104,-17.92941 7.81323,-26.54452c2.63801,-3.9612 5.36205,-8.06697 7.69275,-12.21283c3.66411,-6.51774 6.15753,-14.2069 13.60311,-17.35869c4.31514,-1.82664 10.17437,-2.37005 13.92724,0.5526c1.07261,0.83533 2.53951,1.30244 3.51991,2.20314c2.31984,-1.54696 2.75665,-2.12989 6.14439,-0.01748c0.81895,0.51066 1.53257,1.25736 1.99436,2.10985c0.61067,-0.57214 1.44283,-0.92552 2.18277,-1.33182c2.6308,-1.44458 3.35951,-1.68891 6.31424,-1.41477c7.01271,0.65064 8.52396,7.55753 9.96966,13.33592c0.88813,3.84856 2.38531,7.67058 2.99419,11.56208c0.14583,0.93205 0.16507,3.89782 0.57574,5.03758c1.25704,3.48878 3.10258,6.57678 3.94475,10.27649c1.66368,7.30865 1.95515,15.18848 2.6487,22.64086c0.51813,5.56746 1.68206,11.32969 0.79389,16.86853c-0.07665,0.57524 -0.90505,6.88166 -1.00016,7.2025c-0.48666,1.64176 -1.96291,2.86518 -2.48528,4.49594c-0.30644,0.95665 0.13991,2.15884 -0.436,2.98188c-2.45287,3.50538 -8.85036,3.75865 -12.60001,2.63956c-2.44167,-0.72872 -3.54221,-1.81856 -5.17776,-3.63989c-0.61359,-0.68329 -1.25326,-1.36686 -1.69485,-2.17207c-0.15649,-0.28537 0.29368,-0.98935 -0.0315,-0.97589c-0.40446,0.01675 -0.32204,0.81866 -0.68121,1.0054c-1.82504,0.9489 -3.84789,1.49997 -5.85564,1.94728c-5.48644,1.22231 -9.8063,-0.08201 -14.05843,-3.47663c-0.48438,-0.87097 -1.0083,-1.7211 -1.45313,-2.61292c-0.14603,-0.29276 0.01273,-0.94682 -0.31399,-0.92989c-0.43997,0.0228 -0.47883,0.79665 -0.87398,0.99147c-3.07446,1.51578 -6.80116,2.36384 -10.21194,2.66148c-9.12596,0.79637 -23.26817,1.94258 -28.16877,-7.39085c0,0 -1.01735,-2.03472 1.01735,-3.05207c0.06993,-0.03497 0.13867,-0.06633 0.2062,-0.09429z" fill="url(#color-1)" stroke="#334a0d" stroke-width="2" stroke-linecap="butt"/><path d="M259.91973,159.29519c2.01842,0 4.74756,-4.12151 6.22454,-2.99804c2.04328,1.55422 3.35717,3.97754 3.35717,6.70007c0,4.69049 -3.89989,8.49289 -8.71065,8.49289c-4.81076,0 -8.27512,-1.84249 -8.27512,-6.53298c0,-4.69049 2.59329,-5.66193 7.40405,-5.66193z" data-paper-data="{&quot;index&quot;:null}" fill="#f6f9df" stroke="#354c0d" stroke-width="1.5" stroke-linecap="butt"/><path d="M245.61522,162.06692c0,4.69049 -3.46436,6.53299 -8.27512,6.53299c-4.81076,0 -8.71065,-3.8024 -8.71065,-8.49288c0,-2.72252 1.31389,-5.14585 3.35717,-6.70007c1.47697,-1.12346 4.20612,2.99805 6.22454,2.99805c4.81076,0 7.40405,0.97143 7.40405,5.66192z" fill="#f6f9df" stroke="#354c0d" stroke-width="1.5" stroke-linecap="butt"/><path d="M268.55358,160.61973c-0.90995,0 -0.90995,-0.90995 -0.90995,-0.90995l0.02717,-0.00679c-0.46173,-2.30723 -2.07636,-1.13637 -3.89447,-1.13065c-1.87833,-0.06523 -3.87178,1.9907 -6.031,2.26806c-5.6464,0.7253 -10.51602,-0.31169 -15.56326,-2.83532c-1.58357,-0.95014 -3.65668,-0.2765 -5.80033,-1.02532c-3.68657,-1.2878 -7.58178,-3.22005 -9.55452,0.86209c0,0 -0.40694,0.81389 -1.22083,0.40694c-0.81389,-0.40694 -0.40694,-1.22083 -0.40694,-1.22083c3.84047,-7.4908 12.44955,-3.86352 17.85838,-0.61821c4.72504,2.36252 9.18453,3.2639 14.46515,2.62439c2.40906,-0.29175 3.95643,-2.23173 6.25335,-2.28169c2.74128,0.01018 4.71235,-0.8764 5.66003,2.50916l0.02717,0.44819c0,0 0,0.90995 -0.90995,0.90995z" fill="#334a0d" stroke="none" stroke-width="0.5" stroke-linecap="butt"/><path d="M244.69905,161.06674c0,2.13585 -0.98455,3.86729 -2.19905,3.86729c-1.2145,0 -2.19905,-1.73145 -2.19905,-3.86729c0,-2.13585 0.98455,-3.86729 2.19905,-3.86729c1.2145,0 2.19905,1.73145 2.19905,3.86729z" fill="url(#color-2)" stroke="none" stroke-width="0" stroke-linecap="butt"/><path d="M265.28344,163.7966c0,1.67518 -1.0185,3.03317 -2.27488,3.03317c-1.25638,0 -2.27488,-1.35799 -2.27488,-3.03317c0,-1.67518 1.0185,-3.03317 2.27488,-3.03317c1.25638,0 2.27488,1.35799 2.27488,3.03317z" fill="url(#color-3)" stroke="none" stroke-width="0" stroke-linecap="butt"/><path d="M269.70365,207.44166c-0.81389,0.40694 -1.22083,-0.40694 -1.22083,-0.40694l-0.46788,-0.93684c-0.68113,-1.65972 -1.77999,-2.66376 -2.5465,-4.28637c-1.68955,-0.84477 -2.16985,-3.16841 -3.27959,-4.66114c-3.99306,-5.37114 -10.90724,-8.26665 -17.46085,-8.26665c-5.30153,0 -10.60988,0.02968 -15.7741,0.89749c-1.18325,0.19883 -2.88878,-0.02644 -3.97576,0.42674c-1.7248,0.7191 -3.77411,3.0068 -5.08536,4.32394c0,0 -0.64344,0.64344 -1.28686,0c-0.64344,-0.64344 0,-1.28686 0,-1.28686c1.55943,-1.55307 3.78774,-3.91224 5.83406,-4.77558c1.1771,-0.49662 2.95304,-0.27071 4.2138,-0.48321c5.26576,-0.88753 10.67186,-0.92241 16.07421,-0.92241c7.21891,0 12.99537,3.02279 17.93252,8.00111c1.55938,1.57239 2.26664,4.54564 4.09478,5.45971c0.93073,1.77714 2.12228,2.97089 2.91321,4.81314l0.44207,0.88306c0,0 0.40694,0.81389 -0.40694,1.22083z" fill="#334a0d" stroke="none" stroke-width="0.5" stroke-linecap="butt"/><path d="M222.16767,199.53662c-0.64344,0.64344 -1.28686,0 -1.28686,0l-0.61475,-0.7127c-2.73644,0.33743 -6.13123,1.32425 -6.90705,-2.45153c-0.03138,-0.15271 -0.02434,-2.67607 -0.02434,-2.93892c0,0 0,-0.90995 0.90995,-0.90995c0.90995,0 0.90995,0.90995 0.90995,0.90995c0,0.8403 -0.1829,1.69559 -0.02434,2.52079c0.50391,2.6226 3.86733,1.0801 5.83227,1.18828l1.20516,1.1072c0,0 0.64344,0.64344 0,1.28686z" fill="#334a0d" stroke="none" stroke-width="0.5" stroke-linecap="butt"/><path d="M276.52829,210.81863c0.81389,0.40694 0.40694,1.22083 0.40694,1.22083l-0.79048,1.27706c-1.54145,0.15089 -3.03109,0.56962 -4.55003,0.59059c-0.00769,0.00019 -0.01541,0.00029 -0.02314,0.00029c-0.11501,0 -0.22503,-0.02134 -0.32634,-0.06027c-0.26103,-0.08869 -0.58362,-0.30789 -0.58362,-0.84969c0,-0.54179 0.32259,-0.76099 0.58362,-0.84969c0.1013,-0.03893 0.21133,-0.06027 0.32634,-0.06027c0.00743,0 0.01485,0.00009 0.02225,0.00026c1.28269,0.01104 2.29359,-0.72889 3.59415,-0.31934l0.11948,-0.54284c0,0 0.40694,-0.81389 1.22083,-0.40694z" fill="#334a0d" stroke="none" stroke-width="0.5" stroke-linecap="butt"/><g><g stroke-linecap="butt"><g stroke="#004700" stroke-width="1"><path d="M235.81622,145.96547c0,0 2.84715,-12.62767 4.47503,-17.96605c1.45759,-4.77992 6.76796,-15.01418 6.76796,-15.01418c0,0 8.09217,5.55324 9.40373,5.96066c0.27548,0.08558 2.64941,1.78284 2.64941,1.78284c0,0 -4.70428,6.75081 -6.1152,11.37771c-1.65446,5.42552 -5.34716,17.53515 -5.34716,17.53515z" fill="#399435"/><path d="M260.35163,120.50164c-0.57899,1.8987 -2.65929,0.84678 -5.85785,-0.30697c-0.53868,-0.19431 -0.44557,-2.56731 -1.04584,-2.75379c-0.77862,-0.24187 -2.15723,1.54689 -2.80098,1.06294c-2.79952,-2.10464 -4.24911,-6.04233 -3.69908,-7.84602c0.67649,-2.21847 4.428,-1.37282 8.59261,-0.07909c4.16462,1.29373 5.48765,7.70447 4.81115,9.92293z" fill="#91e665"/></g><path d="M199.2386,212.29524c-2.63965,-8.49517 -1.4813,-16.64298 -0.03543,-25.49807c1.57511,-9.64644 3.20832,-18.04192 8.0903,-26.67344c2.67927,-3.96385 5.44608,-8.07247 7.81999,-12.22595c3.73204,-6.52972 6.3057,-14.25363 13.7838,-17.34725c4.33399,-1.79293 10.19856,-2.27473 13.92065,0.71411c1.06382,0.85425 2.52575,1.34171 3.49667,2.26083c2.33588,-1.53345 2.77876,-2.11622 6.14422,0.05164c0.81357,0.52407 1.51933,1.28491 1.97218,2.14958c0.61662,-0.56993 1.45242,-0.91682 2.19657,-1.3181c2.64575,-1.42673 3.37698,-1.66484 6.32867,-1.35515c7.0055,0.73501 8.44445,7.7154 9.82965,13.55732c0.84784,3.89003 2.30497,7.76017 2.87313,11.69035c0.13608,0.94131 0.12431,3.93154 0.52304,5.08525c1.22049,3.53147 3.03364,6.66551 3.83708,10.40496c1.58717,7.38715 1.79624,15.33468 2.41183,22.8558c0.45989,5.61881 1.5635,11.44127 0.61748,17.01538c-0.08266,0.57908 -0.97694,6.92771 -1.0754,7.2501c-0.50379,1.6497 -1.99275,2.86648 -2.53214,4.50468c-0.31642,0.96101 0.11733,2.17806 -0.46715,3.00134c-2.48937,3.50638 -8.88914,3.6896 -12.62687,2.5191c-2.43391,-0.7622 -3.52299,-1.87335 -5.1394,-3.72801c-0.60641,-0.69579 -1.23889,-1.39216 -1.67204,-2.20893c-0.1535,-0.28946 0.304,-0.99412 -0.0213,-0.98422c-0.40461,0.01233 -0.33059,0.82172 -0.69169,1.00594c-1.83486,0.93609 -3.86334,1.46886 -5.87566,1.89719c-5.4989,1.17046 -9.80487,-0.19322 -14.02126,-3.66353c-0.47525,-0.88355 -0.99024,-1.74653 -1.42572,-2.65066c-0.14296,-0.2968 0.02263,-0.95442 -0.30425,-0.94103c-0.44019,0.01803 -0.48713,0.79777 -0.8843,0.98972c-3.09013,1.49351 -6.82548,2.3065 -10.23917,2.56812c-9.13376,0.70001 -23.28712,1.69616 -28.08985,-7.76881c0,0 -0.99602,-2.06282 1.0492,-3.06555c0.07029,-0.03447 0.13935,-0.06531 0.20717,-0.09274z" fill="url(#color-4)" stroke="#334a0d" stroke-width="2"/><path d="M260.0028,159.00292c2.0183,0.02276 3.39037,-4.31021 4.85552,-3.1609c2.02691,1.58996 3.31539,4.0479 3.28692,6.79268c-0.04904,4.72883 -3.98846,8.51835 -8.79894,8.46412c-4.81048,-0.05423 -8.25537,-1.95083 -8.20633,-6.67966c0.04904,-4.72883 2.65234,-5.67899 7.46282,-5.62475z" data-paper-data="{&quot;index&quot;:null}" fill="#f6f9df" stroke="#354c0d" stroke-width="1.5"/><path d="M244.07015,161.42754c-0.04904,4.72883 -3.53246,6.54734 -8.34294,6.49311c-4.81048,-0.05423 -8.67038,-3.93167 -8.62134,-8.6605c0.02847,-2.74478 1.36761,-5.1731 3.42702,-6.717c1.48863,-1.116 3.77453,4.73817 5.79283,4.76093c4.81048,0.05423 7.79346,-0.60536 7.74442,4.12347z" fill="#f6f9df" stroke="#354c0d" stroke-width="1.5"/><path d="M267.0223,160.22709c-0.9099,-0.01026 -0.90038,-0.92765 -0.90038,-0.92765l0.02724,-0.00654c-0.43758,-2.3313 -2.06436,-1.16907 -3.88242,-1.18379c-1.87754,-0.08694 -3.89237,1.96333 -6.05436,2.21861c-5.65366,0.66758 -10.51215,-0.43278 -15.53271,-3.03394c-1.57354,-0.97576 -3.65357,-0.31998 -5.78927,-1.09908c-3.67289,-1.33988 -7.54767,-3.33184 -9.56298,0.76144c0,0 -0.41542,0.81595 -1.22501,0.3965c-0.80959,-0.41944 -0.39416,-1.2354 -0.39416,-1.2354c3.91856,-7.50874 12.48922,-3.75476 17.8638,-0.42195c4.70006,2.43509 9.14988,3.39411 14.43687,2.8089c2.41197,-0.26698 3.97953,-2.20537 6.27684,-2.22985c2.74102,0.04116 4.72123,-0.83045 5.63347,2.59347l0.02248,0.45216c0,0 -0.00952,0.91739 -0.91941,0.90713z" fill="#334a0d" stroke="none" stroke-width="0.5"/><path d="M234.76449,158.94918c-0.02233,2.15331 -1.02493,3.8878 -2.23936,3.87411c-1.21443,-0.01369 -2.18081,-1.77039 -2.15848,-3.92369c0.02233,-2.15331 1.02492,-3.8878 2.23935,-3.87411c1.21443,0.01369 2.18082,1.77039 2.15849,3.92369z" fill="url(#color-5)" stroke="none" stroke-width="0"/><path d="M266.31914,162.55897c-0.01752,1.68887 -1.05016,3.04649 -2.30646,3.03232c-1.2563,-0.01416 -2.26055,-1.39474 -2.24304,-3.08361c0.01752,-1.68887 1.05016,-3.04649 2.30646,-3.03232c1.2563,0.01416 2.26055,1.39474 2.24304,3.08361z" fill="url(#color-6)" stroke="none" stroke-width="0"/><path d="M220.23222,198.93922c-0.65013,0.64144 -1.28679,-0.01451 -1.28679,-0.01451l-0.60727,-0.72545c-2.73981,0.30934 -6.14471,1.26596 -6.88101,-2.54943c-0.02978,-0.15431 0.00364,-2.69822 0.00639,-2.96322c0,0 0.00951,-0.91739 0.91941,-0.90713c0.9099,0.01026 0.90038,0.92765 0.90038,0.92765c-0.00878,0.84717 -0.20061,1.70739 -0.05069,2.54112c0.47646,2.64972 3.85581,1.13253 5.81951,1.26374l1.19351,1.12983c0,0 0.63667,0.65595 -0.01345,1.29738z" fill="#334a0d" stroke="none" stroke-width="0.5"/><path d="M274.47171,210.92624c0.80959,0.41944 0.39415,1.2354 0.39415,1.2354l-0.80378,1.27859c-1.54294,0.13475 -3.03687,0.54011 -4.55594,0.54413c-0.00769,0.0001 -0.01541,0.00012 -0.02314,0.00003c-0.115,-0.0013 -0.2248,-0.02405 -0.32569,-0.06444c-0.26009,-0.09236 -0.58037,-0.31699 -0.5747,-0.86322c0.00567,-0.54622 0.33053,-0.76357 0.59247,-0.85005c0.1017,-0.03811 0.21195,-0.05838 0.32695,-0.05708c0.00743,0.00008 0.01485,0.00026 0.02224,0.00051c1.2825,0.02559 2.30108,-0.709 3.59728,-0.28144l0.12515,-0.54593c0,0 0.41542,-0.81596 1.22501,-0.39651z" fill="#334a0d" stroke="none" stroke-width="0.5"/></g><path d="M272.19583,202.723c0,2.65478 -11.00284,-3.33446 -17.26285,-5.11248c-5.87722,-1.6693 -11.62855,-3.85411 -11.83715,-3.85411c-3.31301,0 -6.41783,0.50256 -8.99998,1.0975c-4.26198,0.98199 -16.30003,-0.64621 -16.30003,-4.01686c0,-5.41277 15.91867,-12.51151 24.7,-12.51151c8.78133,0 29.7,18.98468 29.7,24.39745z" fill="#ffffff" stroke="#334a0d" stroke-width="1.5" stroke-linecap="butt"/><path d="M228.99583,182.49605l2.6,10.84331" fill="none" stroke="#334a0d" stroke-width="1.5" stroke-linecap="round"/><path d="M249.19583,181.45342l-1.2,16.26497" fill="none" stroke="#334a0d" stroke-width="1.5" stroke-linecap="round"/><path d="M262.59583,190.21148l-1.2,10.21774" fill="none" stroke="#334a0d" stroke-width="1.5" stroke-linecap="round"/><path d="M219.59583,191.87969l28,-5.63018l24.2,15.84792" fill="none" stroke="#334a0d" stroke-width="1.5" stroke-linecap="round"/></g></g></g></svg>