<svg version="1.1" xmlns="http://www.w3.org/2000/svg" xmlns:xlink="http://www.w3.org/1999/xlink" width="68.89653" height="50.37295" viewBox="0,0,68.89653,50.37295"><g transform="translate(-90.21512,-183.94926)"><g data-paper-data="{&quot;isPaintingLayer&quot;:true}" fill-rule="nonzero" stroke="#000000" stroke-width="2" stroke-linejoin="miter" stroke-miterlimit="10" stroke-dasharray="" stroke-dashoffset="0" style="mix-blend-mode: normal"><path d="M144.82601,206.71415c0,5.63639 -3.42499,21.37934 -17.2286,21.37934c-13.80358,0 -36.38229,-6.05902 -36.38229,-11.69541c0,-5.63639 36.03805,-27.83528 49.84165,-27.83528c13.80358,0 3.76925,12.51498 3.76925,18.15137z" data-paper-data="{&quot;index&quot;:null}" fill="#9966ff" stroke-linecap="butt"/><path d="M111.44933,233.32221l-19.73744,-7.97638l5.82126,-20.51863l12.25228,-12.61822l17.16964,-7.25972" data-paper-data="{&quot;index&quot;:null}" fill="#58ff00" stroke-linecap="round"/><path d="M152.87477,204.88324c0,2.3277 -13.74905,2.72484 -16.66073,2.72484c-2.91167,0 6.11663,-0.39713 6.11663,-2.72484c0,-2.3277 12.19606,-13.65029 15.10773,-13.65029c2.91167,0 -4.56363,11.32258 -4.56363,13.65029z" data-paper-data="{&quot;index&quot;:null}" fill="#58ff00" stroke-linecap="butt"/><path d="M138.49645,218.14029l-11.7082,-3.48222l-5.91108,-9.04239l27.29519,-11.62404l-21.06459,12.54361h3.03542l2.23663,3.37173l3.83422,-0.15325l4.31349,2.60543" data-paper-data="{&quot;index&quot;:null}" fill="#00e6ff" stroke-linecap="round"/><path d="M151.75645,205.72618l3.1258,-13.57366" data-paper-data="{&quot;index&quot;:null}" fill="none" stroke-linecap="round"/><path d="M123.27355,208.06786l5.11229,-1.07282l-2.39638,5.97717l8.14771,-3.06522l8.67278,7.31374" data-paper-data="{&quot;index&quot;:null}" fill="none" stroke-linecap="round"/></g></g></svg>