<svg version="1.1" xmlns="http://www.w3.org/2000/svg" xmlns:xlink="http://www.w3.org/1999/xlink" width="70.36159" height="87.83963" viewBox="-0.25,-0.25,70.36159,87.83963"><defs><radialGradient cx="231.18634" cy="180.98582" r="41.0703" gradientUnits="userSpaceOnUse" id="color-1"><stop offset="0" stop-color="#7f7f7f"/><stop offset="1" stop-color="#929292"/></radialGradient></defs><g transform="translate(-211.06514,-131.24542)"><g data-paper-data="{&quot;isPaintingLayer&quot;:true}" fill-rule="nonzero" stroke-linecap="butt" stroke-linejoin="miter" stroke-miterlimit="10" stroke-dasharray="" stroke-dashoffset="0" style="mix-blend-mode: normal"><path d="M265.07522,179.25c0,19.43453 -5.61057,35.93932 -23.32522,35.93932c-17.71466,0 -26.82522,-15.0048 -26.82522,-34.43932c0,-19.43453 9.11057,-35.93932 26.82522,-35.93932c17.71466,0 23.32522,15.0048 23.32522,34.43932z" fill="#a16a04" stroke="#ab8c53" stroke-width="2.5"/><path d="M247.4812,164.70267c0,5.79899 -4.02944,10.5 -9,10.5c-4.97056,0 -9,-4.70101 -9,-10.5c0,-5.79899 4.02944,-10.5 9,-10.5c4.97056,0 9,4.70101 9,10.5z" fill="#edeee1" stroke="#000000" stroke-width="2.5"/><path d="M263.4812,166.95267c0,6.62742 -3.41383,12 -7.625,12c-4.21117,0 -7.625,-5.37258 -7.625,-12c0,-6.62742 3.41383,-12 7.625,-12c4.21117,0 7.625,5.37258 7.625,12z" fill="#edeee1" stroke="#000000" stroke-width="2.5"/><path d="M238.7312,164.70267c0,-1.38071 1.11929,-2.5 2.5,-2.5c1.38071,0 2.5,1.11929 2.5,2.5c0,1.38071 -1.11929,2.5 -2.5,2.5c-1.38071,0 -2.5,-1.11929 -2.5,-2.5z" fill="#050505" stroke="none" stroke-width="0.5"/><path d="M255.9812,165.45267c0,-1.38071 1.11929,-2.5 2.5,-2.5c1.38071,0 2.5,1.11929 2.5,2.5c0,1.38071 -1.11929,2.5 -2.5,2.5c-1.38071,0 -2.5,-1.11929 -2.5,-2.5z" fill="#050505" stroke="none" stroke-width="0.5"/><path d="M254.7312,189.20267c1.25,0 1.25,1.25 1.25,1.25l-0.25,1.25c-2.75203,3.66938 -6.74191,5.89379 -10.38759,8.58971c-6.91548,2.8195 -17.24588,0.35135 -20.04475,-7.43404c-0.71986,-2.00239 -0.31766,-4.56134 -0.31766,-6.65567c0,0 0,-1.25 1.25,-1.25c1.25,0 1.25,1.25 1.25,1.25c0,1.74755 -0.43357,4.17863 0.18234,5.84433c2.31168,6.25179 10.89292,8.23337 16.45525,6.06596c3.32895,-2.53825 7.07282,-4.52417 9.61241,-7.91029l-0.25,0.25c0,0 0,-1.25 1.25,-1.25z" fill="#050505" stroke="none" stroke-width="0.5"/><path d="M279.92674,175.16388c0,12.41653 -5.85521,23.35399 -13.4889,30.36593c-6.38126,5.86151 -17.30912,12.05524 -24.84839,12.05524c-16.55823,0 -29.52431,-20.58256 -29.52431,-43.37847c0,-11.38212 3.44206,-23.1951 8.85433,-30.66206c5.42733,-7.48773 15.8069,-11.2991 24.09752,-11.2991c6.32285,0 13.72859,1.29134 19.45275,6.18804c9.26623,7.92676 15.457,22.63925 15.457,36.73042zM233.39446,153.25704c-1.20093,0.12635 -2.23472,3.39882 -2.84261,3.87684c-2.03091,1.20628 -2.24955,7.76342 -2.24955,10.29693c0,3.72137 6.82374,6.91865 6.92172,6.92171c7.63269,0.23788 15.27279,2.72769 22.90916,2.74202c1.66676,0.00313 5.28185,-3.21725 6.50812,-4.18405c0.99589,-0.78516 1.80957,-4.89599 1.86134,-5.828c0.03865,-0.69572 -1.3569,-5.94006 -1.86134,-6.285c-2.94088,-2.01099 -2.1684,-7.17524 -4.8053,-7.14347c-7.59411,0.0915 -13.36503,-2.06573 -20.95596,-1.82801c0,0 -5.18603,1.39144 -5.48558,1.43103z" fill="url(#color-1)" stroke="#000000" stroke-width="2"/><path d="M239.30908,151.32757c7.59093,-0.23772 13.42757,1.92817 21.02168,1.83667c2.63689,-0.03177 1.87558,5.1549 4.81646,7.16589c0.50444,0.34494 1.90061,5.60648 1.86196,6.3022c-0.05178,0.93201 -0.8701,5.05804 -1.86599,5.8432c-1.22627,0.9668 -4.85389,4.20327 -6.52065,4.20014c-7.63637,-0.01433 -15.34763,-2.51073 -22.98031,-2.7486c-0.09797,-0.00306 -6.93232,-3.22417 -6.93232,-6.94554c0,-2.53351 0.22218,-9.11828 2.25309,-10.32455c0.60789,-0.47801 1.64848,-3.76178 2.84942,-3.88814c0.29955,-0.03958 5.49667,-1.44126 5.49667,-1.44126z" data-paper-data="{&quot;noHover&quot;:false,&quot;origItem&quot;:[&quot;Path&quot;,{&quot;applyMatrix&quot;:true,&quot;segments&quot;:[[[360.30695,261.72766],[0.59911,-0.07917],[-2.40187,0.25271]],[[354.62173,269.48134],[1.21578,-0.95603],[-4.06182,2.41255]],[[350.12263,290.0752],[0,-5.06702],[0,7.44275]],[[363.96606,303.91862],[-0.19595,-0.00613],[15.26537,0.47576]],[[409.78438,309.40267],[-15.27274,-0.02867],[3.33351,0.00625]],[[422.80062,301.03457],[-2.45255,1.9336],[1.99178,-1.57031]],[[426.52331,289.37858],[-0.10355,1.86402],[0.0773,-1.39144]],[[422.80062,276.80857],[1.00889,0.68989],[-5.88176,-4.02198]],[[413.19003,262.52164],[5.27379,-0.06354],[-15.18821,0.18299]],[[371.27812,258.86561],[15.18186,-0.47544],[0,0]]],&quot;closed&quot;:true,&quot;fillColor&quot;:[0,0,0,1]}]}" fill="none" stroke="#636363" stroke-width="3.5"/><path d="M247.0889,216.65649c-1.95,2.6 -4.55,1.53854 -4.55,1.53854l-1.12374,-1.73244c-2.2956,-1.68997 -3.45509,-3.67205 -5.54293,-5.49605c-0.86574,-0.75634 -2.04538,-1.21045 -2.68281,-2.16713c-0.60048,-0.90122 -0.41239,-2.14515 -0.85035,-3.13559c-1.0714,-2.42298 -2.84115,-4.65702 -3.88989,-7.20084c-2.84965,-6.91209 -4.31045,-14.09685 -6.64927,-21.12951c-1.82601,-9.09643 -1.5841,-18.91567 3.31863,-27.09346c4.07831,-6.80265 11.62562,-13.50383 18.24022,-17.66569c0,0 5.71779,-1.7225 7.44029,1.0335c1.7225,2.75599 -3.40294,5.36703 -3.40294,5.36703c-5.72076,3.54703 -13.18342,8.74845 -16.70899,14.6179c-3.97023,6.60972 -4.06577,14.73391 -2.60497,22.07238c4.06299,12.16028 5.99199,27.92909 17.11105,35.50819l5.98457,3.00643c0,0 -2.13888,-0.12326 -4.08888,2.47674z" fill="#b9b9b9" stroke="none" stroke-width="0.5"/><path d="M240.36946,138.58829c0,-0.9665 0.7835,-1.75 1.75,-1.75c0.9665,0 1.75,0.7835 1.75,1.75c0,0.9665 -0.7835,1.75 -1.75,1.75c-0.9665,0 -1.75,-0.7835 -1.75,-1.75z" fill="#636363" stroke="none" stroke-width="0.5"/><path d="M231.78025,145.69661c0,-0.9665 0.7835,-1.75 1.75,-1.75c0.9665,0 1.75,0.7835 1.75,1.75c0,0.9665 -0.7835,1.75 -1.75,1.75c-0.9665,0 -1.75,-0.7835 -1.75,-1.75z" fill="#636363" stroke="none" stroke-width="0.5"/><path d="M223.7834,157.83998c0,-0.9665 0.7835,-1.75 1.75,-1.75c0.9665,0 1.75,0.7835 1.75,1.75c0,0.9665 -0.7835,1.75 -1.75,1.75c-0.9665,0 -1.75,-0.7835 -1.75,-1.75z" fill="#636363" stroke="none" stroke-width="0.5"/><path d="M223.19104,170.27953c0,-0.9665 0.7835,-1.75 1.75,-1.75c0.9665,0 1.75,0.7835 1.75,1.75c0,0.9665 -0.7835,1.75 -1.75,1.75c-0.9665,0 -1.75,-0.7835 -1.75,-1.75z" fill="#636363" stroke="none" stroke-width="0.5"/><path d="M224.96812,181.83054c0,-0.9665 0.7835,-1.75 1.75,-1.75c0.9665,0 1.75,0.7835 1.75,1.75c0,0.9665 -0.7835,1.75 -1.75,1.75c-0.9665,0 -1.75,-0.7835 -1.75,-1.75z" fill="#636363" stroke="none" stroke-width="0.5"/><path d="M229.11463,193.67773c0,-0.9665 0.7835,-1.75 1.75,-1.75c0.9665,0 1.75,0.7835 1.75,1.75c0,0.9665 -0.7835,1.75 -1.75,1.75c-0.9665,0 -1.75,-0.7835 -1.75,-1.75z" fill="#636363" stroke="none" stroke-width="0.5"/><path d="M233.55733,204.93256c0,-0.9665 0.7835,-1.75 1.75,-1.75c0.9665,0 1.75,0.7835 1.75,1.75c0,0.9665 -0.7835,1.75 -1.75,1.75c-0.9665,0 -1.75,-0.7835 -1.75,-1.75z" fill="#636363" stroke="none" stroke-width="0.5"/><path d="M241.55418,213.22559c0,-0.9665 0.7835,-1.75 1.75,-1.75c0.9665,0 1.75,0.7835 1.75,1.75c0,0.9665 -0.7835,1.75 -1.75,1.75c-0.9665,0 -1.75,-0.7835 -1.75,-1.75z" fill="#636363" stroke="none" stroke-width="0.5"/><path d="M230.00317,198.12043c0,-0.9665 0.7835,-1.75 1.75,-1.75c0.9665,0 1.75,0.7835 1.75,1.75c0,0.9665 -0.7835,1.75 -1.75,1.75c-0.9665,0 -1.75,-0.7835 -1.75,-1.75z" fill="#636363" stroke="none" stroke-width="0.5"/><path d="M237.40767,209.67144c0,-0.9665 0.7835,-1.75 1.75,-1.75c0.9665,0 1.75,0.7835 1.75,1.75c0,0.9665 -0.7835,1.75 -1.75,1.75c-0.9665,0 -1.75,-0.7835 -1.75,-1.75z" fill="#636363" stroke="none" stroke-width="0.5"/><path d="M226.44901,188.05031c0,-0.9665 0.7835,-1.75 1.75,-1.75c0.9665,0 1.75,0.7835 1.75,1.75c0,0.9665 -0.7835,1.75 -1.75,1.75c-0.9665,0 -1.75,-0.7835 -1.75,-1.75z" fill="#636363" stroke="none" stroke-width="0.5"/><path d="M223.48722,175.61076c0,-0.9665 0.7835,-1.75 1.75,-1.75c0.9665,0 1.75,0.7835 1.75,1.75c0,0.9665 -0.7835,1.75 -1.75,1.75c-0.9665,0 -1.75,-0.7835 -1.75,-1.75z" fill="#636363" stroke="none" stroke-width="0.5"/><path d="M221.71014,165.24447c0,-0.9665 0.7835,-1.75 1.75,-1.75c0.9665,0 1.75,0.7835 1.75,1.75c0,0.9665 -0.7835,1.75 -1.75,1.75c-0.9665,0 -1.75,-0.7835 -1.75,-1.75z" fill="#636363" stroke="none" stroke-width="0.5"/><path d="M225.85665,151.32402c0,-0.9665 0.7835,-1.75 1.75,-1.75c0.9665,0 1.75,0.7835 1.75,1.75c0,0.9665 -0.7835,1.75 -1.75,1.75c-0.9665,0 -1.75,-0.7835 -1.75,-1.75z" fill="#636363" stroke="none" stroke-width="0.5"/><path d="M236.22295,141.84627c0,-0.9665 0.7835,-1.75 1.75,-1.75c0.9665,0 1.75,0.7835 1.75,1.75c0,0.9665 -0.7835,1.75 -1.75,1.75c-0.9665,0 -1.75,-0.7835 -1.75,-1.75z" fill="#636363" stroke="none" stroke-width="0.5"/><path d="M241.96182,139.18065c0,-0.41421 0.33579,-0.75 0.75,-0.75c0.41421,0 0.75,0.33579 0.75,0.75c0,0.41421 -0.33579,0.75 -0.75,0.75c-0.41421,0 -0.75,-0.33579 -0.75,-0.75z" fill="#c9c9c9" stroke="none" stroke-width="0.5"/><path d="M237.51913,142.43863c0,-0.41421 0.33579,-0.75 0.75,-0.75c0.41421,0 0.75,0.33579 0.75,0.75c0,0.41421 -0.33579,0.75 -0.75,0.75c-0.41421,0 -0.75,-0.33579 -0.75,-0.75z" fill="#c9c9c9" stroke="none" stroke-width="0.5"/><path d="M233.07643,145.99279c0,-0.41421 0.33579,-0.75 0.75,-0.75c0.41421,0 0.75,0.33579 0.75,0.75c0,0.41421 -0.33579,0.75 -0.75,0.75c-0.41421,0 -0.75,-0.33579 -0.75,-0.75z" fill="#c9c9c9" stroke="none" stroke-width="0.5"/><path d="M226.85665,151.6202c0,-0.41421 0.33579,-0.75 0.75,-0.75c0.41421,0 0.75,0.33579 0.75,0.75c0,0.41421 -0.33579,0.75 -0.75,0.75c-0.41421,0 -0.75,-0.33579 -0.75,-0.75z" fill="#c9c9c9" stroke="none" stroke-width="0.5"/><path d="M225.37576,158.13616c0,-0.41421 0.33579,-0.75 0.75,-0.75c0.41421,0 0.75,0.33579 0.75,0.75c0,0.41421 -0.33579,0.75 -0.75,0.75c-0.41421,0 -0.75,-0.33579 -0.75,-0.75z" fill="#c9c9c9" stroke="none" stroke-width="0.5"/><path d="M222.71014,164.65211c0,-0.41421 0.33579,-0.75 0.75,-0.75c0.41421,0 0.75,0.33579 0.75,0.75c0,0.41421 -0.33579,0.75 -0.75,0.75c-0.41421,0 -0.75,-0.33579 -0.75,-0.75z" fill="#c9c9c9" stroke="none" stroke-width="0.5"/><path d="M224.7834,170.27953c0,-0.41421 0.33579,-0.75 0.75,-0.75c0.41421,0 0.75,0.33579 0.75,0.75c0,0.41421 -0.33579,0.75 -0.75,0.75c-0.41421,0 -0.75,-0.33579 -0.75,-0.75z" fill="#c9c9c9" stroke="none" stroke-width="0.5"/><path d="M224.7834,175.90694c0,-0.41421 0.33579,-0.75 0.75,-0.75c0.41421,0 0.75,0.33579 0.75,0.75c0,0.41421 -0.33579,0.75 -0.75,0.75c-0.41421,0 -0.75,-0.33579 -0.75,-0.75z" fill="#c9c9c9" stroke="none" stroke-width="0.5"/><path d="M226.2643,181.53436c0,-0.41421 0.33579,-0.75 0.75,-0.75c0.41421,0 0.75,0.33579 0.75,0.75c0,0.41421 -0.33579,0.75 -0.75,0.75c-0.41421,0 -0.75,-0.33579 -0.75,-0.75z" fill="#c9c9c9" stroke="none" stroke-width="0.5"/><path d="M228.04137,188.05031c0,-0.41421 0.33579,-0.75 0.75,-0.75c0.41421,0 0.75,0.33579 0.75,0.75c0,0.41421 -0.33579,0.75 -0.75,0.75c-0.41421,0 -0.75,-0.33579 -0.75,-0.75z" fill="#c9c9c9" stroke="none" stroke-width="0.5"/><path d="M230.70699,193.67773c0,-0.41421 0.33579,-0.75 0.75,-0.75c0.41421,0 0.75,0.33579 0.75,0.75c0,0.41421 -0.33579,0.75 -0.75,0.75c-0.41421,0 -0.75,-0.33579 -0.75,-0.75z" fill="#c9c9c9" stroke="none" stroke-width="0.5"/><path d="M231.59553,197.52807c0,-0.41421 0.33579,-0.75 0.75,-0.75c0.41421,0 0.75,0.33579 0.75,0.75c0,0.41421 -0.33579,0.75 -0.75,0.75c-0.41421,0 -0.75,-0.33579 -0.75,-0.75z" fill="#c9c9c9" stroke="none" stroke-width="0.5"/><path d="M234.55733,205.8211c0,-0.41421 0.33579,-0.75 0.75,-0.75c0.41421,0 0.75,0.33579 0.75,0.75c0,0.41421 -0.33579,0.75 -0.75,0.75c-0.41421,0 -0.75,-0.33579 -0.75,-0.75z" fill="#c9c9c9" stroke="none" stroke-width="0.5"/><path d="M238.40767,209.07908c0,-0.41421 0.33579,-0.75 0.75,-0.75c0.41421,0 0.75,0.33579 0.75,0.75c0,0.41421 -0.33579,0.75 -0.75,0.75c-0.41421,0 -0.75,-0.33579 -0.75,-0.75z" fill="#c9c9c9" stroke="none" stroke-width="0.5"/><path d="M242.85036,212.92941c0,-0.41421 0.33579,-0.75 0.75,-0.75c0.41421,0 0.75,0.33579 0.75,0.75c0,0.41421 -0.33579,0.75 -0.75,0.75c-0.41421,0 -0.75,-0.33579 -0.75,-0.75z" fill="#c9c9c9" stroke="none" stroke-width="0.5"/><path d="M279.92674,175.16388c0,12.41653 -5.85521,23.35399 -13.4889,30.36593c-6.38126,5.86151 -17.30912,12.05524 -24.84839,12.05524c-16.55823,0 -29.52431,-20.58256 -29.52431,-43.37847c0,-11.38212 3.44206,-23.1951 8.85433,-30.66206c5.42733,-7.48773 15.8069,-11.2991 24.09752,-11.2991c6.32285,0 13.72859,1.29134 19.45275,6.18804c9.26623,7.92676 15.457,22.63925 15.457,36.73042zM233.39446,153.25704c-1.20093,0.12635 -2.23472,3.39882 -2.84261,3.87684c-2.03091,1.20628 -2.24955,7.76342 -2.24955,10.29693c0,3.72137 6.82374,6.91865 6.92172,6.92171c7.63269,0.23788 15.27279,2.72769 22.90916,2.74202c1.66676,0.00313 5.28185,-3.21725 6.50812,-4.18405c0.99589,-0.78516 1.80957,-4.89599 1.86134,-5.828c0.03865,-0.69572 -1.3569,-5.94006 -1.86134,-6.285c-2.94088,-2.01099 -2.1684,-7.17524 -4.8053,-7.14347c-7.59411,0.0915 -13.36503,-2.06573 -20.95596,-1.82801c0,0 -5.18603,1.39144 -5.48558,1.43103z" fill="none" stroke="#000000" stroke-width="2.5"/></g></g></svg>