<svg version="1.1" xmlns="http://www.w3.org/2000/svg" xmlns:xlink="http://www.w3.org/1999/xlink" width="434.97917" height="40.11948" viewBox="0,0,434.97917,40.11948"><defs><radialGradient cx="501.84375" cy="180.85653" r="106.15625" gradientUnits="userSpaceOnUse" id="color-1"><stop offset="0" stop-color="#ff9292" stop-opacity="0.60484"/><stop offset="1" stop-color="#c50000" stop-opacity="0.46774"/></radialGradient></defs><g transform="translate(-250.02083,-159.30997)"><g data-paper-data="{&quot;isPaintingLayer&quot;:true}" fill-rule="nonzero" stroke-linecap="round" stroke-linejoin="miter" stroke-miterlimit="10" stroke-dasharray="" stroke-dashoffset="0" style="mix-blend-mode: normal"><path d="M270.6875,192.14249c0,0 -11.02103,-0.46405 -15.7799,-5.45189c-1.89516,-1.98634 -0.55343,-8.89715 -0.55343,-10.35727c0,-1.89405 2.28555,-7.77017 5.14672,-10.21132c4.78749,-4.08469 11.18662,-4.55145 11.18662,-4.55145c0,0 9.57857,0.11699 20.87759,0.255c48.73986,0.59533 388.47878,4.745 388.47878,4.745l3.95613,30.57193c0,0 -343.7272,-1.51418 -391.41321,-2.09476c-10.67415,-0.12996 -19.26187,-2.90524 -19.26187,-2.90524" fill="url(#color-1)" stroke="none" stroke-width="0"/><path d="M254.85054,169.57056l16.15108,-9.23166c0,0 13.45842,1.44873 18.59561,1.51087c50.89193,0.61566 390.23248,4.72079 390.23248,4.72079" fill="none" stroke="#b50000" stroke-width="2"/><path d="M251.02083,184.76278c0,0 26.08666,8.74433 34.24602,8.84304c42.67051,0.5162 398.73315,4.82363 398.73315,4.82363" fill="none" stroke="#b50000" stroke-width="2"/></g></g></svg>