<svg version="1.1" xmlns="http://www.w3.org/2000/svg" xmlns:xlink="http://www.w3.org/1999/xlink" width="113.7299" height="93.91896" viewBox="0,0,113.7299,93.91896"><g transform="translate(-73.94032,-155.0498)"><g data-paper-data="{&quot;isPaintingLayer&quot;:true}" fill-rule="nonzero" stroke="#000000" stroke-width="2" stroke-linejoin="miter" stroke-miterlimit="10" stroke-dasharray="" stroke-dashoffset="0" style="mix-blend-mode: normal"><path d="M137.06759,192.09146c11.95359,0 21.64387,4.12459 21.64387,9.21252c0,5.08793 -9.6903,9.21251 -21.64387,9.21251c-11.95359,0 -21.64386,-4.12458 -21.64386,-9.21251c0,-5.08793 9.69029,-9.21252 21.64386,-9.21252z" data-paper-data="{&quot;index&quot;:null}" fill="#9966ff" stroke-linecap="butt"/><path d="M149.27932,188.82957l14.86849,6.5533l-7.7696,4.21778l11.76538,8.43556l-17.09215,7.20022" data-paper-data="{&quot;index&quot;:null}" fill="#58ff00" stroke-linecap="round"/><path d="M122.88151,194.50181c2.52144,0 4.56547,1.70336 4.56547,3.80456c0,2.1012 -2.04403,3.80455 -4.56547,3.80455c-2.52144,0 -4.56547,-1.70335 -4.56547,-3.80455c0,-2.1012 2.04403,-3.80456 4.56547,-3.80456z" data-paper-data="{&quot;index&quot;:null}" fill="#58ff00" stroke-linecap="butt"/><path d="M119.14612,206.39969l3.73538,-2.3519l3.32034,0.13834l1.93687,-3.04364h2.6286l0.13835,-4.15043l5.2572,3.32034l-5.11885,8.1625l-0.2767,1.79852" data-paper-data="{&quot;index&quot;:null}" fill="#00e6ff" stroke-linecap="round"/><path d="M119.28447,199.06728l5.81059,-3.73539" data-paper-data="{&quot;index&quot;:null}" fill="none" stroke-linecap="round"/><path d="M127.03192,209.44333l-2.3519,-5.2572l7.05572,2.76695l-2.07521,-5.39555l4.42712,0.96843" data-paper-data="{&quot;index&quot;:null}" fill="none" stroke-linecap="round"/><path d="M181.39847,177.23791l-6.94846,7.39675l8.96575,5.60359l-2.24144,9.86232l4.93116,8.51746l-8.96574,1.79315l2.46558,10.08647l-10.53476,0.67243l-3.5863,11.87962l-8.29332,-5.37945l-10.08647,4.93116l-7.84503,-5.82773l-10.98304,16.36249l-7.62088,-12.32791l-13.00034,15.91421l-2.91387,-13.67276l-15.69005,8.29332l-0.22415,-11.43133l-11.20718,-1.12072l9.41404,-8.51746l-11.43133,-16.36249l13.22448,-3.13801l0.22415,-17.25906l25.79248,6.50017l3.36215,-26.00067l19.72465,8.06917l13.44862,-15.69006l19.94879,14.12105z" data-paper-data="{&quot;index&quot;:null}" fill="#9966ff" stroke-linecap="round"/></g></g></svg>