<svg version="1.1" xmlns="http://www.w3.org/2000/svg" xmlns:xlink="http://www.w3.org/1999/xlink" width="82.92759" height="94.23292" viewBox="0,0,82.92759,94.23292"><defs><radialGradient cx="234.30614" cy="204.29732" r="22.98176" gradientUnits="userSpaceOnUse" id="color-1"><stop offset="0" stop-color="#625f63"/><stop offset="1" stop-color="#322935"/></radialGradient><radialGradient cx="234.30614" cy="204.29732" r="22.98176" gradientUnits="userSpaceOnUse" id="color-2"><stop offset="0" stop-color="#625f63"/><stop offset="1" stop-color="#322935"/></radialGradient><linearGradient x1="241.74993" y1="185.63129" x2="241.13305" y2="188.15751" gradientUnits="userSpaceOnUse" id="color-3"><stop offset="0" stop-color="#f40857"/><stop offset="1" stop-color="#aa0808"/></linearGradient><linearGradient x1="251.67333" y1="135.79216" x2="238.57402" y2="183.39524" gradientUnits="userSpaceOnUse" id="color-4"><stop offset="0" stop-color="#7b7879"/><stop offset="1" stop-color="#151316"/></linearGradient><linearGradient x1="240.31373" y1="133.6058" x2="234.17161" y2="155.92639" gradientUnits="userSpaceOnUse" id="color-5"><stop offset="0" stop-color="#c2bfc0"/><stop offset="1" stop-color="#626060"/></linearGradient><linearGradient x1="232.8411" y1="168.99751" x2="231.32142" y2="174.52004" gradientUnits="userSpaceOnUse" id="color-6"><stop offset="0" stop-color="#f40857"/><stop offset="1" stop-color="#aa0808"/></linearGradient><linearGradient x1="257.54993" y1="175.14665" x2="256.03026" y2="180.66917" gradientUnits="userSpaceOnUse" id="color-7"><stop offset="0" stop-color="#f40857"/><stop offset="1" stop-color="#aa0808"/></linearGradient><linearGradient x1="255.52858" y1="181.55915" x2="263.82171" y2="179.1065" gradientUnits="userSpaceOnUse" id="color-8"><stop offset="0" stop-color="#a83336"/><stop offset="1" stop-color="#271216"/></linearGradient><linearGradient x1="231.87045" y1="177.0532" x2="225.99968" y2="170.70296" gradientUnits="userSpaceOnUse" id="color-9"><stop offset="0" stop-color="#a83336"/><stop offset="1" stop-color="#271216"/></linearGradient></defs><g transform="translate(-201.4052,-132.50322)"><g data-paper-data="{&quot;isPaintingLayer&quot;:true}" fill-rule="nonzero" stroke-linejoin="miter" stroke-miterlimit="10" stroke-dasharray="" stroke-dashoffset="0" style="mix-blend-mode: normal"><g stroke-width="0.5" stroke-linecap="butt"><path d="M216.85663,178.87642l44.65154,10.90345c0,0 -5.35376,10.08375 -6.90836,16.4501c-1.17348,4.80563 -0.46008,10.753 0.08176,13.92335c0.23648,1.38363 -0.44464,2.76408 -1.9027,3.4388c-2.85524,1.32125 -7.90839,3.21372 -12.8185,2.84795c-5.07356,-0.37795 -24.00751,-3.19167 -29.03864,-16.7716c-3.35093,-9.04475 5.93492,-30.79204 5.93492,-30.79204z" fill="url(#color-1)" stroke="#000000"/><path d="M217.06723,177.25102c0,0 37.88998,6.56071 42.98415,7.99687c1.12016,0.3158 1.4568,4.53198 1.4568,4.53198c0,0 -5.35376,10.08375 -6.90836,16.4501c-1.17348,4.80563 -0.46008,10.753 0.08176,13.92335c0.23648,1.38363 -0.44464,2.76408 -1.9027,3.4388c-2.85524,1.32125 -7.90839,3.21372 -12.8185,2.84795c-5.07356,-0.37795 -24.00751,-3.19167 -29.03864,-16.7716c-3.35093,-9.04475 5.93492,-30.79204 5.93492,-30.79204z" fill="url(#color-2)" stroke="#000000"/><path d="M230.35658,220.63414c-0.79088,-0.41625 -0.37463,-1.20714 -0.37463,-1.20714l0.11911,-0.21238c0.77412,-1.99896 2.2621,-3.75841 3.40977,-5.55723c0.42928,-0.67283 0.58671,-1.47594 0.86452,-2.22201l-0.01518,-0.00371l0.02981,-0.12207l0.11302,-0.80293l0.00194,0.00027l-0.00137,-0.00427c0.26217,-1.74682 0.3699,-3.48103 0.50039,-5.23967c0.15283,-2.41703 1.09833,-4.50697 1.98739,-6.72265c0.59432,-1.48112 1.01703,-3.01104 1.709,-4.45208c0.6348,-1.32198 1.51648,-2.49389 1.98714,-3.88806c0,0 0.28975,-0.84546 1.13521,-0.55572c0.84546,0.28975 0.55572,1.13521 0.55572,1.13521c-0.50596,1.45811 -1.39439,2.67678 -2.05692,4.06151c-0.67556,1.41196 -1.08803,2.90976 -1.66971,4.36092c-0.81378,2.03022 -1.74094,3.9612 -1.86438,6.18053c-0.1308,1.74917 -0.23965,3.47647 -0.49088,5.21339c0.03515,0.13745 0.038,0.28528 0.002,0.43273l-0.16153,0.6615l-0.04038,0.16538l-0.01573,-0.00384c-0.00792,0.01726 -0.01636,0.0342 -0.02528,0.05077c-0.21537,0.94367 -0.51825,1.88003 -1.02303,2.69247c-1.06079,1.70736 -2.55599,3.36284 -3.26109,5.25565l-0.2078,0.40875c0,0 -0.41625,0.79088 -1.20714,0.37463z" fill="#918890" stroke="none"/><path d="M244.47808,214.16941c0.09294,0.24432 0.19016,0.74327 -0.36782,1.08223c-0.76383,0.46401 -1.22786,-0.29983 -1.22786,-0.29983l-0.19237,-0.562c-0.00746,-1.65496 0.29917,-3.13774 0.69292,-4.73951c0.243,-1.74259 0.54015,-3.48606 0.6792,-5.24148c0.16781,-2.11848 -0.3505,-4.19985 0.03931,-6.30887c0.61887,-3.34826 1.6266,-6.66948 2.43513,-9.98053c0,0 0.21201,-0.86822 1.08023,-0.65621c0.86822,0.21201 0.65621,1.08023 0.65621,1.08023c-0.79942,3.27377 -1.79035,6.55557 -2.41085,9.8646c-0.37988,2.02581 0.14277,4.07472 -0.0165,6.11936c-0.14245,1.8286 -0.44974,3.64547 -0.70731,5.4599c-0.34459,1.4196 -0.6424,2.72996 -0.66029,4.18211z" fill="#918890" stroke="none"/><path d="M251.38958,199.87337c0.06068,0.14689 0.08134,0.33228 0.02459,0.56469c-0.21201,0.86822 -1.08023,0.65621 -1.08023,0.65621l-0.75849,-0.9911c0.15246,-1.26188 -0.30763,-2.45103 -0.2312,-3.6864c0.00623,-0.10082 0.3162,-1.35534 0.36716,-1.56402c0.35672,-1.46083 0.71344,-2.92164 1.07015,-4.38246c0,0 0.21201,-0.86822 1.08023,-0.65621c0.86822,0.21201 0.65621,1.08023 0.65621,1.08023c-0.28941,1.1852 -0.57883,2.37039 -0.86824,3.55559c-0.1539,0.63025 -0.47586,1.42368 -0.52127,2.07426c-0.02814,0.40304 0.14022,0.79621 0.18802,1.19739c0.08663,0.72681 0.12036,1.43261 0.07308,2.15182z" fill="#918890" stroke="none"/><path d="M225.9567,215.63485c-0.68175,-0.57791 -0.10384,-1.25966 -0.10384,-1.25966l-0.03801,0.13538c1.2129,-3.42296 2.04767,-6.969 2.91006,-10.50065c0.64661,-2.64799 1.08907,-5.3059 1.59958,-7.98255c0.64223,-3.36724 1.63741,-6.70876 2.45123,-10.04151c0,0 0.21201,-0.86822 1.08023,-0.65621c0.86822,0.21201 0.65621,1.08023 0.65621,1.08023c-0.80783,3.30819 -1.79983,6.62631 -2.43512,9.96899c-0.5134,2.70138 -0.96317,5.38286 -1.6157,8.05508c-0.87688,3.59099 -1.73668,7.18777 -2.96087,10.67132l-0.28414,0.42575c0,0 -0.57791,0.68175 -1.25966,0.10384z" fill="#918890" stroke="none"/><path d="M222.28049,216.58665c-0.86822,-0.21201 -0.65621,-1.08023 -0.65621,-1.08023l0.04038,-0.16538c0.49294,-2.01867 1.00274,-4.09184 1.65806,-6.06143c0.33356,-1.00254 0.71057,-1.93174 0.90247,-2.98182c0.32153,-1.75948 -0.02273,-3.5278 0.41854,-5.28692c0.02923,-1.81251 0.66501,-3.46821 1.01027,-5.22888c0.68172,-3.47642 1.42447,-6.91719 2.26719,-10.36825c0,0 0.21201,-0.86822 1.08023,-0.65621c0.86822,0.21201 0.65621,1.08023 0.65621,1.08023c-0.83401,3.41543 -1.56666,6.81996 -2.2442,10.25953c-0.34197,1.73601 -0.95262,3.36236 -0.99736,5.14558c-0.42593,1.78639 -0.10395,3.57806 -0.43146,5.37022c-0.20629,1.1289 -0.60084,2.14445 -0.96284,3.2217c-0.64615,1.92281 -1.13877,3.95677 -1.62067,5.93026l-0.04038,0.16538c0,0 -0.21201,0.86822 -1.08023,0.65621z" fill="#918890" stroke="none"/><path d="M211.5998,206.40445c-0.86822,-0.21201 -0.65621,-1.08023 -0.65621,-1.08023l0.08077,-0.33075c0.48978,-1.96814 0.21084,-4.01963 0.50736,-6.00637c0.00884,-0.05921 0.41394,-1.71346 0.46089,-1.90571c0.65985,-2.70221 1.69638,-5.2107 2.53315,-7.85374c1.11636,-3.52618 1.77138,-7.2624 2.64933,-10.85779c0,0 0.21201,-0.86822 1.08023,-0.65621c0.86822,0.21201 0.65621,1.08023 0.65621,1.08023c-0.88755,3.63467 -1.55627,7.40562 -2.68124,10.97186c-0.82219,2.60641 -1.85096,5.07657 -2.50126,7.73967c-0.31102,1.27368 -0.39984,2.5696 -0.48232,3.8657c0.12984,-0.39346 0.27618,-0.78172 0.45256,-1.16032c0.51451,-1.10448 1.23401,-2.12529 1.85706,-3.16943c0.33871,-0.49535 0.5854,-1.04876 0.91255,-1.5518c0.26052,-0.40056 0.65622,-0.71568 0.85639,-1.14958c0.52921,-1.1472 0.69115,-2.55138 0.99008,-3.77556c0.51152,-2.09477 1.02304,-4.18953 1.53456,-6.28429c0,0 0.21201,-0.86822 1.08023,-0.65621c0.86822,0.21201 0.65621,1.08023 0.65621,1.08023c-0.5721,2.34283 -1.14419,4.68565 -1.71628,7.02848c-0.27113,1.11033 -0.44239,2.33845 -0.93196,3.37791c-0.24094,0.51156 -0.67992,0.90482 -0.98775,1.37914c-0.31837,0.49054 -0.55867,1.02976 -0.88736,1.51343c-0.58201,0.97536 -1.2602,1.93061 -1.74278,2.96102c-0.50438,1.07695 -0.73132,2.2453 -1.0702,3.37333c-0.3652,1.21564 -0.8438,2.38 -1.14504,3.6174l-0.12115,0.49613c0,0 -0.21201,0.86822 -1.08023,0.65621c-0.86822,-0.21201 -0.65621,-1.08023 -0.65621,-1.08023l0.12115,-0.49613c0.09182,-0.37498 0.19889,-0.7436 0.31388,-1.10906c-0.02686,-0.00467 -0.0544,-0.01043 -0.08264,-0.01733z" fill="#918890" stroke="none"/><path d="M213.79999,207.4373c-0.38192,0.232 -0.61392,-0.14991 -0.61392,-0.14991l-0.10736,-0.20244c-0.29362,-0.94613 -0.65419,-2.11241 -0.61347,-3.1082c0.02527,-0.61795 0.44176,-1.10098 0.58116,-1.69253c0.35971,-1.45786 0.85653,-2.86202 1.39327,-4.26127c0.30948,-0.80678 0.35689,-1.72366 0.62081,-2.54784c0.55072,-1.71984 1.10393,-3.448 1.5329,-5.20469c0.41887,-1.71535 0.7936,-3.39828 1.08008,-5.136c0.1717,-1.04149 0.72773,-2.12248 0.78168,-3.17187c0.03071,-0.59725 0.08287,-1.09099 0.23048,-1.69546c0,0 0.10601,-0.43411 0.54012,-0.32811c0.43411,0.10601 0.32811,0.54012 0.32811,0.54012c-0.13937,0.57074 -0.16896,0.97132 -0.20605,1.52745c-0.07334,1.1 -0.61539,2.18951 -0.79326,3.27779c-0.28752,1.75927 -0.66907,3.46232 -1.09292,5.19808c-0.43323,1.77414 -0.98834,3.52242 -1.54775,5.25823c-0.26935,0.83579 -0.32043,1.75773 -0.63107,2.57882c-0.51978,1.37393 -1.02268,2.74505 -1.36815,4.17675c-0.12225,0.48675 -0.55248,1.0448 -0.55725,1.53422c-0.00884,0.90539 0.30762,1.92833 0.57491,2.7896l0.01763,0.00332c0,0 0.232,0.38192 -0.14991,0.61392z" fill="#d6d3d6" stroke="none"/><path d="M214.2535,211.61496l-0.83792,-0.05261c0.01308,-0.17514 0.02616,-0.35026 0.03923,-0.5254c0.09205,-0.79639 0.157,-1.60313 0.40077,-2.37214c0.50003,-1.57742 1.49699,-3.03967 2.08825,-4.59474c0.84542,-2.22353 1.52242,-4.46441 2.33397,-6.69249c0.42156,-1.15427 0.73397,-2.41722 1.30567,-3.50886c0.56964,-1.0877 1.16856,-2.26737 1.53103,-3.44936c0.4303,-1.40321 0.70236,-2.88178 1.05071,-4.30834c0,0 0.10601,-0.43411 0.54012,-0.32811c0.43411,0.10601 0.32811,0.54012 0.32811,0.54012c-0.35369,1.44842 -0.63057,2.94974 -1.0694,4.37392c-0.37797,1.22663 -0.99273,2.45994 -1.58904,3.58681c-0.55625,1.05118 -0.85083,2.28634 -1.25768,3.4004c-0.81747,2.232 -1.49094,4.48225 -2.34084,6.71067c-0.58661,1.53805 -1.58184,2.99236 -2.07311,4.55286c-0.22133,0.70304 -0.27459,1.44611 -0.35882,2.17379c-0.00761,0.10251 -0.01524,0.20503 -0.02286,0.30755c0.0147,0.10436 -0.00616,0.18982 -0.00616,0.18982l-0.00791,-0.0005c-0.00026,0.00346 -0.00052,0.00692 -0.00077,0.01037z" fill="#d6d3d6" stroke="none"/><path d="M222.50495,216.7619c-0.3637,-0.25965 -0.10404,-0.62334 -0.10404,-0.62334l0.2238,-0.2996c0.46256,-2.06284 1.07855,-4.0873 1.57779,-6.13174c0.26139,-0.65178 0.57643,-1.46465 0.69806,-2.14428c0.15048,-0.84083 -0.19533,-1.7455 -0.05914,-2.62341c0.12312,-0.79367 0.44406,-1.64349 0.43488,-2.44942c-0.00832,-0.73035 -0.15874,-1.41261 -0.17666,-2.13292c-0.02164,-0.86982 0.31432,-1.78063 0.6179,-2.58036c0.7056,-1.62796 1.10036,-3.30489 1.41118,-5.07641c0.43019,-2.45183 1.19291,-4.8899 1.78328,-7.30759c0,0 0.10601,-0.43411 0.54012,-0.32811c0.43411,0.10601 0.32811,0.54012 0.32811,0.54012c-0.58511,2.39613 -1.34785,4.81498 -1.77043,7.24551c-0.3193,1.83649 -0.74864,3.56662 -1.4637,5.26152c-0.25763,0.67412 -0.57478,1.48026 -0.55321,2.21555c0.02131,0.72685 0.17696,1.41984 0.17715,2.15917c0.00022,0.86122 -0.31012,1.74653 -0.44586,2.59263c-0.1445,0.90073 0.19649,1.77711 0.05238,2.66094c-0.11489,0.70458 -0.45425,1.56988 -0.72305,2.24011c-0.50661,2.07464 -1.0796,4.15549 -1.61633,6.23108l-0.30887,0.44652c0,0 -0.25965,0.3637 -0.62334,0.10404z" fill="#d6d3d6" stroke="none"/><path d="M234.29918,185.21063c0.44687,-0.00244 0.44931,0.44442 0.44931,0.44442l0.00042,0.31668c0.08958,1.1387 0.05166,2.61961 -0.35552,3.69634c-0.44504,1.17682 -0.93549,2.17004 -1.09855,3.42858c-0.40475,1.66677 -0.31399,3.318 -0.61042,5.00793c-0.17441,0.99426 -0.42577,2.20989 -0.77324,3.15481c-0.15512,0.42182 -0.42429,0.79824 -0.55875,1.22709c-0.27737,0.88465 -0.35682,1.82294 -0.57711,2.72505c-0.36974,1.51417 -0.64618,3.0897 -1.11796,4.57462c-0.19658,0.61873 -0.57949,1.1364 -0.77776,1.74705c-0.19213,0.59169 -0.24689,1.22883 -0.44421,1.81913c-0.28745,0.85992 -0.85214,1.55455 -1.19767,2.37379c0,0 -0.17593,0.41078 -0.58671,0.23485c-0.41078,-0.17593 -0.23485,-0.58671 -0.23485,-0.58671c0.3448,-0.795 0.89254,-1.47066 1.17146,-2.30482c0.1972,-0.58973 0.24952,-1.22812 0.44421,-1.81913c0.19968,-0.60614 0.57989,-1.11745 0.77217,-1.7297c0.46153,-1.46959 0.73755,-3.02404 1.10311,-4.52107c0.22415,-0.91794 0.30385,-1.87281 0.59017,-2.77275c0.1438,-0.45199 0.41894,-0.85294 0.5835,-1.29778c0.32717,-0.88443 0.55905,-2.03327 0.72093,-2.9641c0.29501,-1.69638 0.20297,-3.35664 0.61455,-5.03193c0.16881,-1.30295 0.66813,-2.34723 1.13405,-3.56144c0.36588,-0.95348 0.3954,-2.31945 0.30792,-3.32638l-0.00343,-0.38521c0,0 -0.00244,-0.44687 0.44442,-0.44931z" fill="#d6d3d6" stroke="none"/><path d="M231.113,219.98872c-0.19874,-0.32716 0.05302,-0.54432 0.1293,-0.59986c0.41063,-0.96385 0.80794,-1.9368 1.47355,-2.76365c0.42895,-0.53284 1.20715,-0.80847 1.46596,-1.46887c0.38683,-0.98705 0.42545,-2.13508 0.67691,-3.16485c0.45485,-1.86269 0.71498,-3.70059 1.01482,-5.5847c0.37141,-2.33387 1.04257,-4.65608 1.61071,-6.95491c0.3571,-0.83379 0.56845,-1.7215 0.98041,-2.53999c1.08534,-2.15635 2.7007,-4.26046 3.27361,-6.63466c0,0 0.10601,-0.43411 0.54012,-0.32811c0.43411,0.10601 0.32811,0.54012 0.32811,0.54012c-0.60352,2.44595 -2.22237,4.59694 -3.34149,6.8204c-0.39336,0.78152 -0.59198,1.62897 -0.93298,2.42513c-0.54292,2.25474 -1.21887,4.52488 -1.57573,6.81168c-0.2978,1.90841 -0.56882,3.77114 -1.02934,5.65703c-0.26498,1.08514 -0.30949,2.28792 -0.73266,3.3252c-0.31983,0.78397 -1.08632,1.02386 -1.57236,1.64442c-0.64055,0.81785 -1.00936,1.75359 -1.41335,2.69701l-0.28165,0.26849c0,0 -0.38192,0.232 -0.61392,-0.14991z" fill="#d6d3d6" stroke="none"/><path d="M244.15943,214.89788c-0.43411,-0.10601 -0.32811,-0.54012 -0.32811,-0.54012l0.04996,-0.18561c0.06173,-0.63036 0.11991,-1.22281 0.26927,-1.83929c0.99894,-4.09082 0.59874,-8.37296 1.13913,-12.54385c0.38363,-3.91958 1.30236,-7.8601 2.23771,-11.69049c0,0 0.10601,-0.43411 0.54012,-0.32811c0.43411,0.10601 0.32811,0.54012 0.32811,0.54012c-0.92656,3.79441 -1.83763,7.69725 -2.21791,11.57946c-0.54551,4.21034 -0.14993,8.52292 -1.15891,12.65487c-0.14152,0.57457 -0.19041,1.12597 -0.24801,1.71437l-0.07119,0.31052c0,0 -0.10601,0.43411 -0.54012,0.32811z" fill="#d6d3d6" stroke="none"/><path d="M251.6564,199.92982c0.08808,0.08208 0.15823,0.21384 0.10824,0.41857c-0.10601,0.43411 -0.54012,0.32811 -0.54012,0.32811l-0.41912,-0.39151c-0.15286,-1.0837 -0.36992,-2.13478 -0.2886,-3.23428c0.16693,-2.2574 0.81996,-4.45866 1.35844,-6.66384c0,0 0.10601,-0.43411 0.54012,-0.32811c0.43411,0.10601 0.32811,0.54012 0.32811,0.54012c-0.5271,2.15859 -1.16986,4.31346 -1.3357,6.52202c-0.0716,0.95355 0.10652,1.87148 0.24863,2.8089z" fill="#d6d3d6" stroke="none"/><path d="M245.19878,188.57634c-0.60616,0.20026 -0.80642,-0.40589 -0.80642,-0.40589l-0.2013,-0.64827c-0.7728,-0.86905 -1.38674,-0.97235 -2.50274,-1.10961c-0.45108,-0.05548 -0.89799,-0.18289 -1.35235,-0.17334c-1.46949,0.03087 -3.01189,0.99577 -4.14691,1.84045c0,0 -0.51335,0.37947 -0.89283,-0.13388c-0.37947,-0.51335 0.13388,-0.89283 0.13388,-0.89283c1.02362,-0.75231 2.20246,-1.45942 3.41611,-1.84636c2.21184,-0.70518 4.98656,-0.05141 6.45596,1.68664l0.30251,0.87665c0,0 0.20026,0.60616 -0.40589,0.80642z" fill="#342b37" stroke="none"/><path d="M242.84855,187.56518c-1.12884,-0.4664 -2.43267,-0.41779 -3.63281,-0.24211c-0.15128,0.18008 -0.39672,0.2694 -0.64066,0.20983c-0.34251,-0.08364 -0.55236,-0.42909 -0.46872,-0.77159c0.00538,-0.02201 0.01183,-0.04347 0.0193,-0.06434c0.01326,-0.49199 0.53615,-0.57927 0.53615,-0.57927c0.63676,-0.10628 1.27065,-0.17194 1.89672,-0.17514c0.12179,-0.15133 0.30886,-0.24167 0.50756,-0.23842l0.68853,-0.00378l0.0001,0.01788l0.03838,-0.01694c0.54526,0.06944 1.90641,0.25029 2.11518,0.99591c0.02219,0.0115 0.04436,0.02316 0.0665,0.03497l0.03969,0.14768l0.05786,-0.04277l0.39227,0.53066c0.11069,0.14754 0.15687,0.34165 0.1097,0.53483c-0.08364,0.34251 -0.42909,0.55236 -0.77159,0.46872c-0.11588,-0.0283 -0.21659,-0.08657 -0.29588,-0.16457l-0.48991,-0.46438l0.01141,-0.01204c-0.01688,-0.00921 -0.03366,-0.01863 -0.05035,-0.02825c-0.05583,-0.03226 -0.09576,-0.08117 -0.12943,-0.13692z" fill="url(#color-3)" stroke="none"/></g><g><g stroke-linecap="butt"><path d="M219.11058,176.48785c-0.2298,0.38805 -0.7065,0.25688 -0.7065,0.25688c-1.21583,-0.33457 -2.60191,-0.5568 -3.76695,-1.04154c-0.90549,-0.37674 -1.60174,-1.11387 -2.50497,-1.48384c-1.20237,-0.4925 -2.41652,-0.90072 -3.42284,-1.79879c-0.64912,-0.57929 -1.45739,-1.24533 -1.97571,-1.95063c-0.28513,-0.388 -0.43072,-0.86632 -0.7138,-1.2558c-0.34855,-0.47953 -0.77902,-0.89381 -1.16735,-1.34174c-0.71873,-0.83433 -1.20443,-1.72848 -1.74646,-2.68207c-0.08004,-0.14082 -0.74749,-1.30547 -0.77144,-1.39176c-0.23875,-0.85992 -0.03904,-1.92204 -0.08596,-2.81082c-0.06056,-1.14694 -0.01952,-2.35345 0.14617,-3.49144c0.33181,-2.27882 1.44743,-4.43351 1.83347,-6.7017c0.12284,-0.72177 0.1426,-1.46423 0.33403,-2.17092c0.19643,-0.35154 0.79036,-1.49153 1.12307,-1.81413c0.19291,-0.18706 0.47652,-0.25237 0.69382,-0.41045c0.74144,-0.53934 1.34368,-1.27116 2.08696,-1.80932c0.70471,-0.51021 1.46722,-0.71585 2.23928,-1.06513c0.94412,-0.42714 1.79967,-0.95815 2.75781,-1.35987c0.48352,-0.20273 0.81178,-0.67206 1.26733,-0.93163c0.25546,-0.14555 0.59748,-0.10257 0.84022,-0.26848c0.59926,-0.40954 0.90647,-1.14159 1.4416,-1.63197c0.99064,-0.90777 2.22255,-1.49315 3.38255,-2.14644c0.35143,-0.11308 0.68719,-0.30005 1.05428,-0.33925c0.42424,-0.04529 0.85181,0.12835 1.27676,0.09035c0.30046,-0.02686 0.56379,-0.2248 0.86008,-0.28143c0.50745,-0.09696 1.05154,0.07146 1.54827,-0.0706c0.20468,-0.05854 0.35275,-0.24327 0.54818,-0.32766c0.84372,-0.36432 1.81438,-0.6315 2.69553,-0.89477c0.72702,-0.21723 1.50014,-0.24495 2.23328,-0.44053c0.79027,-0.21083 1.33481,-0.84875 2.20498,-1.0219c0.70641,-0.14056 1.44121,0.07654 2.16043,0.03787c0.38823,-0.02087 0.75726,-0.19914 1.14554,-0.21962c1.41909,-0.07484 2.59619,0.06403 4.01482,-0.21354c0.09685,0.00196 2.16099,0.04071 2.2527,0.05404c0.66586,0.09676 1.27754,0.45637 1.9453,0.5389c0.26713,0.03301 0.53945,-0.07783 0.80636,-0.04296c0.90561,0.11834 1.92612,0.52148 2.80899,0.76443c0.81487,0.22423 1.76043,0.38012 2.53595,0.70281c0.90704,0.37739 1.60683,1.09694 2.50497,1.48384c2.15686,0.92914 4.39252,2.0666 6.36741,3.37625c0.75816,0.58406 1.54211,1.02614 2.40098,1.4238c0.51424,0.23809 1.09216,0.37657 1.5357,0.72929c1.04442,0.83055 1.69651,1.98027 2.68917,2.87568c0.99804,0.90025 2.35986,1.36154 3.35427,2.24724c2.01988,1.79905 3.89465,3.82665 5.66208,5.87834c0.44411,0.77416 0.92549,1.48594 1.10909,2.38024c0.04998,0.24347 -0.03888,0.50581 0.02825,0.74512c0.06502,0.2318 0.29225,0.396 0.35691,0.62791c0.07228,0.25928 -0.02754,0.54658 0.04296,0.80636c0.21666,0.79844 0.82976,1.58864 1.15217,2.36414c0.09944,0.23918 0.06056,0.53833 0.21398,0.747c0.14754,0.20066 0.45874,0.22071 0.63031,0.40125c0.18512,0.19477 0.25208,0.47673 0.41045,0.69382c0.5514,0.75593 1.64974,1.88616 1.78608,2.86891c0.03959,0.28535 -0.2005,0.55301 -0.19876,0.8411c0.00747,1.2373 0.75377,2.27861 0.81734,3.47192c0.48615,0.79916 0.95033,1.56234 1.1926,2.48774c0.06443,0.2461 -0.04855,0.52112 0.03177,0.76247c0.10936,0.32861 0.40156,0.57383 0.52109,0.89888c0.13138,0.35727 0.10185,0.75891 0.22141,1.1203c0.08027,0.24264 0.30444,0.42418 0.37117,0.67088c0.31579,1.16741 -0.00473,2.32466 -0.3177,3.4388c-0.12599,0.44849 -0.17602,0.92645 -0.38189,1.34435c-0.33035,0.67064 -0.91714,1.18431 -1.31043,1.82008c-0.19908,0.32183 -0.32656,0.69093 -0.56537,0.98453c-0.63729,0.78351 -0.96862,0.72031 -1.77786,1.26579c-1.22098,0.82304 -2.53428,1.7311 -3.64211,2.69155c-0.69364,0.3979 -1.33001,0.96999 -2.0046,1.3507c-0.84002,0.47407 -2.16579,0.92058 -3.11508,1.1145c-0.67417,0.13771 -1.35738,0.29255 -2.04535,0.2789c-0.8693,-0.01724 -1.70321,-0.38461 -2.57084,-0.44111c-1.67706,-0.1092 -3.43041,0.37686 -5.1298,0.19634c-0.6264,-0.06653 -1.21685,-0.3263 -1.82419,-0.49343c-1.23101,-0.33875 -2.46201,-0.6775 -3.69302,-1.01623c-1.26903,-0.34921 -2.53638,-0.74732 -3.7235,-1.29836c-0.93574,-0.43434 -1.71588,-0.96994 -2.73411,-1.27333c-1.29934,-0.38715 -2.61859,-0.72042 -3.92581,-1.08014c-0.70574,-0.19421 -1.38704,-0.51426 -2.11504,-0.59056c-0.41494,-0.04349 -0.83351,0.09963 -1.24968,0.07013c-0.94445,-0.06691 -2.3363,-0.40997 -3.23185,-0.76835c-1.53421,-0.61393 -2.93277,-1.77315 -4.34643,-2.63452c-0.60929,-0.30497 -1.18535,-0.68694 -1.82633,-0.91795c-0.79768,-0.28749 -1.65639,-0.38303 -2.4528,-0.67404c-0.83673,-0.30575 -2.14026,-1.17646 -3.08045,-1.16066c-0.21625,0.00363 -0.33886,0.30083 -0.55109,0.3425c-0.37738,0.07409 -0.77082,-0.04374 -1.15374,-0.00782c-1.00952,0.0947 -1.06443,0.36097 -2.04994,0.26301c-1.47091,-0.1462 -2.51301,-1.15354 -3.75816,-1.74173z" fill="url(#color-4)" stroke="#4f4548" stroke-width="2"/><path d="M242.89143,148.9239c-1.32829,4.82705 -6.86934,7.51169 -12.37625,5.99631c-5.50691,-1.51538 -8.89436,-6.65694 -7.56606,-11.484c1.32829,-4.82705 6.86934,-7.51169 12.37625,-5.99631c0.3838,0.10561 2.94534,-2.79728 6.91441,-2.80216c4.33069,-0.00532 10.09548,2.88933 10.46308,3.07857c4.12948,2.12595 -8.67672,7.08403 -9.81143,11.20759z" fill="url(#color-5)" stroke="none" stroke-width="0"/></g><path d="M240.00099,171.21781c-0.5048,0.39079 -0.89558,-0.11401 -0.89558,-0.11401l-0.33518,-0.44199c-0.76587,-0.58107 -1.55894,-1.42862 -2.04306,-2.26766c-0.46291,-0.80229 -0.76768,-1.4446 -1.5417,-2.02935c-0.952,-1.21863 -2.1932,-2.4343 -3.37617,-3.41826c-0.53859,-0.44799 -1.29774,-1.26867 -1.94704,-1.53709c-0.40281,-0.16653 -0.84934,0.2041 -1.28175,0.25905c-1.07815,0.13701 -2.16657,0.488 -3.24345,0.57868c-0.35177,0.02962 -0.72494,0.00474 -1.04915,0.14441c0,0 -0.59403,0.23381 -0.82783,-0.36023c-0.23381,-0.59403 0.36023,-0.82783 0.36023,-0.82783c0.45514,-0.16855 0.95372,-0.19372 1.43766,-0.23066c1.04357,-0.07967 2.11711,-0.43853 3.16442,-0.5713c0.36797,-0.04665 1.40416,-0.34605 1.76522,-0.22673c0.81241,0.2685 1.7749,1.2356 2.435,1.7875c1.20595,1.0083 2.50214,2.24398 3.46126,3.49528c1.53066,1.1661 2.02635,3.11464 3.58476,4.297l0.44638,0.56761c0,0 0.39079,0.5048 -0.11401,0.89558z" fill="#342b37" stroke="none" stroke-width="0.5" stroke-linecap="butt"/><path d="M266.78379,173.62735c0.03677,0.03458 0.45382,0.44489 0.04548,0.89917c-0.42675,0.47477 -0.90153,0.04802 -0.90153,0.04802l-0.42233,-0.711c0.11542,-1.12606 -0.56285,-1.68291 -1.28,-2.43487c-0.53855,-0.56468 -1.059,-1.18324 -1.8292,-1.46705c-1.2832,-0.47283 -2.6879,-0.32817 -3.98491,-0.70804c-0.72124,0.09415 -1.57414,0.21382 -2.29596,0.16274c-0.18541,-0.01313 -0.3458,-0.17325 -0.53163,-0.16832c-0.65118,0.01725 -1.55435,0.65978 -2.18348,0.89456c-1.25968,0.47006 -2.05024,1.36386 -3.10974,2.18407c-1.19013,0.92135 -1.93038,1.41412 -2.03621,3.01878c0,0 -0.04538,0.63676 -0.68214,0.59139c-0.63676,-0.04538 -0.59139,-0.68214 -0.59139,-0.68214c0.08184,-1.08213 0.35771,-2.1134 1.14075,-2.9212c0.27318,-0.28182 1.12686,-0.81472 1.3853,-1.01478c1.17134,-0.90673 2.03934,-1.83745 3.44029,-2.36978c0.78287,-0.29747 1.72698,-0.9169 2.56873,-0.97588c0.23936,-0.01678 0.46005,0.15325 0.69939,0.17042c0.72089,0.05172 1.57113,-0.09132 2.29596,-0.16274c1.42342,0.37151 2.95058,0.26141 4.34298,0.78907c0.95747,0.36285 1.62773,1.07834 2.30664,1.7898c0.92566,0.97005 1.59199,1.7444 1.62306,3.06775z" fill="#342b37" stroke="none" stroke-width="0.5" stroke-linecap="butt"/><path d="M227.17519,167.64365c2.44238,-0.40387 6.63539,4.25436 6.63539,4.25436l3.4532,2.97119c0,0 -2.68419,0.89553 -4.05391,0.10274c-1.36971,-0.79279 -5.54132,-5.65643 -5.54132,-5.65643l-0.39126,-1.27298" fill="url(#color-6)" stroke="#ca1414" stroke-width="1.5" stroke-linecap="round"/><path d="M262.81901,177.17263l-0.98745,0.89358c0,0 -6.07261,2.04466 -7.65509,2.02507c-1.58247,-0.01958 -3.43061,-2.16231 -3.43061,-2.16231l4.48715,-0.78617c0,0 5.98591,-1.85722 7.87782,-0.26065" data-paper-data="{&quot;index&quot;:null}" fill="url(#color-7)" stroke="#ca1414" stroke-width="1.5" stroke-linecap="round"/><path d="M256.20094,182.10244c-0.13435,-0.10856 0.44959,-0.28126 0.44959,-0.28126l0.34327,-0.09091c0.89958,-0.17064 1.20227,-0.39713 1.83534,-0.68464c1.25327,-0.56918 1.8469,-1.10733 2.47847,-1.63546c0.27069,-0.22637 0.50273,-0.39685 0.61212,-0.59631c0,0 0.09213,-0.16492 0.68422,-0.28495c0.59207,-0.12003 0.49995,0.0449 0.49995,0.0449c-0.12623,0.22248 -0.38478,0.42659 -0.684,0.67674c-0.70915,0.59285 -1.39616,1.18474 -2.80923,1.82645c-0.59882,0.27194 -1.11422,0.57246 -1.99091,0.81283c-0.26951,0.0739 -0.54014,0.11354 -0.81022,0.17032l0.10969,-0.02184c0,0 -0.58395,0.1727 -0.71829,0.06415z" fill="url(#color-8)" stroke="none" stroke-width="0.5" stroke-linecap="butt"/><path d="M230.43043,176.75342l0.08308,0.07489c-0.20301,-0.18695 -0.41525,-0.35949 -0.60901,-0.56086c-0.63027,-0.65505 -0.91937,-1.17696 -1.29476,-1.71697c-0.88582,-1.27432 -1.1733,-2.13435 -1.47929,-3.00656c-0.12912,-0.36801 -0.24684,-0.67567 -0.24147,-0.93142c0,0 0.00522,-0.18885 0.45253,0.2172c0.4473,0.40605 0.4421,0.5949 0.4421,0.5949c-0.00807,0.22734 0.10408,0.49255 0.22086,0.82554c0.27245,0.77691 0.50717,1.54302 1.29281,2.67323c0.39685,0.57091 0.54106,0.92039 1.22668,1.52725l0.24843,0.25374c0,0 0.41338,0.44714 0.24242,0.47168c-0.17098,0.02454 -0.58435,-0.4226 -0.58435,-0.4226z" data-paper-data="{&quot;index&quot;:null}" fill="url(#color-9)" stroke="none" stroke-width="0.5" stroke-linecap="butt"/></g></g></g></svg>