<svg version="1.1" xmlns="http://www.w3.org/2000/svg" xmlns:xlink="http://www.w3.org/1999/xlink" width="20.10718" height="23.42606" viewBox="0,0,20.10718,23.42606"><g transform="translate(-229.77923,-167.98106)"><g data-paper-data="{&quot;isPaintingLayer&quot;:true}" fill-rule="nonzero" stroke-linejoin="miter" stroke-miterlimit="10" stroke-dasharray="" stroke-dashoffset="0" style="mix-blend-mode: normal"><path d="M243.94467,173.22399l5.08568,3.74298l-1.95206,2.19889l2.36004,2.63996l-2.16903,0.65329l0.87026,3.71464l-2.53224,-0.27755l0.31128,4.42611l-4.18945,-1.77598l-2.91513,2.42451l-1.49995,-5.16354l-3.4953,-0.05192l1.00632,-3.13837l-4.56758,-4.00948l3.06763,-1.15405l-0.80579,-3.43949l1.84433,0.4387l-0.27905,-4.28854l4.95047,1.30743l0.04326,-2.91273z" fill="#fff900" stroke="#000000" stroke-width="0.5" stroke-linecap="round"/><path d="M241.24309,184.6133c-2.48698,0.58264 -4.98816,-1.01563 -5.58655,-3.56981c-0.59839,-2.55419 0.93262,-5.0971 3.41959,-5.67975c2.48698,-0.58264 4.98816,1.01563 5.58655,3.56981c0.59839,2.55419 -0.93262,5.0971 -3.41959,5.67975z" fill="#ff9800" stroke="none" stroke-width="0" stroke-linecap="butt"/></g></g></svg>