<svg version="1.1" xmlns="http://www.w3.org/2000/svg" xmlns:xlink="http://www.w3.org/1999/xlink" width="134.10315" height="212.07111" viewBox="0,0,134.10315,212.07111"><defs><radialGradient cx="260.36013" cy="185.62613" r="39.00129" gradientUnits="userSpaceOnUse" id="color-1"><stop offset="0" stop-color="#4000bf"/><stop offset="1" stop-color="#38a000"/></radialGradient><linearGradient x1="260.36012" y1="152.29279" x2="260.36012" y2="218.95946" gradientUnits="userSpaceOnUse" id="color-2"><stop offset="0" stop-color="#797979"/><stop offset="1" stop-color="#bfbfbf"/></linearGradient><radialGradient cx="256.06694" cy="141.32784" r="16.33333" gradientUnits="userSpaceOnUse" id="color-3"><stop offset="0" stop-color="#b5b5b5"/><stop offset="1" stop-color="#c9c9c9"/></radialGradient><radialGradient cx="241.01332" cy="127.91966" r="9.88289" gradientUnits="userSpaceOnUse" id="color-4"><stop offset="0" stop-color="#bc1818"/><stop offset="1" stop-color="#9b18bc"/></radialGradient><radialGradient cx="237.81102" cy="118.89359" r="7.46965" gradientUnits="userSpaceOnUse" id="color-5"><stop offset="0" stop-color="#bc1818"/><stop offset="1" stop-color="#9b18bc"/></radialGradient><radialGradient cx="204.7889" cy="117.96927" r="10.47714" gradientUnits="userSpaceOnUse" id="color-6"><stop offset="0" stop-color="#569ffe"/><stop offset="1" stop-color="#bfebf3"/></radialGradient><linearGradient x1="207.46702" y1="105.68672" x2="234.95309" y2="127.48358" gradientUnits="userSpaceOnUse" id="color-7"><stop offset="0" stop-color="#070707"/><stop offset="1" stop-color="#ff0000"/></linearGradient><linearGradient x1="207.55487" y1="106.44781" x2="235.04096" y2="128.24468" gradientUnits="userSpaceOnUse" id="color-8"><stop offset="0" stop-color="#070707"/><stop offset="1" stop-color="#ff0000"/></linearGradient><linearGradient x1="207.88216" y1="105.94262" x2="235.36825" y2="127.73949" gradientUnits="userSpaceOnUse" id="color-9"><stop offset="0" stop-color="#070707"/><stop offset="1" stop-color="#ff0000"/></linearGradient><linearGradient x1="207.63532" y1="105.47448" x2="235.12141" y2="127.27135" gradientUnits="userSpaceOnUse" id="color-10"><stop offset="0" stop-color="#ff0000" stop-opacity="0"/><stop offset="1" stop-color="#ff0000"/></linearGradient><linearGradient x1="207.18326" y1="105.73408" x2="234.66934" y2="127.53096" gradientUnits="userSpaceOnUse" id="color-11"><stop offset="0" stop-color="#ff0000" stop-opacity="0"/><stop offset="1" stop-color="#ff0000"/></linearGradient><linearGradient x1="207.28939" y1="105.81824" x2="234.77548" y2="127.61511" gradientUnits="userSpaceOnUse" id="color-12"><stop offset="0" stop-color="#ff0000" stop-opacity="0"/><stop offset="1" stop-color="#ff0000"/></linearGradient></defs><g transform="translate(-169.65851,-59.97273)"><g data-paper-data="{&quot;isPaintingLayer&quot;:true}" fill-rule="nonzero" stroke-linejoin="miter" stroke-miterlimit="10" stroke-dasharray="" stroke-dashoffset="0" style="mix-blend-mode: normal"><g data-paper-data="{&quot;index&quot;:null}"><path d="M292.73507,214.26805c0,0 0.43453,2.60925 0.89781,6.40725c0.45731,3.74901 -0.56151,8.88012 -0.43845,13.57945c0.11006,4.20318 0.22161,8.83029 0.33452,11.14474c0.21116,4.32858 1.21258,9.9976 1.21258,9.9976l-16.23061,2.62292c0,0 0.48578,-2.31806 -0.7033,-5.01398c-1.90087,-4.30969 -5.86187,-10.30314 -6.19465,-14.74959c-0.10981,-1.4673 -0.03104,-3.26004 0.15911,-5.22139c0.31483,-3.24754 0.93499,-6.95729 1.50993,-10.41713c0.83103,-5.00094 1.90734,-8.98011 1.90734,-8.98011" fill="#7f7f7f" stroke="#e3efff" stroke-width="1.5" stroke-linecap="round"/><g stroke="#0f0f0f" stroke-linecap="butt"><path d="M259.9457,270.53147c0,0 -3.5771,-4.09615 -4.45487,-6.1434c-0.93025,-2.16968 5.68887,-9.47377 5.68887,-9.47377l25.49803,-0.78682l1.09578,11.44768z" data-paper-data="{&quot;index&quot;:null}" fill="#000b20" stroke-width="0"/><path d="M261.69325,268.7823c-0.40679,-2.85495 -0.98978,-6.94637 -1.26956,-8.91001c-0.14426,-1.01246 0.91482,-4.92833 2.54746,-5.16096c3.93517,-0.56071 20.99865,-2.99204 28.95752,-4.12608c2.56302,-0.3652 4.20161,1.30434 4.37357,2.65521c0.36846,2.89463 1.70173,13.39832 1.70173,13.39832c0,0 -27.4676,3.91378 -32.67002,4.65506c-1.63264,0.23263 -3.41385,-0.91959 -3.64068,-2.51155z" data-paper-data="{&quot;index&quot;:null}" fill="#3b3b3b" stroke-width="1.5"/></g></g><g><path d="M249.13698,214.83021c0,0 0.12711,3.88851 0.23503,7.19032c0.06165,1.88603 -2.12706,4.93387 -2.00294,8.73107c0.0518,1.58477 0.81894,2.9203 0.87489,4.63205c0.16899,5.17 1.93083,11.19645 2.06499,15.30102c0.1274,3.8977 0.21448,6.56181 0.21448,6.56181l-18.21432,-4.47786c0,0 -2.33083,-13.04642 -2.00191,-19.05091c0.2984,-5.4471 3.89281,-15.46701 3.89281,-15.46701" fill="#7f7f7f" stroke="#e3efff" stroke-width="1.5" stroke-linecap="round"/><g stroke="#0f0f0f" stroke-linecap="butt"><path d="M220.15696,265.09795c0,0 -2.75886,-4.68646 -3.24332,-6.86062c-0.51343,-2.30418 7.34107,-8.25979 7.34107,-8.25979l25.20453,3.93702l-1.03783,11.45308z" fill="#000b20" stroke-width="0"/><path d="M221.18982,263.57842c0.12761,-2.88096 0.31048,-7.00967 0.39825,-8.99119c0.04525,-1.02168 1.80949,-4.67451 3.457,-4.60153c3.97102,0.17589 21.18997,0.93858 29.22135,1.29432c2.58637,0.11456 3.88835,2.05805 3.80779,3.41744c-0.17261,2.91288 -0.80266,13.48209 -0.80266,13.48209c0,0 -27.71785,-1.22772 -32.96767,-1.46026c-1.64751,-0.07298 -3.18522,-1.53441 -3.11407,-3.14087z" fill="#3b3b3b" stroke-width="1.5"/></g></g><g><g stroke-linecap="butt"><g><g><path d="M172.87731,191.37909c0,0 6.88058,-38.16155 9.69341,-51.72616c1.84396,-8.89227 6.82943,-26.56283 6.82943,-26.56283l11.66095,3.20369l-14.68981,77.8835z" fill="#c70303" stroke="#9966ff" stroke-width="1"/><path d="M187.2249,120.51333c0.024,-0.0468 0.04862,-0.09319 0.07382,-0.13923l-0.0307,-0.0109l0.68258,-1.92414c0.23562,-0.66417 0.96503,-1.01159 1.62921,-0.77597c0.52544,0.18641 0.85264,0.68185 0.84974,1.20957l0.02545,1.42362l-0.04234,0.00075l0.04003,0.10215c-0.37423,2.56122 -0.21714,5.12432 -0.53902,7.72109c-1.76436,7.56233 -3.71747,15.08261 -5.44896,22.66238c-0.74263,6.86332 -2.29751,13.93688 -4.45952,20.07837c0,0 -0.4266,1.2026 -1.62919,0.77598c-1.2026,-0.4266 -0.77598,-1.6292 -0.77598,-1.6292c0.3654,-1.02116 -1.01871,-1.7757 -0.69679,-2.83855c-0.10689,-0.19071 0.44039,-1.09609 0.44162,-1.31929l0.61591,-1.19611c-0.01715,-0.95912 0.44686,-1.74764 0.42995,-2.70678c-0.17091,-3.11887 1.42849,-5.94361 2.01904,-8.97955c1.40985,-7.24794 1.35973,-16.27974 5.01848,-22.98572c0.0194,-0.10741 0.03867,-0.21469 0.05782,-0.32186l-0.22411,-0.0795l0.62571,-1.76381c0.08024,-0.22617 0.21771,-0.41557 0.39037,-0.55776c0.26922,-2.1669 0.12314,-5.13954 0.94689,-6.7455z" fill="#870303" stroke="none" stroke-width="0.5"/><path d="M193.14038,126.32763c-0.48103,-0.17064 -0.31039,-0.65169 -0.31039,-0.65169l0.08533,-0.24052c0.52611,-1.33421 -0.0973,-2.77897 0.4031,-4.18957c0,0 0.17065,-0.48105 0.65168,-0.3104c0.48103,0.17064 0.31039,0.65167 0.31039,0.65167c-0.49206,1.3871 0.06056,2.78652 -0.40308,4.18962l-0.08532,0.24053c0,0 -0.17065,0.48103 -0.65169,0.3104z" fill="#0554ff" stroke="none" stroke-width="0.5"/><path d="M195.57788,137.69585c-0.50656,0.06248 -0.56906,-0.44407 -0.56906,-0.44407l-0.0241,-0.40937c-0.86164,-0.82164 -1.81729,-0.55565 -1.27725,-2.18997c0,0 0.17065,-0.48103 0.65168,-0.31038c0.48103,0.17065 0.31038,0.65168 0.31038,0.65168c-0.3344,0.84804 0.58572,0.71293 1.2368,1.40972l0.11563,0.72336c0,0 0.06248,0.50657 -0.44407,0.56906z" fill="#0554ff" stroke="none" stroke-width="0.5"/><path d="M190.13733,147.16749c-0.06248,-0.50656 0.44409,-0.56908 0.44409,-0.56908l0.30937,0.03864c0.03304,-0.92205 0.35555,-0.96516 1.16464,-1.14045c0,0 0.50659,-0.06249 0.56907,0.44408c0.06248,0.50656 -0.44408,0.56905 -0.44408,0.56905c-0.47639,-0.05951 -0.40911,0.40835 -0.65066,0.92344l-0.82335,0.17839c0,0 -0.50656,0.06248 -0.56907,-0.44406z" fill="#9b7137" stroke="none" stroke-width="0.5"/><path d="M185.90923,160.53229c-0.35393,-0.36775 0.01383,-0.72168 0.01383,-0.72168l0.41116,-0.39571c0.81659,-0.78335 1.398,-1.0487 1.77351,-2.1073c0,0 0.17065,-0.48105 0.65169,-0.31042c0.48103,0.17065 0.31039,0.65169 0.31039,0.65169c-0.43768,1.23379 -1.10689,1.61204 -2.02772,2.50153l-0.41117,0.39572c0,0 -0.36775,0.35393 -0.7217,-0.01381z" fill="#0554ff" stroke="none" stroke-width="0.5"/><path d="M189.67587,168.15375c-0.48103,-0.17064 -0.31039,-0.65167 -0.31039,-0.65167c0.34129,-0.96208 0.76791,-2.16466 1.10919,-3.12675c0,0 0.17065,-0.48103 0.65169,-0.31039c0.48102,0.17064 0.3104,0.65169 0.3104,0.65169c-0.3413,0.9621 -0.68258,1.92414 -1.02387,2.88622l-0.08533,0.24052c0,0 -0.17064,0.48102 -0.65168,0.31038z" fill="#0554ff" stroke="none" stroke-width="0.5"/><path d="M184.82871,167.31433c0.09893,0.10278 0.17654,0.26571 0.09121,0.50623c-0.17064,0.48103 -0.65169,0.31039 -0.65169,0.31039l-0.55091,-0.737c0.17065,-0.48103 0.3413,-0.96207 0.51194,-1.44311c0,0 0.17066,-0.48104 0.65169,-0.31039c0.48102,0.17064 0.3104,0.65169 0.3104,0.65169c-0.12087,0.34074 -0.24176,0.68147 -0.36263,1.02221z" fill="#0554ff" stroke="none" stroke-width="0.5"/><path d="M191.01681,152.9238c0.08532,-0.24053 0.24824,-0.31812 0.38983,-0.33559c0.00711,-0.02005 0.01423,-0.04009 0.02133,-0.06012c0,0 0.17064,-0.48102 0.65169,-0.31039c0.48103,0.17064 0.31039,0.65167 0.31039,0.65167c-0.05687,0.16034 -0.11378,0.3207 -0.17065,0.48103l-0.89221,0.22506c0,0 -0.48103,-0.17064 -0.3104,-0.65168z" fill="#9b7137" stroke="none" stroke-width="0.5"/><path d="M192.0024,151.59155c-0.50656,0.06248 -0.56906,-0.44407 -0.56906,-0.44407l-0.02411,-0.40937c-0.27787,-0.33493 -0.35014,-0.85995 -0.2453,-1.28234c0,0 0.17064,-0.48103 0.65167,-0.31039c0.48103,0.17064 0.3104,0.65167 0.3104,0.65167c-0.10881,0.14433 0.06625,0.38605 0.20485,0.50209l0.11564,0.72334c0,0 0.0625,0.50659 -0.44408,0.56907z" fill="#9b7137" stroke="none" stroke-width="0.5"/><path d="M189.20816,141.99229c-0.48102,-0.17064 -0.31038,-0.65168 -0.31038,-0.65168c0.39818,-1.12243 0.96699,-2.72588 1.36517,-3.84831c0,0 0.17065,-0.48103 0.65167,-0.31039c0.48102,0.17064 0.31038,0.65168 0.31038,0.65168c-0.39817,1.12242 -0.79635,2.24485 -1.19451,3.36727l-0.17065,0.48103c0,0 -0.17065,0.48105 -0.65168,0.3104z" fill="#0554ff" stroke="none" stroke-width="0.5"/><path d="M197.38918,129.30097c-0.19829,-0.4163 0.15866,-0.63564 0.22946,-0.67414c-0.16072,-1.05013 -0.42857,-2.19746 -0.10257,-3.18403c0,0 0.17065,-0.48105 0.65169,-0.31042c0.48103,0.17065 0.31039,0.65169 0.31039,0.65169c-0.33637,0.85301 0.09223,2.17156 0.20426,3.0797l-0.61293,0.67852c0,0 -0.4608,0.21949 -0.68028,-0.24134z" fill="#9b7137" stroke="none" stroke-width="0.5"/><path d="M190.75134,133.0622c-0.48103,-0.17064 -0.31039,-0.65169 -0.31039,-0.65169c0.17065,-0.48103 0.42662,-1.20259 0.59726,-1.68364c0,0 0.17065,-0.48103 0.65169,-0.3104c0.48103,0.17064 0.31039,0.65167 0.31039,0.65167c-0.17064,0.48102 -0.34131,0.96209 -0.51194,1.44311l-0.08532,0.24052c0,0 -0.17066,0.48104 -0.6517,0.3104z" fill="#9b7137" stroke="none" stroke-width="0.5"/><path d="M196.0884,124.124c-0.48102,-0.17064 -0.3104,-0.65168 -0.3104,-0.65168l0.17065,-0.48105c0.16473,-0.46438 0.46068,-0.5981 0.05886,-0.84864c0,0 -0.35393,-0.36775 0.01382,-0.72169c0.36777,-0.35395 0.7217,0.01381 0.7217,0.01381c0.65623,0.81877 0.49777,0.96737 0.16771,1.89782l-0.17064,0.48103c0,0 -0.17065,0.48103 -0.65169,0.3104z" fill="#0554ff" stroke="none" stroke-width="0.5"/><path d="M195.77871,131.86694c-0.48102,-0.17064 -0.31037,-0.65168 -0.31037,-0.65168l0.08533,-0.24052c0.09999,-0.25358 0.11674,-0.54487 0.07523,-0.81427c0,0 -0.06248,-0.50656 0.44408,-0.56905c0.50656,-0.06248 0.56907,0.44406 0.56907,0.44406c0.04406,0.42665 0.00828,0.87329 -0.1263,1.28054l-0.08533,0.24052c0,0 -0.17065,0.48103 -0.65169,0.3104z" fill="#4f340e" stroke="none" stroke-width="0.5"/><path d="M192.20733,138.56501c-0.21949,-0.46081 0.24132,-0.68029 0.24132,-0.68029l0.06428,0.13496c0.12962,-0.36535 0.22391,-0.99 0.52025,-1.17526c-0.2188,-0.07212 -0.4428,-0.15121 -0.57467,-0.19798c0,0 -0.48103,-0.17064 -0.31039,-0.65167c0.17064,-0.48103 0.65167,-0.31039 0.65167,-0.31039c2.36498,0.83896 1.07998,1.53555 0.67521,2.6766l-0.58739,0.44538c0,0 -0.46083,0.2195 -0.68029,-0.24132z" fill="#0554ff" stroke="none" stroke-width="0.5"/><path d="M188.59345,147.70296c-0.06248,-0.50656 0.44408,-0.56907 0.44408,-0.56907l0.22647,0.1227c-0.5443,-1.55018 2.18002,-0.95089 0.51862,-1.54026c0,0 -0.48103,-0.17065 -0.31038,-0.6517c0.17064,-0.48103 0.65167,-0.31039 0.65167,-0.31039c2.70596,0.95991 -0.03889,1.81782 -0.05512,3.13037l-0.90625,0.26244c0,0 -0.50657,0.06248 -0.56906,-0.44407z" fill="#4f340e" stroke="none" stroke-width="0.5"/><path d="M188.25558,162.23418c-0.48102,-0.17064 -0.31041,-0.65168 -0.31041,-0.65168l0.15278,-0.20266c-2.18752,-1.364 -0.34265,-2.72173 1.28535,-3.24066c0,0 0.48721,-0.1521 0.63932,0.3351c0.1521,0.48721 -0.33512,0.63932 -0.33512,0.63932c-1.98427,0.60423 -1.66938,0.70621 -0.59174,2.05077l-0.18852,0.75942c0,0 -0.17064,0.48103 -0.65168,0.31041z" fill="#0554ff" stroke="none" stroke-width="0.5"/><path d="M188.14089,168.41233c-2.2329,-0.93431 0.771,-1.60919 0.42306,-2.30633c0,0 -0.0625,-0.50657 0.44406,-0.56907c0.50656,-0.06248 0.56907,0.44408 0.56907,0.44408c0.02189,1.77327 -1.6551,1.27628 -1.02457,1.50361c0.00399,0.00126 0.00606,0.00198 0.00606,0.00198l-0.00002,0.00019c0.05944,0.02137 0.13858,0.04897 0.24055,0.08513l-0.2909,0.43837l-0.05039,0.5237c-0.08472,-0.03006 -0.16391,-0.05983 -0.23784,-0.08936l-0.00268,0.00405c0,0 -0.03193,-0.01132 -0.0764,-0.03637z" fill="#0554ff" stroke="none" stroke-width="0.5"/><path d="M186.14462,154.44487c-0.48103,-0.17064 -0.31039,-0.65169 -0.31039,-0.65169l0.05981,-0.00738c0.10141,-0.81203 -1.53344,-1.38542 0.38964,-1.94231c0,0 0.50657,-0.06248 0.56907,0.44406c0.05105,0.41378 -0.27756,0.53128 -0.39967,0.56043c0.14438,0.1124 0.35629,0.36128 0.4541,0.8128l-0.11085,0.47367c0,0 -0.17065,0.48103 -0.65169,0.3104z" fill="#0554ff" stroke="none" stroke-width="0.5"/><path d="M194.99867,144.22128c-0.38344,-0.39841 0.01496,-0.78184 0.01496,-0.78184l0.36417,-0.32993c0.26967,-0.76016 0.59701,-0.67458 0.55889,-1.53488c0,0 0.01057,-0.55283 0.56343,-0.54225c0.55285,0.01059 0.54224,0.56343 0.54224,0.56343c-0.07086,1.2227 -0.38161,1.1164 -0.73515,2.113l-0.52669,0.52745c0,0 -0.39842,0.38343 -0.78184,-0.01496z" fill="#4f340e" stroke="none" stroke-width="0.5"/><path d="M191.37142,125.97091c-0.48103,-0.17064 -0.3104,-0.65169 -0.3104,-0.65169l0.08532,-0.24053c0.23308,-0.65707 0.17191,-1.57406 -0.32141,-2.0667c0,0 -0.35395,-0.36774 0.0138,-0.72167c0.36777,-0.35395 0.7217,0.0138 0.7217,0.0138c1.09627,1.20995 1.126,1.48648 0.54798,3.11588l-0.08531,0.24052c0,0 -0.17067,0.48104 -0.65169,0.31039z" fill="#4f340e" stroke="none" stroke-width="0.5"/></g><g><g><path d="M173.27469,138.96246l2.46915,-6.96039c0,0 11.11957,6.68731 17.37678,8.90702c6.45718,2.29066 20.7853,4.63074 20.7853,4.63074l-2.46915,6.96037z" fill="#ff0000" stroke="none" stroke-width="0"/><g data-paper-data="{&quot;index&quot;:null}"><path d="M173.83553,137.55711c0,0 9.72093,5.17303 19.5983,8.32477c6.4751,2.06612 18.60739,3.86135 18.60739,3.86135l-3.13533,9.82594l-38.58516,-13.40159z" fill="#c70303" stroke="#9966ff" stroke-width="1"/><path d="M205.38472,152.82968c0.16453,-0.34474 0.50929,-0.18022 0.50929,-0.18022l0.17238,0.08227c0.95207,0.49568 2.07611,0.1443 3.08708,0.62682c0,0 0.34477,0.16455 0.18024,0.50929c-0.16453,0.34474 -0.5093,0.18022 -0.5093,0.18022c-0.9941,-0.47446 -2.07885,-0.17225 -3.08706,-0.6268l-0.17236,-0.08226c0,0 -0.34477,-0.16455 -0.18022,-0.50928z" fill="#0554ff" stroke="none" stroke-width="0.5"/><path d="M196.73273,153.75732c-0.007,-0.38195 0.37494,-0.38894 0.37494,-0.38894l0.3066,0.01398c0.67878,-0.57727 0.55533,-1.30935 1.72972,-0.7799c0,0 0.34476,0.16455 0.18022,0.50929c-0.16453,0.34474 -0.50929,0.18021 -0.50929,0.18021c-0.60515,-0.31506 -0.57636,0.38037 -1.14581,0.81066l-0.54745,0.02965c0,0 -0.38193,0.007 -0.38894,-0.37494z" fill="#0554ff" stroke="none" stroke-width="0.5"/><path d="M190.1069,148.96893c0.38195,-0.007 0.38894,0.37494 0.38894,0.37494l-0.05289,0.22728c0.68376,0.09651 0.69067,0.33993 0.75806,0.95585c0,0 0.007,0.38193 -0.37494,0.38894c-0.38193,0.00701 -0.38893,-0.37493 -0.38893,-0.37493c0.08143,-0.34997 -0.27206,-0.33639 -0.6366,-0.55634l-0.06857,-0.62676c0,0 -0.00701,-0.38193 0.37495,-0.38894z" fill="#0554ff" stroke="none" stroke-width="0.5"/><path d="M180.48865,144.77935c0.30134,-0.23478 0.5361,0.06656 0.5361,0.06656l0.26248,0.3369c0.51938,0.66891 0.67158,1.12239 1.43024,1.48447c0,0 0.34474,0.16454 0.18022,0.50929c-0.16453,0.34474 -0.5093,0.18022 -0.5093,0.18022c-0.88421,-0.42202 -1.11357,-0.94964 -1.70383,-1.70446l-0.26248,-0.33691c0,0 -0.23478,-0.30134 0.06658,-0.53611z" fill="#0554ff" stroke="none" stroke-width="0.5"/><path d="M174.52186,146.98855c0.16453,-0.34474 0.50927,-0.18021 0.50927,-0.18021c0.68948,0.32908 1.55136,0.74042 2.24088,1.0695c0,0 0.34474,0.16456 0.18022,0.5093c-0.16453,0.34474 -0.50929,0.18021 -0.50929,0.18021c-0.68948,-0.32908 -1.379,-0.65814 -2.06848,-0.98723l-0.17237,-0.08228c0,0 -0.34473,-0.16455 -0.1802,-0.50929z" fill="#0554ff" stroke="none" stroke-width="0.5"/><path d="M175.52474,143.44607c-0.08423,0.06561 -0.21153,0.11067 -0.38392,0.02841c-0.34474,-0.16453 -0.18022,-0.50929 -0.18022,-0.50929l0.59155,-0.35259c0.34474,0.16453 0.6895,0.32909 1.03425,0.49362c0,0 0.34475,0.16453 0.18021,0.50928c-0.16453,0.34474 -0.50929,0.1802 -0.50929,0.1802c-0.2442,-0.11655 -0.48839,-0.23309 -0.73258,-0.34964z" fill="#0554ff" stroke="none" stroke-width="0.5"/><path d="M185.75363,149.17457c0.17238,0.08227 0.21743,0.20961 0.21939,0.31635c0.01436,0.00684 0.02872,0.01372 0.04307,0.02056c0,0 0.34476,0.16455 0.18021,0.50929c-0.16453,0.34474 -0.50929,0.18021 -0.50929,0.18021c-0.11492,-0.05485 -0.22982,-0.1097 -0.34474,-0.16454l-0.09795,-0.68166c0,0 0.16456,-0.34474 0.5093,-0.18021z" fill="#0554ff" stroke="none" stroke-width="0.5"/><path d="M186.66841,150.01211c-0.007,-0.38195 0.37494,-0.38894 0.37494,-0.38894l0.3066,0.01398c0.27098,-0.18071 0.66743,-0.19357 0.97363,-0.08257c0,0 0.34474,0.16456 0.18022,0.5093c-0.16453,0.34474 -0.50929,0.1802 -0.50929,0.1802c-0.09894,-0.09225 -0.2925,0.0192 -0.3897,0.11331l-0.54744,0.02966c0,0 -0.38195,0.007 -0.38895,-0.37494z" fill="#0554ff" stroke="none" stroke-width="0.5"/><path d="M194.03153,148.68094c0.16453,-0.34474 0.50927,-0.18021 0.50927,-0.18021c0.80442,0.38392 1.95357,0.93237 2.758,1.31631c0,0 0.34476,0.16455 0.18022,0.50929c-0.16453,0.34474 -0.50929,0.18022 -0.50929,0.18022c-0.80442,-0.38392 -1.60883,-0.76785 -2.41325,-1.15177l-0.34476,-0.16453c0,0 -0.34474,-0.16456 -0.18021,-0.5093z" fill="#0554ff" stroke="none" stroke-width="0.5"/><path d="M202.84013,155.76033c0.32536,-0.11512 0.46076,0.16768 0.48389,0.2234c0.7942,-0.03775 1.66912,-0.14761 2.37803,0.172c0,0 0.34474,0.16454 0.18022,0.5093c-0.16453,0.34474 -0.50929,0.18021 -0.50929,0.18021c-0.60869,-0.31691 -1.62358,-0.10074 -2.30829,-0.08818l-0.45724,-0.50916c0,0 -0.12743,-0.36012 0.23269,-0.48756z" fill="#0554ff" stroke="none" stroke-width="0.5"/><path d="M200.55822,150.52611c0.16453,-0.34474 0.50929,-0.18022 0.50929,-0.18022c0.34474,0.16453 0.86187,0.41136 1.20662,0.57589c0,0 0.34474,0.16453 0.1802,0.50929c-0.16453,0.34474 -0.50928,0.18022 -0.50928,0.18022c-0.34474,-0.16453 -0.68951,-0.32908 -1.03425,-0.49361l-0.17237,-0.08225c0,0 -0.34474,-0.16454 -0.18022,-0.50929z" fill="#0554ff" stroke="none" stroke-width="0.5"/><path d="M206.79508,155.19591c0.16453,-0.34474 0.50929,-0.1802 0.50929,-0.1802l0.34474,0.16453c0.33281,0.15885 0.40929,0.38956 0.6271,0.11001c0,0 0.30136,-0.23477 0.53612,0.06657c0.23478,0.30134 -0.06657,0.53611 -0.06657,0.53611c-0.66064,0.42461 -0.75889,0.29508 -1.42571,-0.02318l-0.34476,-0.16454c0,0 -0.34473,-0.16455 -0.1802,-0.50929z" fill="#0554ff" stroke="none" stroke-width="0.5"/><path d="M201.05578,154.36148c0.16453,-0.34474 0.50929,-0.18022 0.50929,-0.18022l0.17238,0.08227c0.18093,0.09421 0.39645,0.1294 0.60023,0.11952c0,0 0.38193,-0.007 0.38894,0.37495c0.007,0.38195 -0.37494,0.38894 -0.37494,0.38894c-0.32099,-0.00048 -0.65067,-0.06196 -0.94333,-0.19389l-0.17237,-0.08228c0,0 -0.34474,-0.16454 -0.18022,-0.50929z" fill="#0554ff" stroke="none" stroke-width="0.5"/><path d="M196.34868,151.18067c0.36011,-0.12742 0.48756,0.23268 0.48756,0.23268l-0.10549,0.03732c0.26184,0.12496 0.71946,0.24389 0.83423,0.47891c0.07075,-0.15723 0.14707,-0.31781 0.19219,-0.4123c0,0 0.16456,-0.34476 0.50929,-0.18024c0.34474,0.16453 0.1802,0.5093 0.1802,0.5093c-0.80894,1.69493 -1.22722,0.68412 -2.04498,0.29381l-0.28567,-0.47196c0,0 -0.12743,-0.36013 0.2327,-0.48755z" fill="#0554ff" stroke="none" stroke-width="0.5"/><path d="M189.82876,147.77796c0.38195,-0.007 0.38895,0.37494 0.38895,0.37494l-0.109,0.15901c1.19633,-0.28424 0.53776,1.69687 1.10605,0.50617c0,0 0.16454,-0.34474 0.50929,-0.18022c0.34474,0.16453 0.1802,0.5093 0.1802,0.5093c-0.92557,1.93929 -1.35004,-0.17074 -2.32576,-0.2852l-0.12465,-0.69505c0,0 -0.00702,-0.38193 0.37493,-0.38894z" fill="#0554ff" stroke="none" stroke-width="0.5"/><path d="M179.03884,146.39309c0.16453,-0.34474 0.5093,-0.18021 0.5093,-0.18021l0.13892,0.12953c1.18588,-1.52189 2.05263,-0.04276 2.31194,1.20951c0,0 0.07521,0.37451 -0.29931,0.44974c-0.37453,0.07523 -0.44974,-0.29931 -0.44974,-0.29931c-0.29497,-1.52413 -0.39545,-1.29768 -1.48033,-0.60041l-0.55057,-0.19956c0,0 -0.34474,-0.16453 -0.18021,-0.50927z" fill="#0554ff" stroke="none" stroke-width="0.5"/><path d="M174.44911,145.82584c0.86961,-1.58917 1.13765,0.6994 1.68371,0.4948c0,0 0.38193,-0.00701 0.38893,0.37493c0.007,0.38195 -0.37492,0.38895 -0.37492,0.38895c-1.32164,-0.122 -0.8209,-1.33152 -1.03931,-0.87992c-0.00125,0.00287 -0.00195,0.00437 -0.00195,0.00437l-0.00014,-0.00003c-0.02055,0.04258 -0.04725,0.09933 -0.08214,0.17239l-0.3036,-0.25072l-0.38589,-0.07835c0.02899,-0.06073 0.05733,-0.11733 0.08507,-0.17007l-0.00282,-0.00231c0,0 0.01092,-0.02287 0.03303,-0.05404z" fill="#0554ff" stroke="none" stroke-width="0.5"/><path d="M185.00145,145.42936c0.16453,-0.34474 0.50928,-0.18022 0.50928,-0.18022l0.00083,0.04509c0.59652,0.13883 1.15083,-1.03333 1.41534,0.44151c0,0 0.00701,0.38193 -0.37493,0.38894c-0.31196,0.00572 -0.3738,-0.24805 -0.38598,-0.34121c-0.09492,0.09868 -0.2967,0.237 -0.64044,0.27462l-0.34392,-0.11945c0,0 -0.34474,-0.16454 -0.1802,-0.50929z" fill="#0554ff" stroke="none" stroke-width="0.5"/><path d="M191.92072,152.81722c0.32645,-0.25433 0.58079,0.07213 0.58079,0.07213l0.21719,0.2968c0.5448,0.26002 0.45557,0.49701 1.09889,0.53572c0,0 0.41069,0.05099 0.35969,0.46166c-0.05099,0.41069 -0.46168,0.35969 -0.46168,0.35969c-0.90458,-0.14812 -0.80121,-0.37114 -1.51544,-0.71203l-0.35153,-0.4332c0,0 -0.25433,-0.32645 0.07211,-0.5808z" fill="#0554ff" stroke="none" stroke-width="0.5"/><path d="M205.78824,151.54077c0.16453,-0.34474 0.50929,-0.18021 0.50929,-0.18021l0.17237,0.08228c0.4709,0.22474 1.15824,0.25074 1.56342,-0.07805c0,0 0.30134,-0.23478 0.53611,0.06658c0.23478,0.30134 -0.06658,0.53611 -0.06658,0.53611c-0.98612,0.72163 -1.19429,0.72218 -2.36201,0.16485l-0.17238,-0.08227c0,0 -0.34474,-0.16454 -0.18021,-0.50929z" fill="#0554ff" stroke="none" stroke-width="0.5"/></g></g><g fill="#a8a8a8" stroke="#6b6b6b" stroke-width="1"><path d="M185.67536,135.13492c-0.14367,0.40503 -1.15529,0.41583 -2.2595,0.02411c-1.10421,-0.39171 -1.88288,-1.0376 -1.73919,-1.44263c0.14367,-0.40503 1.1553,-0.41583 2.25951,-0.02411c1.1042,0.39171 1.88287,1.03759 1.73918,1.44263z"/><path d="M186.64788,136.75594c-0.15675,0.44185 -1.62651,0.32372 -3.28284,-0.26385c-1.65632,-0.58755 -2.87196,-1.42208 -2.71521,-1.86391c0.15674,-0.44186 1.62652,-0.32372 3.28283,0.26382c1.65632,0.58755 2.87195,1.42209 2.71521,1.86392z"/><path d="M186.53277,138.66667c-0.15675,0.44185 -1.87828,0.23443 -3.84514,-0.46331c-1.96688,-0.69773 -3.43427,-1.62154 -3.27752,-2.0634c0.15674,-0.44186 1.87826,-0.23442 3.84514,0.46332c1.96687,0.69774 3.43428,1.62155 3.27753,2.06339z"/><path d="M186.76221,140.39941c-0.18288,0.5155 -2.0934,0.30822 -4.26732,-0.46297c-2.17392,-0.77118 -3.78796,-1.81424 -3.6051,-2.32973c0.18288,-0.5155 2.0934,-0.30822 4.26732,0.46297c2.17392,0.77118 3.78799,1.81423 3.6051,2.32973z"/></g><g fill="#a8a8a8" stroke="#6b6b6b" stroke-width="1"><path d="M208.71663,143.30866c-0.14369,0.40502 -1.1553,0.41583 -2.25951,0.02411c-1.1042,-0.39171 -1.88287,-1.03759 -1.73918,-1.44263c0.14369,-0.40502 1.1553,-0.41581 2.2595,-0.0241c1.1042,0.39172 1.88287,1.03759 1.73919,1.44262z"/><path d="M209.68911,144.92968c-0.15674,0.44186 -1.62651,0.32372 -3.28284,-0.26385c-1.65632,-0.58755 -2.87196,-1.42208 -2.71521,-1.86391c0.15674,-0.44186 1.62651,-0.32372 3.28284,0.26385c1.65632,0.58755 2.87195,1.42206 2.71521,1.86391z"/><path d="M209.57401,146.8404c-0.15674,0.44186 -1.87827,0.23442 -3.84515,-0.46332c-1.96686,-0.69773 -3.43428,-1.62155 -3.27753,-2.06339c0.15674,-0.44186 1.87827,-0.23442 3.84515,0.46332c1.96688,0.69773 3.43428,1.62154 3.27753,2.06339z"/><path d="M209.80346,148.57314c-0.18288,0.5155 -2.0934,0.30821 -4.26732,-0.46297c-2.17392,-0.77118 -3.78796,-1.81424 -3.6051,-2.32973c0.18288,-0.5155 2.0934,-0.30822 4.26731,0.46296c2.17392,0.77118 3.78799,1.81423 3.6051,2.32973z"/></g></g><g><path d="M176.0516,122.88447l1.25234,-6.69453c0,0 11.08777,4.49925 17.106,5.62508c6.21057,1.16179 19.59855,1.24119 19.59855,1.24119l-1.25235,6.69454z" data-paper-data="{&quot;index&quot;:null}" fill="#ff0000" stroke="none" stroke-width="0"/><g data-paper-data="{&quot;index&quot;:null}"><path d="M211.46053,136.56674l-36.97898,-7.17071l2.04736,-9.28848c0,0 10.50774,4.18379 16.62867,5.53298c9.3371,2.05809 19.48504,2.43159 19.48504,2.43159z" fill="#c70303" stroke="#9966ff" stroke-width="1"/><path d="M180.03007,125.97319l-0.17557,-0.01417c-1.01454,-0.10413 -1.73988,-0.84725 -2.75239,-0.92897c0,0 -0.35113,-0.02834 -0.32279,-0.37949c0.02834,-0.35113 0.37949,-0.32279 0.37949,-0.32279c1.02969,0.08309 1.76359,0.88363 2.7524,0.92896l0.17557,0.01416c0,0 0.35113,0.02834 0.32278,0.37946c-0.02834,0.35113 -0.37949,0.32279 -0.37949,0.32279z" fill="#0554ff" stroke="none" stroke-width="0.5"/><path d="M186.39731,130.51406l-0.42292,-0.27705c-0.25502,-0.60677 0.08983,-1.14812 -0.53866,-1.17694c0,0 -0.35113,-0.02835 -0.32279,-0.37949c0.02834,-0.35113 0.37946,-0.3228 0.37946,-0.3228c1.18176,0.12129 0.74445,0.64805 1.01866,1.4227l0.25102,0.13077c0,0 0.3014,0.18235 0.11901,0.48378c-0.18239,0.3014 -0.48377,0.11903 -0.48377,0.11903z" fill="#0554ff" stroke="none" stroke-width="0.5"/><path d="M194.50132,130.12643l-0.34479,0.46819c-0.3926,0.0067 -0.66826,-0.16775 -0.76528,0.14907c0,0 -0.18235,0.3014 -0.48376,0.11902c-0.3014,-0.18239 -0.11902,-0.48377 -0.11902,-0.48377c0.33883,-0.46006 0.45703,-0.65101 1.04706,-0.41151l0.06302,-0.20576c0,0 0.18237,-0.30139 0.48378,-0.11901c0.3014,0.18239 0.11902,0.48376 0.11902,0.48376z" fill="#0554ff" stroke="none" stroke-width="0.5"/><path d="M203.79805,131.21146l-0.3653,0.14724c-0.82017,0.3288 -1.24734,0.64348 -2.14794,0.57082c0,0 -0.35113,-0.02834 -0.32278,-0.37946c0.02834,-0.35113 0.37948,-0.32279 0.37948,-0.32279c0.77274,0.06237 1.10401,-0.2289 1.8279,-0.52203l0.36531,-0.14722c0,0 0.32673,-0.13168 0.45842,0.19505c0.13169,0.32673 -0.19505,0.45841 -0.19505,0.45841z" fill="#0554ff" stroke="none" stroke-width="0.5"/><path d="M207.35021,135.5998l-0.17556,-0.01416c-0.70227,-0.05668 -1.40454,-0.11335 -2.10681,-0.17002c0,0 -0.35113,-0.02834 -0.3228,-0.37946c0.02835,-0.35114 0.37949,-0.32279 0.37949,-0.32279c0.70228,0.05667 1.58011,0.12751 2.28238,0.18419c0,0 0.35112,0.02832 0.32279,0.37948c-0.02834,0.35113 -0.37948,0.32279 -0.37948,0.32279z" fill="#0554ff" stroke="none" stroke-width="0.5"/><path d="M207.82332,131.92704c0,0 -0.35112,-0.02832 -0.32279,-0.37948c0.02834,-0.35113 0.37948,-0.32279 0.37948,-0.32279c0.35113,0.02834 0.70228,0.05667 1.05341,0.08503l0.30862,0.55503c0,0 -0.02835,0.35114 -0.37948,0.32279c-0.17556,-0.01416 -0.25626,-0.10904 -0.29307,-0.20036c-0.24871,-0.02006 -0.49744,-0.04015 -0.74616,-0.06024z" fill="#0554ff" stroke="none" stroke-width="0.5"/><path d="M198.08209,132.20117l-0.39363,0.49836c-0.11704,-0.00945 -0.23409,-0.01889 -0.35114,-0.02834c0,0 -0.35114,-0.02835 -0.32279,-0.37948c0.02835,-0.35114 0.37947,-0.3228 0.37947,-0.3228c0.01461,0.00119 0.02928,0.00236 0.0439,0.00355c0.05098,-0.08425 0.14585,-0.16494 0.32141,-0.15077c0.35115,0.02833 0.32278,0.37947 0.32278,0.37947z" fill="#0554ff" stroke="none" stroke-width="0.5"/><path d="M196.15821,132.18533l-0.42292,-0.27705c-0.03395,-0.12004 -0.13675,-0.29854 -0.25839,-0.27076c0,0 -0.35113,-0.02835 -0.32278,-0.37947c0.02834,-0.35113 0.37946,-0.32278 0.37946,-0.32278c0.29562,0.0532 0.60587,0.24694 0.73837,0.51653l0.25102,0.13077c0,0 0.30139,0.18238 0.11901,0.48378c-0.18239,0.3014 -0.48378,0.11901 -0.48378,0.11901z" fill="#0554ff" stroke="none" stroke-width="0.5"/><path d="M191.0058,127.91919l-0.35113,-0.02834c-0.81929,-0.06612 -1.63863,-0.13223 -2.45794,-0.19836c0,0 -0.35113,-0.02835 -0.32279,-0.37949c0.02834,-0.35113 0.37947,-0.32278 0.37947,-0.32278c0.81929,0.06612 1.98976,0.16058 2.80907,0.2267c0,0 0.35113,0.02834 0.32279,0.37948c-0.02835,0.35114 -0.37949,0.32279 -0.37949,0.32279z" fill="#0554ff" stroke="none" stroke-width="0.5"/><path d="M181.04254,129.66229l-0.60036,0.19448c-0.54032,-0.32697 -1.24974,-0.96914 -1.88193,-0.99812c0,0 -0.35112,-0.02832 -0.32279,-0.37948c0.02833,-0.35115 0.37948,-0.32279 0.37948,-0.32279c0.71337,0.07321 1.36035,0.56583 1.97635,0.96352c0.04423,-0.03371 0.28313,-0.19659 0.48934,0.04581c0.22825,0.26832 -0.04006,0.49658 -0.04006,0.49658z" fill="#0554ff" stroke="none" stroke-width="0.5"/><path d="M184.94597,126.36992l-0.17556,-0.01416c-0.35115,-0.02833 -0.70227,-0.05668 -1.05341,-0.08502c0,0 -0.35114,-0.02834 -0.32279,-0.37948c0.02834,-0.35113 0.37947,-0.3228 0.37947,-0.3228c0.35113,0.02834 0.87785,0.07084 1.22897,0.09919c0,0 0.35113,0.02834 0.32279,0.37948c-0.02834,0.35113 -0.37947,0.32278 -0.37947,0.32278z" fill="#0554ff" stroke="none" stroke-width="0.5"/><path d="M177.80993,127.20772l-0.35114,-0.02835c-0.67919,-0.05481 -0.81751,0.00303 -1.1479,-0.64142c0,0 -0.13168,-0.32672 0.19505,-0.45843c0.32675,-0.13169 0.45844,0.19505 0.45844,0.19505c0.04435,0.3238 0.2121,0.17517 0.5511,0.20253l0.35113,0.02834c0,0 0.35114,0.02835 0.32279,0.37949c-0.02834,0.35113 -0.37948,0.32279 -0.37948,0.32279z" fill="#0554ff" stroke="none" stroke-width="0.5"/><path d="M182.77387,129.19871l-0.17557,-0.01417c-0.29449,-0.03022 -0.58588,-0.13376 -0.84214,-0.28197c0,0 -0.30141,-0.18237 -0.11902,-0.48376c0.18239,-0.3014 0.48376,-0.11902 0.48376,-0.11902c0.15795,0.1022 0.34614,0.17388 0.53406,0.1825l0.17556,0.01416c0,0 0.35113,0.02834 0.32278,0.37946c-0.02835,0.35114 -0.37946,0.3228 -0.37946,0.3228z" fill="#0554ff" stroke="none" stroke-width="0.5"/><path d="M188.33997,129.01424l-0.44631,0.2442c-0.83291,-0.06721 -1.63442,0.5454 -1.49511,-1.18092c0,0 0.02833,-0.35112 0.37947,-0.32278c0.35113,0.02834 0.32279,0.37948 0.32279,0.37948c-0.00776,0.09627 -0.02121,0.25965 -0.03756,0.41781c0.20033,-0.13433 0.62037,-0.01738 0.88706,0.00416l-0.06686,-0.07859c0,0 0.26833,-0.22825 0.49658,0.04006c0.22825,0.26833 -0.04007,0.49659 -0.04007,0.49659z" fill="#0554ff" stroke="none" stroke-width="0.5"/><path d="M195.27442,129.30527l-0.42115,0.49668c-0.83123,-0.36034 -2.14646,1.12614 -1.98706,-0.84907c0,0 0.02832,-0.35112 0.37948,-0.32279c0.35113,0.02834 0.32279,0.37948 0.32279,0.37948c-0.09788,1.21274 0.29385,-0.67222 1.11648,0.10824l-0.01334,-0.17729c0,0 0.18237,-0.30141 0.48377,-0.11902c0.3014,0.18239 0.11902,0.48377 0.11902,0.48377z" fill="#0554ff" stroke="none" stroke-width="0.5"/><path d="M204.02304,133.03404l-0.53152,-0.09567c-0.54257,-1.0583 -0.51786,-1.2854 -1.45863,-0.20628c0,0 -0.23334,0.2639 -0.49725,0.03056c-0.26392,-0.23335 -0.03056,-0.49726 -0.03056,-0.49726c0.78645,-0.87879 2.16241,-1.65737 2.40386,0.10541l0.17077,-0.03902c0,0 0.35112,0.02832 0.32279,0.37948c-0.02834,0.35113 -0.37948,0.32279 -0.37948,0.32279z" fill="#0554ff" stroke="none" stroke-width="0.5"/><path d="M208.32722,134.44167l-0.00329,0.00054c-0.00229,0.05491 -0.00588,0.1132 -0.01087,0.17503l-0.34405,-0.11613l-0.35821,0.05943c0.006,-0.07443 0.01096,-0.13206 0.01428,-0.17553l-0.00012,-0.00004c0,0 0.00012,-0.00152 0.00045,-0.00439c0.03483,-0.4613 -0.12562,0.73521 -1.23623,0.22077c0,0 -0.3014,-0.18238 -0.11901,-0.48378c0.18238,-0.3014 0.48378,-0.11901 0.48378,-0.11901c0.34084,0.41594 1.61394,-1.28536 1.57197,0.38468c0.00321,0.03508 0.00134,0.05839 0.00134,0.05839z" fill="#0554ff" stroke="none" stroke-width="0.5"/><path d="M199.71333,129.50545l-0.32961,-0.0639c-0.25675,-0.18909 -0.35368,-0.39281 -0.3837,-0.51547c-0.05284,0.06867 -0.21961,0.24246 -0.46579,0.0935c-0.3014,-0.18239 -0.11901,-0.48378 -0.11901,-0.48378c0.89366,-1.05391 0.79322,0.13758 1.33327,0.30297l0.02153,-0.03557c0,0 0.35114,0.02834 0.32279,0.37948c-0.02835,0.35114 -0.37948,0.32279 -0.37948,0.32279z" fill="#0554ff" stroke="none" stroke-width="0.5"/><path d="M190.943,132.36917l-0.48088,0.1828c-0.72747,-0.05872 -0.74827,0.16703 -1.53831,-0.13354c0,0 -0.35117,-0.14942 -0.20177,-0.50058c0.14941,-0.35117 0.50059,-0.20175 0.50059,-0.20175c0.53104,0.26689 0.56958,0.03656 1.12445,0.08133l0.31061,-0.13619c0,0 0.35396,-0.14265 0.49661,0.21129c0.14266,0.35397 -0.2113,0.49662 -0.2113,0.49662z" fill="#0554ff" stroke="none" stroke-width="0.5"/><path d="M180.30482,124.75838l-0.17557,-0.01417c-1.18937,-0.09599 -1.35515,-0.19277 -1.80766,-1.2248c0,0 -0.13169,-0.32673 0.19505,-0.45843c0.32675,-0.13169 0.45842,0.19504 0.45842,0.19504c0.171,0.44978 0.73123,0.74718 1.21085,0.7859l0.17557,0.01417c0,0 0.35113,0.02835 0.32278,0.37947c-0.02834,0.35113 -0.37948,0.32279 -0.37948,0.32279z" fill="#0554ff" stroke="none" stroke-width="0.5"/></g><g data-paper-data="{&quot;index&quot;:null}" fill="#a8a8a8" stroke="#6b6b6b" stroke-width="1"><path d="M209.18503,121.07873c1.06202,0.19867 1.86392,0.67554 1.79103,1.06508c-0.07287,0.38956 -0.99292,0.54433 -2.05494,0.34566c-1.06202,-0.19867 -1.86392,-0.67555 -1.79104,-1.06509c0.07288,-0.38955 0.99291,-0.5443 2.05494,-0.34563z"/><path d="M208.63253,122.03728c1.59306,0.29802 2.82004,0.88411 2.74053,1.30908c-0.0795,0.42497 -1.43538,0.52791 -3.02842,0.2299c-1.59306,-0.29802 -2.82003,-0.88411 -2.74054,-1.30908c0.0795,-0.42497 1.43538,-0.52791 3.02843,-0.2299z"/><path d="M208.38074,123.71574c1.89175,0.35389 3.36087,0.98528 3.28137,1.41026c-0.07951,0.42497 -1.67752,0.48261 -3.56927,0.1287c-1.89175,-0.35389 -3.36087,-0.98529 -3.28138,-1.41026c0.07949,-0.42498 1.6775,-0.4826 3.56928,-0.1287z"/><path d="M207.78027,124.93075c2.09089,0.39114 3.71069,1.11015 3.61794,1.60595c-0.09275,0.49581 -1.86293,0.58064 -3.95382,0.18952c-2.09089,-0.39114 -3.7107,-1.11014 -3.61794,-1.60595c0.09276,-0.49582 1.86293,-0.58064 3.95381,-0.18951z"/></g><g data-paper-data="{&quot;index&quot;:null}" fill="#a8a8a8" stroke="#6b6b6b" stroke-width="1"><path d="M186.67751,116.86828c1.06202,0.19867 1.86391,0.67552 1.79104,1.06509c-0.07287,0.38956 -0.99293,0.5443 -2.05495,0.34564c-1.06202,-0.19867 -1.8639,-0.67553 -1.79103,-1.0651c0.07287,-0.38956 0.99291,-0.54431 2.05494,-0.34563z"/><path d="M186.12502,117.8268c1.59306,0.29802 2.82002,0.88412 2.74053,1.30908c-0.07949,0.42498 -1.43538,0.52791 -3.02843,0.2299c-1.59306,-0.29802 -2.82004,-0.88411 -2.74053,-1.30908c0.07949,-0.42498 1.43538,-0.52791 3.02843,-0.2299z"/><path d="M185.87322,119.50527c1.89175,0.35389 3.36087,0.98529 3.28138,1.41026c-0.07949,0.42498 -1.67752,0.4826 -3.56926,0.12871c-1.89175,-0.35389 -3.36088,-0.98529 -3.28137,-1.41025c0.07951,-0.42497 1.67752,-0.48262 3.56925,-0.12874z"/><path d="M185.27275,120.7203c2.09089,0.39114 3.71069,1.11015 3.61795,1.60596c-0.09276,0.49582 -1.86294,0.58064 -3.95381,0.18951c-2.09089,-0.39114 -3.71069,-1.11016 -3.61795,-1.60597c0.09275,-0.49581 1.86295,-0.58064 3.95381,-0.18951z"/></g></g></g><g><g><g fill="#8a8a8a" stroke="#212121" stroke-width="1"><path d="M215.14905,184.49309c-4.55513,0.96114 -9.8857,5.01492 -13.45291,4.87793c-3.5672,-0.137 -2.81827,-1.88189 -5.5851,-2.23037c-2.76683,-0.34848 -5.53949,4.43751 -9.34136,5.28415c-8.32952,1.85491 -12.83158,-8.61574 -12.68997,-10.11445c0.10925,-1.15623 11.44294,-9.37322 14.95897,-11.2513c2.60345,-1.39062 5.31324,0.63757 8.02313,-0.58074c2.70989,-1.21832 8.09252,-5.66241 10.72976,-6.66774c2.63721,-1.00532 5.927,0.87493 9.29638,0.16401c4.79996,-1.01281 3.65861,0.18917 7.34317,0.39171c3.68457,0.20254 6.61743,5.74949 6.27207,9.40437c-0.33948,3.59254 4.9668,5.86742 -1.87896,9.10797c-6.84577,3.24055 -8.72637,0.57025 -13.67517,1.61446z"/></g><path d="M207.97898,179.63066l-0.89272,-0.17168c0.36295,-0.47052 0.83224,-0.92733 1.36972,-1.29599c0.55907,-0.37412 1.56693,-0.52178 1.75031,-1.02733c0.09627,-0.26543 -1.62403,-1.08736 -1.45084,-1.64957c0.06579,-0.21358 1.80862,-1.76058 2.05943,-2.0188c2.19065,-2.25553 3.78554,-4.00159 6.60186,-5.88618c0,0 0.50735,-0.33949 0.77939,-0.03018c0.27203,0.3093 -0.2353,0.64878 -0.2353,0.64878c-2.71784,1.81866 -4.21857,3.47829 -6.32863,5.66028c-0.31232,0.32295 -1.65113,1.38453 -1.77455,1.58342c-0.0134,0.02159 1.57635,1.30349 1.45084,1.64957c-0.15227,0.41986 -1.83353,1.37082 -2.30844,1.68862c-0.18701,0.12081 -0.36117,0.2601 -0.51884,0.40957c0.02181,0.25057 -0.31448,0.47559 -0.31448,0.47559l-0.09543,-0.01835c-0.01519,0.02005 -0.03004,0.04012 -0.04461,0.06021z" fill="#212121" stroke="none" stroke-width="0.5"/><path d="M200.40521,178.82064c-0.55109,0.02136 -0.38473,-0.43741 -0.38473,-0.43741l0.23778,-0.5787c0.62233,-0.80679 1.75889,-1.47262 2.31517,-2.18282c0.23569,-0.3009 -0.35247,-0.44319 -0.44532,-0.70714c-0.0587,-0.16684 -0.06384,-1.44335 0.0173,-1.60463c0.391,-0.77717 1.37379,-2.02149 2.05188,-2.75364c0,0 0.39528,-0.41987 0.8138,-0.23381c0.41851,0.18607 0.02323,0.60595 0.02323,0.60595c-0.65436,0.6812 -1.41384,1.70656 -1.82339,2.42633c-0.55902,0.98241 0.89811,1.40973 0.35876,2.43618c-0.35714,0.67969 -1.84519,1.53748 -2.37104,2.26321l-0.07598,0.28636c0,0 -0.16638,0.45877 -0.71748,0.48013z" fill="#212121" stroke="none" stroke-width="0.5"/><path d="M192.98596,184.09294c-0.27203,-0.30929 0.23532,-0.64879 0.23532,-0.64879l0.45035,-0.22799c-0.21715,-1.43663 2.31166,-4.42185 3.44466,-5.92959c0,0 0.33211,-0.44196 0.80232,-0.31715c0.47021,0.12482 0.13808,0.5668 0.13808,0.5668c-1.26764,1.68692 -3.31904,4.1399 -3.38881,5.84919l-0.90256,0.67735c0,0 -0.50733,0.33948 -0.77937,0.03019z" fill="#212121" stroke="none" stroke-width="0.5"/><path d="M210.60277,182.13107c-0.27203,-0.3093 0.23531,-0.64879 0.23531,-0.64879l0.33824,-0.22633c2.86157,-1.91484 4.97879,-3.98669 7.75474,-5.84424c0,0 0.50733,-0.33949 0.77938,-0.0302c0.27203,0.3093 -0.23532,0.64879 -0.23532,0.64879c-2.75552,1.84389 -4.89945,3.93362 -7.75474,5.84423l-0.33824,0.22634c0,0 -0.50734,0.33949 -0.77937,0.03021z" fill="#212121" stroke="none" stroke-width="0.5"/><path d="M187.84329,185.68079c-0.57544,0.16532 -0.59185,-0.26314 -0.59185,-0.26314l-0.01969,-0.70949c0.44067,-1.21499 1.52776,-2.53602 2.6648,-3.61185c0.33782,-0.31963 1.0323,-0.4063 1.23611,-0.76691c0.23813,-0.42134 -0.24984,-0.74759 -0.10193,-1.17147c0.28491,-0.81657 0.90246,-1.69253 1.76436,-2.30719c0,0 0.50734,-0.33949 0.77937,-0.03021c0.27203,0.30929 -0.23531,0.64879 -0.23531,0.64879c-1.60652,0.95557 -0.58551,2.00534 -1.21023,3.02931c-0.35055,0.5746 -1.01527,0.61091 -1.46972,1.0437c-0.90167,0.85874 -1.93394,2.00548 -2.28618,2.97668l0.02928,0.56795c0,0 0.01642,0.42848 -0.55902,0.59379z" fill="#212121" stroke="none" stroke-width="0.5"/></g><path d="M188.567,189.01715c-0.19079,0.99556 -0.88208,1.25111 -1.25995,2.1288c-0.86402,2.00688 -2.75318,2.70061 -4.96688,2.80389c-0.82212,0.03836 -1.43542,0.46231 -2.13992,0.68077c-0.38166,0.11835 -1.5443,-0.35106 -1.95996,-0.43728c-1.6581,-0.34383 -3.02849,-1.18111 -4.65573,-1.51855c-0.29276,-0.0607 -1.61793,-0.13235 -1.76318,-0.44689c-0.11693,-0.25318 0.34834,-0.44138 0.46949,-0.69257c0.47753,-0.98994 1.02487,-1.47003 1.66982,-2.03056l0.03636,0.05547l0.63741,-0.4191c0.08656,-0.05684 0.11466,-0.10724 0.13735,-0.21663c0.04537,-0.21881 -0.09662,-0.43439 -0.31543,-0.47976l-0.45949,-0.09609c-0.52876,-0.41116 -0.94623,-0.48241 -1.60229,-0.61096c-0.2274,-0.04458 -0.7298,0.09135 -0.68269,-0.13554c0.06778,-0.32649 0.52156,-0.4325 0.70274,-0.71247c0.80385,-1.24202 2.32351,-1.40973 2.77833,-2.54419c0.0409,0.00461 0.08051,0.00878 0.11859,0.01214l-0.06693,-0.16214c0.01315,-0.04443 0.02468,-0.09099 0.03473,-0.13834l0.20608,0.04315l0.10917,-0.53129c0.04537,-0.21881 -0.09524,-0.43583 -0.31406,-0.48119c-0.21881,-0.04535 -0.37905,0.0959 -0.42445,0.31472l-0.09115,0.18156c-0.9021,-0.73556 -3.17634,-0.68208 -3.49461,-1.903c-0.36341,-1.39408 1.69442,-1.5024 2.40441,-1.75493c0.35096,-0.12484 0.77895,-0.35035 1.18397,-0.58333l0.00453,0.01722l0.57587,-0.15395c0.14717,-0.03575 0.2695,-0.15441 0.30228,-0.31258c0.04537,-0.21881 -0.05783,-0.39408 -0.27665,-0.43946l-0.71728,-0.17902c-0.42096,-0.61015 -0.81041,-1.02147 -1.09203,-1.72938c-0.2349,-0.3597 -1.78164,-2.13697 -1.3237,-2.61079c1.65437,-1.71168 5.27915,-2.17155 7.49826,-2.05646c0.31251,0.01621 0.49131,1.24184 0.52793,1.36562c1.93337,1.564 4.10418,1.83362 6.55143,2.03047c0.72841,0.05859 1.56531,0.53389 2.30909,0.33738c1.06134,4.38267 0.26207,8.9996 -0.65152,13.40523z" data-paper-data="{&quot;noHover&quot;:false,&quot;origItem&quot;:[&quot;Path&quot;,{&quot;applyMatrix&quot;:true,&quot;segments&quot;:[[[352.98765,211.79952],[7.15143,15.10973],[-2.55196,1.27316]],[[344.36571,212.32209],[2.68815,-0.33561],[-9.03143,1.12755]],[[319.12178,209.89399],[8.19519,4.2219],[-0.22607,-0.42176]],[[316.18244,205.33333],[1.14654,-0.1764],[-8.14174,1.25266]],[[290.56826,218.40736],[4.71675,-7.45853],[-1.30565,2.06461]],[[297.34245,226.88235],[-1.12338,-1.1289],[1.55513,2.35765]],[[302.61113,232.33333],[-1.98728,-1.89794],[0,0]],[[305.18244,232.33333],[0,0],[0.82843,0]],[[306.68244,233.83333],[0,-0.82843],[0,0.5988]],[[305.82419,235.18951],[0.50737,-0.24052],[0,0]],[303.85326,236.17497],[[303.82379,236.11605],[0,0],[-1.29482,1.15054]],[[299.97103,239.10931],[1.17999,-0.71729],[-2.38708,1.45106]],[[292.56826,247.25931],[-2.36844,-4.78677],[2.07425,4.1922]],[[306.68244,251.51318],[-3.82814,-1.9909],[0,0]],[[306.68244,250.83333],[0,0],[0,-0.82843]],[[308.18244,249.33333],[-0.82843,0],[0.82843,0]],[[309.68244,250.83333],[0,-0.82843],[0,0]],[309.68244,252.83333],[[308.90249,252.83333],[0,0],[-0.00083,0.17941]],[[308.87958,253.35911],[0.01432,-0.1712],[0,0]],[[309.2431,253.89399],[0,0],[-0.14078,0.0165]],[[308.80379,253.93991],[0.15196,-0.01408],[-0.79701,4.46031]],[[300.62231,265.24677],[1.98302,-5.11343],[-0.44697,1.15256]],[[298.60546,268.35899],[0.00029,-1.23619],[-0.0002,0.85903]],[[301.18244,268.33333],[-0.85898,0.00943],[2.47817,-0.0272]],[[307.44609,269.33333],[-2.22884,-1.09444],[0,0]],[[309.18244,269.33333],[0,0],[0.82843,0]],[[310.68244,270.83333],[0,-0.82843],[0,0.41421]],[[310.2431,271.89399],[0.27145,-0.27145],[0,0]],[308.2431,273.89399],[[308.06872,273.71962],[0,0],[-1.91921,2.52017]],[[303.64231,282.17796],[0.98821,-3.95282],[-0.25075,1.003]],[[302.45841,285.04474],[-0.61503,-0.83104],[0.76407,1.03243]],[[309.18244,285.33333],[-1.10841,0],[6.16069,0]],[[327.18244,287.33333],[-6.27749,0],[1.57371,0]],[[334.60841,287.44751],[-1.29634,0.7169],[2.39284,-1.32329]],[[341.8448,283.37183],[-2.95535,0.75806],[7.95781,-2.0412]],[[357.72256,269.4887],[-1.62566,7.93509],[0.71097,-3.47035]],[[360.68244,260.83333],[0.05678,3.75743],[0,-16.67958]]],&quot;closed&quot;:true}]}" fill="#001a3a" stroke="#e3efff" stroke-width="1.5"/></g></g><path d="M236.71858,176.95418l-6.58766,5.19302l-9.97144,-18.31768l8.57459,-2.03603" fill="#000000" stroke="#000000" stroke-width="1" stroke-linecap="round"/></g><g stroke-linecap="butt"><g data-paper-data="{&quot;index&quot;:null}"><g><g fill="#8a8a8a" stroke="#212121" stroke-width="1"><path d="M217.05681,198.1191c2.89723,-3.64405 4.4207,-10.16532 7.25666,-12.33352c2.83596,-2.16819 3.37107,-0.34633 5.72512,-1.8414c2.35405,-1.49507 1.43986,-6.95013 3.82967,-10.02582c5.23583,-6.73853 15.37883,-1.54019 16.22499,-0.29513c0.65281,0.96055 -2.84261,14.51612 -4.35472,18.20434c-1.11965,2.73096 -4.50041,2.89541 -5.81188,5.56145c-1.31148,2.66604 -2.62629,9.52127 -4.01755,11.97687c-1.39125,2.4556 -5.12463,3.10373 -7.26768,5.79919c-3.05293,3.8399 -2.93964,2.18625 -5.9078,4.37874c-2.96818,2.19249 -8.76367,-0.21217 -10.8272,-3.24852c-2.02831,-2.98453 -7.56699,-1.35517 -4.35767,-8.21562c3.20933,-6.86046 6.36044,-6.00159 9.50806,-9.96058z"/></g><path d="M225.68089,197.29552l0.79729,-0.43673c0.02024,0.59389 -0.05018,1.24499 -0.22935,1.87166c-0.19232,0.64462 -0.87479,1.40082 -0.69385,1.90723c0.095,0.26587 1.94446,-0.19731 2.16935,0.34628c0.08543,0.20649 -0.2714,2.50939 -0.30005,2.86824c-0.25028,3.13428 -0.36624,5.49627 -1.33507,8.74353c0,0 -0.17453,0.58497 -0.58129,0.52004c-0.40675,-0.06493 -0.23222,-0.64989 -0.23222,-0.64989c0.93496,-3.13369 1.03347,-5.36906 1.26853,-8.39531c0.0348,-0.44793 0.38975,-2.11926 0.35806,-2.35117c-0.00344,-0.02518 -2.04549,0.00039 -2.16936,-0.34627c-0.15028,-0.42058 0.53902,-2.22497 0.70239,-2.77253c0.06709,-0.21229 0.1125,-0.43062 0.13872,-0.6463c-0.17652,-0.17916 -0.06082,-0.56691 -0.06082,-0.56691l0.08524,-0.04669c-0.00107,-0.02512 -0.00241,-0.05006 -0.004,-0.07482z" fill="#212121" stroke="none" stroke-width="0.5"/><path d="M232.03303,193.09212c0.41102,-0.36773 0.57525,0.09181 0.57525,0.09181l0.18564,0.59746c0.03472,1.01833 -0.41662,2.25582 -0.39257,3.15762c0.01019,0.38208 0.55408,0.11683 0.79387,0.26102c0.15158,0.09114 0.96919,1.07145 1.00946,1.24744c0.19409,0.84806 0.22995,2.43327 0.17413,3.42964c0,0 -0.03694,0.57548 -0.47801,0.69887c-0.44108,0.12339 -0.40413,-0.4521 -0.40413,-0.4521c0.07001,-0.94199 0.00163,-2.21616 -0.14158,-3.03179c-0.19546,-1.1133 -1.59059,-0.51378 -1.82927,-1.64847c-0.15804,-0.75135 0.44178,-2.36081 0.38438,-3.25518l-0.12398,-0.26907c0,0 -0.16422,-0.45954 0.2468,-0.82727z" fill="#000000" stroke="none" stroke-width="0.5"/><path d="M234.3892,184.30059c0.40676,0.06492 0.23222,0.64989 0.23222,0.64989l-0.20169,0.46273c1.08303,0.96856 1.03731,4.88063 1.12533,6.76457c0,0 0.0258,0.55224 -0.41606,0.75577c-0.44187,0.20353 -0.46767,-0.34871 -0.46767,-0.34871c-0.09849,-2.10782 -0.08137,-5.30549 -1.11712,-6.66702l0.26371,-1.0972c0,0 0.17453,-0.58496 0.58129,-0.52004z" fill="#000000" stroke="none" stroke-width="0.5"/><path d="M222.06542,197.04129c0.40675,0.06493 0.23223,0.6499 0.23223,0.6499l-0.11635,0.38998c-0.9844,3.29942 -1.29517,6.24537 -2.25012,9.44607c0,0 -0.17452,0.58497 -0.58128,0.52005c-0.40675,-0.06493 -0.23221,-0.6499 -0.23221,-0.6499c0.94792,-3.17716 1.26787,-6.15391 2.25011,-9.44607l0.11635,-0.38998c0,0 0.17453,-0.58497 0.58128,-0.52004z" fill="#212121" stroke="none" stroke-width="0.5"/><path d="M237.33968,179.79914c0.33802,-0.49418 0.62377,-0.17451 0.62377,-0.17451l0.4674,0.53414c0.4349,1.21707 0.43928,2.92788 0.24889,4.4816c-0.05658,0.46162 -0.53645,0.97107 -0.46363,1.37883c0.08508,0.47644 0.66903,0.41679 0.82525,0.83768c0.30095,0.8108 0.38344,1.87937 0.11112,2.90237c0,0 -0.17453,0.58497 -0.58128,0.52005c-0.40676,-0.06492 -0.23223,-0.64989 -0.23223,-0.64989c0.62879,-1.7603 -0.82704,-1.91838 -0.99837,-3.10559c-0.09615,-0.66619 0.3929,-1.11785 0.4672,-1.74102c0.1474,-1.23642 0.21187,-2.77798 -0.13577,-3.75084l-0.38457,-0.41897c0,0 -0.28576,-0.31968 0.05225,-0.81384z" fill="#000000" stroke="none" stroke-width="0.5"/></g></g><path d="M208.70226,203.6338c0.70943,-0.34299 1.42808,-0.64288 2.10171,-0.75452c0.90335,-0.14971 1.83717,0.0003 2.73665,-0.13158c1.06886,-0.15672 1.71994,-1.29858 2.96215,-0.61455c0.24377,0.13423 0.22867,0.51377 0.40109,0.73221c0.87407,1.1074 1.77365,1.64204 2.35328,2.98738c0.85559,1.98583 1.50776,4.95114 2.84429,6.64494c1.71668,2.17558 2.15928,6.01313 0.61708,8.46547c-0.62584,1.542 -0.77612,3.47962 -1.95358,4.78766c-0.35499,0.39436 -1.4714,0.68711 -1.97307,0.90326c-0.45225,0.19485 -1.65771,0.90623 -2.11455,0.80675c-0.67769,-0.14757 -1.72367,-1.87911 -2.12326,-3.23985c-0.53157,0.59859 -2.48234,1.97558 -3.39546,1.77675c-1.37706,-0.29987 -1.39093,-1.88715 -1.55283,-2.87878c-0.25402,-1.5559 -0.94098,-2.97826 0.21793,-4.3989c0.10075,-0.1235 0.19844,-0.28992 0.29767,-0.4765c-0.19042,0.08748 -0.39582,0.15066 -0.62455,0.17576c-3.55036,0.38968 -2.99293,-4.46037 -1.93546,-6.34812c0.08558,-0.15276 0.22528,-0.37169 0.39482,-0.60188c-1.02317,0.03143 -2.27558,-0.29184 -2.74446,-0.3166c-0.24452,-0.0129 -0.45612,0.31325 -0.69183,0.24694c-1.66274,-0.46774 -1.52301,-2.41347 -0.88256,-3.57365c1.12953,-2.04613 2.33793,-3.22614 4.54167,-4.18359c0,0 0.27009,-0.11637 0.52328,-0.00861z" fill="#001a3a" stroke="#e3efff" stroke-width="1.5"/></g><g stroke="#e3efff" stroke-width="1" stroke-linecap="butt"><path d="M221.35883,219.5717v-67.89114h78.00259v67.89114z" fill="url(#color-1)"/><path d="M223.19346,218.95946c0,0 20,-6.10917 20,-13.78729c0,-4.49588 -20,-9.31066 -20,-14.33333c0,-3.1096 24.66666,-7.50445 24.66666,-10.33334c0,-3.95675 -24.66666,-6.12507 -24.66666,-8.66666c0,-7.92594 0,-19.54604 0,-19.54604h74.33334c0,0 0,11.6201 0,19.54604c0,2.96231 -25.66667,4.89549 -25.66667,9.66666c0,6.40187 25.66667,16.04569 25.66667,22.33334c0,2.54328 -24.33334,-1.74744 -24.33334,0.33333c0,4.86813 24.33334,14.7873 24.33334,14.7873z" fill="url(#color-2)"/></g><g stroke-linecap="round"><path d="M241.71353,121.66667l22.33333,12.33333l1,17.33333h-25.33333v-15.33333l-7.33333,-9" fill="url(#color-3)" stroke="#9966ff" stroke-width="0.5"/><path d="M237.96353,135.75l9.75,-9" fill="none" stroke="#000000" stroke-width="1"/><path d="M256.96353,131.75l-16.5,9.5" fill="none" stroke="#000000" stroke-width="1"/><path d="M263.21353,135.5l-23.25,11.5" fill="none" stroke="#000000" stroke-width="1"/><path d="M263.96353,147.25l-25,3.5" fill="none" stroke="#000000" stroke-width="1"/></g><g stroke-linecap="butt"><g><g><path d="M240.04637,131.43752c-3.35163,1.39602 -1.24039,-7.11183 -3.55378,-12.66595c-2.31339,-5.55412 -8.17539,-6.05129 -4.82376,-7.4473c3.35163,-1.39602 7.94404,1.9748 10.25743,7.52892c2.31339,5.55412 1.47174,11.18832 -1.87989,12.58434z" fill="url(#color-4)" stroke="#e3efff" stroke-width="0.5"/><path d="M238.09866,128.42907c-2.9102,1.11342 -6.74273,-1.83501 -8.56021,-6.58548c-1.81748,-4.75047 2.65191,-9.29318 5.5621,-10.40658c1.85203,-0.70856 2.62628,0.14248 3.41289,2.07944c0.44943,1.10667 0.90291,2.56785 1.56375,4.29513c1.81748,4.75047 0.93166,9.50408 -1.97854,10.6175z" fill="url(#color-5)" stroke="#e3efff" stroke-width="1"/><path d="M231.94515,125.13393c-1.10441,1.4625 -1.94993,-0.29565 -3.16408,-1.21252c-1.21415,-0.91687 0.37737,-3.61656 1.48178,-5.07907c1.10441,-1.4625 2.68007,-0.87902 3.89422,0.03785c1.21415,0.91687 -1.10751,4.79124 -2.21192,6.25374z" fill="#5d8d03" stroke="#000000" stroke-width="0"/><path d="M234.63947,124.66275c-1.42062,4.3296 -6.91838,5.84905 -11.07554,7.28572c-3.58634,1.23939 -8.2528,1.67983 -11.62933,0.57194c-1.59341,-0.52282 -2.05941,-2.18673 -3.58005,-2.70233c-2.21786,-0.75201 -4.94441,-1.43958 -5.76339,-3.44911c-0.75943,-1.86342 -0.02315,-4.31844 0.47115,-6.84296c0.42673,-2.17943 0.52099,-4.41961 1.12784,-6.26907c0.5502,-1.67684 2.44526,-1.97823 3.9962,-3.14643c0.64221,-0.48372 1.08181,-1.61455 1.57016,-2.26296c0.40713,-0.54057 1.46669,-0.90654 1.8784,-1.44487c1.96651,-2.57126 3.58728,-5.51736 5.57892,-7.30073c1.69266,-1.51566 3.70976,-2.14877 5.83397,-1.45178c1.94811,0.63921 6.19372,-0.27609 8.23922,1.71084c3.04661,2.95939 3.67964,10.38212 4.04448,14.18455c0.3069,3.1986 0.19387,8.4172 -0.69205,11.1172z" fill="#9966ff" stroke="#e3efff" stroke-width="1"/><path d="M234.81768,123.61569c-1.29195,1.71085 -4.17359,1.71259 -6.43633,0.00389c-2.26274,-1.70871 -2.07285,-4.52769 -0.7809,-6.23854c1.29195,-1.71085 3.52715,-3.14223 5.78989,-1.43352c2.26274,1.70871 2.71929,5.95732 1.42734,7.66818z" fill="#58ff00" stroke="#000000" stroke-width="0"/><path d="M225.92055,120.64457c0.87114,-1.15359 1.88871,-0.83302 3.22657,-0.9163c1.0943,-0.06812 2.75542,-1.07135 3.699,-0.35882c2.09718,1.58369 2.25265,4.91295 0.66897,7.01012c-1.58369,2.09718 -4.5676,2.51344 -6.66477,0.92976c-2.09718,-1.58369 -2.51345,-4.5676 -0.92976,-6.66478z" fill="#070707" stroke="#000000" stroke-width="1"/><path d="M228.30761,122.05488c-0.52095,0.68986 -1.59198,0.75922 -2.39222,0.15492c-0.80024,-0.6043 -1.02665,-1.65342 -0.5057,-2.34328c0.52095,-0.68986 1.59198,-0.75922 2.39222,-0.15492c0.80024,0.6043 1.02665,1.65342 0.5057,2.34328z" fill="#58ff00" stroke="none" stroke-width="0"/><g fill="url(#color-6)" stroke="none" stroke-width="0"><path d="M216.42471,129.27134c-0.07273,0.0963 0.25574,2.52721 0.15103,2.58329c-1.25732,0.6735 -5.11872,-3.79061 -7.86981,-5.8681c-2.9802,-2.25049 -6.75207,-4.14938 -5.80609,-5.40208c0.48982,-0.64865 0.14626,-7.83291 2.04842,-7.44033c1.77139,0.36559 6.26214,5.91433 7.69919,6.99953c2.9802,2.25049 4.72324,7.87499 3.77726,9.12769z"/></g><path d="M232.80869,111.78474c-0.06971,0.37634 -0.44603,0.30663 -0.44603,0.30663l-0.07832,-0.12851c-0.32988,0.22393 -0.69456,0.40065 -1.07035,0.53385c-0.72122,0.33287 -1.39996,0.73762 -2.00063,-0.06626c-0.00791,-0.01058 -0.0156,-0.02127 -0.0231,-0.03207c-0.04412,0.0637 -0.11103,0.12358 -0.21,0.17266c-0.45719,0.22671 -0.68389,-0.23047 -0.68389,-0.23047l0.02527,-0.07033c-0.52995,-0.40325 -0.94103,-0.87057 -1.47092,-1.27246c-1.42083,-1.76051 -3.98335,-2.42958 -5.61874,-3.98787c-0.51011,-0.48606 -0.63006,-1.31898 -0.9298,-1.97404c-0.03012,-0.00945 -0.05993,-0.01814 -0.08939,-0.02603c-0.38912,-0.10418 -1.71964,0.19348 -2.02622,-0.03804c-0.15296,-0.11551 -0.24457,-0.9418 -0.27811,-1.18224c-0.13138,-0.94177 -0.1869,-1.91801 -0.50377,-2.81572c0,0 -0.12619,-0.36132 0.23513,-0.48752c0.36133,-0.1262 0.48752,0.23513 0.48752,0.23513c0.32932,0.95187 0.40029,1.96632 0.53924,2.96235c0.0312,0.22363 -0.19892,0.54106 -0.01872,0.67713c0.20291,0.15323 0.48155,-0.2296 0.73466,-0.20534c0.02753,0.00263 0.05512,0.00499 0.08275,0.00714c-0.11555,-0.06798 -0.37793,-0.27057 -0.21971,-0.6429c0.19958,-0.46967 0.66925,-0.27009 0.66925,-0.27009c0.6045,0.2616 0.907,0.75118 1.16449,1.28401c0.72277,0.35363 1.4862,0.91415 2.04395,1.33533c2.42479,1.83108 5.76082,3.19475 6.75011,6.17353c0.11899,0.3583 0.86574,-0.16809 1.05324,-0.25535c0.32477,-0.11155 0.64258,-0.25866 0.92417,-0.45521l0.65136,0.00664c0,0 0.37634,0.06971 0.30663,0.44603z" fill="#212121" stroke="none" stroke-width="0.5"/><path d="M229.34663,108.63893c-0.23065,0.30543 -0.53608,0.07478 -0.53608,0.07478l-0.18468,-0.16407c-1.6974,-2.47303 -4.1412,-4.51482 -6.53086,-6.31937c0,0 -0.30543,-0.23065 -0.07478,-0.53608c0.23065,-0.30543 0.53608,-0.07478 0.53608,-0.07478c2.45406,1.85318 4.95289,3.95839 6.70036,6.4966l0.01517,-0.01316c0,0 0.30543,0.23065 0.07478,0.53608z" fill="#212121" stroke="none" stroke-width="0.5"/><path d="M228.56926,98.6555c-0.23065,0.30543 -0.53608,0.07478 -0.53608,0.07478l0.10823,0.00118c-1.24804,-0.08189 -2.20759,0.28235 -3.03306,1.39026c0,0 -0.23065,0.30543 -0.53608,0.07478c-0.30543,-0.23065 -0.07478,-0.53608 -0.07478,-0.53608c0.99254,-1.29958 2.17076,-1.76959 3.68889,-1.6931l0.30808,0.1521c0,0 0.30543,0.23065 0.07478,0.53608z" fill="#0e1501" stroke="none" stroke-width="0.5"/><path d="M232.98668,102.59366c0.05288,0.37906 -0.32618,0.43195 -0.32618,0.43195l-0.45891,-0.04916c-1.22908,-0.95003 -3.3117,0.16572 -4.26803,1.08361c0,0 -0.27771,0.26336 -0.54107,-0.01436c-0.26336,-0.27772 0.01437,-0.54107 0.01437,-0.54107c1.27974,-1.20099 3.66433,-2.31918 5.25603,-1.13904l-0.10813,-0.09811c0,0 0.37906,-0.05288 0.43195,0.32618z" fill="#0e1501" stroke="none" stroke-width="0.5"/><path d="M234.82997,106.36461c-0.23065,0.30543 -0.53608,0.07478 -0.53608,0.07478l0.00849,-0.01819c-0.96119,-0.33979 -2.80921,-0.36827 -3.71516,0.09224c0,0 -0.34289,0.17003 -0.51292,-0.17285c-0.17003,-0.34289 0.17285,-0.51292 0.17285,-0.51292c1.11908,-0.5439 3.10407,-0.52042 4.29967,-0.13185l0.20836,0.13272c0,0 0.30543,0.23065 0.07478,0.53608z" fill="#0e1501" stroke="none" stroke-width="0.5"/><path d="M233.28678,110.27236c0.08736,-0.07518 0.26404,-0.17519 0.47713,-0.01427c0.30543,0.23065 0.07478,0.53608 0.07478,0.53608l-0.40338,0.25136c-0.8511,-0.05037 -1.45967,-0.00024 -2.24638,-0.36983c0,0 -0.34473,-0.16627 -0.17847,-0.51101c0.16626,-0.34473 0.51099,-0.17846 0.51099,-0.17846c0.60496,0.30145 1.1228,0.26299 1.76532,0.28613z" fill="#0e1501" stroke="none" stroke-width="0.5"/><path d="M233.4742,99.03901c0.05288,0.37906 -0.32618,0.43195 -0.32618,0.43195l-0.01145,-0.0392c-0.68928,0.46619 -1.46534,0.71905 -2.15773,1.19502c0,0 -0.3154,0.21682 -0.53221,-0.09858c-0.21682,-0.3154 0.09858,-0.53221 0.09858,-0.53221c0.69109,-0.47509 1.48314,-0.72146 2.15772,-1.19502l0.33933,-0.08814c0,0 0.37906,-0.05288 0.43195,0.32618z" fill="#0e1501" stroke="none" stroke-width="0.5"/><path d="M229.70092,99.16171c-0.05765,-0.09681 -0.09332,-0.24239 0.03376,-0.41069c0.23065,-0.30543 0.53608,-0.07478 0.53608,-0.07478l0.23197,0.50312c-0.04215,0.12508 -0.08431,0.25017 -0.12646,0.37524c0,0 -0.12222,0.36269 -0.48491,0.24047c-0.36269,-0.12222 -0.24048,-0.48492 -0.24048,-0.48492c0.01668,-0.04948 0.03334,-0.09896 0.05003,-0.14844z" fill="#0e1501" stroke="none" stroke-width="0.5"/><path d="M235.10538,108.46079c-0.12222,0.36269 -0.48491,0.24047 -0.48491,0.24047l-0.43177,-0.15071c-0.26081,-0.1953 -0.54518,-0.36435 -0.84583,-0.48994c0,0 -0.35225,-0.14968 -0.20257,-0.50192c0.14968,-0.35224 0.50194,-0.20257 0.50194,-0.20257c0.31886,0.13742 0.62777,0.30716 0.90395,0.51758l0.31872,0.10219c0,0 0.36269,0.12222 0.24047,0.48491z" fill="#0e1501" stroke="none" stroke-width="0.5"/><path d="M232.81898,119.85972c1.69584,1.84067 1.63933,4.67683 0.0801,6.74163c-0.09894,0.12929 -0.20395,0.2451 -0.31442,0.34952c-0.26817,0.20068 -0.56772,0.36882 -0.90053,0.49711c-0.7606,0.29319 -1.10295,0.66881 -1.84984,0.24089c0.03169,-0.04347 0.0641,-0.08433 0.09718,-0.12281l0.2457,-0.3105c0.06102,-0.01771 0.12205,-0.03518 0.18294,-0.05265c0.40046,-0.24392 0.86138,-0.32751 1.34414,-0.52606c0.21809,-0.13796 0.41599,-0.31058 0.58395,-0.53679c1.31012,-1.73491 1.42007,-4.06852 0.07449,-5.64295c-0.1179,-0.04552 -0.17655,-0.14783 -0.20455,-0.22202c-0.13923,-0.14034 -0.29132,-0.27343 -0.45652,-0.39817c0,0 -0.30543,-0.23065 -0.07478,-0.53608c0.01194,-0.0158 0.02407,-0.03018 0.03635,-0.04322l-0.72598,0.08907c0.24273,0.11691 1.11883,-0.20958 1.34662,-0.06125l0.05547,-0.04856c0.68144,0.51459 1.34672,1.11835 2.00912,1.6761c0.39162,2.04283 -0.03004,4.70046 -1.7638,5.99789c-0.61716,0.58347 -1.40409,0.81186 -2.24825,1.05341l-0.50211,-0.31543l0.09718,-0.12281c0.13272,-0.15436 0.2763,-0.27036 0.42865,-0.36315c0.47595,-0.13652 0.94403,-0.27295 1.34414,-0.52606c0.04904,-0.02016 0.09831,-0.04153 0.14774,-0.06435c1.83886,-0.84898 1.89328,-3.64939 1.83652,-5.27168c-0.40174,-0.2372 -0.74315,-0.53285 -1.0799,-0.83286c-0.01342,0.00299 -0.02746,0.00552 -0.04215,0.00757c-0.0824,0.01149 -0.1494,0.00258 -0.20377,-0.01841c-0.0648,-0.07581 -0.13297,-0.14988 -0.20455,-0.22202c-0.0185,-0.04901 -0.02363,-0.08574 -0.02363,-0.08574l0.07335,0.06056c-0.05174,-0.05821 -0.09748,-0.13042 -0.13214,-0.20882c-0.08776,-0.07326 -0.17709,-0.14497 -0.26888,-0.21429l-0.14367,-0.52919c0.22509,-0.23896 0.49972,-0.03156 0.49972,-0.03156c0.03384,0.02556 0.06722,0.05142 0.10014,0.07758l0.02079,-0.0182c0.18278,0.11903 0.35254,0.25435 0.49615,0.41592z" fill="#070707" stroke="none" stroke-width="0.5"/><path d="M206.06,130.11479c-0.20362,-0.15376 -0.04986,-0.35738 -0.04986,-0.35738l0.1,-0.13243c0.52601,-0.69656 0.33171,-1.22113 0.80271,-1.88905c0,0 0.15377,-0.20363 0.35738,-0.04986c0.20362,0.15376 0.04986,0.35738 0.04986,0.35738c-0.42263,0.50659 -0.31578,1.24425 -0.80271,1.88905l-0.1,0.13243c0,0 -0.15376,0.20362 -0.35738,0.04986z" fill="#0e1501" stroke="none" stroke-width="0.5"/><path d="M209.39472,132.33142c-0.25271,0.03526 -0.28796,-0.21746 -0.28796,-0.21746l-0.0306,-0.31414c0.10463,-0.56488 -0.00221,-1.10085 0.31757,-1.56666c0,0 0.15376,-0.20362 0.35738,-0.04986c0.20362,0.15376 0.04986,0.35738 0.04986,0.35738c-0.23639,0.26441 -0.14887,0.95167 -0.22303,1.35207l0.03425,0.15069c0,0 0.03526,0.25271 -0.21746,0.28796z" fill="#0e1501" stroke="none" stroke-width="0.5"/><path d="M207.78422,130.58508c-0.20362,-0.15376 -0.04986,-0.35738 -0.04986,-0.35738l0.1,-0.13243c0.31137,-0.41233 0.46317,-0.66475 0.92267,-0.90178c0,0 0.22859,-0.11336 0.34195,0.11523c0.11336,0.22859 -0.11523,0.34195 -0.11523,0.34195c-0.38252,0.17939 -0.48029,0.40536 -0.74215,0.75213l-0.1,0.13243c0,0 -0.15376,0.20362 -0.35738,0.04986z" fill="#0e1501" stroke="none" stroke-width="0.5"/><path d="M211.0596,133.68231c-0.20362,-0.15376 -0.04986,-0.35738 -0.04986,-0.35738l0.05273,-0.02512c0.09842,-0.50558 0.01255,-0.84764 0.1794,-1.36196c0,0 0.08148,-0.24179 0.32329,-0.16031c0.24179,0.08148 0.16031,0.32329 0.16031,0.32329c-0.16541,0.46873 -0.0757,0.81045 -0.16121,1.29193l-0.14727,0.23972c0,0 -0.15377,0.20363 -0.35738,0.04986z" fill="#0e1501" stroke="none" stroke-width="0.5"/></g><path d="M214.00907,111.27568c-1.10441,1.4625 -1.94993,-0.29565 -3.16408,-1.21252c-1.21415,-0.91687 0.37737,-3.61657 1.48178,-5.07907c1.10441,-1.4625 2.68007,-0.87903 3.89422,0.03784c1.21415,0.91687 -1.10751,4.79124 -2.21192,6.25374z" fill="#58ff00" stroke="#000000" stroke-width="0"/><path d="M213.87391,110.21553c-0.48689,1.48391 -1.97995,2.32646 -3.33481,1.88191c-1.35487,-0.44456 -2.0585,-2.00788 -1.5716,-3.49178c0.48689,-1.48391 2.58964,-3.4929 3.9445,-3.04833c0.46704,0.15324 0.20003,1.68225 0.48564,2.07698c0.54293,0.7504 0.79533,1.60884 0.47627,2.58124z" fill="#070707" stroke="#000000" stroke-width="1"/><path d="M211.33207,109.31425c-0.42197,0.55879 -1.1667,0.70771 -1.6634,0.33263c-0.4967,-0.37508 -0.55728,-1.13214 -0.13531,-1.69091c0.42197,-0.55879 1.16669,-0.70771 1.66339,-0.33263c0.4967,0.37508 0.55728,1.13214 0.13531,1.69092z" fill="#58ff00" stroke="none" stroke-width="0"/><path d="M215.03734,107.39968c-0.3154,0.21682 -0.53221,-0.09858 -0.53221,-0.09858l-0.18552,-0.27859c-0.49554,-0.36554 -0.74772,-0.60772 -1.37127,-0.63913c0,0 -0.38207,-0.02249 -0.35958,-0.40456c0.02249,-0.38208 0.40456,-0.35959 0.40456,-0.35959c0.82795,0.05434 1.23569,0.37909 1.87948,0.87419l0.26312,0.37403c0,0 0.21682,0.31541 -0.09858,0.53222z" fill="#58ff00" stroke="none" stroke-width="0.5"/><path d="M222.93153,96.72535c-0.06283,-0.09641 -0.10964,-0.24854 0.02429,-0.4259c0.23065,-0.30543 0.53608,-0.07478 0.53608,-0.07478l0.23197,0.50312c-0.14063,0.40417 -0.14455,0.79068 -0.27944,1.2012c0,0 -0.12222,0.36269 -0.48491,0.24047c-0.36269,-0.12222 -0.24047,-0.48491 -0.24047,-0.48491c0.11271,-0.32392 0.1376,-0.6365 0.21248,-0.95917z" fill="#0e1501" stroke="none" stroke-width="0.5"/><path d="M210.321,111.45549c0.02249,-0.38208 0.40456,-0.35959 0.40456,-0.35959l0.40912,0.02704c1.53509,0.30458 1.94998,-1.2399 1.94996,-2.4726c0,0 0.00125,-0.38273 0.38398,-0.38147c0.38273,0.00125 0.38148,0.38399 0.38148,0.38399c-0.01077,1.74523 -0.80057,3.5827 -2.85484,3.22274l-0.31469,-0.01556c0,0 -0.38208,-0.02248 -0.35959,-0.40456z" fill="#070707" stroke="none" stroke-width="0.5"/><path d="M202.14947,128.40936c-0.20362,-0.15376 -0.04986,-0.35738 -0.04986,-0.35738c0.43333,-0.57383 1.16665,-1.54492 1.59997,-2.11875c0,0 0.15376,-0.20362 0.35738,-0.04986c0.20362,0.15376 0.04986,0.35738 0.04986,0.35738c-0.43333,0.57383 -0.86665,1.14765 -1.29998,1.72148l-0.29999,0.39727c0,0 -0.15377,0.20362 -0.35738,0.04986z" fill="#0e1501" stroke="none" stroke-width="0.5"/></g><g text-anchor="start"><g><g><g fill="none" stroke="none" stroke-width="1" font-family="sans-serif" font-weight="normal" font-size="12"/><g fill="url(#color-7)" stroke="#000000" stroke-width="3.5" font-family="&quot;Helvetica Neue&quot;, Helvetica, Arial, sans-serif" font-weight="400" font-size="16"/><g fill="none" stroke="none" stroke-width="1" font-family="sans-serif" font-weight="normal" font-size="12"/></g><g><g fill="url(#color-8)" stroke="#000000" stroke-width="3.5" font-family="&quot;Helvetica Neue&quot;, Helvetica, Arial, sans-serif" font-weight="400" font-size="16"/><g fill="url(#color-9)" stroke="#e3efff" stroke-width="3.5" font-family="&quot;Helvetica Neue&quot;, Helvetica, Arial, sans-serif" font-weight="400" font-size="16"/><g fill="none" stroke="none" stroke-width="1" font-family="sans-serif" font-weight="normal" font-size="12"/></g></g><g data-paper-data="{&quot;index&quot;:null}"><g><g fill="url(#color-10)" stroke="#000000" stroke-width="3.5" font-family="&quot;Helvetica Neue&quot;, Helvetica, Arial, sans-serif" font-weight="400" font-size="16"/><g fill="url(#color-11)" stroke="#000000" stroke-width="3.5" font-family="&quot;Helvetica Neue&quot;, Helvetica, Arial, sans-serif" font-weight="400" font-size="16"/><g fill="none" stroke="none" stroke-width="1" font-family="sans-serif" font-weight="normal" font-size="12"/></g><g><g fill="url(#color-12)" stroke="#000000" stroke-width="3.5" font-family="&quot;Helvetica Neue&quot;, Helvetica, Arial, sans-serif" font-weight="400" font-size="16"/><g fill="none" stroke="none" stroke-width="1" font-family="sans-serif" font-weight="normal" font-size="12"/><g fill="none" stroke="none" stroke-width="1" font-family="sans-serif" font-weight="normal" font-size="12"/></g></g></g></g><g data-paper-data="{&quot;index&quot;:null}"><g stroke="#000000" stroke-width="2"><path d="M299.09108,95.73367c-3.34804,14.02942 -10.90302,24.24725 -16.87451,22.82218c-5.97149,-1.42506 -8.0982,-13.9534 -4.75017,-27.98279c3.34804,-14.02942 10.90301,-24.24724 16.87449,-22.82217c5.97149,1.42506 8.09822,13.95339 4.75018,27.98278z" fill="#9966ff" stroke-linecap="butt"/><path d="M299.49908,110.97967l-11.8558,15.61502l-2.77407,-10.30019l-13.19579,11.44584l-3.6633,-22.07702" fill="#58ff00" stroke-linecap="round"/><path d="M300.2355,78.40895c-0.70622,2.95931 -3.27789,4.88121 -5.74398,4.29269c-2.46609,-0.58852 -3.89273,-3.4646 -3.18651,-6.4239c0.70622,-2.95931 3.27788,-4.88121 5.74397,-4.29269c2.46609,0.58852 3.89274,3.4646 3.18652,6.42391z" fill="#58ff00" stroke-linecap="butt"/><path d="M287.31769,70.69245l1.71409,5.04279l-1.09235,3.85819l3.0297,3.12571l-0.73624,3.08508l4.83243,1.32486l-5.36942,5.24017l-8.14626,-8.29399l-2.03335,-0.82849" fill="#00e6ff" stroke-linecap="round"/><path d="M298.64128,80.77442l-2.7566,-7.86588" fill="none" stroke-linecap="round"/><path d="M284.21319,77.58865l6.82889,-1.28785l-5.22367,7.50601l6.91377,-0.92436l-2.37658,4.92468" fill="none" stroke-linecap="round"/></g><g stroke="#545454" stroke-width="1"><path d="M300.35901,149.77814c0,1.51048 -1.31275,2.38679 -2.6981,2.38679c-3.83673,0 -22.02678,0 -28.22642,0c-1.30226,0 -2.07547,-0.69029 -2.07547,-1.5566c0,-6.89786 0,-37.90592 0,-43.37737c0,-1.59381 0.85577,-3.00942 2.28303,-3.00942c6.38801,0 24.22407,0 28.01887,0c1.38535,0 2.6981,1.30652 2.6981,2.80189c0,5.1041 0,34.17051 0,42.75472z" fill="#a1a1a0" stroke-linecap="butt"/><path d="M296.00053,152.16494l-3.73585,-48.56604" fill="none" stroke-linecap="round"/><path d="M279.18921,104.63665l1.86792,47.94339" fill="none" stroke-linecap="round"/><path d="M272.75524,152.78758l-0.4151,-48.56604" fill="none" stroke-linecap="round"/></g><g fill="#c1c1c1" stroke="#545454" stroke-width="1"><path d="M303.04409,65.38847c0.05275,0.14285 -0.90563,0.59081 -1.94926,0.97607c-2.89035,1.06699 -16.59361,6.12564 -21.26403,7.84975c-0.98105,0.36216 -1.58765,0.51191 -1.61789,0.42997c-0.24083,-0.65237 -1.32341,-3.58496 -1.51443,-4.10241c-0.05564,-0.15073 0.53961,-0.52262 1.61482,-0.91953c4.81235,-1.7765 18.24892,-6.7367 21.10769,-7.79203c1.04364,-0.38526 2.0782,-0.62677 2.13041,-0.48535c0.1782,0.48272 1.193,3.23168 1.4927,4.04353z" stroke-linecap="butt"/><path d="M285.26195,71.11984l-2.81961,-7.40456l10.38687,-3.14495l2.95216,5.54589" stroke-linecap="round"/><path d="M286.46091,69.81546l-1.07543,-5.24766l6.55505,-1.3857l1.96109,4.14511" stroke-linecap="round"/></g></g></g></g></svg>