<svg version="1.1" xmlns="http://www.w3.org/2000/svg" xmlns:xlink="http://www.w3.org/1999/xlink" width="52.65044" height="72.87864" viewBox="0,0,52.65044,72.87864"><g transform="translate(-213.67478,-143.56068)"><g data-paper-data="{&quot;isPaintingLayer&quot;:true}" fill-rule="nonzero" stroke-linecap="butt" stroke-linejoin="miter" stroke-miterlimit="10" stroke-dasharray="" stroke-dashoffset="0" style="mix-blend-mode: normal"><path d="M265.07522,179.25c0,19.43453 -5.61057,35.93932 -23.32522,35.93932c-17.71466,0 -26.82522,-15.0048 -26.82522,-34.43932c0,-19.43453 9.11057,-35.93932 26.82522,-35.93932c17.71466,0 23.32522,15.0048 23.32522,34.43932z" fill="#a16a04" stroke="#ab8c53" stroke-width="2.5"/><path d="M247.4812,164.70267c0,5.79899 -4.02944,10.5 -9,10.5c-4.97056,0 -9,-4.70101 -9,-10.5c0,-5.79899 4.02944,-10.5 9,-10.5c4.97056,0 9,4.70101 9,10.5z" fill="#edeee1" stroke="#000000" stroke-width="2.5"/><path d="M263.4812,166.95267c0,6.62742 -3.41383,12 -7.625,12c-4.21117,0 -7.625,-5.37258 -7.625,-12c0,-6.62742 3.41383,-12 7.625,-12c4.21117,0 7.625,5.37258 7.625,12z" fill="#edeee1" stroke="#000000" stroke-width="2.5"/><path d="M238.7312,164.70267c0,-1.38071 1.11929,-2.5 2.5,-2.5c1.38071,0 2.5,1.11929 2.5,2.5c0,1.38071 -1.11929,2.5 -2.5,2.5c-1.38071,0 -2.5,-1.11929 -2.5,-2.5z" fill="#050505" stroke="none" stroke-width="0.5"/><path d="M255.9812,165.45267c0,-1.38071 1.11929,-2.5 2.5,-2.5c1.38071,0 2.5,1.11929 2.5,2.5c0,1.38071 -1.11929,2.5 -2.5,2.5c-1.38071,0 -2.5,-1.11929 -2.5,-2.5z" fill="#050505" stroke="none" stroke-width="0.5"/><path d="M254.7312,189.20267c1.25,0 1.25,1.25 1.25,1.25l-0.25,1.25c-2.75203,3.66938 -6.74191,5.89379 -10.38759,8.58971c-6.91548,2.8195 -17.24588,0.35135 -20.04475,-7.43404c-0.71986,-2.00239 -0.31766,-4.56134 -0.31766,-6.65567c0,0 0,-1.25 1.25,-1.25c1.25,0 1.25,1.25 1.25,1.25c0,1.74755 -0.43357,4.17863 0.18234,5.84433c2.31168,6.25179 10.89292,8.23337 16.45525,6.06596c3.32895,-2.53825 7.07282,-4.52417 9.61241,-7.91029l-0.25,0.25c0,0 0,-1.25 1.25,-1.25z" fill="#050505" stroke="none" stroke-width="0.5"/></g></g></svg>