<svg version="1.1" xmlns="http://www.w3.org/2000/svg" xmlns:xlink="http://www.w3.org/1999/xlink" width="52.65044" height="72.87864" viewBox="0,0,52.65044,72.87864"><g transform="translate(-213.67478,-143.56068)"><g data-paper-data="{&quot;isPaintingLayer&quot;:true}" fill-rule="nonzero" stroke-linecap="butt" stroke-linejoin="miter" stroke-miterlimit="10" stroke-dasharray="" stroke-dashoffset="0" style="mix-blend-mode: normal"><path d="M265.07522,179.25c0,19.43453 -5.61057,35.93932 -23.32522,35.93932c-17.71466,0 -26.82522,-15.0048 -26.82522,-34.43932c0,-19.43453 9.11057,-35.93932 26.82522,-35.93932c17.71466,0 23.32522,15.0048 23.32522,34.43932z" fill="#a16a04" stroke="#ab8c53" stroke-width="2.5"/><path d="M247.4812,164.70267c0,5.79899 -4.02944,10.5 -9,10.5c-4.97056,0 -9,-4.70101 -9,-10.5c0,-5.79899 4.02944,-10.5 9,-10.5c4.97056,0 9,4.70101 9,10.5z" fill="#edeee1" stroke="#000000" stroke-width="2.5"/><path d="M263.4812,166.95267c0,6.62742 -3.41383,12 -7.625,12c-4.21117,0 -7.625,-5.37258 -7.625,-12c0,-6.62742 3.41383,-12 7.625,-12c4.21117,0 7.625,5.37258 7.625,12z" fill="#edeee1" stroke="#000000" stroke-width="2.5"/><path d="M238.7312,164.70267c0,-1.38071 1.11929,-2.5 2.5,-2.5c1.38071,0 2.5,1.11929 2.5,2.5c0,1.38071 -1.11929,2.5 -2.5,2.5c-1.38071,0 -2.5,-1.11929 -2.5,-2.5z" fill="#050505" stroke="none" stroke-width="0.5"/><path d="M255.9812,165.45267c0,-1.38071 1.11929,-2.5 2.5,-2.5c1.38071,0 2.5,1.11929 2.5,2.5c0,1.38071 -1.11929,2.5 -2.5,2.5c-1.38071,0 -2.5,-1.11929 -2.5,-2.5z" fill="#050505" stroke="none" stroke-width="0.5"/><path d="M242.7312,199.45267c0,1.25 -1.25,1.25 -1.25,1.25l-0.53576,-0.0894c-2.5021,0.91356 -5.49278,0.4167 -7.21424,-1.6606c0,0 -0.75,-1 0.25,-1.75c1,-0.75 1.75,0.25 1.75,0.25c0.71801,1.19389 3.06967,1.40125 4.28576,0.8394l1.46424,-0.0894c0,0 1.25,0 1.25,1.25z" fill="#050505" stroke="none" stroke-width="0.5"/><path d="M222.39019,166.80469c0.1691,-0.04258 0.37445,-0.06712 0.58098,-0.08138c0.21173,-0.28913 0.73474,-0.80582 1.56904,-0.38868c1.11803,0.55902 0.55902,1.67705 0.55902,1.67705l-1.36803,1.19098c-0.53776,-0.0029 -3.27102,-0.01496 -3.29249,-0.03332c-0.57332,-0.49043 -0.35656,-1.469 -0.45751,-2.21668c-0.06901,-0.51113 0.67231,-1.30976 0.20751,-1.53332c-0.51994,-0.25008 -1.13056,0.28332 -1.70751,0.28332c0,0 -1.25,0 -1.25,-1.25c0,-1.25 1.25,-1.25 1.25,-1.25c0.68736,0 2.89931,-0.05725 3.29249,0.28332c0.55628,0.48186 0.55426,1.37241 0.70143,2.09351c0.05699,0.27925 0.00924,0.81788 -0.08492,1.2252z" fill="#050505" stroke="none" stroke-width="0.5"/><path d="M222.92457,191.16261c1.04006,0.69338 0.34669,1.73344 0.34669,1.73344l-1.54006,1.30662c-1.45779,-0.02212 -3.40659,-1.43515 -4.28576,-0.8394c0,0 -1.1606,0.46424 -1.62483,-0.69636c-0.46424,-1.1606 0.69636,-1.62483 0.69636,-1.62483c2.51615,-0.77517 2.87761,0.71259 5.21424,0.6606l-0.54006,-0.19338c0,0 0.69338,-1.04006 1.73344,-0.34669z" fill="#050505" stroke="none" stroke-width="0.5"/></g></g></svg>