<svg version="1.1" xmlns="http://www.w3.org/2000/svg" xmlns:xlink="http://www.w3.org/1999/xlink" width="149.24918" height="212.07111" viewBox="0,0,149.24918,212.07111"><defs><radialGradient cx="260.36013" cy="185.62613" r="39.00129" gradientUnits="userSpaceOnUse" id="color-1"><stop offset="0" stop-color="#4000bf"/><stop offset="1" stop-color="#38a000"/></radialGradient><linearGradient x1="260.36012" y1="152.29279" x2="260.36012" y2="218.95946" gradientUnits="userSpaceOnUse" id="color-2"><stop offset="0" stop-color="#797979"/><stop offset="1" stop-color="#bfbfbf"/></linearGradient><radialGradient cx="256.06694" cy="141.32784" r="16.33333" gradientUnits="userSpaceOnUse" id="color-3"><stop offset="0" stop-color="#b5b5b5"/><stop offset="1" stop-color="#c9c9c9"/></radialGradient><radialGradient cx="241.01332" cy="127.91966" r="9.88289" gradientUnits="userSpaceOnUse" id="color-4"><stop offset="0" stop-color="#bc1818"/><stop offset="1" stop-color="#9b18bc"/></radialGradient><radialGradient cx="237.81102" cy="118.89359" r="7.46965" gradientUnits="userSpaceOnUse" id="color-5"><stop offset="0" stop-color="#bc1818"/><stop offset="1" stop-color="#9b18bc"/></radialGradient><radialGradient cx="204.7889" cy="117.96927" r="10.47714" gradientUnits="userSpaceOnUse" id="color-6"><stop offset="0" stop-color="#569ffe"/><stop offset="1" stop-color="#bfebf3"/></radialGradient><linearGradient x1="207.46702" y1="105.68672" x2="234.95309" y2="127.48358" gradientUnits="userSpaceOnUse" id="color-7"><stop offset="0" stop-color="#070707"/><stop offset="1" stop-color="#ff0000"/></linearGradient><linearGradient x1="207.55487" y1="106.44781" x2="235.04096" y2="128.24468" gradientUnits="userSpaceOnUse" id="color-8"><stop offset="0" stop-color="#070707"/><stop offset="1" stop-color="#ff0000"/></linearGradient><linearGradient x1="207.88216" y1="105.94262" x2="235.36825" y2="127.73949" gradientUnits="userSpaceOnUse" id="color-9"><stop offset="0" stop-color="#070707"/><stop offset="1" stop-color="#ff0000"/></linearGradient><linearGradient x1="207.63532" y1="105.47448" x2="235.12141" y2="127.27135" gradientUnits="userSpaceOnUse" id="color-10"><stop offset="0" stop-color="#ff0000" stop-opacity="0"/><stop offset="1" stop-color="#ff0000"/></linearGradient><linearGradient x1="207.18326" y1="105.73408" x2="234.66934" y2="127.53096" gradientUnits="userSpaceOnUse" id="color-11"><stop offset="0" stop-color="#ff0000" stop-opacity="0"/><stop offset="1" stop-color="#ff0000"/></linearGradient><linearGradient x1="207.28939" y1="105.81824" x2="234.77548" y2="127.61511" gradientUnits="userSpaceOnUse" id="color-12"><stop offset="0" stop-color="#ff0000" stop-opacity="0"/><stop offset="1" stop-color="#ff0000"/></linearGradient></defs><g transform="translate(-154.51248,-59.97272)"><g data-paper-data="{&quot;isPaintingLayer&quot;:true}" fill-rule="nonzero" stroke-linejoin="miter" stroke-miterlimit="10" stroke-dasharray="" stroke-dashoffset="0" style="mix-blend-mode: normal"><g data-paper-data="{&quot;index&quot;:null}"><path d="M292.73507,214.26805c0,0 0.43453,2.60925 0.89781,6.40725c0.45731,3.74901 -0.56151,8.88012 -0.43845,13.57945c0.11006,4.20318 0.22161,8.83029 0.33452,11.14474c0.21116,4.32858 1.21258,9.9976 1.21258,9.9976l-16.23061,2.62292c0,0 0.48578,-2.31806 -0.7033,-5.01398c-1.90087,-4.30969 -5.86187,-10.30314 -6.19465,-14.74959c-0.10981,-1.4673 -0.03104,-3.26004 0.15911,-5.22139c0.31483,-3.24754 0.93499,-6.95729 1.50993,-10.41713c0.83103,-5.00094 1.90734,-8.98011 1.90734,-8.98011" fill="#7f7f7f" stroke="#e3efff" stroke-width="1.5" stroke-linecap="round"/><g stroke="#0f0f0f" stroke-linecap="butt"><path d="M259.9457,270.53147c0,0 -3.5771,-4.09615 -4.45487,-6.1434c-0.93025,-2.16968 5.68887,-9.47377 5.68887,-9.47377l25.49803,-0.78682l1.09578,11.44768z" data-paper-data="{&quot;index&quot;:null}" fill="#000b20" stroke-width="0"/><path d="M261.69325,268.7823c-0.40679,-2.85495 -0.98978,-6.94637 -1.26956,-8.91001c-0.14426,-1.01246 0.91482,-4.92833 2.54746,-5.16096c3.93517,-0.56071 20.99865,-2.99204 28.95752,-4.12608c2.56302,-0.3652 4.20161,1.30434 4.37357,2.65521c0.36846,2.89463 1.70173,13.39832 1.70173,13.39832c0,0 -27.4676,3.91378 -32.67002,4.65506c-1.63264,0.23263 -3.41385,-0.91959 -3.64068,-2.51155z" data-paper-data="{&quot;index&quot;:null}" fill="#3b3b3b" stroke-width="1.5"/></g></g><g><path d="M249.13698,214.83021c0,0 0.12711,3.88851 0.23503,7.19032c0.06165,1.88603 -2.12706,4.93387 -2.00294,8.73107c0.0518,1.58477 0.81894,2.9203 0.87489,4.63205c0.16899,5.17 1.93083,11.19645 2.06499,15.30102c0.1274,3.8977 0.21448,6.56181 0.21448,6.56181l-18.21432,-4.47786c0,0 -2.33083,-13.04642 -2.00191,-19.05091c0.2984,-5.4471 3.89281,-15.46701 3.89281,-15.46701" fill="#7f7f7f" stroke="#e3efff" stroke-width="1.5" stroke-linecap="round"/><g stroke="#0f0f0f" stroke-linecap="butt"><path d="M220.15696,265.09795c0,0 -2.75886,-4.68646 -3.24332,-6.86062c-0.51343,-2.30418 7.34107,-8.25979 7.34107,-8.25979l25.20453,3.93702l-1.03783,11.45308z" fill="#000b20" stroke-width="0"/><path d="M221.18982,263.57842c0.12761,-2.88096 0.31048,-7.00967 0.39825,-8.99119c0.04525,-1.02168 1.80949,-4.67451 3.457,-4.60153c3.97102,0.17589 21.18997,0.93858 29.22135,1.29432c2.58637,0.11456 3.88835,2.05805 3.80779,3.41744c-0.17261,2.91288 -0.80266,13.48209 -0.80266,13.48209c0,0 -27.71785,-1.22772 -32.96767,-1.46026c-1.64751,-0.07298 -3.18522,-1.53441 -3.11407,-3.14087z" fill="#3b3b3b" stroke-width="1.5"/></g></g><g><g stroke-linecap="butt"><g><g><path d="M187.32838,206.65974c0,0 -12.61033,-36.66914 -16.77222,-49.88236c-2.72832,-8.66192 -6.99669,-26.51926 -6.99669,-26.51926l11.74213,-2.89203l25.17121,75.15344z" fill="#c70303" stroke="#9966ff" stroke-width="1"/><path d="M165.28194,137.79927c-0.00188,-0.05256 -0.00302,-0.10506 -0.00348,-0.15756l-0.03212,0.00546l-0.34282,-2.01265c-0.11834,-0.69472 0.34892,-1.35383 1.04364,-1.47216c0.54961,-0.09361 1.07693,0.17926 1.33184,0.64134l0.71671,1.23032l-0.03659,0.02131l0.08478,0.06964c0.92278,2.41834 2.31029,4.57914 3.2961,7.00296c2.14901,7.46214 4.11276,14.97966 6.29896,22.44098c2.69991,6.35351 4.79336,13.28679 5.9021,19.70263c0,0 0.21427,1.2579 -1.04363,1.47216c-1.2579,0.21427 -1.47217,-1.04364 -1.47217,-1.04364c-0.17919,-1.06965 -1.75553,-1.05311 -1.993,-2.13795c-0.18634,-0.11433 -0.15028,-1.17166 -0.25809,-1.36709l-0.04585,-1.34459c-0.48287,-0.8289 -0.46248,-1.74357 -0.94515,-2.57259c-1.6707,-2.63918 -1.65252,-5.88526 -2.61807,-8.82353c-2.3051,-7.01475 -6.75491,-14.87446 -6.83248,-22.51324c-0.03546,-0.10322 -0.07098,-0.20627 -0.10655,-0.30917l-0.23441,0.03993l-0.31426,-1.84494c-0.04029,-0.23657 -0.01268,-0.46898 0.06868,-0.67732c-0.82208,-2.0229 -2.39977,-4.54656 -2.46413,-6.35032z" fill="#870303" stroke="none" stroke-width="0.5"/><path d="M173.2822,139.98899c-0.50316,0.08571 -0.58887,-0.41746 -0.58887,-0.41746l-0.04285,-0.25158c-0.19161,-1.42133 -1.44063,-2.37839 -1.69196,-3.85387c0,0 -0.08571,-0.50317 0.41745,-0.58887c0.50316,-0.08571 0.58886,0.41745 0.58886,0.41745c0.24714,1.4509 1.41222,2.40291 1.69198,3.85389l0.04286,0.25159c0,0 0.0857,0.50316 -0.41746,0.58888z" fill="#0554ff" stroke="none" stroke-width="0.5"/><path d="M180.95581,148.7236c-0.41171,0.30167 -0.71339,-0.11004 -0.71339,-0.11004l-0.22075,-0.3456c-1.15299,-0.29689 -1.85745,0.40149 -2.18331,-1.28862c0,0 -0.0857,-0.50316 0.41746,-0.58886c0.50316,-0.0857 0.58886,0.41746 0.58886,0.41746c0.12179,0.90341 0.85909,0.3366 1.76736,0.62724l0.45382,0.57503c0,0 0.30167,0.41172 -0.11004,0.71339z" fill="#0554ff" stroke="none" stroke-width="0.5"/><path d="M180.82719,159.64583c-0.30167,-0.41171 0.11004,-0.7134 0.11004,-0.7134l0.28892,-0.11719c-0.42097,-0.82101 -0.16047,-1.01597 0.4603,-1.56369c0,0 0.41173,-0.30168 0.7134,0.11003c0.30167,0.41171 -0.11005,0.71339 -0.11005,0.71339c-0.44488,0.18046 -0.15792,0.55604 -0.11749,1.12351l-0.63171,0.55738c0,0 -0.41171,0.30167 -0.71339,-0.11003z" fill="#9b7137" stroke="none" stroke-width="0.5"/><path d="M183.65618,173.37505c-0.48837,-0.14836 -0.34,-0.63673 -0.34,-0.63673l0.16587,-0.54601c0.33068,-1.08217 0.70876,-1.59744 0.52015,-2.70473c0,0 -0.08571,-0.50317 0.41745,-0.58889c0.50316,-0.0857 0.58886,0.41747 0.58886,0.41747c0.21982,1.29054 -0.17982,1.94719 -0.54973,3.17287l-0.16587,0.54602c0,0 -0.14836,0.48837 -0.63674,0.34001z" fill="#0554ff" stroke="none" stroke-width="0.5"/><path d="M190.66225,178.19058c-0.50316,0.08571 -0.58886,-0.41745 -0.58886,-0.41745c-0.17141,-1.00632 -0.38567,-2.26423 -0.55709,-3.27056c0,0 -0.0857,-0.50316 0.41746,-0.58887c0.50315,-0.0857 0.58888,0.41746 0.58888,0.41746c0.17141,1.00634 0.34282,2.01265 0.51423,3.01897l0.04285,0.25158c0,0 0.0857,0.50315 -0.41746,0.58886z" fill="#0554ff" stroke="none" stroke-width="0.5"/><path d="M186.02148,179.82244c0.1365,0.04146 0.28373,0.14582 0.32658,0.39741c0.08571,0.50316 -0.41746,0.58887 -0.41746,0.58887l-0.84045,-0.37461c-0.0857,-0.50316 -0.1714,-1.00633 -0.25711,-1.50949c0,0 -0.0857,-0.50317 0.41746,-0.58887c0.50315,-0.0857 0.58888,0.41746 0.58888,0.41746c0.06071,0.35641 0.12141,0.71282 0.18212,1.06922z" fill="#0554ff" stroke="none" stroke-width="0.5"/><path d="M184.40306,164.24167c-0.04286,-0.25159 0.0615,-0.3988 0.17658,-0.48311c-0.00358,-0.02097 -0.00714,-0.04193 -0.01071,-0.0629c0,0 -0.0857,-0.50315 0.41747,-0.58886c0.50316,-0.08571 0.58886,0.41745 0.58886,0.41745c0.02857,0.16771 0.05713,0.33545 0.0857,0.50316l-0.66903,0.63172c0,0 -0.50316,0.08571 -0.58887,-0.41745z" fill="#9b7137" stroke="none" stroke-width="0.5"/><path d="M184.6135,162.59789c-0.41171,0.30167 -0.71339,-0.11004 -0.71339,-0.11004l-0.22076,-0.34558c-0.40596,-0.15682 -0.72516,-0.57988 -0.8397,-0.99974c0,0 -0.08571,-0.50315 0.41745,-0.58886c0.50316,-0.08571 0.58887,0.41744 0.58887,0.41744c-0.02456,0.17908 0.24616,0.30467 0.42375,0.33836l0.45381,0.57502c0,0 0.30169,0.41173 -0.11003,0.7134z" fill="#9b7137" stroke="none" stroke-width="0.5"/><path d="M177.49143,155.5815c-0.50315,0.0857 -0.58886,-0.41746 -0.58886,-0.41746c-0.19998,-1.17405 -0.48567,-2.85125 -0.68565,-4.0253c0,0 -0.0857,-0.50316 0.41745,-0.58886c0.50315,-0.0857 0.58886,0.41746 0.58886,0.41746c0.19999,1.17405 0.39996,2.34809 0.59995,3.52213l0.0857,0.50316c0,0 0.08571,0.50317 -0.41745,0.58887z" fill="#0554ff" stroke="none" stroke-width="0.5"/><path d="M178.44163,140.51181c-0.37618,-0.26668 -0.17158,-0.63228 -0.12856,-0.70041c-0.65259,-0.83828 -1.44612,-1.70917 -1.64283,-2.72941c0,0 -0.08571,-0.50317 0.41745,-0.58889c0.50316,-0.0857 0.58886,0.41747 0.58886,0.41747c0.1225,0.90872 1.13987,1.85065 1.6807,2.58873l-0.20404,0.89131c0,0 -0.29518,0.4164 -0.71158,0.1212z" fill="#9b7137" stroke="none" stroke-width="0.5"/><path d="M174.48209,147.03329c-0.50316,0.08571 -0.58887,-0.41746 -0.58887,-0.41746c-0.0857,-0.50316 -0.21426,-1.2579 -0.29997,-1.76107c0,0 -0.0857,-0.50316 0.41746,-0.58888c0.50316,-0.08571 0.58886,0.41745 0.58886,0.41745c0.0857,0.50315 0.17141,1.00633 0.25711,1.50949l0.04286,0.25157c0,0 0.0857,0.50317 -0.41746,0.58889z" fill="#9b7137" stroke="none" stroke-width="0.5"/><path d="M174.78062,136.62721c-0.50315,0.0857 -0.58887,-0.41745 -0.58887,-0.41745l-0.08571,-0.50317c-0.08274,-0.48575 0.11036,-0.74684 -0.36262,-0.76953c0,0 -0.48837,-0.14836 -0.34001,-0.63673c0.14837,-0.48838 0.63674,-0.34001 0.63674,-0.34001c0.97227,0.3946 0.90644,0.60161 1.07223,1.57486l0.08571,0.50315c0,0 0.0857,0.50316 -0.41746,0.58888z" fill="#0554ff" stroke="none" stroke-width="0.5"/><path d="M178.28758,143.53738c-0.50315,0.0857 -0.58885,-0.41746 -0.58885,-0.41746l-0.04285,-0.25158c-0.03642,-0.27014 -0.1639,-0.53259 -0.33156,-0.7475c0,0 -0.30167,-0.41171 0.11005,-0.71338c0.41171,-0.30167 0.71339,0.11002 0.71339,0.11002c0.2466,0.35094 0.43324,0.75829 0.51444,1.17945l0.04285,0.25158c0,0 0.0857,0.50316 -0.41746,0.58888z" fill="#4f340e" stroke="none" stroke-width="0.5"/><path d="M178.43755,151.12661c-0.4164,-0.29519 -0.12121,-0.71158 -0.12121,-0.71158l0.12196,0.08645c-0.06509,-0.38216 -0.2875,-0.97344 -0.1192,-1.27972c-0.22618,0.04378 -0.4603,0.08402 -0.59823,0.10752c0,0 -0.50316,0.08571 -0.58886,-0.41745c-0.08571,-0.50316 0.41745,-0.58886 0.41745,-0.58886c2.47375,-0.42137 1.69186,0.81359 1.89516,2.00711l-0.29549,0.67533c0,0 -0.29519,0.41641 -0.71158,0.12121z" fill="#0554ff" stroke="none" stroke-width="0.5"/><path d="M179.7407,160.86642c-0.30167,-0.41171 0.11003,-0.7134 0.11003,-0.7134l0.25755,-0.00338c-1.23137,-1.08767 1.43913,-1.89356 -0.29869,-1.59755c0,0 -0.50316,0.0857 -0.58887,-0.41747c-0.08571,-0.50316 0.41745,-0.58886 0.41745,-0.58886c2.8304,-0.48212 0.85284,1.60581 1.47899,2.7595l-0.66307,0.67119c0,0 -0.41172,0.30167 -0.71339,-0.11004z" fill="#4f340e" stroke="none" stroke-width="0.5"/><path d="M186.53464,173.71606c-0.50315,0.0857 -0.58888,-0.41745 -0.58888,-0.41745l0.0345,-0.25144c-2.57496,-0.12352 -1.62687,-2.20873 -0.45889,-3.45593c0,0 0.3511,-0.37046 0.72157,-0.01936c0.37046,0.3511 0.01935,0.72156 0.01935,0.72156c-1.43738,1.49546 -1.11275,1.43086 0.48389,2.07886l0.20591,0.75489c0,0 0.08571,0.50316 -0.41745,0.58888z" fill="#0554ff" stroke="none" stroke-width="0.5"/><path d="M189.44846,179.16512c-2.40497,0.2737 -0.11199,-1.78084 -0.75581,-2.21966c0,0 -0.30168,-0.41172 0.11003,-0.71339c0.41171,-0.30167 0.7134,0.11003 0.7134,0.11003c0.88418,1.53727 -0.82218,1.92152 -0.16087,1.81238c0.00409,-0.00085 0.00626,-0.00122 0.00626,-0.00122l0.00008,0.00018c0.06231,-0.01035 0.14486,-0.02485 0.25151,-0.04303l-0.04009,0.52458l0.2115,0.48174c-0.08862,0.01509 -0.17227,0.02773 -0.25121,0.03802l-0.00037,0.00484c0,0 -0.0334,0.00569 -0.08444,0.00553z" fill="#0554ff" stroke="none" stroke-width="0.5"/><path d="M180.892,167.9463c-0.50316,0.08571 -0.58887,-0.41746 -0.58887,-0.41746l0.04861,-0.03561c-0.30761,-0.75832 -2.01445,-0.46132 -0.6074,-1.88559c0,0 0.41172,-0.30167 0.71339,0.11003c0.24642,0.3363 0.01689,0.59917 -0.07549,0.6842c0.18087,0.02768 0.48726,0.14156 0.79291,0.488l0.13431,0.46756c0,0 0.0857,0.50316 -0.41746,0.58888z" fill="#0554ff" stroke="none" stroke-width="0.5"/><path d="M183.63355,154.70245c-0.52907,-0.16073 -0.36835,-0.6898 -0.36835,-0.6898l0.15694,-0.46566c-0.13544,-0.79513 0.19206,-0.88012 -0.26089,-1.61249c0,0 -0.26046,-0.48775 0.22731,-0.74822c0.48776,-0.26046 0.74821,0.22731 0.74821,0.22731c0.53462,1.1019 0.2115,1.1607 0.38906,2.20315l-0.20246,0.71738c0,0 -0.16074,0.52908 -0.6898,0.36835z" fill="#4f340e" stroke="none" stroke-width="0.5"/><path d="M171.56399,140.54056c-0.50316,0.08571 -0.58888,-0.41746 -0.58888,-0.41746l-0.04286,-0.25159c-0.11707,-0.68728 -0.61781,-1.45792 -1.28878,-1.6473c0,0 -0.48837,-0.14835 -0.34001,-0.63672c0.14837,-0.48838 0.63673,-0.34002 0.63673,-0.34002c1.54723,0.5214 1.70808,0.74829 1.99839,2.45263l0.04286,0.25158c0,0 0.08569,0.50317 -0.41746,0.58887z" fill="#4f340e" stroke="none" stroke-width="0.5"/></g><g><g><path d="M162.1045,160.7096l-1.24013,-7.2805c0,0 12.96897,0.41304 19.51397,-0.7018c6.75416,-1.15046 20.40325,-6.0975 20.40325,-6.0975l1.24012,7.2805z" fill="#ff0000" stroke="none" stroke-width="0"/><g data-paper-data="{&quot;index&quot;:null}"><path d="M161.90848,159.20922c0,0 11.00934,-0.22651 21.16917,-2.2938c6.66027,-1.35521 18.12674,-5.70667 18.12674,-5.70667l2.05652,10.10693l-40.22012,7.12455z" fill="#c70303" stroke="#9966ff" stroke-width="1"/><path d="M196.8994,157.15031c-0.02455,-0.3812 0.35666,-0.40577 0.35666,-0.40577l0.19061,-0.01228c1.0729,-0.03176 1.88271,-0.88683 3.0006,-0.95882c0,0 0.38123,-0.02454 0.40578,0.35666c0.02455,0.3812 -0.35667,0.40577 -0.35667,0.40577c-1.09924,0.0708 -1.89874,0.86377 -3.00059,0.95883l-0.1906,0.01227c0,0 -0.38123,0.02455 -0.40577,-0.35665z" fill="#0554ff" stroke="none" stroke-width="0.5"/><path d="M189.79932,162.18085c-0.19244,-0.32999 0.13755,-0.52243 0.13755,-0.52243l0.27446,-0.13737c0.31091,-0.83506 -0.15398,-1.41389 1.12946,-1.52462c0,0 0.38122,-0.02455 0.40577,0.35666c0.02455,0.3812 -0.35666,0.40576 -0.35666,0.40576c-0.68195,0.02018 -0.31757,0.61321 -0.60475,1.26662l-0.46341,0.29294c0,0 -0.32999,0.19243 -0.52243,-0.13755z" fill="#0554ff" stroke="none" stroke-width="0.5"/><path d="M181.67944,161.23321c0.32999,-0.19244 0.52243,0.13755 0.52243,0.13755l0.06471,0.22419c0.64396,-0.24931 0.76874,-0.0402 1.12803,0.46458c0,0 0.19243,0.32998 -0.13755,0.52243c-0.32998,0.19244 -0.52242,-0.13755 -0.52242,-0.13755c-0.09963,-0.34522 -0.40158,-0.16093 -0.82712,-0.17509l-0.36562,-0.51368c0,0 -0.19244,-0.32998 0.13756,-0.52243z" fill="#0554ff" stroke="none" stroke-width="0.5"/><path d="M171.2395,162.26813c0.14852,-0.35195 0.50046,-0.20343 0.50046,-0.20343l0.39348,0.16605c0.77971,0.33055 1.13379,0.65215 1.97269,0.59813c0,0 0.38121,-0.02454 0.40577,0.35666c0.02455,0.3812 -0.35667,0.40577 -0.35667,0.40577c-0.97774,0.06296 -1.43535,-0.28573 -2.31883,-0.65668l-0.39349,-0.16605c0,0 -0.35195,-0.14852 -0.20342,-0.50047z" fill="#0554ff" stroke="none" stroke-width="0.5"/><path d="M167.10861,167.10744c-0.02455,-0.3812 0.35665,-0.40575 0.35665,-0.40575c0.76242,-0.04909 1.71545,-0.11048 2.47788,-0.15958c0,0 0.38121,-0.02453 0.40577,0.35667c0.02455,0.3812 -0.35666,0.40576 -0.35666,0.40576c-0.76242,0.04909 -1.52484,0.09821 -2.28726,0.1473l-0.19061,0.01227c0,0 -0.3812,0.02454 -0.40575,-0.35666z" fill="#0554ff" stroke="none" stroke-width="0.5"/><path d="M166.25591,163.52584c-0.04152,0.09837 -0.13067,0.19981 -0.32128,0.21208c-0.3812,0.02455 -0.40577,-0.35666 -0.40577,-0.35666l0.34439,-0.59637c0.3812,-0.02455 0.76244,-0.04909 1.14364,-0.07364c0,0 0.38121,-0.02455 0.40576,0.35665c0.02455,0.3812 -0.35666,0.40575 -0.35666,0.40575c-0.27004,0.01739 -0.54005,0.03478 -0.81007,0.05217z" fill="#0554ff" stroke="none" stroke-width="0.5"/><path d="M177.97963,163.53642c0.19061,-0.01228 0.29205,0.0769 0.34584,0.16913c0.01587,-0.00103 0.03176,-0.00203 0.04764,-0.00306c0,0 0.38122,-0.02455 0.40576,0.35666c0.02455,0.3812 -0.35666,0.40576 -0.35666,0.40576c-0.12708,0.00818 -0.25414,0.01636 -0.38121,0.02454l-0.41805,-0.54726c0,0 -0.02453,-0.38121 0.35667,-0.40576z" fill="#0554ff" stroke="none" stroke-width="0.5"/><path d="M179.18676,163.82126c-0.19244,-0.32999 0.13755,-0.52243 0.13755,-0.52243l0.27446,-0.13737c0.14839,-0.28994 0.48819,-0.49456 0.80963,-0.54705c0,0 0.38121,-0.02453 0.40577,0.35667c0.02455,0.3812 -0.35666,0.40575 -0.35666,0.40575c-0.13137,-0.03226 -0.24597,0.15946 -0.2849,0.28902l-0.46341,0.29295c0,0 -0.32999,0.19244 -0.52244,-0.13755z" fill="#0554ff" stroke="none" stroke-width="0.5"/><path d="M184.96489,159.06724c-0.02455,-0.3812 0.35665,-0.40575 0.35665,-0.40575c0.8895,-0.05728 2.16019,-0.13912 3.04969,-0.1964c0,0 0.38122,-0.02455 0.40577,0.35666c0.02455,0.3812 -0.35666,0.40577 -0.35666,0.40577c-0.8895,0.05728 -1.77899,0.11456 -2.66849,0.17185l-0.38121,0.02456c0,0 -0.38121,0.02453 -0.40576,-0.35667z" fill="#0554ff" stroke="none" stroke-width="0.5"/><path d="M196.10782,160.94993c0.22785,-0.25922 0.48402,-0.0784 0.53138,-0.04106c0.67487,-0.42039 1.38502,-0.94311 2.15977,-1.00995c0,0 0.38121,-0.02454 0.40577,0.35667c0.02455,0.3812 -0.35666,0.40576 -0.35666,0.40576c-0.68595,0.02031 -1.46643,0.7041 -2.05801,1.0491l-0.64752,-0.2214c0,0 -0.28692,-0.2522 -0.03472,-0.53912z" fill="#0554ff" stroke="none" stroke-width="0.5"/><path d="M191.56242,157.49399c-0.02455,-0.3812 0.35666,-0.40577 0.35666,-0.40577c0.3812,-0.02455 0.95303,-0.06136 1.33425,-0.08592c0,0 0.3812,-0.02455 0.40575,0.35666c0.02455,0.3812 -0.35665,0.40577 -0.35665,0.40577c-0.3812,0.02455 -0.76243,0.0491 -1.14364,0.07365l-0.1906,0.01228c0,0 -0.38121,0.02454 -0.40577,-0.35666z" fill="#0554ff" stroke="none" stroke-width="0.5"/><path d="M199.28488,158.52785c-0.02455,-0.3812 0.35666,-0.40575 0.35666,-0.40575l0.3812,-0.02455c0.36802,-0.0237 0.54731,0.14039 0.60108,-0.20989c0,0 0.14853,-0.35196 0.50048,-0.20343c0.35195,0.14852 0.20342,0.50046 0.20342,0.50046c-0.36955,0.69293 -0.5185,0.6278 -1.25587,0.67528l-0.38122,0.02456c0,0 -0.3812,0.02454 -0.40575,-0.35666z" fill="#0554ff" stroke="none" stroke-width="0.5"/><path d="M193.86778,160.59928c-0.02455,-0.3812 0.35666,-0.40577 0.35666,-0.40577l0.19061,-0.01228c0.2039,-0.00603 0.4092,-0.08045 0.58226,-0.18848c0,0 0.32998,-0.19243 0.52243,0.13756c0.19244,0.32999 -0.13755,0.52243 -0.13755,0.52243c-0.28045,0.15617 -0.59821,0.26334 -0.91805,0.29093l-0.19061,0.01227c0,0 -0.38121,0.02454 -0.40577,-0.35666z" fill="#0554ff" stroke="none" stroke-width="0.5"/><path d="M188.20707,160.11895c0.25219,-0.28691 0.53912,-0.03473 0.53912,-0.03473l-0.07387,0.08404c0.28953,-0.01864 0.74702,-0.13808 0.96186,0.01109c-0.01494,-0.17177 -0.02665,-0.34917 -0.03337,-0.45367c0,0 -0.02454,-0.38122 0.35666,-0.40578c0.3812,-0.02455 0.40575,0.35667 0.40575,0.35667c0.12069,1.87419 -0.73755,1.19587 -1.64181,1.2541l-0.47962,-0.27263c0,0 -0.28692,-0.25221 -0.03471,-0.53912z" fill="#0554ff" stroke="none" stroke-width="0.5"/><path d="M180.85564,160.32928c0.32999,-0.19244 0.52244,0.13755 0.52244,0.13755l-0.01758,0.19197c0.90566,-0.83173 1.29723,1.21891 1.21244,-0.09772c0,0 -0.02454,-0.38121 0.35666,-0.40577c0.3812,-0.02455 0.40575,0.35667 0.40575,0.35667c0.13809,2.1444 -1.26179,0.50955 -2.16937,0.88564l-0.44788,-0.54591c0,0 -0.19245,-0.32998 0.13754,-0.52242z" fill="#0554ff" stroke="none" stroke-width="0.5"/><path d="M170.76115,164.38408c-0.02455,-0.3812 0.35667,-0.40576 0.35667,-0.40576l0.18446,0.04529c0.29277,-1.90703 1.77096,-1.03867 2.60822,-0.07202c0,0 0.24835,0.29023 -0.04188,0.53861c-0.29024,0.24837 -0.53861,-0.04188 -0.53861,-0.04188c-1.00102,-1.18657 -0.97825,-0.93988 -1.58512,0.19803l-0.57796,0.09438c0,0 -0.3812,0.02455 -0.40575,-0.35665z" fill="#0554ff" stroke="none" stroke-width="0.5"/><path d="M166.47789,166.12795c-0.01614,-1.81148 1.33429,0.05554 1.71115,-0.38945c0,0 0.32998,-0.19244 0.52242,0.13755c0.19244,0.32999 -0.13754,0.52243 -0.13754,0.52243c-1.21322,0.53824 -1.36615,-0.76187 -1.3365,-0.2611c0.00031,0.00311 0.00043,0.00477 0.00043,0.00477l-0.00013,0.00004c0.00284,0.04719 0.0072,0.10976 0.01241,0.19056l-0.38734,-0.07075l-0.37507,0.11986c-0.00432,-0.06715 -0.0072,-0.13039 -0.00871,-0.18997l-0.00358,-0.00065c0,0 -0.00162,-0.02529 0.00247,-0.06329z" fill="#0554ff" stroke="none" stroke-width="0.5"/><path d="M175.49597,160.63403c-0.02455,-0.3812 0.35665,-0.40577 0.35665,-0.40577l0.02272,0.03895c0.58845,-0.16982 0.5005,-1.46345 1.4509,-0.30504c0,0 0.19244,0.32998 -0.13754,0.52242c-0.26954,0.15718 -0.44731,-0.03418 -0.50339,-0.10956c-0.03471,0.13245 -0.14339,0.35164 -0.42509,0.55215l-0.3585,0.0635c0,0 -0.38121,0.02454 -0.40575,-0.35666z" fill="#0554ff" stroke="none" stroke-width="0.5"/><path d="M185.14013,163.70767c0.1609,-0.38127 0.54218,-0.22037 0.54218,-0.22037l0.33438,0.15313c0.60241,-0.03879 0.64013,0.21161 1.22061,-0.06843c0,0 0.38338,-0.15583 0.5392,0.22754c0.15583,0.38338 -0.22755,0.53921 -0.22755,0.53921c-0.8619,0.31199 -0.88046,0.06688 -1.67024,0.11774l-0.51819,-0.20666c0,0 -0.38127,-0.1609 -0.22038,-0.54218z" fill="#0554ff" stroke="none" stroke-width="0.5"/><path d="M196.62287,155.82833c-0.02455,-0.3812 0.35666,-0.40576 0.35666,-0.40576l0.19061,-0.01227c0.5207,-0.03354 1.13339,-0.34616 1.32669,-0.83082c0,0 0.14852,-0.35195 0.50047,-0.20342c0.35195,0.14852 0.20342,0.50047 0.20342,0.50047c-0.50878,1.111 -0.69022,1.21303 -1.98147,1.29618l-0.19061,0.01228c0,0 -0.38121,0.02454 -0.40576,-0.35666z" fill="#0554ff" stroke="none" stroke-width="0.5"/></g></g><g fill="#a8a8a8" stroke="#6b6b6b" stroke-width="1"><path d="M171.06225,151.3189c0.07217,0.42366 -0.80563,0.92658 -1.96063,1.12332c-1.155,0.19674 -2.14981,0.01278 -2.22197,-0.41088c-0.07217,-0.42366 0.80564,-0.92658 1.96064,-1.12332c1.15499,-0.19673 2.1498,-0.01278 2.22196,0.41089z"/><path d="M172.70198,152.25951c0.07872,0.46218 -1.26192,1.07606 -2.99442,1.37117c-1.73249,0.29511 -3.20077,0.15967 -3.27949,-0.3025c-0.07873,-0.46218 1.26192,-1.07607 2.99441,-1.37118c1.73249,-0.29511 3.20077,-0.15966 3.2795,0.30251z"/><path d="M173.53363,153.9836c0.07872,0.46218 -1.52525,1.12093 -3.58258,1.47136c-2.05734,0.35044 -3.78894,0.25986 -3.86766,-0.20232c-0.07873,-0.46218 1.52524,-1.12092 3.58258,-1.47135c2.05733,-0.35043 3.78895,-0.25986 3.86767,0.20231z"/><path d="M174.57921,155.38424c0.09184,0.53921 -1.67705,1.2903 -3.95095,1.67762c-2.2739,0.38733 -4.1917,0.2642 -4.28355,-0.275c-0.09184,-0.53921 1.67705,-1.2903 3.95095,-1.67762c2.2739,-0.38733 4.19171,-0.26421 4.28355,0.275z"/></g><g fill="#a8a8a8" stroke="#6b6b6b" stroke-width="1"><path d="M195.16323,147.21365c0.07216,0.42366 -0.80564,0.92658 -1.96064,1.12332c-1.15499,0.19673 -2.1498,0.01278 -2.22196,-0.41089c-0.07216,-0.42366 0.80565,-0.92658 1.96064,-1.12331c1.155,-0.19672 2.1498,-0.01278 2.22196,0.41088z"/><path d="M196.80293,148.15427c0.07873,0.46218 -1.26192,1.07606 -2.99442,1.37117c-1.73249,0.29511 -3.20077,0.15967 -3.27949,-0.3025c-0.07873,-0.46218 1.26192,-1.07606 2.99442,-1.37117c1.73249,-0.29511 3.20076,-0.15968 3.27949,0.3025z"/><path d="M197.63459,149.87837c0.07873,0.46218 -1.52525,1.12092 -3.58259,1.47135c-2.05733,0.35044 -3.78895,0.25986 -3.86767,-0.20231c-0.07873,-0.46218 1.52525,-1.12092 3.58259,-1.47136c2.05734,-0.35044 3.78895,-0.25987 3.86767,0.20231z"/><path d="M198.68017,151.279c0.09184,0.53921 -1.67705,1.29029 -3.95095,1.67762c-2.2739,0.38733 -4.1917,0.2642 -4.28355,-0.275c-0.09184,-0.53921 1.67705,-1.2903 3.95094,-1.67762c2.2739,-0.38733 4.19171,-0.26421 4.28355,0.275z"/></g></g><g><path d="M156.68511,145.31988l-2.17263,-6.45483c0,0 11.8738,-1.48146 17.67654,-3.43461c5.98819,-2.01557 17.71376,-8.47742 17.71376,-8.47742l2.17263,6.45484z" data-paper-data="{&quot;index&quot;:null}" fill="#ff0000" stroke="none" stroke-width="0"/><g data-paper-data="{&quot;index&quot;:null}"><path d="M194.26951,139.98981l-35.77838,11.78015l-2.74405,-9.10702c0,0 11.21358,-1.47389 17.21493,-3.28216c9.15469,-2.7584 18.19538,-7.38291 18.19538,-7.38291z" fill="#c70303" stroke="#9966ff" stroke-width="1"/><path d="M161.66485,146.07528l-0.16018,0.07328c-0.93643,0.40404 -1.93212,0.10919 -2.85584,0.5318c0,0 -0.32034,0.14656 -0.4669,-0.17379c-0.14656,-0.32034 0.17379,-0.4669 0.17379,-0.4669c0.93938,-0.42979 1.97057,-0.08899 2.85585,-0.5318l0.16017,-0.07329c0,0 0.32034,-0.14656 0.46689,0.17378c0.14656,0.32034 -0.17379,0.4669 -0.17379,0.4669z" fill="#0554ff" stroke="none" stroke-width="0.5"/><path d="M169.43823,146.93301l-0.50433,-0.03553c-0.51862,-0.40526 -0.48167,-1.04606 -1.04437,-0.76461c0,0 -0.32034,0.14655 -0.4669,-0.17379c-0.14656,-0.32034 0.17377,-0.4669 0.17377,-0.4669c1.09077,-0.47062 0.966,0.20254 1.58326,0.74498l0.28291,-0.00831c0,0 0.35206,0.01216 0.33989,0.36424c-0.01217,0.35208 -0.36423,0.33991 -0.36423,0.33991z" fill="#0554ff" stroke="none" stroke-width="0.5"/><path d="M176.32341,142.6412l-0.07259,0.5769c-0.33945,0.19737 -0.66519,0.17957 -0.59532,0.50346c0,0 -0.01216,0.35206 -0.36423,0.3399c-0.35208,-0.01217 -0.3399,-0.36424 -0.3399,-0.36424c0.07134,-0.5669 0.08136,-0.79125 0.71327,-0.87001l-0.04537,-0.21035c0,0 0.01217,-0.35206 0.36424,-0.33989c0.35208,0.01217 0.3399,0.36423 0.3399,0.36423z" fill="#0554ff" stroke="none" stroke-width="0.5"/><path d="M184.96817,139.05305l-0.24705,0.30673c-0.55555,0.68714 -0.77493,1.17022 -1.59655,1.54613c0,0 -0.32034,0.14656 -0.46689,-0.17378c-0.14656,-0.32034 0.17378,-0.4669 0.17378,-0.4669c0.70497,-0.32253 0.85206,-0.73839 1.34096,-1.34741l0.24707,-0.30673c0,0 0.22098,-0.27434 0.49533,-0.05336c0.27435,0.22098 0.05336,0.49532 0.05336,0.49532z" fill="#0554ff" stroke="none" stroke-width="0.5"/><path d="M190.20976,141.15091l-0.16017,0.07328c-0.64068,0.29311 -1.28137,0.58625 -1.92205,0.87936c0,0 -0.32034,0.14656 -0.4669,-0.17377c-0.14656,-0.32035 0.17379,-0.4669 0.17379,-0.4669c0.64069,-0.29312 1.44154,-0.65953 2.08222,-0.95264c0,0 0.32033,-0.14657 0.4669,0.17378c0.14656,0.32034 -0.17378,0.4669 -0.17378,0.4669z" fill="#0554ff" stroke="none" stroke-width="0.5"/><path d="M188.83104,137.71403c0,0 -0.32033,0.14657 -0.4669,-0.17378c-0.14656,-0.32034 0.17378,-0.4669 0.17378,-0.4669c0.32034,-0.14656 0.64069,-0.29312 0.96103,-0.43967l0.54017,0.33395c0,0 0.14656,0.32035 -0.17378,0.4669c-0.16017,0.07328 -0.27689,0.02983 -0.35357,-0.03193c-0.2269,0.10382 -0.45382,0.20762 -0.68073,0.31142z" fill="#0554ff" stroke="none" stroke-width="0.5"/><path d="M180.46133,142.70547l-0.1005,0.62707c-0.10677,0.04885 -0.21357,0.09771 -0.32034,0.14657c0,0 -0.32035,0.14656 -0.4669,-0.17378c-0.14656,-0.32035 0.17378,-0.46691 0.17378,-0.46691c0.01334,-0.00609 0.0267,-0.01222 0.04005,-0.01832c0.0034,-0.09841 0.04685,-0.21513 0.20702,-0.28841c0.32035,-0.14657 0.46689,0.17379 0.46689,0.17379z" fill="#0554ff" stroke="none" stroke-width="0.5"/><path d="M178.77418,143.63017l-0.50433,-0.03553c-0.0882,-0.08822 -0.26501,-0.19389 -0.35764,-0.11031c0,0 -0.32034,0.14655 -0.46689,-0.17379c-0.14656,-0.32034 0.17378,-0.46689 0.17378,-0.46689c0.28401,-0.09777 0.64935,-0.08 0.89652,0.09069l0.28291,-0.00831c0,0 0.35206,0.01218 0.33989,0.36425c-0.01217,0.35208 -0.36425,0.33989 -0.36425,0.33989z" fill="#0554ff" stroke="none" stroke-width="0.5"/><path d="M172.19528,142.41966l-0.32034,0.14656c-0.74746,0.34196 -1.49492,0.68395 -2.24239,1.02592c0,0 -0.32034,0.14655 -0.4669,-0.17379c-0.14656,-0.32034 0.17379,-0.46689 0.17379,-0.46689c0.74746,-0.34196 1.81526,-0.83051 2.56273,-1.17248c0,0 0.32034,-0.14656 0.4669,0.17378c0.14656,0.32035 -0.17379,0.4669 -0.17379,0.4669z" fill="#0554ff" stroke="none" stroke-width="0.5"/><path d="M164.34836,148.80171l-0.42921,0.46264c-0.63117,-0.02183 -1.56372,-0.23632 -2.12972,0.04678c0,0 -0.32033,0.14657 -0.4669,-0.17378c-0.14657,-0.32035 0.17378,-0.4669 0.17378,-0.4669c0.65845,-0.2841 1.46353,-0.16969 2.19527,-0.12304c0.02216,-0.05101 0.15125,-0.30974 0.44952,-0.19873c0.33014,0.12287 0.20727,0.45302 0.20727,0.45302z" fill="#0554ff" stroke="none" stroke-width="0.5"/><path d="M166.14965,144.02344l-0.16017,0.07328c-0.32035,0.14657 -0.64068,0.29312 -0.96103,0.43968c0,0 -0.32034,0.14657 -0.4669,-0.17378c-0.14656,-0.32034 0.17378,-0.46691 0.17378,-0.46691c0.32034,-0.14656 0.80086,-0.3664 1.1212,-0.51296c0,0 0.32034,-0.14656 0.4669,0.17378c0.14656,0.32034 -0.17379,0.46689 -0.17379,0.46689z" fill="#0554ff" stroke="none" stroke-width="0.5"/><path d="M160.32906,148.23602l-0.32035,0.14656c-0.61963,0.28349 -0.71215,0.40145 -1.31495,0.00007c0,0 -0.27435,-0.22097 -0.05337,-0.49533c0.22098,-0.27436 0.49534,-0.05338 0.49534,-0.05338c0.19667,0.26101 0.27061,0.04944 0.57987,-0.09205l0.32034,-0.14656c0,0 0.32035,-0.14655 0.4669,0.17379c0.14656,0.32034 -0.17378,0.4669 -0.17378,0.4669z" fill="#0554ff" stroke="none" stroke-width="0.5"/><path d="M165.63353,147.55242l-0.16018,0.07328c-0.27181,0.11728 -0.5767,0.16904 -0.87269,0.16468c0,0 -0.35207,-0.01216 -0.3399,-0.36423c0.01217,-0.35208 0.36423,-0.3399 0.36423,-0.3399c0.18774,0.01216 0.38698,-0.01707 0.55524,-0.10123l0.16017,-0.07328c0,0 0.32034,-0.14656 0.46689,0.17378c0.14656,0.32035 -0.17377,0.4669 -0.17377,0.4669z" fill="#0554ff" stroke="none" stroke-width="0.5"/><path d="M170.40239,144.67604l-0.27048,0.4309c-0.75987,0.34765 -1.16067,1.27343 -1.88123,-0.3015c0,0 -0.14656,-0.32033 0.17379,-0.46689c0.32034,-0.14656 0.4669,0.17378 0.4669,0.17378c0.04019,0.08782 0.10815,0.237 0.17104,0.38304c0.10934,-0.21498 0.53307,-0.31781 0.77637,-0.42911l-0.0967,-0.03599c0,0 0.12288,-0.33015 0.45302,-0.20727c0.33015,0.12288 0.20728,0.45304 0.20728,0.45304z" fill="#0554ff" stroke="none" stroke-width="0.5"/><path d="M176.59768,141.54723l-0.12534,0.63902c-0.9014,0.09095 -1.32434,2.03016 -2.14878,0.22818c0,0 -0.14657,-0.32033 0.17378,-0.4669c0.32034,-0.14656 0.4669,0.17378 0.4669,0.17378c0.50618,1.1064 -0.07142,-0.73015 1.02742,-0.45017l-0.09813,-0.14825c0,0 0.01216,-0.35207 0.36424,-0.3399c0.35208,0.01217 0.3399,0.36424 0.3399,0.36424z" fill="#0554ff" stroke="none" stroke-width="0.5"/><path d="M186.0537,140.53428l-0.51065,0.17578c-0.9899,-0.65914 -1.07912,-0.86943 -1.37392,0.5315c0,0 -0.07495,0.3442 -0.41917,0.26925c-0.34421,-0.07495 -0.26926,-0.41917 -0.26926,-0.41917c0.25781,-1.15079 1.07912,-2.50168 2.14984,-1.08067l0.13003,-0.11736c0,0 0.32033,-0.14657 0.4669,0.17378c0.14656,0.32034 -0.17378,0.4669 -0.17378,0.4669z" fill="#0554ff" stroke="none" stroke-width="0.5"/><path d="M190.49765,139.66331l-0.00261,0.00208c0.02479,0.04904 0.05009,0.10168 0.0759,0.15809l-0.35698,0.06647l-0.2837,0.22664c-0.03107,-0.0679 -0.05485,-0.12062 -0.07316,-0.16019l-0.00012,0.00002c0,0 -0.00064,-0.00139 -0.00174,-0.00405c-0.19464,-0.41967 0.24901,0.70307 -0.97145,0.79581c0,0 -0.35207,-0.01217 -0.33989,-0.36425c0.01217,-0.35207 0.36424,-0.33989 0.36424,-0.33989c0.50044,0.19682 0.78182,-1.90938 1.55989,-0.43106c0.01992,0.02906 0.02965,0.05032 0.02965,0.05032z" fill="#0554ff" stroke="none" stroke-width="0.5"/><path d="M180.57022,139.55649l-0.31891,0.10501c-0.31637,-0.03981 -0.50036,-0.17037 -0.58641,-0.26279c-0.01263,0.08572 -0.07342,0.31879 -0.361,0.30885c-0.35208,-0.01217 -0.33989,-0.36424 -0.33989,-0.36424c0.26597,-1.35596 0.75954,-0.26686 1.31165,-0.38595l0.00144,-0.04155c0,0 0.32034,-0.14657 0.4669,0.17378c0.14656,0.32035 -0.17378,0.4669 -0.17378,0.4669z" fill="#0554ff" stroke="none" stroke-width="0.5"/><path d="M174.31132,146.33483l-0.3306,0.39417c-0.66368,0.30364 -0.5717,0.51084 -1.40799,0.63387c0,0 -0.37944,0.04088 -0.42033,-0.33855c-0.04089,-0.37944 0.33856,-0.42032 0.33856,-0.42032c0.59376,-0.02608 0.51504,-0.24594 1.02125,-0.47755l0.2047,-0.27041c0,0 0.2394,-0.2972 0.5366,-0.05782c0.29721,0.2394 0.05781,0.5366 0.05781,0.5366z" fill="#0554ff" stroke="none" stroke-width="0.5"/><path d="M161.31206,144.88081l-0.16018,0.07328c-1.08507,0.49643 -1.277,0.49282 -2.17547,-0.18733c0,0 -0.27435,-0.22098 -0.05337,-0.49533c0.22098,-0.27436 0.49532,-0.05337 0.49532,-0.05337c0.36868,0.30921 1.00282,0.29552 1.44039,0.09534l0.16018,-0.07328c0,0 0.32034,-0.14655 0.46689,0.17379c0.14656,0.32034 -0.17378,0.4669 -0.17378,0.4669z" fill="#0554ff" stroke="none" stroke-width="0.5"/></g><g data-paper-data="{&quot;index&quot;:null}" fill="#a8a8a8" stroke="#6b6b6b" stroke-width="1"><path d="M184.72752,127.57987c1.024,-0.34467 1.95663,-0.31959 2.08304,0.05602c0.12643,0.3756 -0.60121,0.95954 -1.62521,1.30421c-1.024,0.34467 -1.95663,0.31958 -2.08306,-0.05602c-0.12642,-0.37561 0.60122,-0.95952 1.62522,-1.30419z"/><path d="M184.71284,128.68615c1.53601,-0.51701 2.89301,-0.60395 3.03092,-0.19419c0.13792,0.40976 -0.99545,1.16106 -2.53146,1.67806c-1.53601,0.51701 -2.89301,0.60394 -3.03093,0.19419c-0.13792,-0.40976 0.99546,-1.16106 2.53147,-1.67806z"/><path d="M185.31186,130.27417c1.82401,-0.61395 3.41448,-0.77947 3.55239,-0.36971c0.13791,0.40976 -1.22893,1.23964 -3.05294,1.85357c-1.82401,0.61395 -3.41448,0.77946 -3.5524,0.36971c-0.13792,-0.40975 1.22893,-1.23962 3.05295,-1.85357z"/><path d="M185.38042,131.62773c2.01602,-0.67857 3.78076,-0.84112 3.94167,-0.36307c0.16091,0.47805 -1.34295,1.41568 -3.35897,2.09426c-2.01602,0.67857 -3.78076,0.84113 -3.94167,0.36308c-0.16091,-0.47806 1.34295,-1.41568 3.35897,-2.09425z"/></g><g data-paper-data="{&quot;index&quot;:null}" fill="#a8a8a8" stroke="#6b6b6b" stroke-width="1"><path d="M163.02592,134.88443c1.024,-0.34467 1.95662,-0.31959 2.08305,0.05602c0.12643,0.37561 -0.60122,0.95953 -1.62522,1.3042c-1.024,0.34467 -1.95662,0.31958 -2.08305,-0.05603c-0.12643,-0.37561 0.6012,-0.95952 1.62522,-1.30419z"/><path d="M163.01123,135.99069c1.53601,-0.51701 2.893,-0.60394 3.03092,-0.19419c0.13792,0.40975 -0.99546,1.16106 -2.53147,1.67806c-1.53601,0.51701 -2.89301,0.60395 -3.03092,0.19419c-0.13792,-0.40975 0.99545,-1.16106 2.53147,-1.67806z"/><path d="M163.61025,137.57871c1.82401,-0.61395 3.41448,-0.77946 3.5524,-0.36971c0.13792,0.40975 -1.22893,1.23963 -3.05294,1.85358c-1.82401,0.61395 -3.41449,0.77947 -3.5524,0.36972c-0.13791,-0.40976 1.22893,-1.23965 3.05293,-1.85359z"/><path d="M163.67881,138.93229c2.01602,-0.67857 3.78076,-0.84112 3.94168,-0.36307c0.16091,0.47806 -1.34296,1.41567 -3.35897,2.09425c-2.01602,0.67857 -3.78077,0.84112 -3.94168,0.36306c-0.16091,-0.47805 1.34297,-1.41567 3.35897,-2.09425z"/></g></g></g><g><g><g fill="#8a8a8a" stroke="#212121" stroke-width="1"><path d="M220.8696,180.02699c-3.50745,3.06118 -6.18311,9.20031 -9.36387,10.82094c-3.18077,1.62063 -3.37822,-0.2679 -5.96348,0.77766c-2.58526,1.04556 -2.67083,6.57603 -5.57659,9.16978c-6.36624,5.68266 -15.40421,-1.26126 -16.01172,-2.63861c-0.46869,-1.06262 5.41633,-13.76451 7.5694,-17.11918c1.59425,-2.48398 4.94914,-2.03544 6.72035,-4.42093c1.77121,-2.38549 4.30191,-8.89075 6.1136,-11.05487c1.81168,-2.16411 5.60071,-2.12765 8.19514,-4.39196c3.69596,-3.22571 3.28601,-1.61967 6.6012,-3.24034c3.3152,-1.62066 8.58139,1.79069 10.06291,5.14966c1.45623,3.30165 7.19805,2.69888 2.80301,8.86729c-4.39504,6.16841 -7.33936,4.75482 -11.14993,8.08057z"/></g><path d="M212.23853,179.28024l-0.86304,0.28564c0.0873,-0.58779 0.2741,-1.21549 0.56345,-1.79951c0.30552,-0.59931 1.11329,-1.21989 1.02674,-1.75065c-0.04545,-0.27866 -1.94813,-0.15694 -2.07121,-0.73219c-0.04676,-0.21853 0.71994,-2.41918 0.8129,-2.76696c0.81197,-3.0376 1.3524,-5.33986 2.8915,-8.35888c0,0 0.27727,-0.54386 0.66562,-0.40657c0.38835,0.13729 0.11109,0.68113 0.11109,0.68113c-1.48528,2.91343 -1.9857,5.09429 -2.76319,8.02839c-0.11509,0.43429 -0.76591,2.01409 -0.77661,2.24791c-0.00116,0.02539 2.01195,0.36886 2.07121,0.73219c0.07189,0.4408 -0.93181,2.09111 -1.19134,2.60019c-0.10431,0.19669 -0.18839,0.40324 -0.25311,0.61065c0.14128,0.20809 -0.04251,0.56857 -0.04251,0.56857l-0.09226,0.03054c-0.00348,0.0249 -0.00666,0.04968 -0.00957,0.07432z" fill="#212121" stroke="none" stroke-width="0.5"/><path d="M205.23196,182.2679c-0.47065,0.28749 -0.54923,-0.19415 -0.54923,-0.19415l-0.07474,-0.62116c0.14968,-1.00787 0.81699,-2.14355 0.95614,-3.03488c0.05895,-0.37765 -0.52389,-0.21493 -0.73371,-0.40005c-0.13263,-0.11701 -0.75985,-1.2288 -0.76769,-1.40918c-0.03781,-0.86917 0.21307,-2.43481 0.44783,-3.40473c0,0 0.14023,-0.55935 0.59633,-0.6011c0.4561,-0.04174 0.31588,0.51762 0.31588,0.51762c-0.2389,0.91387 -0.40166,2.17945 -0.40804,3.00754c-0.00872,1.1303 1.47171,0.79248 1.50163,1.95161c0.01981,0.76755 -0.8607,2.24227 -0.96568,3.13231l0.07336,0.28704c0,0 0.07856,0.48164 -0.39209,0.76913z" fill="#212121" stroke="none" stroke-width="0.5"/><path d="M201.32746,190.48967c-0.38835,-0.13728 -0.11109,-0.68114 -0.11109,-0.68114l0.2819,-0.41872c-0.8904,-1.14815 -0.13922,-4.98771 0.11429,-6.85658c0,0 0.0743,-0.54782 0.54565,-0.66825c0.47135,-0.12043 0.39704,0.42741 0.39704,0.42741c-0.28363,2.09097 -0.87771,5.23301 -0.10476,6.75915l-0.45744,1.03158c0,0 -0.27726,0.54384 -0.66562,0.40656z" fill="#212121" stroke="none" stroke-width="0.5"/><path d="M215.74872,180.18295c-0.38835,-0.13729 -0.1111,-0.68114 -0.1111,-0.68114l0.18484,-0.36257c1.56383,-3.06751 2.4013,-5.90896 3.91834,-8.8847c0,0 0.27725,-0.54385 0.66561,-0.40657c0.38835,0.13729 0.11109,0.68114 0.11109,0.68114c-1.50588,2.95385 -2.35794,5.82393 -3.91834,8.88469l-0.18484,0.36258c0,0 -0.27726,0.54385 -0.6656,0.40657z" fill="#212121" stroke="none" stroke-width="0.5"/><path d="M197.61286,194.38455c-0.42167,0.42504 -0.64502,0.05903 -0.64502,0.05903l-0.3633,-0.60974c-0.20804,-1.27558 0.09648,-2.95908 0.56421,-4.4529c0.13897,-0.44383 0.70293,-0.85827 0.70491,-1.27248c0.00232,-0.48397 -0.5828,-0.53071 -0.66047,-0.97289c-0.14964,-0.85181 -0.03789,-1.91772 0.41463,-2.87475c0,0 0.27726,-0.54385 0.6656,-0.40657c0.38835,0.13728 0.1111,0.68114 0.1111,0.68114c-0.93623,1.61787 0.46716,2.03616 0.42135,3.23479c-0.0257,0.67261 -0.58824,1.02856 -0.77381,1.62807c-0.36818,1.1895 -0.70986,2.6941 -0.54355,3.71373l0.30263,0.4815c0,0 0.22336,0.36602 -0.19831,0.79104z" fill="#212121" stroke="none" stroke-width="0.5"/></g><path d="M199.87221,196.94392c0.31912,0.96214 -0.15966,1.52245 -0.06134,2.47296c0.2248,2.17337 -1.08588,3.70056 -2.96792,4.87065c-0.69895,0.43455 -1.02749,1.10382 -1.53591,1.6382c-0.27543,0.28951 -1.51933,0.44691 -1.92424,0.57443c-1.61515,0.50874 -3.21987,0.44637 -4.80496,0.94564c-0.28518,0.08983 -1.4769,0.67376 -1.75716,0.47004c-0.22559,-0.16397 0.08875,-0.55523 0.07198,-0.83361c-0.06608,-1.09711 0.17751,-1.78321 0.46706,-2.58715l0.0588,0.03068l0.35196,-0.6768c0.04784,-0.09184 0.04778,-0.14955 0.01422,-0.25611c-0.06714,-0.21315 -0.29625,-0.33206 -0.5094,-0.26492l-0.44798,0.14028c-0.66215,-0.10097 -1.06133,0.04049 -1.69674,0.24832c-0.22025,0.07203 -0.5925,0.43577 -0.66207,0.21473c-0.10011,-0.31807 0.24429,-0.63199 0.26588,-0.96475c0.09581,-1.47635 1.34055,-2.3641 1.18415,-3.57628c0.03796,-0.01593 0.07457,-0.0316 0.10944,-0.04726l-0.13751,-0.10889c-0.01019,-0.04521 -0.02284,-0.09147 -0.03717,-0.13771l0.20095,-0.06287l-0.16388,-0.51704c-0.06714,-0.21315 -0.29575,-0.33398 -0.5089,-0.26684c-0.21314,0.06715 -0.28411,0.26863 -0.21698,0.48179l0.00901,0.20295c-1.1463,-0.20201 -3.10548,0.95412 -3.97892,0.0436c-0.99731,-1.03965 0.74619,-2.1381 1.24276,-2.7049c0.24546,-0.28018 0.50905,-0.68583 0.74896,-1.08679l0.01235,0.01282l0.4276,-0.41531c0.11104,-0.103 0.15992,-0.26626 0.11139,-0.42032c-0.06714,-0.21315 -0.24273,-0.31579 -0.45588,-0.24865l-0.71346,0.19365c-0.66512,-0.32727 -1.20575,-0.49633 -1.79693,-0.97691c-0.38053,-0.19941 -2.59775,-0.99629 -2.42915,-1.6333c0.60913,-2.30125 3.549,-4.47098 5.54228,-5.45309c0.28071,-0.1383 1.03469,0.84436 1.12704,0.93455c2.45068,0.42211 4.47719,-0.40154 6.70951,-1.42356c0.66444,-0.30421 1.62687,-0.29757 2.18028,-0.83195c3.0645,3.30802 4.61911,7.72823 5.97084,12.01972z" data-paper-data="{&quot;noHover&quot;:false,&quot;origItem&quot;:[&quot;Path&quot;,{&quot;applyMatrix&quot;:true,&quot;segments&quot;:[[[352.98765,211.79952],[7.15143,15.10973],[-2.55196,1.27316]],[[344.36571,212.32209],[2.68815,-0.33561],[-9.03143,1.12755]],[[319.12178,209.89399],[8.19519,4.2219],[-0.22607,-0.42176]],[[316.18244,205.33333],[1.14654,-0.1764],[-8.14174,1.25266]],[[290.56826,218.40736],[4.71675,-7.45853],[-1.30565,2.06461]],[[297.34245,226.88235],[-1.12338,-1.1289],[1.55513,2.35765]],[[302.61113,232.33333],[-1.98728,-1.89794],[0,0]],[[305.18244,232.33333],[0,0],[0.82843,0]],[[306.68244,233.83333],[0,-0.82843],[0,0.5988]],[[305.82419,235.18951],[0.50737,-0.24052],[0,0]],[303.85326,236.17497],[[303.82379,236.11605],[0,0],[-1.29482,1.15054]],[[299.97103,239.10931],[1.17999,-0.71729],[-2.38708,1.45106]],[[292.56826,247.25931],[-2.36844,-4.78677],[2.07425,4.1922]],[[306.68244,251.51318],[-3.82814,-1.9909],[0,0]],[[306.68244,250.83333],[0,0],[0,-0.82843]],[[308.18244,249.33333],[-0.82843,0],[0.82843,0]],[[309.68244,250.83333],[0,-0.82843],[0,0]],[309.68244,252.83333],[[308.90249,252.83333],[0,0],[-0.00083,0.17941]],[[308.87958,253.35911],[0.01432,-0.1712],[0,0]],[[309.2431,253.89399],[0,0],[-0.14078,0.0165]],[[308.80379,253.93991],[0.15196,-0.01408],[-0.79701,4.46031]],[[300.62231,265.24677],[1.98302,-5.11343],[-0.44697,1.15256]],[[298.60546,268.35899],[0.00029,-1.23619],[-0.0002,0.85903]],[[301.18244,268.33333],[-0.85898,0.00943],[2.47817,-0.0272]],[[307.44609,269.33333],[-2.22884,-1.09444],[0,0]],[[309.18244,269.33333],[0,0],[0.82843,0]],[[310.68244,270.83333],[0,-0.82843],[0,0.41421]],[[310.2431,271.89399],[0.27145,-0.27145],[0,0]],[308.2431,273.89399],[[308.06872,273.71962],[0,0],[-1.91921,2.52017]],[[303.64231,282.17796],[0.98821,-3.95282],[-0.25075,1.003]],[[302.45841,285.04474],[-0.61503,-0.83104],[0.76407,1.03243]],[[309.18244,285.33333],[-1.10841,0],[6.16069,0]],[[327.18244,287.33333],[-6.27749,0],[1.57371,0]],[[334.60841,287.44751],[-1.29634,0.7169],[2.39284,-1.32329]],[[341.8448,283.37183],[-2.95535,0.75806],[7.95781,-2.0412]],[[357.72256,269.4887],[-1.62566,7.93509],[0.71097,-3.47035]],[[360.68244,260.83333],[0.05678,3.75743],[0,-16.67958]]],&quot;closed&quot;:true}]}" fill="#001a3a" stroke="#e3efff" stroke-width="1.5"/></g></g><path d="M236.02064,162.9236l-3.21724,7.74687l-17.64047,-11.12569l6.4918,-5.96034" fill="#000000" stroke="#000000" stroke-width="1" stroke-linecap="round"/></g><g stroke-linecap="butt"><g data-paper-data="{&quot;index&quot;:null}"><g><g fill="#8a8a8a" stroke="#212121" stroke-width="1"><path d="M217.05681,198.1191c2.89723,-3.64405 4.4207,-10.16532 7.25666,-12.33352c2.83596,-2.16819 3.37107,-0.34633 5.72512,-1.8414c2.35405,-1.49507 1.43986,-6.95013 3.82967,-10.02582c5.23583,-6.73853 15.37883,-1.54019 16.22499,-0.29513c0.65281,0.96055 -2.84261,14.51612 -4.35472,18.20434c-1.11965,2.73096 -4.50041,2.89541 -5.81188,5.56145c-1.31148,2.66604 -2.62629,9.52127 -4.01755,11.97687c-1.39125,2.4556 -5.12463,3.10373 -7.26768,5.79919c-3.05293,3.8399 -2.93964,2.18625 -5.9078,4.37874c-2.96818,2.19249 -8.76367,-0.21217 -10.8272,-3.24852c-2.02831,-2.98453 -7.56699,-1.35517 -4.35767,-8.21562c3.20933,-6.86046 6.36044,-6.00159 9.50806,-9.96058z"/></g><path d="M225.68089,197.29552l0.79729,-0.43673c0.02024,0.59389 -0.05018,1.24499 -0.22935,1.87166c-0.19232,0.64462 -0.87479,1.40082 -0.69385,1.90723c0.095,0.26587 1.94446,-0.19731 2.16935,0.34628c0.08543,0.20649 -0.2714,2.50939 -0.30005,2.86824c-0.25028,3.13428 -0.36624,5.49627 -1.33507,8.74353c0,0 -0.17453,0.58497 -0.58129,0.52004c-0.40675,-0.06493 -0.23222,-0.64989 -0.23222,-0.64989c0.93496,-3.13369 1.03347,-5.36906 1.26853,-8.39531c0.0348,-0.44793 0.38975,-2.11926 0.35806,-2.35117c-0.00344,-0.02518 -2.04549,0.00039 -2.16936,-0.34627c-0.15028,-0.42058 0.53902,-2.22497 0.70239,-2.77253c0.06709,-0.21229 0.1125,-0.43062 0.13872,-0.6463c-0.17652,-0.17916 -0.06082,-0.56691 -0.06082,-0.56691l0.08524,-0.04669c-0.00107,-0.02512 -0.00241,-0.05006 -0.004,-0.07482z" fill="#212121" stroke="none" stroke-width="0.5"/><path d="M232.03303,193.09212c0.41102,-0.36773 0.57525,0.09181 0.57525,0.09181l0.18564,0.59746c0.03472,1.01833 -0.41662,2.25582 -0.39257,3.15762c0.01019,0.38208 0.55408,0.11683 0.79387,0.26102c0.15158,0.09114 0.96919,1.07145 1.00946,1.24744c0.19409,0.84806 0.22995,2.43327 0.17413,3.42964c0,0 -0.03694,0.57548 -0.47801,0.69887c-0.44108,0.12339 -0.40413,-0.4521 -0.40413,-0.4521c0.07001,-0.94199 0.00163,-2.21616 -0.14158,-3.03179c-0.19546,-1.1133 -1.59059,-0.51378 -1.82927,-1.64847c-0.15804,-0.75135 0.44178,-2.36081 0.38438,-3.25518l-0.12398,-0.26907c0,0 -0.16422,-0.45954 0.2468,-0.82727z" fill="#000000" stroke="none" stroke-width="0.5"/><path d="M234.3892,184.30059c0.40676,0.06492 0.23222,0.64989 0.23222,0.64989l-0.20169,0.46273c1.08303,0.96856 1.03731,4.88063 1.12533,6.76457c0,0 0.0258,0.55224 -0.41606,0.75577c-0.44187,0.20353 -0.46767,-0.34871 -0.46767,-0.34871c-0.09849,-2.10782 -0.08137,-5.30549 -1.11712,-6.66702l0.26371,-1.0972c0,0 0.17453,-0.58496 0.58129,-0.52004z" fill="#000000" stroke="none" stroke-width="0.5"/><path d="M222.06542,197.04129c0.40675,0.06493 0.23223,0.6499 0.23223,0.6499l-0.11635,0.38998c-0.9844,3.29942 -1.29517,6.24537 -2.25012,9.44607c0,0 -0.17452,0.58497 -0.58128,0.52005c-0.40675,-0.06493 -0.23221,-0.6499 -0.23221,-0.6499c0.94792,-3.17716 1.26787,-6.15391 2.25011,-9.44607l0.11635,-0.38998c0,0 0.17453,-0.58497 0.58128,-0.52004z" fill="#212121" stroke="none" stroke-width="0.5"/><path d="M237.33968,179.79914c0.33802,-0.49418 0.62377,-0.17451 0.62377,-0.17451l0.4674,0.53414c0.4349,1.21707 0.43928,2.92788 0.24889,4.4816c-0.05658,0.46162 -0.53645,0.97107 -0.46363,1.37883c0.08508,0.47644 0.66903,0.41679 0.82525,0.83768c0.30095,0.8108 0.38344,1.87937 0.11112,2.90237c0,0 -0.17453,0.58497 -0.58128,0.52005c-0.40676,-0.06492 -0.23223,-0.64989 -0.23223,-0.64989c0.62879,-1.7603 -0.82704,-1.91838 -0.99837,-3.10559c-0.09615,-0.66619 0.3929,-1.11785 0.4672,-1.74102c0.1474,-1.23642 0.21187,-2.77798 -0.13577,-3.75084l-0.38457,-0.41897c0,0 -0.28576,-0.31968 0.05225,-0.81384z" fill="#000000" stroke="none" stroke-width="0.5"/></g></g><path d="M208.70226,203.6338c0.70943,-0.34299 1.42808,-0.64288 2.10171,-0.75452c0.90335,-0.14971 1.83717,0.0003 2.73665,-0.13158c1.06886,-0.15672 1.71994,-1.29858 2.96215,-0.61455c0.24377,0.13423 0.22867,0.51377 0.40109,0.73221c0.87407,1.1074 1.77365,1.64204 2.35328,2.98738c0.85559,1.98583 1.50776,4.95114 2.84429,6.64494c1.71668,2.17558 2.15928,6.01313 0.61708,8.46547c-0.62584,1.542 -0.77612,3.47962 -1.95358,4.78766c-0.35499,0.39436 -1.4714,0.68711 -1.97307,0.90326c-0.45225,0.19485 -1.65771,0.90623 -2.11455,0.80675c-0.67769,-0.14757 -1.72367,-1.87911 -2.12326,-3.23985c-0.53157,0.59859 -2.48234,1.97558 -3.39546,1.77675c-1.37706,-0.29987 -1.39093,-1.88715 -1.55283,-2.87878c-0.25402,-1.5559 -0.94098,-2.97826 0.21793,-4.3989c0.10075,-0.1235 0.19844,-0.28992 0.29767,-0.4765c-0.19042,0.08748 -0.39582,0.15066 -0.62455,0.17576c-3.55036,0.38968 -2.99293,-4.46037 -1.93546,-6.34812c0.08558,-0.15276 0.22528,-0.37169 0.39482,-0.60188c-1.02317,0.03143 -2.27558,-0.29184 -2.74446,-0.3166c-0.24452,-0.0129 -0.45612,0.31325 -0.69183,0.24694c-1.66274,-0.46774 -1.52301,-2.41347 -0.88256,-3.57365c1.12953,-2.04613 2.33793,-3.22614 4.54167,-4.18359c0,0 0.27009,-0.11637 0.52328,-0.00861z" fill="#001a3a" stroke="#e3efff" stroke-width="1.5"/></g><g stroke="#e3efff" stroke-width="1" stroke-linecap="butt"><path d="M221.35883,219.5717v-67.89114h78.00259v67.89114z" fill="url(#color-1)"/><path d="M223.19346,218.95946c0,0 20,-6.10917 20,-13.78729c0,-4.49588 -20,-9.31066 -20,-14.33333c0,-3.1096 24.66666,-7.50445 24.66666,-10.33334c0,-3.95675 -24.66666,-6.12507 -24.66666,-8.66666c0,-7.92594 0,-19.54604 0,-19.54604h74.33334c0,0 0,11.6201 0,19.54604c0,2.96231 -25.66667,4.89549 -25.66667,9.66666c0,6.40187 25.66667,16.04569 25.66667,22.33334c0,2.54328 -24.33334,-1.74744 -24.33334,0.33333c0,4.86813 24.33334,14.7873 24.33334,14.7873z" fill="url(#color-2)"/></g><g stroke-linecap="round"><path d="M241.71353,121.66667l22.33333,12.33333l1,17.33333h-25.33333v-15.33333l-7.33333,-9" fill="url(#color-3)" stroke="#9966ff" stroke-width="0.5"/><path d="M237.96353,135.75l9.75,-9" fill="none" stroke="#000000" stroke-width="1"/><path d="M240.46353,141.25l16.5,-9.5" fill="none" stroke="#000000" stroke-width="1"/><path d="M239.96353,147l23.25,-11.5" fill="none" stroke="#000000" stroke-width="1"/><path d="M263.96353,147.25l-25,3.5" fill="none" stroke="#000000" stroke-width="1"/></g><g stroke-linecap="butt"><g><g><path d="M240.04637,131.43752c-3.35163,1.39602 -1.24039,-7.11183 -3.55378,-12.66595c-2.31339,-5.55412 -8.17539,-6.05129 -4.82376,-7.4473c3.35163,-1.39602 7.94404,1.9748 10.25743,7.52892c2.31339,5.55412 1.47174,11.18832 -1.87989,12.58434z" fill="url(#color-4)" stroke="#e3efff" stroke-width="0.5"/><path d="M238.09866,128.42907c-2.9102,1.11342 -6.74273,-1.83501 -8.56021,-6.58548c-1.81748,-4.75047 2.65191,-9.29318 5.5621,-10.40658c1.85203,-0.70856 2.62628,0.14248 3.41289,2.07944c0.44943,1.10667 0.90291,2.56785 1.56375,4.29513c1.81748,4.75047 0.93166,9.50408 -1.97854,10.6175z" fill="url(#color-5)" stroke="#e3efff" stroke-width="1"/><path d="M231.94515,125.13393c-1.10441,1.4625 -1.94993,-0.29565 -3.16408,-1.21252c-1.21415,-0.91687 0.37737,-3.61656 1.48178,-5.07907c1.10441,-1.4625 2.68007,-0.87902 3.89422,0.03785c1.21415,0.91687 -1.10751,4.79124 -2.21192,6.25374z" fill="#5d8d03" stroke="#000000" stroke-width="0"/><path d="M234.63947,124.66275c-1.42062,4.3296 -6.91838,5.84905 -11.07554,7.28572c-3.58634,1.23939 -8.2528,1.67983 -11.62933,0.57194c-1.59341,-0.52282 -2.05941,-2.18673 -3.58005,-2.70233c-2.21786,-0.75201 -4.94441,-1.43958 -5.76339,-3.44911c-0.75943,-1.86342 -0.02315,-4.31844 0.47115,-6.84296c0.42673,-2.17943 0.52099,-4.41961 1.12784,-6.26907c0.5502,-1.67684 2.44526,-1.97823 3.9962,-3.14643c0.64221,-0.48372 1.08181,-1.61455 1.57016,-2.26296c0.40713,-0.54057 1.46669,-0.90654 1.8784,-1.44487c1.96651,-2.57126 3.58728,-5.51736 5.57892,-7.30073c1.69266,-1.51566 3.70976,-2.14877 5.83397,-1.45178c1.94811,0.63921 6.19372,-0.27609 8.23922,1.71084c3.04661,2.95939 3.67964,10.38212 4.04448,14.18455c0.3069,3.1986 0.19387,8.4172 -0.69205,11.1172z" fill="#9966ff" stroke="#e3efff" stroke-width="1"/><path d="M234.81768,123.61569c-1.29195,1.71085 -4.17359,1.71259 -6.43633,0.00389c-2.26274,-1.70871 -2.07285,-4.52769 -0.7809,-6.23854c1.29195,-1.71085 3.52715,-3.14223 5.78989,-1.43352c2.26274,1.70871 2.71929,5.95732 1.42734,7.66818z" fill="#58ff00" stroke="#000000" stroke-width="0"/><path d="M225.92055,120.64457c0.87114,-1.15359 1.88871,-0.83302 3.22657,-0.9163c1.0943,-0.06812 2.75542,-1.07135 3.699,-0.35882c2.09718,1.58369 2.25265,4.91295 0.66897,7.01012c-1.58369,2.09718 -4.5676,2.51344 -6.66477,0.92976c-2.09718,-1.58369 -2.51345,-4.5676 -0.92976,-6.66478z" fill="#070707" stroke="#000000" stroke-width="1"/><path d="M228.30761,122.05488c-0.52095,0.68986 -1.59198,0.75922 -2.39222,0.15492c-0.80024,-0.6043 -1.02665,-1.65342 -0.5057,-2.34328c0.52095,-0.68986 1.59198,-0.75922 2.39222,-0.15492c0.80024,0.6043 1.02665,1.65342 0.5057,2.34328z" fill="#58ff00" stroke="none" stroke-width="0"/><g fill="url(#color-6)" stroke="none" stroke-width="0"><path d="M216.42471,129.27134c-0.07273,0.0963 0.25574,2.52721 0.15103,2.58329c-1.25732,0.6735 -5.11872,-3.79061 -7.86981,-5.8681c-2.9802,-2.25049 -6.75207,-4.14938 -5.80609,-5.40208c0.48982,-0.64865 0.14626,-7.83291 2.04842,-7.44033c1.77139,0.36559 6.26214,5.91433 7.69919,6.99953c2.9802,2.25049 4.72324,7.87499 3.77726,9.12769z"/></g><path d="M232.80869,111.78474c-0.06971,0.37634 -0.44603,0.30663 -0.44603,0.30663l-0.07832,-0.12851c-0.32988,0.22393 -0.69456,0.40065 -1.07035,0.53385c-0.72122,0.33287 -1.39996,0.73762 -2.00063,-0.06626c-0.00791,-0.01058 -0.0156,-0.02127 -0.0231,-0.03207c-0.04412,0.0637 -0.11103,0.12358 -0.21,0.17266c-0.45719,0.22671 -0.68389,-0.23047 -0.68389,-0.23047l0.02527,-0.07033c-0.52995,-0.40325 -0.94103,-0.87057 -1.47092,-1.27246c-1.42083,-1.76051 -3.98335,-2.42958 -5.61874,-3.98787c-0.51011,-0.48606 -0.63006,-1.31898 -0.9298,-1.97404c-0.03012,-0.00945 -0.05993,-0.01814 -0.08939,-0.02603c-0.38912,-0.10418 -1.71964,0.19348 -2.02622,-0.03804c-0.15296,-0.11551 -0.24457,-0.9418 -0.27811,-1.18224c-0.13138,-0.94177 -0.1869,-1.91801 -0.50377,-2.81572c0,0 -0.12619,-0.36132 0.23513,-0.48752c0.36133,-0.1262 0.48752,0.23513 0.48752,0.23513c0.32932,0.95187 0.40029,1.96632 0.53924,2.96235c0.0312,0.22363 -0.19892,0.54106 -0.01872,0.67713c0.20291,0.15323 0.48155,-0.2296 0.73466,-0.20534c0.02753,0.00263 0.05512,0.00499 0.08275,0.00714c-0.11555,-0.06798 -0.37793,-0.27057 -0.21971,-0.6429c0.19958,-0.46967 0.66925,-0.27009 0.66925,-0.27009c0.6045,0.2616 0.907,0.75118 1.16449,1.28401c0.72277,0.35363 1.4862,0.91415 2.04395,1.33533c2.42479,1.83108 5.76082,3.19475 6.75011,6.17353c0.11899,0.3583 0.86574,-0.16809 1.05324,-0.25535c0.32477,-0.11155 0.64258,-0.25866 0.92417,-0.45521l0.65136,0.00664c0,0 0.37634,0.06971 0.30663,0.44603z" fill="#212121" stroke="none" stroke-width="0.5"/><path d="M229.34663,108.63893c-0.23065,0.30543 -0.53608,0.07478 -0.53608,0.07478l-0.18468,-0.16407c-1.6974,-2.47303 -4.1412,-4.51482 -6.53086,-6.31937c0,0 -0.30543,-0.23065 -0.07478,-0.53608c0.23065,-0.30543 0.53608,-0.07478 0.53608,-0.07478c2.45406,1.85318 4.95289,3.95839 6.70036,6.4966l0.01517,-0.01316c0,0 0.30543,0.23065 0.07478,0.53608z" fill="#212121" stroke="none" stroke-width="0.5"/><path d="M228.56926,98.6555c-0.23065,0.30543 -0.53608,0.07478 -0.53608,0.07478l0.10823,0.00118c-1.24804,-0.08189 -2.20759,0.28235 -3.03306,1.39026c0,0 -0.23065,0.30543 -0.53608,0.07478c-0.30543,-0.23065 -0.07478,-0.53608 -0.07478,-0.53608c0.99254,-1.29958 2.17076,-1.76959 3.68889,-1.6931l0.30808,0.1521c0,0 0.30543,0.23065 0.07478,0.53608z" fill="#0e1501" stroke="none" stroke-width="0.5"/><path d="M232.98668,102.59366c0.05288,0.37906 -0.32618,0.43195 -0.32618,0.43195l-0.45891,-0.04916c-1.22908,-0.95003 -3.3117,0.16572 -4.26803,1.08361c0,0 -0.27771,0.26336 -0.54107,-0.01436c-0.26336,-0.27772 0.01437,-0.54107 0.01437,-0.54107c1.27974,-1.20099 3.66433,-2.31918 5.25603,-1.13904l-0.10813,-0.09811c0,0 0.37906,-0.05288 0.43195,0.32618z" fill="#0e1501" stroke="none" stroke-width="0.5"/><path d="M234.82997,106.36461c-0.23065,0.30543 -0.53608,0.07478 -0.53608,0.07478l0.00849,-0.01819c-0.96119,-0.33979 -2.80921,-0.36827 -3.71516,0.09224c0,0 -0.34289,0.17003 -0.51292,-0.17285c-0.17003,-0.34289 0.17285,-0.51292 0.17285,-0.51292c1.11908,-0.5439 3.10407,-0.52042 4.29967,-0.13185l0.20836,0.13272c0,0 0.30543,0.23065 0.07478,0.53608z" fill="#0e1501" stroke="none" stroke-width="0.5"/><path d="M233.28678,110.27236c0.08736,-0.07518 0.26404,-0.17519 0.47713,-0.01427c0.30543,0.23065 0.07478,0.53608 0.07478,0.53608l-0.40338,0.25136c-0.8511,-0.05037 -1.45967,-0.00024 -2.24638,-0.36983c0,0 -0.34473,-0.16627 -0.17847,-0.51101c0.16626,-0.34473 0.51099,-0.17846 0.51099,-0.17846c0.60496,0.30145 1.1228,0.26299 1.76532,0.28613z" fill="#0e1501" stroke="none" stroke-width="0.5"/><path d="M233.4742,99.03901c0.05288,0.37906 -0.32618,0.43195 -0.32618,0.43195l-0.01145,-0.0392c-0.68928,0.46619 -1.46534,0.71905 -2.15773,1.19502c0,0 -0.3154,0.21682 -0.53221,-0.09858c-0.21682,-0.3154 0.09858,-0.53221 0.09858,-0.53221c0.69109,-0.47509 1.48314,-0.72146 2.15772,-1.19502l0.33933,-0.08814c0,0 0.37906,-0.05288 0.43195,0.32618z" fill="#0e1501" stroke="none" stroke-width="0.5"/><path d="M229.70092,99.16171c-0.05765,-0.09681 -0.09332,-0.24239 0.03376,-0.41069c0.23065,-0.30543 0.53608,-0.07478 0.53608,-0.07478l0.23197,0.50312c-0.04215,0.12508 -0.08431,0.25017 -0.12646,0.37524c0,0 -0.12222,0.36269 -0.48491,0.24047c-0.36269,-0.12222 -0.24048,-0.48492 -0.24048,-0.48492c0.01668,-0.04948 0.03334,-0.09896 0.05003,-0.14844z" fill="#0e1501" stroke="none" stroke-width="0.5"/><path d="M235.10538,108.46079c-0.12222,0.36269 -0.48491,0.24047 -0.48491,0.24047l-0.43177,-0.15071c-0.26081,-0.1953 -0.54518,-0.36435 -0.84583,-0.48994c0,0 -0.35225,-0.14968 -0.20257,-0.50192c0.14968,-0.35224 0.50194,-0.20257 0.50194,-0.20257c0.31886,0.13742 0.62777,0.30716 0.90395,0.51758l0.31872,0.10219c0,0 0.36269,0.12222 0.24047,0.48491z" fill="#0e1501" stroke="none" stroke-width="0.5"/><path d="M232.81898,119.85972c1.69584,1.84067 1.63933,4.67683 0.0801,6.74163c-0.09894,0.12929 -0.20395,0.2451 -0.31442,0.34952c-0.26817,0.20068 -0.56772,0.36882 -0.90053,0.49711c-0.7606,0.29319 -1.10295,0.66881 -1.84984,0.24089c0.03169,-0.04347 0.0641,-0.08433 0.09718,-0.12281l0.2457,-0.3105c0.06102,-0.01771 0.12205,-0.03518 0.18294,-0.05265c0.40046,-0.24392 0.86138,-0.32751 1.34414,-0.52606c0.21809,-0.13796 0.41599,-0.31058 0.58395,-0.53679c1.31012,-1.73491 1.42007,-4.06852 0.07449,-5.64295c-0.1179,-0.04552 -0.17655,-0.14783 -0.20455,-0.22202c-0.13923,-0.14034 -0.29132,-0.27343 -0.45652,-0.39817c0,0 -0.30543,-0.23065 -0.07478,-0.53608c0.01194,-0.0158 0.02407,-0.03018 0.03635,-0.04322l-0.72598,0.08907c0.24273,0.11691 1.11883,-0.20958 1.34662,-0.06125l0.05547,-0.04856c0.68144,0.51459 1.34672,1.11835 2.00912,1.6761c0.39162,2.04283 -0.03004,4.70046 -1.7638,5.99789c-0.61716,0.58347 -1.40409,0.81186 -2.24825,1.05341l-0.50211,-0.31543l0.09718,-0.12281c0.13272,-0.15436 0.2763,-0.27036 0.42865,-0.36315c0.47595,-0.13652 0.94403,-0.27295 1.34414,-0.52606c0.04904,-0.02016 0.09831,-0.04153 0.14774,-0.06435c1.83886,-0.84898 1.89328,-3.64939 1.83652,-5.27168c-0.40174,-0.2372 -0.74315,-0.53285 -1.0799,-0.83286c-0.01342,0.00299 -0.02746,0.00552 -0.04215,0.00757c-0.0824,0.01149 -0.1494,0.00258 -0.20377,-0.01841c-0.0648,-0.07581 -0.13297,-0.14988 -0.20455,-0.22202c-0.0185,-0.04901 -0.02363,-0.08574 -0.02363,-0.08574l0.07335,0.06056c-0.05174,-0.05821 -0.09748,-0.13042 -0.13214,-0.20882c-0.08776,-0.07326 -0.17709,-0.14497 -0.26888,-0.21429l-0.14367,-0.52919c0.22509,-0.23896 0.49972,-0.03156 0.49972,-0.03156c0.03384,0.02556 0.06722,0.05142 0.10014,0.07758l0.02079,-0.0182c0.18278,0.11903 0.35254,0.25435 0.49615,0.41592z" fill="#070707" stroke="none" stroke-width="0.5"/><path d="M206.06,130.11479c-0.20362,-0.15376 -0.04986,-0.35738 -0.04986,-0.35738l0.1,-0.13243c0.52601,-0.69656 0.33171,-1.22113 0.80271,-1.88905c0,0 0.15377,-0.20363 0.35738,-0.04986c0.20362,0.15376 0.04986,0.35738 0.04986,0.35738c-0.42263,0.50659 -0.31578,1.24425 -0.80271,1.88905l-0.1,0.13243c0,0 -0.15376,0.20362 -0.35738,0.04986z" fill="#0e1501" stroke="none" stroke-width="0.5"/><path d="M209.39472,132.33142c-0.25271,0.03526 -0.28796,-0.21746 -0.28796,-0.21746l-0.0306,-0.31414c0.10463,-0.56488 -0.00221,-1.10085 0.31757,-1.56666c0,0 0.15376,-0.20362 0.35738,-0.04986c0.20362,0.15376 0.04986,0.35738 0.04986,0.35738c-0.23639,0.26441 -0.14887,0.95167 -0.22303,1.35207l0.03425,0.15069c0,0 0.03526,0.25271 -0.21746,0.28796z" fill="#0e1501" stroke="none" stroke-width="0.5"/><path d="M207.78422,130.58508c-0.20362,-0.15376 -0.04986,-0.35738 -0.04986,-0.35738l0.1,-0.13243c0.31137,-0.41233 0.46317,-0.66475 0.92267,-0.90178c0,0 0.22859,-0.11336 0.34195,0.11523c0.11336,0.22859 -0.11523,0.34195 -0.11523,0.34195c-0.38252,0.17939 -0.48029,0.40536 -0.74215,0.75213l-0.1,0.13243c0,0 -0.15376,0.20362 -0.35738,0.04986z" fill="#0e1501" stroke="none" stroke-width="0.5"/><path d="M211.0596,133.68231c-0.20362,-0.15376 -0.04986,-0.35738 -0.04986,-0.35738l0.05273,-0.02512c0.09842,-0.50558 0.01255,-0.84764 0.1794,-1.36196c0,0 0.08148,-0.24179 0.32329,-0.16031c0.24179,0.08148 0.16031,0.32329 0.16031,0.32329c-0.16541,0.46873 -0.0757,0.81045 -0.16121,1.29193l-0.14727,0.23972c0,0 -0.15377,0.20363 -0.35738,0.04986z" fill="#0e1501" stroke="none" stroke-width="0.5"/></g><path d="M214.00907,111.27568c-1.10441,1.4625 -1.94993,-0.29565 -3.16408,-1.21252c-1.21415,-0.91687 0.37737,-3.61657 1.48178,-5.07907c1.10441,-1.4625 2.68007,-0.87903 3.89422,0.03784c1.21415,0.91687 -1.10751,4.79124 -2.21192,6.25374z" fill="#58ff00" stroke="#000000" stroke-width="0"/><path d="M213.87391,110.21553c-0.48689,1.48391 -1.97995,2.32646 -3.33481,1.88191c-1.35487,-0.44456 -2.0585,-2.00788 -1.5716,-3.49178c0.48689,-1.48391 2.58964,-3.4929 3.9445,-3.04833c0.46704,0.15324 0.20003,1.68225 0.48564,2.07698c0.54293,0.7504 0.79533,1.60884 0.47627,2.58124z" fill="#070707" stroke="#000000" stroke-width="1"/><path d="M211.33207,109.31425c-0.42197,0.55879 -1.1667,0.70771 -1.6634,0.33263c-0.4967,-0.37508 -0.55728,-1.13214 -0.13531,-1.69091c0.42197,-0.55879 1.16669,-0.70771 1.66339,-0.33263c0.4967,0.37508 0.55728,1.13214 0.13531,1.69092z" fill="#58ff00" stroke="none" stroke-width="0"/><path d="M215.03734,107.39968c-0.3154,0.21682 -0.53221,-0.09858 -0.53221,-0.09858l-0.18552,-0.27859c-0.49554,-0.36554 -0.74772,-0.60772 -1.37127,-0.63913c0,0 -0.38207,-0.02249 -0.35958,-0.40456c0.02249,-0.38208 0.40456,-0.35959 0.40456,-0.35959c0.82795,0.05434 1.23569,0.37909 1.87948,0.87419l0.26312,0.37403c0,0 0.21682,0.31541 -0.09858,0.53222z" fill="#58ff00" stroke="none" stroke-width="0.5"/><path d="M222.93153,96.72535c-0.06283,-0.09641 -0.10964,-0.24854 0.02429,-0.4259c0.23065,-0.30543 0.53608,-0.07478 0.53608,-0.07478l0.23197,0.50312c-0.14063,0.40417 -0.14455,0.79068 -0.27944,1.2012c0,0 -0.12222,0.36269 -0.48491,0.24047c-0.36269,-0.12222 -0.24047,-0.48491 -0.24047,-0.48491c0.11271,-0.32392 0.1376,-0.6365 0.21248,-0.95917z" fill="#0e1501" stroke="none" stroke-width="0.5"/><path d="M210.321,111.45549c0.02249,-0.38208 0.40456,-0.35959 0.40456,-0.35959l0.40912,0.02704c1.53509,0.30458 1.94998,-1.2399 1.94996,-2.4726c0,0 0.00125,-0.38273 0.38398,-0.38147c0.38273,0.00125 0.38148,0.38399 0.38148,0.38399c-0.01077,1.74523 -0.80057,3.5827 -2.85484,3.22274l-0.31469,-0.01556c0,0 -0.38208,-0.02248 -0.35959,-0.40456z" fill="#070707" stroke="none" stroke-width="0.5"/><path d="M202.14947,128.40936c-0.20362,-0.15376 -0.04986,-0.35738 -0.04986,-0.35738c0.43333,-0.57383 1.16665,-1.54492 1.59997,-2.11875c0,0 0.15376,-0.20362 0.35738,-0.04986c0.20362,0.15376 0.04986,0.35738 0.04986,0.35738c-0.43333,0.57383 -0.86665,1.14765 -1.29998,1.72148l-0.29999,0.39727c0,0 -0.15377,0.20362 -0.35738,0.04986z" fill="#0e1501" stroke="none" stroke-width="0.5"/></g><g text-anchor="start"><g><g><g fill="none" stroke="none" stroke-width="1" font-family="sans-serif" font-weight="normal" font-size="12"/><g fill="url(#color-7)" stroke="#000000" stroke-width="3.5" font-family="&quot;Helvetica Neue&quot;, Helvetica, Arial, sans-serif" font-weight="400" font-size="16"/><g fill="none" stroke="none" stroke-width="1" font-family="sans-serif" font-weight="normal" font-size="12"/></g><g><g fill="url(#color-8)" stroke="#000000" stroke-width="3.5" font-family="&quot;Helvetica Neue&quot;, Helvetica, Arial, sans-serif" font-weight="400" font-size="16"/><g fill="url(#color-9)" stroke="#e3efff" stroke-width="3.5" font-family="&quot;Helvetica Neue&quot;, Helvetica, Arial, sans-serif" font-weight="400" font-size="16"/><g fill="none" stroke="none" stroke-width="1" font-family="sans-serif" font-weight="normal" font-size="12"/></g></g><g data-paper-data="{&quot;index&quot;:null}"><g><g fill="url(#color-10)" stroke="#000000" stroke-width="3.5" font-family="&quot;Helvetica Neue&quot;, Helvetica, Arial, sans-serif" font-weight="400" font-size="16"/><g fill="url(#color-11)" stroke="#000000" stroke-width="3.5" font-family="&quot;Helvetica Neue&quot;, Helvetica, Arial, sans-serif" font-weight="400" font-size="16"/><g fill="none" stroke="none" stroke-width="1" font-family="sans-serif" font-weight="normal" font-size="12"/></g><g><g fill="url(#color-12)" stroke="#000000" stroke-width="3.5" font-family="&quot;Helvetica Neue&quot;, Helvetica, Arial, sans-serif" font-weight="400" font-size="16"/><g fill="none" stroke="none" stroke-width="1" font-family="sans-serif" font-weight="normal" font-size="12"/><g fill="none" stroke="none" stroke-width="1" font-family="sans-serif" font-weight="normal" font-size="12"/></g></g></g></g><g data-paper-data="{&quot;index&quot;:null}"><g stroke="#000000" stroke-width="2"><path d="M299.09108,95.73367c-3.34804,14.02942 -10.90302,24.24725 -16.87451,22.82218c-5.97149,-1.42506 -8.0982,-13.9534 -4.75017,-27.98279c3.34804,-14.02942 10.90301,-24.24724 16.87449,-22.82217c5.97149,1.42506 8.09822,13.95339 4.75018,27.98278z" fill="#9966ff" stroke-linecap="butt"/><path d="M299.49908,110.97967l-11.8558,15.61502l-2.77407,-10.30019l-13.19579,11.44584l-3.6633,-22.07702" fill="#58ff00" stroke-linecap="round"/><path d="M300.2355,78.40895c-0.70622,2.95931 -3.27789,4.88121 -5.74398,4.29269c-2.46609,-0.58852 -3.89273,-3.4646 -3.18651,-6.4239c0.70622,-2.95931 3.27788,-4.88121 5.74397,-4.29269c2.46609,0.58852 3.89274,3.4646 3.18652,6.42391z" fill="#58ff00" stroke-linecap="butt"/><path d="M287.31769,70.69245l1.71409,5.04279l-1.09235,3.85819l3.0297,3.12571l-0.73624,3.08508l4.83243,1.32486l-5.36942,5.24017l-8.14626,-8.29399l-2.03335,-0.82849" fill="#00e6ff" stroke-linecap="round"/><path d="M298.64128,80.77442l-2.7566,-7.86588" fill="none" stroke-linecap="round"/><path d="M284.21319,77.58865l6.82889,-1.28785l-5.22367,7.50601l6.91377,-0.92436l-2.37658,4.92468" fill="none" stroke-linecap="round"/></g><g stroke="#545454" stroke-width="1"><path d="M300.35901,149.77814c0,1.51048 -1.31275,2.38679 -2.6981,2.38679c-3.83673,0 -22.02678,0 -28.22642,0c-1.30226,0 -2.07547,-0.69029 -2.07547,-1.5566c0,-6.89786 0,-37.90592 0,-43.37737c0,-1.59381 0.85577,-3.00942 2.28303,-3.00942c6.38801,0 24.22407,0 28.01887,0c1.38535,0 2.6981,1.30652 2.6981,2.80189c0,5.1041 0,34.17051 0,42.75472z" fill="#a1a1a0" stroke-linecap="butt"/><path d="M292.26468,103.5989l3.73585,48.56604" fill="none" stroke-linecap="round"/><path d="M279.18921,104.63665l1.86792,47.94339" fill="none" stroke-linecap="round"/><path d="M272.75524,152.78758l-0.4151,-48.56604" fill="none" stroke-linecap="round"/></g><g fill="#c1c1c1" stroke="#545454" stroke-width="1"><path d="M303.04409,65.38847c0.05275,0.14285 -0.90563,0.59081 -1.94926,0.97607c-2.89035,1.06699 -16.59361,6.12564 -21.26403,7.84975c-0.98105,0.36216 -1.58765,0.51191 -1.61789,0.42997c-0.24083,-0.65237 -1.32341,-3.58496 -1.51443,-4.10241c-0.05564,-0.15073 0.53961,-0.52262 1.61482,-0.91953c4.81235,-1.7765 18.24892,-6.7367 21.10769,-7.79203c1.04364,-0.38526 2.0782,-0.62677 2.13041,-0.48535c0.1782,0.48272 1.193,3.23168 1.4927,4.04353z" stroke-linecap="butt"/><path d="M285.26195,71.11984l-2.81961,-7.40456l10.38687,-3.14495l2.95216,5.54589" stroke-linecap="round"/><path d="M286.46091,69.81546l-1.07543,-5.24766l6.55505,-1.3857l1.96109,4.14511" stroke-linecap="round"/></g></g></g></g></svg>