<svg version="1.1" xmlns="http://www.w3.org/2000/svg" xmlns:xlink="http://www.w3.org/1999/xlink" width="70.78272" height="73.27755" viewBox="0,0,70.78272,73.27755"><defs><linearGradient x1="237.90238" y1="143.77164" x2="237.90238" y2="214.51519" gradientUnits="userSpaceOnUse" id="color-1"><stop offset="0" stop-color="#ec9c21"/><stop offset="1" stop-color="#b75428"/></linearGradient><linearGradient x1="216.88181" y1="150.93835" x2="216.88181" y2="157.52722" gradientUnits="userSpaceOnUse" id="color-2"><stop offset="0" stop-color="#ec9c21"/><stop offset="1" stop-color="#b75428"/></linearGradient><linearGradient x1="209.77008" y1="171.80318" x2="209.77008" y2="183.88282" gradientUnits="userSpaceOnUse" id="color-3"><stop offset="0" stop-color="#ec9c21"/><stop offset="1" stop-color="#b75428"/></linearGradient><linearGradient x1="208.27155" y1="186.78314" x2="208.27155" y2="197.8921" gradientUnits="userSpaceOnUse" id="color-4"><stop offset="0" stop-color="#ec9c21"/><stop offset="1" stop-color="#b75428"/></linearGradient><linearGradient x1="251.5186" y1="206.84063" x2="251.5186" y2="213.70406" gradientUnits="userSpaceOnUse" id="color-5"><stop offset="0" stop-color="#ec9c21"/><stop offset="1" stop-color="#b75428"/></linearGradient><linearGradient x1="258.59663" y1="199.53143" x2="258.59663" y2="203.37495" gradientUnits="userSpaceOnUse" id="color-6"><stop offset="0" stop-color="#ec9c21"/><stop offset="1" stop-color="#b75428"/></linearGradient><linearGradient x1="229.52489" y1="151.76196" x2="229.52489" y2="168.50873" gradientUnits="userSpaceOnUse" id="color-7"><stop offset="0" stop-color="#ec9c21" stop-opacity="0.59677"/><stop offset="1" stop-color="#b75428" stop-opacity="0.37097"/></linearGradient><linearGradient x1="266.13715" y1="181.96106" x2="266.13715" y2="195.96245" gradientUnits="userSpaceOnUse" id="color-8"><stop offset="0" stop-color="#ec9c21"/><stop offset="1" stop-color="#b75428"/></linearGradient><linearGradient x1="230.57849" y1="143.29832" x2="230.57849" y2="148.51454" gradientUnits="userSpaceOnUse" id="color-9"><stop offset="0" stop-color="#ec9c21"/><stop offset="1" stop-color="#b75428"/></linearGradient><linearGradient x1="245.84469" y1="142.19989" x2="245.84469" y2="147.69063" gradientUnits="userSpaceOnUse" id="color-10"><stop offset="0" stop-color="#ec9c21"/><stop offset="1" stop-color="#b75428"/></linearGradient><linearGradient x1="266.13715" y1="164.74006" x2="266.13715" y2="178.74146" gradientUnits="userSpaceOnUse" id="color-11"><stop offset="0" stop-color="#ec9c21"/><stop offset="1" stop-color="#b75428"/></linearGradient><linearGradient x1="213.22172" y1="209.50334" x2="220.89014" y2="217.21859" gradientUnits="userSpaceOnUse" id="color-12"><stop offset="0" stop-color="#ec9c21"/><stop offset="1" stop-color="#b75428"/></linearGradient><linearGradient x1="250.39267" y1="211.98989" x2="242.72423" y2="219.70513" gradientUnits="userSpaceOnUse" id="color-13"><stop offset="0" stop-color="#ec9c21"/><stop offset="1" stop-color="#b75428"/></linearGradient><linearGradient x1="230.4391" y1="162.24449" x2="229.70036" y2="171.77528" gradientUnits="userSpaceOnUse" id="color-14"><stop offset="0" stop-color="#ec9c21"/><stop offset="1" stop-color="#b75428"/></linearGradient><linearGradient x1="250.59991" y1="162.44449" x2="251.33865" y2="171.97528" gradientUnits="userSpaceOnUse" id="color-15"><stop offset="0" stop-color="#ec9c21"/><stop offset="1" stop-color="#b75428"/></linearGradient></defs><g transform="translate(-202.28841,-144.26409)"><g data-paper-data="{&quot;isPaintingLayer&quot;:true}" fill-rule="nonzero" stroke-linejoin="miter" stroke-miterlimit="10" stroke-dasharray="" stroke-dashoffset="0" style="mix-blend-mode: normal"><path d="M249.50504,144.67613c1.38148,0.73321 2.80677,1.55466 3.60163,2.87943c0.60098,1.00164 0.14998,2.52778 0.81066,3.44265c0.16613,0.23004 1.15119,-0.29004 1.3021,-0.30037c1.02384,-0.07005 2.79127,0.52081 3.71848,0.88896c1.32255,0.52512 2.59432,2.93705 3.57726,4.05891c1.05813,1.20768 0.81339,3.04404 0.64774,4.53484c-0.90507,8.14559 -6.16921,9.08271 -13.55652,9.08271c-6.2456,0 -11.53522,-7.35773 -15.20579,-11.7704c-1.04526,-1.25659 -3.24858,-5.89894 -1.01222,-7.17686c0.91324,-1.54739 2.59766,-2.58545 4.52453,-2.58545c0.2641,0 0.52364,0.0195 0.77727,0.05714c3.25595,-0.16532 7.39441,-4.92693 10.81484,-3.11157z" fill="#feffc3" stroke="none" stroke-width="0.5" stroke-linecap="butt"/><path d="M206.80312,163.99486c2.77011,-12.46547 8.48544,-9.17556 16.2875,-12.05c0.46247,-0.17039 -0.41977,-0.96079 -0.32021,-1.44348c0.18169,-0.88088 0.6362,-1.89309 1.28126,-2.79343c0.15411,0.22894 0.34756,0.44672 0.58504,0.64956c3.05474,2.60918 7.35821,0.8395 10.93044,1.96346c1.08614,0.34174 0.31432,5.47787 0.33186,5.79366c0.03867,0.696 1.36672,1.59804 2.80989,2.36601c0.01785,0.27105 0.02692,0.5405 0.02692,0.80772c0,2.53238 -2.57933,7.12152 -5.9762,5.98923c-1.80867,-0.60289 -4.08968,-1.81497 -4.35962,-3.70227c-0.0725,-0.50687 -0.85803,0.5998 -1.35477,0.72398c-1.49704,0.37426 -3.38886,0.1299 -4.9625,0.24362c-0.3545,0.02562 -7.23156,-0.03441 -7.37961,0.38945c-0.00559,0.01601 -0.01095,0.0323 -0.01606,0.04883c0.01064,0.13649 0.01606,0.27444 0.01606,0.41367c0,0.44321 -0.05492,0.87358 -0.15832,1.28471c-0.57308,2.27845 -2.63539,3.96529 -5.09168,3.96529c-1.4845,0 4.3749,-4.01614 3.41999,-5.00664c-0.41487,-0.293 -1.72501,1.53655 -1.85131,1.03134c-0.3948,-0.73731 -0.61867,0.62014 -0.61867,-0.2747c0,-0.03135 -1.19973,0.53736 -1.19918,0.50615c-0.11684,-0.71238 -2.5516,-0.22767 -2.40082,-0.90615z" fill="#feffc3" stroke="none" stroke-width="0.5" stroke-linecap="butt"/><path d="M244.03862,164.60366c-6.0903,3.1071 -14.9168,-1.24723 -14.9168,-8.10774c0,-2.09113 7.31605,-8.85479 9.2781,-8.23746c1.14558,0.36044 6.49283,1.87887 8.3659,4.63408c1.87307,2.75521 3.19499,8.68979 -2.72719,11.71112z" fill="#ff6d6d" stroke="#000000" stroke-width="1" stroke-linecap="butt"/><path d="M262.81027,163.24316l8.39014,9.5178l-11.27426,4.351l2.88411,3.18911l8.39014,9.51779l-7.82297,6.90783l-2.14033,3.69772l2.62192,3.26324l-6.5548,0.54387l-1.31095,1.90356l1.57315,6.79843l-39.73927,1.48846l-4.5494,-15.24652l-8.76982,-5.69268l5.34484,-5.31108l1.46237,-3.9216l-6.18712,-3.94903l5.50603,-10.06168l2.09753,-2.1755l-5.50603,-3.80712l1.66671,-1.72866c0.07297,0.20929 0.16568,0.40565 0.2796,0.58447c2.31935,3.64045 9.10725,0.95214 10.32174,-2.43697c0.15853,-0.44238 4.50216,-1.11014 5.06902,-1.2c1.34156,-0.21267 2.46524,-1.68642 3.77575,-1.68803c0.06132,-0.00008 0.12216,-0.00019 0.18255,-0.00036c0.00868,0.41154 0.05862,0.84953 0.17809,1.32741c0.06035,0.24139 2.57916,1.80037 3.14448,2.09631c2.54089,1.33016 3.86994,-1.65024 4.38573,-4.44723c1.15722,1.32421 5.00172,2.95266 5.93717,3.26447l0.18688,0.11213c0.22781,1.13907 0.14798,2.38635 0.68344,3.41721c1.17194,2.25618 11.03522,3.87414 13.06805,2.13171c0.70929,-0.60796 0.98175,-1.62205 0.93304,-2.64904z" fill="#000000" stroke="#000000" stroke-width="0.5" stroke-linecap="butt"/><path d="M261.24096,164.75443c2.99034,1.90237 8.80727,4.30127 7.84635,8.9449c-0.96094,4.64363 -6.99367,0.88311 -10.54354,4.08909c-3.54987,3.20598 1.03548,1.11503 2.69719,2.99714c1.6617,1.88212 8.80314,4.32124 7.84635,8.94488c-0.95679,4.62366 -4.03944,2.9871 -7.31593,6.49202c-3.27648,3.50492 -3.07583,0.86262 -2.0016,3.47515c1.07423,2.61253 3.56974,1.97946 2.45198,3.06681c-1.11776,1.08737 -3.79334,-0.21949 -6.12996,0.51114c-2.33661,0.73063 -1.25818,0.71522 -1.226,1.78898c0.0322,1.07376 3.38226,4.77081 1.4712,6.38921c-1.91106,1.6184 -35.2166,2.98442 -37.16361,1.39887c-1.94701,-1.58554 -0.53078,-13.18996 -4.25453,-14.32879c-3.72375,-1.13882 -7.03376,-1.58001 -8.20142,-5.35002c-1.16766,-3.77002 3.01477,-2.56672 4.99842,-4.99138c1.98365,-2.42467 2.71318,-1.43294 1.36758,-3.68555c-1.3456,-2.25261 -4.90973,-0.36209 -5.7861,-3.71133c-0.87637,-3.34924 2.87302,-5.77473 5.14915,-9.45603c1.03912,-1.68061 1.67928,-2.00417 2.00382,-1.973c-0.01359,-0.02206 -0.02766,-0.04587 -0.04222,-0.07155c-0.67646,-1.19318 -5.00216,-1.04974 -5.14917,-3.57796c-0.02937,-0.50517 0.0602,-0.92629 0.23811,-1.29196c2.57086,2.96937 8.8346,0.36832 9.99657,-2.87422c0.15853,-0.44238 4.50216,-1.11014 5.06902,-1.2c1.34156,-0.21267 2.46524,-1.68642 3.77575,-1.68803c0.06132,-0.00008 0.12216,-0.00019 0.18255,-0.00036c0.00868,0.41154 0.05862,0.84953 0.17809,1.32741c0.06035,0.24139 2.57916,1.80037 3.14448,2.09631c2.54089,1.33016 3.86994,-1.65024 4.38573,-4.44723c1.15722,1.32421 5.00172,2.95266 5.93717,3.26447l0.18688,0.11213c0.22781,1.13907 0.14798,2.38635 0.68344,3.41721c1.17194,2.25618 11.03522,3.87414 13.06805,2.13171c0.48787,-0.41818 0.76908,-1.0285 0.88125,-1.703c1.46328,-0.48542 3.12601,-0.81522 4.25495,-0.09702z" fill="url(#color-1)" stroke="#000000" stroke-width="1" stroke-linecap="butt"/><path d="" fill="url(#color-2)" stroke="#000000" stroke-width="1.5" stroke-linecap="round"/><path d="M214.11613,183.88282l-8.69211,-1.92175l5.53135,-10.15788" fill="url(#color-3)" stroke="#000000" stroke-width="1.5" stroke-linecap="round"/><path d="M215.67369,198.37269l-11.80721,-6.22769l8.82756,-4.88127" fill="url(#color-4)" stroke="#000000" stroke-width="1.5" stroke-linecap="round"/><path d="M225.81224,199.73516l-5.53135,0.27454l2.89737,-6.03982" fill="none" stroke="#000000" stroke-width="1.5" stroke-linecap="round"/><path d="M236.24153,205.36375l-5.00455,4.66713l-2.63453,-3.43201" fill="none" stroke="#000000" stroke-width="1.5" stroke-linecap="round"/><path d="M253.98829,205.87945l2.96364,7.82461l-8.33073,-3.29445" fill="url(#color-5)" stroke="#000000" stroke-width="1.5" stroke-linecap="round"/><path d="M259.25511,199.53143l2.63398,3.29445l-6.58495,0.54907" fill="url(#color-6)" stroke="#000000" stroke-width="1.5" stroke-linecap="round"/><path d="M255.55225,188.98235l-0.52678,3.29444h-5.00455" fill="none" stroke="#000000" stroke-width="1.5" stroke-linecap="round"/><path d="M225.00499,189.68792l-3.42417,-0.82361l-1.05358,-3.29445" fill="none" stroke="#000000" stroke-width="1.5" stroke-linecap="round"/><path d="M239.92909,202.27682l-3.16077,0.54907l-1.31698,-2.74537" fill="none" stroke="#000000" stroke-width="1.5" stroke-linecap="round"/><path d="M222.54485,168.50873l-3.42417,-1.64723l6.05813,-2.74537l-2.02326,-4.40938c0.67738,-0.11752 1.22887,-0.20289 1.40708,-0.23114c1.34156,-0.21267 2.46524,-1.68642 3.77575,-1.68803c0.06132,-0.00008 0.12216,-0.00019 0.18254,-0.00036c0.00868,0.41154 0.05863,0.84953 0.17809,1.3274c0.06035,0.24139 2.57916,1.80037 3.14448,2.09631c2.48805,1.3025 3.81414,-1.52814 4.3525,-4.27254l2.15272,3.05969z" fill="url(#color-7)" stroke="#000000" stroke-width="1.5" stroke-linecap="round"/><path d="M263.37147,181.96106l8.42873,9.6088l-11.3261,4.3926" fill="url(#color-8)" stroke="#000000" stroke-width="1.5" stroke-linecap="round"/><path d="" fill="url(#color-9)" stroke="#000000" stroke-width="1.5" stroke-linecap="round"/><path d="" fill="url(#color-10)" stroke="#000000" stroke-width="1.5" stroke-linecap="round"/><g stroke-linecap="butt"><path d="M226.57377,170.973c0,0 5.64402,-5.64023 8.01028,-4.51952c2.18664,1.03565 4.727,11.48375 4.727,11.48375c0,0 -6.83557,6.45106 -9.97673,4.96334c-3.14117,-1.48773 -2.76055,-11.92755 -2.76055,-11.92755z" fill="#ffffff" stroke="#000000" stroke-width="2.5"/><path d="M226.5428,175.02809c0.28142,-0.64551 0.4185,-3.4784 0.4185,-3.4784c0,0 4.54962,-5.61146 6.90434,-4.49621c2.27408,1.07706 4.73006,9.0169 4.94997,11.03105c0.08385,0.76796 -0.91378,0.59882 -1.22406,1.31052c-0.33773,0.77466 -0.80455,1.22629 -1.49172,1.67668c-0.13816,0.09055 -0.60831,0.25922 -0.7571,0.33577c-0.9156,0.47107 -1.45033,1.77991 -2.61043,1.68041c0.72095,-0.43493 1.43294,-1.08844 1.75052,-1.67568c0.35512,-0.65669 0.74936,-0.90942 0.73893,-1.93298c-0.05769,-5.66296 -6.93261,-4.83114 -8.92033,-1.68314c-0.20348,-0.93959 -0.13923,-1.89497 0.24139,-2.76801z" data-paper-data="{&quot;index&quot;:null}" fill-opacity="0.53226" fill="#0c0067" stroke="none" stroke-width="0"/></g><path d="M231.44364,171.88582c0,-0.56319 0.43803,-1.01974 0.97836,-1.01974c0.54033,0 0.97835,0.45655 0.97835,1.01974c0,0.56319 -0.43802,1.01974 -0.97835,1.01974c-0.54033,0 -0.97836,-0.45655 -0.97836,-1.01974z" fill="#050505" stroke="none" stroke-width="0.5" stroke-linecap="butt"/><g stroke-linecap="butt"><path d="M251.38165,182.56072c-3.14117,1.48773 -9.97673,-4.96333 -9.97673,-4.96333c0,0 1.54037,-9.64811 3.727,-10.68375c2.36625,-1.12071 9.01028,3.71952 9.01028,3.71952c0,0 0.38061,10.43983 -2.76055,11.92755z" fill="#ffffff" stroke="#000000" stroke-width="2.5"/><path d="M254.21456,177.25628c-1.98772,-3.148 -8.86263,-3.97982 -8.92033,1.68314c-0.01044,1.02357 0.38381,1.27629 0.73893,1.93298c0.31757,0.58724 1.02956,1.24075 1.75051,1.67569c-1.1601,0.0995 -1.69483,-1.20933 -2.61043,-1.68041c-0.14879,-0.07655 -0.61894,-0.24523 -0.7571,-0.33578c-0.68718,-0.4504 -1.154,-0.90203 -1.49172,-1.67669c-0.31028,-0.7117 -1.3079,-0.54254 -1.22406,-1.3105c0.21991,-2.01415 1.67588,-9.35401 3.94997,-10.43107c2.35473,-1.11525 7.90434,3.89621 7.90434,3.89621c0,0 0.13707,2.83289 0.41849,3.4784c0.38063,0.87305 0.44488,1.82843 0.2414,2.76802z" data-paper-data="{&quot;index&quot;:null}" fill-opacity="0.53226" fill="#0c0067" stroke="none" stroke-width="0"/></g><path d="M245.35209,171.68301c-0.54033,0 -0.97835,-0.45655 -0.97835,-1.01974c0,-0.56319 0.43802,-1.01974 0.97835,-1.01974c0.54033,0 0.97836,0.45655 0.97836,1.01974c0,0.56319 -0.43803,1.01974 -0.97836,1.01974z" fill="#050505" stroke="none" stroke-width="0.5" stroke-linecap="butt"/><path d="M263.37147,164.74006l8.42873,9.6088l-11.3261,4.3926" fill="url(#color-11)" stroke="#000000" stroke-width="1.5" stroke-linecap="round"/><path d="M229.46823,212.45401l-10.59502,1.43528l-0.6345,-9.29101" fill="url(#color-12)" stroke="#000000" stroke-width="1.5" stroke-linecap="round"/><path d="M246.98948,209.00716l-2.24829,7.36867l-8.98123,-5.76056" data-paper-data="{&quot;index&quot;:null}" fill="url(#color-13)" stroke="#000000" stroke-width="1.5" stroke-linecap="round"/><path d="M231.59156,194.47564c-0.02631,-1.05211 1.66547,-3.08068 1.80536,-3.15937c4.69302,-2.63987 11.67072,1.45235 12.4686,6.19091c0.3851,2.28707 -6.8239,-4.22322 -6.8239,-4.22322c0,0 -7.37221,4.30545 -7.45005,1.19168z" fill="#ffffff" stroke="#000000" stroke-width="1" stroke-linecap="butt"/><g stroke-width="1"><g fill="none" stroke="none" stroke-linecap="butt" font-family="sans-serif" font-weight="normal" font-size="12" text-anchor="start"/><path d="M236.62405,162.98207l2.61645,4.52353l-14.3751,3.43531l-3.0669,-4.59679" data-paper-data="{&quot;index&quot;:null}" fill="url(#color-14)" stroke="#000000" stroke-linecap="round"/></g><g data-paper-data="{&quot;index&quot;:null}" stroke-width="1"><g fill="none" stroke="none" stroke-linecap="butt" font-family="sans-serif" font-weight="normal" font-size="12" text-anchor="start"/><path d="M259.2405,166.54413l-3.0669,4.59679l-14.3751,-3.43531l2.61645,-4.52353" data-paper-data="{&quot;index&quot;:null}" fill="url(#color-15)" stroke="#000000" stroke-linecap="round"/></g></g></g></svg>