<svg version="1.1" xmlns="http://www.w3.org/2000/svg" xmlns:xlink="http://www.w3.org/1999/xlink" width="76.06413" height="52.60201" viewBox="0,0,76.06413,52.60201"><g transform="translate(-81.45082,-180.77239)"><g data-paper-data="{&quot;isPaintingLayer&quot;:true}" fill-rule="nonzero" stroke="#000000" stroke-width="2" stroke-linejoin="miter" stroke-miterlimit="10" stroke-dasharray="" stroke-dashoffset="0" style="mix-blend-mode: normal"><path d="M113.38736,200.62311c11.95359,0 21.64387,4.12459 21.64387,9.21252c0,5.08793 -9.6903,9.21251 -21.64387,9.21251c-11.95359,0 -21.64386,-4.12458 -21.64386,-9.21251c0,-5.08793 9.69029,-9.21252 21.64386,-9.21252z" data-paper-data="{&quot;index&quot;:null}" fill="#9966ff" stroke-linecap="butt"/><path d="M125.59909,197.36122l14.86849,6.5533l-7.7696,4.21778l11.76538,8.43556l-17.09215,7.20022" data-paper-data="{&quot;index&quot;:null}" fill="#58ff00" stroke-linecap="round"/><path d="M99.20128,203.03346c2.52144,0 4.56547,1.70336 4.56547,3.80456c0,2.1012 -2.04403,3.80455 -4.56547,3.80455c-2.52144,0 -4.56547,-1.70335 -4.56547,-3.80455c0,-2.1012 2.04403,-3.80456 4.56547,-3.80456z" data-paper-data="{&quot;index&quot;:null}" fill="#58ff00" stroke-linecap="butt"/><path d="M95.46589,214.93134l3.73538,-2.3519l3.32034,0.13834l1.93687,-3.04364h2.6286l0.13835,-4.15043l5.2572,3.32034l-5.11885,8.1625l-0.2767,1.79852" data-paper-data="{&quot;index&quot;:null}" fill="#00e6ff" stroke-linecap="round"/><path d="M101.41483,203.86354l-5.81059,3.73539" data-paper-data="{&quot;index&quot;:null}" fill="none" stroke-linecap="round"/><path d="M103.35169,217.97498l-2.3519,-5.2572l7.05572,2.76695l-2.07521,-5.39555l4.42712,0.96843" data-paper-data="{&quot;index&quot;:null}" fill="none" stroke-linecap="round"/><path d="M122.35509,227.01094l-9.86232,-2.01729l-9.63818,6.50017v-9.41404h-13.89691l2.91387,-7.39674l-8.96575,-11.65547l6.94845,-4.48287l-0.89657,-8.06917l15.01763,1.56901l2.68972,-8.96575l15.46592,6.94845l13.89691,-7.84503l4.93116,10.98304l12.77619,0.44829l-4.48287,6.72431l6.27602,4.93116l-10.7589,4.25873l3.5863,13.89691h-10.7589l-1.56901,4.93116l-13.22448,-6.94845l-0.44829,4.25873" data-paper-data="{&quot;index&quot;:null}" fill="#9966ff" stroke-linecap="round"/></g></g></svg>