<svg version="1.1" xmlns="http://www.w3.org/2000/svg" xmlns:xlink="http://www.w3.org/1999/xlink" width="55.51637" height="49.80355" viewBox="0,0,55.51637,49.80355"><g transform="translate(-235.42319,-151.74553)"><g data-paper-data="{&quot;isPaintingLayer&quot;:true}" fill-rule="nonzero" stroke-linejoin="miter" stroke-miterlimit="10" stroke-dasharray="" stroke-dashoffset="0" style="mix-blend-mode: normal"><path d="M290.42034,185.86677c-0.97056,0.78077 -6.64443,-0.27034 -6.60808,0.28826c0.11946,1.83613 4.27528,6.51509 4.27528,6.51509l-3.45981,-0.8086c0,0 -6.13767,-0.28503 -8.28672,0.98396c-2.39486,1.41415 -5.42502,7.1127 -5.42502,7.1127l-2.069,-3.68643l-9.7013,4.13846l-0.50182,-2.20046l-5.31519,-1.76302l4.98831,-3.26093c0,0 2.21606,-1.49102 1.77176,-2.51797c-0.52837,-1.22129 -3.68607,-2.07658 -3.00334,-3.03649c1.09867,-1.54472 8.36205,-4.47091 8.36205,-4.47091l-11.26846,2.65249c0,0 1.19254,-3.61023 -1.21162,-4.41664c-1.83755,-0.61636 -7.39303,1.66364 -7.55612,0.94854c-0.28117,-1.23289 6.71024,-5.55378 6.71024,-5.55378l-10.49132,2.46957l-1.1929,-10.61657l-5.01409,-0.44274l6.1411,-5.38715l-1.47969,-2.89772l13.61276,-1.34945l-1.55567,-6.82143l4.88934,3.48628l2.24393,0.86295l8.88688,-2.32375c0,0 7.1553,0.92593 -2.58165,4.91163c-0.83599,0.34221 5.00192,0.31513 5.00192,0.31513l5.72815,-1.81207c0,0 -4.28252,4.93167 -2.97045,7.53194c1.00091,1.9836 7.67611,1.57608 7.70334,2.69841c0.0395,1.62798 -4.39171,3.83272 -4.39171,3.83272l11.95812,-1.42368c0,0 -4.35529,1.88792 -3.66549,3.87483c0.3516,1.01274 6.47897,2.11969 5.96487,2.87441c-0.58231,0.85484 -6.24741,-0.45481 -8.03369,-0.26108c-1.83806,0.19935 0.20923,1.89665 0.16113,2.42017c-0.14206,1.54615 4.39738,3.8888 4.39738,3.8888c0,0 3.8381,2.55953 2.98657,3.24455z" data-paper-data="{&quot;index&quot;:null}" fill-opacity="0.78226" fill="#8cedf3" stroke="none" stroke-width="0" stroke-linecap="round"/><g stroke-linecap="butt"><path d="M273.81983,177.62417c0,8.77537 -6.13307,15.88923 -13.69859,15.88923c-7.56553,0 -13.69859,-7.11385 -13.69859,-15.88922c0,-8.77537 6.13307,-15.88922 13.69859,-15.88922c7.56553,0 13.69859,7.11385 13.69859,15.88923z" fill="#27d3fe" stroke="#04acd6" stroke-width="2.5"/><path d="M270.32384,169.11076c0.10675,-0.05466 0.24083,-0.08898 0.40923,-0.08898c0.82622,0 0.82622,0.82622 0.82622,0.82622l-0.98826,0.97423c-0.98087,-0.20161 -1.91948,-0.15032 -2.9233,-0.15868c-2.62933,-0.85282 -5.2545,-0.92576 -7.9745,-1.14053c-3.20339,-0.25294 -6.19826,-0.98152 -9.44704,-0.98152c0,0 -0.82622,0 -0.82622,-0.82622c0,-0.82622 0.82622,-0.82622 0.82622,-0.82622c3.29313,0 6.3386,0.74467 9.58333,0.98715c2.74169,0.20488 5.46411,0.24875 8.10289,1.15624c0.83465,-0.00876 1.60889,-0.02212 2.41142,0.07831z" fill="#04acd6" stroke="none" stroke-width="0.5"/><path d="M272.05143,185.26917c0,0.82622 -0.82622,0.82622 -0.82622,0.82622l-0.63496,-0.05909c-0.46515,-0.19722 -0.98645,-0.27751 -1.49172,-0.26912c-0.00395,0.00011 -0.00603,0.00011 -0.00603,0.00011c0,0 -0.00121,0 -0.00353,-0.00005l-1.13705,-0.01486c-1.12304,-0.43382 -2.31913,-0.76073 -3.50098,-0.9971c-1.06608,-0.36663 -1.76683,-0.14405 -2.85552,-0.30842c-1.16726,-0.17622 -2.22932,-0.72802 -3.35865,-0.999c-1.49445,-0.35859 -2.83115,0.13621 -4.30548,0.01984c-2.83332,-0.22363 -5.49511,-1.22825 -8.19752,-1.99763c0,0 -0.79443,-0.22698 -0.56745,-1.02141c0.22698,-0.79443 1.02141,-0.56745 1.02141,-0.56745c2.60306,0.74619 5.15383,1.69733 7.87986,1.93969c1.00227,0.08911 1.90917,-0.22998 2.93053,-0.16561c1.72681,0.10884 3.15039,0.89146 4.8265,1.15511c1.10011,0.17304 1.94298,-0.0114 3.05045,0.34781c1.13914,0.22783 2.31831,0.52533 3.38934,0.97156l0.82159,-0.01479c0.00426,-0.00012 0.0065,-0.00012 0.0065,-0.00012c0.00122,0.00001 0.00245,0.00003 0.00367,0.00005c0.71432,0.00972 1.44081,0.1314 2.10778,0.38715l0.02126,-0.05909c0,0 0.82622,0 0.82622,0.82622z" fill="#04acd6" stroke="none" stroke-width="0.5"/><path d="M269.28779,189.0763c0.45831,0.68745 -0.22915,1.14576 -0.22915,1.14576l-0.95047,0.46687c-0.54973,-0.00245 -1.10409,0.03733 -1.64257,0.14801c-0.80318,0.16064 -1.80774,0.51549 -2.62286,0.50821c-1.96305,-0.01754 -3.66115,-1.88342 -5.50526,-2.50132c-3.26792,-1.09498 -7.03224,-0.94383 -10.40807,-0.94383c0,0 -0.82622,0 -0.82622,-0.82622c0,-0.82622 0.82622,-0.82622 0.82622,-0.82622c3.5596,0 7.47417,-0.11859 10.91908,1.02483c0.91875,0.30495 2.33897,0.87567 3.15231,1.4084c0.66317,0.43437 0.93295,1.02524 1.84194,1.01193c0.72053,-0.01056 1.5905,-0.33446 2.29879,-0.47612c0.64606,-0.12627 1.30835,-0.17762 1.96664,-0.1801l0.03386,-0.18935c0,0 0.68745,-0.45831 1.14576,0.22915z" fill="#04acd6" stroke="none" stroke-width="0.5"/><path d="M271.81704,173.53196c0.10394,-0.04982 0.23278,-0.0807 0.39251,-0.0807c0.82622,0 0.82622,0.82622 0.82622,0.82622l-0.98826,0.97423c-2.80579,-0.56115 -5.60561,-0.1413 -8.45023,-0.15203c-2.03617,-0.39808 -3.71327,-1.14521 -5.61787,-1.85147c-1.30178,-0.48272 -2.782,-0.02831 -4.08404,-0.486c-2.11516,-0.74352 -4.33438,-1.93413 -6.62217,-1.92394c0,0 -0.82622,0 -0.82622,-0.82622c0,-0.82622 0.82622,-0.82622 0.82622,-0.82622c2.45962,0.00928 4.89763,1.15476 7.15844,2.01338c1.26057,0.47874 2.80352,0.0273 4.1187,0.49833c1.77052,0.63411 3.32744,1.3713 5.20976,1.75775c2.71783,-0.0121 5.37424,-0.35016 8.05693,0.07667z" fill="#04acd6" stroke="none" stroke-width="0.5"/><path d="M272.45637,181.61858c0.3695,0.73899 -0.3695,1.10849 -0.3695,1.10849l-0.85964,0.23523c-1.87008,-0.38438 -3.81625,-0.33505 -5.71572,-0.65142c-0.90688,-0.15115 -2.12385,-0.17017 -2.96929,-0.54382c-0.58162,-0.25705 -1.81239,-1.36685 -2.50709,-1.41432c-0.25985,-0.01775 -0.45059,0.30695 -0.7104,0.32537c-1.98691,0.14081 -4.35622,-1.43895 -6.30945,-1.81756c-2.31418,-0.44857 -4.7127,-0.3117 -7.05455,-0.3117c0,0 -0.82622,0 -0.82622,-0.82622c0,-0.82622 0.82622,-0.82622 0.82622,-0.82622c2.45482,0 4.95663,-0.12585 7.38229,0.34453c1.50863,0.29255 3.0749,0.85426 4.53288,1.34045c0.02005,0.00669 1.09091,0.4796 1.29775,0.4512c0.32603,-0.04475 0.60287,-0.36524 0.93015,-0.33086c1.08136,0.11362 2.13568,1.09833 3.07078,1.53867c0.7004,0.32983 1.85057,0.31418 2.60859,0.44051c1.922,0.32055 3.86731,0.28951 5.76813,0.66102l-0.20342,-0.09287c0,0 0.73899,-0.3695 1.10849,0.3695z" fill="#04acd6" stroke="none" stroke-width="0.5"/><path d="M273.03696,177.34327c0,0.82622 -0.82622,0.82622 -0.82622,0.82622l-0.21211,-0.00638c-2.38549,-0.30283 -4.81242,-0.19807 -7.20609,-0.43536c-2.38118,-0.18311 -4.9694,-0.34453 -7.31469,-0.77827c-1.95496,-0.36155 -3.71642,-1.28229 -5.63794,-1.76425c-1.72957,-0.43382 -3.51211,-0.41437 -5.28328,-0.41437c0,0 -0.82622,0 -0.82622,-0.82622c0,-0.82622 0.82622,-0.82622 0.82622,-0.82622c1.90727,0 3.81753,-0.00153 5.68001,0.4627c1.89149,0.47145 3.62702,1.37864 5.54462,1.74401c2.28487,0.43535 4.83181,0.57769 7.15686,0.75659c2.41676,0.24389 4.85425,0.14448 7.26546,0.4417l0.00715,-0.00639c0,0 0.82622,0 0.82622,0.82622z" fill="#04acd6" stroke="none" stroke-width="0.5"/></g><path d="M241.36577,183.7611l-0.90091,-12.79714l9.16242,1.42368l0.26141,-14.06307l4.38896,1.81207l1.85443,-5.22676l6.8092,2.32375l1.71932,-0.86295l3.74624,-3.48627l-1.19196,6.82143l10.43021,1.34945l-1.13376,2.89771l4.70538,5.38715l-3.84184,0.44274l-0.914,10.61657l-8.03854,-2.46957l-1.57647,9.02189l-8.63399,-2.65249l5.46343,10.02536l3.82208,3.26093l-4.07255,1.76302l-0.3845,2.20047l-7.43322,-4.13847l-1.58528,3.68643l-10.50604,-8.09665l-2.65094,0.8086z" fill-opacity="0.5" fill="#27d4fe" stroke="none" stroke-width="0" stroke-linecap="round"/></g></g></svg>