<svg version="1.1" xmlns="http://www.w3.org/2000/svg" xmlns:xlink="http://www.w3.org/1999/xlink" width="122.0019" height="73.17728" viewBox="0,0,122.0019,73.17728"><g transform="translate(-209.3125,-142.22044)"><g data-paper-data="{&quot;isPaintingLayer&quot;:true}" fill-rule="nonzero" stroke-linejoin="miter" stroke-miterlimit="10" stroke-dasharray="" stroke-dashoffset="0" style="mix-blend-mode: normal"><g data-paper-data="{&quot;index&quot;:null}" stroke-linecap="butt"><path d="M328.13378,163.06012c-4.01169,6.21978 -12.95802,8.32658 -19.9822,4.70567c-7.02418,-3.62091 -9.46629,-11.59837 -5.45462,-17.81815c4.01169,-6.21978 12.95802,-8.32658 19.9822,-4.70567c7.02418,3.62091 9.46629,11.59836 5.45462,17.81814z" fill="#32c302" stroke="#000000" stroke-width="2.5"/><path d="M292.39407,167.98977c-4.52086,7.00922 -14.70456,9.33091 -22.74591,5.18565c-8.04136,-4.14525 -10.89529,-13.18774 -6.37443,-20.19696c4.52086,-7.00922 14.70456,-9.33091 22.74592,-5.18565c8.04136,4.14525 10.89529,13.18774 6.37443,20.19696z" fill="#32c302" stroke="#000000" stroke-width="3"/><path d="M306.41743,163.76443c-4.01169,6.21978 -12.79533,8.41045 -19.61882,4.893c-6.82349,-3.51746 -9.10291,-11.41105 -5.09124,-17.63083c4.01169,-6.21978 12.79533,-8.41045 19.61882,-4.89299c6.82349,3.51746 9.10291,11.41105 5.09124,17.63082z" fill="#32c302" stroke="#000000" stroke-width="3"/><path d="M292.15181,167.86489c-4.52086,7.00922 -14.70456,9.3309 -22.74591,5.18565c-8.04136,-4.14525 -10.89529,-13.18774 -6.37443,-20.19695c4.52086,-7.00922 14.70456,-9.33091 22.74591,-5.18566c8.04136,4.14525 10.89529,13.18775 6.37443,20.19696z" fill="#8c3801" stroke="none" stroke-width="0"/><path d="M306.17517,163.63955c-4.01169,6.21978 -12.79533,8.41045 -19.61882,4.89299c-6.82349,-3.51746 -9.10291,-11.41105 -5.09124,-17.63082c4.01169,-6.21978 12.79533,-8.41045 19.61882,-4.89299c6.82349,3.51746 9.10291,11.41105 5.09124,17.63083z" fill="#8c3801" stroke="none" stroke-width="0"/><path d="M328.13378,163.06012c-4.01169,6.21978 -12.95802,8.32658 -19.9822,4.70567c-7.02418,-3.62091 -9.46629,-11.59837 -5.45462,-17.81815c4.01169,-6.21978 12.95802,-8.32658 19.9822,-4.70567c7.02418,3.62091 9.46629,11.59836 5.45462,17.81814z" fill="#32c302" stroke="none" stroke-width="0"/></g><g data-paper-data="{&quot;index&quot;:null}" stroke-linecap="butt"><path d="M306.46204,212.37619c-6.27958,3.62091 -14.27757,1.51411 -17.86399,-4.70567c-3.58643,-6.21978 -1.40319,-14.19723 4.8764,-17.81814c6.27958,-3.62091 14.27757,-1.51411 17.86399,4.70567c3.58643,6.21978 1.40319,14.19723 -4.8764,17.81814z" fill="#32c302" stroke="#000000" stroke-width="2.5"/><path d="M273.6886,209.82535c-7.18894,4.14525 -16.29311,1.82356 -20.33474,-5.18565c-4.04163,-7.00922 -1.49022,-16.0517 5.69871,-20.19696c7.18894,-4.14525 16.2931,-1.82357 20.33473,5.18565c4.04163,7.00922 1.49023,16.0517 -5.69871,20.19696z" fill="#32c302" stroke="#000000" stroke-width="3"/><path d="M287.37259,211.48456c-6.10017,3.51746 -13.9527,1.32679 -17.53913,-4.89299c-3.58643,-6.21978 -1.54863,-14.11337 4.55154,-17.63083c6.10017,-3.51746 13.9527,-1.32678 17.53913,4.893c3.58643,6.21978 1.54863,14.11337 -4.55154,17.63082z" fill="#32c302" stroke="#000000" stroke-width="3"/><path d="M273.47202,209.95023c-7.18894,4.14525 -16.29311,1.82356 -20.33473,-5.18565c-4.04163,-7.00922 -1.49022,-16.0517 5.69871,-20.19696c7.18894,-4.14525 16.29311,-1.82357 20.33473,5.18565c4.04163,7.00922 1.49023,16.05171 -5.69871,20.19696z" fill="#8c3801" stroke="none" stroke-width="0"/><path d="M287.15602,211.60944c-6.10017,3.51746 -13.9527,1.32679 -17.53913,-4.89299c-3.58643,-6.21978 -1.54863,-14.11337 4.55154,-17.63083c6.10017,-3.51746 13.9527,-1.32679 17.53913,4.89299c3.58643,6.21978 1.54863,14.11337 -4.55154,17.63083z" fill="#8c3801" stroke="none" stroke-width="0"/><path d="M306.46204,212.37619c-6.27958,3.62091 -14.27757,1.51411 -17.86399,-4.70567c-3.58643,-6.21978 -1.40319,-14.19723 4.8764,-17.81814c6.27958,-3.62091 14.27757,-1.51411 17.86399,4.70567c3.58643,6.21978 1.40319,14.19723 -4.8764,17.81814z" fill="#32c302" stroke="none" stroke-width="0"/></g><g stroke-linecap="butt"><g stroke-width="2.5"><path d="M273.9375,178c0,17.94925 -14.18698,32.5 -31.6875,32.5c-17.50053,0 -31.6875,-14.55075 -31.6875,-32.5c0,-17.94925 14.18697,-32.5 31.6875,-32.5c17.50052,0 31.6875,14.55075 31.6875,32.5z" fill="#32c302" stroke="#1a6521"/><path d="M273.9375,178c0,10.42629 -4.78692,19.70586 -12.22961,25.65291c0.1272,-4.49286 -0.28829,-8.78947 -0.32255,-11.15291c-0.27884,-19.23994 -0.66225,-25.83692 -7.21318,-42.33377c-0.24981,-0.62907 -0.37948,-1.24918 -0.44826,-1.86693c0.03412,-0.18777 0.06299,-0.37736 0.08646,-0.56863c11.78331,4.73763 20.12713,16.5041 20.12713,30.26934z" fill="#035fff" stroke="#1d1b66"/></g><g><g fill="#000000" stroke="#000000" stroke-width="2"><path d="M270.82386,171.12527c4.25198,-0.5746 8.19057,2.59799 8.7971,7.08619c0.60653,4.4882 -2.3487,8.59241 -6.60068,9.16701c-4.25198,0.5746 -8.19057,-2.59799 -8.7971,-7.08619c-0.60653,-4.4882 2.3487,-8.59241 6.60068,-9.16701z"/><path d="M284.20638,174.54311c5.43308,-0.73421 10.26134,1.80717 10.26134,1.80717c0,0 -3.98051,3.73178 -9.4136,4.466c-5.43308,0.73421 -10.02724,-0.07488 -10.26134,-1.80717c-0.2341,-1.73229 3.98051,-3.73178 9.4136,-4.466z"/></g><g fill="#ff0303" stroke="none"><path d="M270.82386,171.12527c4.25198,-0.5746 8.19057,2.59799 8.7971,7.08619c0.60653,4.4882 -2.3487,8.59241 -6.60068,9.16701c-4.25198,0.5746 -8.19057,-2.59799 -8.7971,-7.08619c-0.60653,-4.4882 2.3487,-8.59241 6.60068,-9.16701z" stroke-width="NaN"/><path d="M284.20638,174.54311c5.43308,-0.73421 10.26134,1.80717 10.26134,1.80717c0,0 -3.98051,3.73178 -9.4136,4.466c-5.43308,0.73421 -10.02724,-0.07488 -10.26134,-1.80717c-0.2341,-1.73229 3.98051,-3.73178 9.4136,-4.466z" stroke-width="0"/></g></g></g><path d="M253.88535,166.25l3.25,27" fill="none" stroke="#000000" stroke-width="2" stroke-linecap="round"/><g stroke="#040404" stroke-linecap="butt"><g fill="#ffffa8" stroke-width="2.5"><path d="M226.13535,188.625c0,-4.76345 3.86155,-8.625 8.625,-8.625c4.76345,0 8.625,3.86155 8.625,8.625c0,4.76345 -3.86155,8.625 -8.625,8.625c-4.76345,0 -8.625,-3.86155 -8.625,-8.625z"/><path d="M229.88535,164.875c0,-4.76345 3.86155,-8.625 8.625,-8.625c4.76345,0 8.625,3.86155 8.625,8.625c0,4.76345 -3.86155,8.625 -8.625,8.625c-4.76345,0 -8.625,-3.86155 -8.625,-8.625z"/></g><path d="M245.9476,165.38061c0,1.38071 -1.39911,2.5 -3.125,2.5c-1.72589,0 -3.125,-1.11929 -3.125,-2.5c0,-1.38071 1.39911,-2.5 3.125,-2.5c1.72589,0 3.125,1.11929 3.125,2.5z" fill="#ad0303" stroke-width="0"/><path d="M242.9476,190.38061c0,1.38071 -1.39911,2.5 -3.125,2.5c-1.72589,0 -3.125,-1.11929 -3.125,-2.5c0,-1.38071 1.39911,-2.5 3.125,-2.5c1.72589,0 3.125,1.11929 3.125,2.5z" fill="#ad0303" stroke-width="0"/></g></g></g></svg>