<svg version="1.1" xmlns="http://www.w3.org/2000/svg" xmlns:xlink="http://www.w3.org/1999/xlink" width="95.10286" height="134.76184" viewBox="0,0,95.10286,134.76184"><defs><linearGradient x1="241.78774" y1="153.29702" x2="241.78774" y2="264.5552" gradientUnits="userSpaceOnUse" id="color-1"><stop offset="0" stop-color="#b1cf16"/><stop offset="1" stop-color="#e9f366"/></linearGradient><radialGradient cx="235.83333" cy="186.91505" r="4.25" gradientUnits="userSpaceOnUse" id="color-2"><stop offset="0" stop-color="#020702"/><stop offset="1" stop-color="#050a02"/></radialGradient><radialGradient cx="259.58333" cy="188.99838" r="3.33333" gradientUnits="userSpaceOnUse" id="color-3"><stop offset="0" stop-color="#020702"/><stop offset="1" stop-color="#050a02"/></radialGradient></defs><g transform="translate(-193.62203,-130.79336)"><g data-paper-data="{&quot;isPaintingLayer&quot;:true}" fill-rule="nonzero" stroke-linecap="butt" stroke-linejoin="miter" stroke-miterlimit="10" stroke-dasharray="" stroke-dashoffset="0" style="mix-blend-mode: normal"><g><g stroke="#004700" stroke-width="1"><path d="M235.92027,171.43938c0,0 2.98481,-13.79815 4.71284,-19.63656c1.54727,-5.22765 7.26618,-16.44743 7.26618,-16.44743c0,0 8.95574,5.95316 10.40164,6.38111c0.3037,0.08989 2.93174,1.91061 2.93174,1.91061c0,0 -5.09258,7.41565 -6.59031,12.47595c-1.75625,5.93372 -5.67614,19.17763 -5.67614,19.17763z" fill="#399435"/><path d="M262.59193,143.38434c-0.61461,2.07655 -2.91264,0.9556 -6.44067,-0.2626c-0.59416,-0.20516 -0.51888,-2.79269 -1.18065,-2.98856c-0.85837,-0.25406 -2.35294,1.7125 -3.06587,1.19294c-3.10036,-2.25949 -4.73818,-6.53346 -4.15432,-8.5061c0.71812,-2.42627 4.85027,-1.55067 9.44148,-0.19178c4.59122,1.3589 6.11815,8.32984 5.40003,10.7561z" fill="#91e665"/></g><path d="M196.48357,244.41031c-2.99751,-9.22663 -1.81746,-18.12133 -0.3295,-27.79045c1.62094,-10.53322 3.32,-19.70369 8.58642,-29.17135c2.89907,-4.3532 5.89267,-8.86527 8.45402,-13.4214c4.02671,-7.16273 6.76688,-15.61281 14.94927,-19.0765c4.74216,-2.0074 11.18122,-2.60459 15.30547,0.60729c1.17875,0.91799 2.79082,1.43133 3.86824,2.42116c2.54941,-1.70005 3.02945,-2.34066 6.75243,-0.01921c0.89999,0.56119 1.68423,1.38179 2.19172,2.31864c0.6711,-0.62876 1.58561,-1.01711 2.39878,-1.46362c2.89114,-1.58753 3.69196,-1.85604 6.93909,-1.55477c7.70668,0.71503 9.36749,8.30542 10.95625,14.65563c0.97602,4.22941 2.62136,8.42966 3.29049,12.70626c0.16026,1.02429 0.18141,4.28355 0.63272,5.5361c1.38144,3.83403 3.40961,7.22761 4.33512,11.29344c1.82832,8.03191 2.14863,16.69152 2.91081,24.88139c0.5694,6.11841 1.84852,12.45087 0.87245,18.53783c-0.08423,0.63217 -0.99461,7.56266 -1.09913,7.91525c-0.53482,1.80423 -2.15716,3.14872 -2.73122,4.94086c-0.33676,1.05132 0.15376,2.37248 -0.47915,3.27696c-2.69561,3.85227 -9.72619,4.1306 -13.8469,2.90077c-2.6833,-0.80083 -3.89275,-1.99852 -5.69015,-4.00009c-0.67431,-0.75091 -1.37728,-1.50212 -1.86257,-2.38702c-0.17198,-0.31361 0.32274,-1.08726 -0.03462,-1.07246c-0.44449,0.01841 -0.35391,0.89967 -0.74862,1.10489c-2.00564,1.0428 -4.22867,1.64841 -6.43511,2.13998c-6.02937,1.34327 -10.77673,-0.09013 -15.44964,-3.82067c-0.53231,-0.95716 -1.10808,-1.89142 -1.59693,-2.87149c-0.16048,-0.32173 0.01399,-1.04052 -0.34506,-1.02191c-0.48351,0.02506 -0.52622,0.87549 -0.96047,1.08958c-3.37871,1.66578 -7.4742,2.59776 -11.22251,2.92486c-10.02906,0.87518 -25.57077,2.13482 -30.95633,-8.12224c0,0 -1.11803,-2.23607 1.11803,-3.3541c0.07685,-0.03843 0.15239,-0.07289 0.2266,-0.10362z" fill="url(#color-1)" stroke="#334a0d" stroke-width="2"/><path d="M260.88675,185.14438c2.21816,0 5.21738,-4.52937 6.84052,-3.29472c2.24548,1.70802 3.68939,4.37116 3.68939,7.3631c0,5.15466 -4.28582,9.33334 -9.57265,9.33334c-5.28683,0 -9.09402,-2.02482 -9.09402,-7.17948c0,-5.15466 2.84992,-6.22223 8.13675,-6.22223z" data-paper-data="{&quot;index&quot;:null}" fill="#f6f9df" stroke="#354c0d" stroke-width="1.5"/><path d="M245.16667,188.1904c0,5.15466 -3.80719,7.17949 -9.09402,7.17949c-5.28683,0 -9.57265,-4.17868 -9.57265,-9.33333c0,-2.99194 1.44391,-5.65508 3.68939,-7.3631c1.62313,-1.23464 4.62235,3.29473 6.84052,3.29473c5.28683,0 8.13675,1.06756 8.13675,6.22222z" fill="#f6f9df" stroke="#354c0d" stroke-width="1.5"/><path d="M270.375,186.6c-1,0 -1,-1 -1,-1l0.02986,-0.00746c-0.50742,-2.53555 -2.28184,-1.24882 -4.27986,-1.24254c-2.06421,-0.07169 -4.25493,2.1877 -6.62782,2.49251c-6.20516,0.79707 -11.55668,-0.34254 -17.10339,-3.1159c-1.74028,-1.04417 -4.01854,-0.30386 -6.37433,-1.12679c-4.05139,-1.41524 -8.33207,-3.5387 -10.50003,0.9474c0,0 -0.44721,0.89443 -1.34164,0.44721c-0.89443,-0.44721 -0.44721,-1.34164 -0.44721,-1.34164c4.22052,-8.23208 13.68155,-4.24585 19.62564,-0.67939c5.19263,2.59631 10.09343,3.58689 15.89661,2.8841c2.64746,-0.32062 4.34796,-2.45258 6.87218,-2.50749c3.01255,0.01119 5.17868,-0.96313 6.22014,2.75746l0.02986,0.49254c0,0 0,1 -1,1z" fill="#334a0d" stroke="none" stroke-width="0.5"/><path d="M238.25,186.91505c0,2.34721 -1.08198,4.25 -2.41667,4.25c-1.33469,0 -2.41667,-1.90279 -2.41667,-4.25c0,-2.34721 1.08198,-4.25 2.41667,-4.25c1.33469,0 2.41667,1.90279 2.41667,4.25z" fill="url(#color-2)" stroke="none" stroke-width="0"/><path d="M262.08333,188.99838c0,1.84095 -1.11929,3.33333 -2.5,3.33333c-1.38071,0 -2.5,-1.49238 -2.5,-3.33333c0,-1.84095 1.11929,-3.33333 2.5,-3.33333c1.38071,0 2.5,1.49238 2.5,3.33333z" fill="url(#color-3)" stroke="none" stroke-width="0"/><path d="M271.63888,238.0554c-0.89443,0.44721 -1.34164,-0.44721 -1.34164,-0.44721l-0.51418,-1.02955c-0.74853,-1.82396 -1.95614,-2.92736 -2.7985,-4.71055c-1.85675,-0.92837 -2.38458,-3.48195 -3.60414,-5.1224c-4.38821,-5.90266 -11.98661,-9.08471 -19.18876,-9.08471c-5.82617,0 -11.65983,0.03262 -17.3351,0.98631c-1.30034,0.21851 -3.17465,-0.02906 -4.3692,0.46897c-1.89549,0.79026 -4.14759,3.30435 -5.5886,4.75183c0,0 -0.70711,0.70711 -1.41421,0c-0.70711,-0.70711 0,-1.41421 0,-1.41421c1.71375,-1.70676 4.16257,-4.29939 6.4114,-5.24817c1.29358,-0.54576 3.24527,-0.2975 4.6308,-0.53103c5.78686,-0.97536 11.72794,-1.01369 17.6649,-1.01369c7.93329,0 14.28138,3.32192 19.70711,8.79289c1.7137,1.72799 2.49095,4.99547 4.5,6c1.02283,1.95301 2.3323,3.26489 3.2015,5.28945l0.48582,0.97045c0,0 0.44721,0.89443 -0.44721,1.34164z" fill="#334a0d" stroke="none" stroke-width="0.5"/><path d="M219.39877,229.36808c-0.70711,0.70711 -1.41421,0 -1.41421,0l-0.67558,-0.78323c-3.00724,0.37082 -6.73797,1.4553 -7.59057,-2.69413c-0.03448,-0.16782 -0.02675,-2.94089 -0.02675,-3.22975c0,0 0,-1 1,-1c1,0 1,1 1,1c0,0.92346 -0.201,1.86338 -0.02675,2.77025c0.55378,2.88213 4.25004,1.18699 6.40943,1.30587l1.32442,1.21677c0,0 0.70711,0.70711 0,1.41421z" fill="#334a0d" stroke="none" stroke-width="0.5"/><path d="M279.13888,241.76655c0.89443,0.44721 0.44721,1.34164 0.44721,1.34164l-0.8687,1.40344c-1.69399,0.16582 -3.33104,0.62599 -5.0003,0.64903c-0.00845,0.00021 -0.01693,0.00032 -0.02543,0.00032c-0.12639,0 -0.2473,-0.02345 -0.35863,-0.06623c-0.28686,-0.09747 -0.64137,-0.33836 -0.64137,-0.93377c0,-0.59541 0.35451,-0.8363 0.64137,-0.93377c0.11132,-0.04278 0.23224,-0.06623 0.35863,-0.06623c0.00817,0 0.01632,0.0001 0.02445,0.00029c1.40962,0.01213 2.52056,-0.80102 3.94982,-0.35094l0.1313,-0.59656c0,0 0.44721,-0.89443 1.34164,-0.44721z" fill="#334a0d" stroke="none" stroke-width="0.5"/></g></g></g></svg>