<svg version="1.1" xmlns="http://www.w3.org/2000/svg" xmlns:xlink="http://www.w3.org/1999/xlink" width="86.71912" height="122.76183" viewBox="0,0,86.71912,122.76183"><defs><linearGradient x1="237.54055" y1="151.31563" x2="237.54055" y2="252.5552" gradientUnits="userSpaceOnUse" id="color-1"><stop offset="0" stop-color="#b1cf16"/><stop offset="1" stop-color="#e9f366"/></linearGradient><radialGradient cx="236.12233" cy="182.06674" r="3.86729" gradientUnits="userSpaceOnUse" id="color-2"><stop offset="0" stop-color="#020702"/><stop offset="1" stop-color="#050a02"/></radialGradient><radialGradient cx="256.23368" cy="183.80214" r="3.03317" gradientUnits="userSpaceOnUse" id="color-3"><stop offset="0" stop-color="#020702"/><stop offset="1" stop-color="#050a02"/></radialGradient></defs><g transform="translate(-193.62203,-130.79336)"><g data-paper-data="{&quot;isPaintingLayer&quot;:true}" fill-rule="nonzero" stroke-linecap="butt" stroke-linejoin="miter" stroke-miterlimit="10" stroke-dasharray="" stroke-dashoffset="0" style="mix-blend-mode: normal"><g stroke="#004700" stroke-width="1"><path d="M232.20144,167.8243c0,0 2.71603,-12.55565 4.28846,-17.86832c1.40794,-4.75691 6.61187,-14.96637 6.61187,-14.96637c0,0 8.14929,5.41709 9.46499,5.8065c0.27635,0.0818 2.66774,1.73856 2.66774,1.73856c0,0 -4.634,6.74788 -5.99686,11.35251c-1.5981,5.3994 -5.16501,17.45072 -5.16501,17.45072z" fill="#399435"/><path d="M256.47136,142.29557c-0.55927,1.88956 -2.65036,0.86955 -5.8607,-0.23895c-0.54066,-0.18669 -0.47216,-2.54121 -1.07433,-2.71945c-0.78108,-0.23118 -2.14106,1.55829 -2.78979,1.08552c-2.82118,-2.05603 -4.31152,-5.94513 -3.78023,-7.74014c0.65345,-2.20779 4.41351,-1.41103 8.59129,-0.17451c4.17779,1.23653 5.56722,7.57975 4.91377,9.78753z" fill="#91e665"/></g><path d="M196.31594,234.22432c-2.72759,-8.39579 -1.6538,-16.48954 -0.29983,-25.28797c1.47498,-9.58472 3.02104,-17.92941 7.81323,-26.54452c2.63801,-3.9612 5.36205,-8.06697 7.69275,-12.21283c3.66411,-6.51774 6.15753,-14.2069 13.60311,-17.35869c4.31514,-1.82664 10.17437,-2.37005 13.92724,0.5526c1.07261,0.83533 2.53951,1.30244 3.51991,2.20314c2.31984,-1.54696 2.75665,-2.12989 6.14439,-0.01748c0.81895,0.51066 1.53257,1.25736 1.99436,2.10985c0.61067,-0.57214 1.44283,-0.92552 2.18277,-1.33182c2.6308,-1.44458 3.35951,-1.68891 6.31424,-1.41477c7.01271,0.65064 8.52396,7.55753 9.96966,13.33592c0.88813,3.84856 2.38531,7.67058 2.99419,11.56208c0.14583,0.93205 0.16507,3.89782 0.57574,5.03758c1.25704,3.48878 3.10258,6.57678 3.94475,10.27649c1.66368,7.30865 1.95515,15.18848 2.6487,22.64086c0.51813,5.56746 1.68206,11.32969 0.79389,16.86853c-0.07665,0.57524 -0.90505,6.88166 -1.00016,7.2025c-0.48666,1.64176 -1.96291,2.86518 -2.48528,4.49594c-0.30644,0.95665 0.13991,2.15884 -0.436,2.98188c-2.45287,3.50538 -8.85036,3.75865 -12.60001,2.63956c-2.44167,-0.72872 -3.54221,-1.81856 -5.17776,-3.63989c-0.61359,-0.68329 -1.25326,-1.36686 -1.69485,-2.17207c-0.15649,-0.28537 0.29368,-0.98935 -0.0315,-0.97589c-0.40446,0.01675 -0.32204,0.81866 -0.68121,1.0054c-1.82504,0.9489 -3.84789,1.49997 -5.85564,1.94728c-5.48644,1.22231 -9.8063,-0.08201 -14.05843,-3.47663c-0.48438,-0.87097 -1.0083,-1.7211 -1.45313,-2.61292c-0.14603,-0.29276 0.01273,-0.94682 -0.31399,-0.92989c-0.43997,0.0228 -0.47883,0.79665 -0.87398,0.99147c-3.07446,1.51578 -6.80116,2.36384 -10.21194,2.66148c-9.12596,0.79637 -23.26817,1.94258 -28.16877,-7.39085c0,0 -1.01735,-2.03472 1.01735,-3.05207c0.06993,-0.03497 0.13867,-0.06633 0.2062,-0.09429z" fill="url(#color-1)" stroke="#334a0d" stroke-width="2"/><path d="M254.91973,180.29519c2.01842,0 4.74756,-4.12151 6.22454,-2.99804c2.04328,1.55422 3.35717,3.97754 3.35717,6.70007c0,4.69049 -3.89989,8.49289 -8.71065,8.49289c-4.81076,0 -8.27512,-1.84249 -8.27512,-6.53298c0,-4.69049 2.59329,-5.66193 7.40405,-5.66193z" data-paper-data="{&quot;index&quot;:null}" fill="#f6f9df" stroke="#354c0d" stroke-width="1.5"/><path d="M240.61522,183.06692c0,4.69049 -3.46436,6.53299 -8.27512,6.53299c-4.81076,0 -8.71065,-3.8024 -8.71065,-8.49288c0,-2.72252 1.31389,-5.14585 3.35717,-6.70007c1.47697,-1.12346 4.20612,2.99805 6.22454,2.99805c4.81076,0 7.40405,0.97143 7.40405,5.66192z" fill="#f6f9df" stroke="#354c0d" stroke-width="1.5"/><path d="M263.55358,181.61973c-0.90995,0 -0.90995,-0.90995 -0.90995,-0.90995l0.02717,-0.00679c-0.46173,-2.30723 -2.07636,-1.13637 -3.89447,-1.13065c-1.87833,-0.06523 -3.87178,1.9907 -6.031,2.26806c-5.6464,0.7253 -10.51602,-0.31169 -15.56326,-2.83532c-1.58357,-0.95014 -3.65668,-0.2765 -5.80033,-1.02532c-3.68657,-1.2878 -7.58178,-3.22005 -9.55452,0.86209c0,0 -0.40694,0.81389 -1.22083,0.40694c-0.81389,-0.40694 -0.40694,-1.22083 -0.40694,-1.22083c3.84047,-7.4908 12.44955,-3.86352 17.85838,-0.61821c4.72504,2.36252 9.18453,3.2639 14.46515,2.62439c2.40906,-0.29175 3.95643,-2.23173 6.25335,-2.28169c2.74128,0.01018 4.71235,-0.8764 5.66003,2.50916l0.02717,0.44819c0,0 0,0.90995 -0.90995,0.90995z" fill="#334a0d" stroke="none" stroke-width="0.5"/><path d="M238.32138,182.06674c0,2.13585 -0.98455,3.86729 -2.19905,3.86729c-1.2145,0 -2.19905,-1.73145 -2.19905,-3.86729c0,-2.13585 0.98455,-3.86729 2.19905,-3.86729c1.2145,0 2.19905,1.73145 2.19905,3.86729z" fill="url(#color-2)" stroke="none" stroke-width="0"/><path d="M258.50856,183.80214c0,1.67518 -1.0185,3.03317 -2.27488,3.03317c-1.25638,0 -2.27488,-1.35799 -2.27488,-3.03317c0,-1.67518 1.0185,-3.03317 2.27488,-3.03317c1.25638,0 2.27488,1.35799 2.27488,3.03317z" fill="url(#color-3)" stroke="none" stroke-width="0"/><path d="M264.70365,228.44166c-0.81389,0.40694 -1.22083,-0.40694 -1.22083,-0.40694l-0.46788,-0.93684c-0.68113,-1.65972 -1.77999,-2.66376 -2.5465,-4.28637c-1.68955,-0.84477 -2.16985,-3.16841 -3.27959,-4.66114c-3.99306,-5.37114 -10.90724,-8.26665 -17.46085,-8.26665c-5.30153,0 -10.60988,0.02968 -15.7741,0.89749c-1.18325,0.19883 -2.88878,-0.02644 -3.97576,0.42674c-1.7248,0.7191 -3.77411,3.0068 -5.08536,4.32394c0,0 -0.64344,0.64344 -1.28686,0c-0.64344,-0.64344 0,-1.28686 0,-1.28686c1.55943,-1.55307 3.78774,-3.91224 5.83406,-4.77558c1.1771,-0.49662 2.95304,-0.27071 4.2138,-0.48321c5.26576,-0.88753 10.67186,-0.92241 16.07421,-0.92241c7.21891,0 12.99537,3.02279 17.93252,8.00111c1.55938,1.57239 2.26664,4.54564 4.09478,5.45971c0.93073,1.77714 2.12228,2.97089 2.91321,4.81314l0.44207,0.88306c0,0 0.40694,0.81389 -0.40694,1.22083z" fill="#334a0d" stroke="none" stroke-width="0.5"/><path d="M217.16767,220.53662c-0.64344,0.64344 -1.28686,0 -1.28686,0l-0.61475,-0.7127c-2.73644,0.33743 -6.13123,1.32425 -6.90705,-2.45153c-0.03138,-0.15271 -0.02434,-2.67607 -0.02434,-2.93892c0,0 0,-0.90995 0.90995,-0.90995c0.90995,0 0.90995,0.90995 0.90995,0.90995c0,0.8403 -0.1829,1.69559 -0.02434,2.52079c0.50391,2.6226 3.86733,1.0801 5.83227,1.18828l1.20516,1.1072c0,0 0.64344,0.64344 0,1.28686z" fill="#334a0d" stroke="none" stroke-width="0.5"/><path d="M271.52829,231.81863c0.81389,0.40694 0.40694,1.22083 0.40694,1.22083l-0.79048,1.27706c-1.54145,0.15089 -3.03109,0.56962 -4.55003,0.59059c-0.00769,0.00019 -0.01541,0.00029 -0.02314,0.00029c-0.11501,0 -0.22503,-0.02134 -0.32634,-0.06027c-0.26103,-0.08869 -0.58362,-0.30789 -0.58362,-0.84969c0,-0.54179 0.32259,-0.76099 0.58362,-0.84969c0.1013,-0.03893 0.21133,-0.06027 0.32634,-0.06027c0.00743,0 0.01485,0.00009 0.02225,0.00026c1.28269,0.01104 2.29359,-0.72889 3.59415,-0.31934l0.11948,-0.54284c0,0 0.40694,-0.81389 1.22083,-0.40694z" fill="#334a0d" stroke="none" stroke-width="0.5"/></g></g></svg>