<svg version="1.1" xmlns="http://www.w3.org/2000/svg" xmlns:xlink="http://www.w3.org/1999/xlink" width="138.81778" height="212.07111" viewBox="0,0,138.81778,212.07111"><defs><radialGradient cx="260.36013" cy="185.62613" r="39.00129" gradientUnits="userSpaceOnUse" id="color-1"><stop offset="0" stop-color="#4000bf"/><stop offset="1" stop-color="#38a000"/></radialGradient><linearGradient x1="260.36012" y1="152.29279" x2="260.36012" y2="218.95946" gradientUnits="userSpaceOnUse" id="color-2"><stop offset="0" stop-color="#797979"/><stop offset="1" stop-color="#bfbfbf"/></linearGradient><radialGradient cx="256.06694" cy="141.32784" r="16.33333" gradientUnits="userSpaceOnUse" id="color-3"><stop offset="0" stop-color="#b5b5b5"/><stop offset="1" stop-color="#c9c9c9"/></radialGradient><radialGradient cx="241.01332" cy="127.91966" r="9.88289" gradientUnits="userSpaceOnUse" id="color-4"><stop offset="0" stop-color="#bc1818"/><stop offset="1" stop-color="#9b18bc"/></radialGradient><radialGradient cx="237.81102" cy="118.89359" r="7.46965" gradientUnits="userSpaceOnUse" id="color-5"><stop offset="0" stop-color="#bc1818"/><stop offset="1" stop-color="#9b18bc"/></radialGradient><radialGradient cx="204.7889" cy="117.96927" r="10.47714" gradientUnits="userSpaceOnUse" id="color-6"><stop offset="0" stop-color="#569ffe"/><stop offset="1" stop-color="#bfebf3"/></radialGradient><linearGradient x1="207.46702" y1="105.68672" x2="234.95309" y2="127.48358" gradientUnits="userSpaceOnUse" id="color-7"><stop offset="0" stop-color="#070707"/><stop offset="1" stop-color="#ff0000"/></linearGradient><linearGradient x1="207.55487" y1="106.44781" x2="235.04096" y2="128.24468" gradientUnits="userSpaceOnUse" id="color-8"><stop offset="0" stop-color="#070707"/><stop offset="1" stop-color="#ff0000"/></linearGradient><linearGradient x1="207.88216" y1="105.94262" x2="235.36825" y2="127.73949" gradientUnits="userSpaceOnUse" id="color-9"><stop offset="0" stop-color="#070707"/><stop offset="1" stop-color="#ff0000"/></linearGradient><linearGradient x1="207.63532" y1="105.47448" x2="235.12141" y2="127.27135" gradientUnits="userSpaceOnUse" id="color-10"><stop offset="0" stop-color="#ff0000" stop-opacity="0"/><stop offset="1" stop-color="#ff0000"/></linearGradient><linearGradient x1="207.18326" y1="105.73408" x2="234.66934" y2="127.53096" gradientUnits="userSpaceOnUse" id="color-11"><stop offset="0" stop-color="#ff0000" stop-opacity="0"/><stop offset="1" stop-color="#ff0000"/></linearGradient><linearGradient x1="207.28939" y1="105.81824" x2="234.77548" y2="127.61511" gradientUnits="userSpaceOnUse" id="color-12"><stop offset="0" stop-color="#ff0000" stop-opacity="0"/><stop offset="1" stop-color="#ff0000"/></linearGradient></defs><g transform="translate(-164.94389,-59.97273)"><g data-paper-data="{&quot;isPaintingLayer&quot;:true}" fill-rule="nonzero" stroke-linejoin="miter" stroke-miterlimit="10" stroke-dasharray="" stroke-dashoffset="0" style="mix-blend-mode: normal"><g data-paper-data="{&quot;index&quot;:null}"><path d="M292.73507,214.26805c0,0 0.43453,2.60925 0.89781,6.40725c0.45731,3.74901 -0.56151,8.88012 -0.43845,13.57945c0.11006,4.20318 0.22161,8.83029 0.33452,11.14474c0.21116,4.32858 1.21258,9.9976 1.21258,9.9976l-16.23061,2.62292c0,0 0.48578,-2.31806 -0.7033,-5.01398c-1.90087,-4.30969 -5.86187,-10.30314 -6.19465,-14.74959c-0.10981,-1.4673 -0.03104,-3.26004 0.15911,-5.22139c0.31483,-3.24754 0.93499,-6.95729 1.50993,-10.41713c0.83103,-5.00094 1.90734,-8.98011 1.90734,-8.98011" fill="#7f7f7f" stroke="#e3efff" stroke-width="1.5" stroke-linecap="round"/><g stroke="#0f0f0f" stroke-linecap="butt"><path d="M259.9457,270.53147c0,0 -3.5771,-4.09615 -4.45487,-6.1434c-0.93025,-2.16968 5.68887,-9.47377 5.68887,-9.47377l25.49803,-0.78682l1.09578,11.44768z" data-paper-data="{&quot;index&quot;:null}" fill="#000b20" stroke-width="0"/><path d="M261.69325,268.7823c-0.40679,-2.85495 -0.98978,-6.94637 -1.26956,-8.91001c-0.14426,-1.01246 0.91482,-4.92833 2.54746,-5.16096c3.93517,-0.56071 20.99865,-2.99204 28.95752,-4.12608c2.56302,-0.3652 4.20161,1.30434 4.37357,2.65521c0.36846,2.89463 1.70173,13.39832 1.70173,13.39832c0,0 -27.4676,3.91378 -32.67002,4.65506c-1.63264,0.23263 -3.41385,-0.91959 -3.64068,-2.51155z" data-paper-data="{&quot;index&quot;:null}" fill="#3b3b3b" stroke-width="1.5"/></g></g><g><path d="M249.13698,214.83021c0,0 0.12711,3.88851 0.23503,7.19032c0.06165,1.88603 -2.12706,4.93387 -2.00294,8.73107c0.0518,1.58477 0.81894,2.9203 0.87489,4.63205c0.16899,5.17 1.93083,11.19645 2.06499,15.30102c0.1274,3.8977 0.21448,6.56181 0.21448,6.56181l-18.21432,-4.47786c0,0 -2.33083,-13.04642 -2.00191,-19.05091c0.2984,-5.4471 3.89281,-15.46701 3.89281,-15.46701" fill="#7f7f7f" stroke="#e3efff" stroke-width="1.5" stroke-linecap="round"/><g stroke="#0f0f0f" stroke-linecap="butt"><path d="M220.15696,265.09795c0,0 -2.75886,-4.68646 -3.24332,-6.86062c-0.51343,-2.30418 7.34107,-8.25979 7.34107,-8.25979l25.20453,3.93702l-1.03783,11.45308z" fill="#000b20" stroke-width="0"/><path d="M221.18982,263.57842c0.12761,-2.88096 0.31048,-7.00967 0.39825,-8.99119c0.04525,-1.02168 1.80949,-4.67451 3.457,-4.60153c3.97102,0.17589 21.18997,0.93858 29.22135,1.29432c2.58637,0.11456 3.88835,2.05805 3.80779,3.41744c-0.17261,2.91288 -0.80266,13.48209 -0.80266,13.48209c0,0 -27.71785,-1.22772 -32.96767,-1.46026c-1.64751,-0.07298 -3.18522,-1.53441 -3.11407,-3.14087z" fill="#3b3b3b" stroke-width="1.5"/></g></g><g><g stroke-linecap="butt"><g><g><path d="M171.9867,195.36936c0,0 3.59621,-38.60976 5.24028,-52.36504c1.07777,-9.01726 4.53585,-27.04905 4.53585,-27.04905l11.89196,2.19607l-7.98443,78.85353z" fill="#c70303" stroke="#9966ff" stroke-width="1"/><path d="M180.22952,123.53716c0.01992,-0.04868 0.04048,-0.097 0.06166,-0.14503l-0.03152,-0.00824l0.51576,-1.97541c0.17803,-0.68187 0.87511,-1.09031 1.55698,-0.91228c0.53944,0.14085 0.90776,0.60654 0.94994,1.13258l0.14694,1.41625l-0.04212,0.00436l0.04861,0.09836c-0.15412,2.58382 0.2213,5.12415 0.12237,7.73891c-1.11205,7.68538 -2.41574,15.345 -3.49355,23.04495c-0.15375,6.90167 -1.09882,14.08218 -2.72842,20.38588c0,0 -0.32234,1.23464 -1.55697,0.91229c-1.23464,-0.32234 -0.91229,-1.55698 -0.91229,-1.55698c0.27685,-1.04863 -1.16665,-1.68221 -0.93667,-2.76867c-0.12278,-0.18088 0.34517,-1.1297 0.32733,-1.35219l0.51151,-1.24434c-0.099,-0.95416 0.29597,-1.77942 0.1972,-2.73361c-0.43666,-3.09287 0.91566,-6.04389 1.24476,-9.11918c0.78568,-7.34186 -0.03563,-16.33638 3.03703,-23.33034c0.01016,-0.10867 0.02019,-0.2172 0.03012,-0.32563l-0.23008,-0.06007l0.47278,-1.81081c0.06063,-0.23219 0.18143,-0.43265 0.34131,-0.58906c0.08317,-2.18197 -0.31626,-5.13128 0.36733,-6.80173z" fill="#870303" stroke="none" stroke-width="0.5"/><path d="M186.61996,128.825c-0.49385,-0.12894 -0.36491,-0.6228 -0.36491,-0.6228l0.06447,-0.24693c0.41024,-1.37426 -0.33429,-2.7605 0.04381,-4.20869c0,0 0.12894,-0.49386 0.62279,-0.36492c0.49385,0.12894 0.36491,0.62278 0.36491,0.62278c-0.3718,1.42406 0.29832,2.77116 -0.04379,4.20873l-0.06447,0.24694c0,0 -0.12895,0.49385 -0.6228,0.36492z" fill="#0554ff" stroke="none" stroke-width="0.5"/><path d="M190.01946,139.94351c-0.49937,0.10552 -0.60491,-0.39385 -0.60491,-0.39385l-0.05898,-0.40582c-0.92867,-0.74505 -1.85811,-0.39842 -1.45962,-2.07289c0,0 0.12895,-0.49385 0.62279,-0.36491c0.49385,0.12895 0.36491,0.62279 0.36491,0.62279c-0.26075,0.8735 0.64447,0.6603 1.35268,1.29894l0.17699,0.71084c0,0 0.10552,0.49938 -0.39385,0.60491z" fill="#0554ff" stroke="none" stroke-width="0.5"/><path d="M185.40773,149.8452c-0.10552,-0.49937 0.39386,-0.60492 0.39386,-0.60492l0.31154,0.01208c-0.04583,-0.92151 0.27182,-0.992 1.06298,-1.23575c0,0 0.4994,-0.10553 0.60492,0.39385c0.10552,0.49937 -0.39386,0.6049 -0.39386,0.6049c-0.47973,-0.0186 -0.37274,0.4418 -0.56941,0.97563l-0.80511,0.24805c0,0 -0.49937,0.10552 -0.60491,-0.39384z" fill="#9b7137" stroke="none" stroke-width="0.5"/><path d="M182.33651,163.52227c-0.38405,-0.33618 -0.04786,-0.72023 -0.04786,-0.72023l0.37586,-0.42938c0.7467,-0.85023 1.30332,-1.16427 1.58706,-2.25107c0,0 0.12894,-0.49386 0.6228,-0.36494c0.49385,0.12895 0.36491,0.6228 0.36491,0.6228c-0.33071,1.26666 -0.96516,1.70069 -1.80667,2.66557l-0.37587,0.42939c0,0 -0.33618,0.38405 -0.72024,0.04787z" fill="#0554ff" stroke="none" stroke-width="0.5"/><path d="M186.74031,170.79419c-0.49385,-0.12894 -0.36491,-0.62278 -0.36491,-0.62278c0.25787,-0.98771 0.58023,-2.22234 0.8381,-3.21006c0,0 0.12895,-0.49385 0.6228,-0.36491c0.49384,0.12893 0.36492,0.6228 0.36492,0.6228c-0.25789,0.98773 -0.51576,1.97541 -0.77363,2.96312l-0.06447,0.24693c0,0 -0.12893,0.49384 -0.62279,0.36491z" fill="#0554ff" stroke="none" stroke-width="0.5"/><path d="M181.83916,170.37181c0.10735,0.09396 0.19859,0.24966 0.13411,0.49659c-0.12894,0.49385 -0.6228,0.36491 -0.6228,0.36491l-0.61184,-0.68726c0.12895,-0.49385 0.25789,-0.9877 0.38682,-1.48156c0,0 0.12895,-0.49386 0.6228,-0.36491c0.49384,0.12893 0.36492,0.6228 0.36492,0.6228c-0.09133,0.34982 -0.18267,0.69963 -0.274,1.04944z" fill="#0554ff" stroke="none" stroke-width="0.5"/><path d="M186.77562,155.50536c0.06447,-0.24694 0.22016,-0.33816 0.35974,-0.36765c0.00537,-0.02059 0.01075,-0.04116 0.01612,-0.06173c0,0 0.12893,-0.49384 0.6228,-0.36491c0.49385,0.12894 0.36491,0.62278 0.36491,0.62278c-0.04297,0.16461 -0.08597,0.32924 -0.12895,0.49385l-0.86972,0.30044c0,0 -0.49385,-0.12894 -0.36492,-0.62279z" fill="#9b7137" stroke="none" stroke-width="0.5"/><path d="M187.64383,154.0938c-0.49937,0.10552 -0.60491,-0.39385 -0.60491,-0.39385l-0.05899,-0.40581c-0.30546,-0.30998 -0.4223,-0.82691 -0.35392,-1.25671c0,0 0.12893,-0.49385 0.62278,-0.36491c0.49385,0.12894 0.36492,0.62278 0.36492,0.62278c-0.09608,0.1531 0.09898,0.37898 0.24698,0.48276l0.17699,0.71082c0,0 0.10554,0.4994 -0.39385,0.60492z" fill="#9b7137" stroke="none" stroke-width="0.5"/><path d="M184.03996,144.76826c-0.49384,-0.12893 -0.36491,-0.62279 -0.36491,-0.62279c0.30086,-1.15233 0.73065,-2.79851 1.03151,-3.95084c0,0 0.12895,-0.49385 0.62278,-0.36491c0.49384,0.12893 0.36491,0.62279 0.36491,0.62279c-0.30085,1.15233 -0.60171,2.30466 -0.90256,3.45698l-0.12895,0.49385c0,0 -0.12894,0.49386 -0.62279,0.36492z" fill="#0554ff" stroke="none" stroke-width="0.5"/><path d="M191.10718,131.42461c-0.23312,-0.39785 0.1038,-0.64687 0.17105,-0.69127c-0.24982,-1.03256 -0.61468,-2.15283 -0.37413,-3.16364c0,0 0.12894,-0.49386 0.6228,-0.36494c0.49385,0.12895 0.36491,0.6228 0.36491,0.6228c-0.26229,0.87862 0.27735,2.15575 0.46654,3.051l-0.55274,0.72839c0,0 -0.44037,0.25804 -0.69841,-0.18235z" fill="#9b7137" stroke="none" stroke-width="0.5"/><path d="M184.81482,135.739c-0.49385,-0.12894 -0.36491,-0.6228 -0.36491,-0.6228c0.12895,-0.49385 0.32235,-1.23463 0.45129,-1.7285c0,0 0.12895,-0.49385 0.6228,-0.36492c0.49385,0.12894 0.36491,0.62278 0.36491,0.62278c-0.12893,0.49384 -0.25789,0.98772 -0.38682,1.48156l-0.06446,0.24692c0,0 -0.12895,0.49386 -0.62281,0.36493z" fill="#9b7137" stroke="none" stroke-width="0.5"/><path d="M189.36901,126.37764c-0.49384,-0.12893 -0.36492,-0.62279 -0.36492,-0.62279l0.12894,-0.49386c0.12447,-0.47676 0.40791,-0.63526 -0.01383,-0.85057c0,0 -0.38405,-0.33618 -0.04787,-0.72023c0.33619,-0.38406 0.72024,-0.04787 0.72024,-0.04787c0.72376,0.75973 0.57857,0.92132 0.32918,1.87656l-0.12893,0.49385c0,0 -0.12895,0.49385 -0.6228,0.36492z" fill="#0554ff" stroke="none" stroke-width="0.5"/><path d="M189.72174,134.11875c-0.49384,-0.12893 -0.3649,-0.62279 -0.3649,-0.62279l0.06447,-0.24693c0.07797,-0.26119 0.06978,-0.55286 0.00541,-0.81772c0,0 -0.10552,-0.49937 0.39386,-0.6049c0.49937,-0.10552 0.60492,0.39383 0.60492,0.39383c0.08034,0.42133 0.08283,0.86939 -0.01647,1.28665l-0.06447,0.24693c0,0 -0.12895,0.49385 -0.6228,0.36492z" fill="#4f340e" stroke="none" stroke-width="0.5"/><path d="M186.73546,141.09736c-0.25804,-0.44038 0.18234,-0.69842 0.18234,-0.69842l0.07558,0.12898c0.09794,-0.37509 0.13854,-1.00551 0.41797,-1.2154c-0.22416,-0.05317 -0.4541,-0.11284 -0.58948,-0.14818c0,0 -0.49385,-0.12894 -0.36491,-0.62278c0.12894,-0.49385 0.62278,-0.36491 0.62278,-0.36491c2.42799,0.63391 1.20718,1.43771 0.90134,2.60915l-0.54721,0.49391c0,0 -0.4404,0.25805 -0.69842,-0.18234z" fill="#0554ff" stroke="none" stroke-width="0.5"/><path d="M183.91522,150.51056c-0.10552,-0.49937 0.39385,-0.60492 0.39385,-0.60492l0.23612,0.10291c-0.67471,-1.49803 2.09084,-1.1336 0.38517,-1.57893c0,0 -0.49385,-0.12895 -0.36491,-0.62281c0.12894,-0.49385 0.62278,-0.36491 0.62278,-0.36491c2.77805,0.7253 0.1165,1.8145 0.21243,3.12364l-0.88052,0.33888c0,0 -0.49938,0.10552 -0.60491,-0.39385z" fill="#4f340e" stroke="none" stroke-width="0.5"/><path d="M184.81964,165.01755c-0.49384,-0.12893 -0.36493,-0.62279 -0.36493,-0.62279l0.13491,-0.21497c-2.29602,-1.17218 -0.57385,-2.68252 1.00388,-3.3386c0,0 0.47244,-0.19316 0.66561,0.27928c0.19316,0.47244 -0.27929,0.6656 -0.27929,0.6656c-1.92542,0.77149 -1.60297,0.8462 -0.41443,2.09382l-0.12297,0.77275c0,0 -0.12894,0.49385 -0.62279,0.36493z" fill="#0554ff" stroke="none" stroke-width="0.5"/><path d="M185.23302,171.18292c-2.30454,-0.7402 0.63075,-1.66916 0.22454,-2.33403c0,0 -0.10553,-0.49939 0.39384,-0.60491c0.49937,-0.10552 0.60492,0.39385 0.60492,0.39385c0.17326,1.76492 -1.54005,1.41297 -0.89241,1.58562c0.00408,0.00091 0.00621,0.00146 0.00621,0.00146l0,0.00019c0.06105,0.01621 0.14226,0.03696 0.24694,0.06428l-0.2524,0.46161l-0.00547,0.52609c-0.08698,-0.02272 -0.16842,-0.04561 -0.24461,-0.06872l-0.00233,0.00426c0,0 -0.03278,-0.00856 -0.07923,-0.02971z" fill="#0554ff" stroke="none" stroke-width="0.5"/><path d="M182.05114,157.43699c-0.49385,-0.12894 -0.36491,-0.6228 -0.36491,-0.6228l0.05896,-0.01246c0.03169,-0.81772 -1.64616,-1.2494 0.22233,-1.96849c0,0 0.49938,-0.10552 0.60491,0.39384c0.0862,0.40791 -0.23117,0.55304 -0.35035,0.59252c0.15345,0.09966 0.38584,0.32953 0.52186,0.77105l-0.06999,0.48141c0,0 -0.12895,0.49385 -0.6228,0.36492z" fill="#0554ff" stroke="none" stroke-width="0.5"/><path d="M189.99968,146.49457c-0.41606,-0.36421 -0.05187,-0.78026 -0.05187,-0.78026l0.33466,-0.35983c0.20376,-0.78042 0.53722,-0.72311 0.42576,-1.577c0,0 -0.03668,-0.55172 0.51506,-0.58839c0.55173,-0.03667 0.58838,0.51506 0.58838,0.51506c0.03383,1.22428 -0.28487,1.14491 -0.552,2.16807l-0.47972,0.57051c0,0 -0.36422,0.41606 -0.78026,0.05187z" fill="#4f340e" stroke="none" stroke-width="0.5"/><path d="M184.827,128.62066c-0.49385,-0.12894 -0.36492,-0.6228 -0.36492,-0.6228l0.06447,-0.24694c0.17611,-0.67457 0.03685,-1.58299 -0.49674,-2.0317c0,0 -0.38406,-0.33617 -0.04788,-0.72022c0.33619,-0.38406 0.72024,-0.04788 0.72024,-0.04788c1.1956,1.1119 1.24884,1.38488 0.81209,3.05769l-0.06446,0.24693c0,0 -0.12896,0.49386 -0.6228,0.36491z" fill="#4f340e" stroke="none" stroke-width="0.5"/></g><g><g><path d="M167.90595,143.11032l1.86567,-7.14583c0,0 11.65008,5.7132 18.074,7.39039c6.62922,1.73081 21.10484,2.83863 21.10484,2.83863l-1.86567,7.14582z" fill="#ff0000" stroke="none" stroke-width="0"/><g data-paper-data="{&quot;index&quot;:null}"><path d="M168.34471,141.6622c0,0 10.12722,4.32391 20.23768,6.62055c6.6279,1.50556 18.86918,2.25806 18.86918,2.25806l-2.28468,10.05781l-39.58875,-10.05723z" fill="#c70303" stroke="#9966ff" stroke-width="1"/><path d="M201.083,154.18448c0.13449,-0.35753 0.49204,-0.22306 0.49204,-0.22306l0.17877,0.06725c0.99092,0.41255 2.08085,-0.03353 3.12933,0.36087c0,0 0.35756,0.13451 0.22307,0.49204c-0.13449,0.35753 -0.49205,0.22306 -0.49205,0.22306c-1.03099,-0.38782 -2.08597,0.00592 -3.12932,-0.36086l-0.17876,-0.06724c0,0 -0.35756,-0.1345 -0.22306,-0.49203z" fill="#0554ff" stroke="none" stroke-width="0.5"/><path d="M192.54185,155.84767c-0.0396,-0.37995 0.34035,-0.41954 0.34035,-0.41954l0.30667,-0.01226c0.62699,-0.63314 0.44148,-1.352 1.65679,-0.92478c0,0 0.35755,0.1345 0.22306,0.49204c-0.13449,0.35753 -0.49204,0.22305 -0.49204,0.22305c-0.62984,-0.26223 -0.54177,0.42821 -1.07238,0.90555l-0.54291,0.0763c0,0 -0.37994,0.03959 -0.41954,-0.34035z" fill="#0554ff" stroke="none" stroke-width="0.5"/><path d="M185.53127,151.64265c0.37995,-0.0396 0.41954,0.34035 0.41954,0.34035l-0.03328,0.23096c0.6895,0.03776 0.71718,0.2797 0.83693,0.88761c0,0 0.0396,0.37993 -0.34035,0.41954c-0.37994,0.0396 -0.41953,-0.34034 -0.41953,-0.34034c0.05125,-0.35564 -0.29979,-0.31193 -0.68179,-0.49994l-0.12185,-0.61862c0,0 -0.0396,-0.37994 0.34036,-0.41954z" fill="#0554ff" stroke="none" stroke-width="0.5"/><path d="M175.59034,148.28984c0.28019,-0.25966 0.53983,0.02053 0.53983,0.02053l0.29029,0.31325c0.57462,0.62211 0.76499,1.06093 1.5518,1.3569c0,0 0.35754,0.1345 0.22306,0.49204c-0.13449,0.35753 -0.49205,0.22306 -0.49205,0.22306c-0.91702,-0.34496 -1.19061,-0.85107 -1.84318,-1.55271l-0.2903,-0.31326c0,0 -0.25966,-0.28019 0.02054,-0.53984z" fill="#0554ff" stroke="none" stroke-width="0.5"/><path d="M169.83403,151.00057c0.13449,-0.35753 0.49202,-0.22304 0.49202,-0.22304c0.71507,0.26899 1.60893,0.60522 2.32403,0.87421c0,0 0.35753,0.13451 0.22306,0.49205c-0.13449,0.35753 -0.49204,0.22305 -0.49204,0.22305c-0.71507,-0.26899 -1.43017,-0.53796 -2.14524,-0.80696l-0.17877,-0.06726c0,0 -0.35753,-0.1345 -0.22304,-0.49203z" fill="#0554ff" stroke="none" stroke-width="0.5"/><path d="M170.5307,147.38538c-0.07832,0.07257 -0.20131,0.12833 -0.38009,0.06109c-0.35753,-0.13449 -0.22306,-0.49204 -0.22306,-0.49204l0.55928,-0.40182c0.35753,0.13449 0.71509,0.269 1.07263,0.40349c0,0 0.35754,0.13449 0.22305,0.49203c-0.13449,0.35753 -0.49203,0.22304 -0.49203,0.22304c-0.25327,-0.09527 -0.50652,-0.19053 -0.75977,-0.28579z" fill="#0554ff" stroke="none" stroke-width="0.5"/><path d="M181.21146,152.21934c0.17877,0.06725 0.23454,0.19027 0.24561,0.29646c0.01489,0.00559 0.02978,0.01122 0.04467,0.01681c0,0 0.35755,0.1345 0.22305,0.49204c-0.13449,0.35753 -0.49204,0.22305 -0.49204,0.22305c-0.11919,-0.04484 -0.23835,-0.08967 -0.35754,-0.1345l-0.15581,-0.6708c0,0 0.13451,-0.35753 0.49205,-0.22305z" fill="#0554ff" stroke="none" stroke-width="0.5"/><path d="M182.19443,152.97569c-0.0396,-0.37995 0.34035,-0.41954 0.34035,-0.41954l0.30667,-0.01226c0.25456,-0.20319 0.64846,-0.24986 0.96302,-0.16543c0,0 0.35753,0.13451 0.22306,0.49205c-0.13449,0.35753 -0.49203,0.22304 -0.49203,0.22304c-0.10646,-0.08346 -0.28979,0.04411 -0.3786,0.14618l-0.54291,0.07631c0,0 -0.37995,0.0396 -0.41955,-0.34035z" fill="#0554ff" stroke="none" stroke-width="0.5"/><path d="M189.41696,151.02053c0.13449,-0.35753 0.49202,-0.22304 0.49202,-0.22304c0.83427,0.31382 2.02606,0.76212 2.86034,1.07595c0,0 0.35755,0.1345 0.22306,0.49204c-0.13449,0.35753 -0.49204,0.22306 -0.49204,0.22306c-0.83427,-0.31382 -1.66853,-0.62764 -2.5028,-0.94146l-0.35755,-0.13448c0,0 -0.35753,-0.13451 -0.22305,-0.49205z" fill="#0554ff" stroke="none" stroke-width="0.5"/><path d="M198.798,157.32175c0.31434,-0.14249 0.4734,0.12772 0.5012,0.18125c0.78807,-0.10544 1.65041,-0.28962 2.38403,-0.03173c0,0 0.35754,0.1345 0.22306,0.49205c-0.13449,0.35753 -0.49204,0.22305 -0.49204,0.22305c-0.63353,-0.26376 -1.62625,0.03829 -2.30739,0.10928l-0.49905,-0.46824c0,0 -0.15772,-0.34792 0.1902,-0.50565z" fill="#0554ff" stroke="none" stroke-width="0.5"/><path d="M196.0774,152.30154c0.13449,-0.35753 0.49204,-0.22306 0.49204,-0.22306c0.35753,0.13449 0.89385,0.33625 1.2514,0.47074c0,0 0.35753,0.13449 0.22304,0.49203c-0.13449,0.35753 -0.49203,0.22306 -0.49203,0.22306c-0.35753,-0.13449 -0.71509,-0.26899 -1.07263,-0.40348l-0.17876,-0.06723c0,0 -0.35754,-0.1345 -0.22306,-0.49204z" fill="#0554ff" stroke="none" stroke-width="0.5"/><path d="M202.69029,156.42162c0.13449,-0.35753 0.49203,-0.22304 0.49203,-0.22304l0.35753,0.13449c0.34516,0.12984 0.44106,0.35318 0.6342,0.05605c0,0 0.28021,-0.25966 0.53985,0.02054c0.25966,0.28019 -0.02054,0.53983 -0.02054,0.53983c-0.62196,0.47948 -0.73091,0.35882 -1.42249,0.09867l-0.35756,-0.13449c0,0 -0.35753,-0.1345 -0.22304,-0.49203z" fill="#0554ff" stroke="none" stroke-width="0.5"/><path d="M196.9007,156.0804c0.13449,-0.35753 0.49204,-0.22306 0.49204,-0.22306l0.17877,0.06725c0.18831,0.07841 0.40605,0.09507 0.60824,0.06782c0,0 0.37993,-0.0396 0.41954,0.34036c0.0396,0.37995 -0.34035,0.41954 -0.34035,0.41954c-0.31986,0.02693 -0.65358,-0.00616 -0.95644,-0.11262l-0.17877,-0.06726c0,0 -0.35754,-0.1345 -0.22306,-0.49204z" fill="#0554ff" stroke="none" stroke-width="0.5"/><path d="M191.93913,153.31323c0.34791,-0.15771 0.50565,0.19019 0.50565,0.19019l-0.10191,0.04619c0.27155,0.10215 0.73766,0.18155 0.87208,0.40591c0.05707,-0.1627 0.11939,-0.32921 0.15627,-0.42721c0,0 0.13451,-0.35755 0.49204,-0.22307c0.35753,0.13449 0.22304,0.49204 0.22304,0.49204c-0.66123,1.75782 -1.16431,0.78643 -2.01242,0.46739l-0.32494,-0.44584c0,0 -0.15772,-0.34793 0.19021,-0.50564z" fill="#0554ff" stroke="none" stroke-width="0.5"/><path d="M185.15242,150.4798c0.37995,-0.0396 0.41955,0.34035 0.41955,0.34035l-0.09502,0.16773c1.16768,-0.38537 0.68072,1.64474 1.14524,0.40985c0,0 0.1345,-0.35754 0.49204,-0.22306c0.35753,0.13449 0.22304,0.49204 0.22304,0.49204c-0.75657,2.01125 -1.35969,-0.05482 -2.34162,-0.08552l-0.18356,-0.68186c0,0 -0.03961,-0.37994 0.34034,-0.41954z" fill="#0554ff" stroke="none" stroke-width="0.5"/><path d="M174.28365,150.0215c0.13449,-0.35753 0.49205,-0.22305 0.49205,-0.22305l0.14948,0.11719c1.05157,-1.61761 2.04148,-0.21791 2.40679,1.00764c0,0 0.10692,0.36672 -0.25981,0.47366c-0.36673,0.10694 -0.47366,-0.25981 -0.47366,-0.25981c-0.42406,-1.49337 -0.50483,-1.25917 -1.52619,-0.47179l-0.5656,-0.15181c0,0 -0.35753,-0.13449 -0.22304,-0.49202z" fill="#0554ff" stroke="none" stroke-width="0.5"/><path d="M169.66225,149.84831c0.73071,-1.65764 1.19323,0.59968 1.71982,0.3492c0,0 0.37994,-0.0396 0.41953,0.34034c0.0396,0.37995 -0.34034,0.41955 -0.34034,0.41955c-1.32723,-0.00868 -0.93162,-1.25655 -1.11066,-0.78794c-0.001,0.00296 -0.00157,0.00452 -0.00157,0.00452l-0.00014,-0.00002c-0.01683,0.04418 -0.0386,0.103 -0.06711,0.17878l-0.32391,-0.22387l-0.39117,-0.0451c0.02369,-0.06298 0.0471,-0.1218 0.07023,-0.17672l-0.003,-0.00206c0,0 0.00893,-0.02372 0.02829,-0.05667z" fill="#0554ff" stroke="none" stroke-width="0.5"/><path d="M180.14216,148.55205c0.13449,-0.35753 0.49203,-0.22306 0.49203,-0.22306l0.00467,0.04485c0.6062,0.08738 1.05837,-1.12785 1.44788,0.31902c0,0 0.0396,0.37994 -0.34034,0.41954c-0.31034,0.03234 -0.39362,-0.21522 -0.41371,-0.307c-0.08614,0.10643 -0.27538,0.26148 -0.61464,0.32831l-0.35287,-0.08964c0,0 -0.35754,-0.1345 -0.22304,-0.49203z" fill="#0554ff" stroke="none" stroke-width="0.5"/><path d="M187.66713,155.32197c0.30353,-0.28128 0.58483,0.02226 0.58483,0.02226l0.24174,0.27717c0.56501,0.21254 0.49635,0.45628 1.14063,0.43991c0,0 0.41354,0.01573 0.3978,0.42926c-0.01573,0.41354 -0.42928,0.39781 -0.42928,0.39781c-0.91393,-0.07032 -0.82998,-0.30136 -1.57072,-0.58l-0.38724,-0.40159c0,0 -0.28128,-0.30353 0.02225,-0.58484z" fill="#0554ff" stroke="none" stroke-width="0.5"/><path d="M201.37496,152.86582c0.13449,-0.35753 0.49204,-0.22305 0.49204,-0.22305l0.17877,0.06726c0.48837,0.1837 1.17543,0.1509 1.55104,-0.21129c0,0 0.28019,-0.25966 0.53984,0.02054c0.25966,0.28019 -0.02054,0.53984 -0.02054,0.53984c-0.92088,0.80321 -1.12824,0.82154 -2.33931,0.36598l-0.17877,-0.06725c0,0 -0.35754,-0.1345 -0.22305,-0.49204z" fill="#0554ff" stroke="none" stroke-width="0.5"/></g></g><g fill="#a8a8a8" stroke="#6b6b6b" stroke-width="1"><path d="M179.93441,138.23767c-0.10856,0.41582 -1.11555,0.51298 -2.24918,0.217c-1.13363,-0.29597 -1.96462,-0.873 -1.85605,-1.28883c0.10856,-0.41582 1.11556,-0.51297 2.24919,-0.217c1.13362,0.29598 1.96461,0.87299 1.85603,1.28882z"/><path d="M181.04182,139.76971c-0.11844,0.45363 -1.59292,0.46145 -3.29338,0.01749c-1.70045,-0.44395 -2.98292,-1.1716 -2.86448,-1.62521c0.11843,-0.45363 1.59293,-0.46146 3.29337,-0.01751c1.70045,0.44395 2.98291,1.17161 2.86448,1.62522z"/><path d="M181.09032,141.68328c-0.11844,0.45363 -1.85139,0.39399 -3.87066,-0.13322c-2.01928,-0.5272 -3.56021,-1.32231 -3.44177,-1.77594c0.11843,-0.45363 1.85138,-0.39398 3.87066,0.13323c2.01927,0.52721 3.56022,1.32232 3.44178,1.77593z"/><path d="M181.46691,143.3901c-0.13818,0.52923 -2.05943,0.48588 -4.29127,-0.09682c-2.23184,-0.58269 -3.92907,-1.4841 -3.7909,-2.01332c0.13818,-0.52923 2.05943,-0.48588 4.29127,0.09682c2.23184,0.58269 3.92909,1.48409 3.7909,2.01332z"/></g><g fill="#a8a8a8" stroke="#6b6b6b" stroke-width="1"><path d="M203.58958,144.41369c-0.10857,0.41582 -1.11556,0.51297 -2.24919,0.217c-1.13362,-0.29598 -1.96461,-0.87299 -1.85603,-1.28882c0.10857,-0.41582 1.11557,-0.51296 2.24919,-0.21699c1.13363,0.29599 1.96461,0.87299 1.85604,1.28881z"/><path d="M204.69695,145.94572c-0.11843,0.45363 -1.59292,0.46145 -3.29338,0.01749c-1.70045,-0.44395 -2.98292,-1.1716 -2.86448,-1.62521c0.11843,-0.45363 1.59292,-0.46145 3.29338,-0.01749c1.70045,0.44395 2.98291,1.17159 2.86448,1.62521z"/><path d="M204.74546,147.8593c-0.11843,0.45363 -1.85139,0.39398 -3.87067,-0.13323c-2.01927,-0.5272 -3.56022,-1.32232 -3.44178,-1.77593c0.11843,-0.45363 1.85139,-0.39398 3.87067,0.13322c2.01928,0.5272 3.56022,1.32231 3.44178,1.77593z"/><path d="M205.12206,149.56611c-0.13818,0.52923 -2.05943,0.48587 -4.29127,-0.09682c-2.23184,-0.58269 -3.92907,-1.4841 -3.7909,-2.01332c0.13818,-0.52923 2.05943,-0.48588 4.29126,0.09682c2.23184,0.58269 3.92909,1.48409 3.7909,2.01332z"/></g></g><g><path d="M169.29955,126.8539l0.67601,-6.77703c0,0 11.43152,3.53586 17.52391,4.14357c6.2871,0.62713 19.63295,-0.43717 19.63295,-0.43717l-0.67602,6.77704z" data-paper-data="{&quot;index&quot;:null}" fill="#ff0000" stroke="none" stroke-width="0"/><g data-paper-data="{&quot;index&quot;:null}"><path d="M205.74766,137.46205l-37.45629,-3.98629l1.24659,-9.4294c0,0 10.82667,3.27108 17.04046,4.09257c9.47875,1.25313 19.62152,0.75857 19.62152,0.75857z" fill="#c70303" stroke="#9966ff" stroke-width="1"/><path d="M173.52728,129.59155l-0.17614,0.00087c-1.01973,-0.0171 -1.80588,-0.69556 -2.82167,-0.6905c0,0 -0.35227,0.00175 -0.35402,-0.35053c-0.00175,-0.35227 0.35053,-0.35402 0.35053,-0.35402c1.03302,-0.00515 1.83261,0.72978 2.82168,0.6905l0.17614,-0.00089c0,0 0.35227,-0.00175 0.35401,0.35051c0.00175,0.35227 -0.35053,0.35402 -0.35053,0.35402z" fill="#0554ff" stroke="none" stroke-width="0.5"/><path d="M180.25907,133.57204l-0.44503,-0.23992c-0.30591,-0.58277 -0.00855,-1.1516 -0.63721,-1.12664c0,0 -0.35227,0.00174 -0.35402,-0.35053c-0.00175,-0.35227 0.35051,-0.35403 0.35051,-0.35403c1.1878,0.01992 0.79708,0.5821 1.13644,1.3305l0.26127,0.10885c0,0 0.31587,0.15595 0.15989,0.47184c-0.15598,0.31588 -0.47184,0.15991 -0.47184,0.15991z" fill="#0554ff" stroke="none" stroke-width="0.5"/><path d="M188.30037,132.4937l-0.30355,0.49592c-0.39059,0.0402 -0.68015,-0.11006 -0.74975,0.21388c0,0 -0.15595,0.31587 -0.47183,0.1599c-0.31588,-0.15598 -0.1599,-0.47184 -0.1599,-0.47184c0.2983,-0.48732 0.39976,-0.68767 1.00809,-0.49943l0.04521,-0.21039c0,0 0.15596,-0.31587 0.47184,-0.15989c0.31588,0.15598 0.1599,0.47183 0.1599,0.47183z" fill="#0554ff" stroke="none" stroke-width="0.5"/><path d="M197.6558,132.78076l-0.35139,0.1779c-0.78909,0.39765 -1.18783,0.74766 -2.09134,0.75218c0,0 -0.35227,0.00175 -0.35401,-0.35051c-0.00175,-0.35227 0.35052,-0.35402 0.35052,-0.35402c0.77524,-0.00386 1.08043,-0.32235 1.77663,-0.67624l0.3514,-0.17788c0,0 0.31429,-0.1591 0.4734,0.15519c0.15911,0.31429 -0.15519,0.47339 -0.15519,0.47339z" fill="#0554ff" stroke="none" stroke-width="0.5"/><path d="M201.56977,136.84969l-0.17613,0.00088c-0.70454,0.0035 -1.40909,0.00702 -2.11363,0.01053c0,0 -0.35227,0.00175 -0.35403,-0.35051c-0.00175,-0.35228 0.35053,-0.35402 0.35053,-0.35402c0.70455,-0.00351 1.58523,-0.00791 2.28977,-0.01141c0,0 0.35226,-0.00177 0.35402,0.35052c0.00175,0.35227 -0.35052,0.35402 -0.35052,0.35402z" fill="#0554ff" stroke="none" stroke-width="0.5"/><path d="M201.72747,133.14994c0,0 -0.35226,0.00177 -0.35402,-0.35052c-0.00175,-0.35227 0.35052,-0.35402 0.35052,-0.35402c0.35227,-0.00175 0.70455,-0.00351 1.05682,-0.00525l0.3549,0.52664c0,0 0.00175,0.35228 -0.35052,0.35402c-0.17613,0.00088 -0.26463,-0.08676 -0.30911,-0.1746c-0.24952,0.00125 -0.49905,0.00248 -0.74858,0.00371z" fill="#0554ff" stroke="none" stroke-width="0.5"/><path d="M192.04525,134.25504l-0.34963,0.53016c-0.11742,0.00058 -0.23485,0.00117 -0.35227,0.00176c0,0 -0.35228,0.00175 -0.35402,-0.35052c-0.00175,-0.35228 0.35052,-0.35403 0.35052,-0.35403c0.01466,-0.00006 0.02937,-0.00015 0.04404,-0.00021c0.0436,-0.0883 0.13123,-0.1768 0.30736,-0.17767c0.35228,-0.00176 0.35401,0.35052 0.35401,0.35052z" fill="#0554ff" stroke="none" stroke-width="0.5"/><path d="M190.12705,134.40356l-0.44503,-0.23992c-0.04408,-0.1167 -0.16175,-0.28576 -0.28057,-0.2477c0,0 -0.35227,0.00174 -0.35401,-0.35052c-0.00175,-0.35227 0.35051,-0.35401 0.35051,-0.35401c0.29908,0.02776 0.62474,0.19429 0.77978,0.45158l0.26127,0.10885c0,0 0.31586,0.15597 0.15989,0.47184c-0.15598,0.31588 -0.47184,0.15989 -0.47184,0.15989z" fill="#0554ff" stroke="none" stroke-width="0.5"/><path d="M184.62911,130.59306l-0.35227,0.00175c-0.82195,0.00409 -1.64393,0.0082 -2.4659,0.01229c0,0 -0.35227,0.00174 -0.35402,-0.35053c-0.00175,-0.35227 0.35052,-0.35401 0.35052,-0.35401c0.82195,-0.00409 1.9962,-0.00995 2.81817,-0.01404c0,0 0.35227,-0.00175 0.35402,0.35052c0.00175,0.35228 -0.35053,0.35402 -0.35053,0.35402z" fill="#0554ff" stroke="none" stroke-width="0.5"/><path d="M174.85113,133.18071l-0.58156,0.24504c-0.56627,-0.27963 -1.32794,-0.85886 -1.9603,-0.83374c0,0 -0.35226,0.00177 -0.35402,-0.35052c-0.00176,-0.35228 0.35052,-0.35402 0.35052,-0.35402c0.71702,0.01202 1.40371,0.44758 2.05142,0.79121c0.04119,-0.03737 0.26531,-0.22006 0.49147,0.00385c0.25033,0.24784 0.00249,0.49818 0.00249,0.49818z" fill="#0554ff" stroke="none" stroke-width="0.5"/><path d="M178.45911,129.56699l-0.17613,0.00088c-0.35228,0.00176 -0.70454,0.00351 -1.05682,0.00526c0,0 -0.35227,0.00176 -0.35402,-0.35052c-0.00175,-0.35227 0.35052,-0.35403 0.35052,-0.35403c0.35227,-0.00175 0.88069,-0.00439 1.23295,-0.00614c0,0 0.35227,-0.00175 0.35402,0.35052c0.00175,0.35227 -0.35052,0.35401 -0.35052,0.35401z" fill="#0554ff" stroke="none" stroke-width="0.5"/><path d="M171.42068,131.01119l-0.35228,0.00175c-0.68139,0.0034 -0.81426,0.07284 -1.19848,-0.54104c0,0 -0.15911,-0.31428 0.15518,-0.47341c0.31431,-0.15912 0.47343,0.15519 0.47343,0.15519c0.07184,0.31882 0.22629,0.15642 0.56638,0.15472l0.35227,-0.00175c0,0 0.35228,-0.00174 0.35402,0.35053c0.00175,0.35227 -0.35052,0.35402 -0.35052,0.35402z" fill="#0554ff" stroke="none" stroke-width="0.5"/><path d="M176.53653,132.57095l-0.17614,0.00087c-0.29599,-0.00496 -0.59517,-0.08324 -0.86314,-0.20902c0,0 -0.31588,-0.15596 -0.1599,-0.47183c0.15598,-0.31588 0.47183,-0.1599 0.47183,-0.1599c0.1661,0.08834 0.35972,0.14368 0.5477,0.13622l0.17613,-0.00088c0,0 0.35227,-0.00175 0.35401,0.35051c0.00175,0.35228 -0.35051,0.35403 -0.35051,0.35403z" fill="#0554ff" stroke="none" stroke-width="0.5"/><path d="M182.06655,131.91178l-0.42383,0.28142c-0.83561,0.00417 -1.58187,0.683 -1.5905,-1.04892c0,0 -0.00176,-0.35226 0.35052,-0.35401c0.35227,-0.00175 0.35402,0.35052 0.35402,0.35052c0.00049,0.09658 0.00104,0.26051 -0.00174,0.41949c0.18812,-0.15095 0.61662,-0.0703 0.88418,-0.07162l-0.07333,-0.07259c0,0 0.24785,-0.25034 0.49818,-0.00249c0.25034,0.24785 0.00249,0.4982 0.00249,0.4982z" fill="#0554ff" stroke="none" stroke-width="0.5"/><path d="M189.00051,131.60951l-0.37719,0.53083c-0.85897,-0.28803 -2.04243,1.30534 -2.05232,-0.67626c0,0 -0.00177,-0.35226 0.35052,-0.35402c0.35227,-0.00175 0.35402,0.35052 0.35402,0.35052c0.00605,1.21667 0.23537,-0.69486 1.12164,0.01249l-0.02843,-0.1755c0,0 0.15596,-0.31588 0.47184,-0.1599c0.31588,0.15598 0.1599,0.47184 0.1599,0.47184z" fill="#0554ff" stroke="none" stroke-width="0.5"/><path d="M198.03563,134.57747l-0.53775,-0.04993c-0.63097,-1.00809 -0.62575,-1.23647 -1.47092,-0.08095c0,0 -0.20995,0.28287 -0.49283,0.07291c-0.28288,-0.20996 -0.07292,-0.49283 -0.07292,-0.49283c0.70852,-0.94275 2.01296,-1.836 2.40408,-0.10028l0.16681,-0.05346c0,0 0.35226,-0.00177 0.35402,0.35052c0.00175,0.35227 -0.35052,0.35402 -0.35052,0.35402z" fill="#0554ff" stroke="none" stroke-width="0.5"/><path d="M202.4443,135.61235l-0.00323,0.00082c0.00241,0.0549 0.00381,0.11329 0.00412,0.17532l-0.35271,-0.08632l-0.35183,0.08981c-0.00038,-0.07467 -0.00035,-0.13251 -0.00076,-0.17611l-0.00012,-0.00003c0,0 -0.00001,-0.00153 0.00008,-0.00441c-0.0047,-0.46259 -0.06236,0.74325 -1.21286,0.32555c0,0 -0.31587,-0.15597 -0.15989,-0.47184c0.15597,-0.31587 0.47184,-0.15989 0.47184,-0.15989c0.37512,0.38531 1.49827,-1.4185 1.59908,0.24902c0.00619,0.03468 0.00632,0.05806 0.00632,0.05806z" fill="#0554ff" stroke="none" stroke-width="0.5"/><path d="M193.4403,131.42984l-0.33387,-0.03552c-0.27196,-0.16647 -0.38593,-0.36117 -0.42632,-0.48082c-0.04678,0.07293 -0.1981,0.26033 -0.45611,0.13294c-0.31588,-0.15598 -0.15989,-0.47184 -0.15989,-0.47184c0.80038,-1.12639 0.80207,0.06933 1.35427,0.18799l0.01841,-0.03728c0,0 0.35227,-0.00176 0.35402,0.35052c0.00175,0.35228 -0.35052,0.35402 -0.35052,0.35402z" fill="#0554ff" stroke="none" stroke-width="0.5"/><path d="M184.94659,135.03214l-0.46351,0.22321c-0.72983,0.00363 -0.73127,0.23033 -1.54409,-0.00167c0,0 -0.36265,-0.11888 -0.24378,-0.48152c0.11887,-0.36265 0.48153,-0.24376 0.48153,-0.24376c0.55189,0.22056 0.57062,-0.01222 1.12729,-0.015l0.29784,-0.16222c0,0 0.34049,-0.17236 0.51285,0.16811c0.17237,0.34049 -0.16812,0.51285 -0.16812,0.51285z" fill="#0554ff" stroke="none" stroke-width="0.5"/><path d="M173.69728,128.35772l-0.17614,0.00087c-1.19322,0.00594 -1.36666,-0.07633 -1.90566,-1.06594c0,0 -0.15911,-0.31429 0.15518,-0.47341c0.31431,-0.15912 0.4734,0.15518 0.4734,0.15518c0.20878,0.43353 0.79237,0.682 1.27355,0.67961l0.17614,-0.00087c0,0 0.35227,-0.00174 0.35401,0.35052c0.00175,0.35227 -0.35052,0.35402 -0.35052,0.35402z" fill="#0554ff" stroke="none" stroke-width="0.5"/></g><g data-paper-data="{&quot;index&quot;:null}" fill="#a8a8a8" stroke="#6b6b6b" stroke-width="1"><path d="M202.1577,122.22497c1.07511,0.10724 1.9148,0.51388 1.87545,0.90823c-0.03933,0.39436 -0.9428,0.62714 -2.01791,0.5199c-1.07511,-0.10724 -1.9148,-0.51389 -1.87546,-0.90824c0.03934,-0.39435 0.9428,-0.62711 2.01792,-0.51987z"/><path d="M201.68908,123.2272c1.61269,0.16087 2.88524,0.64003 2.84232,1.07024c-0.04292,0.43021 -1.38504,0.64857 -2.99772,0.4877c-1.61269,-0.16087 -2.88524,-0.64004 -2.84233,-1.07024c0.04292,-0.43021 1.38505,-0.64857 2.99773,-0.4877z"/><path d="M201.58156,124.92104c1.91506,0.19103 3.43274,0.69464 3.38982,1.12486c-0.04293,0.43021 -1.63017,0.62412 -3.54523,0.43307c-1.91506,-0.19103 -3.43274,-0.69465 -3.38983,-1.12486c0.04291,-0.43021 1.63016,-0.6241 3.54524,-0.43307z"/><path d="M201.08706,126.18289c2.11665,0.21114 3.79194,0.78918 3.74188,1.29109c-0.05007,0.50192 -1.80653,0.73763 -3.92318,0.52651c-2.11665,-0.21114 -3.79195,-0.78917 -3.74188,-1.29109c0.05007,-0.50193 1.80653,-0.73763 3.92318,-0.5265z"/></g><g data-paper-data="{&quot;index&quot;:null}" fill="#a8a8a8" stroke="#6b6b6b" stroke-width="1"><path d="M179.37282,119.95218c1.07511,0.10724 1.91479,0.51387 1.87546,0.90823c-0.03933,0.39436 -0.94281,0.62712 -2.01792,0.51988c-1.07511,-0.10724 -1.91479,-0.51388 -1.87545,-0.90824c0.03933,-0.39436 0.94279,-0.62712 2.01792,-0.51987z"/><path d="M178.90421,120.95439c1.61269,0.16087 2.88523,0.64004 2.84232,1.07024c-0.04291,0.43021 -1.38505,0.64857 -2.99773,0.4877c-1.61269,-0.16087 -2.88524,-0.64003 -2.84232,-1.07024c0.04291,-0.43021 1.38504,-0.64857 2.99773,-0.4877z"/><path d="M178.79669,122.64823c1.91506,0.19103 3.43274,0.69465 3.38983,1.12486c-0.04291,0.43021 -1.63017,0.62411 -3.54523,0.43308c-1.91506,-0.19103 -3.43275,-0.69465 -3.38983,-1.12485c0.04293,-0.43021 1.63018,-0.62413 3.54522,-0.4331z"/><path d="M178.30217,123.9101c2.11665,0.21114 3.79194,0.78918 3.74189,1.2911c-0.05007,0.50193 -1.80654,0.73762 -3.92318,0.5265c-2.11665,-0.21114 -3.79195,-0.78919 -3.74189,-1.29111c0.05007,-0.50192 1.80655,-0.73762 3.92318,-0.5265z"/></g></g></g><g><g><g fill="#8a8a8a" stroke="#212121" stroke-width="1"><path d="M213.51589,184.89827c-4.4564,1.34667 -9.42128,5.84089 -12.98715,6.00907c-3.56587,0.16817 -2.9687,-1.63431 -5.75518,-1.74522c-2.78648,-0.11091 -5.14026,4.8944 -8.85593,6.06265c-8.14067,2.55952 -13.52053,-7.48837 -13.50744,-8.9937c0.0101,-1.16134 10.6006,-10.31627 13.94338,-12.48777c2.47517,-1.60789 5.34828,0.18146 7.94421,-1.26384c2.59593,-1.44531 7.57935,-6.33287 10.12109,-7.55976c2.54171,-1.22688 5.98007,0.36553 9.27642,-0.63056c4.69592,-1.41905 3.6614,-0.12399 7.3498,-0.23687c3.68841,-0.11288 7.08429,5.16331 7.05234,8.83434c-0.03141,3.6084 5.44977,5.42179 -1.09421,9.23517c-6.54399,3.81338 -8.64578,1.31344 -13.48732,2.7765z"/></g><path d="M205.95674,180.66598l-0.90412,-0.09481c0.32144,-0.4998 0.75,-0.99502 1.25403,-1.40823c0.52507,-0.4205 1.51665,-0.6537 1.65618,-1.17306c0.07325,-0.27268 -1.71096,-0.94469 -1.58642,-1.51963c0.04731,-0.21841 1.65165,-1.90861 1.87949,-2.18732c1.99001,-2.43438 3.42995,-4.31028 6.07503,-6.42851c0,0 0.47651,-0.38158 0.77396,-0.09664c0.29745,0.28493 -0.17903,0.66651 -0.17903,0.66651c-2.55258,2.04413 -3.90609,3.82587 -5.82209,6.1801c-0.2836,0.34845 -1.52685,1.52049 -1.63283,1.72919c-0.01151,0.02266 1.68192,1.1641 1.58642,1.51963c-0.11586,0.43133 -1.70975,1.52241 -2.15578,1.8796c-0.17601,0.13634 -0.33764,0.28999 -0.48197,0.45239c0.04313,0.24779 -0.27271,0.50071 -0.27271,0.50071l-0.09665,-0.01013c-0.01342,0.02127 -0.02651,0.04254 -0.0393,0.0638z" fill="#212121" stroke="none" stroke-width="0.5"/><path d="M198.34146,180.50575c-0.54726,0.06835 -0.42068,-0.40296 -0.42068,-0.40296l0.18749,-0.59689c0.55116,-0.85699 1.62669,-1.61746 2.12029,-2.37257c0.20913,-0.31993 -0.38903,-0.41147 -0.50409,-0.66653c-0.07273,-0.16122 -0.18688,-1.43262 -0.1198,-1.60024c0.3232,-0.80773 1.19612,-2.13143 1.80921,-2.91882c0,0 0.35798,-0.4521 0.79086,-0.30246c0.43287,0.14965 0.0749,0.60175 0.0749,0.60175c-0.59379,0.7346 -1.26292,1.82108 -1.6095,2.57319c-0.47307,1.02657 1.01523,1.32788 0.56551,2.39664c-0.29779,0.70771 -1.70714,1.68945 -2.16908,2.45744l-0.05125,0.2918c0,0 -0.12659,0.4713 -0.67385,0.53965z" fill="#212121" stroke="none" stroke-width="0.5"/><path d="M191.3996,186.39244c-0.29745,-0.28492 0.17905,-0.66651 0.17905,-0.66651l0.42923,-0.26562c-0.33906,-1.41283 1.92556,-4.60313 2.92565,-6.20212c0,0 0.29315,-0.46871 0.7723,-0.38451c0.47915,0.0842 0.18598,0.55293 0.18598,0.55293c-1.11894,1.78902 -2.95334,4.40824 -2.87687,6.11724l-0.84141,0.75195c0,0 -0.47649,0.38157 -0.77395,0.09664z" fill="#212121" stroke="none" stroke-width="0.5"/><path d="M208.78449,182.93316c-0.29745,-0.28493 0.17904,-0.66652 0.17904,-0.66652l0.31767,-0.25439c2.68758,-2.15224 4.62011,-4.39734 7.22727,-6.48519c0,0 0.47648,-0.38158 0.77395,-0.09666c0.29745,0.28493 -0.17905,0.66651 -0.17905,0.66651c-2.58798,2.07249 -4.5456,4.33769 -7.22727,6.48518l-0.31767,0.2544c0,0 -0.47649,0.38158 -0.77394,0.09666z" fill="#212121" stroke="none" stroke-width="0.5"/><path d="M186.41133,188.4137c-0.55922,0.21386 -0.61216,-0.21163 -0.61216,-0.21163l-0.08021,-0.70522c0.33529,-1.24819 1.30559,-2.65723 2.34659,-3.82624c0.30929,-0.34732 0.99383,-0.49298 1.16609,-0.86967c0.20127,-0.44014 -0.31278,-0.72352 -0.20161,-1.15849c0.21413,-0.83792 0.75461,-1.76342 1.56086,-2.44945c0,0 0.47649,-0.38158 0.77394,-0.09666c0.29745,0.28492 -0.17904,0.66652 -0.17904,0.66652c-1.51904,1.08928 -0.41211,2.04802 -0.94709,3.1216c-0.3002,0.60244 -0.95938,0.69538 -1.37521,1.16541c-0.82504,0.93261 -1.7556,2.16332 -2.0236,3.16106l0.07768,0.56338c0,0 0.05295,0.42551 -0.50626,0.63936z" fill="#212121" stroke="none" stroke-width="0.5"/></g><path d="M187.41734,191.67606c-0.10507,1.00822 -0.772,1.32187 -1.07353,2.22863c-0.68946,2.07334 -2.51247,2.92588 -4.70926,3.21785c-0.81584,0.10843 -1.39069,0.58322 -2.07396,0.86104c-0.37016,0.15052 -1.56864,-0.21789 -1.99015,-0.26829c-1.68141,-0.20096 -3.1183,-0.91815 -4.76841,-1.11538c-0.29688,-0.03548 -1.62332,0.00632 -1.79491,-0.29467c-0.13813,-0.24227 0.30937,-0.46952 0.40863,-0.73014c0.39124,-1.02711 0.89558,-1.55219 1.4903,-2.16576l0.04096,0.05216l0.59928,-0.47201c0.08139,-0.06402 0.10509,-0.11664 0.11835,-0.22757c0.02652,-0.22189 -0.13336,-0.42455 -0.35525,-0.45107l-0.46602,-0.05649c-0.56194,-0.3645 -0.98397,-0.39984 -1.64861,-0.47189c-0.23038,-0.02499 -0.71933,0.15335 -0.69177,-0.07674c0.03965,-0.33108 0.48271,-0.47547 0.63932,-0.76988c0.69484,-1.30613 2.19462,-1.60302 2.55089,-2.77218c0.04115,0.0011 0.08096,0.00188 0.1192,0.00197l-0.08053,-0.15583c0.00931,-0.0454 0.01682,-0.09277 0.02279,-0.1408l0.20901,0.02539l0.0634,-0.53867c0.02652,-0.22189 -0.13212,-0.4261 -0.35401,-0.45261c-0.22189,-0.0265 -0.36948,0.12792 -0.39602,0.34982l-0.07531,0.18868c-0.96163,-0.65582 -3.22299,-0.40831 -3.64436,-1.59759c-0.48114,-1.35794 1.55992,-1.64162 2.24574,-1.95387c0.33901,-0.15435 0.74618,-0.4156 1.12982,-0.68231l0.00598,0.01677l0.56062,-0.20256c0.14358,-0.04819 0.25532,-0.17686 0.27448,-0.33725c0.02652,-0.22189 -0.09128,-0.3877 -0.31317,-0.41422l-0.72994,-0.1171c-0.47153,-0.57197 -0.89469,-0.94853 -1.23574,-1.6298c-0.26476,-0.33833 -1.95764,-1.977 -1.54185,-2.4882c1.50214,-1.84672 5.0744,-2.61448 7.29523,-2.68935c0.31275,-0.01054 0.59557,1.19534 0.64263,1.31554c2.05988,1.39317 4.24579,1.4764 6.70091,1.46352c0.73075,-0.00384 1.60519,0.39825 2.32947,0.13894c1.43176,4.27601 1.02973,8.94434 0.49575,13.41189z" data-paper-data="{&quot;noHover&quot;:false,&quot;origItem&quot;:[&quot;Path&quot;,{&quot;applyMatrix&quot;:true,&quot;segments&quot;:[[[352.98765,211.79952],[7.15143,15.10973],[-2.55196,1.27316]],[[344.36571,212.32209],[2.68815,-0.33561],[-9.03143,1.12755]],[[319.12178,209.89399],[8.19519,4.2219],[-0.22607,-0.42176]],[[316.18244,205.33333],[1.14654,-0.1764],[-8.14174,1.25266]],[[290.56826,218.40736],[4.71675,-7.45853],[-1.30565,2.06461]],[[297.34245,226.88235],[-1.12338,-1.1289],[1.55513,2.35765]],[[302.61113,232.33333],[-1.98728,-1.89794],[0,0]],[[305.18244,232.33333],[0,0],[0.82843,0]],[[306.68244,233.83333],[0,-0.82843],[0,0.5988]],[[305.82419,235.18951],[0.50737,-0.24052],[0,0]],[303.85326,236.17497],[[303.82379,236.11605],[0,0],[-1.29482,1.15054]],[[299.97103,239.10931],[1.17999,-0.71729],[-2.38708,1.45106]],[[292.56826,247.25931],[-2.36844,-4.78677],[2.07425,4.1922]],[[306.68244,251.51318],[-3.82814,-1.9909],[0,0]],[[306.68244,250.83333],[0,0],[0,-0.82843]],[[308.18244,249.33333],[-0.82843,0],[0.82843,0]],[[309.68244,250.83333],[0,-0.82843],[0,0]],[309.68244,252.83333],[[308.90249,252.83333],[0,0],[-0.00083,0.17941]],[[308.87958,253.35911],[0.01432,-0.1712],[0,0]],[[309.2431,253.89399],[0,0],[-0.14078,0.0165]],[[308.80379,253.93991],[0.15196,-0.01408],[-0.79701,4.46031]],[[300.62231,265.24677],[1.98302,-5.11343],[-0.44697,1.15256]],[[298.60546,268.35899],[0.00029,-1.23619],[-0.0002,0.85903]],[[301.18244,268.33333],[-0.85898,0.00943],[2.47817,-0.0272]],[[307.44609,269.33333],[-2.22884,-1.09444],[0,0]],[[309.18244,269.33333],[0,0],[0.82843,0]],[[310.68244,270.83333],[0,-0.82843],[0,0.41421]],[[310.2431,271.89399],[0.27145,-0.27145],[0,0]],[308.2431,273.89399],[[308.06872,273.71962],[0,0],[-1.91921,2.52017]],[[303.64231,282.17796],[0.98821,-3.95282],[-0.25075,1.003]],[[302.45841,285.04474],[-0.61503,-0.83104],[0.76407,1.03243]],[[309.18244,285.33333],[-1.10841,0],[6.16069,0]],[[327.18244,287.33333],[-6.27749,0],[1.57371,0]],[[334.60841,287.44751],[-1.29634,0.7169],[2.39284,-1.32329]],[[341.8448,283.37183],[-2.95535,0.75806],[7.95781,-2.0412]],[[357.72256,269.4887],[-1.62566,7.93509],[0.71097,-3.47035]],[[360.68244,260.83333],[0.05678,3.75743],[0,-16.67958]]],&quot;closed&quot;:true}]}" fill="#001a3a" stroke="#e3efff" stroke-width="1.5"/></g></g><path d="M234.36274,175.54474l-6.12007,5.73667l-11.49945,-17.39913l8.36937,-2.76092" fill="#000000" stroke="#000000" stroke-width="1" stroke-linecap="round"/></g><g stroke-linecap="butt"><g data-paper-data="{&quot;index&quot;:null}"><g><g fill="#8a8a8a" stroke="#212121" stroke-width="1"><path d="M217.05681,198.1191c2.89723,-3.64405 4.4207,-10.16532 7.25666,-12.33352c2.83596,-2.16819 3.37107,-0.34633 5.72512,-1.8414c2.35405,-1.49507 1.43986,-6.95013 3.82967,-10.02582c5.23583,-6.73853 15.37883,-1.54019 16.22499,-0.29513c0.65281,0.96055 -2.84261,14.51612 -4.35472,18.20434c-1.11965,2.73096 -4.50041,2.89541 -5.81188,5.56145c-1.31148,2.66604 -2.62629,9.52127 -4.01755,11.97687c-1.39125,2.4556 -5.12463,3.10373 -7.26768,5.79919c-3.05293,3.8399 -2.93964,2.18625 -5.9078,4.37874c-2.96818,2.19249 -8.76367,-0.21217 -10.8272,-3.24852c-2.02831,-2.98453 -7.56699,-1.35517 -4.35767,-8.21562c3.20933,-6.86046 6.36044,-6.00159 9.50806,-9.96058z"/></g><path d="M225.68089,197.29552l0.79729,-0.43673c0.02024,0.59389 -0.05018,1.24499 -0.22935,1.87166c-0.19232,0.64462 -0.87479,1.40082 -0.69385,1.90723c0.095,0.26587 1.94446,-0.19731 2.16935,0.34628c0.08543,0.20649 -0.2714,2.50939 -0.30005,2.86824c-0.25028,3.13428 -0.36624,5.49627 -1.33507,8.74353c0,0 -0.17453,0.58497 -0.58129,0.52004c-0.40675,-0.06493 -0.23222,-0.64989 -0.23222,-0.64989c0.93496,-3.13369 1.03347,-5.36906 1.26853,-8.39531c0.0348,-0.44793 0.38975,-2.11926 0.35806,-2.35117c-0.00344,-0.02518 -2.04549,0.00039 -2.16936,-0.34627c-0.15028,-0.42058 0.53902,-2.22497 0.70239,-2.77253c0.06709,-0.21229 0.1125,-0.43062 0.13872,-0.6463c-0.17652,-0.17916 -0.06082,-0.56691 -0.06082,-0.56691l0.08524,-0.04669c-0.00107,-0.02512 -0.00241,-0.05006 -0.004,-0.07482z" fill="#212121" stroke="none" stroke-width="0.5"/><path d="M232.03303,193.09212c0.41102,-0.36773 0.57525,0.09181 0.57525,0.09181l0.18564,0.59746c0.03472,1.01833 -0.41662,2.25582 -0.39257,3.15762c0.01019,0.38208 0.55408,0.11683 0.79387,0.26102c0.15158,0.09114 0.96919,1.07145 1.00946,1.24744c0.19409,0.84806 0.22995,2.43327 0.17413,3.42964c0,0 -0.03694,0.57548 -0.47801,0.69887c-0.44108,0.12339 -0.40413,-0.4521 -0.40413,-0.4521c0.07001,-0.94199 0.00163,-2.21616 -0.14158,-3.03179c-0.19546,-1.1133 -1.59059,-0.51378 -1.82927,-1.64847c-0.15804,-0.75135 0.44178,-2.36081 0.38438,-3.25518l-0.12398,-0.26907c0,0 -0.16422,-0.45954 0.2468,-0.82727z" fill="#000000" stroke="none" stroke-width="0.5"/><path d="M234.3892,184.30059c0.40676,0.06492 0.23222,0.64989 0.23222,0.64989l-0.20169,0.46273c1.08303,0.96856 1.03731,4.88063 1.12533,6.76457c0,0 0.0258,0.55224 -0.41606,0.75577c-0.44187,0.20353 -0.46767,-0.34871 -0.46767,-0.34871c-0.09849,-2.10782 -0.08137,-5.30549 -1.11712,-6.66702l0.26371,-1.0972c0,0 0.17453,-0.58496 0.58129,-0.52004z" fill="#000000" stroke="none" stroke-width="0.5"/><path d="M222.06542,197.04129c0.40675,0.06493 0.23223,0.6499 0.23223,0.6499l-0.11635,0.38998c-0.9844,3.29942 -1.29517,6.24537 -2.25012,9.44607c0,0 -0.17452,0.58497 -0.58128,0.52005c-0.40675,-0.06493 -0.23221,-0.6499 -0.23221,-0.6499c0.94792,-3.17716 1.26787,-6.15391 2.25011,-9.44607l0.11635,-0.38998c0,0 0.17453,-0.58497 0.58128,-0.52004z" fill="#212121" stroke="none" stroke-width="0.5"/><path d="M237.33968,179.79914c0.33802,-0.49418 0.62377,-0.17451 0.62377,-0.17451l0.4674,0.53414c0.4349,1.21707 0.43928,2.92788 0.24889,4.4816c-0.05658,0.46162 -0.53645,0.97107 -0.46363,1.37883c0.08508,0.47644 0.66903,0.41679 0.82525,0.83768c0.30095,0.8108 0.38344,1.87937 0.11112,2.90237c0,0 -0.17453,0.58497 -0.58128,0.52005c-0.40676,-0.06492 -0.23223,-0.64989 -0.23223,-0.64989c0.62879,-1.7603 -0.82704,-1.91838 -0.99837,-3.10559c-0.09615,-0.66619 0.3929,-1.11785 0.4672,-1.74102c0.1474,-1.23642 0.21187,-2.77798 -0.13577,-3.75084l-0.38457,-0.41897c0,0 -0.28576,-0.31968 0.05225,-0.81384z" fill="#000000" stroke="none" stroke-width="0.5"/></g></g><path d="M208.70226,203.6338c0.70943,-0.34299 1.42808,-0.64288 2.10171,-0.75452c0.90335,-0.14971 1.83717,0.0003 2.73665,-0.13158c1.06886,-0.15672 1.71994,-1.29858 2.96215,-0.61455c0.24377,0.13423 0.22867,0.51377 0.40109,0.73221c0.87407,1.1074 1.77365,1.64204 2.35328,2.98738c0.85559,1.98583 1.50776,4.95114 2.84429,6.64494c1.71668,2.17558 2.15928,6.01313 0.61708,8.46547c-0.62584,1.542 -0.77612,3.47962 -1.95358,4.78766c-0.35499,0.39436 -1.4714,0.68711 -1.97307,0.90326c-0.45225,0.19485 -1.65771,0.90623 -2.11455,0.80675c-0.67769,-0.14757 -1.72367,-1.87911 -2.12326,-3.23985c-0.53157,0.59859 -2.48234,1.97558 -3.39546,1.77675c-1.37706,-0.29987 -1.39093,-1.88715 -1.55283,-2.87878c-0.25402,-1.5559 -0.94098,-2.97826 0.21793,-4.3989c0.10075,-0.1235 0.19844,-0.28992 0.29767,-0.4765c-0.19042,0.08748 -0.39582,0.15066 -0.62455,0.17576c-3.55036,0.38968 -2.99293,-4.46037 -1.93546,-6.34812c0.08558,-0.15276 0.22528,-0.37169 0.39482,-0.60188c-1.02317,0.03143 -2.27558,-0.29184 -2.74446,-0.3166c-0.24452,-0.0129 -0.45612,0.31325 -0.69183,0.24694c-1.66274,-0.46774 -1.52301,-2.41347 -0.88256,-3.57365c1.12953,-2.04613 2.33793,-3.22614 4.54167,-4.18359c0,0 0.27009,-0.11637 0.52328,-0.00861z" fill="#001a3a" stroke="#e3efff" stroke-width="1.5"/></g><g stroke="#e3efff" stroke-width="1" stroke-linecap="butt"><path d="M221.35883,219.5717v-67.89114h78.00259v67.89114z" fill="url(#color-1)"/><path d="M223.19346,218.95946c0,0 20,-6.10917 20,-13.78729c0,-4.49588 -20,-9.31066 -20,-14.33333c0,-3.1096 24.66666,-7.50445 24.66666,-10.33334c0,-3.95675 -24.66666,-6.12507 -24.66666,-8.66666c0,-7.92594 0,-19.54604 0,-19.54604h74.33334c0,0 0,11.6201 0,19.54604c0,2.96231 -25.66667,4.89549 -25.66667,9.66666c0,6.40187 25.66667,16.04569 25.66667,22.33334c0,2.54328 -24.33334,-1.74744 -24.33334,0.33333c0,4.86813 24.33334,14.7873 24.33334,14.7873z" fill="url(#color-2)"/></g><g stroke-linecap="round"><path d="M241.71353,121.66667l22.33333,12.33333l1,17.33333h-25.33333v-15.33333l-7.33333,-9" fill="url(#color-3)" stroke="#9966ff" stroke-width="0.5"/><path d="M237.96353,135.75l9.75,-9" fill="none" stroke="#000000" stroke-width="1"/><path d="M240.46353,141.25l16.5,-9.5" fill="none" stroke="#000000" stroke-width="1"/><path d="M239.96353,147l23.25,-11.5" fill="none" stroke="#000000" stroke-width="1"/><path d="M263.96353,147.25l-25,3.5" fill="none" stroke="#000000" stroke-width="1"/></g><g stroke-linecap="butt"><g><g><path d="M240.04637,131.43752c-3.35163,1.39602 -1.24039,-7.11183 -3.55378,-12.66595c-2.31339,-5.55412 -8.17539,-6.05129 -4.82376,-7.4473c3.35163,-1.39602 7.94404,1.9748 10.25743,7.52892c2.31339,5.55412 1.47174,11.18832 -1.87989,12.58434z" fill="url(#color-4)" stroke="#e3efff" stroke-width="0.5"/><path d="M238.09866,128.42907c-2.9102,1.11342 -6.74273,-1.83501 -8.56021,-6.58548c-1.81748,-4.75047 2.65191,-9.29318 5.5621,-10.40658c1.85203,-0.70856 2.62628,0.14248 3.41289,2.07944c0.44943,1.10667 0.90291,2.56785 1.56375,4.29513c1.81748,4.75047 0.93166,9.50408 -1.97854,10.6175z" fill="url(#color-5)" stroke="#e3efff" stroke-width="1"/><path d="M231.94515,125.13393c-1.10441,1.4625 -1.94993,-0.29565 -3.16408,-1.21252c-1.21415,-0.91687 0.37737,-3.61656 1.48178,-5.07907c1.10441,-1.4625 2.68007,-0.87902 3.89422,0.03785c1.21415,0.91687 -1.10751,4.79124 -2.21192,6.25374z" fill="#5d8d03" stroke="#000000" stroke-width="0"/><path d="M234.63947,124.66275c-1.42062,4.3296 -6.91838,5.84905 -11.07554,7.28572c-3.58634,1.23939 -8.2528,1.67983 -11.62933,0.57194c-1.59341,-0.52282 -2.05941,-2.18673 -3.58005,-2.70233c-2.21786,-0.75201 -4.94441,-1.43958 -5.76339,-3.44911c-0.75943,-1.86342 -0.02315,-4.31844 0.47115,-6.84296c0.42673,-2.17943 0.52099,-4.41961 1.12784,-6.26907c0.5502,-1.67684 2.44526,-1.97823 3.9962,-3.14643c0.64221,-0.48372 1.08181,-1.61455 1.57016,-2.26296c0.40713,-0.54057 1.46669,-0.90654 1.8784,-1.44487c1.96651,-2.57126 3.58728,-5.51736 5.57892,-7.30073c1.69266,-1.51566 3.70976,-2.14877 5.83397,-1.45178c1.94811,0.63921 6.19372,-0.27609 8.23922,1.71084c3.04661,2.95939 3.67964,10.38212 4.04448,14.18455c0.3069,3.1986 0.19387,8.4172 -0.69205,11.1172z" fill="#9966ff" stroke="#e3efff" stroke-width="1"/><path d="M234.81768,123.61569c-1.29195,1.71085 -4.17359,1.71259 -6.43633,0.00389c-2.26274,-1.70871 -2.07285,-4.52769 -0.7809,-6.23854c1.29195,-1.71085 3.52715,-3.14223 5.78989,-1.43352c2.26274,1.70871 2.71929,5.95732 1.42734,7.66818z" fill="#58ff00" stroke="#000000" stroke-width="0"/><path d="M225.92055,120.64457c0.87114,-1.15359 1.88871,-0.83302 3.22657,-0.9163c1.0943,-0.06812 2.75542,-1.07135 3.699,-0.35882c2.09718,1.58369 2.25265,4.91295 0.66897,7.01012c-1.58369,2.09718 -4.5676,2.51344 -6.66477,0.92976c-2.09718,-1.58369 -2.51345,-4.5676 -0.92976,-6.66478z" fill="#070707" stroke="#000000" stroke-width="1"/><path d="M228.30761,122.05488c-0.52095,0.68986 -1.59198,0.75922 -2.39222,0.15492c-0.80024,-0.6043 -1.02665,-1.65342 -0.5057,-2.34328c0.52095,-0.68986 1.59198,-0.75922 2.39222,-0.15492c0.80024,0.6043 1.02665,1.65342 0.5057,2.34328z" fill="#58ff00" stroke="none" stroke-width="0"/><g fill="url(#color-6)" stroke="none" stroke-width="0"><path d="M216.42471,129.27134c-0.07273,0.0963 0.25574,2.52721 0.15103,2.58329c-1.25732,0.6735 -5.11872,-3.79061 -7.86981,-5.8681c-2.9802,-2.25049 -6.75207,-4.14938 -5.80609,-5.40208c0.48982,-0.64865 0.14626,-7.83291 2.04842,-7.44033c1.77139,0.36559 6.26214,5.91433 7.69919,6.99953c2.9802,2.25049 4.72324,7.87499 3.77726,9.12769z"/></g><path d="M232.80869,111.78474c-0.06971,0.37634 -0.44603,0.30663 -0.44603,0.30663l-0.07832,-0.12851c-0.32988,0.22393 -0.69456,0.40065 -1.07035,0.53385c-0.72122,0.33287 -1.39996,0.73762 -2.00063,-0.06626c-0.00791,-0.01058 -0.0156,-0.02127 -0.0231,-0.03207c-0.04412,0.0637 -0.11103,0.12358 -0.21,0.17266c-0.45719,0.22671 -0.68389,-0.23047 -0.68389,-0.23047l0.02527,-0.07033c-0.52995,-0.40325 -0.94103,-0.87057 -1.47092,-1.27246c-1.42083,-1.76051 -3.98335,-2.42958 -5.61874,-3.98787c-0.51011,-0.48606 -0.63006,-1.31898 -0.9298,-1.97404c-0.03012,-0.00945 -0.05993,-0.01814 -0.08939,-0.02603c-0.38912,-0.10418 -1.71964,0.19348 -2.02622,-0.03804c-0.15296,-0.11551 -0.24457,-0.9418 -0.27811,-1.18224c-0.13138,-0.94177 -0.1869,-1.91801 -0.50377,-2.81572c0,0 -0.12619,-0.36132 0.23513,-0.48752c0.36133,-0.1262 0.48752,0.23513 0.48752,0.23513c0.32932,0.95187 0.40029,1.96632 0.53924,2.96235c0.0312,0.22363 -0.19892,0.54106 -0.01872,0.67713c0.20291,0.15323 0.48155,-0.2296 0.73466,-0.20534c0.02753,0.00263 0.05512,0.00499 0.08275,0.00714c-0.11555,-0.06798 -0.37793,-0.27057 -0.21971,-0.6429c0.19958,-0.46967 0.66925,-0.27009 0.66925,-0.27009c0.6045,0.2616 0.907,0.75118 1.16449,1.28401c0.72277,0.35363 1.4862,0.91415 2.04395,1.33533c2.42479,1.83108 5.76082,3.19475 6.75011,6.17353c0.11899,0.3583 0.86574,-0.16809 1.05324,-0.25535c0.32477,-0.11155 0.64258,-0.25866 0.92417,-0.45521l0.65136,0.00664c0,0 0.37634,0.06971 0.30663,0.44603z" fill="#212121" stroke="none" stroke-width="0.5"/><path d="M229.34663,108.63893c-0.23065,0.30543 -0.53608,0.07478 -0.53608,0.07478l-0.18468,-0.16407c-1.6974,-2.47303 -4.1412,-4.51482 -6.53086,-6.31937c0,0 -0.30543,-0.23065 -0.07478,-0.53608c0.23065,-0.30543 0.53608,-0.07478 0.53608,-0.07478c2.45406,1.85318 4.95289,3.95839 6.70036,6.4966l0.01517,-0.01316c0,0 0.30543,0.23065 0.07478,0.53608z" fill="#212121" stroke="none" stroke-width="0.5"/><path d="M228.56926,98.6555c-0.23065,0.30543 -0.53608,0.07478 -0.53608,0.07478l0.10823,0.00118c-1.24804,-0.08189 -2.20759,0.28235 -3.03306,1.39026c0,0 -0.23065,0.30543 -0.53608,0.07478c-0.30543,-0.23065 -0.07478,-0.53608 -0.07478,-0.53608c0.99254,-1.29958 2.17076,-1.76959 3.68889,-1.6931l0.30808,0.1521c0,0 0.30543,0.23065 0.07478,0.53608z" fill="#0e1501" stroke="none" stroke-width="0.5"/><path d="M232.98668,102.59366c0.05288,0.37906 -0.32618,0.43195 -0.32618,0.43195l-0.45891,-0.04916c-1.22908,-0.95003 -3.3117,0.16572 -4.26803,1.08361c0,0 -0.27771,0.26336 -0.54107,-0.01436c-0.26336,-0.27772 0.01437,-0.54107 0.01437,-0.54107c1.27974,-1.20099 3.66433,-2.31918 5.25603,-1.13904l-0.10813,-0.09811c0,0 0.37906,-0.05288 0.43195,0.32618z" fill="#0e1501" stroke="none" stroke-width="0.5"/><path d="M234.82997,106.36461c-0.23065,0.30543 -0.53608,0.07478 -0.53608,0.07478l0.00849,-0.01819c-0.96119,-0.33979 -2.80921,-0.36827 -3.71516,0.09224c0,0 -0.34289,0.17003 -0.51292,-0.17285c-0.17003,-0.34289 0.17285,-0.51292 0.17285,-0.51292c1.11908,-0.5439 3.10407,-0.52042 4.29967,-0.13185l0.20836,0.13272c0,0 0.30543,0.23065 0.07478,0.53608z" fill="#0e1501" stroke="none" stroke-width="0.5"/><path d="M233.28678,110.27236c0.08736,-0.07518 0.26404,-0.17519 0.47713,-0.01427c0.30543,0.23065 0.07478,0.53608 0.07478,0.53608l-0.40338,0.25136c-0.8511,-0.05037 -1.45967,-0.00024 -2.24638,-0.36983c0,0 -0.34473,-0.16627 -0.17847,-0.51101c0.16626,-0.34473 0.51099,-0.17846 0.51099,-0.17846c0.60496,0.30145 1.1228,0.26299 1.76532,0.28613z" fill="#0e1501" stroke="none" stroke-width="0.5"/><path d="M233.4742,99.03901c0.05288,0.37906 -0.32618,0.43195 -0.32618,0.43195l-0.01145,-0.0392c-0.68928,0.46619 -1.46534,0.71905 -2.15773,1.19502c0,0 -0.3154,0.21682 -0.53221,-0.09858c-0.21682,-0.3154 0.09858,-0.53221 0.09858,-0.53221c0.69109,-0.47509 1.48314,-0.72146 2.15772,-1.19502l0.33933,-0.08814c0,0 0.37906,-0.05288 0.43195,0.32618z" fill="#0e1501" stroke="none" stroke-width="0.5"/><path d="M229.70092,99.16171c-0.05765,-0.09681 -0.09332,-0.24239 0.03376,-0.41069c0.23065,-0.30543 0.53608,-0.07478 0.53608,-0.07478l0.23197,0.50312c-0.04215,0.12508 -0.08431,0.25017 -0.12646,0.37524c0,0 -0.12222,0.36269 -0.48491,0.24047c-0.36269,-0.12222 -0.24048,-0.48492 -0.24048,-0.48492c0.01668,-0.04948 0.03334,-0.09896 0.05003,-0.14844z" fill="#0e1501" stroke="none" stroke-width="0.5"/><path d="M235.10538,108.46079c-0.12222,0.36269 -0.48491,0.24047 -0.48491,0.24047l-0.43177,-0.15071c-0.26081,-0.1953 -0.54518,-0.36435 -0.84583,-0.48994c0,0 -0.35225,-0.14968 -0.20257,-0.50192c0.14968,-0.35224 0.50194,-0.20257 0.50194,-0.20257c0.31886,0.13742 0.62777,0.30716 0.90395,0.51758l0.31872,0.10219c0,0 0.36269,0.12222 0.24047,0.48491z" fill="#0e1501" stroke="none" stroke-width="0.5"/><path d="M232.81898,119.85972c1.69584,1.84067 1.63933,4.67683 0.0801,6.74163c-0.09894,0.12929 -0.20395,0.2451 -0.31442,0.34952c-0.26817,0.20068 -0.56772,0.36882 -0.90053,0.49711c-0.7606,0.29319 -1.10295,0.66881 -1.84984,0.24089c0.03169,-0.04347 0.0641,-0.08433 0.09718,-0.12281l0.2457,-0.3105c0.06102,-0.01771 0.12205,-0.03518 0.18294,-0.05265c0.40046,-0.24392 0.86138,-0.32751 1.34414,-0.52606c0.21809,-0.13796 0.41599,-0.31058 0.58395,-0.53679c1.31012,-1.73491 1.42007,-4.06852 0.07449,-5.64295c-0.1179,-0.04552 -0.17655,-0.14783 -0.20455,-0.22202c-0.13923,-0.14034 -0.29132,-0.27343 -0.45652,-0.39817c0,0 -0.30543,-0.23065 -0.07478,-0.53608c0.01194,-0.0158 0.02407,-0.03018 0.03635,-0.04322l-0.72598,0.08907c0.24273,0.11691 1.11883,-0.20958 1.34662,-0.06125l0.05547,-0.04856c0.68144,0.51459 1.34672,1.11835 2.00912,1.6761c0.39162,2.04283 -0.03004,4.70046 -1.7638,5.99789c-0.61716,0.58347 -1.40409,0.81186 -2.24825,1.05341l-0.50211,-0.31543l0.09718,-0.12281c0.13272,-0.15436 0.2763,-0.27036 0.42865,-0.36315c0.47595,-0.13652 0.94403,-0.27295 1.34414,-0.52606c0.04904,-0.02016 0.09831,-0.04153 0.14774,-0.06435c1.83886,-0.84898 1.89328,-3.64939 1.83652,-5.27168c-0.40174,-0.2372 -0.74315,-0.53285 -1.0799,-0.83286c-0.01342,0.00299 -0.02746,0.00552 -0.04215,0.00757c-0.0824,0.01149 -0.1494,0.00258 -0.20377,-0.01841c-0.0648,-0.07581 -0.13297,-0.14988 -0.20455,-0.22202c-0.0185,-0.04901 -0.02363,-0.08574 -0.02363,-0.08574l0.07335,0.06056c-0.05174,-0.05821 -0.09748,-0.13042 -0.13214,-0.20882c-0.08776,-0.07326 -0.17709,-0.14497 -0.26888,-0.21429l-0.14367,-0.52919c0.22509,-0.23896 0.49972,-0.03156 0.49972,-0.03156c0.03384,0.02556 0.06722,0.05142 0.10014,0.07758l0.02079,-0.0182c0.18278,0.11903 0.35254,0.25435 0.49615,0.41592z" fill="#070707" stroke="none" stroke-width="0.5"/><path d="M206.06,130.11479c-0.20362,-0.15376 -0.04986,-0.35738 -0.04986,-0.35738l0.1,-0.13243c0.52601,-0.69656 0.33171,-1.22113 0.80271,-1.88905c0,0 0.15377,-0.20363 0.35738,-0.04986c0.20362,0.15376 0.04986,0.35738 0.04986,0.35738c-0.42263,0.50659 -0.31578,1.24425 -0.80271,1.88905l-0.1,0.13243c0,0 -0.15376,0.20362 -0.35738,0.04986z" fill="#0e1501" stroke="none" stroke-width="0.5"/><path d="M209.39472,132.33142c-0.25271,0.03526 -0.28796,-0.21746 -0.28796,-0.21746l-0.0306,-0.31414c0.10463,-0.56488 -0.00221,-1.10085 0.31757,-1.56666c0,0 0.15376,-0.20362 0.35738,-0.04986c0.20362,0.15376 0.04986,0.35738 0.04986,0.35738c-0.23639,0.26441 -0.14887,0.95167 -0.22303,1.35207l0.03425,0.15069c0,0 0.03526,0.25271 -0.21746,0.28796z" fill="#0e1501" stroke="none" stroke-width="0.5"/><path d="M207.78422,130.58508c-0.20362,-0.15376 -0.04986,-0.35738 -0.04986,-0.35738l0.1,-0.13243c0.31137,-0.41233 0.46317,-0.66475 0.92267,-0.90178c0,0 0.22859,-0.11336 0.34195,0.11523c0.11336,0.22859 -0.11523,0.34195 -0.11523,0.34195c-0.38252,0.17939 -0.48029,0.40536 -0.74215,0.75213l-0.1,0.13243c0,0 -0.15376,0.20362 -0.35738,0.04986z" fill="#0e1501" stroke="none" stroke-width="0.5"/><path d="M211.0596,133.68231c-0.20362,-0.15376 -0.04986,-0.35738 -0.04986,-0.35738l0.05273,-0.02512c0.09842,-0.50558 0.01255,-0.84764 0.1794,-1.36196c0,0 0.08148,-0.24179 0.32329,-0.16031c0.24179,0.08148 0.16031,0.32329 0.16031,0.32329c-0.16541,0.46873 -0.0757,0.81045 -0.16121,1.29193l-0.14727,0.23972c0,0 -0.15377,0.20363 -0.35738,0.04986z" fill="#0e1501" stroke="none" stroke-width="0.5"/></g><path d="M214.00907,111.27568c-1.10441,1.4625 -1.94993,-0.29565 -3.16408,-1.21252c-1.21415,-0.91687 0.37737,-3.61657 1.48178,-5.07907c1.10441,-1.4625 2.68007,-0.87903 3.89422,0.03784c1.21415,0.91687 -1.10751,4.79124 -2.21192,6.25374z" fill="#58ff00" stroke="#000000" stroke-width="0"/><path d="M213.87391,110.21553c-0.48689,1.48391 -1.97995,2.32646 -3.33481,1.88191c-1.35487,-0.44456 -2.0585,-2.00788 -1.5716,-3.49178c0.48689,-1.48391 2.58964,-3.4929 3.9445,-3.04833c0.46704,0.15324 0.20003,1.68225 0.48564,2.07698c0.54293,0.7504 0.79533,1.60884 0.47627,2.58124z" fill="#070707" stroke="#000000" stroke-width="1"/><path d="M211.33207,109.31425c-0.42197,0.55879 -1.1667,0.70771 -1.6634,0.33263c-0.4967,-0.37508 -0.55728,-1.13214 -0.13531,-1.69091c0.42197,-0.55879 1.16669,-0.70771 1.66339,-0.33263c0.4967,0.37508 0.55728,1.13214 0.13531,1.69092z" fill="#58ff00" stroke="none" stroke-width="0"/><path d="M215.03734,107.39968c-0.3154,0.21682 -0.53221,-0.09858 -0.53221,-0.09858l-0.18552,-0.27859c-0.49554,-0.36554 -0.74772,-0.60772 -1.37127,-0.63913c0,0 -0.38207,-0.02249 -0.35958,-0.40456c0.02249,-0.38208 0.40456,-0.35959 0.40456,-0.35959c0.82795,0.05434 1.23569,0.37909 1.87948,0.87419l0.26312,0.37403c0,0 0.21682,0.31541 -0.09858,0.53222z" fill="#58ff00" stroke="none" stroke-width="0.5"/><path d="M222.93153,96.72535c-0.06283,-0.09641 -0.10964,-0.24854 0.02429,-0.4259c0.23065,-0.30543 0.53608,-0.07478 0.53608,-0.07478l0.23197,0.50312c-0.14063,0.40417 -0.14455,0.79068 -0.27944,1.2012c0,0 -0.12222,0.36269 -0.48491,0.24047c-0.36269,-0.12222 -0.24047,-0.48491 -0.24047,-0.48491c0.11271,-0.32392 0.1376,-0.6365 0.21248,-0.95917z" fill="#0e1501" stroke="none" stroke-width="0.5"/><path d="M210.321,111.45549c0.02249,-0.38208 0.40456,-0.35959 0.40456,-0.35959l0.40912,0.02704c1.53509,0.30458 1.94998,-1.2399 1.94996,-2.4726c0,0 0.00125,-0.38273 0.38398,-0.38147c0.38273,0.00125 0.38148,0.38399 0.38148,0.38399c-0.01077,1.74523 -0.80057,3.5827 -2.85484,3.22274l-0.31469,-0.01556c0,0 -0.38208,-0.02248 -0.35959,-0.40456z" fill="#070707" stroke="none" stroke-width="0.5"/><path d="M202.14947,128.40936c-0.20362,-0.15376 -0.04986,-0.35738 -0.04986,-0.35738c0.43333,-0.57383 1.16665,-1.54492 1.59997,-2.11875c0,0 0.15376,-0.20362 0.35738,-0.04986c0.20362,0.15376 0.04986,0.35738 0.04986,0.35738c-0.43333,0.57383 -0.86665,1.14765 -1.29998,1.72148l-0.29999,0.39727c0,0 -0.15377,0.20362 -0.35738,0.04986z" fill="#0e1501" stroke="none" stroke-width="0.5"/></g><g text-anchor="start"><g><g><g fill="none" stroke="none" stroke-width="1" font-family="sans-serif" font-weight="normal" font-size="12"/><g fill="url(#color-7)" stroke="#000000" stroke-width="3.5" font-family="&quot;Helvetica Neue&quot;, Helvetica, Arial, sans-serif" font-weight="400" font-size="16"/><g fill="none" stroke="none" stroke-width="1" font-family="sans-serif" font-weight="normal" font-size="12"/></g><g><g fill="url(#color-8)" stroke="#000000" stroke-width="3.5" font-family="&quot;Helvetica Neue&quot;, Helvetica, Arial, sans-serif" font-weight="400" font-size="16"/><g fill="url(#color-9)" stroke="#e3efff" stroke-width="3.5" font-family="&quot;Helvetica Neue&quot;, Helvetica, Arial, sans-serif" font-weight="400" font-size="16"/><g fill="none" stroke="none" stroke-width="1" font-family="sans-serif" font-weight="normal" font-size="12"/></g></g><g data-paper-data="{&quot;index&quot;:null}"><g><g fill="url(#color-10)" stroke="#000000" stroke-width="3.5" font-family="&quot;Helvetica Neue&quot;, Helvetica, Arial, sans-serif" font-weight="400" font-size="16"/><g fill="url(#color-11)" stroke="#000000" stroke-width="3.5" font-family="&quot;Helvetica Neue&quot;, Helvetica, Arial, sans-serif" font-weight="400" font-size="16"/><g fill="none" stroke="none" stroke-width="1" font-family="sans-serif" font-weight="normal" font-size="12"/></g><g><g fill="url(#color-12)" stroke="#000000" stroke-width="3.5" font-family="&quot;Helvetica Neue&quot;, Helvetica, Arial, sans-serif" font-weight="400" font-size="16"/><g fill="none" stroke="none" stroke-width="1" font-family="sans-serif" font-weight="normal" font-size="12"/><g fill="none" stroke="none" stroke-width="1" font-family="sans-serif" font-weight="normal" font-size="12"/></g></g></g></g><g data-paper-data="{&quot;index&quot;:null}"><g stroke="#000000" stroke-width="2"><path d="M299.09108,95.73367c-3.34804,14.02942 -10.90302,24.24725 -16.87451,22.82218c-5.97149,-1.42506 -8.0982,-13.9534 -4.75017,-27.98279c3.34804,-14.02942 10.90301,-24.24724 16.87449,-22.82217c5.97149,1.42506 8.09822,13.95339 4.75018,27.98278z" fill="#9966ff" stroke-linecap="butt"/><path d="M299.49908,110.97967l-11.8558,15.61502l-2.77407,-10.30019l-13.19579,11.44584l-3.6633,-22.07702" fill="#58ff00" stroke-linecap="round"/><path d="M300.2355,78.40895c-0.70622,2.95931 -3.27789,4.88121 -5.74398,4.29269c-2.46609,-0.58852 -3.89273,-3.4646 -3.18651,-6.4239c0.70622,-2.95931 3.27788,-4.88121 5.74397,-4.29269c2.46609,0.58852 3.89274,3.4646 3.18652,6.42391z" fill="#58ff00" stroke-linecap="butt"/><path d="M287.31769,70.69245l1.71409,5.04279l-1.09235,3.85819l3.0297,3.12571l-0.73624,3.08508l4.83243,1.32486l-5.36942,5.24017l-8.14626,-8.29399l-2.03335,-0.82849" fill="#00e6ff" stroke-linecap="round"/><path d="M298.64128,80.77442l-2.7566,-7.86588" fill="none" stroke-linecap="round"/><path d="M284.21319,77.58865l6.82889,-1.28785l-5.22367,7.50601l6.91377,-0.92436l-2.37658,4.92468" fill="none" stroke-linecap="round"/></g><g stroke="#545454" stroke-width="1"><path d="M300.35901,149.77814c0,1.51048 -1.31275,2.38679 -2.6981,2.38679c-3.83673,0 -22.02678,0 -28.22642,0c-1.30226,0 -2.07547,-0.69029 -2.07547,-1.5566c0,-6.89786 0,-37.90592 0,-43.37737c0,-1.59381 0.85577,-3.00942 2.28303,-3.00942c6.38801,0 24.22407,0 28.01887,0c1.38535,0 2.6981,1.30652 2.6981,2.80189c0,5.1041 0,34.17051 0,42.75472z" fill="#a1a1a0" stroke-linecap="butt"/><path d="M292.26468,103.5989l3.73585,48.56604" fill="none" stroke-linecap="round"/><path d="M279.18921,104.63665l1.86792,47.94339" fill="none" stroke-linecap="round"/><path d="M272.75524,152.78758l-0.4151,-48.56604" fill="none" stroke-linecap="round"/></g><g fill="#c1c1c1" stroke="#545454" stroke-width="1"><path d="M303.04409,65.38847c0.05275,0.14285 -0.90563,0.59081 -1.94926,0.97607c-2.89035,1.06699 -16.59361,6.12564 -21.26403,7.84975c-0.98105,0.36216 -1.58765,0.51191 -1.61789,0.42997c-0.24083,-0.65237 -1.32341,-3.58496 -1.51443,-4.10241c-0.05564,-0.15073 0.53961,-0.52262 1.61482,-0.91953c4.81235,-1.7765 18.24892,-6.7367 21.10769,-7.79203c1.04364,-0.38526 2.0782,-0.62677 2.13041,-0.48535c0.1782,0.48272 1.193,3.23168 1.4927,4.04353z" stroke-linecap="butt"/><path d="M285.26195,71.11984l-2.81961,-7.40456l10.38687,-3.14495l2.95216,5.54589" stroke-linecap="round"/><path d="M286.46091,69.81546l-1.07543,-5.24766l6.55505,-1.3857l1.96109,4.14511" stroke-linecap="round"/></g></g></g></g></svg>