<svg version="1.1" xmlns="http://www.w3.org/2000/svg" xmlns:xlink="http://www.w3.org/1999/xlink" width="64.67853" height="60.81496" viewBox="0,0,64.67853,60.81496"><g transform="translate(-232.02543,-145.459)"><g data-paper-data="{&quot;isPaintingLayer&quot;:true}" fill-rule="nonzero" stroke-linecap="butt" stroke-linejoin="miter" stroke-miterlimit="10" stroke-dasharray="" stroke-dashoffset="0" style="mix-blend-mode: normal"><g><path d="M274.01296,154.95308c7.40621,0 13.81098,4.97322 16.86762,12.19765c-0.6134,-0.18683 -1.22517,-0.35434 -1.82893,-0.50352c-3.60613,-0.00772 -7.61741,0.61033 -11.05056,2.02338c0.37336,-0.96073 -0.44051,-1.77461 -0.44051,-1.77461l-0.11718,0.05614c-1.38911,-3.24125 -3.2525,-6.58468 -4.9142,-9.96557c-0.04605,-0.65155 -0.08666,-1.30324 -0.12055,-1.9551c0.52883,-0.0519 1.06391,-0.07838 1.60431,-0.07838z" fill="#d90d0d" stroke="#137a1b" stroke-width="1.5"/><path d="M277.28188,162.71408c0,-0.37854 0.30687,-0.68541 0.68541,-0.68541c0.37854,0 0.68541,0.30687 0.68541,0.68541c0,0.37854 -0.30687,0.68541 -0.68541,0.68541c-0.37854,0 -0.68541,-0.30687 -0.68541,-0.68541z" fill="#050303" stroke="none" stroke-width="0.5"/><path d="M281.39072,162.80749c0,-0.37854 0.30687,-0.68541 0.68541,-0.68541c0.37854,0 0.68541,0.30687 0.68541,0.68541c0,0.37854 -0.30687,0.68541 -0.68541,0.68541c-0.37854,0 -0.68541,-0.30687 -0.68541,-0.68541z" fill="#050303" stroke="none" stroke-width="0.5"/><path d="M279.45769,159.78106c0,-0.37854 0.30687,-0.68541 0.68541,-0.68541c0.37854,0 0.68541,0.30687 0.68541,0.68541c0,0.37854 -0.30687,0.68541 -0.68541,0.68541c-0.37854,0 -0.68541,-0.30687 -0.68541,-0.68541z" fill="#050303" stroke="none" stroke-width="0.5"/><path d="M276.49578,158.37937c0.37854,0 0.68541,0.30687 0.68541,0.68541c0,0.37854 -0.30687,0.68541 -0.68541,0.68541c-0.17601,0 -0.33654,-0.06635 -0.45791,-0.1754c-0.0746,-0.17131 -0.15046,-0.3429 -0.22749,-0.51476c0.00255,-0.37636 0.30843,-0.68067 0.6854,-0.68067z" fill="#050303" stroke="none" stroke-width="0.5"/><path d="M284.96659,163.96531c0,-0.37854 0.30687,-0.68541 0.68541,-0.68541c0.37854,0 0.68541,0.30687 0.68541,0.68541c0,0.37854 -0.30687,0.68541 -0.68541,0.68541c-0.37854,0 -0.68541,-0.30687 -0.68541,-0.68541z" fill="#050303" stroke="none" stroke-width="0.5"/></g><g data-paper-data="{&quot;index&quot;:null}"><path d="M242.10588,149.79693c0.32358,0.5669 0.64141,1.13727 0.95458,1.71048c0.42774,3.74282 0.66548,7.56306 1.24719,11.04112l-0.12894,0.01604c0,0 -0.24532,1.12455 0.58781,1.7314c-3.65249,0.6652 -7.36211,2.31175 -10.39276,4.26607c-0.42753,0.45166 -0.85191,0.92308 -1.2672,1.41164c-1.32985,-7.7309 1.37399,-15.37573 7.60684,-19.37615c0.45478,-0.2919 0.9194,-0.55864 1.39248,-0.8006z" fill="#d90d0d" stroke="#137a1b" stroke-width="1.5"/><path d="M241.94782,159.84172c-0.31856,0.20447 -0.74257,0.11197 -0.94704,-0.2066c-0.20447,-0.31856 -0.11197,-0.74257 0.2066,-0.94704c0.31856,-0.20447 0.74257,-0.11197 0.94704,0.2066c0.20447,0.31856 0.11197,0.74257 -0.2066,0.94704z" fill="#050303" stroke="none" stroke-width="0.5"/><path d="M238.54037,162.1397c-0.31856,0.20447 -0.74257,0.11197 -0.94704,-0.2066c-0.20447,-0.31856 -0.11197,-0.74257 0.2066,-0.94704c0.31856,-0.20447 0.74257,-0.11197 0.94704,0.2066c0.20447,0.31856 0.11197,0.74257 -0.2066,0.94704z" fill="#050303" stroke="none" stroke-width="0.5"/><path d="M238.53246,158.54861c-0.31856,0.20447 -0.74257,0.11197 -0.94704,-0.2066c-0.20447,-0.31856 -0.11197,-0.74257 0.2066,-0.94704c0.31856,-0.20447 0.74257,-0.11197 0.94704,0.2066c0.20447,0.31856 0.11197,0.74257 -0.2066,0.94704z" fill="#050303" stroke="none" stroke-width="0.5"/><path d="M241.41908,155.02473c0.02801,0.18624 0.05683,0.37162 0.08659,0.55607c-0.04325,0.15733 -0.1425,0.29987 -0.29063,0.39495c-0.31856,0.20447 -0.74257,0.11197 -0.94704,-0.2066c-0.20447,-0.31856 -0.11197,-0.74257 0.2066,-0.94704c0.31724,-0.20361 0.73904,-0.11274 0.94447,0.20262z" fill="#050303" stroke="none" stroke-width="0.5"/><path d="M236.15642,165.04557c-0.31856,0.20447 -0.74257,0.11197 -0.94704,-0.2066c-0.20447,-0.31856 -0.11197,-0.74257 0.2066,-0.94704c0.31856,-0.20447 0.74257,-0.11197 0.94704,0.2066c0.20447,0.31856 0.11197,0.74257 -0.2066,0.94704z" fill="#050303" stroke="none" stroke-width="0.5"/></g><g data-paper-data="{&quot;index&quot;:null}"><path d="M233.25744,182.42019c0.65189,0.03331 1.30362,0.07333 1.95521,0.11878c3.3824,1.65862 6.7275,3.51899 9.97001,4.90515l-0.05604,0.11723c0,0 0.81462,0.81314 1.77499,0.43891c-1.40993,3.43442 -2.02434,7.44627 -2.01335,11.05239c0.14973,0.60363 0.3178,1.21525 0.50517,1.82848c-7.22718,-3.05009 -12.20622,-9.45035 -12.21294,-16.85656c-0.00049,-0.5404 0.0255,-1.0755 0.07692,-1.60438z" fill="#d90d0d" stroke="#137a1b" stroke-width="1.5"/><path d="M241.63053,187.97125c0.00034,0.37854 -0.30625,0.68568 -0.68479,0.68603c-0.37854,0.00034 -0.68568,-0.30625 -0.68603,-0.68479c-0.00034,-0.37854 0.30625,-0.68568 0.68479,-0.68603c0.37854,-0.00034 0.68568,0.30625 0.68603,0.68479z" fill="#050303" stroke="none" stroke-width="0.5"/><path d="M241.72767,192.08001c0.00034,0.37854 -0.30625,0.68568 -0.68479,0.68603c-0.37854,0.00034 -0.68568,-0.30625 -0.68603,-0.68479c-0.00034,-0.37854 0.30625,-0.68568 0.68479,-0.68603c0.37854,-0.00034 0.6857,0.30625 0.68604,0.68478z" fill="#050303" stroke="none" stroke-width="0.5"/><path d="M238.69949,190.14973c0.00034,0.37854 -0.30625,0.68568 -0.68479,0.68603c-0.37854,0.00034 -0.68568,-0.30625 -0.68603,-0.68479c-0.00034,-0.37854 0.30625,-0.68568 0.68479,-0.68603c0.37854,-0.00034 0.68568,0.30625 0.68603,0.68479z" fill="#050303" stroke="none" stroke-width="0.5"/><path d="M237.28913,185.81829c0.17193,0.07688 0.34357,0.15259 0.51496,0.22702c0.10916,0.12128 0.17566,0.28173 0.17581,0.45776c0.00034,0.37854 -0.30625,0.68568 -0.68479,0.68603c-0.37854,0.00034 -0.68568,-0.30625 -0.68603,-0.68479c-0.00034,-0.37696 0.30369,-0.68312 0.68005,-0.68601z" fill="#050303" stroke="none" stroke-width="0.5"/><path d="M242.88872,195.65483c0.00034,0.37854 -0.30624,0.68568 -0.68478,0.68603c-0.37854,0.00034 -0.68568,-0.30625 -0.68603,-0.68479c-0.00034,-0.37854 0.30625,-0.68568 0.68479,-0.68603c0.37854,-0.00034 0.68568,0.30625 0.68603,0.68479z" fill="#050303" stroke="none" stroke-width="0.5"/></g><g data-paper-data="{&quot;index&quot;:null}"><path d="M277.92654,200.7557c-0.01317,-0.65262 -0.01963,-1.30553 -0.02064,-1.95871c0.19941,-0.49252 -1.14455,-1.73562 -1.09755,-2.27224c0.14033,-1.60201 1.27149,-2.61067 1.87421,-4.05515c0.62675,-1.50205 2.90223,-2.50701 3.40662,-3.96638l0.12092,0.04755c0,0 0.75313,-0.87042 0.31151,-1.80174c1.54763,0.51 2.23427,-0.58231 3.90009,-0.3736c2.12953,0.2668 5.24976,1.74552 7.26754,1.5954c0.59144,-0.1923 1.18956,-0.40346 1.78789,-0.634c-2.52809,7.4259 -8.55784,12.84773 -15.9448,13.38144c-0.53901,0.03894 -1.07459,0.05109 -1.60579,0.03744z" fill="#d90d0d" stroke="#137a1b" stroke-width="1.5"/><path d="M283.10798,190.80757c0.37755,-0.02728 0.70574,0.25669 0.73302,0.63424c0.02728,0.37755 -0.25669,0.70574 -0.63424,0.73302c-0.37755,0.02728 -0.70574,-0.25669 -0.73302,-0.63424c-0.02728,-0.37755 0.25669,-0.70574 0.63424,-0.73302z" fill="#050303" stroke="none" stroke-width="0.5"/><path d="M287.19942,190.41831c0.37755,-0.02728 0.70574,0.25669 0.73302,0.63424c0.02728,0.37755 -0.25669,0.70574 -0.63424,0.73302c-0.37755,0.02728 -0.70574,-0.25669 -0.73302,-0.63424c-0.02728,-0.37755 0.25669,-0.70575 0.63424,-0.73303z" fill="#050303" stroke="none" stroke-width="0.5"/><path d="M285.4895,193.57617c0.37755,-0.02728 0.70574,0.25669 0.73302,0.63424c0.02728,0.37755 -0.25669,0.70574 -0.63424,0.73302c-0.37755,0.02728 -0.70574,-0.25669 -0.73302,-0.63424c-0.02728,-0.37755 0.25669,-0.70574 0.63424,-0.73302z" fill="#050303" stroke="none" stroke-width="0.5"/><path d="M281.2694,195.29116c0.06444,-0.17696 0.12775,-0.35356 0.18979,-0.52981c0.1132,-0.11751 0.26853,-0.19526 0.44409,-0.20794c0.37755,-0.02728 0.70574,0.25669 0.73302,0.63424c0.02728,0.37755 -0.25669,0.70574 -0.63424,0.73302c-0.37599,0.02717 -0.703,-0.25431 -0.73266,-0.62951z" fill="#050303" stroke="none" stroke-width="0.5"/><path d="M290.68255,189.00583c0.37755,-0.02728 0.70574,0.25667 0.73302,0.63422c0.02728,0.37755 -0.25669,0.70574 -0.63424,0.73302c-0.37755,0.02728 -0.70574,-0.25669 -0.73302,-0.63424c-0.02728,-0.37755 0.25669,-0.70574 0.63424,-0.73302z" fill="#050303" stroke="none" stroke-width="0.5"/></g><g data-paper-data="{&quot;index&quot;:null}"><path d="M273.52971,152.46326c-0.48909,0.43229 -0.98275,0.85964 -1.48014,1.28302c-0.50456,0.16661 -0.58287,1.99567 -1.02245,2.30701c-1.3123,0.9295 -2.81326,0.7196 -4.30463,1.1946c-1.55081,0.49393 -3.7893,-0.59089 -5.22842,-0.03127l-0.04197,-0.12296c0,0 -1.15095,-0.01109 -1.57535,0.9282c-0.61244,-1.51003 -1.88958,-1.32686 -2.80822,-2.73207c-1.17437,-1.79638 -2.06563,-5.13224 -3.48561,-6.57366c-0.52929,-0.32654 -1.07727,-0.64599 -1.64019,-0.95305c7.29785,-2.8769 15.3332,-1.78719 20.51949,3.5c0.37843,0.38579 0.73421,0.78632 1.06748,1.20018z" fill="#d90d0d" stroke="#137a1b" stroke-width="1.5"/><path d="M262.59196,154.9489c-0.26508,-0.27023 -0.26089,-0.7042 0.00934,-0.96928c0.27023,-0.26508 0.7042,-0.26088 0.96928,0.00935c0.26508,0.27023 0.26089,0.70419 -0.00934,0.96927c-0.27023,0.26508 -0.7042,0.26089 -0.96928,-0.00934z" fill="#050303" stroke="none" stroke-width="0.5"/><path d="M259.64801,152.08106c-0.26508,-0.27023 -0.26089,-0.7042 0.00934,-0.96928c0.27023,-0.26508 0.7042,-0.26089 0.96928,0.00934c0.26508,0.27023 0.26088,0.70419 -0.00935,0.96927c-0.27023,0.26508 -0.70419,0.26089 -0.96927,-0.00934z" fill="#050303" stroke="none" stroke-width="0.5"/><path d="M263.16216,151.34173c-0.26508,-0.27023 -0.26089,-0.7042 0.00934,-0.96928c0.27023,-0.26508 0.70419,-0.26089 0.96927,0.00934c0.26508,0.27023 0.26089,0.70419 -0.00934,0.96927c-0.27023,0.26508 -0.70419,0.26089 -0.96927,-0.00934z" fill="#050303" stroke="none" stroke-width="0.5"/><path d="M267.20023,153.44992c-0.17663,0.06536 -0.35225,0.13135 -0.52678,0.19807c-0.16285,-0.01029 -0.32262,-0.07842 -0.44587,-0.20407c-0.26508,-0.27023 -0.26089,-0.70419 0.00934,-0.96927c0.27023,-0.26508 0.7042,-0.26088 0.96928,0.00935c0.26397,0.26911 0.26094,0.70057 -0.00596,0.96593z" fill="#050303" stroke="none" stroke-width="0.5"/><path d="M256.31743,150.33908c-0.26508,-0.27023 -0.26091,-0.70419 0.00932,-0.96927c0.27023,-0.26508 0.7042,-0.26089 0.96928,0.00934c0.26508,0.27023 0.26088,0.70419 -0.00935,0.96927c-0.27023,0.26508 -0.70419,0.26089 -0.96927,-0.00934z" fill="#050303" stroke="none" stroke-width="0.5"/></g><g data-paper-data="{&quot;index&quot;:null}"><path d="M254.21862,199.26969c0.48909,-0.43229 0.98275,-0.85964 1.48014,-1.28303c0.50456,-0.16661 0.58287,-1.99567 1.02245,-2.30701c1.3123,-0.9295 2.81326,-0.7196 4.30462,-1.19459c1.55081,-0.49393 3.7893,0.59089 5.22842,0.03127l0.04197,0.12296c0,0 1.15095,0.01109 1.57535,-0.9282c0.61244,1.51003 1.88958,1.32686 2.80822,2.73207c1.17437,1.79638 2.06563,5.13225 3.48561,6.57366c0.52927,0.32654 1.07727,0.64599 1.64019,0.95305c-7.29785,2.8769 -15.33321,1.78718 -20.51949,-3.5c-0.37841,-0.38579 -0.73421,-0.7863 -1.06748,-1.20018z" fill="#d90d0d" stroke="#137a1b" stroke-width="1.5"/><path d="M265.15638,196.78406c0.26508,0.27023 0.26089,0.7042 -0.00934,0.96928c-0.27023,0.26508 -0.7042,0.26088 -0.96928,-0.00934c-0.26508,-0.27023 -0.26089,-0.7042 0.00934,-0.96928c0.27023,-0.26508 0.7042,-0.26089 0.96928,0.00934z" fill="#050303" stroke="none" stroke-width="0.5"/><path d="M268.10032,199.65189c0.26508,0.27023 0.26089,0.7042 -0.00934,0.96928c-0.27023,0.26508 -0.7042,0.26089 -0.96928,-0.00934c-0.26508,-0.27023 -0.26089,-0.70419 0.00934,-0.96927c0.27023,-0.26508 0.7042,-0.26089 0.96928,0.00934z" fill="#050303" stroke="none" stroke-width="0.5"/><path d="M264.58617,200.39123c0.26508,0.27023 0.26089,0.7042 -0.00934,0.96928c-0.27023,0.26508 -0.70419,0.26088 -0.96927,-0.00934c-0.26508,-0.27023 -0.26089,-0.70419 0.00934,-0.96927c0.27023,-0.26508 0.7042,-0.26091 0.96928,0.00932z" fill="#050303" stroke="none" stroke-width="0.5"/><path d="M260.54811,198.28305c0.17663,-0.06535 0.35225,-0.13135 0.52678,-0.19807c0.16284,0.01029 0.32262,0.07841 0.44587,0.20407c0.26508,0.27023 0.26089,0.7042 -0.00934,0.96928c-0.27023,0.26508 -0.7042,0.26088 -0.96928,-0.00934c-0.26398,-0.26911 -0.26094,-0.70056 0.00596,-0.96593z" fill="#050303" stroke="none" stroke-width="0.5"/><path d="M271.43091,201.39388c0.26508,0.27023 0.26091,0.70419 -0.00932,0.96927c-0.27023,0.26508 -0.7042,0.26089 -0.96928,-0.00934c-0.26508,-0.27023 -0.26089,-0.70419 0.00934,-0.96927c0.27023,-0.26508 0.70418,-0.26089 0.96927,0.00934z" fill="#050303" stroke="none" stroke-width="0.5"/></g></g></g></svg>