<svg version="1.1" xmlns="http://www.w3.org/2000/svg" xmlns:xlink="http://www.w3.org/1999/xlink" width="149.20133" height="118.12847" viewBox="0,0,149.20133,118.12847"><defs><radialGradient cx="241.86308" cy="187.4" r="25.75" gradientUnits="userSpaceOnUse" id="color-1"><stop offset="0" stop-color="#dfeff7"/><stop offset="1" stop-color="#7deded"/></radialGradient><radialGradient cx="207.78689" cy="180.96589" r="15.82168" gradientUnits="userSpaceOnUse" id="color-2"><stop offset="0" stop-color="#dfeff7"/><stop offset="1" stop-color="#7deded"/></radialGradient><radialGradient cx="263.25" cy="180.33334" r="6.83333" gradientUnits="userSpaceOnUse" id="color-3"><stop offset="0" stop-color="#ffffff"/><stop offset="1" stop-color="#99eded"/></radialGradient><radialGradient cx="262.41667" cy="193.66667" r="6.66667" gradientUnits="userSpaceOnUse" id="color-4"><stop offset="0" stop-color="#ffffff"/><stop offset="1" stop-color="#99eded"/></radialGradient><radialGradient cx="274.56667" cy="170.2" r="21.75" gradientUnits="userSpaceOnUse" id="color-5"><stop offset="0" stop-color="#dfeff7"/><stop offset="1" stop-color="#7deded"/></radialGradient></defs><g transform="translate(-167.99378,-123.54205)"><g data-paper-data="{&quot;isPaintingLayer&quot;:true}" fill-rule="nonzero" stroke-linejoin="miter" stroke-miterlimit="10" stroke-dasharray="" stroke-dashoffset="0" style="mix-blend-mode: normal"><g stroke="none" stroke-width="0.5" stroke-linecap="butt"><path d="M179.58814,175.05556c-1.89326,-0.49597 -1.89326,-2.38166 -1.89326,-2.38166c0.00852,-1.21631 -0.1692,-2.44432 0.02557,-3.64893c0.18971,-1.17324 0.35913,-2.43352 1.11742,-3.42001c1.18237,-1.5382 2.40664,-3.69607 4.52607,-3.92183c5.05391,-0.53833 11.57666,9.02784 16.7942,5.00123c6.89927,-5.32447 12.96681,-11.54037 19.8429,-16.94758c0.92093,-0.7242 5.91681,-4.82322 6.99861,-4.88798c4.63608,-0.27757 6.31415,2.50389 8.6342,4.94964c0.60418,1.1178 1.29052,2.20506 1.81256,3.35341c0.23695,0.52123 -0.09536,1.33797 0.45458,1.6336c0.96243,0.51738 6.10035,-0.66553 6.35757,-0.6965c5.26157,-0.63355 10.46913,-0.51111 15.75981,-0.50053c3.37697,0.00675 6.91748,-0.44422 10.07524,0.98245c6.63826,2.99915 8.91815,10.2736 11.18647,15.85429c0.91335,2.24709 2.24305,4.38278 2.85768,6.70461c0.12762,0.4821 -0.54921,1.2821 -0.02704,1.48356c6.00576,2.31701 14.97533,-3.97978 17.36645,4.72271c0.43611,1.58722 -0.56444,3.22613 -0.84665,4.83919c-3.30712,9.93297 -11.81378,18.11907 -17.02511,27.40357c-1.81831,3.2395 -3.19397,9.41625 -7.81353,10.69689c-1.38142,0.38296 -2.78125,-0.77072 -4.22299,-0.90936c-4.70949,-0.45287 -9.59646,0.48454 -13.87137,2.16549c-0.34548,0.13585 -3.44662,1.43564 -3.81763,2.33881c-0.61453,1.49596 0.12436,5.58965 -1.04027,6.56623c-2.60363,2.18325 -6.34913,0.82776 -9.04072,0.22141c-7.05568,-2.25236 -13.95802,-5.15512 -20.19176,-8.84333c-1.47272,-0.87134 -2.91927,-1.78276 -4.27708,-2.78407c-0.30257,-0.22313 -0.27356,-0.93152 -0.66203,-0.85828c-0.39512,0.07449 -0.02744,0.73144 -0.24097,1.02852c-0.74217,1.03261 -1.78542,1.88275 -2.57462,2.88892c-3.54226,4.51609 -7.53527,12.75733 -15.82045,10.95318c-7.58609,-1.65191 -3.53395,-9.2344 -6.67887,-12.96293c-2.49178,-2.95419 -9.94739,-2.09961 -13.18501,-2.10021c-1.39135,0.11028 -7.7783,0.63574 -8.06121,0.53138c-3.97556,-1.46663 -3.79218,-4.55758 -3.99672,-7.43464c-0.45213,-6.35982 0.45585,-12.1752 1.97176,-18.35817c0.26583,-1.08426 0.19679,-2.24891 0.69379,-3.27051c1.02096,-2.09862 4.77056,-5.7377 6.25712,-7.30159c0.64906,-0.68283 2.62885,-1.75037 1.73855,-2.18441c-2.40905,-1.17448 -6.2102,-0.14946 -6.78467,-4.08712c-0.52843,-3.62208 3.69363,-5.50574 7.60135,-6.81942z" fill-opacity="0.65323" fill="#f3efef"/><g fill-opacity="0.48866" fill="#f3efef"><path d="M219.34699,139.08081c-1.27958,-1.30495 -0.0972,-2.88917 -0.0972,-2.88917c0.76982,-1.01785 1.3905,-2.13293 2.30947,-3.05357c0.89502,-0.89667 1.82759,-1.87597 3.08321,-2.34897c1.95783,-0.73754 4.33943,-1.97603 6.26157,-1.1713c4.58347,1.91891 4.06516,13.01603 10.97336,12.08112c9.13485,-1.23625 18.12989,-3.61165 27.29715,-4.92829c1.22778,-0.17634 7.99516,-1.27608 8.94462,-0.82294c4.06893,1.94194 3.73469,5.06604 4.15027,8.20929c-0.1933,1.22257 -0.29844,2.45801 -0.5799,3.6677c-0.12775,0.54907 -0.91906,1.07932 -0.6424,1.58571c0.48415,0.88622 5.54237,2.30301 5.77789,2.39767c4.81763,1.93634 9.11587,4.48248 13.55409,6.97364c2.83285,1.59007 6.09009,2.87233 7.84845,5.55245c3.69643,5.63418 1.05054,12.81532 -0.54302,18.56804c-0.64165,2.31636 -0.86367,4.73448 -1.80317,6.97348c-0.19507,0.4649 -1.26533,0.81945 -0.95295,1.23369c3.59277,4.76434 15.07661,3.68256 11.62875,12.11561c-0.62884,1.53808 -2.49707,2.44554 -3.7456,3.66831c-9.00665,6.79333 -21.28622,9.67957 -31.48603,15.03469c-3.55886,1.86848 -8.58758,6.41231 -13.27159,5.32082c-1.40069,-0.32639 -1.85334,-1.9524 -2.97766,-2.74531c-3.67261,-2.59005 -8.36607,-4.09536 -13.01154,-4.68884c-0.37544,-0.04796 -3.79578,-0.41096 -4.6738,0.17375c-1.45428,0.96848 -3.4004,4.75437 -4.99117,5.0284c-3.55634,0.61264 -5.85309,-2.28344 -7.73418,-4.05569c-4.51538,-5.20263 -8.49411,-10.87973 -11.41863,-16.90303c-0.69092,-1.423 -1.33471,-2.8674 -1.84759,-4.34568c-0.11429,-0.32942 0.35427,-0.91094 -0.01803,-1.03168c-0.37866,-0.1228 -0.48169,0.60162 -0.84735,0.75103c-1.27098,0.51931 -2.68051,0.74407 -3.97444,1.21911c-5.80766,2.13214 -14.32977,7.1824 -20.15913,1.77947c-5.33747,-4.94703 2.82125,-9.41611 2.51702,-14.02407c-0.24105,-3.65098 -7.04056,-6.43102 -9.76019,-7.95055c-1.23806,-0.56014 -6.93339,-3.1153 -7.10562,-3.33571c-2.42035,-3.0974 -0.32819,-5.60815 1.30397,-8.12121c3.60794,-5.55518 8.01716,-10.01484 13.16761,-14.49809c0.9032,-0.78619 1.57546,-1.79704 2.63358,-2.42213c2.17364,-1.2841 7.60557,-2.58216 9.83507,-3.19857c0.97345,-0.26914 3.30609,-0.23713 2.83029,-1.01949c-1.28748,-2.11698 -5.12363,-3.03924 -3.13724,-6.61691c1.82719,-3.29093 6.55537,-2.89256 10.66206,-2.1628z"/><path d="M275.68431,137.44458c0.74856,-1.58391 2.91888,-1.4069 2.91888,-1.4069c1.3991,0.12152 2.82916,0.08373 4.1973,0.36455c1.33252,0.2735 2.76712,0.53771 3.83133,1.28335c1.65938,1.16265 4.02806,2.41955 4.08893,4.26599c0.14518,4.40295 -11.47721,9.12236 -7.33259,13.99367c5.48052,6.44145 12.06509,12.25029 17.64302,18.67953c0.74706,0.86108 4.99583,5.5483 4.96882,6.48602c-0.11572,4.01863 -3.47454,5.20271 -6.50723,6.97115c-1.34324,0.4154 -2.65903,0.9044 -4.02972,1.2462c-0.62215,0.15514 -1.53096,-0.20772 -1.92285,0.23814c-0.68582,0.78028 0.19335,5.31608 0.20485,5.54051c0.23528,4.59072 -0.39448,9.06397 -0.90329,13.61932c-0.32477,2.90761 -0.13808,5.99902 -2.0765,8.58455c-4.07497,5.43533 -12.66145,6.71591 -19.29742,8.14553c-2.672,0.57564 -5.25487,1.52031 -7.98486,1.83167c-0.56684,0.06465 -1.42406,-0.59333 -1.70495,-0.16255c-3.2305,4.95466 3.17476,13.27031 -7.06575,14.51264c-1.86773,0.22658 -3.6601,-0.78892 -5.49015,-1.18338c-11.12183,-3.78049 -19.74504,-11.87484 -29.94175,-17.23436c-3.55779,-1.87001 -10.53773,-3.63454 -11.57804,-7.73311c-0.31109,-1.22562 1.14813,-2.32286 1.44303,-3.55147c0.9633,-4.01329 0.34313,-8.30995 -1.19026,-12.14928c-0.12393,-0.31028 -1.32879,-3.10299 -2.33347,-3.50729c-1.66408,-0.66965 -6.44505,-0.41761 -7.45971,-1.51225c-2.26839,-2.44719 -0.35671,-5.54556 0.59383,-7.80663c3.25464,-5.86491 7.24347,-11.53672 12.07354,-16.55899c1.14111,-1.18651 2.32588,-2.34672 3.60579,-3.42207c0.28521,-0.23963 1.0978,-0.14814 1.04998,-0.48958c-0.04865,-0.34727 -0.83927,-0.0923 -1.16114,-0.30407c-1.11881,-0.73608 -1.99933,-1.71433 -3.0833,-2.48844c-4.86524,-3.47451 -13.9756,-7.68689 -11.1214,-14.65272c2.61336,-6.37805 10.95997,-2.1766 15.54651,-4.535c3.63401,-1.8686 3.35029,-8.36959 3.6549,-11.15776c0.00368,-1.20858 -0.00155,-6.75834 0.14512,-6.99218c2.06119,-3.28607 5.60148,-2.83801 8.932,-2.74408c7.36222,0.20762 13.97015,1.53546 20.94409,3.42135c1.22296,0.33071 2.56989,0.38059 3.69903,0.9045c2.31956,1.07625 6.15594,4.64699 7.81635,6.07402c0.72497,0.62307 1.7678,2.42826 2.35093,1.70229c1.57789,-1.96442 0.75497,-5.33417 5.34092,-5.45928c4.2184,-0.11508 5.99006,3.69777 7.13522,7.1864z"/></g></g><g><path d="M267.51308,187.6608c0,13.25484 -11.52867,24 -25.75,24c-14.22133,0 -25.75,-10.74516 -25.75,-24c0,-13.25484 11.52867,-24 25.75,-24c14.22133,0 25.75,10.74516 25.75,24z" fill="url(#color-1)" stroke="#0afb89" stroke-width="2.5" stroke-linecap="butt"/><path d="M226.98389,178.08388c-0.88388,0.88388 -1.76777,0 -1.76777,0l-0.29699,-0.3078c-0.47265,-0.47402 -1.18506,-0.79448 -1.41795,-1.42206c-0.011,-0.02964 1.24725,-1.71421 0.19882,-0.30403c0,0 -1.25,0 -1.25,-1.25c0,-1.25 1.25,-1.25 1.25,-1.25c0.80468,0.17304 1.81828,-0.04879 2.41405,0.51911c0.43255,0.41231 -0.20465,1.5801 0.36682,1.7548l0.50301,0.4922c0,0 0.88388,0.88388 0,1.76777z" fill="#dfeff7" stroke="none" stroke-width="0.5" stroke-linecap="butt"/><path d="M223.50001,187.25c-1.25,0 -1.25,-1.25 -1.25,-1.25l0.27391,-0.01913c-0.27476,-0.49194 -1.05369,-0.40014 -1.58614,-0.5845c-1.39764,-0.48394 -1.77666,-1.19029 -2.61386,-2.2155c0,0 -0.78087,-0.97609 0.19522,-1.75695c0.97609,-0.78087 1.75695,0.19522 1.75695,0.19522c1.36609,1.75601 2.67252,1.13499 4.2,2.8l0.27391,1.58087c0,0 0,1.25 -1.25,1.25z" fill="#dfeff7" stroke="none" stroke-width="0.5" stroke-linecap="butt"/><path d="M225.92574,193.55485c0.24515,1.22573 -0.98058,1.47087 -0.98058,1.47087l-1.80416,0.09231c-0.5681,-0.35362 -1.32574,-0.50907 -1.7043,-1.06087c-0.28606,-0.41697 0.04008,-1.0207 -0.06332,-1.51568c-0.10062,-0.48167 -0.98217,-0.12066 -1.47337,-0.09149c0,0 -1.25,0 -1.25,-1.25c0,-1.25 1.25,-1.25 1.25,-1.25c1.75158,0.06129 2.6173,-0.32229 3.72663,1.50851c0.26906,0.44405 0.12327,1.32164 0.63239,1.42345l0.19584,-0.30769c0,0 1.22573,-0.24515 1.47087,0.98058z" fill="#dfeff7" stroke="none" stroke-width="0.5" stroke-linecap="butt"/><path d="M233.70001,175.85c-1.25,0 -1.25,-1.25 -1.25,-1.25v-0.4c0.15581,-1.08426 -1.55283,-1.62466 -1.94882,-2.64597c-0.29094,-0.75038 1.21914,-1.34595 0.00353,-0.76817c0,0 -1.18585,-0.39528 -0.79057,-1.58114c0.39528,-1.18585 1.58114,-0.79057 1.58114,-0.79057c0.64092,0.34228 1.52277,0.42025 1.92275,1.02684c0.26438,0.40095 -0.39788,0.93121 -0.31922,1.40499c0.13049,0.78588 1.59336,0.68951 1.92781,1.41254c0.27224,0.58855 0.08225,1.29432 0.12337,1.94149v0.4c0,0 0,1.25 -1.25,1.25z" fill="#dfeff7" stroke="none" stroke-width="0.5" stroke-linecap="butt"/><path d="M232.30001,195.95c1.25,0 1.25,1.25 1.25,1.25l-0.0062,1.32438c-0.25478,0.97494 0.00111,2.26944 -0.76433,2.92482c-0.46356,0.39691 -3.14508,-0.45413 -3.72369,-0.8808c-0.06718,-0.04954 -0.09258,-0.21107 -0.10083,-0.34411c-0.06849,1.9678 -1.65508,1.80755 -3.45494,1.82571c0,0 -1.25,0 -1.25,-1.25c0,-1.25 1.25,-1.25 1.25,-1.25c0.54697,0.00736 1.3663,0.5225 1.64031,0.04907c0.28998,-0.50103 -0.01779,-1.40862 0.50253,-1.66238c2.27991,-1.11191 4.24205,2.78448 3.41337,0.33893l-0.0062,-1.07562c0,0 0,-1.25 1.25,-1.25z" fill="#dfeff7" stroke="none" stroke-width="0.5" stroke-linecap="butt"/><path d="M219.14944,187.86619l-9.60243,-4.78265l-1.6796,10.52358l-5.71674,-7.4076l-16.184,-18.59952l15.05676,7.48812l3.30121,-5.63622l8.21278,1.20776l-2.25449,6.84398l7.32708,1.77139" fill="url(#color-2)" stroke="#0afb89" stroke-width="2.5" stroke-linecap="round"/><path d="M266.08333,179.75c0,2.62336 -3.05939,4.75 -6.83333,4.75c-3.77395,0 -6.83334,-2.12664 -6.83334,-4.75c0,-2.62336 3.05939,-4.75 6.83334,-4.75c3.77395,0 6.83333,2.12664 6.83333,4.75z" fill="url(#color-3)" stroke="#0afb89" stroke-width="1.5" stroke-linecap="butt"/><path d="M266.75,193.75c0,2.16312 -2.98477,3.91667 -6.66667,3.91667c-3.6819,0 -6.66667,-1.75356 -6.66667,-3.91667c0,-2.16312 2.98477,-3.91666 6.66667,-3.91666c3.6819,0 6.66667,1.75355 6.66667,3.91666z" fill="url(#color-4)" stroke="#0afb89" stroke-width="1.5" stroke-linecap="butt"/><g stroke-linecap="butt"><path d="M289.38387,188.3556c0,12.01219 -6.26801,21.75 -14,21.75c-7.73199,0 -14,-9.73781 -14,-21.75c0,-12.01219 6.26801,-21.75 14,-21.75c7.73199,0 14,9.73781 14,21.75z" fill="url(#color-5)" stroke="#0afb89" stroke-width="2.5"/><path d="M286.38387,188.68893c0,8.42234 -3.69365,15.25 -8.25,15.25c-4.55635,0 -8.25,-6.82766 -8.25,-15.25c0,-8.42234 3.69365,-15.25 8.25,-15.25c4.55635,0 8.25,6.82766 8.25,15.25z" fill="#c4e1f5" stroke="none" stroke-width="0"/></g></g></g></g></svg>