<svg version="1.1" xmlns="http://www.w3.org/2000/svg" xmlns:xlink="http://www.w3.org/1999/xlink" width="715.53602" height="427" viewBox="0,0,715.53602,427"><defs><radialGradient cx="298.73199" cy="192.31439" r="357.76801" gradientUnits="userSpaceOnUse" id="color-1"><stop offset="0" stop-color="#08ae26"/><stop offset="1" stop-color="#05ff0e"/></radialGradient></defs><g transform="translate(59.03603,21.18561)"><g data-paper-data="{&quot;isPaintingLayer&quot;:true}" fill-rule="nonzero" stroke-linejoin="miter" stroke-miterlimit="10" stroke-dasharray="" stroke-dashoffset="0" style="mix-blend-mode: normal"><path d="M-34.49999,405.81439c0,0 -23.80532,-40.05708 -24.52677,-91.99268c-0.53655,-38.62458 22.4202,-82.92527 20.41331,-126.95657c-2.7298,-59.89226 -11.88655,-115.5857 -11.88655,-142.05075c0,-30.82137 16,-66 16,-66h691v427z" fill="url(#color-1)" stroke="none" stroke-width="0" stroke-linecap="butt"/><g stroke-linecap="round"><g fill="none" stroke="#878787" stroke-width="4.5"><path d="M174.79917,-10.82811l12.7647,381.65622"/><path d="M251.3874,-10.82811l12.7647,381.65622"/><path d="M248.26471,20.96761h-74.76471"/><path d="M255.55883,89.49704l-78.41177,-2.1086"/><path d="M261.02941,236.04459l-82.05882,1.0543"/><path d="M266.5,334.0944l-82.05882,1.0543"/><path d="M188.08824,304.57403h72.94118"/><path d="M189.91177,271.89076l69.29412,-2.1086"/><path d="M264.67648,209.68712l-82.05883,2.1086"/><path d="M266.5,191.76404h-78.41176"/><path d="M175.32353,169.62376l80.2353,1.0543"/><path d="M175.32353,146.42918l85.70589,1.0543"/><path d="M255.55882,126.39749c0,0 -23.36082,0 -36.40489,0c-12.45843,0 -34.71275,0 -34.71275,0"/><path d="M257.38236,108.47441l-80.2353,-2.1086"/><path d="M178.97059,53.65087l72.94117,1.0543"/></g><g fill="#674700" stroke="#6d2f04" stroke-width="2.5"><path d="M174.79917,-10.82811l12.7647,381.65622"/><path d="M251.3874,-10.82811l12.7647,381.65622"/><path d="M248.26471,20.96761h-74.76471"/><path d="M255.55883,89.49704l-78.41177,-2.1086"/><path d="M261.02941,236.04459l-82.05882,1.0543"/><path d="M266.5,334.0944l-82.05882,1.0543"/><path d="M188.08824,304.57403h72.94118"/><path d="M189.91177,271.89076l69.29412,-2.1086"/><path d="M264.67648,209.68712l-82.05883,2.1086"/><path d="M266.5,191.76404h-78.41176"/><path d="M175.32353,169.62376l80.2353,1.0543"/><path d="M175.32353,146.42918l85.70589,1.0543"/><path d="M255.55882,126.39749c0,0 -23.36082,0 -36.40489,0c-12.45843,0 -34.71275,0 -34.71275,0"/><path d="M257.38236,108.47441l-80.2353,-2.1086"/><path d="M178.97059,53.65087l72.94117,1.0543"/></g></g><g stroke-linecap="butt"><path d="M8.46397,326.81439v-114h108v114z" fill="#ba8a02" stroke="#7e5606" stroke-width="2"/><g><path d="M13.46397,360.81439v-38h94v38z" fill="#0ca33e" stroke="#9d9a9a" stroke-width="0"/><text transform="translate(23.46397,350.24018) scale(0.83011,0.83011)" font-size="40" xml:space="preserve" fill="#15cced" fill-rule="nonzero" stroke="none" stroke-width="1" stroke-linecap="butt" stroke-linejoin="miter" stroke-miterlimit="10" stroke-dasharray="" stroke-dashoffset="0" font-family="Marker" font-weight="normal" text-anchor="start" style="mix-blend-mode: normal"><tspan x="0" dy="0">Shop</tspan></text></g></g></g></g></svg>