<svg version="1.1" xmlns="http://www.w3.org/2000/svg" xmlns:xlink="http://www.w3.org/1999/xlink" width="39.12552" height="52.94555" viewBox="0,0,39.12552,52.94555"><g transform="translate(-221.46839,-149.10262)"><g data-paper-data="{&quot;isPaintingLayer&quot;:true}" fill="none" fill-rule="nonzero" stroke-linecap="round" stroke-linejoin="miter" stroke-miterlimit="10" stroke-dasharray="" stroke-dashoffset="0" style="mix-blend-mode: normal"><path d="M257.34391,152.35262l-29.98357,2.01929c0,0 -5.7403,12.59686 -0.29821,17.07857c5.44208,4.48172 9.58162,1.43501 16.04,1.82643c6.45838,0.39142 8.94431,1.61998 11.16464,6.23143c2.22033,4.61145 2.70418,10.25076 -1.03857,14.79964c-3.74275,4.54888 -9.14779,5.96461 -15.83821,5.71214c-6.69043,-0.25247 -11.32857,-1.34472 -11.68393,-6.75071" stroke="#ffffff" stroke-width="6.5"/><path d="M257.34391,152.35262l-29.98357,2.01929c0,0 -5.7403,12.59686 -0.29821,17.07857c5.44208,4.48172 9.58162,1.43501 16.04,1.82643c6.45838,0.39142 8.94431,1.61998 11.16464,6.23143c2.22033,4.61145 2.70418,10.25076 -1.03857,14.79964c-3.74275,4.54888 -9.14779,5.96461 -15.83821,5.71214c-6.69043,-0.25247 -11.32857,-1.34472 -11.68393,-6.75071" stroke="#000000" stroke-width="4"/></g></g></svg>