<svg version="1.1" xmlns="http://www.w3.org/2000/svg" xmlns:xlink="http://www.w3.org/1999/xlink" width="87.60748" height="76.28304" viewBox="0,0,87.60748,76.28304"><defs><radialGradient cx="240" cy="194.0865" r="34.96377" gradientUnits="userSpaceOnUse" id="color-1"><stop offset="0" stop-color="#e59406"/><stop offset="1" stop-color="#955904"/></radialGradient></defs><g transform="translate(-201.43388,-141.53198)"><g data-paper-data="{&quot;isPaintingLayer&quot;:true}" fill-rule="nonzero" stroke-linecap="butt" stroke-linejoin="miter" stroke-miterlimit="10" stroke-dasharray="" stroke-dashoffset="0" style="mix-blend-mode: normal"><g stroke-width="0.5"><path d="M210.48514,217.56502c0,0 0,-9.61414 0,-12.75133c0,-1.83494 -5.75595,-10.8434 -0.90814,-11.40908c4.84779,-0.56566 26.35679,-5.36818 50.40232,-1.34225c24.04551,4.02593 5.90297,11.38317 5.90297,13.42245c0,3.15923 0,12.0802 0,12.0802z" fill="#c27e07" stroke="#87611e"/><path d="M254.30337,209.84711c0,0.83891 -1.13519,0.8389 -1.13519,0.8389l-0.54919,-0.04306c-0.3748,0.08444 -0.74959,0.16889 -1.12438,0.25333c-3.31187,2.51211 -13.86622,4.36625 -18.48757,3.80562c-2.84518,-0.34516 -5.55314,-1.69351 -8.44558,-1.66697c0,0 -1.13519,0 -1.13519,-0.83891c0,-0.83891 1.13519,-0.8389 1.13519,-0.8389c3.09697,0.02173 5.78899,1.30957 8.80925,1.68864c4.26827,0.5357 13.80234,-1.31783 16.93028,-3.57672c0.53334,-0.13927 1.06671,-0.27853 1.60005,-0.41781l1.26713,-0.04304c0,0 1.13519,0 1.13519,0.83891z" fill="#87611e" stroke="none"/><path d="M234.60469,208.91964c-1.01534,0.37517 -1.52302,-0.37517 -1.52302,-0.37517l-0.24143,-0.4531c-1.18496,-1.07391 -3.87744,-0.1016 -5.55434,-0.08985c0,0 -1.13519,0 -1.13519,-0.83891c0,-0.83891 1.13519,-0.83891 1.13519,-0.83891c2.79129,0.02561 4.78596,-1.00501 7.15974,0.58126l0.66671,0.88915c0,0 0.50768,0.75034 -0.50767,1.12551z" fill="#87611e" stroke="none"/><path d="M251.85954,208.24852c-1.01534,0.37517 -1.52301,-0.37516 -1.52301,-0.37516l0.20228,-0.25043c-3.52508,-0.86836 -5.43213,-0.64826 -8.5469,0.90884c0,0 -0.94452,0.46534 -1.57422,-0.23268c-0.62969,-0.69801 0.31484,-1.16335 0.31484,-1.16335c3.68001,-1.79103 6.33448,-2.13662 10.52423,-1.10453l1.11044,1.09181c0,0 0.50769,0.75033 -0.50766,1.1255z" fill="#87611e" stroke="none"/><path d="M274.96377,194.0865c0,6.67765 -15.65383,12.09097 -34.96377,12.09097c-19.30994,0 -34.96377,-5.4133 -34.96377,-12.09097c0,-6.67765 15.65383,-12.09096 34.96377,-12.09096c19.30994,0 34.96377,5.4133 34.96377,12.09096z" fill="url(#color-1)" stroke="#87611e"/></g><g><g><path d="M232.65381,202.49053l-0.09035,0.04746l-0.13849,0.02928l-0.08288,0.03814l-0.15868,0.02457l-0.1529,0.05504l-0.04289,0.00279l-0.30828,0.09782l-0.04406,0.00113l-0.04014,0.02109l-0.13849,0.02928l-0.08289,0.03815l-0.15868,0.02457l-0.15289,0.05504l-0.38277,0.02488l-0.1745,0.0369l-0.0628,-0.00472l-0.0601,0.02164l-0.08632,0.00561l-0.17451,0.03689l-0.03998,-0.003l-0.02699,0.02349l-0.22136,-0.04214l-0.22386,-0.01681c0,0 -2.58713,-1.34391 -4.4315,-2.51742c-1.84437,-1.17351 -2.87484,-2.13136 -2.87484,-2.13136c0,0 1.68523,-2.43526 2.96724,-3.40657c1.28202,-0.97131 3.08536,-1.17912 3.08536,-1.17912l0.13005,-0.10828l0.10876,-0.05005l0.22671,-0.15041l0.06899,-0.02254l0.05823,-0.04848l0.47237,-0.21737l0.32671,-0.20131l0.05442,-0.01567l0.04556,-0.03793l0.61091,-0.28111l0.03871,-0.00599l0.03337,-0.02351l0.58459,-0.21043l0.00711,-0.00046l0.00613,-0.00419l0.49732,-0.17027l0.02612,-0.00127l0.02318,-0.01403l0.30764,-0.08573l0.39504,-0.12535l0.10592,-0.00272l0.10118,-0.03643l0.44468,-0.02889l0.05223,0.01158l0.05216,-0.01202l0.56658,0.03215l0.0181,0.00636l0.01868,-0.00348l0.62752,0.06268l0.08562,0.03411l0.0905,0.00217l0.45298,0.143l0.00784,0.0051l0.00898,0.00039l0.51394,0.17352l0.05435,0.03679l0.0621,0.01182l3.16945,1.58735l0.15609,0.13837l0.07539,0.01245l0.07464,0.12054l0.10166,0.09013l0.00847,0.08776l0.11459,0.18508l0.02404,0.07027l0.15428,0.24919l0.04522,0.13215l0.07151,0.11549l0.08151,0.23824c0.88297,-0.25513 1.85317,-0.34517 2.6832,-0.70291c0.5881,-0.25347 1.13057,-0.87604 1.75382,-0.79237c1.03463,0.13889 1.61999,1.45785 0.70758,2.1396c-0.91625,0.68461 -3.03929,1.54613 -4.56286,1.82239l-0.00943,0.12707l-0.05201,0.17559l-0.02593,0.1832l-0.2369,0.63617l-0.07446,0.11295l-0.04861,0.13052l-0.25803,0.39147l-0.00404,0.01084l-0.13896,0.21084l-0.13413,0.21499l-0.02124,0.02072l-0.01737,0.02635l-0.01111,0.00144l-0.17748,0.17317l-0.14383,0.08151l-0.05082,0.04231l-0.01849,0.02399l-0.11005,0.08664l-0.09074,0.1128l-0.20086,0.151l-0.02677,0.01064l-0.02042,0.02271l-0.2102,0.13945l-0.15848,0.15464l-0.05654,0.03204l-0.04292,0.05337l-0.04693,0.03528l-0.10711,0.17169l-0.02124,0.02071l-0.01737,0.02636l-0.01112,0.00144l-0.29106,0.28401l-0.14384,0.08151l-0.13003,0.10828l-0.43637,0.2008l-0.09832,0.01523l-0.09035,0.04746l-0.13849,0.02928l-0.17015,0.07829l-0.15868,0.02457l-0.1529,0.05504l-0.23454,0.01524l-0.1745,0.0369l-0.0628,-0.00472l-0.0601,0.02163l-0.3798,0.02469l-0.00894,0.00779l-0.02823,-0.00538l-0.0277,0.00181l-0.22475,-0.04986l-0.22581,-0.04298l-0.02548,-0.01276l-0.02809,-0.00624l-0.00608,-0.01089l-0.30606,-0.15328c-0.12196,-0.06107 -0.22802,-0.14705 -0.31569,-0.25059l-0.62544,0.54454l-0.50648,-0.09641l-0.00299,-0.0015z" fill="#08ae26" stroke="#048f1d" stroke-width="1"/><path d="M222.35218,198.34666c0.01623,-0.6927 6.64071,-0.54799 6.64071,-0.54799l0.32984,0.01113c3.7206,-0.07447 7.2715,-1.46784 10.95761,-1.71274c0,0 0.59659,-0.03877 0.63002,0.6531c0.01044,0.21599 -0.04053,0.36832 -0.11557,0.47571c-0.15145,0.28295 -0.46055,0.4045 -0.73315,0.27532c-3.59434,0.28484 -7.08042,1.6078 -10.71625,1.69427l-0.38496,-0.01139c0,0 -5.04782,0.38896 -5.0316,-0.30374z" fill="#060606" stroke="none" stroke-width="0.5"/></g><path d="M236.10313,199.60264c0,0 -17.31821,-40.54938 -18.30702,-44.38546c-0.27554,-1.06897 8.5093,-4.66147 8.5093,-4.66147l14.60917,34.44719l19.94199,-20.15068c0,0 12.10425,2.08373 11.75685,3.43148c-1.079,4.18598 -28.11029,31.31894 -28.11029,31.31894z" fill="#08ae26" stroke="#048f1d" stroke-width="1"/><g data-paper-data="{&quot;index&quot;:null}"><path d="M246.71167,204.5705l-0.00299,0.0015l-0.50648,0.09641l-0.62544,-0.54454c-0.08766,0.10353 -0.19373,0.18951 -0.31569,0.25059l-0.30605,0.15329l-0.00609,0.01089l-0.02809,0.00623l-0.02548,0.01276l-0.22581,0.04299l-0.22475,0.04985l-0.0277,-0.0018l-0.02822,0.00537l-0.00895,-0.00778l-0.3798,-0.02468l-0.0601,-0.02164l-0.06279,0.00471l-0.17451,-0.03689l-0.23454,-0.01525l-0.1529,-0.05503l-0.15868,-0.02457l-0.17015,-0.07829l-0.13849,-0.02928l-0.09036,-0.04747l-0.09832,-0.01522l-0.43637,-0.20079l-0.13004,-0.10828l-0.14384,-0.08151l-0.29107,-0.28401l-0.01111,-0.00145l-0.01737,-0.02635l-0.02124,-0.02071l-0.10711,-0.17169l-0.04693,-0.03528l-0.04292,-0.05336l-0.05654,-0.03204l-0.15848,-0.15464l-0.2102,-0.13945l-0.02042,-0.02271l-0.02677,-0.01064l-0.20086,-0.151l-0.09074,-0.11281l-0.11005,-0.08664l-0.01849,-0.02399l-0.05082,-0.04231l-0.14383,-0.08151l-0.17747,-0.17318l-0.01112,-0.00144l-0.01737,-0.02635l-0.02124,-0.02072l-0.13413,-0.215l-0.13896,-0.21083l-0.00404,-0.01084l-0.25803,-0.39147l-0.04861,-0.13053l-0.07446,-0.11295l-0.2369,-0.63617l-0.02593,-0.1832l-0.05201,-0.17559l-0.00943,-0.12707c-1.52357,-0.27626 -3.64661,-1.13778 -4.56286,-1.82238c-0.91241,-0.68175 -0.32704,-2.00071 0.70758,-2.1396c0.62324,-0.08366 1.16572,0.5389 1.75382,0.79237c0.83003,0.35774 1.80023,0.44778 2.6832,0.70291l0.08152,-0.23824l0.07151,-0.11549l0.04521,-0.13215l0.15429,-0.24919l0.02404,-0.07027l0.11459,-0.18509l0.00847,-0.08776l0.10166,-0.09012l0.07464,-0.12054l0.07539,-0.01245l0.15609,-0.13837l3.16945,-1.58735l0.0621,-0.01182l0.05435,-0.03679l0.51394,-0.17352l0.00898,-0.0004l0.00784,-0.00509l0.45297,-0.143l0.0905,-0.00218l0.08561,-0.0341l0.62752,-0.06268l0.01868,0.00347l0.01811,-0.00636l0.56658,-0.03214l0.05216,0.01201l0.05223,-0.01158l0.44467,0.0289l0.10118,0.03642l0.10592,0.00272l0.39504,0.12535l0.30764,0.08573l0.02317,0.01403l0.02612,0.00127l0.49731,0.17027l0.00613,0.00419l0.00711,0.00047l0.58459,0.21042l0.03338,0.02352l0.0387,0.00599l0.61091,0.28111l0.04556,0.03793l0.05443,0.01567l0.32671,0.20131l0.47237,0.21737l0.05822,0.04847l0.06899,0.02255l0.22671,0.1504l0.10876,0.05006l0.13004,0.10828c0,0 1.80335,0.2078 3.08536,1.17911c1.28202,0.97131 2.96724,3.40658 2.96724,3.40658c0,0 -1.03047,0.95785 -2.87484,2.13136c-1.84437,1.17351 -4.43151,2.51741 -4.43151,2.51741l-0.22386,0.01681l-0.22136,0.04214l-0.02699,-0.02349l-0.03998,0.00299l-0.1745,-0.03689l-0.08632,-0.00561l-0.0601,-0.02164l-0.06279,0.00472l-0.17451,-0.03689l-0.38277,-0.02488l-0.15289,-0.05504l-0.15868,-0.02457l-0.08289,-0.03814l-0.13849,-0.02928l-0.04014,-0.02109l-0.04406,-0.00113l-0.30828,-0.09782l-0.04288,-0.00278l-0.1529,-0.05504l-0.15868,-0.02457l-0.08289,-0.03814l-0.13849,-0.02929l-0.09036,-0.04746z" fill="#08ae26" stroke="#048f1d" stroke-width="1"/><path d="M255.68838,200.9678c0.01622,0.69269 -5.0316,0.30373 -5.0316,0.30373l-0.38495,0.01139c-3.63584,-0.08648 -7.12191,-1.40943 -10.71625,-1.69428c-0.2726,0.12918 -0.58169,0.00763 -0.73315,-0.27532c-0.07504,-0.10738 -0.12601,-0.25972 -0.11557,-0.47571c0.03343,-0.69187 0.63003,-0.65309 0.63003,-0.65309c3.6861,0.2449 7.23701,1.63827 10.95761,1.71274l0.32984,-0.01113c0,0 6.62448,-0.14471 6.64071,0.54799z" fill="#060606" stroke="none" stroke-width="0.5"/></g></g><g><path d="M224.12079,182.14114c-0.6971,0.16982 -1.33293,0.4749 -1.98884,0.59005c-0.10841,0.12124 -0.27745,0.21575 -0.54099,0.21575c-0.28902,0 -0.46437,-0.11368 -0.57075,-0.25161c-0.17203,-0.04686 -0.34794,-0.11581 -0.52893,-0.21166c-0.85056,-0.45038 -1.81865,-1.89207 -1.33754,-2.86822c-0.03086,0.02462 -0.05884,0.04646 -0.08273,0.06452c-0.74163,0.56053 -1.61359,1.73541 -2.60227,1.87555c-2.68154,0.3801 -2.07951,-2.29197 -2.07951,-4.04663c0.54151,-0.66476 -0.66413,0.27687 -0.85997,0.32328c-1.2009,0.28463 -2.87212,-0.01519 -3.8866,-0.678c-1.13232,-0.73979 -1.47809,-1.52875 -1.32285,-2.87052c0.00094,-0.00812 0.17802,-1.00371 0.40161,-1.53114c-0.27083,0.04281 -0.61825,0.0388 -0.80463,-0.0118c-0.51823,-0.14072 -0.98358,-0.43143 -1.47854,-0.63971c-1.24047,-0.52197 -4.13282,-1.17208 -3.99994,-3.08464c0.03167,-0.45576 0.48793,-0.77253 0.7319,-1.15879c0.36563,-0.48065 0.93906,-0.77707 1.30237,-1.25948c0.21864,-0.29031 -0.16687,-0.70745 -0.2516,-1.06086c-0.19105,-0.79675 -0.44983,-1.35142 0.10072,-2.15245c0.95847,-1.39453 2.64373,-0.34001 2.7551,-1.87509c0.08041,-1.10819 0.17813,-3.00407 -0.09551,-4.07478c-0.15542,-0.60811 -0.90939,-1.11396 -0.75885,-1.7233c0.47887,-1.93831 4.28946,0.63965 3.50341,-1.28417c-0.08988,-0.21997 -0.21464,-0.424 -0.32196,-0.63601c-0.19597,-0.26129 -0.39193,-0.52257 -0.5879,-0.78385l-0.01153,-0.06803l-0.02065,0.01031l-0.38532,-0.77064c-0.05377,-0.10211 -0.08419,-0.21844 -0.08419,-0.34187c0,-0.40586 0.32901,-0.73487 0.73487,-0.73487c0.12342,0 0.23974,0.03043 0.34186,0.08419l0.77064,0.38532l-0.12566,0.25131c0.91195,0.30788 1.93908,0.55606 2.41282,0.08231c1.12079,-1.12079 -0.90753,-0.80416 -0.97983,-0.92039c-1.30391,-2.09666 1.93706,-3.00334 3.15698,-3.01269l0.1591,0.03874c0.03406,-1.72602 0.3066,-3.23601 2.3334,-3.74968c0.57742,-0.14633 1.3617,-0.40459 1.96133,-0.17616c0.82697,0.31504 1.38643,0.99221 1.63262,1.81396c0.0415,0.13851 -0.22922,0.3841 -0.09032,0.42426c0.64391,0.18623 1.21603,-0.56456 1.82984,-0.8339c1.0434,-0.45786 2.03673,-0.67827 3.02187,-1.01239c0.39051,-0.13245 0.6605,-0.68467 1.06835,-0.62376c0.50005,0.07468 0.78353,0.63923 1.17529,0.95885c0.12921,0.47742 -0.05738,1.02221 0.13571,1.47754c0.15455,0.36446 0.78885,-0.10098 1.18447,-0.08665c0.40564,0.01468 0.54445,0.22274 0.73227,-0.21509c0.12788,-0.29813 0.20425,-1.60096 0.23929,-1.63534c0.4531,-0.44464 1.16585,-0.50365 1.75809,-0.73225c1.62825,-0.62849 3.60062,-1.03388 5.34479,-1.08918c0.56865,-0.01802 1.20385,-0.21646 1.70606,0.05089c1.34044,0.71358 0.71202,2.57098 0.21267,3.93439c0.68988,-0.39073 1.50683,-0.52848 2.36135,-0.81332c1.86977,-0.62326 4.35462,-1.87388 5.3837,0.58789c0.51286,1.22688 0.28574,2.09296 -0.52599,3.08804c-0.27578,0.33808 -1.04416,0.39837 -1.00934,0.83327c0.20646,2.57875 5.62865,3.12222 3.17811,6.00994c-0.63585,0.95909 -1.22768,2.27529 -1.96377,3.14042c-0.22868,0.26876 -1.1966,0.44556 -0.87639,0.59382c2.13791,0.98981 3.93912,2.66953 5.50415,4.4718c0.5902,0.67966 1.78892,1.10676 1.80705,2.00672c0.04503,2.23453 -3.00108,2.34812 -4.77773,2.09864c0.02202,0.31499 0.00118,0.64186 0.03516,0.95327c0.07043,0.64532 0.55126,2.84949 0.13236,3.50882c-0.64688,1.01819 -3.38393,1.73441 -4.242,0.7259c0.1009,0.18493 0.21622,0.42629 0.23097,0.56166c0.04242,0.38963 -0.03743,0.78566 0,1.17579c0.08103,0.84454 0.88491,2.05748 0.24179,2.89362c-0.26695,0.34708 -0.80251,0.36334 -1.22816,0.46609c-1.40339,0.3388 -2.84176,0.54269 -4.25438,0.90887c-1.41123,0.35784 -2.00199,0.45093 -2.91341,-0.29781c-0.08122,0.31015 -0.23638,0.62507 -0.36251,0.89688c-0.86297,1.85968 -2.33284,3.13133 -3.74001,4.60198c-0.33079,0.34572 -1.59669,1.93378 -2.37087,1.71866c-0.48375,-0.13442 -0.65493,-0.77146 -0.89028,-1.21497c-0.54449,-1.02609 -0.77783,-2.45595 -1.18609,-3.55365c-0.1536,-0.41299 0.02335,-0.93727 -0.22233,-1.30306c-0.19278,-0.28702 -0.69597,0.06393 -1.02141,0.18069c-0.41262,0.14804 -0.81739,0.3235 -1.20146,0.53483c-0.15882,0.08739 -0.30398,0.19643 -0.44755,0.30799c-0.08232,0.42437 -0.55103,0.54155 -0.55103,0.54155z" fill="#fff400" stroke="#dad232" stroke-width="2"/><path d="M243.43808,164.67314c0,7.46779 -6.58026,13.52164 -14.69742,13.52164c-8.11716,0 -14.69742,-6.05384 -14.69742,-13.52164c0,-7.46779 6.58026,-13.52163 14.69742,-13.52163c8.11716,0 14.69742,6.05384 14.69742,13.52163z" fill="#b7933a" stroke="#76622d" stroke-width="2"/><g fill="#907125" stroke="none" stroke-width="0.5"><g><path d="M225.36331,154.5809c0,-0.40586 0.32901,-0.73487 0.73487,-0.73487c0.40586,0 0.73487,0.32901 0.73487,0.73487c0,0.40586 -0.32901,0.73487 -0.73487,0.73487c-0.40586,0 -0.73487,-0.32901 -0.73487,-0.73487z"/><path d="M217.72065,162.41954c0,-0.40586 0.32901,-0.73487 0.73487,-0.73487c0.40586,0 0.73487,0.32901 0.73487,0.73487c0,0.40586 -0.32901,0.73487 -0.73487,0.73487c-0.40586,0 -0.73487,-0.32901 -0.73487,-0.73487z"/><path d="M219.87627,168.10254c0,-0.40586 0.32901,-0.73487 0.73487,-0.73487c0.40586,0 0.73487,0.32901 0.73487,0.73487c0,0.40586 -0.32901,0.73487 -0.73487,0.73487c-0.40586,0 -0.73487,-0.32901 -0.73487,-0.73487z"/><path d="M228.10683,172.02185c0,-0.40586 0.32901,-0.73487 0.73487,-0.73487c0.40586,0 0.73487,0.32901 0.73487,0.73487c0,0.40586 -0.32901,0.73487 -0.73487,0.73487c-0.40586,0 -0.73487,-0.32901 -0.73487,-0.73487z"/><path d="M232.61403,167.31868c0,-0.40586 0.32901,-0.73487 0.73487,-0.73487c0.40586,0 0.73487,0.32901 0.73487,0.73487c0,0.40586 -0.32901,0.73487 -0.73487,0.73487c-0.40586,0 -0.73487,-0.32901 -0.73487,-0.73487z"/><path d="M226.14717,166.73078c0,-0.40586 0.32901,-0.73487 0.73487,-0.73487c0.40586,0 0.73487,0.32901 0.73487,0.73487c0,0.40586 -0.32901,0.73487 -0.73487,0.73487c-0.40586,0 -0.73487,-0.32901 -0.73487,-0.73487z"/><path d="M224.77541,161.63567c0,-0.40586 0.32901,-0.73487 0.73487,-0.73487c0.40586,0 0.73487,0.32901 0.73487,0.73487c0,0.40586 -0.32901,0.73487 -0.73487,0.73487c-0.40586,0 -0.73487,-0.32901 -0.73487,-0.73487z"/><path d="M231.04631,160.26391c0,-0.40586 0.32901,-0.73487 0.73487,-0.73487c0.40586,0 0.73487,0.32901 0.73487,0.73487c0,0.40586 -0.32901,0.73487 -0.73487,0.73487c-0.40586,0 -0.73487,-0.32901 -0.73487,-0.73487z"/><path d="M232.81,165.35902c0,-0.40586 0.32901,-0.73488 0.73487,-0.73488c0.40586,0 0.73488,0.32902 0.73488,0.73488c0,0.40586 -0.32902,0.73487 -0.73488,0.73487c-0.40586,0 -0.73487,-0.32901 -0.73487,-0.73487z"/><path d="M237.12125,167.12271c0,-0.40586 0.32901,-0.73487 0.73487,-0.73487c0.40586,0 0.73487,0.32901 0.73487,0.73487c0,0.40586 -0.32901,0.73487 -0.73487,0.73487c-0.40586,0 -0.73487,-0.32901 -0.73487,-0.73487z"/><path d="M235.74949,162.41954c0,-0.40586 0.32901,-0.73487 0.73487,-0.73487c0.40586,0 0.73487,0.32901 0.73487,0.73487c0,0.40586 -0.32901,0.73487 -0.73487,0.73487c-0.40586,0 -0.73487,-0.32901 -0.73487,-0.73487z"/><path d="M231.83018,158.30426c0,-0.40586 0.32901,-0.73487 0.73487,-0.73487c0.40586,0 0.73487,0.32901 0.73487,0.73487c0,0.40586 -0.32901,0.73487 -0.73487,0.73487c-0.40586,0 -0.73487,-0.32901 -0.73487,-0.73487z"/><path d="M229.28262,152.42529c0,-0.40586 0.32901,-0.73487 0.73487,-0.73487c0.40586,0 0.73487,0.32901 0.73487,0.73487c0,0.40586 -0.32901,0.73487 -0.73487,0.73487c-0.40586,0 -0.73487,-0.32901 -0.73487,-0.73487z"/><path d="M232.02614,174.17748c0,-0.40586 0.32901,-0.73487 0.73487,-0.73487c0.40586,0 0.73487,0.32901 0.73487,0.73487c0,0.40586 -0.32901,0.73487 -0.73487,0.73487c-0.40586,0 -0.73487,-0.32901 -0.73487,-0.73487z"/></g><g data-paper-data="{&quot;index&quot;:null}"><path d="M232.51605,173.19764c0,0.40586 -0.32901,0.73487 -0.73487,0.73487c-0.40586,0 -0.73487,-0.32901 -0.73487,-0.73487c0,-0.40586 0.32901,-0.73487 0.73487,-0.73487c0.40586,0 0.73487,0.32901 0.73487,0.73487z"/><path d="M240.15872,165.35902c0,0.40586 -0.32901,0.73487 -0.73487,0.73487c-0.40586,0 -0.73487,-0.32901 -0.73487,-0.73487c0,-0.40586 0.32901,-0.73488 0.73487,-0.73488c0.40586,0 0.73487,0.32902 0.73487,0.73488z"/><path d="M238.00309,159.67602c0,0.40586 -0.32901,0.73487 -0.73487,0.73487c-0.40586,0 -0.73487,-0.32901 -0.73487,-0.73487c0,-0.40586 0.32901,-0.73487 0.73487,-0.73487c0.40586,0 0.73487,0.32901 0.73487,0.73487z"/><path d="M229.77254,155.7567c0,0.40586 -0.32902,0.73487 -0.73488,0.73487c-0.40586,0 -0.73487,-0.32901 -0.73487,-0.73487c0,-0.40586 0.32901,-0.73487 0.73487,-0.73487c0.40586,0 0.73488,0.32901 0.73488,0.73487z"/><path d="M225.26533,160.45987c0,0.40586 -0.32901,0.73487 -0.73487,0.73487c-0.40586,0 -0.73487,-0.32901 -0.73487,-0.73487c0,-0.40586 0.32901,-0.73487 0.73487,-0.73487c0.40586,0 0.73487,0.32901 0.73487,0.73487z"/><path d="M231.7322,161.04777c0,0.40586 -0.32902,0.73487 -0.73488,0.73487c-0.40586,0 -0.73487,-0.32901 -0.73487,-0.73487c0,-0.40586 0.32901,-0.73487 0.73487,-0.73487c0.40586,0 0.73488,0.32901 0.73488,0.73487z"/><path d="M233.10396,166.14288c0,0.40586 -0.32901,0.73487 -0.73487,0.73487c-0.40586,0 -0.73488,-0.32901 -0.73488,-0.73487c0,-0.40586 0.32902,-0.73487 0.73488,-0.73487c0.40586,0 0.73487,0.32901 0.73487,0.73487z"/><path d="M226.83305,167.51463c0,0.40586 -0.32901,0.73487 -0.73487,0.73487c-0.40586,0 -0.73487,-0.32901 -0.73487,-0.73487c0,-0.40586 0.32901,-0.73487 0.73487,-0.73487c0.40586,0 0.73487,0.32901 0.73487,0.73487z"/><path d="M225.06936,162.41954c0,0.40586 -0.32901,0.73487 -0.73487,0.73487c-0.40586,0 -0.73487,-0.32901 -0.73487,-0.73487c0,-0.40586 0.32901,-0.73487 0.73487,-0.73487c0.40586,0 0.73487,0.32901 0.73487,0.73487z"/><path d="M220.75811,160.65584c0,0.40586 -0.32901,0.73487 -0.73487,0.73487c-0.40586,0 -0.73487,-0.32901 -0.73487,-0.73487c0,-0.40586 0.32901,-0.73487 0.73487,-0.73487c0.40586,0 0.73487,0.32901 0.73487,0.73487z"/><path d="M222.12987,165.35902c0,0.40586 -0.32901,0.73487 -0.73487,0.73487c-0.40586,0 -0.73487,-0.32901 -0.73487,-0.73487c0,-0.40586 0.32901,-0.73488 0.73487,-0.73488c0.40586,0 0.73487,0.32902 0.73487,0.73488z"/><path d="M226.04919,169.4743c0,0.40586 -0.32901,0.73487 -0.73487,0.73487c-0.40586,0 -0.73487,-0.32901 -0.73487,-0.73487c0,-0.40586 0.32901,-0.73487 0.73487,-0.73487c0.40586,0 0.73487,0.32901 0.73487,0.73487z"/><path d="M228.59674,175.35327c0,0.40586 -0.32901,0.73487 -0.73487,0.73487c-0.40586,0 -0.73487,-0.32901 -0.73487,-0.73487c0,-0.40586 0.32901,-0.73487 0.73487,-0.73487c0.40586,0 0.73487,0.32901 0.73487,0.73487z"/><path d="M225.85322,153.60108c0,0.40586 -0.32901,0.73487 -0.73487,0.73487c-0.40586,0 -0.73487,-0.32901 -0.73487,-0.73487c0,-0.40586 0.32901,-0.73487 0.73487,-0.73487c0.40586,0 0.73487,0.32901 0.73487,0.73487z"/></g></g><g data-paper-data="{&quot;index&quot;:null}" fill="#907125" stroke="none" stroke-width="0.5"><g><path d="M231.19329,155.90368c-0.40586,0 -0.73487,-0.32901 -0.73487,-0.73487c0,-0.40586 0.32901,-0.73487 0.73487,-0.73487c0.40586,0 0.73487,0.32901 0.73487,0.73487c0,0.40586 -0.32901,0.73487 -0.73487,0.73487z"/><path d="M238.83595,163.7423c-0.40586,0 -0.73487,-0.32901 -0.73487,-0.73487c0,-0.40586 0.32901,-0.73487 0.73487,-0.73487c0.40586,0 0.73487,0.32901 0.73487,0.73487c0,0.40586 -0.32901,0.73487 -0.73487,0.73487z"/><path d="M236.68033,169.42531c-0.40586,0 -0.73487,-0.32901 -0.73487,-0.73487c0,-0.40586 0.32901,-0.73487 0.73487,-0.73487c0.40586,0 0.73487,0.32901 0.73487,0.73487c0,0.40586 -0.32901,0.73487 -0.73487,0.73487z"/><path d="M228.44977,173.34463c-0.40586,0 -0.73487,-0.32901 -0.73487,-0.73487c0,-0.40586 0.32901,-0.73487 0.73487,-0.73487c0.40586,0 0.73487,0.32901 0.73487,0.73487c0,0.40586 -0.32901,0.73487 -0.73487,0.73487z"/><path d="M223.94256,168.64145c-0.40586,0 -0.73487,-0.32901 -0.73487,-0.73487c0,-0.40586 0.32901,-0.73487 0.73487,-0.73487c0.40586,0 0.73487,0.32901 0.73487,0.73487c0,0.40586 -0.32901,0.73487 -0.73487,0.73487z"/><path d="M230.40943,168.05355c-0.40586,0 -0.73488,-0.32901 -0.73488,-0.73487c0,-0.40586 0.32902,-0.73487 0.73488,-0.73487c0.40586,0 0.73487,0.32901 0.73487,0.73487c0,0.40586 -0.32901,0.73487 -0.73487,0.73487z"/><path d="M231.78118,162.95845c-0.40586,0 -0.73487,-0.32901 -0.73487,-0.73487c0,-0.40586 0.32901,-0.73487 0.73487,-0.73487c0.40586,0 0.73487,0.32901 0.73487,0.73487c0,0.40586 -0.32901,0.73487 -0.73487,0.73487z"/><path d="M225.51028,161.58669c-0.40586,0 -0.73487,-0.32901 -0.73487,-0.73487c0,-0.40586 0.32901,-0.73488 0.73487,-0.73488c0.40586,0 0.73487,0.32902 0.73487,0.73488c0,0.40586 -0.32901,0.73487 -0.73487,0.73487z"/><path d="M223.74659,166.68179c-0.40586,0 -0.73487,-0.32901 -0.73487,-0.73487c0,-0.40586 0.32901,-0.73488 0.73487,-0.73488c0.40586,0 0.73487,0.32902 0.73487,0.73488c0,0.40586 -0.32901,0.73487 -0.73487,0.73487z"/><path d="M219.43535,168.44548c-0.40586,0 -0.73487,-0.32901 -0.73487,-0.73487c0,-0.40586 0.32901,-0.73487 0.73487,-0.73487c0.40586,0 0.73487,0.32901 0.73487,0.73487c0,0.40586 -0.32901,0.73487 -0.73487,0.73487z"/><path d="M220.80711,163.7423c-0.40586,0 -0.73487,-0.32901 -0.73487,-0.73487c0,-0.40586 0.32901,-0.73487 0.73487,-0.73487c0.40586,0 0.73487,0.32901 0.73487,0.73487c0,0.40586 -0.32901,0.73487 -0.73487,0.73487z"/><path d="M224.72642,159.62702c-0.40586,0 -0.73487,-0.32901 -0.73487,-0.73487c0,-0.40586 0.32901,-0.73487 0.73487,-0.73487c0.40586,0 0.73487,0.32901 0.73487,0.73487c0,0.40586 -0.32901,0.73487 -0.73487,0.73487z"/><path d="M227.27398,153.74806c-0.40586,0 -0.73487,-0.32901 -0.73487,-0.73487c0,-0.40586 0.32901,-0.73487 0.73487,-0.73487c0.40586,0 0.73487,0.32901 0.73487,0.73487c0,0.40586 -0.32901,0.73487 -0.73487,0.73487z"/><path d="M224.53046,175.50024c-0.40586,0 -0.73487,-0.32901 -0.73487,-0.73487c0,-0.40586 0.32901,-0.73487 0.73487,-0.73487c0.40586,0 0.73487,0.32901 0.73487,0.73487c0,0.40586 -0.32901,0.73487 -0.73487,0.73487z"/></g><g data-paper-data="{&quot;index&quot;:null}"><path d="M225.51028,173.05067c0.40586,0 0.73487,0.32901 0.73487,0.73487c0,0.40586 -0.32901,0.73488 -0.73487,0.73488c-0.40586,0 -0.73487,-0.32902 -0.73487,-0.73488c0,-0.40586 0.32901,-0.73487 0.73487,-0.73487z"/><path d="M217.86762,165.21204c0.40586,0 0.73487,0.32902 0.73487,0.73488c0,0.40586 -0.32901,0.73487 -0.73487,0.73487c-0.40586,0 -0.73487,-0.32901 -0.73487,-0.73487c0,-0.40586 0.32901,-0.73488 0.73487,-0.73488z"/><path d="M220.02324,159.52904c0.40586,0 0.73487,0.32901 0.73487,0.73487c0,0.40586 -0.32901,0.73487 -0.73487,0.73487c-0.40586,0 -0.73487,-0.32901 -0.73487,-0.73487c0,-0.40586 0.32901,-0.73487 0.73487,-0.73487z"/><path d="M228.2538,155.60973c0.40586,0 0.73487,0.32901 0.73487,0.73487c0,0.40586 -0.32901,0.73487 -0.73487,0.73487c-0.40586,0 -0.73487,-0.32901 -0.73487,-0.73487c0,-0.40586 0.32901,-0.73487 0.73487,-0.73487z"/><path d="M232.76101,160.3129c0.40586,0 0.73487,0.32901 0.73487,0.73487c0,0.40586 -0.32901,0.73487 -0.73487,0.73487c-0.40586,0 -0.73487,-0.32901 -0.73487,-0.73487c0,-0.40586 0.32901,-0.73487 0.73487,-0.73487z"/><path d="M226.29414,160.9008c0.40586,0 0.73487,0.32901 0.73487,0.73487c0,0.40586 -0.32901,0.73487 -0.73487,0.73487c-0.40586,0 -0.73487,-0.32901 -0.73487,-0.73487c0,-0.40586 0.32901,-0.73487 0.73487,-0.73487z"/><path d="M224.92239,165.99591c0.40586,0 0.73487,0.32901 0.73487,0.73487c0,0.40586 -0.32901,0.73487 -0.73487,0.73487c-0.40586,0 -0.73487,-0.32901 -0.73487,-0.73487c0,-0.40586 0.32901,-0.73487 0.73487,-0.73487z"/><path d="M231.19329,167.36767c0.40586,0 0.73487,0.32901 0.73487,0.73487c0,0.40586 -0.32901,0.73487 -0.73487,0.73487c-0.40586,0 -0.73487,-0.32901 -0.73487,-0.73487c0,-0.40586 0.32901,-0.73487 0.73487,-0.73487z"/><path d="M232.95698,162.27256c0.40586,0 0.73487,0.32901 0.73487,0.73487c0,0.40586 -0.32901,0.73487 -0.73487,0.73487c-0.40586,0 -0.73488,-0.32901 -0.73488,-0.73487c0,-0.40586 0.32902,-0.73487 0.73488,-0.73487z"/><path d="M237.26822,160.50887c0.40586,0 0.73487,0.32901 0.73487,0.73487c0,0.40586 -0.32901,0.73487 -0.73487,0.73487c-0.40586,0 -0.73487,-0.32901 -0.73487,-0.73487c0,-0.40586 0.32901,-0.73487 0.73487,-0.73487z"/><path d="M235.89646,165.21204c0.40586,0 0.73487,0.32902 0.73487,0.73488c0,0.40586 -0.32901,0.73487 -0.73487,0.73487c-0.40586,0 -0.73487,-0.32901 -0.73487,-0.73487c0,-0.40586 0.32901,-0.73488 0.73487,-0.73488z"/><path d="M231.97715,169.32733c0.40586,0 0.73487,0.32901 0.73487,0.73487c0,0.40586 -0.32901,0.73487 -0.73487,0.73487c-0.40586,0 -0.73487,-0.32901 -0.73487,-0.73487c0,-0.40586 0.32901,-0.73487 0.73487,-0.73487z"/><path d="M229.42959,175.20629c0.40586,0 0.73487,0.32901 0.73487,0.73487c0,0.40586 -0.32901,0.73487 -0.73487,0.73487c-0.40586,0 -0.73487,-0.32901 -0.73487,-0.73487c0,-0.40586 0.32901,-0.73487 0.73487,-0.73487z"/><path d="M232.17311,153.4541c0.40586,0 0.73487,0.32901 0.73487,0.73487c0,0.40586 -0.32901,0.73487 -0.73487,0.73487c-0.40586,0 -0.73487,-0.32901 -0.73487,-0.73487c0,-0.40586 0.32901,-0.73487 0.73487,-0.73487z"/></g></g><path d="M225.70625,159.48005c0,2.27281 -1.05284,4.11529 -2.35159,4.11529c-1.29874,0 -2.35159,-1.84248 -2.35159,-4.11528c0,-2.27281 1.05284,-4.11528 2.35159,-4.11528c1.29874,0 2.35159,1.84247 2.35159,4.11528z" fill="#000000" stroke="none" stroke-width="0"/><path d="M235.50453,158.69619c0,2.27281 -0.96511,4.11529 -2.15563,4.11529c-1.19052,0 -2.15562,-1.84248 -2.15562,-4.11528c0,-2.27281 0.96511,-4.11528 2.15562,-4.11528c1.19052,0 2.15563,1.84247 2.15563,4.11528z" fill="#000000" stroke="none" stroke-width="0"/><path d="M224.72642,158.40224c0,0.91995 -0.43868,1.66571 -0.97983,1.66571c-0.54115,0 -0.97983,-0.74577 -0.97983,-1.66571c0,-0.91995 0.43868,-1.66571 0.97983,-1.66571c0.54115,0 0.97983,0.74577 0.97983,1.66571z" fill="#fafafa" stroke="none" stroke-width="0"/><path d="M234.72066,157.61838c0,1.35286 -0.39481,2.44957 -0.88184,2.44957c-0.48703,0 -0.88184,-1.09671 -0.88184,-2.44957c0,-1.35286 0.39481,-2.44957 0.88184,-2.44957c0.48703,0 0.88184,1.09671 0.88184,2.44957z" fill="#fafafa" stroke="none" stroke-width="0"/><path d="M221.02662,167.10701c0.40763,0.61145 -0.20382,1.01908 -0.20382,1.01908l-0.20249,0.12225c0.66565,1.01169 2.02348,1.9292 2.96282,2.58571c1.49197,1.04275 3.47362,2.74571 5.48165,2.23628c0.56632,-0.14367 1.00183,-0.63852 1.56772,-0.78386c1.22462,-0.31454 1.69332,-0.07143 2.67864,-1.05675c1.41123,-0.68401 1.47163,-1.91565 2.10326,-3.21755c-0.0011,-0.00041 -0.00221,-0.0008 -0.00331,-0.0012l-0.05354,0.09157c0,0 0,-0.04243 0.0102,-0.1069c-0.29495,-0.10173 -0.60306,-0.15447 -0.84305,-0.13806c0,0 -0.73487,0 -0.73487,-0.73487c0,-0.73487 0.73487,-0.73487 0.73487,-0.73487c1.51327,0.05615 2.77284,0.71471 3.26048,2.12437l0.19597,0.78386c0,0 0.17823,0.71293 -0.53469,0.89117c-0.71293,0.17823 -0.89117,-0.53469 -0.89117,-0.53469l-0.09832,-0.3933c-0.54709,1.27618 -0.84627,2.42289 -2.28644,3.16281c-1.05746,1.05746 -2.04465,2.43225 -3.36121,2.74914c-1.28005,0.3081 -1.98216,-0.17958 -3.44168,-0.37464c-2.78162,-0.37177 -6.52926,-3.43756 -8.06968,-5.9578c-0.2424,0.09102 -0.47958,0.19631 -0.70977,0.31301c0,0 -0.65729,0.32863 -0.98593,-0.32864c-0.32864,-0.65729 0.32864,-0.98593 0.32864,-0.98593c0.3941,-0.19479 0.80322,-0.36391 1.22222,-0.49979c0.05624,-0.04228 0.12397,-0.08061 0.20526,-0.11312c0.12383,-0.04953 0.23417,-0.0676 0.33185,-0.064l0.3173,-0.25707c0,0 0.61145,-0.40764 1.01908,0.20381z" fill="#000000" stroke="none" stroke-width="0.5"/></g><g><path d="M261.07952,190.13088c-0.6971,0.16982 -1.33293,0.4749 -1.98884,0.59005c-0.10841,0.12124 -0.27745,0.21575 -0.54099,0.21575c-0.28902,0 -0.46437,-0.11368 -0.57075,-0.25161c-0.17203,-0.04686 -0.34794,-0.11581 -0.52893,-0.21166c-0.85056,-0.45038 -1.81865,-1.89207 -1.33754,-2.86822c-0.03086,0.02462 -0.05884,0.04646 -0.08273,0.06452c-0.74163,0.56053 -1.61359,1.73541 -2.60227,1.87555c-2.68154,0.3801 -2.07951,-2.29197 -2.07951,-4.04663c0.54151,-0.66476 -0.66413,0.27687 -0.85997,0.32328c-1.2009,0.28463 -2.87212,-0.01519 -3.8866,-0.678c-1.13232,-0.73979 -1.47809,-1.52875 -1.32285,-2.87052c0.00094,-0.00812 0.17802,-1.00371 0.40161,-1.53114c-0.27083,0.04281 -0.61825,0.0388 -0.80463,-0.0118c-0.51823,-0.14072 -0.98358,-0.43143 -1.47854,-0.63971c-1.24047,-0.52197 -4.13282,-1.17208 -3.99994,-3.08464c0.03167,-0.45576 0.48793,-0.77253 0.7319,-1.15879c0.36563,-0.48065 0.93906,-0.77707 1.30237,-1.25948c0.21864,-0.29031 -0.16687,-0.70745 -0.2516,-1.06086c-0.19105,-0.79675 -0.44983,-1.35142 0.10072,-2.15245c0.95847,-1.39453 2.64373,-0.34001 2.7551,-1.87509c0.08041,-1.10819 0.17813,-3.00407 -0.09551,-4.07478c-0.15542,-0.60811 -0.90939,-1.11396 -0.75885,-1.7233c0.47887,-1.93831 4.28946,0.63965 3.50341,-1.28417c-0.08988,-0.21997 -0.21464,-0.424 -0.32196,-0.63601c-0.19597,-0.26129 -0.39193,-0.52257 -0.5879,-0.78385l-0.01153,-0.06803l-0.02065,0.01031l-0.38532,-0.77064c-0.05377,-0.10211 -0.08419,-0.21844 -0.08419,-0.34187c0,-0.40586 0.32901,-0.73487 0.73487,-0.73487c0.12342,0 0.23974,0.03043 0.34186,0.08419l0.77064,0.38532l-0.12566,0.25131c0.91195,0.30788 1.93908,0.55606 2.41282,0.08231c1.12079,-1.12079 -0.90753,-0.80416 -0.97983,-0.92039c-1.30391,-2.09666 1.93706,-3.00334 3.15698,-3.01269l0.1591,0.03874c0.03406,-1.72602 0.3066,-3.23601 2.3334,-3.74968c0.57742,-0.14633 1.3617,-0.40459 1.96133,-0.17616c0.82697,0.31504 1.38643,0.99221 1.63262,1.81396c0.0415,0.13851 -0.22922,0.3841 -0.09032,0.42426c0.64391,0.18623 1.21603,-0.56456 1.82984,-0.8339c1.0434,-0.45786 2.03673,-0.67827 3.02187,-1.01239c0.39051,-0.13245 0.6605,-0.68467 1.06835,-0.62376c0.50005,0.07468 0.78353,0.63923 1.17529,0.95885c0.12921,0.47742 -0.05738,1.02221 0.13571,1.47754c0.15455,0.36446 0.78885,-0.10098 1.18447,-0.08665c0.40564,0.01468 0.54445,0.22274 0.73227,-0.21509c0.12788,-0.29813 0.20425,-1.60096 0.23929,-1.63534c0.4531,-0.44464 1.16585,-0.50365 1.75809,-0.73225c1.62825,-0.62849 3.60062,-1.03388 5.34479,-1.08918c0.56865,-0.01802 1.20385,-0.21646 1.70606,0.05089c1.34044,0.71358 0.71202,2.57098 0.21267,3.93439c0.68988,-0.39073 1.50683,-0.52848 2.36135,-0.81332c1.86977,-0.62326 4.35462,-1.87388 5.3837,0.58789c0.51286,1.22688 0.28574,2.09296 -0.52599,3.08804c-0.27578,0.33808 -1.04416,0.39837 -1.00934,0.83327c0.20646,2.57875 5.62865,3.12222 3.17811,6.00994c-0.63585,0.95909 -1.22768,2.27529 -1.96377,3.14042c-0.22868,0.26876 -1.1966,0.44556 -0.87639,0.59382c2.13791,0.98981 3.93912,2.66953 5.50415,4.4718c0.5902,0.67966 1.78892,1.10676 1.80705,2.00672c0.04503,2.23453 -3.00108,2.34812 -4.77773,2.09864c0.02202,0.31499 0.00118,0.64186 0.03516,0.95327c0.07043,0.64532 0.55126,2.84949 0.13236,3.50882c-0.64688,1.01819 -3.38393,1.73441 -4.242,0.7259c0.1009,0.18493 0.21622,0.42629 0.23097,0.56166c0.04242,0.38963 -0.03743,0.78566 0,1.17579c0.08103,0.84454 0.88491,2.05748 0.24179,2.89362c-0.26695,0.34708 -0.80251,0.36334 -1.22816,0.46609c-1.40339,0.3388 -2.84176,0.54269 -4.25438,0.90887c-1.41123,0.35784 -2.00199,0.45093 -2.91341,-0.29781c-0.08122,0.31015 -0.23638,0.62507 -0.36251,0.89688c-0.86297,1.85968 -2.33284,3.13133 -3.74001,4.60198c-0.33079,0.34572 -1.59669,1.93378 -2.37087,1.71866c-0.48375,-0.13442 -0.65493,-0.77146 -0.89028,-1.21497c-0.54449,-1.02609 -0.77783,-2.45595 -1.18609,-3.55365c-0.1536,-0.41299 0.02335,-0.93727 -0.22233,-1.30306c-0.19278,-0.28702 -0.69597,0.06393 -1.02141,0.18069c-0.41262,0.14804 -0.81739,0.3235 -1.20146,0.53483c-0.15882,0.08739 -0.30398,0.19643 -0.44755,0.30799c-0.08232,0.42437 -0.55103,0.54155 -0.55103,0.54155z" fill="#fff400" stroke="#dad232" stroke-width="2"/><path d="M280.39681,172.66288c0,7.46779 -6.58026,13.52164 -14.69742,13.52164c-8.11716,0 -14.69742,-6.05384 -14.69742,-13.52164c0,-7.46779 6.58026,-13.52163 14.69742,-13.52163c8.11716,0 14.69742,6.05384 14.69742,13.52163z" fill="#b7933a" stroke="#76622d" stroke-width="2"/><g fill="#907125" stroke="none" stroke-width="0.5"><g><path d="M262.32204,162.57064c0,-0.40586 0.32901,-0.73487 0.73487,-0.73487c0.40586,0 0.73487,0.32901 0.73487,0.73487c0,0.40586 -0.32901,0.73487 -0.73487,0.73487c-0.40586,0 -0.73487,-0.32901 -0.73487,-0.73487z"/><path d="M254.67938,170.40928c0,-0.40586 0.32901,-0.73487 0.73487,-0.73487c0.40586,0 0.73487,0.32901 0.73487,0.73487c0,0.40586 -0.32901,0.73487 -0.73487,0.73487c-0.40586,0 -0.73487,-0.32901 -0.73487,-0.73487z"/><path d="M256.835,176.09228c0,-0.40586 0.32901,-0.73487 0.73487,-0.73487c0.40586,0 0.73487,0.32901 0.73487,0.73487c0,0.40586 -0.32901,0.73487 -0.73487,0.73487c-0.40586,0 -0.73487,-0.32901 -0.73487,-0.73487z"/><path d="M265.06556,180.01159c0,-0.40586 0.32901,-0.73487 0.73487,-0.73487c0.40586,0 0.73487,0.32901 0.73487,0.73487c0,0.40586 -0.32901,0.73487 -0.73487,0.73487c-0.40586,0 -0.73487,-0.32901 -0.73487,-0.73487z"/><path d="M269.57276,175.30842c0,-0.40586 0.32901,-0.73487 0.73487,-0.73487c0.40586,0 0.73487,0.32901 0.73487,0.73487c0,0.40586 -0.32901,0.73487 -0.73487,0.73487c-0.40586,0 -0.73487,-0.32901 -0.73487,-0.73487z"/><path d="M263.1059,174.72052c0,-0.40586 0.32901,-0.73487 0.73487,-0.73487c0.40586,0 0.73487,0.32901 0.73487,0.73487c0,0.40586 -0.32901,0.73487 -0.73487,0.73487c-0.40586,0 -0.73487,-0.32901 -0.73487,-0.73487z"/><path d="M261.73414,169.62541c0,-0.40586 0.32901,-0.73487 0.73487,-0.73487c0.40586,0 0.73487,0.32901 0.73487,0.73487c0,0.40586 -0.32901,0.73487 -0.73487,0.73487c-0.40586,0 -0.73487,-0.32901 -0.73487,-0.73487z"/><path d="M268.00504,168.25365c0,-0.40586 0.32901,-0.73487 0.73487,-0.73487c0.40586,0 0.73487,0.32901 0.73487,0.73487c0,0.40586 -0.32901,0.73487 -0.73487,0.73487c-0.40586,0 -0.73487,-0.32901 -0.73487,-0.73487z"/><path d="M269.76873,173.34876c0,-0.40586 0.32901,-0.73488 0.73487,-0.73488c0.40586,0 0.73488,0.32902 0.73488,0.73488c0,0.40586 -0.32902,0.73487 -0.73488,0.73487c-0.40586,0 -0.73487,-0.32901 -0.73487,-0.73487z"/><path d="M274.07998,175.11245c0,-0.40586 0.32901,-0.73487 0.73487,-0.73487c0.40586,0 0.73487,0.32901 0.73487,0.73487c0,0.40586 -0.32901,0.73487 -0.73487,0.73487c-0.40586,0 -0.73487,-0.32901 -0.73487,-0.73487z"/><path d="M272.70822,170.40928c0,-0.40586 0.32901,-0.73487 0.73487,-0.73487c0.40586,0 0.73487,0.32901 0.73487,0.73487c0,0.40586 -0.32901,0.73487 -0.73487,0.73487c-0.40586,0 -0.73487,-0.32901 -0.73487,-0.73487z"/><path d="M268.78891,166.294c0,-0.40586 0.32901,-0.73487 0.73487,-0.73487c0.40586,0 0.73487,0.32901 0.73487,0.73487c0,0.40586 -0.32901,0.73487 -0.73487,0.73487c-0.40586,0 -0.73487,-0.32901 -0.73487,-0.73487z"/><path d="M266.24135,160.41503c0,-0.40586 0.32901,-0.73487 0.73487,-0.73487c0.40586,0 0.73487,0.32901 0.73487,0.73487c0,0.40586 -0.32901,0.73487 -0.73487,0.73487c-0.40586,0 -0.73487,-0.32901 -0.73487,-0.73487z"/><path d="M268.98487,182.16722c0,-0.40586 0.32901,-0.73487 0.73487,-0.73487c0.40586,0 0.73487,0.32901 0.73487,0.73487c0,0.40586 -0.32901,0.73487 -0.73487,0.73487c-0.40586,0 -0.73487,-0.32901 -0.73487,-0.73487z"/></g><g data-paper-data="{&quot;index&quot;:null}"><path d="M269.47478,181.18738c0,0.40586 -0.32901,0.73487 -0.73487,0.73487c-0.40586,0 -0.73487,-0.32901 -0.73487,-0.73487c0,-0.40586 0.32901,-0.73487 0.73487,-0.73487c0.40586,0 0.73487,0.32901 0.73487,0.73487z"/><path d="M277.11745,173.34876c0,0.40586 -0.32901,0.73487 -0.73487,0.73487c-0.40586,0 -0.73487,-0.32901 -0.73487,-0.73487c0,-0.40586 0.32901,-0.73488 0.73487,-0.73488c0.40586,0 0.73487,0.32902 0.73487,0.73488z"/><path d="M274.96182,167.66576c0,0.40586 -0.32901,0.73487 -0.73487,0.73487c-0.40586,0 -0.73487,-0.32901 -0.73487,-0.73487c0,-0.40586 0.32901,-0.73487 0.73487,-0.73487c0.40586,0 0.73487,0.32901 0.73487,0.73487z"/><path d="M266.73127,163.74644c0,0.40586 -0.32902,0.73487 -0.73488,0.73487c-0.40586,0 -0.73487,-0.32901 -0.73487,-0.73487c0,-0.40586 0.32901,-0.73487 0.73487,-0.73487c0.40586,0 0.73488,0.32901 0.73488,0.73487z"/><path d="M262.22406,168.44961c0,0.40586 -0.32901,0.73487 -0.73487,0.73487c-0.40586,0 -0.73487,-0.32901 -0.73487,-0.73487c0,-0.40586 0.32901,-0.73487 0.73487,-0.73487c0.40586,0 0.73487,0.32901 0.73487,0.73487z"/><path d="M268.69093,169.03751c0,0.40586 -0.32902,0.73487 -0.73488,0.73487c-0.40586,0 -0.73487,-0.32901 -0.73487,-0.73487c0,-0.40586 0.32901,-0.73487 0.73487,-0.73487c0.40586,0 0.73488,0.32901 0.73488,0.73487z"/><path d="M270.06269,174.13262c0,0.40586 -0.32901,0.73487 -0.73487,0.73487c-0.40586,0 -0.73488,-0.32901 -0.73488,-0.73487c0,-0.40586 0.32902,-0.73487 0.73488,-0.73487c0.40586,0 0.73487,0.32901 0.73487,0.73487z"/><path d="M263.79178,175.50437c0,0.40586 -0.32901,0.73487 -0.73487,0.73487c-0.40586,0 -0.73487,-0.32901 -0.73487,-0.73487c0,-0.40586 0.32901,-0.73487 0.73487,-0.73487c0.40586,0 0.73487,0.32901 0.73487,0.73487z"/><path d="M262.02809,170.40928c0,0.40586 -0.32901,0.73487 -0.73487,0.73487c-0.40586,0 -0.73487,-0.32901 -0.73487,-0.73487c0,-0.40586 0.32901,-0.73487 0.73487,-0.73487c0.40586,0 0.73487,0.32901 0.73487,0.73487z"/><path d="M257.71684,168.64558c0,0.40586 -0.32901,0.73487 -0.73487,0.73487c-0.40586,0 -0.73487,-0.32901 -0.73487,-0.73487c0,-0.40586 0.32901,-0.73487 0.73487,-0.73487c0.40586,0 0.73487,0.32901 0.73487,0.73487z"/><path d="M259.0886,173.34876c0,0.40586 -0.32901,0.73487 -0.73487,0.73487c-0.40586,0 -0.73487,-0.32901 -0.73487,-0.73487c0,-0.40586 0.32901,-0.73488 0.73487,-0.73488c0.40586,0 0.73487,0.32902 0.73487,0.73488z"/><path d="M263.00792,177.46404c0,0.40586 -0.32901,0.73487 -0.73487,0.73487c-0.40586,0 -0.73487,-0.32901 -0.73487,-0.73487c0,-0.40586 0.32901,-0.73487 0.73487,-0.73487c0.40586,0 0.73487,0.32901 0.73487,0.73487z"/><path d="M265.55547,183.34301c0,0.40586 -0.32901,0.73487 -0.73487,0.73487c-0.40586,0 -0.73487,-0.32901 -0.73487,-0.73487c0,-0.40586 0.32901,-0.73487 0.73487,-0.73487c0.40586,0 0.73487,0.32901 0.73487,0.73487z"/><path d="M262.81195,161.59082c0,0.40586 -0.32901,0.73487 -0.73487,0.73487c-0.40586,0 -0.73487,-0.32901 -0.73487,-0.73487c0,-0.40586 0.32901,-0.73487 0.73487,-0.73487c0.40586,0 0.73487,0.32901 0.73487,0.73487z"/></g></g><g data-paper-data="{&quot;index&quot;:null}" fill="#907125" stroke="none" stroke-width="0.5"><g><path d="M268.15202,163.89342c-0.40586,0 -0.73487,-0.32901 -0.73487,-0.73487c0,-0.40586 0.32901,-0.73487 0.73487,-0.73487c0.40586,0 0.73487,0.32901 0.73487,0.73487c0,0.40586 -0.32901,0.73487 -0.73487,0.73487z"/><path d="M275.79468,171.73204c-0.40586,0 -0.73487,-0.32901 -0.73487,-0.73487c0,-0.40586 0.32901,-0.73487 0.73487,-0.73487c0.40586,0 0.73487,0.32901 0.73487,0.73487c0,0.40586 -0.32901,0.73487 -0.73487,0.73487z"/><path d="M273.63906,177.41505c-0.40586,0 -0.73487,-0.32901 -0.73487,-0.73487c0,-0.40586 0.32901,-0.73487 0.73487,-0.73487c0.40586,0 0.73487,0.32901 0.73487,0.73487c0,0.40586 -0.32901,0.73487 -0.73487,0.73487z"/><path d="M265.4085,181.33437c-0.40586,0 -0.73487,-0.32901 -0.73487,-0.73487c0,-0.40586 0.32901,-0.73487 0.73487,-0.73487c0.40586,0 0.73487,0.32901 0.73487,0.73487c0,0.40586 -0.32901,0.73487 -0.73487,0.73487z"/><path d="M260.90129,176.63119c-0.40586,0 -0.73487,-0.32901 -0.73487,-0.73487c0,-0.40586 0.32901,-0.73487 0.73487,-0.73487c0.40586,0 0.73487,0.32901 0.73487,0.73487c0,0.40586 -0.32901,0.73487 -0.73487,0.73487z"/><path d="M267.36816,176.04329c-0.40586,0 -0.73488,-0.32901 -0.73488,-0.73487c0,-0.40586 0.32902,-0.73487 0.73488,-0.73487c0.40586,0 0.73487,0.32901 0.73487,0.73487c0,0.40586 -0.32901,0.73487 -0.73487,0.73487z"/><path d="M268.73991,170.94819c-0.40586,0 -0.73487,-0.32901 -0.73487,-0.73487c0,-0.40586 0.32901,-0.73487 0.73487,-0.73487c0.40586,0 0.73487,0.32901 0.73487,0.73487c0,0.40586 -0.32901,0.73487 -0.73487,0.73487z"/><path d="M262.46901,169.57643c-0.40586,0 -0.73487,-0.32901 -0.73487,-0.73487c0,-0.40586 0.32901,-0.73488 0.73487,-0.73488c0.40586,0 0.73487,0.32902 0.73487,0.73488c0,0.40586 -0.32901,0.73487 -0.73487,0.73487z"/><path d="M260.70532,174.67153c-0.40586,0 -0.73487,-0.32901 -0.73487,-0.73487c0,-0.40586 0.32901,-0.73488 0.73487,-0.73488c0.40586,0 0.73487,0.32902 0.73487,0.73488c0,0.40586 -0.32901,0.73487 -0.73487,0.73487z"/><path d="M256.39408,176.43522c-0.40586,0 -0.73487,-0.32901 -0.73487,-0.73487c0,-0.40586 0.32901,-0.73487 0.73487,-0.73487c0.40586,0 0.73487,0.32901 0.73487,0.73487c0,0.40586 -0.32901,0.73487 -0.73487,0.73487z"/><path d="M257.76584,171.73204c-0.40586,0 -0.73487,-0.32901 -0.73487,-0.73487c0,-0.40586 0.32901,-0.73487 0.73487,-0.73487c0.40586,0 0.73487,0.32901 0.73487,0.73487c0,0.40586 -0.32901,0.73487 -0.73487,0.73487z"/><path d="M261.68515,167.61676c-0.40586,0 -0.73487,-0.32901 -0.73487,-0.73487c0,-0.40586 0.32901,-0.73487 0.73487,-0.73487c0.40586,0 0.73487,0.32901 0.73487,0.73487c0,0.40586 -0.32901,0.73487 -0.73487,0.73487z"/><path d="M264.23271,161.7378c-0.40586,0 -0.73487,-0.32901 -0.73487,-0.73487c0,-0.40586 0.32901,-0.73487 0.73487,-0.73487c0.40586,0 0.73487,0.32901 0.73487,0.73487c0,0.40586 -0.32901,0.73487 -0.73487,0.73487z"/><path d="M261.48919,183.48998c-0.40586,0 -0.73487,-0.32901 -0.73487,-0.73487c0,-0.40586 0.32901,-0.73487 0.73487,-0.73487c0.40586,0 0.73487,0.32901 0.73487,0.73487c0,0.40586 -0.32901,0.73487 -0.73487,0.73487z"/></g><g data-paper-data="{&quot;index&quot;:null}"><path d="M262.46901,181.04041c0.40586,0 0.73487,0.32901 0.73487,0.73487c0,0.40586 -0.32901,0.73488 -0.73487,0.73488c-0.40586,0 -0.73487,-0.32902 -0.73487,-0.73488c0,-0.40586 0.32901,-0.73487 0.73487,-0.73487z"/><path d="M254.82635,173.20178c0.40586,0 0.73487,0.32902 0.73487,0.73488c0,0.40586 -0.32901,0.73487 -0.73487,0.73487c-0.40586,0 -0.73487,-0.32901 -0.73487,-0.73487c0,-0.40586 0.32901,-0.73488 0.73487,-0.73488z"/><path d="M256.98197,167.51878c0.40586,0 0.73487,0.32901 0.73487,0.73487c0,0.40586 -0.32901,0.73487 -0.73487,0.73487c-0.40586,0 -0.73487,-0.32901 -0.73487,-0.73487c0,-0.40586 0.32901,-0.73487 0.73487,-0.73487z"/><path d="M265.21253,163.59947c0.40586,0 0.73487,0.32901 0.73487,0.73487c0,0.40586 -0.32901,0.73487 -0.73487,0.73487c-0.40586,0 -0.73487,-0.32901 -0.73487,-0.73487c0,-0.40586 0.32901,-0.73487 0.73487,-0.73487z"/><path d="M269.71974,168.30264c0.40586,0 0.73487,0.32901 0.73487,0.73487c0,0.40586 -0.32901,0.73487 -0.73487,0.73487c-0.40586,0 -0.73487,-0.32901 -0.73487,-0.73487c0,-0.40586 0.32901,-0.73487 0.73487,-0.73487z"/><path d="M263.25287,168.89054c0.40586,0 0.73487,0.32901 0.73487,0.73487c0,0.40586 -0.32901,0.73487 -0.73487,0.73487c-0.40586,0 -0.73487,-0.32901 -0.73487,-0.73487c0,-0.40586 0.32901,-0.73487 0.73487,-0.73487z"/><path d="M261.88112,173.98565c0.40586,0 0.73487,0.32901 0.73487,0.73487c0,0.40586 -0.32901,0.73487 -0.73487,0.73487c-0.40586,0 -0.73487,-0.32901 -0.73487,-0.73487c0,-0.40586 0.32901,-0.73487 0.73487,-0.73487z"/><path d="M268.15202,175.35741c0.40586,0 0.73487,0.32901 0.73487,0.73487c0,0.40586 -0.32901,0.73487 -0.73487,0.73487c-0.40586,0 -0.73487,-0.32901 -0.73487,-0.73487c0,-0.40586 0.32901,-0.73487 0.73487,-0.73487z"/><path d="M269.91571,170.2623c0.40586,0 0.73487,0.32901 0.73487,0.73487c0,0.40586 -0.32901,0.73487 -0.73487,0.73487c-0.40586,0 -0.73488,-0.32901 -0.73488,-0.73487c0,-0.40586 0.32902,-0.73487 0.73488,-0.73487z"/><path d="M274.22695,168.49861c0.40586,0 0.73487,0.32901 0.73487,0.73487c0,0.40586 -0.32901,0.73487 -0.73487,0.73487c-0.40586,0 -0.73487,-0.32901 -0.73487,-0.73487c0,-0.40586 0.32901,-0.73487 0.73487,-0.73487z"/><path d="M272.85519,173.20178c0.40586,0 0.73487,0.32902 0.73487,0.73488c0,0.40586 -0.32901,0.73487 -0.73487,0.73487c-0.40586,0 -0.73487,-0.32901 -0.73487,-0.73487c0,-0.40586 0.32901,-0.73488 0.73487,-0.73488z"/><path d="M268.93588,177.31707c0.40586,0 0.73487,0.32901 0.73487,0.73487c0,0.40586 -0.32901,0.73487 -0.73487,0.73487c-0.40586,0 -0.73487,-0.32901 -0.73487,-0.73487c0,-0.40586 0.32901,-0.73487 0.73487,-0.73487z"/><path d="M266.38832,183.19603c0.40586,0 0.73487,0.32901 0.73487,0.73487c0,0.40586 -0.32901,0.73487 -0.73487,0.73487c-0.40586,0 -0.73487,-0.32901 -0.73487,-0.73487c0,-0.40586 0.32901,-0.73487 0.73487,-0.73487z"/><path d="M269.13184,161.44384c0.40586,0 0.73487,0.32901 0.73487,0.73487c0,0.40586 -0.32901,0.73487 -0.73487,0.73487c-0.40586,0 -0.73487,-0.32901 -0.73487,-0.73487c0,-0.40586 0.32901,-0.73487 0.73487,-0.73487z"/></g></g><path d="M262.66498,167.46979c0,2.27281 -1.05284,4.11529 -2.35159,4.11529c-1.29874,0 -2.35159,-1.84248 -2.35159,-4.11528c0,-2.27281 1.05284,-4.11528 2.35159,-4.11528c1.29874,0 2.35159,1.84247 2.35159,4.11528z" fill="#000000" stroke="none" stroke-width="0"/><path d="M272.46326,166.68593c0,2.27281 -0.96511,4.11529 -2.15563,4.11529c-1.19052,0 -2.15562,-1.84248 -2.15562,-4.11528c0,-2.27281 0.96511,-4.11528 2.15562,-4.11528c1.19052,0 2.15563,1.84247 2.15563,4.11528z" fill="#000000" stroke="none" stroke-width="0"/><path d="M261.68515,166.39198c0,0.91995 -0.43868,1.66571 -0.97983,1.66571c-0.54115,0 -0.97983,-0.74577 -0.97983,-1.66571c0,-0.91995 0.43868,-1.66571 0.97983,-1.66571c0.54115,0 0.97983,0.74577 0.97983,1.66571z" fill="#fafafa" stroke="none" stroke-width="0"/><path d="M271.67939,165.60812c0,1.35286 -0.39481,2.44957 -0.88184,2.44957c-0.48703,0 -0.88184,-1.09671 -0.88184,-2.44957c0,-1.35286 0.39481,-2.44957 0.88184,-2.44957c0.48703,0 0.88184,1.09671 0.88184,2.44957z" fill="#fafafa" stroke="none" stroke-width="0"/><path d="M257.98535,175.09675c0.40763,0.61145 -0.20382,1.01908 -0.20382,1.01908l-0.20249,0.12225c0.66565,1.01169 2.02348,1.9292 2.96282,2.58571c1.49197,1.04275 3.47362,2.74571 5.48165,2.23628c0.56632,-0.14367 1.00183,-0.63852 1.56772,-0.78386c1.22462,-0.31454 1.69332,-0.07143 2.67864,-1.05675c1.41123,-0.68401 1.47163,-1.91565 2.10326,-3.21755c-0.0011,-0.00041 -0.00221,-0.0008 -0.00331,-0.0012l-0.05354,0.09157c0,0 0,-0.04243 0.0102,-0.1069c-0.29495,-0.10173 -0.60306,-0.15447 -0.84305,-0.13806c0,0 -0.73487,0 -0.73487,-0.73487c0,-0.73487 0.73487,-0.73487 0.73487,-0.73487c1.51327,0.05615 2.77284,0.71471 3.26048,2.12437l0.19597,0.78386c0,0 0.17823,0.71293 -0.53469,0.89117c-0.71293,0.17823 -0.89117,-0.53469 -0.89117,-0.53469l-0.09832,-0.3933c-0.54709,1.27618 -0.84627,2.42289 -2.28644,3.16281c-1.05746,1.05746 -0.82618,1.88046 -2.14274,2.19735c-0.25104,0.06042 -2.77997,0.83975 -3.95326,0.68295c-2.78162,-0.37177 -7.23615,-3.94334 -8.77656,-6.46358c-0.2424,0.09102 -0.47958,0.19631 -0.70977,0.31301c0,0 -0.65729,0.32863 -0.98593,-0.32864c-0.32864,-0.65729 0.32864,-0.98593 0.32864,-0.98593c0.3941,-0.19479 0.80322,-0.36391 1.22222,-0.49979c0.05624,-0.04228 0.12397,-0.08061 0.20526,-0.11312c0.12383,-0.04953 0.23417,-0.0676 0.33185,-0.064l0.3173,-0.25707c0,0 0.61145,-0.40764 1.01908,0.20381z" fill="#000000" stroke="none" stroke-width="0.5"/></g></g></g></svg>