<svg version="1.1" xmlns="http://www.w3.org/2000/svg" xmlns:xlink="http://www.w3.org/1999/xlink" width="36.87821" height="45.52219" viewBox="0,0,36.87821,45.52219"><g transform="translate(-221.56945,-157.61871)"><g data-paper-data="{&quot;isPaintingLayer&quot;:true}" fill="none" fill-rule="nonzero" stroke-linecap="round" stroke-linejoin="miter" stroke-miterlimit="10" stroke-dasharray="" stroke-dashoffset="0" style="mix-blend-mode: normal"><path d="M225.85802,170.99478c2.43611,-8.02484 10.34185,-8.52186 18.95393,-10.12607c8.61208,-1.60421 6.13574,1.09313 7.52964,5.19286c1.39391,4.09973 -0.49564,5.51526 -3.11571,7.78929c-2.62007,2.27402 -11.45844,-0.25961 -10.64536,4.15429c0.81309,4.41389 8.28073,1.98744 12.46286,5.71214c4.18212,3.7247 4.36113,5.08851 4.15429,9.0875c-0.20684,3.99899 -1.92548,4.95566 -4.93321,5.97179c-3.00774,1.01613 -8.80103,1.63752 -14.28036,0.51929c-5.47933,-1.11823 -10.14054,-0.8869 -11.16464,-5.71214" stroke="#ffffff" stroke-width="6.5"/><path d="M225.85802,170.99478c2.43611,-8.02484 10.34185,-8.52186 18.95393,-10.12607c8.61208,-1.60421 6.13574,1.09313 7.52964,5.19286c1.39391,4.09973 -0.49564,5.51526 -3.11571,7.78929c-2.62007,2.27402 -11.45844,-0.25961 -10.64536,4.15429c0.81309,4.41389 8.28073,1.98744 12.46286,5.71214c4.18212,3.7247 4.36113,5.08851 4.15429,9.0875c-0.20684,3.99899 -1.92548,4.95566 -4.93321,5.97179c-3.00774,1.01613 -8.80103,1.63752 -14.28036,0.51929c-5.47933,-1.11823 -10.14054,-0.8869 -11.16464,-5.71214" stroke="#000000" stroke-width="4"/></g></g></svg>