<svg version="1.1" xmlns="http://www.w3.org/2000/svg" xmlns:xlink="http://www.w3.org/1999/xlink" width="53.29246" height="50.3865" viewBox="0,0,53.29246,50.3865"><g transform="translate(-213.35377,-154.80674)"><g data-paper-data="{&quot;isPaintingLayer&quot;:true}" fill-rule="nonzero" stroke-linecap="butt" stroke-linejoin="miter" stroke-miterlimit="10" stroke-dasharray="" stroke-dashoffset="0" style="mix-blend-mode: normal"><path d="M213.51129,205.19325l-0.15752,-50.08608l53.13494,-0.30042l0.15751,50.08609z" fill="#dad232" stroke="none" stroke-width="NaN"/><g fill="#000000" stroke="#000000"><path d="M236.45875,197.58536c-0.6971,0.16982 -1.33293,0.4749 -1.98884,0.59005c-0.10841,0.12124 -0.27744,0.21575 -0.54099,0.21575c-0.28902,0 -0.46438,-0.11368 -0.57076,-0.2516c-0.17203,-0.04686 -0.34794,-0.11582 -0.52893,-0.21166c-0.85056,-0.45037 -1.81865,-1.89206 -1.33754,-2.86822c-0.03086,0.02462 -0.05884,0.04646 -0.08273,0.06452c-0.74163,0.56054 -1.61358,1.73541 -2.60227,1.87555c-2.68154,0.3801 -2.0795,-2.29197 -2.0795,-4.04663c0.54151,-0.66476 -0.66414,0.27687 -0.85998,0.32328c-1.2009,0.28463 -2.87212,-0.01519 -3.8866,-0.67799c-1.13232,-0.73979 -1.47809,-1.52876 -1.32285,-2.87053c0.00094,-0.00812 0.17803,-1.00372 0.40162,-1.53113c-0.27082,0.04281 -0.61826,0.0388 -0.80464,-0.0118c-0.51823,-0.14072 -0.98357,-0.43143 -1.47854,-0.6397c-1.24046,-0.52197 -4.13282,-1.17208 -3.99995,-3.08464c0.03167,-0.45576 0.48794,-0.77253 0.7319,-1.15879c0.36564,-0.48065 0.93906,-0.77707 1.30236,-1.25948c0.21863,-0.29031 -0.16687,-0.70744 -0.2516,-1.06085c-0.19105,-0.79676 -0.44983,-1.35142 0.10072,-2.15245c0.95847,-1.39454 2.64374,-0.34001 2.75511,-1.87509c0.0804,-1.10819 0.17813,-3.00407 -0.09551,-4.07478c-0.15542,-0.60811 -0.90939,-1.11396 -0.75885,-1.7233c0.47886,-1.9383 4.28945,0.63964 3.50341,-1.28417c-0.08987,-0.21996 -0.21464,-0.42401 -0.32196,-0.63601c-0.19597,-0.26129 -0.39193,-0.52257 -0.58789,-0.78386l-0.01153,-0.06802l-0.02064,0.01032l-0.38532,-0.77064c-0.05377,-0.10212 -0.08419,-0.21844 -0.08419,-0.34187c0,-0.40586 0.32901,-0.73487 0.73487,-0.73487c0.12342,0 0.23974,0.03043 0.34187,0.08419l0.77064,0.38532l-0.12566,0.25131c0.91194,0.30789 1.93908,0.55605 2.41283,0.08231c1.12079,-1.12079 -0.90754,-0.80416 -0.97983,-0.92039c-1.30391,-2.09666 1.93706,-3.00334 3.15698,-3.01269l0.15911,0.03874c0.03406,-1.72603 0.30659,-3.23601 2.3334,-3.74969c0.57741,-0.14634 1.3617,-0.40459 1.96133,-0.17616c0.82696,0.31504 1.38644,0.99221 1.63263,1.81396c0.0415,0.13851 -0.22923,0.38409 -0.09032,0.42427c0.64391,0.18622 1.21604,-0.56456 1.82984,-0.8339c1.0434,-0.45786 2.03673,-0.67827 3.02187,-1.01239c0.39052,-0.13245 0.6605,-0.68467 1.06835,-0.62376c0.50005,0.07468 0.78353,0.63923 1.17529,0.95885c0.12921,0.47741 -0.05738,1.02221 0.13571,1.47755c0.15456,0.36446 0.78885,-0.10099 1.18447,-0.08665c0.40564,0.01469 0.54445,0.22273 0.73227,-0.21509c0.12789,-0.29813 0.20425,-1.60095 0.23929,-1.63534c0.4531,-0.44464 1.16585,-0.50365 1.75809,-0.73225c1.62825,-0.62849 3.60062,-1.03389 5.34479,-1.08918c0.56865,-0.01803 1.20384,-0.21646 1.70606,0.05089c1.34045,0.71358 0.71203,2.57097 0.21268,3.93439c0.68988,-0.39072 1.50683,-0.52848 2.36135,-0.81332c1.86977,-0.62326 4.35463,-1.87388 5.3837,0.58789c0.51286,1.22687 0.28573,2.09296 -0.52599,3.08804c-0.27578,0.33808 -1.04416,0.39837 -1.00935,0.83327c0.20646,2.57875 5.62866,3.12222 3.17811,6.00993c-0.63585,0.95909 -1.22768,2.27529 -1.96376,3.14042c-0.22867,0.26876 -1.1966,0.44556 -0.87639,0.59383c2.13791,0.98982 3.93912,2.66953 5.50414,4.4718c0.5902,0.67966 1.78892,1.10676 1.80705,2.00672c0.04502,2.23454 -3.00108,2.34812 -4.77773,2.09864c0.02202,0.31498 0.00118,0.64186 0.03516,0.95328c0.07043,0.64532 0.55125,2.84949 0.13236,3.50882c-0.64689,1.01819 -3.38392,1.73442 -4.24199,0.7259c0.1009,0.18493 0.21622,0.42629 0.23096,0.56166c0.04242,0.38963 -0.03743,0.78565 0,1.17579c0.08102,0.84453 0.88491,2.05748 0.2418,2.89362c-0.26695,0.34708 -0.80251,0.36334 -1.22816,0.46609c-1.40339,0.33879 -2.84175,0.54269 -4.25437,0.90887c-1.41122,0.35784 -2.00199,0.45093 -2.91342,-0.29781c-0.08122,0.31015 -0.23638,0.62507 -0.36251,0.89689c-0.86297,1.85968 -2.33284,3.13133 -3.74001,4.60198c-0.33079,0.34572 -1.5967,1.93378 -2.37088,1.71866c-0.48375,-0.13442 -0.65493,-0.77147 -0.89028,-1.21498c-0.54449,-1.02609 -0.77783,-2.45595 -1.18609,-3.55365c-0.1536,-0.41299 0.02334,-0.93727 -0.22234,-1.30306c-0.19278,-0.28702 -0.69597,0.06393 -1.02141,0.1807c-0.41262,0.14804 -0.81738,0.3235 -1.20146,0.53483c-0.15882,0.08739 -0.30398,0.19642 -0.44755,0.30798c-0.08232,0.42438 -0.55103,0.54155 -0.55103,0.54155z" stroke-width="2"/><path d="M255.77603,180.11737c0,7.46779 -6.58026,13.52163 -14.69742,13.52163c-8.11716,0 -14.69742,-6.05384 -14.69742,-13.52163c0,-7.46779 6.58026,-13.52163 14.69742,-13.52163c8.11716,0 14.69742,6.05384 14.69742,13.52163z" stroke-width="2"/><g stroke-width="0.5"><g><path d="M237.70127,170.02514c0,-0.40586 0.32901,-0.73487 0.73487,-0.73487c0.40586,0 0.73487,0.32901 0.73487,0.73487c0,0.40586 -0.32901,0.73487 -0.73487,0.73487c-0.40586,0 -0.73487,-0.32901 -0.73487,-0.73487z"/><path d="M230.05861,177.86377c0,-0.40586 0.32901,-0.73487 0.73487,-0.73487c0.40586,0 0.73487,0.32901 0.73487,0.73487c0,0.40586 -0.32901,0.73487 -0.73487,0.73487c-0.40586,0 -0.73487,-0.32901 -0.73487,-0.73487z"/><path d="M232.21422,183.54677c0,-0.40586 0.32901,-0.73487 0.73487,-0.73487c0.40586,0 0.73487,0.32901 0.73487,0.73487c0,0.40586 -0.32901,0.73487 -0.73487,0.73487c-0.40586,0 -0.73487,-0.32901 -0.73487,-0.73487z"/><path d="M240.44479,187.46608c0,-0.40586 0.32901,-0.73487 0.73487,-0.73487c0.40586,0 0.73487,0.32901 0.73487,0.73487c0,0.40586 -0.32901,0.73487 -0.73487,0.73487c-0.40586,0 -0.73487,-0.32901 -0.73487,-0.73487z"/><path d="M244.95199,182.7629c0,-0.40586 0.32901,-0.73487 0.73487,-0.73487c0.40586,0 0.73487,0.32901 0.73487,0.73487c0,0.40586 -0.32901,0.73487 -0.73487,0.73487c-0.40586,0 -0.73487,-0.32901 -0.73487,-0.73487z"/><path d="M238.48513,182.17501c0,-0.40586 0.32901,-0.73487 0.73487,-0.73487c0.40586,0 0.73487,0.32901 0.73487,0.73487c0,0.40586 -0.32901,0.73487 -0.73487,0.73487c-0.40586,0 -0.73487,-0.32901 -0.73487,-0.73487z"/><path d="M237.11337,177.0799c0,-0.40586 0.32901,-0.73487 0.73487,-0.73487c0.40586,0 0.73487,0.32901 0.73487,0.73487c0,0.40586 -0.32901,0.73487 -0.73487,0.73487c-0.40586,0 -0.73487,-0.32901 -0.73487,-0.73487z"/><path d="M243.38427,175.70814c0,-0.40586 0.32901,-0.73487 0.73487,-0.73487c0.40586,0 0.73487,0.32901 0.73487,0.73487c0,0.40586 -0.32901,0.73487 -0.73487,0.73487c-0.40586,0 -0.73487,-0.32901 -0.73487,-0.73487z"/><path d="M245.14796,180.80325c0,-0.40586 0.32901,-0.73487 0.73487,-0.73487c0.40586,0 0.73487,0.32901 0.73487,0.73487c0,0.40586 -0.32901,0.73487 -0.73487,0.73487c-0.40586,0 -0.73487,-0.32901 -0.73487,-0.73487z"/><path d="M249.4592,182.56694c0,-0.40586 0.32901,-0.73487 0.73487,-0.73487c0.40586,0 0.73487,0.32901 0.73487,0.73487c0,0.40586 -0.32901,0.73487 -0.73487,0.73487c-0.40586,0 -0.73487,-0.32901 -0.73487,-0.73487z"/><path d="M248.08744,177.86377c0,-0.40586 0.32901,-0.73487 0.73487,-0.73487c0.40586,0 0.73487,0.32901 0.73487,0.73487c0,0.40586 -0.32901,0.73487 -0.73487,0.73487c-0.40586,0 -0.73487,-0.32901 -0.73487,-0.73487z"/><path d="M244.16813,173.74848c0,-0.40586 0.32901,-0.73487 0.73487,-0.73487c0.40586,0 0.73487,0.32901 0.73487,0.73487c0,0.40586 -0.32901,0.73487 -0.73487,0.73487c-0.40586,0 -0.73487,-0.32901 -0.73487,-0.73487z"/><path d="M241.62058,167.86952c0,-0.40586 0.32901,-0.73487 0.73487,-0.73487c0.40586,0 0.73487,0.32901 0.73487,0.73487c0,0.40586 -0.32901,0.73487 -0.73487,0.73487c-0.40586,0 -0.73487,-0.32901 -0.73487,-0.73487z"/><path d="M244.3641,189.6217c0,-0.40586 0.32901,-0.73487 0.73487,-0.73487c0.40586,0 0.73487,0.32901 0.73487,0.73487c0,0.40586 -0.32901,0.73487 -0.73487,0.73487c-0.40586,0 -0.73487,-0.32901 -0.73487,-0.73487z"/></g><g data-paper-data="{&quot;index&quot;:null}"><path d="M244.85401,188.64187c0,0.40586 -0.32901,0.73487 -0.73487,0.73487c-0.40586,0 -0.73487,-0.32901 -0.73487,-0.73487c0,-0.40586 0.32901,-0.73487 0.73487,-0.73487c0.40586,0 0.73487,0.32901 0.73487,0.73487z"/><path d="M252.49668,180.80325c0,0.40586 -0.32901,0.73487 -0.73487,0.73487c-0.40586,0 -0.73487,-0.32901 -0.73487,-0.73487c0,-0.40586 0.32901,-0.73487 0.73487,-0.73487c0.40586,0 0.73487,0.32901 0.73487,0.73487z"/><path d="M250.34105,175.12024c0,0.40586 -0.32901,0.73487 -0.73487,0.73487c-0.40586,0 -0.73487,-0.32901 -0.73487,-0.73487c0,-0.40586 0.32901,-0.73487 0.73487,-0.73487c0.40586,0 0.73487,0.32901 0.73487,0.73487z"/><path d="M242.1105,171.20093c0,0.40586 -0.32901,0.73487 -0.73487,0.73487c-0.40586,0 -0.73487,-0.32901 -0.73487,-0.73487c0,-0.40586 0.32901,-0.73487 0.73487,-0.73487c0.40586,0 0.73487,0.32901 0.73487,0.73487z"/><path d="M237.60328,175.9041c0,0.40586 -0.32901,0.73487 -0.73487,0.73487c-0.40586,0 -0.73487,-0.32901 -0.73487,-0.73487c0,-0.40586 0.32901,-0.73487 0.73487,-0.73487c0.40586,0 0.73487,0.32901 0.73487,0.73487z"/><path d="M244.07015,176.492c0,0.40586 -0.32901,0.73487 -0.73487,0.73487c-0.40586,0 -0.73487,-0.32901 -0.73487,-0.73487c0,-0.40586 0.32901,-0.73487 0.73487,-0.73487c0.40586,0 0.73487,0.32901 0.73487,0.73487z"/><path d="M245.44191,181.5871c0,0.40586 -0.32901,0.73487 -0.73487,0.73487c-0.40586,0 -0.73487,-0.32901 -0.73487,-0.73487c0,-0.40586 0.32901,-0.73487 0.73487,-0.73487c0.40586,0 0.73487,0.32901 0.73487,0.73487z"/><path d="M239.17101,182.95887c0,0.40586 -0.32901,0.73487 -0.73487,0.73487c-0.40586,0 -0.73487,-0.32901 -0.73487,-0.73487c0,-0.40586 0.32901,-0.73487 0.73487,-0.73487c0.40586,0 0.73487,0.32901 0.73487,0.73487z"/><path d="M237.40732,177.86377c0,0.40586 -0.32901,0.73487 -0.73487,0.73487c-0.40586,0 -0.73487,-0.32901 -0.73487,-0.73487c0,-0.40586 0.32901,-0.73487 0.73487,-0.73487c0.40586,0 0.73487,0.32901 0.73487,0.73487z"/><path d="M233.09607,176.10007c0,0.40586 -0.32901,0.73487 -0.73487,0.73487c-0.40586,0 -0.73487,-0.32901 -0.73487,-0.73487c0,-0.40586 0.32901,-0.73487 0.73487,-0.73487c0.40586,0 0.73487,0.32901 0.73487,0.73487z"/><path d="M234.46783,180.80325c0,0.40586 -0.32901,0.73487 -0.73487,0.73487c-0.40586,0 -0.73487,-0.32901 -0.73487,-0.73487c0,-0.40586 0.32901,-0.73487 0.73487,-0.73487c0.40586,0 0.73487,0.32901 0.73487,0.73487z"/><path d="M238.38715,184.91853c0,0.40586 -0.32901,0.73487 -0.73487,0.73487c-0.40586,0 -0.73487,-0.32901 -0.73487,-0.73487c0,-0.40586 0.32901,-0.73487 0.73487,-0.73487c0.40586,0 0.73487,0.32901 0.73487,0.73487z"/><path d="M240.9347,190.79749c0,0.40586 -0.32901,0.73487 -0.73487,0.73487c-0.40586,0 -0.73487,-0.32901 -0.73487,-0.73487c0,-0.40586 0.32901,-0.73487 0.73487,-0.73487c0.40586,0 0.73487,0.32901 0.73487,0.73487z"/><path d="M238.19118,169.04531c0,0.40586 -0.32901,0.73487 -0.73487,0.73487c-0.40586,0 -0.73487,-0.32901 -0.73487,-0.73487c0,-0.40586 0.32901,-0.73487 0.73487,-0.73487c0.40586,0 0.73487,0.32901 0.73487,0.73487z"/></g></g><g data-paper-data="{&quot;index&quot;:null}" stroke-width="0.5"><g><path d="M243.53124,171.34791c-0.40586,0 -0.73487,-0.32901 -0.73487,-0.73487c0,-0.40586 0.32901,-0.73487 0.73487,-0.73487c0.40586,0 0.73487,0.32901 0.73487,0.73487c0,0.40586 -0.32901,0.73487 -0.73487,0.73487z"/><path d="M251.1739,179.18653c-0.40586,0 -0.73487,-0.32901 -0.73487,-0.73487c0,-0.40586 0.32901,-0.73487 0.73487,-0.73487c0.40586,0 0.73487,0.32901 0.73487,0.73487c0,0.40586 -0.32901,0.73487 -0.73487,0.73487z"/><path d="M249.01829,184.86953c-0.40586,0 -0.73487,-0.32901 -0.73487,-0.73487c0,-0.40586 0.32901,-0.73487 0.73487,-0.73487c0.40586,0 0.73487,0.32901 0.73487,0.73487c0,0.40586 -0.32901,0.73487 -0.73487,0.73487z"/><path d="M240.78772,188.78885c-0.40586,0 -0.73487,-0.32901 -0.73487,-0.73487c0,-0.40586 0.32901,-0.73487 0.73487,-0.73487c0.40586,0 0.73487,0.32901 0.73487,0.73487c0,0.40586 -0.32901,0.73487 -0.73487,0.73487z"/><path d="M236.28052,184.08568c-0.40586,0 -0.73487,-0.32901 -0.73487,-0.73487c0,-0.40586 0.32901,-0.73487 0.73487,-0.73487c0.40586,0 0.73487,0.32901 0.73487,0.73487c0,0.40586 -0.32901,0.73487 -0.73487,0.73487z"/><path d="M242.74739,183.49777c-0.40586,0 -0.73487,-0.32901 -0.73487,-0.73487c0,-0.40586 0.32901,-0.73487 0.73487,-0.73487c0.40586,0 0.73487,0.32901 0.73487,0.73487c0,0.40586 -0.32901,0.73487 -0.73487,0.73487z"/><path d="M244.11914,178.40267c-0.40586,0 -0.73487,-0.32901 -0.73487,-0.73487c0,-0.40586 0.32901,-0.73487 0.73487,-0.73487c0.40586,0 0.73487,0.32901 0.73487,0.73487c0,0.40586 -0.32901,0.73487 -0.73487,0.73487z"/><path d="M237.84824,177.03091c-0.40586,0 -0.73487,-0.32901 -0.73487,-0.73487c0,-0.40586 0.32901,-0.73487 0.73487,-0.73487c0.40586,0 0.73487,0.32901 0.73487,0.73487c0,0.40586 -0.32901,0.73487 -0.73487,0.73487z"/><path d="M236.08455,182.12601c-0.40586,0 -0.73487,-0.32901 -0.73487,-0.73487c0,-0.40586 0.32901,-0.73487 0.73487,-0.73487c0.40586,0 0.73487,0.32901 0.73487,0.73487c0,0.40586 -0.32901,0.73487 -0.73487,0.73487z"/><path d="M231.7733,183.88971c-0.40586,0 -0.73487,-0.32901 -0.73487,-0.73487c0,-0.40586 0.32901,-0.73487 0.73487,-0.73487c0.40586,0 0.73487,0.32901 0.73487,0.73487c0,0.40586 -0.32901,0.73487 -0.73487,0.73487z"/><path d="M233.14507,179.18653c-0.40586,0 -0.73487,-0.32901 -0.73487,-0.73487c0,-0.40586 0.32901,-0.73487 0.73487,-0.73487c0.40586,0 0.73487,0.32901 0.73487,0.73487c0,0.40586 -0.32901,0.73487 -0.73487,0.73487z"/><path d="M237.06438,175.07125c-0.40586,0 -0.73487,-0.32901 -0.73487,-0.73487c0,-0.40586 0.32901,-0.73487 0.73487,-0.73487c0.40586,0 0.73487,0.32901 0.73487,0.73487c0,0.40586 -0.32901,0.73487 -0.73487,0.73487z"/><path d="M239.61193,169.19228c-0.40586,0 -0.73487,-0.32901 -0.73487,-0.73487c0,-0.40586 0.32901,-0.73487 0.73487,-0.73487c0.40586,0 0.73487,0.32901 0.73487,0.73487c0,0.40586 -0.32901,0.73487 -0.73487,0.73487z"/><path d="M236.86841,190.94447c-0.40586,0 -0.73487,-0.32901 -0.73487,-0.73487c0,-0.40586 0.32901,-0.73487 0.73487,-0.73487c0.40586,0 0.73487,0.32901 0.73487,0.73487c0,0.40586 -0.32901,0.73487 -0.73487,0.73487z"/></g><g data-paper-data="{&quot;index&quot;:null}"><path d="M237.84824,188.4949c0.40586,0 0.73487,0.32901 0.73487,0.73487c0,0.40586 -0.32901,0.73487 -0.73487,0.73487c-0.40586,0 -0.73487,-0.32901 -0.73487,-0.73487c0,-0.40586 0.32901,-0.73487 0.73487,-0.73487z"/><path d="M230.20558,180.65627c0.40586,0 0.73487,0.32901 0.73487,0.73487c0,0.40586 -0.32901,0.73487 -0.73487,0.73487c-0.40586,0 -0.73487,-0.32901 -0.73487,-0.73487c0,-0.40586 0.32901,-0.73487 0.73487,-0.73487z"/><path d="M232.3612,174.97327c0.40586,0 0.73487,0.32901 0.73487,0.73487c0,0.40586 -0.32901,0.73487 -0.73487,0.73487c-0.40586,0 -0.73487,-0.32901 -0.73487,-0.73487c0,-0.40586 0.32901,-0.73487 0.73487,-0.73487z"/><path d="M240.59176,171.05396c0.40586,0 0.73487,0.32901 0.73487,0.73487c0,0.40586 -0.32901,0.73487 -0.73487,0.73487c-0.40586,0 -0.73487,-0.32901 -0.73487,-0.73487c0,-0.40586 0.32901,-0.73487 0.73487,-0.73487z"/><path d="M245.09897,175.75713c0.40586,0 0.73487,0.32901 0.73487,0.73487c0,0.40586 -0.32901,0.73487 -0.73487,0.73487c-0.40586,0 -0.73487,-0.32901 -0.73487,-0.73487c0,-0.40586 0.32901,-0.73487 0.73487,-0.73487z"/><path d="M238.6321,176.34503c0.40586,0 0.73487,0.32901 0.73487,0.73487c0,0.40586 -0.32901,0.73487 -0.73487,0.73487c-0.40586,0 -0.73487,-0.32901 -0.73487,-0.73487c0,-0.40586 0.32901,-0.73487 0.73487,-0.73487z"/><path d="M237.26035,181.44014c0.40586,0 0.73487,0.32901 0.73487,0.73487c0,0.40586 -0.32901,0.73487 -0.73487,0.73487c-0.40586,0 -0.73487,-0.32901 -0.73487,-0.73487c0,-0.40586 0.32901,-0.73487 0.73487,-0.73487z"/><path d="M243.53124,182.8119c0.40586,0 0.73487,0.32901 0.73487,0.73487c0,0.40586 -0.32901,0.73487 -0.73487,0.73487c-0.40586,0 -0.73487,-0.32901 -0.73487,-0.73487c0,-0.40586 0.32901,-0.73487 0.73487,-0.73487z"/><path d="M245.29494,177.71679c0.40586,0 0.73487,0.32901 0.73487,0.73487c0,0.40586 -0.32901,0.73487 -0.73487,0.73487c-0.40586,0 -0.73487,-0.32901 -0.73487,-0.73487c0,-0.40586 0.32901,-0.73487 0.73487,-0.73487z"/><path d="M249.60618,175.9531c0.40586,0 0.73487,0.32901 0.73487,0.73487c0,0.40586 -0.32901,0.73487 -0.73487,0.73487c-0.40586,0 -0.73487,-0.32901 -0.73487,-0.73487c0,-0.40586 0.32901,-0.73487 0.73487,-0.73487z"/><path d="M248.23442,180.65627c0.40586,0 0.73487,0.32901 0.73487,0.73487c0,0.40586 -0.32901,0.73487 -0.73487,0.73487c-0.40586,0 -0.73487,-0.32901 -0.73487,-0.73487c0,-0.40586 0.32901,-0.73487 0.73487,-0.73487z"/><path d="M244.31511,184.77155c0.40586,0 0.73487,0.32901 0.73487,0.73487c0,0.40586 -0.32901,0.73487 -0.73487,0.73487c-0.40586,0 -0.73487,-0.32901 -0.73487,-0.73487c0,-0.40586 0.32901,-0.73487 0.73487,-0.73487z"/><path d="M241.76755,190.65052c0.40586,0 0.73487,0.32901 0.73487,0.73487c0,0.40586 -0.32901,0.73487 -0.73487,0.73487c-0.40586,0 -0.73487,-0.32901 -0.73487,-0.73487c0,-0.40586 0.32901,-0.73487 0.73487,-0.73487z"/><path d="M244.51107,168.89833c0.40586,0 0.73487,0.32901 0.73487,0.73487c0,0.40586 -0.32901,0.73487 -0.73487,0.73487c-0.40586,0 -0.73487,-0.32901 -0.73487,-0.73487c0,-0.40586 0.32901,-0.73487 0.73487,-0.73487z"/></g></g><path d="M238.0442,174.92428c0,2.27281 -1.05284,4.11528 -2.35159,4.11528c-1.29875,0 -2.35159,-1.84247 -2.35159,-4.11528c0,-2.27281 1.05284,-4.11528 2.35159,-4.11528c1.29875,0 2.35159,1.84247 2.35159,4.11528z" stroke-width="0"/><path d="M247.84249,174.14042c0,2.27281 -0.96511,4.11528 -2.15563,4.11528c-1.19052,0 -2.15562,-1.84247 -2.15562,-4.11528c0,-2.27281 0.96511,-4.11528 2.15562,-4.11528c1.19052,0 2.15563,1.84247 2.15563,4.11528z" stroke-width="0"/><path d="M237.06438,173.84647c0,0.91995 -0.43868,1.6657 -0.97983,1.6657c-0.54114,0 -0.97983,-0.74577 -0.97983,-1.6657c0,-0.91995 0.43868,-1.66571 0.97983,-1.66571c0.54114,0 0.97983,0.74577 0.97983,1.66571z" stroke-width="0"/><path d="M247.05862,173.06261c0,1.35286 -0.39482,2.44957 -0.88185,2.44957c-0.48703,0 -0.88185,-1.09671 -0.88185,-2.44957c0,-1.35286 0.39482,-2.44957 0.88185,-2.44957c0.48703,0 0.88185,1.09671 0.88185,2.44957z" stroke-width="0"/><path d="M233.36458,182.55124c0.40764,0.61145 -0.20382,1.01908 -0.20382,1.01908l-0.20249,0.12225c0.66566,1.01169 2.02348,1.9292 2.96282,2.58571c1.49197,1.04276 3.47362,2.74571 5.48165,2.23628c0.56632,-0.14367 1.00183,-0.63852 1.56772,-0.78387c1.22462,-0.31453 1.69332,-0.07142 2.67864,-1.05674c1.41123,-0.68401 1.47163,-1.91564 2.10326,-3.21755c-0.00111,-0.00041 -0.00221,-0.0008 -0.00332,-0.00121l-0.05354,0.09157c0,0 0,-0.04243 0.0102,-0.1069c-0.29494,-0.10173 -0.60306,-0.15447 -0.84305,-0.13806c0,0 -0.73487,0 -0.73487,-0.73487c0,-0.73487 0.73487,-0.73487 0.73487,-0.73487c1.51327,0.05615 2.77284,0.71471 3.26048,2.12436l0.19596,0.78387c0,0 0.17823,0.71293 -0.5347,0.89116c-0.71293,0.17823 -0.89116,-0.5347 -0.89116,-0.5347l-0.09833,-0.3933c-0.54708,1.27618 -0.84627,2.42288 -2.28644,3.16281c-1.05746,1.05746 -1.88378,0.97795 -3.20033,1.29484c-1.28005,0.3081 -1.93615,0.99288 -3.39567,0.79782c-2.78162,-0.37177 -6.73615,-3.15572 -8.27656,-5.67596c-0.2424,0.09102 -0.47958,0.19632 -0.70976,0.31301c0,0 -0.65729,0.32864 -0.98593,-0.32864c-0.32864,-0.65729 0.32864,-0.98593 0.32864,-0.98593c0.3941,-0.1948 0.80321,-0.36391 1.22222,-0.49979c0.05625,-0.04229 0.12398,-0.08061 0.20526,-0.11312c0.12383,-0.04953 0.23417,-0.0676 0.33185,-0.064l0.3173,-0.25708c0,0 0.61145,-0.40764 1.01908,0.20382z" stroke-width="0.5"/></g><text transform="translate(219.15225,176.63121) scale(0.29199,0.29199)" font-size="40" xml:space="preserve" fill="#dad232" fill-rule="nonzero" stroke="none" stroke-width="1" stroke-linecap="butt" stroke-linejoin="miter" stroke-miterlimit="10" stroke-dasharray="" stroke-dashoffset="0" font-family="Sans Serif" font-weight="normal" text-anchor="start" style="mix-blend-mode: normal"><tspan x="0" dy="0">coming</tspan><tspan x="0" dy="46.15px">soon</tspan></text></g></g></svg>