<svg version="1.1" xmlns="http://www.w3.org/2000/svg" xmlns:xlink="http://www.w3.org/1999/xlink" width="70.78272" height="83.27857" viewBox="0,0,70.78272,83.27857"><defs><linearGradient x1="237.90238" y1="142.9064" x2="237.90238" y2="213.64995" gradientUnits="userSpaceOnUse" id="color-1"><stop offset="0" stop-color="#ec9c21"/><stop offset="1" stop-color="#b75428"/></linearGradient><linearGradient x1="216.88181" y1="150.93834" x2="216.88181" y2="157.52723" gradientUnits="userSpaceOnUse" id="color-2"><stop offset="0" stop-color="#ec9c21"/><stop offset="1" stop-color="#b75428"/></linearGradient><linearGradient x1="209.77009" y1="160.30685" x2="209.77009" y2="169.36657" gradientUnits="userSpaceOnUse" id="color-3"><stop offset="0" stop-color="#ec9c21"/><stop offset="1" stop-color="#b75428"/></linearGradient><linearGradient x1="209.77008" y1="171.80317" x2="209.77008" y2="183.88281" gradientUnits="userSpaceOnUse" id="color-4"><stop offset="0" stop-color="#ec9c21"/><stop offset="1" stop-color="#b75428"/></linearGradient><linearGradient x1="208.27155" y1="186.78313" x2="208.27155" y2="197.89209" gradientUnits="userSpaceOnUse" id="color-5"><stop offset="0" stop-color="#ec9c21"/><stop offset="1" stop-color="#b75428"/></linearGradient><linearGradient x1="251.5186" y1="206.84062" x2="251.5186" y2="213.70405" gradientUnits="userSpaceOnUse" id="color-6"><stop offset="0" stop-color="#ec9c21"/><stop offset="1" stop-color="#b75428"/></linearGradient><linearGradient x1="258.59663" y1="199.53142" x2="258.59663" y2="203.37494" gradientUnits="userSpaceOnUse" id="color-7"><stop offset="0" stop-color="#ec9c21"/><stop offset="1" stop-color="#b75428"/></linearGradient><linearGradient x1="229.52489" y1="151.76195" x2="229.52489" y2="168.50872" gradientUnits="userSpaceOnUse" id="color-8"><stop offset="0" stop-color="#ec9c21" stop-opacity="0.59677"/><stop offset="1" stop-color="#b75428" stop-opacity="0.37097"/></linearGradient><linearGradient x1="251.51859" y1="152.03648" x2="251.51859" y2="166.58695" gradientUnits="userSpaceOnUse" id="color-9"><stop offset="0" stop-color="#ec9c21" stop-opacity="0.58871"/><stop offset="1" stop-color="#b75428" stop-opacity="0.64516"/></linearGradient><linearGradient x1="266.13715" y1="181.96105" x2="266.13715" y2="195.96244" gradientUnits="userSpaceOnUse" id="color-10"><stop offset="0" stop-color="#ec9c21"/><stop offset="1" stop-color="#b75428"/></linearGradient><linearGradient x1="230.57849" y1="143.29831" x2="230.57849" y2="148.51453" gradientUnits="userSpaceOnUse" id="color-11"><stop offset="0" stop-color="#ec9c21"/><stop offset="1" stop-color="#b75428"/></linearGradient><linearGradient x1="245.84469" y1="142.19988" x2="245.84469" y2="147.69062" gradientUnits="userSpaceOnUse" id="color-12"><stop offset="0" stop-color="#ec9c21"/><stop offset="1" stop-color="#b75428"/></linearGradient><linearGradient x1="236.12228" y1="166.88641" x2="229.30346" y2="173.58606" gradientUnits="userSpaceOnUse" id="color-13"><stop offset="0" stop-color="#ec9c21"/><stop offset="1" stop-color="#b75428"/></linearGradient><linearGradient x1="245.68835" y1="167.14657" x2="252.50717" y2="173.84622" gradientUnits="userSpaceOnUse" id="color-14"><stop offset="0" stop-color="#ec9c21"/><stop offset="1" stop-color="#b75428"/></linearGradient><linearGradient x1="266.13715" y1="164.74005" x2="266.13715" y2="178.74145" gradientUnits="userSpaceOnUse" id="color-15"><stop offset="0" stop-color="#ec9c21"/><stop offset="1" stop-color="#b75428"/></linearGradient><linearGradient x1="261.35402" y1="164.00851" x2="266.94743" y2="151.2786" gradientUnits="userSpaceOnUse" id="color-16"><stop offset="0" stop-color="#ec9c21"/><stop offset="1" stop-color="#b75428"/></linearGradient><linearGradient x1="213.22172" y1="209.50333" x2="220.89014" y2="217.21858" gradientUnits="userSpaceOnUse" id="color-17"><stop offset="0" stop-color="#ec9c21"/><stop offset="1" stop-color="#b75428"/></linearGradient><linearGradient x1="250.39267" y1="211.98988" x2="242.72423" y2="219.70512" gradientUnits="userSpaceOnUse" id="color-18"><stop offset="0" stop-color="#ec9c21"/><stop offset="1" stop-color="#b75428"/></linearGradient></defs><g transform="translate(-202.28841,-134.26306)"><g data-paper-data="{&quot;isPaintingLayer&quot;:true}" fill-rule="nonzero" stroke-linejoin="miter" stroke-miterlimit="10" stroke-dasharray="" stroke-dashoffset="0" style="mix-blend-mode: normal"><path d="M206.80311,163.99485c2.7701,-12.46547 8.48544,-9.17556 16.2875,-12.05c0.46247,-0.17038 -0.41977,-0.96079 -0.32021,-1.44348c0.49957,-2.42203 3.06164,-5.8369 5.97619,-5.18923c5.67958,1.26213 9.98923,8.15101 9.98923,13.97619c0,2.53237 -2.57932,7.12152 -5.97619,5.98923c-1.80868,-0.60289 -4.08968,-1.81497 -4.35962,-3.70227c-0.0725,-0.50687 -0.85803,0.5998 -1.35478,0.72399c-1.49704,0.37426 -3.38887,0.1299 -4.96251,0.24362c-0.35451,0.02562 -7.23155,-0.03442 -7.37961,0.38945c-0.00559,0.01601 -0.01094,0.03229 -0.01606,0.04883c0.01064,0.13649 0.01606,0.27445 0.01606,0.41367c0,0.44321 -0.05492,0.87359 -0.15833,1.28471c-0.57308,2.27845 -2.63539,3.96529 -5.09167,3.96529c-1.4845,0 4.3749,-4.01614 3.41999,-5.00664c-0.41487,-0.293 -1.72501,1.53655 -1.85132,1.03134c-0.3948,-0.73731 -0.61868,0.62014 -0.61868,-0.2747c0,-0.03135 -1.19973,0.53737 -1.19918,0.50615c-0.11683,-0.71238 -2.5516,-0.22767 -2.40082,-0.90615z" fill="#feffc3" stroke="none" stroke-width="0.5" stroke-linecap="butt"/><path d="M247.30311,155.03756c-1.13384,4.53536 -3.07339,7.90845 -7.7898,9.78059c-6.06181,2.40617 -12.94291,-2.18252 -12.94291,-8.6871c0,-7.44443 17.35247,-18.81444 20.73271,-5.29348z" fill="#ff6d6d" stroke="#000000" stroke-width="1" stroke-linecap="butt"/><path d="M230.29846,141.05241l5.24385,3.80712l5.10194,-1.76758l8.65233,-2.1755l0.78659,5.43874l11.59537,2.01862l5.54541,9.59184l-11.44926,5.0301l7.03558,0.2474l8.39014,9.5178l-11.27426,4.351l2.88411,3.18911l8.39014,9.51779l-7.82297,6.90783l-2.14033,3.69772l2.62192,3.26324l-6.5548,0.54387l-1.31095,1.90356l1.57315,6.79843l-39.73927,1.48846l-4.5494,-15.24652l-8.76982,-5.69268l5.34484,-5.31108l1.46237,-3.9216l-6.18712,-3.94903l5.50603,-10.06168l2.09753,-2.1755l-5.50603,-3.80712l1.66671,-1.72866c0.07297,0.20929 0.16568,0.40565 0.2796,0.58447c2.31935,3.64045 9.10725,0.95214 10.32174,-2.43697c0.15853,-0.44238 4.50216,-1.11014 5.06902,-1.2c1.34156,-0.21267 2.46524,-1.68642 3.77575,-1.68803c0.06132,-0.00008 0.12217,-0.00019 0.18255,-0.00036c0.00868,0.41154 0.05863,0.84954 0.1781,1.32741c0.06035,0.24139 2.57916,1.80037 3.14447,2.09631c3.95594,2.07095 4.97442,-6.30682 4.55963,-8.17336c-1.34894,-6.07024 -3.78377,-4.9113 -5.86805,-8.22135c-0.56932,-0.90414 -0.95312,-1.69258 -1.2723,-2.40317z" fill="#000000" stroke="#000000" stroke-width="0.5" stroke-linecap="round"/><path d="M230.83639,143.03419c2.30605,-0.34337 2.5142,3.10452 4.90396,3.57796c2.38977,0.47344 2.82226,-1.09969 4.77126,-1.66119c1.949,-0.5615 5.00886,-3.11556 8.09154,-2.04455c3.08267,1.07101 -0.997,3.59178 0.7356,5.11137c1.7326,1.51959 8.06063,0.00259 10.84382,1.89711c2.78319,1.89453 6.13354,4.5356 5.186,9.01447c-0.94754,4.47887 -7.5609,0.94666 -10.7072,4.72732c-3.1463,3.78067 3.58926,-1.66986 6.57959,0.23251c2.99034,1.90237 8.80727,4.30127 7.84635,8.9449c-0.96094,4.64363 -6.99367,0.88311 -10.54354,4.08909c-3.54987,3.20598 1.03548,1.11503 2.69719,2.99714c1.6617,1.88212 8.80314,4.32124 7.84635,8.94488c-0.95679,4.62366 -4.03944,2.9871 -7.31593,6.49202c-3.27648,3.50492 -3.07583,0.86262 -2.0016,3.47515c1.07423,2.61253 3.56974,1.97946 2.45198,3.06681c-1.11776,1.08737 -3.79334,-0.21949 -6.12996,0.51114c-2.33661,0.73063 -1.25818,0.71522 -1.226,1.78898c0.0322,1.07376 3.38226,4.77081 1.4712,6.38921c-1.91106,1.6184 -35.2166,2.98442 -37.16361,1.39887c-1.94701,-1.58554 -0.53078,-13.18996 -4.25453,-14.32879c-3.72375,-1.13882 -7.03376,-1.58001 -8.20142,-5.35002c-1.16766,-3.77002 3.01477,-2.56672 4.99842,-4.99138c1.98365,-2.42467 2.71318,-1.43294 1.36758,-3.68555c-1.3456,-2.25261 -4.90973,-0.36209 -5.7861,-3.71133c-0.87637,-3.34924 2.87302,-5.77473 5.14915,-9.45603c1.03912,-1.68061 1.67928,-2.00417 2.00382,-1.973c-0.01359,-0.02206 -0.02766,-0.04587 -0.04222,-0.07155c-0.67646,-1.19318 -5.00216,-1.04974 -5.14917,-3.57796c-0.02937,-0.50517 0.0602,-0.92629 0.23811,-1.29196c2.57086,2.96937 8.8346,0.36832 9.99657,-2.87422c0.15853,-0.44238 4.50216,-1.11014 5.06902,-1.2c1.34156,-0.21267 2.46524,-1.68642 3.77575,-1.68803c0.06132,-0.00008 0.12217,-0.00019 0.18255,-0.00036c0.00868,0.41154 0.05863,0.84954 0.1781,1.32741c0.06035,0.24139 2.57916,1.80037 3.14447,2.09631c3.95594,2.07095 4.97442,-6.30682 4.55963,-8.17336c-1.34894,-6.07024 -3.78377,-4.9113 -5.86805,-8.22135c-0.29641,-0.47072 -0.54253,-0.91008 -0.75542,-1.32343c0.2632,-0.22913 0.60014,-0.39061 1.05674,-0.45859z" fill="url(#color-1)" stroke="#000000" stroke-width="1" stroke-linecap="round"/><path d="M245.90902,201.91204c-0.86453,0 -0.86454,-0.9011 -0.86454,-0.9011l0.04437,-0.01542c-0.37988,-1.2313 -0.1747,-2.4064 -0.57636,-3.60439c-1.98769,-6.96008 -10.27274,-4.30345 -14.75626,-2.73413c0,0 -0.82017,0.28495 -1.09356,-0.56991c-0.27339,-0.85486 0.54678,-1.1398 0.54678,-1.1398c5.74896,-1.98035 14.20259,-4.13599 16.94338,3.87393c0.37988,1.2313 0.17469,2.40641 0.57635,3.6044l0.04437,0.58532c0,0 0,0.9011 -0.86453,0.9011z" fill="#050505" stroke="none" stroke-width="0.5" stroke-linecap="butt"/><path d="" fill="url(#color-2)" stroke="#000000" stroke-width="1.5" stroke-linecap="round"/><path d="M212.53576,169.36658l-5.53135,-3.84353l2.22647,-2.32063c0.71311,1.05337 1.81552,1.54901 3.04157,1.63581z" fill="url(#color-3)" stroke="#000000" stroke-width="1.5" stroke-linecap="round"/><path d="M214.11613,183.88281l-8.69211,-1.92175l5.53135,-10.15788" fill="url(#color-4)" stroke="#000000" stroke-width="1.5" stroke-linecap="round"/><path d="M215.67369,198.37268l-11.80721,-6.22769l8.82756,-4.88127" fill="url(#color-5)" stroke="#000000" stroke-width="1.5" stroke-linecap="round"/><path d="M225.81224,199.73515l-5.53135,0.27454l2.89737,-6.03982" fill="none" stroke="#000000" stroke-width="1.5" stroke-linecap="round"/><path d="M236.24153,205.36374l-5.00455,4.66713l-2.63453,-3.43201" fill="none" stroke="#000000" stroke-width="1.5" stroke-linecap="round"/><path d="M253.98829,205.87944l2.96364,7.82461l-8.33073,-3.29445" fill="url(#color-6)" stroke="#000000" stroke-width="1.5" stroke-linecap="round"/><path d="M259.25511,199.53142l2.63398,3.29445l-6.58495,0.54907" fill="url(#color-7)" stroke="#000000" stroke-width="1.5" stroke-linecap="round"/><path d="M255.55225,188.98234l-0.52678,3.29444h-5.00455" fill="none" stroke="#000000" stroke-width="1.5" stroke-linecap="round"/><path d="M232.81736,195.68791l-3.42417,-0.82361l-1.05358,-3.29445" fill="none" stroke="#000000" stroke-width="1.5" stroke-linecap="round"/><path d="M239.92909,202.27681l-3.16077,0.54907l-1.31698,-2.74537" fill="none" stroke="#000000" stroke-width="1.5" stroke-linecap="round"/><path d="M222.54485,168.50872l-3.42417,-1.64723l6.05813,-2.74537l-2.02326,-4.40938c0.67738,-0.11752 1.22887,-0.20289 1.40708,-0.23114c1.34156,-0.21267 2.46524,-1.68642 3.77575,-1.68803c0.06132,-0.00008 0.12216,-0.00019 0.18254,-0.00036c0.00868,0.41154 0.05863,0.84953 0.1781,1.3274c0.06035,0.24139 2.57916,1.80037 3.14447,2.09631c2.48805,1.3025 3.81414,-1.52815 4.3525,-4.27253l2.15272,3.05968z" fill="url(#color-8)" stroke="#000000" stroke-width="1.5" stroke-linecap="round"/><path d="M240.98269,157.80178l3.16077,-4.11807l3.68756,1.09815l6.32154,-2.74537l2.63398,7.13797l5.26795,0.27453l-5.26795,7.13798" fill="url(#color-9)" stroke="#000000" stroke-width="1.5" stroke-linecap="round"/><path d="M263.37147,181.96105l8.42873,9.6088l-11.3261,4.3926" fill="url(#color-10)" stroke="#000000" stroke-width="1.5" stroke-linecap="round"/><path d="M229.92,143.29832l5.26795,3.84352l-2.01007,0.2993c-0.87382,-0.6613 -1.78781,-1.2671 -2.64281,-2.62493c-0.29771,-0.4728 -0.54469,-0.91395 -0.75823,-1.32888z" fill="url(#color-11)" stroke="#000000" stroke-width="1.5" stroke-linecap="round"/><path d="M241.10354,144.39617l8.69211,-2.1963l0.79019,7.65339" fill="url(#color-12)" stroke="#000000" stroke-width="1.5" stroke-linecap="round"/><g><g stroke-linecap="butt"><path d="M226.37377,170.97299c0,0 5.44402,0.95977 7.81028,2.08048c2.18664,1.03565 4.727,-0.31625 4.727,-0.31625c0,0 -1.27766,6.09934 -3.96269,8.37261c-1.9034,1.6115 -4.511,2.40788 -5.81404,1.79073c-3.14117,-1.48773 -2.76055,-11.92755 -2.76055,-11.92755z" fill="#ffffff" stroke="#000000" stroke-width="2.5"/><path d="M226.5428,175.02808c0.28142,-0.64551 0.4185,-3.4784 0.4185,-3.4784c0,0 4.94962,0.38854 7.30434,1.50379c2.27408,1.07706 4.73006,-2.1831 4.94997,-0.16895c0.08385,0.76796 -1.31378,5.79882 -1.62406,6.51052c-0.33773,0.77466 -0.80455,1.22629 -1.49172,1.67668c-0.13816,0.09055 -0.60831,0.25922 -0.7571,0.33577c-0.9156,0.47107 -1.45033,1.77991 -2.61043,1.68041c0.72095,-0.43493 1.43294,-1.08844 1.75052,-1.67568c0.35512,-0.65669 0.74936,-0.90942 0.73893,-1.93298c-0.05769,-5.66296 -6.93261,-4.83114 -8.92033,-1.68314c-0.20348,-0.93959 -0.13923,-1.89497 0.24139,-2.76801z" data-paper-data="{&quot;index&quot;:null}" fill-opacity="0.53226" fill="#0c0067" stroke="none" stroke-width="0"/></g><path d="M239.90035,167.70609l-0.59957,4.52923l-13.09408,-2.45492l0.70812,-5.48041" data-paper-data="{&quot;index&quot;:null}" fill="url(#color-13)" stroke="#000000" stroke-width="1" stroke-linecap="round"/><path d="M230.40272,176.68581c0,-0.56319 0.43803,-1.01974 0.97836,-1.01974c0.54033,0 0.97835,0.45655 0.97835,1.01974c0,0.56319 -0.43802,1.01974 -0.97835,1.01974c-0.54033,0 -0.97836,-0.45655 -0.97836,-1.01974z" fill="#050505" stroke="none" stroke-width="0.5" stroke-linecap="butt"/></g><g data-paper-data="{&quot;index&quot;:null}"><g stroke-linecap="butt"><path d="M252.87632,182.56071c-3.14117,1.48773 -10.17673,-9.56333 -10.17673,-9.56333c0,0 2.94037,0.75189 5.127,-0.28375c2.36625,-1.12071 7.81028,-2.08048 7.81028,-2.08048c0,0 0.38061,10.43983 -2.76055,11.92755z" fill="#ffffff" stroke="#000000" stroke-width="2.5"/><path d="M255.70923,177.45627c-1.98772,-3.148 -8.86263,-3.97982 -8.92033,1.68314c-0.01044,1.02357 0.38381,1.27629 0.73893,1.93298c0.31757,0.58724 1.02956,1.24075 1.75051,1.67569c-1.1601,0.0995 -1.69483,-1.20933 -2.61043,-1.68041c-0.14879,-0.07655 -0.61894,-0.24523 -0.7571,-0.33578c-0.68718,-0.4504 -1.154,-0.90203 -1.49172,-1.67669c-0.31028,-0.7117 -2.1079,-4.54254 -2.02406,-5.3105c0.21991,-2.01415 3.07588,0.04599 5.34997,-1.03107c2.35473,-1.11525 7.30434,-1.50379 7.30434,-1.50379c0,0 0.13707,2.83289 0.41849,3.4784c0.38063,0.87305 0.44488,1.82843 0.2414,2.76802z" data-paper-data="{&quot;index&quot;:null}" fill-opacity="0.53226" fill="#0c0067" stroke="none" stroke-width="0"/></g><path d="M254.89582,164.56014l0.70812,5.48041l-12.09409,2.85492l-1.99957,-3.52922" data-paper-data="{&quot;index&quot;:null}" fill="url(#color-14)" stroke="#000000" stroke-width="1" stroke-linecap="round"/><path d="M249.24676,177.76571c-0.54033,0 -0.97835,-0.45655 -0.97835,-1.01974c0,-0.56319 0.43802,-1.01974 0.97835,-1.01974c0.54033,0 0.97836,0.45655 0.97836,1.01974c0,0.56319 -0.43803,1.01974 -0.97836,1.01974z" fill="#050505" stroke="none" stroke-width="0.5" stroke-linecap="butt"/></g><path d="M263.37147,164.74005l8.42873,9.6088l-11.3261,4.3926" fill="url(#color-15)" stroke="#000000" stroke-width="1.5" stroke-linecap="round"/><path d="M259.95431,150.02234l10.3871,7.70769l-11.50191,5.0782" data-paper-data="{&quot;index&quot;:null}" fill="url(#color-16)" stroke="#000000" stroke-width="1.5" stroke-linecap="round"/><path d="M229.46823,212.454l-10.59502,1.43528l-0.6345,-9.29101" fill="url(#color-17)" stroke="#000000" stroke-width="1.5" stroke-linecap="round"/><path d="M246.98948,209.00715l-2.24829,7.36867l-8.98123,-5.76056" data-paper-data="{&quot;index&quot;:null}" fill="url(#color-18)" stroke="#000000" stroke-width="1.5" stroke-linecap="round"/><g><path d="M234.53632,148.31675l-2.74747,-8.30013c4.70441,1.8643 4.86447,-1.16277 8.65335,-4.66485c0.03037,-0.02807 0.06108,-0.05587 0.09213,-0.08344l0.97595,0.87555v12.48498z" fill="#c17f40" stroke="#000000" stroke-width="1.5" stroke-linecap="round"/><path d="M234.06168,147.7126l-2.59068,-7.82646c1.50484,0.6383 2.56567,0.80775 3.41796,0.6356c1.17684,3.33049 1.49737,7.15617 1.49737,7.15617z" fill="#eca869" stroke="none" stroke-width="0" stroke-linecap="round"/><path d="M238.03883,147.98624c-1.30762,0 -1.30762,-1.17047 -1.30762,-1.17047v-0.31213c0,-2.26866 -0.80469,-4.12353 -1.35471,-6.12489c1.66122,-0.64776 2.58679,-2.7357 5.0657,-5.02697c0.03438,-0.03177 0.0692,-0.06321 0.10444,-0.09435c-0.08598,0.27657 -0.25763,0.56873 -0.54163,0.87379c-0.20847,0.22392 0.15977,1.3144 -0.05426,1.45749c0.21273,3.16953 -0.60429,5.66032 -0.60429,8.91495v0.31213c0,0 0,1.17047 -1.30762,1.17047z" fill="#8e5122" stroke="none" stroke-width="0.5" stroke-linecap="butt"/></g></g></g></svg>