<svg version="1.1" xmlns="http://www.w3.org/2000/svg" xmlns:xlink="http://www.w3.org/1999/xlink" width="70.78272" height="97.33413" viewBox="0,0,70.78272,97.33413"><defs><linearGradient x1="237.90238" y1="142.9064" x2="237.90238" y2="213.64995" gradientUnits="userSpaceOnUse" id="color-1"><stop offset="0" stop-color="#ec9c21"/><stop offset="1" stop-color="#b75428"/></linearGradient><linearGradient x1="216.88181" y1="150.93834" x2="216.88181" y2="157.52723" gradientUnits="userSpaceOnUse" id="color-2"><stop offset="0" stop-color="#ec9c21"/><stop offset="1" stop-color="#b75428"/></linearGradient><linearGradient x1="209.77009" y1="160.30685" x2="209.77009" y2="169.36657" gradientUnits="userSpaceOnUse" id="color-3"><stop offset="0" stop-color="#ec9c21"/><stop offset="1" stop-color="#b75428"/></linearGradient><linearGradient x1="209.77008" y1="171.80317" x2="209.77008" y2="183.88281" gradientUnits="userSpaceOnUse" id="color-4"><stop offset="0" stop-color="#ec9c21"/><stop offset="1" stop-color="#b75428"/></linearGradient><linearGradient x1="208.27155" y1="186.78313" x2="208.27155" y2="197.89209" gradientUnits="userSpaceOnUse" id="color-5"><stop offset="0" stop-color="#ec9c21"/><stop offset="1" stop-color="#b75428"/></linearGradient><linearGradient x1="251.5186" y1="206.84062" x2="251.5186" y2="213.70405" gradientUnits="userSpaceOnUse" id="color-6"><stop offset="0" stop-color="#ec9c21"/><stop offset="1" stop-color="#b75428"/></linearGradient><linearGradient x1="258.59663" y1="199.53142" x2="258.59663" y2="203.37494" gradientUnits="userSpaceOnUse" id="color-7"><stop offset="0" stop-color="#ec9c21"/><stop offset="1" stop-color="#b75428"/></linearGradient><linearGradient x1="229.52489" y1="151.76195" x2="229.52489" y2="168.50872" gradientUnits="userSpaceOnUse" id="color-8"><stop offset="0" stop-color="#ec9c21" stop-opacity="0.59677"/><stop offset="1" stop-color="#b75428" stop-opacity="0.37097"/></linearGradient><linearGradient x1="251.51859" y1="152.03648" x2="251.51859" y2="166.58695" gradientUnits="userSpaceOnUse" id="color-9"><stop offset="0" stop-color="#ec9c21" stop-opacity="0.58871"/><stop offset="1" stop-color="#b75428" stop-opacity="0.64516"/></linearGradient><linearGradient x1="266.13715" y1="181.96105" x2="266.13715" y2="195.96244" gradientUnits="userSpaceOnUse" id="color-10"><stop offset="0" stop-color="#ec9c21"/><stop offset="1" stop-color="#b75428"/></linearGradient><linearGradient x1="230.57849" y1="143.29831" x2="230.57849" y2="148.51453" gradientUnits="userSpaceOnUse" id="color-11"><stop offset="0" stop-color="#ec9c21"/><stop offset="1" stop-color="#b75428"/></linearGradient><linearGradient x1="245.84469" y1="142.19988" x2="245.84469" y2="147.69062" gradientUnits="userSpaceOnUse" id="color-12"><stop offset="0" stop-color="#ec9c21"/><stop offset="1" stop-color="#b75428"/></linearGradient><linearGradient x1="236.32228" y1="167.48641" x2="229.50346" y2="174.18606" gradientUnits="userSpaceOnUse" id="color-13"><stop offset="0" stop-color="#ec9c21"/><stop offset="1" stop-color="#b75428"/></linearGradient><linearGradient x1="245.68835" y1="167.14657" x2="252.50717" y2="173.84622" gradientUnits="userSpaceOnUse" id="color-14"><stop offset="0" stop-color="#ec9c21"/><stop offset="1" stop-color="#b75428"/></linearGradient><linearGradient x1="266.13715" y1="164.74005" x2="266.13715" y2="178.74145" gradientUnits="userSpaceOnUse" id="color-15"><stop offset="0" stop-color="#ec9c21"/><stop offset="1" stop-color="#b75428"/></linearGradient><linearGradient x1="261.35402" y1="164.00851" x2="266.94743" y2="151.2786" gradientUnits="userSpaceOnUse" id="color-16"><stop offset="0" stop-color="#ec9c21"/><stop offset="1" stop-color="#b75428"/></linearGradient><linearGradient x1="213.22172" y1="209.50333" x2="220.89014" y2="217.21858" gradientUnits="userSpaceOnUse" id="color-17"><stop offset="0" stop-color="#ec9c21"/><stop offset="1" stop-color="#b75428"/></linearGradient><linearGradient x1="250.39267" y1="211.98988" x2="242.72423" y2="219.70512" gradientUnits="userSpaceOnUse" id="color-18"><stop offset="0" stop-color="#ec9c21"/><stop offset="1" stop-color="#b75428"/></linearGradient></defs><g transform="translate(-202.28841,-120.2075)"><g data-paper-data="{&quot;isPaintingLayer&quot;:true}" fill-rule="nonzero" stroke-linejoin="miter" stroke-miterlimit="10" stroke-dasharray="" stroke-dashoffset="0" style="mix-blend-mode: normal"><path d="M213.35311,153.39992c0.50614,-0.88575 0.67996,-2.10607 1.3865,-2.79007c0.10775,-0.10431 0.2279,-0.19616 0.3635,-0.27243c2.66133,-1.49703 6.09701,-0.38241 9.15,-0.4375c1.24614,-0.02249 1.51957,-3.98465 4.92808,-3.30295c5.35595,1.07119 3.98153,7.40882 1.02848,9.93779c-1.02004,0.87356 -5.62999,1.72709 -6.82848,1.66811c-1.245,-0.06127 -2.26755,-1.15449 -3.50519,-1.30295c-1.59641,-0.1915 -4.00154,0.91236 -4.79926,-0.48365z" fill="#feffc3" stroke="none" stroke-width="0.5" stroke-linecap="butt"/><path d="M214.56695,156.09862l-0.76256,-3.79628c1.68555,1.14099 3.14552,3.38332 5.3887,2.90545c1.54903,-0.32999 4.65796,0.04258 6.13502,-0.88898c0.44995,-0.28378 0.67033,-1.02115 1.2015,-1.05037c3.36571,-0.18515 6.82211,-0.06478 5.06797,-5.32719c-0.56457,-1.69371 -2.30455,-2.51636 -4.36542,-2.8605l3.0663,-4.02834l5.24385,3.80712l5.10194,-1.76758l8.65233,-2.1755l0.78659,5.43874l11.59537,2.01862l5.54541,9.59184l-11.44926,5.0301l7.03558,0.2474l8.39014,9.5178l-11.27426,4.351l2.88411,3.18911l8.39014,9.51779l-7.82297,6.90783l-2.14033,3.69772l2.62192,3.26324l-6.5548,0.54387l-1.31095,1.90356l1.57315,6.79843l-39.73927,1.48846l-4.5494,-15.24652l-8.76982,-5.69268l5.34484,-5.31108l1.46237,-3.9216l-6.18712,-3.94903l5.50603,-10.06168l2.09753,-2.1755l-5.50603,-3.80712l4.98164,-5.1668l1.90873,-1.45116z" fill="#000000" stroke="#000000" stroke-width="0.5" stroke-linecap="round"/><path d="M216.12448,157.17473c-1.49237,-1.01911 -2.35393,-2.92108 -1.97363,-4.62139c1.54456,1.18685 2.95404,3.09931 5.04225,2.65445c1.54903,-0.32999 4.65796,0.04258 6.13502,-0.88898c0.44995,-0.28378 0.67033,-1.02115 1.2015,-1.05037c3.36571,-0.18515 6.82211,-0.06478 5.06797,-5.32719c-0.42088,-1.26265 -1.49502,-2.04121 -2.86836,-2.49829c0.44951,-1.17685 0.74879,-2.20651 2.10716,-2.40877c2.30605,-0.34337 2.5142,3.10452 4.90396,3.57796c2.38977,0.47344 2.82226,-1.09969 4.77126,-1.66119c1.949,-0.5615 5.00886,-3.11556 8.09154,-2.04455c3.08267,1.07101 -0.997,3.59178 0.7356,5.11137c1.7326,1.51959 8.06063,0.00259 10.84382,1.89711c2.78319,1.89453 6.13354,4.5356 5.186,9.01447c-0.94754,4.47887 -7.5609,0.94666 -10.7072,4.72732c-3.1463,3.78067 3.58926,-1.66986 6.57959,0.23251c2.99034,1.90237 8.80727,4.30127 7.84635,8.9449c-0.96094,4.64363 -6.99367,0.88311 -10.54354,4.08909c-3.54987,3.20598 1.03548,1.11503 2.69719,2.99714c1.6617,1.88212 8.80314,4.32124 7.84635,8.94488c-0.95679,4.62366 -4.03944,2.9871 -7.31593,6.49202c-3.27648,3.50492 -3.07583,0.86262 -2.0016,3.47515c1.07423,2.61253 3.56974,1.97946 2.45198,3.06681c-1.11776,1.08737 -3.79334,-0.21949 -6.12996,0.51114c-2.33661,0.73063 -1.25818,0.71522 -1.226,1.78898c0.0322,1.07376 3.38226,4.77081 1.4712,6.38921c-1.91106,1.6184 -35.2166,2.98442 -37.16361,1.39887c-1.94701,-1.58554 -0.53078,-13.18996 -4.25453,-14.32879c-3.72375,-1.13882 -7.03376,-1.58001 -8.20142,-5.35002c-1.16766,-3.77002 3.01477,-2.56672 4.99842,-4.99138c1.98365,-2.42467 2.71318,-1.43294 1.36758,-3.68555c-1.3456,-2.25261 -4.90973,-0.36209 -5.7861,-3.71133c-0.87637,-3.34924 2.87302,-5.77473 5.14915,-9.45603c1.03912,-1.68061 1.67928,-2.00417 2.00382,-1.973c-0.01359,-0.02206 -0.02766,-0.04587 -0.04222,-0.07155c-0.67646,-1.19318 -5.00216,-1.04974 -5.14917,-3.57796c-0.14701,-2.52822 2.68532,-2.951 4.65877,-4.8558c1.97345,-1.9048 1.91398,-0.4245 1.78501,-1.36381z" fill="url(#color-1)" stroke="#000000" stroke-width="1" stroke-linecap="round"/><path d="M245.90902,201.91204c-0.86453,0 -0.86454,-0.9011 -0.86454,-0.9011l0.04437,-0.01542c-0.37988,-1.2313 -0.1747,-2.4064 -0.57636,-3.60439c-1.98769,-6.96008 -10.27274,-4.30345 -14.75626,-2.73413c0,0 -0.82017,0.28495 -1.09356,-0.56991c-0.27339,-0.85486 0.54678,-1.1398 0.54678,-1.1398c5.74896,-1.98035 14.20259,-4.13599 16.94338,3.87393c0.37988,1.2313 0.17469,2.40641 0.57635,3.6044l0.04437,0.58532c0,0 0,0.9011 -0.86453,0.9011z" fill="#050505" stroke="none" stroke-width="0.5" stroke-linecap="butt"/><path d="M214.90633,157.52723l-1.03519,-5.17906c1.07772,0.75031 2.06808,1.93318 3.2375,2.5393z" fill="url(#color-2)" stroke="#000000" stroke-width="1.5" stroke-linecap="round"/><path d="M212.53576,169.36658l-5.53135,-3.84353l5.00455,-5.21621" fill="url(#color-3)" stroke="#000000" stroke-width="1.5" stroke-linecap="round"/><path d="M214.11613,183.88281l-8.69211,-1.92175l5.53135,-10.15788" fill="url(#color-4)" stroke="#000000" stroke-width="1.5" stroke-linecap="round"/><path d="M215.67369,198.37268l-11.80721,-6.22769l8.82756,-4.88127" fill="url(#color-5)" stroke="#000000" stroke-width="1.5" stroke-linecap="round"/><path d="M225.81224,199.73515l-5.53135,0.27454l2.89737,-6.03982" fill="none" stroke="#000000" stroke-width="1.5" stroke-linecap="round"/><path d="M236.24153,205.36374l-5.00455,4.66713l-2.63453,-3.43201" fill="none" stroke="#000000" stroke-width="1.5" stroke-linecap="round"/><path d="M253.98829,205.87944l2.96364,7.82461l-8.33073,-3.29445" fill="url(#color-6)" stroke="#000000" stroke-width="1.5" stroke-linecap="round"/><path d="M259.25511,199.53142l2.63398,3.29445l-6.58495,0.54907" fill="url(#color-7)" stroke="#000000" stroke-width="1.5" stroke-linecap="round"/><path d="M255.55225,188.98234l-0.52678,3.29444h-5.00455" fill="none" stroke="#000000" stroke-width="1.5" stroke-linecap="round"/><path d="M232.81736,195.68791l-3.42417,-0.82361l-1.05358,-3.29445" fill="none" stroke="#000000" stroke-width="1.5" stroke-linecap="round"/><path d="M239.92909,202.27681l-3.16077,0.54907l-1.31698,-2.74537" fill="none" stroke="#000000" stroke-width="1.5" stroke-linecap="round"/><path d="M222.54485,168.50872l-3.42417,-1.64723l6.05813,-2.74537l-2.89737,-6.31436l8.69211,-1.09815l1.58039,-4.94167l5.79475,8.23612" fill="url(#color-8)" stroke="#000000" stroke-width="1.5" stroke-linecap="round"/><path d="M240.98269,157.80178l3.16077,-4.11807l3.68756,1.09815l6.32154,-2.74537l2.63398,7.13797l5.26795,0.27453l-5.26795,7.13798" fill="url(#color-9)" stroke="#000000" stroke-width="1.5" stroke-linecap="round"/><path d="M263.37147,181.96105l8.42873,9.6088l-11.3261,4.3926" fill="url(#color-10)" stroke="#000000" stroke-width="1.5" stroke-linecap="round"/><path d="M229.92,143.29832l5.26795,3.84352l-3.68508,0.54871c-0.5161,-1.2167 -1.6816,-1.94515 -3.12526,-2.3559z" fill="url(#color-11)" stroke="#000000" stroke-width="1.5" stroke-linecap="round"/><path d="M241.10354,144.39617l8.69211,-2.1963l0.79019,7.65339" fill="url(#color-12)" stroke="#000000" stroke-width="1.5" stroke-linecap="round"/><g><g stroke-linecap="butt"><path d="M226.37377,170.97299c0,0 5.44402,0.95977 7.81028,2.08048c2.18664,1.03565 4.927,4.88375 4.927,4.88375c0,0 -6.83557,6.45106 -9.97673,4.96334c-3.14117,-1.48773 -2.76055,-11.92755 -2.76055,-11.92755z" fill="#ffffff" stroke="#000000" stroke-width="2.5"/><path d="M226.5428,175.02808c0.28142,-0.64551 0.4185,-3.4784 0.4185,-3.4784c0,0 4.94962,0.38854 7.30434,1.50379c2.27408,1.07706 4.33006,3.0169 4.54997,5.03105c0.08385,0.76796 -0.91378,0.59882 -1.22406,1.31052c-0.33773,0.77466 -0.80455,1.22629 -1.49172,1.67668c-0.13816,0.09055 -0.60831,0.25922 -0.7571,0.33577c-0.9156,0.47107 -1.45033,1.77991 -2.61043,1.68041c0.72095,-0.43493 1.43294,-1.08844 1.75052,-1.67568c0.35512,-0.65669 0.74936,-0.90942 0.73893,-1.93298c-0.05769,-5.66296 -6.93261,-4.83114 -8.92033,-1.68314c-0.20348,-0.93959 -0.13923,-1.89497 0.24139,-2.76801z" data-paper-data="{&quot;index&quot;:null}" fill-opacity="0.53226" fill="#0c0067" stroke="none" stroke-width="0"/></g><path d="M240.50035,172.10609l-0.99957,5.12923l-13.09408,-6.85492l0.70812,-5.48041" data-paper-data="{&quot;index&quot;:null}" fill="url(#color-13)" stroke="#000000" stroke-width="1" stroke-linecap="round"/><path d="M230.40272,176.68581c0,-0.56319 0.43803,-1.01974 0.97836,-1.01974c0.54033,0 0.97835,0.45655 0.97835,1.01974c0,0.56319 -0.43802,1.01974 -0.97835,1.01974c-0.54033,0 -0.97836,-0.45655 -0.97836,-1.01974z" fill="#050505" stroke="none" stroke-width="0.5" stroke-linecap="butt"/></g><g data-paper-data="{&quot;index&quot;:null}"><g stroke-linecap="butt"><path d="M252.87632,182.56071c-3.14117,1.48773 -9.97673,-4.96333 -9.97673,-4.96333c0,0 2.74037,-3.84811 4.927,-4.88375c2.36625,-1.12071 7.81028,-2.08048 7.81028,-2.08048c0,0 0.38061,10.43983 -2.76055,11.92755z" fill="#ffffff" stroke="#000000" stroke-width="2.5"/><path d="M255.70923,177.45627c-1.98772,-3.148 -8.86263,-3.97982 -8.92033,1.68314c-0.01044,1.02357 0.38381,1.27629 0.73893,1.93298c0.31757,0.58724 1.02956,1.24075 1.75051,1.67569c-1.1601,0.0995 -1.69483,-1.20933 -2.61043,-1.68041c-0.14879,-0.07655 -0.61894,-0.24523 -0.7571,-0.33578c-0.68718,-0.4504 -1.154,-0.90203 -1.49172,-1.67669c-0.31028,-0.7117 -1.3079,-0.54254 -1.22406,-1.3105c0.21991,-2.01415 2.27588,-3.95401 4.54997,-5.03107c2.35473,-1.11525 7.30434,-1.50379 7.30434,-1.50379c0,0 0.13707,2.83289 0.41849,3.4784c0.38063,0.87305 0.44488,1.82843 0.2414,2.76802z" data-paper-data="{&quot;index&quot;:null}" fill-opacity="0.53226" fill="#0c0067" stroke="none" stroke-width="0"/></g><path d="M254.89582,164.56014l0.70812,5.48041l-13.09409,6.85492l-0.99957,-5.12922" data-paper-data="{&quot;index&quot;:null}" fill="url(#color-14)" stroke="#000000" stroke-width="1" stroke-linecap="round"/><path d="M249.24676,177.76571c-0.54033,0 -0.97835,-0.45655 -0.97835,-1.01974c0,-0.56319 0.43802,-1.01974 0.97835,-1.01974c0.54033,0 0.97836,0.45655 0.97836,1.01974c0,0.56319 -0.43803,1.01974 -0.97836,1.01974z" fill="#050505" stroke="none" stroke-width="0.5" stroke-linecap="butt"/></g><path d="M263.37147,164.74005l8.42873,9.6088l-11.3261,4.3926" fill="url(#color-15)" stroke="#000000" stroke-width="1.5" stroke-linecap="round"/><path d="M259.95431,150.02234l10.3871,7.70769l-11.50191,5.0782" data-paper-data="{&quot;index&quot;:null}" fill="url(#color-16)" stroke="#000000" stroke-width="1.5" stroke-linecap="round"/><path d="M229.46823,212.454l-10.59502,1.43528l-0.6345,-9.29101" fill="url(#color-17)" stroke="#000000" stroke-width="1.5" stroke-linecap="round"/><path d="M246.98948,209.00715l-2.24829,7.36867l-8.98123,-5.76056" data-paper-data="{&quot;index&quot;:null}" fill="url(#color-18)" stroke="#000000" stroke-width="1.5" stroke-linecap="round"/><g><path d="M234.53632,148.31675l-2.78959,-8.42737l-11.60672,-11.3368c0,0 -3.05254,-1.1245 1.40729,-5.23182c5.38183,-4.95646 5.02552,-0.57752 5.02552,-0.57752l14.93746,13.40064v12.48498" fill="#c17f40" stroke="#000000" stroke-width="1.5" stroke-linecap="round"/><path d="M234.06168,147.7126l-2.78959,-8.42737l-11.21927,-12.03042c0,0 8.88625,5.71154 12.70051,9.48709c2.96241,2.93236 3.633,10.93601 3.633,10.93601z" fill="#eca869" stroke="none" stroke-width="0" stroke-linecap="round"/><path d="M238.03883,147.98624c-1.30762,0 -1.30762,-1.17047 -1.30762,-1.17047v-0.31213c0,-3.15966 -1.56088,-5.51668 -1.82076,-8.58471c-0.65417,-0.20153 -0.80084,-1.17794 -0.80084,-1.17794l-1.38842,-1.47384c-3.7296,-2.51463 -7.13352,-5.41384 -10.43905,-8.36893c0,0 -1.31611,0.07909 -1.29762,-1.08155c0.00898,-0.564 0.59208,-2.14926 1.29762,-2.78079c0.2636,-0.23595 1.78639,-0.71771 2.04605,-0.84892c1.86559,-0.94263 2.26887,0.84892 2.26887,0.84892c3.09134,2.77084 6.28191,5.52096 9.78546,7.86154l2.2148,1.64742c0,0 3.36097,1.48829 1.40769,3.58637c-0.20847,0.22392 0.15977,1.3144 -0.05426,1.45749c0.21273,3.16953 -0.60429,5.66032 -0.60429,8.91495v0.31213c0,0 0,1.17047 -1.30762,1.17047z" fill="#8e5122" stroke="none" stroke-width="0.5" stroke-linecap="butt"/></g></g></g></svg>