<svg version="1.1" xmlns="http://www.w3.org/2000/svg" xmlns:xlink="http://www.w3.org/1999/xlink" width="52.65044" height="72.87864" viewBox="0,0,52.65044,72.87864"><g transform="translate(-213.08343,-143.56068)"><g data-paper-data="{&quot;isPaintingLayer&quot;:true}" fill-rule="nonzero" stroke-linecap="butt" stroke-linejoin="miter" stroke-miterlimit="10" stroke-dasharray="" stroke-dashoffset="0" style="mix-blend-mode: normal"><path d="M264.48387,179.25c0,2.69796 -0.10813,5.33946 -0.34175,7.88818c-0.604,0.85754 -1.05551,1.81837 -1.28343,2.844l0.16676,0.25014c-2.33617,1.33495 -2.67292,4.34884 -1.82803,7.1346c-1.06558,0.60405 -1.88074,1.78691 -2.30758,3.83575c-0.23037,1.10578 0.07656,2.12891 0.72888,3.021c-3.60457,6.72009 -9.47554,10.96565 -18.46007,10.96565c-17.71466,0 -26.82522,-15.0048 -26.82522,-34.43932c0,-19.43453 9.11057,-35.93932 26.82522,-35.93932c17.71466,0 23.32522,15.0048 23.32522,34.43932z" fill="#a16a04" stroke="#ab8c53" stroke-width="2.5"/><path d="M246.88985,164.70267c0,5.79899 -4.02944,10.5 -9,10.5c-4.97056,0 -9,-4.70101 -9,-10.5c0,-5.79899 4.02944,-10.5 9,-10.5c4.97056,0 9,4.70101 9,10.5z" fill="#edeee1" stroke="#000000" stroke-width="2.5"/><path d="M262.88985,166.95267c0,6.62742 -3.41383,12 -7.625,12c-4.21117,0 -7.625,-5.37258 -7.625,-12c0,-6.62742 3.41383,-12 7.625,-12c4.21117,0 7.625,5.37258 7.625,12z" fill="#edeee1" stroke="#000000" stroke-width="2.5"/><path d="M238.13985,164.70267c0,-1.38071 1.11929,-2.5 2.5,-2.5c1.38071,0 2.5,1.11929 2.5,2.5c0,1.38071 -1.11929,2.5 -2.5,2.5c-1.38071,0 -2.5,-1.11929 -2.5,-2.5z" fill="#050505" stroke="none" stroke-width="0.5"/><path d="M255.38985,165.45267c0,-1.38071 1.11929,-2.5 2.5,-2.5c1.38071,0 2.5,1.11929 2.5,2.5c0,1.38071 -1.11929,2.5 -2.5,2.5c-1.38071,0 -2.5,-1.11929 -2.5,-2.5z" fill="#050505" stroke="none" stroke-width="0.5"/><path d="M221.79884,166.80469c0.1691,-0.04258 0.37445,-0.06712 0.58098,-0.08138c0.21173,-0.28913 0.73474,-0.80582 1.56904,-0.38868c1.11803,0.55902 0.55902,1.67705 0.55902,1.67705l-1.36803,1.19098c-0.53776,-0.0029 -3.27102,-0.01496 -3.29249,-0.03332c-0.57332,-0.49043 -0.35656,-1.469 -0.45751,-2.21668c-0.06901,-0.51113 0.67231,-1.30976 0.20751,-1.53332c-0.51994,-0.25008 -1.13056,0.28332 -1.70751,0.28332c0,0 -1.25,0 -1.25,-1.25c0,-1.25 1.25,-1.25 1.25,-1.25c0.68736,0 2.89931,-0.05725 3.29249,0.28332c0.55628,0.48186 0.55426,1.37241 0.70143,2.09351c0.05699,0.27925 0.00924,0.81788 -0.08492,1.2252z" fill="#050505" stroke="none" stroke-width="0.5"/><path d="M222.33322,191.16261c1.04006,0.69338 0.34669,1.73344 0.34669,1.73344l-1.54006,1.30662c-1.45779,-0.02212 -3.40659,-1.43515 -4.28576,-0.8394c0,0 -1.1606,0.46424 -1.62483,-0.69636c-0.46424,-1.1606 0.69636,-1.62483 0.69636,-1.62483c2.51615,-0.77517 2.87761,0.71259 5.21424,0.6606l-0.54006,-0.19338c0,0 0.69338,-1.04006 1.73344,-0.34669z" fill="#050505" stroke="none" stroke-width="0.5"/><path d="M249.33322,203.49273c-1.04006,0.69338 -1.73344,-0.34669 -1.73344,-0.34669l0.54006,-0.19338c-6.5107,0 -12.96321,-1 -19.5,-1c0,0 -1.25,0 -1.25,-1.25c0,-1.25 1.25,-1.25 1.25,-1.25c6.53716,0 12.9915,1 19.5,1l1.54006,1.30662c0,0 0.69338,1.04006 -0.34669,1.73344z" fill="#050505" stroke="none" stroke-width="0.5"/><path d="M260.16497,185.92894c-0.26248,0.20089 -0.96075,0.60588 -1.65901,-0.09238c-0.88388,-0.88388 0,-1.76777 0,-1.76777l1.13388,-0.61612c2.41481,0.05373 2.33683,-1.80699 3.86612,-3.38388c0,0 0.88388,-0.88388 1.76777,0c0.88388,0.88388 0,1.76777 0,1.76777c-2.01406,1.92753 -2.04183,3.85325 -5.10876,4.09238z" fill="#050505" stroke="none" stroke-width="0.5"/><path d="M235.0531,180.52403c0.36403,0.11397 0.83674,0.40995 0.83674,1.17864c0,1.25 -1.25,1.25 -1.25,1.25l-1.32187,-0.60688c-0.96887,-2.12014 -2.9312,0.28808 -4.64481,-1.35063c-0.68969,-0.65954 -0.04368,-1.96195 -0.44392,-2.82825c0,0 -0.46424,-1.1606 0.69636,-1.62483c1.1606,-0.46424 1.62483,0.69636 1.62483,0.69636c0.19472,0.53332 0.56951,1.03239 0.58417,1.59995c0.00149,0.0576 -0.02432,0.10503 -0.06523,0.14682c0.02393,-0.01576 0.04754,-0.0271 0.07047,-0.03253c0.44541,-0.10547 0.92041,-0.06116 1.37317,0.00608c0.97593,0.14494 1.87498,0.78891 2.54008,1.56527zM230.99415,179.04703c-0.1591,0.11043 -0.39547,0.19178 -0.38762,0.36316c0.00852,0.18597 0.19643,-0.17862 0.38762,-0.36316z" fill="#050505" stroke="none" stroke-width="0.5"/></g></g></svg>