<svg version="1.1" xmlns="http://www.w3.org/2000/svg" xmlns:xlink="http://www.w3.org/1999/xlink" width="65.52949" height="48.25864" viewBox="0,0,65.52949,48.25864"><g transform="translate(-201.02123,-162.55108)"><g data-paper-data="{&quot;isPaintingLayer&quot;:true}" fill-rule="nonzero" stroke-linecap="butt" stroke-linejoin="miter" stroke-miterlimit="10" stroke-dasharray="" stroke-dashoffset="0" style="mix-blend-mode: normal"><path d="M201.56739,182.70416c-0.39707,-1.84295 24.56292,-4.39647 24.56292,-4.39647l0.81831,8.48923c0,0 -24.95082,-2.09498 -25.38124,-4.09275z" fill="#05ff27" stroke="#07ba19" stroke-width="1"/><path d="M206.18485,198.1861c-1.49483,-1.14875 15.88985,-19.24003 15.88985,-19.24003l6.11482,5.94521c0,0 -20.38428,14.54007 -22.00467,13.29482z" fill="#05ff27" stroke="#07ba19" stroke-width="1"/><path d="M203.04041,187.1452c-0.48949,-1.82059 24.31002,-5.62929 24.31002,-5.62929l1.24528,8.43717c0,0 -25.02471,-0.83435 -25.55531,-2.80788z" fill="#05ff27" stroke="#07ba19" stroke-width="1"/><path d="M208.5975,200.72183c-1.49555,-2.17178 18.99326,-17.15866 18.99326,-17.15866l5.9951,10.47843c0,0 -23.36718,9.03444 -24.98836,6.68023z" fill="#05ff27" stroke="#07ba19" stroke-width="1"/><path d="M204.85192,176.24371c-0.21959,-2.62775 25.00677,-5.46125 25.00677,-5.46125v12.07224c0,0 -24.76873,-3.7625 -25.00676,-6.61098z" fill="#05ff27" stroke="#07ba19" stroke-width="1"/><path d="M219.04207,186.6804c0,-12.91205 10.46728,-23.37932 23.37932,-23.37932c12.91205,0 23.37933,10.46728 23.37933,23.37932c0,12.91205 -10.46728,23.37932 -23.37933,23.37932c-12.91205,0 -23.37932,-10.46728 -23.37932,-23.37932z" fill="#ffa605" stroke="#ac7d29" stroke-width="1.5"/><path d="M264.02227,186.00028c0,1.92507 -1.52251,3.48565 -3.40063,3.48565c-1.87811,0 -3.40063,-1.56057 -3.40063,-3.48565c0,-1.92507 1.52251,-3.48565 3.40063,-3.48565c1.87811,0 3.40063,1.56058 3.40063,3.48565z" fill="#ffc04d" stroke="#0c0c0c" stroke-width="1"/><path d="M263.3146,185.9452c0,0.8921 -0.79932,1.6153 -1.78533,1.6153c-0.98601,0 -1.78533,-0.72319 -1.78533,-1.6153c0,-0.8921 0.79932,-1.6153 1.78533,-1.6153c0.98601,0 1.78533,0.7232 1.78533,1.6153z" fill="#010101" stroke="none" stroke-width="0"/><path d="M241.97453,185.90226l1.45146,4.29473c0,0 -13.04042,4.40717 -16.03108,5.4179c-1.16206,0.39273 -2.42038,0.818 -2.42038,0.818l-2.81384,-8.03566c0,0 6.60132,2.19006 9.70181,1.79965c3.46379,-0.43616 10.11203,-4.29462 10.11203,-4.29462z" fill="#05ff27" stroke="#07ba19" stroke-width="1"/><path d="M240.65324,184.82011c0,0 -1.85679,-7.38414 -3.94116,-10.14343c-1.86576,-2.46988 -7.98206,-5.6405 -7.98206,-5.6405l7.64668,-3.5569c0,0 0.56789,1.1868 1.09233,2.2828c1.34969,2.82065 7.23484,15.11981 7.23484,15.11981l-4.05061,1.93822z" data-paper-data="{&quot;index&quot;:null}" fill="#05ff27" stroke="#07ba19" stroke-width="1"/><path d="M251.64991,193.02158c0,2.61391 -2.34529,4.73291 -5.23836,4.73291c-2.89307,0 -5.23836,-2.11899 -5.23836,-4.73291c0,-2.61391 2.34529,-4.73291 5.23836,-4.73291c2.89307,0 5.23836,2.11899 5.23836,4.73291z" fill="#ffffff" stroke="#100152" stroke-width="1"/><path d="M252.38512,184.24503c0,2.33476 -2.40701,4.22745 -5.37621,4.22745c-2.9692,0 -5.37621,-1.89269 -5.37621,-4.22745c0,-2.33476 2.40701,-4.22745 5.37621,-4.22745c2.9692,0 5.37621,1.89269 5.37621,4.22745z" fill="#ffffff" stroke="#100152" stroke-width="1"/><path d="M250.5471,184.17236c0,1.38102 -1.23437,2.50056 -2.75703,2.50056c-1.52267,0 -2.75703,-1.11954 -2.75703,-2.50056c0,-1.38102 1.23437,-2.50056 2.75703,-2.50056c1.52267,0 2.75703,1.11954 2.75703,2.50056z" fill="#03c2bb" stroke="#100152" stroke-width="0.5"/><path d="M249.99569,192.90297c0,1.38102 -1.23437,2.50056 -2.75703,2.50056c-1.52266,0 -2.75704,-1.11953 -2.75704,-2.50056c0,-1.38102 1.23437,-2.50057 2.75704,-2.50057c1.52266,0 2.75703,1.11954 2.75703,2.50057z" fill="#03c2bb" stroke="#100152" stroke-width="0.5"/><path d="M246.14676,183.87742c0,-0.55228 0.44772,-1 1,-1c0.55228,0 1,0.44772 1,1c0,0.55228 -0.44772,1 -1,1c-0.55228,0 -1,-0.44772 -1,-1z" fill="#ffffff" stroke="none" stroke-width="0.5"/><path d="M245.22775,192.69992c0,-0.55228 0.44772,-1 1,-1c0.55228,0 1,0.44772 1,1c0,0.55228 -0.44772,1 -1,1c-0.55228,0 -1,-0.44772 -1,-1z" fill="#ffffff" stroke="none" stroke-width="0.5"/><path d="M246.5,183.85714c0,-0.13807 0.11193,-0.25 0.25,-0.25c0.13807,0 0.25,0.11193 0.25,0.25c0,0.13807 -0.11193,0.25 -0.25,0.25c-0.13807,0 -0.25,-0.11193 -0.25,-0.25z" fill="#cfcfcf" stroke="none" stroke-width="0.5"/><path d="M247.42857,183.78572c0,-0.13807 0.11193,-0.25 0.25,-0.25c0.13807,0 0.25,0.11193 0.25,0.25c0,0.13807 -0.11193,0.25 -0.25,0.25c-0.13807,0 -0.25,-0.11193 -0.25,-0.25z" fill="#cfcfcf" stroke="none" stroke-width="0.5"/><path d="M246.78571,183.14287c0,-0.13807 0.11193,-0.25 0.25,-0.25c0.13807,0 0.25,0.11193 0.25,0.25c0,0.13807 -0.11193,0.25 -0.25,0.25c-0.13807,0 -0.25,-0.11193 -0.25,-0.25z" fill="#cfcfcf" stroke="none" stroke-width="0.5"/><path d="M245.35714,192.78572c0,-0.13807 0.11193,-0.25 0.25,-0.25c0.13807,0 0.25,0.11193 0.25,0.25c0,0.13807 -0.11193,0.25 -0.25,0.25c-0.13807,0 -0.25,-0.11193 -0.25,-0.25z" fill="#cfcfcf" stroke="none" stroke-width="0.5"/><path d="M246.5,192.85714c0,-0.13807 0.11193,-0.25 0.25,-0.25c0.13807,0 0.25,0.11193 0.25,0.25c0,0.13807 -0.11193,0.25 -0.25,0.25c-0.13807,0 -0.25,-0.11193 -0.25,-0.25z" fill="#cfcfcf" stroke="none" stroke-width="0.5"/><path d="M245.92857,192.07143c0,-0.13807 0.11193,-0.25 0.25,-0.25c0.13807,0 0.25,0.11193 0.25,0.25c0,0.13807 -0.11193,0.25 -0.25,0.25c-0.13807,0 -0.25,-0.11193 -0.25,-0.25z" fill="#cfcfcf" stroke="none" stroke-width="0.5"/></g></g></svg>