<svg version="1.1" xmlns="http://www.w3.org/2000/svg" xmlns:xlink="http://www.w3.org/1999/xlink" width="104.496" height="51.72187" viewBox="0,0,104.496,51.72187"><g transform="translate(-185.4712,-161.3556)"><g data-paper-data="{&quot;isPaintingLayer&quot;:true}" fill-rule="nonzero" stroke-linejoin="miter" stroke-miterlimit="10" stroke-dasharray="" stroke-dashoffset="0" style="mix-blend-mode: normal"><g stroke="#029f0f" stroke-width="1.5"><path d="M223.37982,179.77793c-0.06155,0.17012 -0.13951,0.32957 -0.23145,0.47719l0.07867,0.05292l0.15933,0.9172l0.35894,0.6342l-0.15758,0.52491l0.07397,0.42581l-0.03719,0.03162l0.08686,0.35365l-0.43936,0.69183l-0.21689,0.59949l-0.17315,0.25741l-0.10555,0.29172l-0.19985,0.29711l-0.38996,1.07783l0.00675,0.02749l-0.0388,0.0611l-0.02389,0.06602l-0.32316,0.48045l-0.31042,0.48878l-0.05089,0.04838l-0.04039,0.06005l-0.02789,0.00484l-0.01372,0.01304l-1.46002,1.84705l-1.30891,1.73744l-0.02341,0.01893l-0.01238,0.02745l-0.38211,0.4834l-0.0263,0.07271l-0.22609,0.33612l-0.16663,0.36924l-0.06426,0.08129l-0.33636,0.92969l0.12775,0.15028l-0.13246,1.292l-0.21978,0.60747l0.00675,0.02749l-0.0388,0.0611l-0.02389,0.06603l-0.32316,0.48045l-0.31042,0.48878l-0.05089,0.04838l-0.04039,0.06005l-0.02789,0.00485l-0.14352,0.13641l-0.17906,0.10134l-0.04926,0.11567l-0.46725,0.17666l-0.43473,0.24605l-0.12041,-0.03615l-0.19245,0.07277l-0.19667,0.02301l-0.02156,0.01833l-0.072,-0.00738l-0.06974,0.00816l-0.57426,-0.07419l-0.576,-0.05906l-0.06602,-0.02389l-0.02165,-0.0028l-0.08863,-0.00225l-0.19262,-0.05339l-0.19949,0.01259l-0.96965,-0.17845l-0.16729,-0.07611l-0.32275,-0.0417l-0.22833,-0.02341l-0.37156,-0.00943l-0.39037,-0.1082l-0.40297,-0.04131l-0.19713,-0.07132l-1.17482,-0.15178l-0.63183,-0.06478l-0.05454,-0.01973l-0.14299,0.05406l-0.43473,0.24605l-0.12041,-0.03615l-0.19245,0.07277l-0.35998,0.04213l-0.27524,-0.03556l-0.27469,0.0395l-1.32962,-0.13632l-0.05778,-0.0209l-0.06117,0.00584l-0.66209,-0.0999l-0.86794,-0.02204l-0.15346,-0.04253l-0.15852,0.01513l-0.48353,-0.07295l-0.02479,0.0029l-0.57425,-0.07419l-0.57601,-0.05906l-0.06603,-0.02389l-0.07178,-0.00928l-0.0168,-0.02277l-0.01092,-0.00395l-0.3562,-0.03652l-0.29172,-0.10555l-0.3086,-0.03163l-0.67986,-0.24598l-0.57049,-0.08607l-0.23169,-0.09652l-0.24968,-0.0256l-0.37502,-0.13568l-0.2368,-0.03573l-0.0248,0.0029l-0.57425,-0.07419l-0.576,-0.05906l-0.06603,-0.02389l-0.07178,-0.00928l-0.01681,-0.02277l-3.34877,-1.21158l-0.02748,0.00675l-0.0611,-0.0388l-0.06603,-0.02389l-0.48045,-0.32317l-0.48878,-0.31042l-0.04838,-0.0509l-0.06005,-0.0404l-0.00485,-0.02788l-0.76651,-0.80647l-0.54844,0.06419l-0.17989,-0.02324l-0.17702,0.03951l-0.51239,-0.01302l-0.30559,-0.0847l-0.00231,0.00028l-1.09955,-0.14205l-0.0507,0.00881l-0.01467,-0.01726l-0.12314,-0.01591l-0.50355,-0.6825l-0.07632,-0.05134l-0.01184,-0.06815l-0.12903,-0.17487l-0.78623,-0.92497l0.01266,-0.12352l-0.01345,-0.01822l0.02017,-0.04735l0.11308,-1.10291l0.10949,-0.30264l-0.00675,-0.02748l0.0388,-0.0611l0.02389,-0.06603l0.32316,-0.48044l0.31042,-0.48879l0.05089,-0.04837l0.0404,-0.06006l0.02789,-0.00485l0.66894,-0.6358l0.23331,-0.13204l0.18795,-0.19117l0.81098,-0.49599l1.92876,-1.37145l0.91267,-0.77579l0.0247,-0.01223l0.01651,-0.02206l0.73297,-0.59665l0.093,-0.04359l0.06791,-0.07706l0.9796,-0.67507l0.20206,-0.25563l0.32078,-0.24738l0.27484,-0.2976l0.67782,-0.44423l0.03817,-0.01329l0.02834,-0.02882l0.88538,-0.54151l0.02472,-0.00776l0.01853,-0.01811l4.35004,-2.54239l0.8639,-0.52836l0.05435,-0.01704l0.04169,-0.03881l1.2251,-0.67697l0.29109,-0.27666l0.35254,-0.19952l0.31416,-0.25573l0.17799,-0.08342l0.30379,-0.17194l0.45457,-0.29301l0.15807,-0.05372l0.047,-0.0266l0.0166,0.00499l0.76099,-0.25861l0.17124,-0.01418l0.15559,-0.07291l0.84054,-0.16451l1.80263,-0.48645l2.09586,-0.60642l0.01109,-0.00041l0.00963,-0.00549l1.25644,-0.35193l0.02424,-0.02644l0.68016,-0.01509l0.68006,-0.01913l0.02554,0.02519l1.18717,0.26896l0.14212,0.0718l0.15841,0.01624l6.70633,2.42634c0.4039,0.14613 0.74764,0.38477 1.01596,0.68338l0.0617,0.0415l0.00655,0.0377c0.5493,0.6649 0.74277,1.59471 0.42811,2.46442z" fill="#01d312" stroke-linecap="butt"/><path d="M187.91758,189.87262l33.43268,-6.17505" fill="none" stroke-linecap="round"/></g><g data-paper-data="{&quot;index&quot;:null}" stroke="#029f0f" stroke-width="1.5"><path d="M222.89127,203.23936l-0.00519,0.02986l-0.04887,0.03287c-0.21251,0.23649 -0.48475,0.42548 -0.80463,0.54122l-5.31131,1.92163l-0.12546,0.01286l-0.11256,0.05687l-0.94022,0.21301l-0.02022,0.01995l-0.5386,-0.01515l-0.53868,-0.01196l-0.01919,-0.02094l-0.99508,-0.27872l-0.00763,-0.00435l-0.00877,-0.00033l-1.6599,-0.48028l-1.42765,-0.38526l-0.6657,-0.13029l-0.12322,-0.05775l-0.13562,-0.01123l-0.60269,-0.20481l-0.01315,0.00395l-0.03723,-0.02107l-0.12519,-0.04254l-0.36001,-0.23206l-0.2406,-0.13618l-0.14097,-0.06607l-0.24881,-0.20253l-0.27921,-0.15803l-0.23053,-0.21911l-0.97027,-0.53615l-0.03301,-0.03074l-0.04304,-0.0135l-0.68419,-0.41845l-3.44517,-2.01354l-0.01467,-0.01434l-0.01958,-0.00614l-0.70122,-0.42886l-0.02244,-0.02283l-0.03023,-0.01053l-0.53683,-0.35183l-0.21766,-0.23569l-0.25405,-0.19592l-0.16003,-0.20245l-0.77582,-0.53465l-0.05379,-0.06103l-0.07366,-0.03451l-0.5805,-0.47254l-0.01308,-0.01747l-0.01957,-0.00968l-0.72283,-0.61442l-1.52755,-1.08616l-0.64229,-0.39283l-0.14885,-0.1514l-0.18478,-0.10458l-0.52979,-0.50354l-0.02209,-0.00384l-0.03199,-0.04756l-0.04031,-0.03831l-0.24585,-0.38711l-0.25594,-0.3805l-0.01892,-0.0523l-0.03073,-0.04839l0.00535,-0.02177l-0.08671,-0.23968l-0.08956,-0.87349l-0.01597,-0.0375l0.01065,-0.01443l-0.01003,-0.09783l0.62269,-0.73256l0.10218,-0.1385l0.00938,-0.05398l0.06045,-0.04066l0.3988,-0.54053l0.09753,-0.01261l0.01162,-0.01366l0.04016,0.00698l0.87082,-0.1125l0.00183,0.00021l0.24202,-0.06708l0.40581,-0.01031l0.1402,0.03129l0.14247,-0.01841l0.43435,0.05084l0.60707,-0.63872l0.00384,-0.02208l0.04756,-0.03199l0.03831,-0.04031l0.38711,-0.24585l0.3805,-0.25594l0.0523,-0.01892l0.04839,-0.03073l0.02177,0.00534l2.65217,-0.95955l0.01331,-0.01804l0.05685,-0.00735l0.0523,-0.01892l0.45619,-0.04677l0.4548,-0.05876l0.01964,0.0023l0.18754,-0.02829l0.29702,-0.10746l0.19774,-0.02028l0.18349,-0.07644l0.45182,-0.06817l0.53844,-0.19481l0.24441,-0.02506l0.23104,-0.08359l0.28211,-0.02892l0.00865,-0.00313l0.01331,-0.01804l0.05685,-0.00735l0.0523,-0.01892l0.45618,-0.04677l0.4548,-0.05876l0.01963,0.0023l0.38295,-0.05777l0.12554,0.01199l0.12153,-0.03368l0.6874,-0.01746l0.52437,-0.07912l0.04844,0.00462l0.04577,-0.01655l1.05304,-0.10797l0.21756,0.03128l0.21798,-0.02816l0.28509,0.03337l0.15242,0.05763l0.09536,-0.02863l0.3443,0.19486l0.11325,0.04282l0.04319,-0.01563l0.50039,-0.0513l0.93044,-0.1202l0.15612,-0.05648l0.31915,-0.03272l0.30917,-0.08569l0.29426,-0.00747l0.18084,-0.01854l0.25561,-0.03303l0.13249,-0.06028l0.76794,-0.14133l0.15799,0.00996l0.15256,-0.04228l0.07019,-0.00178l0.01714,-0.00222l0.05229,-0.01892l0.45619,-0.04677l0.4548,-0.05876l0.05523,0.00646l0.05703,-0.00584l0.01708,0.01452l0.15576,0.01823l0.15242,0.05763l0.09536,-0.02863l0.3443,0.19486l0.37006,0.13992l0.03901,0.0916l0.14182,0.08026l0.11367,0.10804l0.02208,0.00383l0.032,0.04757l0.04031,0.03831l0.24585,0.38711l0.25594,0.38051l0.01892,0.05229l0.03073,0.04839l-0.00535,0.02177l0.17406,0.48111l0.10491,1.02325l-0.10118,0.11902l0.26639,0.7363l0.05089,0.06438l0.13197,0.29243l0.17906,0.2662l0.02084,0.05758l0.30263,0.38285l0.00981,0.02174l0.01854,0.015l1.03663,1.37602l1.15632,1.46284l0.01086,0.01032l0.02209,0.00384l0.03199,0.04756l0.04031,0.03831l0.24585,0.38711l0.25594,0.3805l0.01892,0.05229l0.03073,0.04839l-0.00535,0.02177l0.30884,0.85362l0.15828,0.23531l0.08359,0.23104l0.13713,0.20386l0.17177,0.47478l0.34798,0.54792l-0.0688,0.28009l0.02946,0.02504l-0.05858,0.33724l0.1248,0.41572l-0.28427,0.50227l-0.12619,0.72641l-0.06231,0.04191c0.07281,0.11692 0.13456,0.2432 0.1833,0.37793c0.24921,0.68881 0.09599,1.4252 -0.33905,1.95179z" fill="#01d312" stroke-linecap="butt"/><path d="M195.14477,193.29274l26.47817,4.89055" fill="none" stroke-linecap="round"/></g><g stroke-linecap="butt"><path d="M288.7172,184.3556c0,12.01219 -6.26801,21.75 -14,21.75c-7.73199,0 -14,-9.73781 -14,-21.75c0,-12.01219 6.26801,-21.75 14,-21.75c7.73199,0 14,9.73781 14,21.75z" fill="#01d312" stroke="#029f0f" stroke-width="2.5"/><path d="M286.7172,184.3556c0,8.42234 -3.69365,15.25 -8.25,15.25c-4.55635,0 -8.25,-6.82766 -8.25,-15.25c0,-8.42234 3.69365,-15.25 8.25,-15.25c4.55635,0 8.25,6.82766 8.25,15.25z" fill="#0f0f0f" stroke="none" stroke-width="0"/></g><path d="M267.75,187.82747c0,13.25484 -11.52867,24 -25.75,24c-14.22133,0 -25.75,-10.74516 -25.75,-24c0,-13.25484 11.52867,-24 25.75,-24c14.22133,0 25.75,10.74516 25.75,24z" fill="#01d312" stroke="#029f0f" stroke-width="2.5" stroke-linecap="butt"/><g stroke="#029f0f" stroke-width="1.5"><path d="M220.97912,169.83925c-0.04874,0.13473 -0.11049,0.26101 -0.1833,0.37793l0.06231,0.04191l0.12619,0.72641l0.28427,0.50228l-0.1248,0.41572l0.05858,0.33724l-0.02946,0.02503l0.0688,0.28009l-0.34798,0.54792l-0.17177,0.47478l-0.13713,0.20387l-0.08359,0.23104l-0.15828,0.23531l-0.30884,0.85362l0.00535,0.02177l-0.03073,0.04839l-0.01892,0.05229l-0.25594,0.3805l-0.24585,0.38711l-0.04031,0.03831l-0.03199,0.04756l-0.02209,0.00384l-0.01086,0.01032l-1.15632,1.46284l-1.03663,1.37602l-0.01854,0.015l-0.00981,0.02174l-0.30263,0.38285l-0.02084,0.05758l-0.17906,0.2662l-0.13197,0.29243l-0.05089,0.06438l-0.26639,0.73629l0.10118,0.11902l-0.10491,1.02325l-0.17406,0.48111l0.00535,0.02177l-0.03073,0.04839l-0.01892,0.05229l-0.25594,0.38051l-0.24585,0.38711l-0.04031,0.03831l-0.032,0.04756l-0.02208,0.00384l-0.11367,0.10804l-0.14182,0.08026l-0.03901,0.0916l-0.37006,0.13992l-0.3443,0.19486l-0.09536,-0.02863l-0.15242,0.05763l-0.15576,0.01823l-0.01708,0.01452l-0.05703,-0.00584l-0.05523,0.00646l-0.4548,-0.05876l-0.45619,-0.04677l-0.05229,-0.01892l-0.01714,-0.00222l-0.07019,-0.00178l-0.15256,-0.04228l-0.15799,0.00996l-0.76794,-0.14133l-0.13249,-0.06028l-0.25561,-0.03303l-0.18084,-0.01854l-0.29426,-0.00747l-0.30917,-0.0857l-0.31915,-0.03272l-0.15612,-0.05649l-0.93044,-0.1202l-0.50039,-0.0513l-0.04319,-0.01563l-0.11325,0.04282l-0.3443,0.19486l-0.09536,-0.02863l-0.15242,0.05763l-0.28509,0.03337l-0.21798,-0.02816l-0.21756,0.03128l-1.05304,-0.10797l-0.04577,-0.01655l-0.04844,0.00463l-0.52437,-0.07912l-0.6874,-0.01745l-0.12153,-0.03369l-0.12554,0.01199l-0.38295,-0.05777l-0.01963,0.0023l-0.4548,-0.05876l-0.45618,-0.04677l-0.0523,-0.01892l-0.05685,-0.00735l-0.01331,-0.01804l-0.00865,-0.00313l-0.28211,-0.02892l-0.23104,-0.08359l-0.24441,-0.02505l-0.53844,-0.19481l-0.45182,-0.06817l-0.18349,-0.07644l-0.19774,-0.02028l-0.29702,-0.10746l-0.18754,-0.02829l-0.01964,0.0023l-0.4548,-0.05876l-0.45619,-0.04677l-0.0523,-0.01892l-0.05685,-0.00734l-0.01331,-0.01804l-2.65217,-0.95955l-0.02177,0.00535l-0.04839,-0.03073l-0.0523,-0.01892l-0.3805,-0.25594l-0.38711,-0.24585l-0.03831,-0.04031l-0.04756,-0.03199l-0.00384,-0.02209l-0.60707,-0.63872l-0.43435,0.05084l-0.14247,-0.01841l-0.1402,0.03129l-0.40581,-0.01031l-0.24202,-0.06708l-0.00183,0.00021l-0.87082,-0.1125l-0.04016,0.00698l-0.01162,-0.01366l-0.09753,-0.01261l-0.3988,-0.54053l-0.06045,-0.04066l-0.00938,-0.05398l-0.10218,-0.1385l-0.62269,-0.73256l0.01003,-0.09783l-0.01065,-0.01443l0.01597,-0.0375l0.08956,-0.87348l0.08671,-0.23968l-0.00535,-0.02177l0.03073,-0.04839l0.01892,-0.0523l0.25594,-0.3805l0.24585,-0.38711l0.04031,-0.03831l0.03199,-0.04756l0.02209,-0.00383l0.52979,-0.50354l0.18478,-0.10458l0.14885,-0.1514l0.64229,-0.39283l1.52755,-1.08616l0.72283,-0.61442l0.01957,-0.00968l0.01308,-0.01747l0.5805,-0.47254l0.07366,-0.03451l0.05379,-0.06103l0.77582,-0.53465l0.16003,-0.20245l0.25405,-0.19592l0.21766,-0.23569l0.53683,-0.35183l0.03023,-0.01053l0.02244,-0.02283l0.70122,-0.42886l0.01958,-0.00614l0.01467,-0.01434l3.44517,-2.01354l0.68419,-0.41845l0.04304,-0.0135l0.03301,-0.03074l0.97027,-0.53615l0.23053,-0.21911l0.27921,-0.15803l0.24881,-0.20253l0.14097,-0.06607l0.2406,-0.13618l0.36001,-0.23206l0.12519,-0.04254l0.03723,-0.02107l0.01315,0.00395l0.60269,-0.20481l0.13562,-0.01123l0.12322,-0.05774l0.6657,-0.13029l1.42765,-0.38526l1.6599,-0.48028l0.00877,-0.00032l0.00763,-0.00435l0.99508,-0.27873l0.01919,-0.02094l0.53868,-0.01196l0.5386,-0.01515l0.02022,0.01995l0.94022,0.21301l0.11256,0.05687l0.12546,0.01287l5.31131,1.92163c0.31988,0.11574 0.59212,0.30473 0.80463,0.54122l0.04887,0.03287l0.00519,0.02986c0.43504,0.52659 0.58826,1.26298 0.33905,1.95179z" fill="#01d312" stroke-linecap="butt"/><path d="M192.89357,177.83408l26.47817,-4.89055" fill="none" stroke-linecap="round"/></g><g data-paper-data="{&quot;index&quot;:null}" stroke-width="0" stroke-linecap="butt"><path d="M266.18193,179.70802c-0.00249,1.82055 -2.24207,3.29334 -5.00226,3.28957c-2.76019,-0.00377 -4.99575,-1.48267 -4.99326,-3.30322c0.00249,-1.82055 2.24207,-3.29334 5.00226,-3.28957c2.76019,0.00377 4.99575,1.48267 4.99326,3.30322z" fill="#0f0f0f" stroke="#029f0f"/><path d="M264.2692,178.74839c-0.00096,0.70473 -0.85869,1.27485 -1.91578,1.27341c-1.05709,-0.00144 -1.91326,-0.57391 -1.91229,-1.27864c0.00096,-0.70473 0.85869,-1.27485 1.91578,-1.27341c1.05709,0.00144 1.91326,0.57391 1.91229,1.27864z" fill="#ece4e4" stroke="none"/></g><g data-paper-data="{&quot;index&quot;:null}" stroke-width="0" stroke-linecap="butt"><path d="M268.70284,188.47346c-0.00315,2.30899 -2.8436,4.17692 -6.34432,4.17214c-3.50072,-0.00478 -6.33607,-1.88046 -6.33292,-4.18945c0.00315,-2.30899 2.8436,-4.17692 6.34432,-4.17214c3.50072,0.00478 6.33607,1.88046 6.33292,4.18945z" fill="#0f0f0f" stroke="#029f0f"/><path d="M266.27694,187.25636c-0.00122,0.8938 -1.08906,1.61688 -2.42976,1.61505c-1.3407,-0.00183 -2.42656,-0.72788 -2.42534,-1.62169c0.00122,-0.8938 1.08906,-1.61688 2.42976,-1.61505c1.3407,0.00183 2.42656,0.72788 2.42534,1.62169z" fill="#ece4e4" stroke="none"/></g><path d="M257.31157,178.74334c0.55137,1.18714 2.61161,2.7384 2.61161,2.7384l-5.04358,1.18274l-4.05373,-11.51048l3.69603,-1.30166c0,0 2.23831,7.70386 2.78968,8.89099z" data-paper-data="{&quot;index&quot;:null}" fill="#01920d" stroke="#000000" stroke-width="1" stroke-linecap="butt"/><path d="M255.75434,194.48174l-3.09014,-0.6515l2.02895,-9.62358l4.15439,0.41481c0,0 -1.48313,1.45613 -1.79889,2.46267c-0.31576,1.00654 -1.29432,7.39759 -1.29432,7.39759z" data-paper-data="{&quot;index&quot;:null}" fill="#01920d" stroke="#000000" stroke-width="1" stroke-linecap="butt"/></g></g></svg>