<svg version="1.1" xmlns="http://www.w3.org/2000/svg" xmlns:xlink="http://www.w3.org/1999/xlink" width="142.399" height="134.45236" viewBox="0,0,142.399,134.45236"><defs><radialGradient cx="240.25162" cy="205.28977" r="22.98176" gradientUnits="userSpaceOnUse" id="color-1"><stop offset="0" stop-color="#625f63"/><stop offset="1" stop-color="#322935"/></radialGradient><radialGradient cx="240.25162" cy="205.28977" r="22.98176" gradientUnits="userSpaceOnUse" id="color-2"><stop offset="0" stop-color="#625f63"/><stop offset="1" stop-color="#322935"/></radialGradient><linearGradient x1="243.05499" y1="185.39073" x2="243.05499" y2="187.99118" gradientUnits="userSpaceOnUse" id="color-3"><stop offset="0" stop-color="#f40857"/><stop offset="1" stop-color="#aa0808"/></linearGradient><linearGradient x1="239.99998" y1="134.60978" x2="239.99998" y2="183.9823" gradientUnits="userSpaceOnUse" id="color-4"><stop offset="0" stop-color="#7b7879"/><stop offset="1" stop-color="#151316"/></linearGradient><linearGradient x1="228.46742" y1="135.51567" x2="228.46742" y2="158.66592" gradientUnits="userSpaceOnUse" id="color-5"><stop offset="0" stop-color="#c2bfc0"/><stop offset="1" stop-color="#626060"/></linearGradient><linearGradient x1="230.65257" y1="171.6216" x2="230.65257" y2="177.3494" gradientUnits="userSpaceOnUse" id="color-6"><stop offset="0" stop-color="#f40857"/><stop offset="1" stop-color="#aa0808"/></linearGradient><linearGradient x1="256.10733" y1="170.99472" x2="256.10733" y2="176.72251" gradientUnits="userSpaceOnUse" id="color-7"><stop offset="0" stop-color="#f40857"/><stop offset="1" stop-color="#aa0808"/></linearGradient><linearGradient x1="255.85977" y1="177.71371" x2="263.20495" y2="173.14865" gradientUnits="userSpaceOnUse" id="color-8"><stop offset="0" stop-color="#a83336"/><stop offset="1" stop-color="#271216"/></linearGradient><linearGradient x1="231.85401" y1="179.64612" x2="224.50882" y2="175.08106" gradientUnits="userSpaceOnUse" id="color-9"><stop offset="0" stop-color="#a83336"/><stop offset="1" stop-color="#271216"/></linearGradient></defs><g transform="translate(-156.351,-106.47298)"><g data-paper-data="{&quot;isPaintingLayer&quot;:true}" fill-rule="nonzero" stroke-linejoin="miter" stroke-miterlimit="10" stroke-dasharray="" stroke-dashoffset="0" style="mix-blend-mode: normal"><g stroke-width="0.5" stroke-linecap="butt"><path d="M217.26986,184.73385h45.96352c0,0 -2.80888,11.06594 -2.80888,17.61935c0,4.94683 2.10388,10.55521 3.38232,13.50653c0.55795,1.28804 0.22375,2.79066 -1.03264,3.792c-2.46031,1.96085 -6.9203,4.99801 -11.77702,5.80746c-5.0184,0.83639 -24.07937,2.59449 -32.18832,-9.40434c-5.40087,-7.99167 -1.53896,-31.32099 -1.53896,-31.32099z" fill="url(#color-1)" stroke="#000000"/><path d="M217.08887,183.10488c0,0 38.36479,-2.6148 43.65423,-2.42808c1.16311,0.04106 2.49029,4.05704 2.49029,4.05704c0,0 -2.80888,11.06594 -2.80888,17.61935c0,4.94683 2.10388,10.55521 3.38232,13.50653c0.55795,1.28804 0.22375,2.79066 -1.03264,3.792c-2.46031,1.96085 -6.9203,4.99801 -11.77702,5.80746c-5.0184,0.83639 -24.07937,2.59449 -32.18832,-9.40434c-5.40087,-7.99167 -1.53896,-31.32099 -1.53896,-31.32099z" fill="url(#color-2)" stroke="#000000"/><path d="M240.29021,222.09718c-0.86705,-0.21676 -0.65029,-1.08381 -0.65029,-1.08381l0.06533,-0.23457c0.27783,-2.12554 1.30596,-4.18774 1.99416,-6.20747c0.25742,-0.75546 0.21984,-1.57299 0.31274,-2.36367h-0.01563v-0.12566l-0.08068,-0.80682l0.00195,-0.0002l-0.00234,-0.00382c-0.15969,-1.75915 -0.46643,-3.46941 -0.75684,-5.20881c-0.4249,-2.38429 -0.00216,-4.63887 0.33592,-7.00221c0.226,-1.57983 0.27372,-3.16635 0.6041,-4.73041c0.30308,-1.43483 0.8816,-2.78244 1.00809,-4.24847c0,0 0.08092,-0.89006 0.97098,-0.80915c0.89006,0.08092 0.80915,0.97098 0.80915,0.97098c-0.14563,1.53651 -0.7196,2.93115 -1.03474,4.43352c-0.32133,1.53191 -0.36672,3.08481 -0.58755,4.63253c-0.30894,2.16531 -0.75157,4.26112 -0.34502,6.44638c0.28787,1.73027 0.59188,3.43409 0.75985,5.18103c0.06675,0.12519 0.10459,0.26812 0.10459,0.4199v0.68094v0.17024h-0.01619c-0.0036,0.01865 -0.00778,0.0371 -0.01251,0.05532c0.01463,0.96782 -0.05748,1.94931 -0.35512,2.8583c-0.62549,1.91027 -1.6853,3.87318 -1.92126,5.87923l-0.1049,0.44638c0,0 -0.21676,0.86705 -1.08381,0.65029z" fill="#918890" stroke="none"/><path d="M252.47507,212.46709c0.14824,0.2153 0.36105,0.67694 -0.1006,1.13859c-0.63196,0.63196 -1.26394,0 -1.26394,0l-0.3202,-0.50032c-0.39984,-1.60595 -0.4537,-3.11915 -0.45116,-4.7686c-0.17731,-1.75049 -0.30223,-3.51469 -0.58357,-5.25299c-0.33953,-2.09782 -1.33678,-3.99682 -1.4584,-6.13811c-0.19307,-3.3995 -0.00196,-6.86497 -0.00196,-10.27331c0,0 0,-0.89373 0.89373,-0.89373c0.89373,0 0.89373,0.89373 0.89373,0.89373c0,3.36996 -0.18414,6.79316 -0.00196,10.15493c0.11153,2.0581 1.1053,3.92454 1.4356,5.9486c0.2954,1.8102 0.42787,3.6481 0.60807,5.47184c0.002,1.46082 0.02354,2.80443 0.35064,4.21937z" fill="#918890" stroke="none"/><path d="M255.79799,196.93957c0.09379,0.1283 0.15784,0.3035 0.15784,0.54274c0,0.89373 -0.89373,0.89373 -0.89373,0.89373l-0.97195,-0.78288c-0.15123,-1.26203 -0.88028,-2.30809 -1.09909,-3.52633c-0.01786,-0.09942 -0.01434,-1.39166 -0.01434,-1.60647c0,-1.50375 0,-3.00749 0,-4.51123c0,0 0,-0.89373 0.89373,-0.89373c0.89373,0 0.89373,0.89373 0.89373,0.89373c0,1.22002 0,2.44004 0,3.66006c0,0.64877 -0.12455,1.49593 -0.01434,2.13871c0.06827,0.39821 0.32509,0.74022 0.4667,1.11861c0.25657,0.68551 0.45677,1.36317 0.58145,2.07306z" fill="#918890" stroke="none"/><path d="M234.82999,218.28433c-0.79938,-0.39969 -0.39969,-1.19907 -0.39969,-1.19907l-0.00481,0.14053c0.36629,-3.61298 0.33604,-7.25583 0.33604,-10.89124c0,-2.7258 -0.20068,-5.4128 -0.3397,-8.13415c-0.17488,-3.42347 -0.00078,-6.90569 -0.00078,-10.33637c0,0 0,-0.89373 0.89373,-0.89373c0.89373,0 0.89373,0.89373 0.89373,0.89373c0,3.40539 -0.17657,6.86412 -0.00077,10.26209c0.14207,2.74606 0.34124,5.4577 0.34124,8.20843c0,3.6965 0.01797,7.39458 -0.34491,11.0691l-0.17503,0.481c0,0 -0.39969,0.79938 -1.19907,0.39969z" fill="#918890" stroke="none"/><path d="M231.4845,220.08103c-0.89373,0 -0.89373,-0.89373 -0.89373,-0.89373v-0.17024c0,-2.07798 0.00345,-4.21291 0.17284,-6.28174c0.08622,-1.05305 0.23204,-2.04516 0.16936,-3.11079c-0.10503,-1.78553 -0.85894,-3.42171 -0.84757,-5.2353c-0.40157,-1.76771 -0.1767,-3.52697 -0.25896,-5.31928c-0.16241,-3.53891 -0.25708,-7.05766 -0.25708,-10.61012c0,0 0,-0.89373 0.89373,-0.89373c0.89373,0 0.89373,0.89373 0.89373,0.89373c0,3.51578 0.09589,6.99693 0.25362,10.49905c0.07961,1.76758 -0.12781,3.49237 0.25174,5.2353c0.00999,1.83644 0.7478,3.50059 0.85478,5.31928c0.06739,1.14561 -0.07498,2.22577 -0.17111,3.35815c-0.17158,2.02121 -0.16764,4.11397 -0.16764,6.14544v0.17024c0,0 0,0.89373 -0.89373,0.89373z" fill="#918890" stroke="none"/><path d="M218.69326,212.72314c-0.89373,0 -0.89373,-0.89373 -0.89373,-0.89373v-0.34047c0.00892,-2.02815 -0.74871,-3.95491 -0.93195,-5.95528c-0.00546,-0.05962 -0.00434,-1.76275 -0.00434,-1.96065c0,-2.78161 0.41188,-5.46438 0.59778,-8.23048c0.24802,-3.69035 -0.00197,-7.47531 -0.00197,-11.17634c0,0 0,-0.89373 0.89373,-0.89373c0.89373,0 0.89373,0.89373 0.89373,0.89373c0,3.74147 0.24491,7.56341 -0.00197,11.29472c-0.18043,2.72705 -0.59386,5.37075 -0.59386,8.1121c0,1.3111 0.22113,2.5911 0.44847,3.86977c0.0328,-0.41303 0.08286,-0.82492 0.16439,-1.23456c0.23782,-1.19501 0.69463,-2.35736 1.0522,-3.51949c0.21154,-0.56156 0.3199,-1.15769 0.51839,-1.72398c0.15806,-0.45093 0.46772,-0.85092 0.55924,-1.31992c0.24197,-1.23999 0.06618,-2.64251 0.06618,-3.90266c0,-2.15632 0,-4.31263 0,-6.46894c0,0 0,-0.89373 0.89373,-0.89373c0.89373,0 0.89373,0.89373 0.89373,0.89373c0,2.41167 0,4.82333 0,7.235c0,1.14295 0.12496,2.37665 -0.10405,3.50257c-0.11271,0.55411 -0.44587,1.04028 -0.6324,1.57409c-0.19292,0.55206 -0.29844,1.13289 -0.50302,1.68073c-0.33402,1.08558 -0.76625,2.17445 -0.99062,3.28992c-0.23451,1.16586 -0.17782,2.35469 -0.23943,3.53091c-0.0664,1.26757 -0.25513,2.51223 -0.25424,3.78577v0.51071c0,0 0,0.89373 -0.89373,0.89373c-0.89373,0 -0.89373,-0.89373 -0.89373,-0.89373v-0.51071c0.00025,-0.38606 0.01682,-0.76956 0.04183,-1.15186c-0.0272,0.00183 -0.05532,0.00277 -0.08439,0.00277z" fill="#918890" stroke="none"/><path d="M221.07566,213.20458c-0.31598,0.31598 -0.63196,0 -0.63196,0l-0.15232,-0.17119c-0.50968,-0.84947 -1.13662,-1.89693 -1.33328,-2.87395c-0.12204,-0.60631 0.16798,-1.17435 0.16307,-1.78208c0.00361,-1.50158 0.15315,-2.98351 0.34264,-4.47015c0.10926,-0.85717 -0.06218,-1.75912 -0.00131,-2.62238c0.12702,-1.80139 0.25449,-3.61146 0.25449,-5.41976c0,-1.76575 -0.03519,-3.48954 -0.16911,-5.24561c-0.08026,-1.05249 0.20346,-2.23453 0.00694,-3.26676c-0.11185,-0.58749 -0.1783,-1.07951 -0.1783,-1.70174c0,0 0,-0.44687 0.44687,-0.44687c0.44687,0 0.44687,0.44687 0.44687,0.44687c0,0.58751 0.06628,0.98368 0.16217,1.53273c0.18969,1.086 -0.07843,2.273 0.00694,3.37241c0.13802,1.77726 0.17136,3.52221 0.17136,5.30897c0,1.82627 -0.12454,3.65633 -0.25622,5.4753c-0.0634,0.87583 0.10568,1.78357 -0.00131,2.65491c-0.17902,1.45801 -0.34231,2.9093 -0.33829,4.38208c-0.00329,0.50186 -0.28886,1.14604 -0.1774,1.62262c0.20619,0.88164 0.75628,1.80031 1.22025,2.57359l0.01791,-0.00096c0,0 0.31598,0.31598 0,0.63196z" fill="#d6d3d6" stroke="none"/><path d="M222.50725,217.15541l-0.82648,0.14766c-0.02884,-0.17324 -0.05768,-0.34647 -0.08653,-0.51971c-0.0995,-0.79549 -0.22777,-1.59461 -0.17339,-2.3995c0.11156,-1.65101 0.73319,-3.30802 0.93868,-4.95896c0.29382,-2.36061 0.41992,-4.69813 0.67976,-7.05512c0.13571,-1.22132 0.13961,-2.52234 0.43603,-3.71843c0.29536,-1.19178 0.59734,-2.47986 0.66907,-3.71409c0.08515,-1.46523 -0.0013,-2.96614 -0.0013,-4.43461c0,0 0,-0.44687 0.44687,-0.44687c0.44687,0 0.44687,0.44687 0.44687,0.44687c0,1.49098 0.08717,3.01513 -0.0013,4.50275c-0.0762,1.28128 -0.38085,2.62522 -0.69282,3.86138c-0.29101,1.15313 -0.28418,2.42291 -0.41514,3.60169c-0.26466,2.36221 -0.3851,4.70799 -0.68212,7.07441c-0.20501,1.6333 -0.82684,3.28219 -0.93391,4.91469c-0.04824,0.73548 0.07629,1.46997 0.16709,2.19686c0.01692,0.10139 0.03383,0.20279 0.05075,0.30419c0.03904,0.09789 0.03904,0.18586 0.03904,0.18586l-0.0078,0.00139c0.00057,0.00342 0.00114,0.00684 0.00171,0.01026z" fill="#d6d3d6" stroke="none"/><path d="M231.74413,220.19803c-0.41491,-0.16596 -0.24894,-0.58087 -0.24894,-0.58087l0.14634,-0.34414c-0.03999,-2.11369 0.07818,-4.22649 0.07818,-6.331c0.09931,-0.69518 0.21253,-1.55958 0.16947,-2.24867c-0.05328,-0.85253 -0.60382,-1.64934 -0.67978,-2.5345c-0.06867,-0.80022 0.04152,-1.70192 -0.15858,-2.48267c-0.18134,-0.70753 -0.48931,-1.33463 -0.67759,-2.03013c-0.22736,-0.83986 -0.11705,-1.80437 -0.01185,-2.65328c0.29928,-1.74887 0.28497,-3.47158 0.16668,-5.26627c-0.16371,-2.4839 -0.00112,-5.0333 -0.00112,-7.52203c0,0 0,-0.44687 0.44687,-0.44687c0.44687,0 0.44687,0.44687 0.44687,0.44687c0,2.46653 -0.16717,4.99728 -0.00112,7.45868c0.12546,1.85981 0.1188,3.64241 -0.17379,5.45855c-0.09036,0.71599 -0.20723,1.57436 -0.01185,2.28354c0.19313,0.70105 0.50872,1.33733 0.68429,2.05552c0.20451,0.83659 0.11304,1.77024 0.18189,2.62439c0.0733,0.9093 0.61245,1.67977 0.68211,2.57256c0.05553,0.71172 -0.06888,1.63283 -0.17101,2.34769c0,2.1356 -0.06302,4.29298 -0.09206,6.43665l-0.19413,0.50704c0,0 -0.16596,0.41491 -0.58087,0.24894z" fill="#d6d3d6" stroke="none"/><path d="M235.71712,186.74954c0.43353,-0.10838 0.54191,0.32515 0.54191,0.32515l0.07553,0.30754c0.35715,1.08495 0.67161,2.53258 0.53147,3.67517c-0.15317,1.2488 -0.39401,2.33001 -0.25387,3.59131c0.00219,1.71521 0.48207,3.29778 0.59498,5.00979c0.06643,1.00725 0.11061,2.24781 -0.00279,3.24819c-0.05063,0.44658 -0.22282,0.8761 -0.25171,1.32461c-0.0596,0.9252 0.0858,1.85555 0.0858,2.78417c0,1.55866 0.1052,3.15479 -0.00086,4.70924c-0.04419,0.6477 -0.29337,1.24143 -0.34113,1.88168c-0.04628,0.62038 0.05166,1.25232 0,1.87258c-0.07526,0.90356 -0.45905,1.71232 -0.60038,2.59014c0,0 -0.07346,0.44079 -0.51425,0.36732c-0.44079,-0.07346 -0.36732,-0.51425 -0.36732,-0.51425c0.14637,-0.8541 0.51819,-1.64041 0.59127,-2.51692c0.05167,-0.61968 -0.04894,-1.25225 0,-1.87258c0.05019,-0.63621 0.29826,-1.22312 0.33981,-1.8635c0.09974,-1.53713 -0.00086,-3.11268 -0.00086,-4.6537c0,-0.94491 -0.14909,-1.89143 -0.08443,-2.8336c0.03247,-0.4732 0.20465,-0.92797 0.25899,-1.39915c0.10803,-0.9368 0.06076,-2.10785 -0.00279,-3.05051c-0.11583,-1.71794 -0.59909,-3.30898 -0.59666,-5.03408c-0.14509,-1.3058 0.09225,-2.43872 0.25684,-3.7288c0.12925,-1.01306 -0.16611,-2.34704 -0.48995,-3.30448l-0.09471,-0.3734c0,0 -0.10838,-0.43353 0.32515,-0.54191z" fill="#d6d3d6" stroke="none"/><path d="M240.87193,221.29075c-0.27068,-0.27068 -0.07762,-0.54136 -0.01669,-0.61341c0.17026,-1.03375 0.32543,-2.07318 0.7759,-3.03432c0.29031,-0.61939 0.98091,-1.07175 1.07567,-1.7747c0.14164,-1.05064 -0.09318,-2.17506 -0.09318,-3.23509c0,-1.91742 -0.18328,-3.76457 -0.33895,-5.66603c-0.19283,-2.35536 -0.0917,-4.7705 -0.08511,-7.13848c0.14912,-0.8947 0.14385,-1.80721 0.34989,-2.70006c0.54283,-2.35226 1.61295,-4.77951 1.6063,-7.22185c0,0 0,-0.44687 0.44687,-0.44687c0.44687,0 0.44687,0.44687 0.44687,0.44687c-0.00607,2.5193 -1.06845,4.99291 -1.62818,7.41839c-0.19674,0.85252 -0.18866,1.7229 -0.33106,2.57723c0.00745,2.31917 -0.11069,4.68486 0.08511,6.99104c0.16341,1.92458 0.342,3.79843 0.342,5.73974c0,1.11702 0.24208,2.29603 0.07706,3.40409c-0.12473,0.83746 -0.81243,1.25233 -1.13739,1.97048c-0.42826,0.94646 -0.56456,1.94297 -0.73322,2.9553l-0.20992,0.32764c0,0 -0.31598,0.31598 -0.63196,0z" fill="#d6d3d6" stroke="none"/><path d="M252.33832,213.25035c-0.44687,0 -0.44687,-0.44687 -0.44687,-0.44687l0.0045,-0.19216c-0.08957,-0.62701 -0.17359,-1.21635 -0.17473,-1.85067c0,-4.21102 -1.40458,-8.276 -1.86903,-12.45602c-0.55712,-3.8987 -0.59938,-7.94469 -0.59938,-11.88763c0,0 0,-0.44687 0.44687,-0.44687c0.44687,0 0.44687,0.44687 0.44687,0.44687c0,3.9059 0.04076,7.91346 0.59227,11.77507c0.46884,4.21957 1.87615,8.31521 1.87615,12.56857c-0.00118,0.59174 0.08213,1.139 0.16575,1.72427l0.0045,0.31855c0,0 0,0.44687 -0.44687,0.44687z" fill="#d6d3d6" stroke="none"/><path d="M256.07058,196.93111c0.10504,0.05884 0.20444,0.1702 0.20444,0.38095c0,0.44687 -0.44687,0.44687 -0.44687,0.44687l-0.50003,-0.28091c-0.40557,-1.01651 -0.86577,-1.98609 -1.0476,-3.0735c-0.37333,-2.23256 -0.26113,-4.5259 -0.26113,-6.79588c0,0 0,-0.44687 0.44687,-0.44687c0.44687,0 0.44687,0.44687 0.44687,0.44687c0,2.22201 -0.11323,4.46785 0.24958,6.65271c0.15665,0.94332 0.54743,1.79279 0.90786,2.66974z" fill="#d6d3d6" stroke="none"/><path d="M247.10402,187.43358c-0.54135,0.33834 -0.87969,-0.20301 -0.87969,-0.20301l-0.34934,-0.58201c-0.9569,-0.66092 -1.57782,-0.61563 -2.69452,-0.48424c-0.45136,0.05311 -0.91574,0.03535 -1.35487,0.15241c-1.42022,0.37858 -2.6897,1.68183 -3.59195,2.77164c0,0 -0.40868,0.49042 -0.8991,0.08174c-0.49042,-0.40868 -0.08174,-0.8991 -0.08174,-0.8991c0.81594,-0.97366 1.79339,-1.94023 2.88061,-2.60403c1.98142,-1.20974 4.83203,-1.23285 6.67179,0.10702l0.50183,0.77987c0,0 0.33834,0.54135 -0.20301,0.87969z" fill="#342b37" stroke="none"/><path d="M244.58101,187.0088c-1.20726,-0.1853 -2.46234,0.17121 -3.58655,0.62657c-0.10424,0.21083 -0.32149,0.35582 -0.5726,0.35582c-0.35257,0 -0.63838,-0.28581 -0.63838,-0.63838c0,-0.02266 0.00118,-0.04504 0.00349,-0.06708c-0.10383,-0.48109 0.38343,-0.68992 0.38343,-0.68992c0.59337,-0.2543 1.19359,-0.46845 1.80103,-0.62008c0.08242,-0.1759 0.24272,-0.30804 0.43651,-0.35202l0.66798,-0.167l0.00434,0.01735l0.03327,-0.02556c0.54617,-0.06189 1.91137,-0.20909 2.29105,0.46572c0.02429,0.00591 0.04859,0.01198 0.0729,0.0182l0.07359,0.13405l0.04606,-0.05527l0.50696,0.42246c0.14253,0.11707 0.23344,0.29469 0.23344,0.49354c0,0.35257 -0.28581,0.63838 -0.63838,0.63838c-0.11929,0 -0.23094,-0.03272 -0.32647,-0.08968l-0.58609,-0.33491l0.00823,-0.0144c-0.01858,-0.00494 -0.03712,-0.01011 -0.05561,-0.0155c-0.06189,-0.01809 -0.11228,-0.05614 -0.15822,-0.10231z" fill="url(#color-3)" stroke="none"/></g><g><g stroke-linecap="butt"><path d="M219.40144,182.48642c-0.11861,0.43512 -0.61303,0.43512 -0.61303,0.43512c-1.26102,0 -2.65638,0.15348 -3.90829,-0.00479c-0.97299,-0.123 -1.83986,-0.64898 -2.80888,-0.76606c-1.28995,-0.15585 -2.56889,-0.22729 -3.77742,-0.82619c-0.77955,-0.38631 -1.73557,-0.81403 -2.42243,-1.35654c-0.37785,-0.29845 -0.64513,-0.721 -1.02141,-1.02141c-0.46328,-0.36987 -0.98824,-0.65509 -1.4815,-0.98393c-0.91433,-0.61374 -1.61986,-1.34698 -2.39547,-2.12259c-0.11453,-0.11453 -1.06707,-1.06037 -1.11305,-1.1372c-0.45835,-0.76576 -0.54759,-1.8428 -0.82864,-2.68728c-0.36269,-1.08977 -0.64323,-2.26392 -0.7854,-3.4051c-0.28469,-2.28519 0.21928,-4.65865 -0.01031,-6.94797c-0.07306,-0.7285 -0.25099,-1.44959 -0.25392,-2.18174c0.09612,-0.39105 0.36631,-1.64777 0.60151,-2.04708c0.13637,-0.23154 0.39248,-0.36976 0.56006,-0.57982c0.57177,-0.71673 0.95826,-1.5821 1.53212,-2.29818c0.54408,-0.6789 1.22471,-1.07947 1.87643,-1.62108c0.79696,-0.66232 1.48096,-1.40129 2.29818,-2.04282c0.41241,-0.32375 0.60438,-0.86336 0.97474,-1.23448c0.20769,-0.20812 0.54885,-0.25742 0.73888,-0.48178c0.46912,-0.55386 0.5711,-1.34118 0.95695,-1.95596c0.71429,-1.13807 1.74675,-2.02931 2.69184,-2.96696c0.30883,-0.20227 0.58296,-0.47162 0.92649,-0.60681c0.39702,-0.15623 0.85533,-0.10225 1.25498,-0.25163c0.28256,-0.10562 0.48394,-0.36633 0.75459,-0.49953c0.46353,-0.22812 1.03282,-0.2101 1.47405,-0.47886c0.18181,-0.11074 0.27556,-0.32814 0.4416,-0.46136c0.71682,-0.57512 1.58181,-1.09025 2.36153,-1.57787c0.64333,-0.40233 1.38139,-0.63418 2.03636,-1.01726c0.70601,-0.41295 1.06179,-1.17248 1.85483,-1.5703c0.6438,-0.32294 1.40987,-0.30858 2.09305,-0.53669c0.36878,-0.12313 0.67729,-0.39291 1.04621,-0.51567c1.34838,-0.44867 2.52013,-0.62707 3.81427,-1.27108c0.0939,-0.02381 2.09434,-0.53409 2.18631,-0.54558c0.66767,-0.08337 1.35283,0.10107 2.01856,0.00346c0.26632,-0.03905 0.49947,-0.21817 0.76606,-0.25536c0.90455,-0.12618 1.99545,-0.00824 2.91114,-0.00824c0.84516,0 1.79819,-0.10057 2.63153,0.00479c0.97466,0.12321 1.84028,0.63131 2.80888,0.76606c2.32608,0.32359 4.7834,0.82713 7.03498,1.56587c0.88595,0.36198 1.75909,0.58022 2.69269,0.73576c0.55898,0.09313 1.15293,0.07331 1.67416,0.2957c1.22735,0.52369 2.1611,1.45919 3.35576,2.05914c1.20112,0.60319 2.63652,0.68664 3.83029,1.27677c2.4248,1.19867 4.77034,2.65619 7.01878,4.16543c0.63359,0.62859 1.28657,1.18714 1.70086,2.00068c0.11279,0.22148 0.09671,0.49799 0.22493,0.71092c0.12419,0.20624 0.38684,0.30427 0.51071,0.51071c0.13848,0.23081 0.11847,0.5343 0.25536,0.76606c0.42073,0.71234 1.22151,1.31156 1.73812,1.97372c0.15933,0.20422 0.20121,0.50297 0.40451,0.66346c0.19549,0.15432 0.50085,0.09109 0.71418,0.21964c0.23016,0.13868 0.36953,0.39276 0.57982,0.56006c0.7322,0.58254 2.09104,1.38086 2.48324,2.29222c0.11388,0.26462 -0.04659,0.58639 0.03152,0.86369c0.33548,1.19097 1.33131,1.99696 1.70921,3.13064c0.68076,0.64153 1.33078,1.25421 1.8099,2.08217c0.12741,0.22018 0.09145,0.51532 0.23293,0.72672c0.19263,0.28782 0.53941,0.44672 0.7409,0.72841c0.22146,0.30961 0.29955,0.70469 0.51071,1.02141c0.14177,0.21264 0.40607,0.3282 0.53586,0.54836c0.61421,1.04179 0.61221,2.24261 0.60605,3.39985c-0.00248,0.46584 0.07609,0.93995 -0.01152,1.39749c-0.14058,0.73425 -0.57006,1.3852 -0.78057,2.10253c-0.10656,0.36312 -0.13155,0.75282 -0.28389,1.09924c-0.40658,0.92451 -0.7428,0.95148 -1.37831,1.69212c-0.95886,1.11749 -1.98417,2.34145 -2.79747,3.5614c-0.56321,0.56768 -1.02499,1.2881 -1.5744,1.83415c-0.68413,0.67995 -1.84393,1.46221 -2.70774,1.90104c-0.61347,0.31165 -1.23112,0.6422 -1.89805,0.81157c-0.84272,0.21402 -1.74421,0.08106 -2.59574,0.25679c-1.64592,0.33967 -3.20748,1.27349 -4.89386,1.55032c-0.6216,0.10204 -1.25981,0.00824 -1.88973,0.00824c-1.27677,0 -2.55353,0 -3.83029,0c-1.3162,0 -2.64376,-0.0476 -3.93453,-0.26392c-1.01745,-0.17051 -1.91173,-0.47993 -2.97396,-0.50229c-1.35549,-0.02854 -2.71588,0.00015 -4.07169,0.00015c-0.73198,0 -1.47377,-0.12783 -2.19592,-0.00824c-0.41161,0.06816 -0.7772,0.3172 -1.18628,0.39918c-0.92835,0.18606 -2.36135,0.22458 -3.31988,0.11665c-1.64211,-0.18488 -3.29811,-0.9315 -4.88964,-1.38692c-0.66836,-0.13239 -1.32512,-0.34783 -2.00443,-0.4005c-0.84537,-0.06555 -1.69865,0.07016 -2.54373,0.00088c-0.88787,-0.07279 -2.37569,-0.56646 -3.27799,-0.30177c-0.20754,0.06088 -0.2469,0.37996 -0.44047,0.47644c-0.3442,0.17156 -0.7548,0.16234 -1.11446,0.29856c-0.94822,0.35915 -0.93051,0.63044 -1.9067,0.79747c-1.45699,0.24929 -2.729,-0.44546 -4.08558,-0.68222z" fill="url(#color-4)" stroke="#4f4548" stroke-width="2"/><path d="M235.01687,149.60089c0,5.00647 -4.63018,9.06503 -10.34179,9.06503c-5.71161,0 -10.34179,-4.05855 -10.34179,-9.06503c0,-5.00647 4.63018,-9.06503 10.34179,-9.06503c0.39807,0 2.09762,-3.47848 5.92315,-4.53624c4.17407,-1.15413 10.50026,0.10729 10.90489,0.19222c4.54553,0.95414 -6.48625,9.13222 -6.48625,13.40905z" fill="url(#color-5)" stroke="none" stroke-width="0"/></g><path d="M238.14494,171.8627c-0.38303,0.51071 -0.89373,0.12768 -0.89373,0.12768l-0.44043,-0.33722c-0.89259,-0.35704 -1.88211,-0.96381 -2.57149,-1.64434c-0.65918,-0.65072 -1.12345,-1.18915 -2.02486,-1.54758c-1.2412,-0.92237 -2.76046,-1.76517 -4.16209,-2.40001c-0.63815,-0.28904 -1.58783,-0.87889 -2.28507,-0.96542c-0.43256,-0.05369 -0.76475,0.42212 -1.16708,0.58983c-1.00316,0.41815 -1.95946,1.04533 -2.97368,1.41848c-0.3313,0.12189 -0.6977,0.1969 -0.97324,0.41759c0,0 -0.51071,0.38303 -0.89373,-0.12768c-0.38303,-0.51071 0.12768,-0.89373 0.12768,-0.89373c0.3941,-0.28327 0.86814,-0.43981 1.32494,-0.60383c0.98503,-0.35369 1.92489,-0.98451 2.89944,-1.3904c0.34241,-0.14261 1.26202,-0.7062 1.6418,-0.68694c0.85454,0.04334 2.03912,0.72041 2.82199,1.0774c1.43025,0.6522 3.00783,1.4997 4.26457,2.45169c1.78519,0.7182 2.78009,2.4654 4.59635,3.19191l0.58098,0.42884c0,0 0.51071,0.38303 0.12768,0.89373z" fill="#342b37" stroke="none" stroke-width="0.5" stroke-linecap="butt"/><path d="M264.60718,167.07997c0.04462,0.02358 0.55559,0.30854 0.28241,0.85488c-0.28549,0.57098 -0.85648,0.28549 -0.85648,0.28549l-0.59584,-0.57347c-0.18748,-1.11633 -0.98918,-1.47327 -1.88013,-2.00801c-0.66907,-0.40156 -1.33498,-0.85987 -2.15288,-0.92915c-1.36266,-0.11543 -2.67863,0.39673 -4.02996,0.3746c-0.67041,0.28213 -1.461,0.6238 -2.1705,0.76606c-0.18225,0.03654 -0.37938,-0.07529 -0.55723,-0.02124c-0.62327,0.1894 -1.32359,1.04853 -1.86789,1.44181c-1.08982,0.78742 -1.61491,1.85895 -2.41882,2.93086c-0.90303,1.20409 -1.48601,1.8756 -1.1623,3.45083c0,0 0.12519,0.62598 -0.50079,0.75118c-0.62598,0.12519 -0.75118,-0.50079 -0.75118,-0.50079c-0.2082,-1.06507 -0.21583,-2.13256 0.32482,-3.11916c0.18862,-0.3442 0.87032,-1.0845 1.06641,-1.34595c0.88879,-1.18501 1.47875,-2.31266 2.68825,-3.19761c0.67589,-0.49452 1.42182,-1.34223 2.21775,-1.62243c0.22633,-0.07968 0.48422,0.0257 0.71954,-0.02124c0.70877,-0.1414 1.49059,-0.5049 2.1705,-0.76606c1.47097,-0.01946 2.91419,-0.5308 4.39669,-0.39147c1.01942,0.09581 1.85549,0.60783 2.69883,1.11367c1.14985,0.6897 1.99776,1.25951 2.37881,2.52718z" fill="#342b37" stroke="none" stroke-width="0.5" stroke-linecap="butt"/><path d="M224.83052,171.81951c2.2477,-1.0374 7.52634,2.34142 7.52634,2.34142l4.11775,1.94851c0,0 -2.3504,1.57559 -3.88136,1.17462c-1.53096,-0.40097 -6.84346,-3.98351 -6.84346,-3.98351l-0.71498,-1.12355" fill="url(#color-6)" stroke="#ca1414" stroke-width="1.5" stroke-linecap="round"/><path d="M261.7251,171.55012l-0.71498,1.12355c0,0 -5.3125,3.58254 -6.84346,3.98351c-1.53096,0.40097 -3.88136,-1.17462 -3.88136,-1.17462l4.11775,-1.94851c0,0 5.27864,-3.37881 7.52634,-2.34142" data-paper-data="{&quot;index&quot;:null}" fill="url(#color-7)" stroke="#ca1414" stroke-width="1.5" stroke-linecap="round"/><path d="M256.65218,178.05913c-0.15834,-0.06902 0.35886,-0.39046 0.35886,-0.39046l0.30685,-0.17873c0.82206,-0.4032 1.05381,-0.70188 1.58792,-1.14705c1.05735,-0.88129 1.48692,-1.55765 1.95573,-2.23443c0.20093,-0.29007 0.37942,-0.51601 0.43197,-0.73735c0,0 0.04507,-0.18346 0.58409,-0.45628c0.53901,-0.27282 0.49394,-0.08935 0.49394,-0.08935c-0.06268,0.24799 -0.25781,0.51339 -0.47994,0.83396c-0.52644,0.75975 -1.03179,1.5127 -2.22396,2.50633c-0.50521,0.42107 -0.92241,0.84757 -1.7039,1.31192c-0.24025,0.14275 -0.49066,0.25278 -0.73599,0.37918l0.09997,-0.05016c0,0 -0.5172,0.32144 -0.67553,0.25242z" fill="url(#color-8)" stroke="none" stroke-width="0.5" stroke-linecap="butt"/><path d="M230.38606,179.73913l0.09997,0.05016c-0.24533,-0.12639 -0.49574,-0.23643 -0.73599,-0.37918c-0.78148,-0.46435 -1.19869,-0.89085 -1.7039,-1.31192c-1.19217,-0.99363 -1.69753,-1.74657 -2.22396,-2.50633c-0.22213,-0.32057 -0.41726,-0.58597 -0.47994,-0.83397c0,0 -0.04507,-0.18347 0.49394,0.08935c0.53901,0.27282 0.58409,0.45628 0.58409,0.45628c0.05254,0.22134 0.23103,0.44728 0.43197,0.73735c0.46881,0.67678 0.89838,1.35315 1.95573,2.23443c0.5341,0.44516 0.76586,0.74385 1.58792,1.14705l0.30685,0.17873c0,0 0.5172,0.32144 0.35887,0.39046c-0.15834,0.06902 -0.67553,-0.25242 -0.67553,-0.25242z" data-paper-data="{&quot;index&quot;:null}" fill="url(#color-9)" stroke="none" stroke-width="0.5" stroke-linecap="butt"/></g><path d="M199.25,137.42533l18.5,-29l10,18l31.5,-1.5l1,13h21v18.5h10v32h6.5v14.5l-10.5,1v12h-3l-11.5,-6v14l-6,1.5v14l-18,-7.5l-6,5.5l-7,-8h-28v-17h-18.5l2.5,-10.5h-34l13,-38h-9z" fill="#8e00ff" stroke="#000000" stroke-width="2" stroke-linecap="round"/></g></g></svg>