<svg version="1.1" xmlns="http://www.w3.org/2000/svg" xmlns:xlink="http://www.w3.org/1999/xlink" width="80.84546" height="123.98511" viewBox="0,0,80.84546,123.98511"><defs><linearGradient x1="289.17587" y1="79.81107" x2="278.58536" y2="178.766" gradientUnits="userSpaceOnUse" id="color-1"><stop offset="0" stop-color="#b1cf16"/><stop offset="1" stop-color="#e9f366"/></linearGradient><radialGradient cx="278.36874" cy="107.30243" r="3.55387" gradientUnits="userSpaceOnUse" id="color-2"><stop offset="0" stop-color="#020702"/><stop offset="1" stop-color="#050a02"/></radialGradient><radialGradient cx="306.77653" cy="115.84315" r="2.78735" gradientUnits="userSpaceOnUse" id="color-3"><stop offset="0" stop-color="#020702"/><stop offset="1" stop-color="#050a02"/></radialGradient></defs><g transform="translate(-240.50594,-61.22684)"><g data-paper-data="{&quot;isPaintingLayer&quot;:true}" fill-rule="nonzero" stroke-linejoin="miter" stroke-miterlimit="10" stroke-dasharray="" stroke-dashoffset="0" style="mix-blend-mode: normal"><g><g stroke-linecap="butt"><g stroke="#004700" stroke-width="1"><path d="M282.55928,95.23718c0,0 3.79083,-11.80812 5.78084,-16.73214c1.78184,-4.40893 7.59654,-13.49857 7.59654,-13.49857c0,0 6.86659,6.68767 8.02595,7.29316c0.2435,0.12719 2.25147,2.15529 2.25147,2.15529c0,0 -4.93272,5.80358 -6.65753,10.07137c-2.02251,5.00442 -6.53668,16.17413 -6.53668,16.17413z" fill="#399435"/><path d="M307.36727,74.4326c-0.7078,1.75132 -2.50844,0.39694 -5.32076,-1.23523c-0.47363,-0.27488 -0.16485,-2.56455 -0.69546,-2.84169c-0.68827,-0.35946 -2.11595,1.15719 -2.65822,0.58422c-2.35822,-2.49182 -3.31077,-6.54786 -2.63839,-8.21156c0.82698,-2.04628 4.17332,-0.62486 7.85468,1.29779c3.68137,1.92266 4.28515,8.36021 3.45817,10.40649z" fill="#91e665"/></g><path d="M242.90049,153.80295c-1.60966,-8.67251 0.21646,-16.40008 2.37184,-24.76855c2.34803,-9.11633 4.63117,-17.00848 9.90352,-24.61012c2.82059,-3.42093 5.73479,-6.96847 8.2944,-10.62243c4.02398,-5.74442 7.10266,-12.83389 14.22375,-14.64201c4.12707,-1.04791 9.52833,-0.57762 12.64573,2.92048c0.89099,0.9998 2.18014,1.70709 2.98017,2.75502c2.27784,-1.11556 2.73724,-1.61068 5.60636,1.03307c0.69358,0.63911 1.26638,1.49092 1.59842,2.40311c0.61687,-0.45486 1.41287,-0.65804 2.13031,-0.92871c2.55076,-0.96233 3.24101,-1.07662 5.90745,-0.30366c6.32849,1.83452 6.98443,8.84385 7.69864,14.73893c0.4075,3.91351 1.37332,7.90516 1.52161,11.81292c0.03552,0.93595 -0.25718,3.83807 -0.00181,5.0223c0.78164,3.62489 2.14198,6.95862 2.52315,10.71879c0.75296,7.42806 0.19452,15.17989 0.04755,22.58263c-0.1098,5.53036 0.34908,11.36151 -1.04046,16.62356c-0.13009,0.54917 -1.5454,6.57167 -1.66572,6.86902c-0.61564,1.52153 -2.09016,2.46504 -2.73722,3.9697c-0.37958,0.8827 -0.09822,2.13402 -0.70962,2.84007c-2.60404,3.00704 -8.46592,2.16117 -11.76904,0.42648c-2.1509,-1.12959 -3.04075,-2.38294 -4.34206,-4.44271c-0.4882,-0.77275 -1.00015,-1.55021 -1.31872,-2.41273c-0.11289,-0.30568 0.37137,-0.91683 0.07335,-0.95924c-0.37067,-0.05276 -0.37939,0.74515 -0.72654,0.86627c-1.76395,0.61556 -3.6667,0.80848 -5.54483,0.90252c-5.13224,0.25701 -8.9361,-1.75618 -12.45952,-5.80096c-0.35071,-0.93411 -0.73966,-1.85459 -1.05211,-2.80232c-0.10257,-0.31111 0.11066,-0.92328 -0.18913,-0.96257c-0.4037,-0.05292 -0.5201,0.69683 -0.90091,0.81971c-2.96289,0.95611 -6.45087,1.14808 -9.59309,0.85605c-8.40743,-0.78135 -21.42693,-2.07811 -24.92059,-12.0385c0,0 -0.71511,-2.16268 1.24724,-2.80932c0.06744,-0.02222 0.13342,-0.04113 0.19794,-0.05691z" fill="url(#color-1)" stroke="#334a0d" stroke-width="2"/><path d="M303.41843,111.76797c1.84107,0.34499 3.50268,-3.64356 4.73235,-2.29299c1.70115,1.86838 2.64611,4.46157 2.36131,7.12265c-0.49067,4.58463 -4.44565,7.6347 -8.83372,6.81246c-4.38807,-0.82223 -7.3553,-3.21523 -6.86464,-7.79989c0.49067,-4.58463 2.95771,-5.09094 7.34578,-4.26872z" data-paper-data="{&quot;index&quot;:null}" fill="#f6f9df" stroke="#354c0d" stroke-width="1.5"/><path d="M288.63929,111.57385c-0.49067,4.58463 -3.84338,5.79345 -8.23145,4.97122c-4.38807,-0.82223 -7.54753,-5.20535 -7.05686,-9.78998c0.28481,-2.66108 1.73674,-4.80517 3.76307,-5.97509c1.46472,-0.84568 3.00034,5.20539 4.8414,5.55036c4.38807,0.82223 7.17447,0.65886 6.6838,5.2435z" fill="#f6f9df" stroke="#354c0d" stroke-width="1.5"/><path d="M309.71358,114.07979c-0.83,-0.15552 -0.7348,-1.04493 -0.7348,-1.04493l0.0255,-0.00199c-0.17981,-2.33408 -1.77505,-1.46561 -3.434,-1.77076c-1.70647,-0.38479 -3.73982,1.28404 -5.73835,1.1861c-5.22615,-0.25611 -9.55944,-2.10199 -13.89921,-5.43131c-1.34504,-1.19935 -3.30646,-0.89524 -5.18343,-1.99353c-3.22794,-1.88881 -6.57877,-4.44321 -8.80521,-0.79035c0,0 -0.45631,0.72598 -1.15612,0.18909c-0.69981,-0.53686 -0.24348,-1.26283 -0.24348,-1.26283c4.28663,-6.66537 11.75984,-1.64852 16.35394,2.44798c4.06274,3.11678 8.03611,4.76001 12.91964,5.03745c2.22791,0.12657 3.84226,-1.50516 5.94258,-1.16141c2.49937,0.47847 4.38997,-0.05123 4.90024,3.41991l-0.0221,0.44272c0,0 -0.09519,0.88942 -0.92519,0.73389z" fill="#334a0d" stroke="none" stroke-width="0.5"/><path d="M280.37455,107.67827c-0.22342,2.08766 -1.3026,3.61175 -2.41039,3.40416c-1.10779,-0.20758 -1.8247,-2.06823 -1.60127,-4.15586c0.22342,-2.08766 1.30259,-3.61175 2.41038,-3.40417c1.10779,0.20758 1.82471,2.06823 1.60128,4.15586z" fill="url(#color-2)" stroke="none" stroke-width="0"/><path d="M308.85153,116.23195c-0.17524,1.63737 -1.24631,2.79064 -2.3923,2.57592c-1.14598,-0.21475 -1.93295,-1.71616 -1.75772,-3.35352c0.17524,-1.63737 1.24631,-2.79065 2.3923,-2.57592c1.14598,0.21475 1.93295,1.71616 1.75772,3.35352z" fill="url(#color-3)" stroke="none" stroke-width="0"/><path d="M263.33229,144.19048c-0.65422,0.51895 -1.1738,-0.21995 -1.1738,-0.21995l-0.48619,-0.80168c-2.53131,-0.13789 -5.73104,0.24645 -6.04371,-3.57672c-0.01265,-0.15464 0.25774,-2.61983 0.28523,-2.87676c0,0 0.09518,-0.88942 0.92519,-0.73388c0.83,0.15552 0.7348,1.04493 0.7348,1.04493c-0.08789,0.82133 -0.34419,1.62607 -0.28589,2.45974c0.18529,2.64955 3.41454,1.7167 5.19552,2.15828l0.98345,1.28819c0,0 0.51958,0.73889 -0.13461,1.25782z" fill="#334a0d" stroke="none" stroke-width="0.5"/><path d="M311.73636,164.50886c0.69981,0.53686 0.24348,1.26283 0.24348,1.26283l-0.85462,1.11313c-1.42179,-0.11597 -2.82435,0.0387 -4.21203,-0.20041c-0.00703,-0.00113 -0.01409,-0.00234 -0.02113,-0.00367c-0.1049,-0.01965 -0.20302,-0.05933 -0.29135,-0.11467c-0.22881,-0.1313 -0.50014,-0.40069 -0.44346,-0.93026c0.05669,-0.52957 0.37386,-0.68868 0.62122,-0.73076c0.09647,-0.02074 0.19908,-0.02279 0.30398,-0.00313c0.00677,0.00127 0.01352,0.00262 0.02025,0.00405c1.16882,0.23002 2.16832,-0.32043 3.31176,0.30216l0.16578,-0.51017c0,0 0.45631,-0.72598 1.15612,-0.18909z" fill="#334a0d" stroke="none" stroke-width="0.5"/></g><path d="M310.43139,156.17806c-0.25032,2.57823 -9.73396,-4.9985 -15.28328,-7.7267c-5.20999,-2.56138 -10.25638,-5.60327 -10.4469,-5.63664c-3.02561,-0.53 -5.90849,-0.53862 -8.32273,-0.37392c-3.98486,0.27185 -14.8251,-3.23518 -14.50728,-6.50864c0.51036,-5.2567 15.71746,-9.60418 23.73703,-8.19937c8.01957,1.40479 25.33353,23.18858 24.82317,28.44528z" fill="#ffffff" stroke="#334a0d" stroke-width="1.5" stroke-linecap="butt"/><path d="M272.88609,129.62338l1.35205,10.9466" fill="none" stroke="#334a0d" stroke-width="1.5" stroke-linecap="round"/><path d="M288.80258,147.44635l2.62953,-15.60403" fill="none" stroke="#334a0d" stroke-width="1.5" stroke-linecap="round"/><path d="M300.78454,152.22268l2.05933,-9.73116" fill="none" stroke="#334a0d" stroke-width="1.5" stroke-linecap="round"/><path d="M263.41675,137.23268l26.10192,-0.98853l20.60641,19.26238" fill="none" stroke="#334a0d" stroke-width="1.5" stroke-linecap="round"/></g></g></g></svg>