<svg version="1.1" xmlns="http://www.w3.org/2000/svg" xmlns:xlink="http://www.w3.org/1999/xlink" width="93.54293" height="72.49186" viewBox="0,0,93.54293,72.49186"><g transform="translate(-196.36878,-141.25814)"><g data-paper-data="{&quot;isPaintingLayer&quot;:true}" fill-rule="nonzero" stroke-linejoin="miter" stroke-miterlimit="10" stroke-dasharray="" stroke-dashoffset="0" style="mix-blend-mode: normal"><g stroke-width="2.5" stroke-linecap="butt"><path d="M243.03187,205.53607l0.51394,-12.48944l36.46914,1.50071l-0.51394,12.48943z" fill="#9c671d" stroke="#6b3b0d"/><path d="M278.73211,210.65752c-4.87185,-0.49232 -8.35307,-5.5244 -7.77553,-11.23945c0.57754,-5.71505 4.99514,-9.9489 9.86698,-9.45657c4.87185,0.49232 8.35307,5.5244 7.77553,11.23945c-0.57754,5.71505 -4.99513,9.94891 -9.86698,9.45657z" fill="#5be62d" stroke="#199e25"/></g><path d="M270.14909,153.40809l8.48746,-3.39651l2.65245,-7.26385l5.0351,1.2792l-2.88775,7.33658l4.1282,0.01292l-2.57973,7.49915l-3.47792,-1.24495l-7.05861,2.1816" fill="#f2f2f2" stroke="#929392" stroke-width="2.5" stroke-linecap="round"/><path d="M241.89319,161.32792l0.4919,-12.49032l36.47172,1.43632l-0.49188,12.49032z" fill="#9c671d" stroke="#6b3b0d" stroke-width="2.5" stroke-linecap="butt"/><path d="M271.68751,180c0,17.94925 -14.18698,32.5 -31.6875,32.5c-17.50053,0 -31.6875,-14.55075 -31.6875,-32.5c0,-17.94925 14.18697,-32.5 31.6875,-32.5c17.50052,0 31.6875,14.55075 31.6875,32.5z" fill="#32c302" stroke="#1a6521" stroke-width="2.5" stroke-linecap="butt"/><path d="M199.625,158.75c1,0 1,1 1,1l-0.10557,-0.19721c0.48595,1.15024 2.30513,1.9708 3.54468,2.21526c3.58685,0.70737 8.15565,0.49074 11.81089,0.48196c0,0 1,0 1,1c0,1 -1,1 -1,1c-4.74625,-0.01022 -14.54341,0.965 -17.14443,-3.80279l-0.10557,-0.69721c0,0 0,-1 1,-1z" fill="#141514" stroke="none" stroke-width="0.5" stroke-linecap="butt"/><path d="M197.875,169c1,0 1,1 1,1l-0.29289,-0.20711c1.72983,1.93375 7.75372,1.70523 10.09678,1.22653c0,0 0.98058,-0.19612 1.1767,0.78446c0.19612,0.98058 -0.78446,1.1767 -0.78446,1.1767c-3.26199,0.64038 -9.34913,0.62331 -11.90322,-1.77347l-0.29289,-1.20711c0,0 0,-1 1,-1z" fill="#141514" stroke="none" stroke-width="0.5" stroke-linecap="butt"/><path d="M196.92779,178.60557c0.89443,-0.44721 1.34164,0.44721 1.34164,0.44721l0.2313,0.66717c5.39799,0.47632 10.65539,0.21117 16.00024,-0.46224c0,0 0.99228,-0.12403 1.11631,0.86824c0.12403,0.99228 -0.86824,1.11631 -0.86824,1.11631c-5.56644,0.69061 -12.05852,1.75576 -17.49976,0.03776l-0.7687,-1.33283c0,0 -0.44721,-0.89443 0.44721,-1.34164z" fill="#141514" stroke="none" stroke-width="0.5" stroke-linecap="butt"/><path d="M260.37501,164c0,5.10863 -3.74962,9.25 -8.375,9.25c-4.62538,0 -5.875,-4.89137 -8.625,-9.5c-2.61774,-4.38698 3.99962,-9 8.625,-9c4.62538,0 8.375,4.14137 8.375,9.25z" fill="#ffffa8" stroke="#040404" stroke-width="2.5" stroke-linecap="butt"/><path d="M260.69216,186.375c0,4.21117 -3.26097,7.625 -7.28358,7.625c-4.02261,0 -9.17995,-3.86498 -7.28358,-7.625c2.25,-4.46117 3.26097,-7.625 7.28358,-7.625c4.02261,0 7.28358,3.41383 7.28358,7.625z" fill="#ffffa8" stroke="#040404" stroke-width="2.5" stroke-linecap="butt"/><path d="M257.12501,162c0,1.38071 -1.39911,2.5 -3.125,2.5c-1.72589,0 -3.125,-1.11929 -3.125,-2.5c0,-1.38071 1.39911,-2.5 3.125,-2.5c1.72589,0 3.125,1.11929 3.125,2.5z" fill="#0c0c0b" stroke="#040404" stroke-width="0" stroke-linecap="butt"/><path d="M259.12501,184.625c0,1.17361 -0.7835,2.125 -1.75,2.125c-0.9665,0 -1.75,-0.95139 -1.75,-2.125c0,-1.17361 0.7835,-2.125 1.75,-2.125c0.9665,0 1.75,0.95139 1.75,2.125z" fill="#0c0c0b" stroke="none" stroke-width="0" stroke-linecap="butt"/><path d="M259.62501,172.5c0,-0.69036 0.55964,-1.25 1.25,-1.25c0.69036,0 1.25,0.55964 1.25,1.25c0,0.69036 -0.55964,1.25 -1.25,1.25c-0.69036,0 -1.25,-0.55964 -1.25,-1.25z" fill="#0c0c0b" stroke="none" stroke-width="0.5" stroke-linecap="butt"/><path d="M260.62501,178.5c0,-0.69036 0.55964,-1.25 1.25,-1.25c0.69036,0 1.25,0.55964 1.25,1.25c0,0.69036 -0.55964,1.25 -1.25,1.25c-0.69036,0 -1.25,-0.55964 -1.25,-1.25z" fill="#0c0c0b" stroke="none" stroke-width="0.5" stroke-linecap="butt"/><path d="M233.50888,164.61612c0.88388,0.88388 0,1.76777 0,1.76777l-0.38388,0.36612c-0.13832,0.10123 -0.2649,0.20695 -0.38257,0.31613c0.21365,0.18377 0.38257,0.47436 0.38257,0.93387c0,1.25 -1.25,1.25 -1.25,1.25l-0.77869,-0.19467c-0.11821,0.1275 -0.24499,0.25225 -0.38414,0.37292c-0.22756,0.19733 -0.50373,0.32106 -0.79427,0.42271c0.06966,0.04888 0.1387,0.09856 0.20709,0.14905l0.5,1.25c0,0 0,1.25 -1.25,1.25c-0.54462,0 -0.85195,-0.23729 -1.02538,-0.5051c0.01516,0.08771 0.02494,0.17329 0.02538,0.2551c0,0 0,1.25 -1.25,1.25c-1.25,0 -1.25,-1.25 -1.25,-1.25c0.00253,-0.57166 -0.03568,-1.33118 0.06443,-2.02527c-0.00281,-0.00653 -0.00557,-0.01311 -0.00827,-0.01975l-0.30616,-0.20498c-0.00857,-0.00656 -0.01716,-0.01311 -0.02576,-0.01963c-0.0682,0.3611 -0.31696,1.01963 -1.22424,1.01963c-1.25,0 -1.25,-1.25 -1.25,-1.25c0.01587,-0.40708 0.06647,-0.76575 0.14675,-1.0858c-0.28659,-0.2469 -0.58263,-0.69025 -0.30735,-1.37844c0.46424,-1.1606 1.62483,-0.69636 1.62483,-0.69636c0.0085,0.00347 0.01701,0.00695 0.0255,0.01045c0.33082,-0.27875 0.69829,-0.53295 1.08289,-0.80039c-0.17802,-0.12209 -0.96789,-0.73693 -0.3945,-1.69258c0.64312,-1.07187 1.71499,-0.42875 1.71499,-0.42875c0.19597,0.11787 0.3909,0.23766 0.58453,0.35957c0.20327,-0.28515 0.73039,-0.83122 1.58136,-0.40574c0.96162,0.48081 0.68261,1.37516 0.58572,1.61599c0.34967,0.06034 0.60526,0.25204 0.60526,0.25204c0.09072,0.06804 0.18144,0.13608 0.27217,0.20413c0.2838,-0.33627 0.5946,-0.66139 0.97783,-0.95413l0.11612,-0.13388c0,0 0.88388,-0.88388 1.76777,0zM228.24112,167.63388l-0.36612,-0.38388c-0.02422,-0.01822 -0.04849,-0.03639 -0.0728,-0.05449c-0.3212,0.20201 -0.64438,0.40411 -0.93994,0.61666c0.08857,0.06132 0.17617,0.12394 0.26274,0.18783l0.40567,0.26909c0.35261,-0.12524 0.7216,-0.23217 1.049,-0.39561c-0.20921,-0.11025 -0.33856,-0.2396 -0.33856,-0.2396z" fill="#0d0e0d" stroke="none" stroke-width="0.5" stroke-linecap="butt"/></g></g></svg>