<svg version="1.1" xmlns="http://www.w3.org/2000/svg" xmlns:xlink="http://www.w3.org/1999/xlink" width="95.95218" height="89.53904" viewBox="0,0,95.95218,89.53904"><defs><linearGradient x1="234.38185" y1="142.32496" x2="234.38185" y2="207.55601" gradientUnits="userSpaceOnUse" id="color-1"><stop offset="0" stop-color="#ec9c21"/><stop offset="1" stop-color="#b75428"/></linearGradient><linearGradient x1="214.99924" y1="149.73103" x2="214.99924" y2="155.80649" gradientUnits="userSpaceOnUse" id="color-2"><stop offset="0" stop-color="#ec9c21"/><stop offset="1" stop-color="#b75428"/></linearGradient><linearGradient x1="208.44168" y1="158.36953" x2="208.44168" y2="166.7233" gradientUnits="userSpaceOnUse" id="color-3"><stop offset="0" stop-color="#ec9c21"/><stop offset="1" stop-color="#b75428"/></linearGradient><linearGradient x1="208.44167" y1="168.97002" x2="208.44167" y2="180.1084" gradientUnits="userSpaceOnUse" id="color-4"><stop offset="0" stop-color="#ec9c21"/><stop offset="1" stop-color="#b75428"/></linearGradient><linearGradient x1="207.05992" y1="182.78272" x2="207.05992" y2="193.02605" gradientUnits="userSpaceOnUse" id="color-5"><stop offset="0" stop-color="#ec9c21"/><stop offset="1" stop-color="#b75428"/></linearGradient><linearGradient x1="246.93706" y1="201.27729" x2="246.93706" y2="207.6059" gradientUnits="userSpaceOnUse" id="color-6"><stop offset="0" stop-color="#ec9c21"/><stop offset="1" stop-color="#b75428"/></linearGradient><linearGradient x1="253.46356" y1="194.53764" x2="253.46356" y2="198.08166" gradientUnits="userSpaceOnUse" id="color-7"><stop offset="0" stop-color="#ec9c21"/><stop offset="1" stop-color="#b75428"/></linearGradient><linearGradient x1="226.65715" y1="150.49047" x2="226.65715" y2="165.93229" gradientUnits="userSpaceOnUse" id="color-8"><stop offset="0" stop-color="#ec9c21" stop-opacity="0.59677"/><stop offset="1" stop-color="#b75428" stop-opacity="0.37097"/></linearGradient><linearGradient x1="246.93705" y1="150.7436" x2="246.93705" y2="164.16026" gradientUnits="userSpaceOnUse" id="color-9"><stop offset="0" stop-color="#ec9c21" stop-opacity="0.58871"/><stop offset="1" stop-color="#b75428" stop-opacity="0.64516"/></linearGradient><linearGradient x1="260.4165" y1="178.33639" x2="260.4165" y2="191.24676" gradientUnits="userSpaceOnUse" id="color-10"><stop offset="0" stop-color="#ec9c21"/><stop offset="1" stop-color="#b75428"/></linearGradient><linearGradient x1="227.62865" y1="142.68633" x2="227.62865" y2="147.49608" gradientUnits="userSpaceOnUse" id="color-11"><stop offset="0" stop-color="#ec9c21"/><stop offset="1" stop-color="#b75428"/></linearGradient><linearGradient x1="241.70528" y1="141.67349" x2="241.70528" y2="146.73638" gradientUnits="userSpaceOnUse" id="color-12"><stop offset="0" stop-color="#ec9c21"/><stop offset="1" stop-color="#b75428"/></linearGradient><linearGradient x1="232.92488" y1="164.98964" x2="226.63739" y2="171.16724" gradientUnits="userSpaceOnUse" id="color-13"><stop offset="0" stop-color="#ec9c21"/><stop offset="1" stop-color="#b75428"/></linearGradient><linearGradient x1="241.56112" y1="164.67627" x2="247.84861" y2="170.85388" gradientUnits="userSpaceOnUse" id="color-14"><stop offset="0" stop-color="#ec9c21"/><stop offset="1" stop-color="#b75428"/></linearGradient><linearGradient x1="260.4165" y1="162.45729" x2="260.4165" y2="175.36767" gradientUnits="userSpaceOnUse" id="color-15"><stop offset="0" stop-color="#ec9c21"/><stop offset="1" stop-color="#b75428"/></linearGradient><linearGradient x1="256.00609" y1="161.78274" x2="261.16363" y2="150.04478" gradientUnits="userSpaceOnUse" id="color-16"><stop offset="0" stop-color="#ec9c21"/><stop offset="1" stop-color="#b75428"/></linearGradient><linearGradient x1="211.62435" y1="203.73252" x2="218.69524" y2="210.84657" gradientUnits="userSpaceOnUse" id="color-17"><stop offset="0" stop-color="#ec9c21"/><stop offset="1" stop-color="#b75428"/></linearGradient><linearGradient x1="245.89886" y1="206.02531" x2="238.82797" y2="213.13936" gradientUnits="userSpaceOnUse" id="color-18"><stop offset="0" stop-color="#ec9c21"/><stop offset="1" stop-color="#b75428"/></linearGradient><radialGradient cx="219.41159" cy="187.38817" r="43.76953" gradientUnits="userSpaceOnUse" id="color-19"><stop offset="0" stop-color="#7f7f7f"/><stop offset="1" stop-color="#929292"/></radialGradient></defs><g transform="translate(-189.92796,-134.44445)"><g data-paper-data="{&quot;isPaintingLayer&quot;:true}" fill-rule="nonzero" stroke-linejoin="miter" stroke-miterlimit="10" stroke-dasharray="" stroke-dashoffset="0" style="mix-blend-mode: normal"><path d="M209.09206,150.98024c0,0.7904 0.0917,1.55939 0.26504,2.2969c-1.5967,1.21349 -2.82578,2.35729 -3.91997,3.57357c0.94197,-2.96108 2.20651,-5.68556 3.90227,-8.09064c-0.16187,0.71407 -0.24733,1.45714 -0.24733,2.22018z" fill="#7f7f7f" stroke="none" stroke-width="0" stroke-linecap="butt"/><path d="M212.86476,154.48921l-1.20882,-6.01793l6.04404,0.25075l6.04403,-3.3424l3.62642,-4.76419l4.83524,3.51046l4.70439,-1.62986l7.97813,-2.00598l0.7253,5.01493l10.69183,1.86132l5.1133,8.84442l-10.55711,4.63814l6.48736,0.22812l7.73636,8.77615l-10.39575,4.01195l2.65937,2.94061l7.73636,8.77614l-7.21339,6.36955l-1.97355,3.40959l2.41761,3.00896l-6.04404,0.50149l-1.20881,1.75523l1.45057,6.26868l-36.6427,1.37248l-4.19489,-14.05848l-8.08646,-5.24909l4.92836,-4.89722l1.34842,-3.61602l-5.70501,-3.64131l5.07699,-9.27764l1.93409,-2.00598l-5.07699,-3.51046l4.59346,-4.76419l1.76,-1.33808" fill="#000000" stroke="#000000" stroke-width="0.5" stroke-linecap="round"/><path d="M214.30093,155.48146c-1.80936,-1.23558 -2.6131,-3.87855 -1.13047,-5.65569c1.48264,-1.77716 3.38603,0.81814 5.6523,0.23566c2.26627,-0.58249 3.69911,-1.49579 5.6523,-3.14122c1.95318,-1.64542 1.26504,-4.16081 3.39138,-4.47743c2.12635,-0.31661 2.31829,2.86261 4.52184,3.29916c2.20355,0.43655 2.60234,-1.01401 4.39947,-1.53175c1.79713,-0.51775 4.61857,-2.87279 7.46104,-1.88523c2.84246,0.98755 -0.91931,3.3119 0.67828,4.71307c1.59759,1.40118 7.43253,0.00239 9.99886,1.74928c2.56633,1.7469 5.6556,4.18218 4.7819,8.31204c-0.87371,4.12987 -6.97174,0.87289 -9.87286,4.35896c-2.90113,3.48607 3.30958,-1.53974 6.06689,0.21439c2.75732,1.75413 8.12099,3.9661 7.23495,8.24789c-0.88605,4.28179 -6.4487,0.81431 -9.72196,3.77047c-3.27325,2.95616 0.95479,1.02814 2.48701,2.7636c1.53222,1.73546 8.11718,3.98452 7.23495,8.24789c-0.88223,4.26337 -3.72468,2.75434 -6.74586,5.98615c-3.02117,3.23182 -2.83615,0.7954 -1.84563,3.20436c0.99052,2.40896 3.29158,1.82522 2.26092,2.82784c-1.03066,1.00263 -3.49776,-0.20239 -5.6523,0.47131c-2.15454,0.6737 -1.16014,0.65949 -1.13047,1.64958c0.02969,0.99009 3.1187,4.39906 1.35656,5.89135c-1.76215,1.49229 -32.47245,2.75186 -34.26774,1.28986c-1.79529,-1.46199 -0.48942,-12.16218 -3.92301,-13.21226c-3.43359,-1.05008 -6.48567,-1.45689 -7.56235,-4.93313c-1.07668,-3.47625 2.77985,-2.36672 4.60893,-4.60244c1.82909,-2.23573 2.50176,-1.32129 1.26102,-3.39837c-1.24075,-2.07708 -4.52716,-0.33387 -5.33524,-3.42214c-0.80808,-3.08826 2.64916,-5.32475 4.74793,-8.7192c2.09877,-3.39445 2.43249,-0.78501 1.80874,-1.88523c-0.62375,-1.10021 -4.61238,-0.96794 -4.74794,-3.29916c-0.13555,-2.33122 2.47607,-2.72105 4.29575,-4.47743c1.81967,-1.75637 1.76484,-0.39143 1.64592,-1.25755" fill="url(#color-1)" stroke="none" stroke-width="0" stroke-linecap="round"/><path d="M236.78538,188.9873c-0.79716,0 -5.78075,-0.39128 -9.9149,1.05575c0,0 -0.75625,0.26275 -1.00834,-0.5255c-0.25209,-0.78825 0.50417,-1.05098 0.50417,-1.05098c5.301,-1.82604 21.31666,-0.66359 21.68702,0.44105l-0.32792,2.19945z" fill="#050505" stroke="none" stroke-width="0.5" stroke-linecap="butt"/><path d="M213.1777,155.80649l-1.21436,-6.07547l6.07183,0.25315" fill="url(#color-2)" stroke="#000000" stroke-width="1.5" stroke-linecap="round"/><path d="M210.99185,166.72331l-5.10034,-3.54403l4.61459,-4.80975" fill="url(#color-3)" stroke="#000000" stroke-width="1.5" stroke-linecap="round"/><path d="M212.44908,180.1084l-8.0148,-1.77201l5.10034,-9.36636" fill="url(#color-4)" stroke="#000000" stroke-width="1.5" stroke-linecap="round"/><path d="M213.88527,193.46918l-10.88717,-5.74242l8.1397,-4.50091" fill="url(#color-5)" stroke="#000000" stroke-width="1.5" stroke-linecap="round"/><path d="M223.23379,194.72549l-5.10034,0.25315l2.6716,-5.56918" fill="none" stroke="#000000" stroke-width="1.5" stroke-linecap="round"/><path d="M232.85041,199.91549l-4.61459,4.30346l-2.42924,-3.16458" fill="none" stroke="#000000" stroke-width="1.5" stroke-linecap="round"/><path d="M249.21432,200.39101l2.73272,7.21489l-7.68157,-3.03774" fill="url(#color-6)" stroke="#000000" stroke-width="1.5" stroke-linecap="round"/><path d="M254.07073,194.53764l2.42873,3.03775l-6.07183,0.50628" fill="url(#color-7)" stroke="#000000" stroke-width="1.5" stroke-linecap="round"/><path d="M250.65641,184.81057l-0.48574,3.03774h-4.61459" fill="none" stroke="#000000" stroke-width="1.5" stroke-linecap="round"/><path d="M229.69307,190.99361l-3.15735,-0.75944l-0.97148,-3.03774" fill="none" stroke="#000000" stroke-width="1.5" stroke-linecap="round"/><path d="M236.25064,197.0691l-2.91448,0.50629l-1.21436,-2.53145" fill="none" stroke="#000000" stroke-width="1.5" stroke-linecap="round"/><path d="M220.22101,165.93229l-3.15735,-1.51887l5.58608,-2.53145l-2.6716,-5.82233l8.0148,-1.01258l1.45724,-4.5566l5.34321,7.59434" fill="url(#color-8)" stroke="#000000" stroke-width="1.5" stroke-linecap="round"/><path d="M237.22213,156.05965l2.91448,-3.79717l3.40022,1.01257l5.82895,-2.53145l2.42873,6.58176l4.85746,0.25315l-4.85746,6.58176" fill="url(#color-9)" stroke="#000000" stroke-width="1.5" stroke-linecap="round"/><path d="M257.86634,178.33639l7.77194,8.86006l-10.44354,4.05032" fill="url(#color-10)" stroke="#000000" stroke-width="1.5" stroke-linecap="round"/><path d="M223.37837,147.49608l3.6431,-4.80975l4.85746,3.54403" fill="url(#color-11)" stroke="#000000" stroke-width="1.5" stroke-linecap="round"/><path d="M237.33357,143.69864l8.0148,-2.02515l0.72863,7.05701" fill="url(#color-12)" stroke="#000000" stroke-width="1.5" stroke-linecap="round"/><g><g stroke-linecap="butt"><path d="M223.75157,168.20454c0,0 5.01981,0.88497 7.20169,1.91836c2.01625,0.95495 4.54308,4.5032 4.54308,4.5032c0,0 -6.30293,5.94838 -9.19932,4.57658c-2.89639,-1.3718 -2.54544,-10.99813 -2.54544,-10.99813z" fill="#ffffff" stroke="#000000" stroke-width="2.5"/><path d="M223.90744,171.94365c0.25949,-0.59521 0.38589,-3.20737 0.38589,-3.20737c0,0 4.56394,0.35826 6.73517,1.38661c2.09688,0.99313 3.99265,2.78183 4.19543,4.63902c0.07732,0.70811 -0.84258,0.55215 -1.12868,1.20839c-0.31141,0.7143 -0.74185,1.13073 -1.37548,1.54603c-0.12739,0.08349 -0.56091,0.23902 -0.69811,0.30962c-0.84426,0.43436 -1.33733,1.64122 -2.40703,1.54947c0.66476,-0.40104 1.32129,-1.00363 1.61412,-1.54511c0.32745,-0.60552 0.69097,-0.83856 0.68135,-1.78236c-0.05319,-5.22169 -6.39241,-4.45469 -8.22524,-1.55199c-0.18762,-0.86638 -0.12838,-1.74731 0.22258,-2.55232z" data-paper-data="{&quot;index&quot;:null}" fill-opacity="0.53226" fill="#0c0067" stroke="none" stroke-width="0"/></g><path d="M236.77738,169.24935l-0.92168,4.72954l-12.07376,-6.32077l0.65294,-5.05337" data-paper-data="{&quot;index&quot;:null}" fill="url(#color-13)" stroke="#000000" stroke-width="1" stroke-linecap="round"/><path d="M230.78606,174.76312c0,-0.51931 0.4039,-0.94028 0.90212,-0.94028c0.49823,0 0.90211,0.42097 0.90211,0.94028c0,0.51931 -0.40389,0.94028 -0.90211,0.94028c-0.49823,0 -0.90212,-0.42097 -0.90212,-0.94028z" fill="#050505" stroke="none" stroke-width="0.5" stroke-linecap="butt"/></g><g data-paper-data="{&quot;index&quot;:null}"><g stroke-linecap="butt"><path d="M248.18899,178.88931c-2.89639,1.3718 -9.19932,-4.57657 -9.19932,-4.57657c0,0 2.52683,-3.54826 4.54308,-4.5032c2.18187,-1.03339 7.20169,-1.91836 7.20169,-1.91836c0,0 0.35095,9.62634 -2.54544,10.99813z" fill="#ffffff" stroke="#000000" stroke-width="2.5"/><path d="M250.80115,174.18262c-1.83283,-2.9027 -8.17204,-3.66969 -8.22524,1.55199c-0.00962,0.94381 0.35391,1.17684 0.68136,1.78236c0.29282,0.54148 0.94934,1.14407 1.61411,1.54511c-1.0697,0.09175 -1.56277,-1.1151 -2.40703,-1.54947c-0.1372,-0.07059 -0.57071,-0.22612 -0.69811,-0.30962c-0.63364,-0.4153 -1.06407,-0.83174 -1.37548,-1.54604c-0.2861,-0.65624 -1.20599,-0.50027 -1.12868,-1.20838c0.20276,-1.85719 2.09854,-3.6459 4.19543,-4.63903c2.17124,-1.02835 6.73517,-1.38661 6.73517,-1.38661c0,0 0.1264,2.61215 0.38589,3.20737c0.35097,0.80502 0.4102,1.68595 0.22258,2.55233z" data-paper-data="{&quot;index&quot;:null}" fill-opacity="0.53226" fill="#0c0067" stroke="none" stroke-width="0"/></g><path d="M250.05113,162.29139l0.65294,5.05337l-12.07377,6.32077l-0.92168,-4.72954" data-paper-data="{&quot;index&quot;:null}" fill="url(#color-14)" stroke="#000000" stroke-width="1" stroke-linecap="round"/><path d="M248.53057,175.39004c-0.49823,0 -0.90211,-0.42097 -0.90211,-0.94028c0,-0.51931 0.40389,-0.94028 0.90211,-0.94028c0.49823,0 0.90212,0.42097 0.90212,0.94028c0,0.51931 -0.4039,0.94028 -0.90212,0.94028z" fill="#050505" stroke="none" stroke-width="0.5" stroke-linecap="butt"/></g><path d="M257.86634,162.45729l7.77194,8.86006l-10.44354,4.05032" fill="url(#color-15)" stroke="#000000" stroke-width="1.5" stroke-linecap="round"/><path d="M254.71544,148.8864l9.57772,7.10709l-10.60566,4.6825" data-paper-data="{&quot;index&quot;:null}" fill="url(#color-16)" stroke="#000000" stroke-width="1.5" stroke-linecap="round"/><path d="M226.60491,206.45327l-9.76944,1.32344l-0.58506,-8.56704" fill="url(#color-17)" stroke="#000000" stroke-width="1.5" stroke-linecap="round"/><path d="M242.76087,203.275l-2.07311,6.79449l-8.28139,-5.31168" data-paper-data="{&quot;index&quot;:null}" fill="url(#color-18)" stroke="#000000" stroke-width="1.5" stroke-linecap="round"/><path d="M271.35531,181.1836c0,13.23257 -6.24002,24.88887 -14.37542,32.36164c-6.80066,6.24675 -14.79392,9.43825 -22.82868,9.43825c-17.64647,0 -31.95175,-19.25656 -31.95175,-43.55067c0,-12.13017 0.50252,-23.98897 6.2705,-31.94667c5.78403,-7.97984 16.84576,-12.0417 25.68125,-12.0417c6.7384,0 14.63086,1.3762 20.73123,6.59473c9.87523,8.44773 16.47287,24.12715 16.47287,39.14442zM223.71462,165.56567c-0.33077,0 -0.65646,0.02177 -0.97571,0.06396c-1.27986,0.13466 -2.13807,0.45645 -2.78591,0.96588c-2.16438,1.28555 -3.615,3.64677 -3.615,6.34679c0,3.96595 3.12976,7.2009 7.05415,7.3697c0.11027,0.00161 0.21805,0.00366 0.32247,0.00692c8.13432,0.25352 16.27655,-0.01528 24.4148,0c1.7763,0.00333 5.62898,-0.50646 6.93585,-1.5368c1.06134,-0.83676 3.63313,-5.46128 3.68831,-6.45455c0.04119,-0.74144 -3.15071,-6.08693 -3.68831,-6.45455c-3.13416,-2.14316 -4.25907,-0.34121 -7.06927,-0.30736c-8.09321,0.09751 -16.19156,-0.25334 -24.28138,0z" fill="url(#color-19)" stroke="#000000" stroke-width="2" stroke-linecap="butt"/><g fill="#7f7f7f" stroke="#000000" stroke-width="2" stroke-linecap="round"><path d="M264.95167,184.00722l18.1342,1.84416l-19.05628,13.21645"/><path d="M264.02959,163.10679l16.5974,0.30736l-10.75758,12.90909"/><path d="M254.80881,144.97259l15.98269,-2.15151l-7.06927,16.5974"/></g><g data-paper-data="{&quot;index&quot;:null}" fill="#7f7f7f" stroke="#000000" stroke-width="2" stroke-linecap="round"><path d="M210.85643,161.87735l-18.13419,-1.84416l19.05627,-13.21645"/><path d="M211.77851,182.77778l-16.5974,-0.30736l10.75758,-12.90909"/><path d="M220.99928,200.91198l-15.98268,2.15152l7.06927,-16.5974"/></g><path d="M266.92252,196.92722c-0.0399,-1.32098 0.28669,-2.67463 0,-3.96474c-0.2275,-1.02373 -1.72367,-4.45021 -1.61155,-5.61053c0.06997,-0.72417 1.41455,-0.44905 1.99255,-0.89092c1.25847,-0.96208 2.72951,-1.7747 3.6082,-3.09275c0.07125,-0.10686 0.1179,-0.22121 0.14673,-0.34109c-0.25257,5.76078 -1.67625,11.19217 -3.89984,16.07139c-0.12345,-0.77902 -0.21621,-1.5131 -0.2361,-2.17136z" fill="#7f7f7f" stroke="none" stroke-width="0" stroke-linecap="butt"/><path d="M259.48138,152.07975c-1.40055,-0.5989 -4.5476,1.10398 -6.25415,0.80736c-0.46577,-0.08096 0.76789,-0.56553 1.07556,-0.92448c0.44837,-0.5231 1.34446,-1.75681 1.53283,-2.49394c0.44941,-1.75872 0.92886,-3.67372 0.84946,-5.51714c2.93487,2.94937 5.52657,6.55007 7.67375,10.56119c-1.27581,-0.83314 -2.90084,-1.58775 -4.87745,-2.43299z" fill="#7f7f7f" stroke="none" stroke-width="0" stroke-linecap="butt"/><path d="M208.72604,200.97654c1.28534,0.59048 4.32212,-1.80157 5.28644,-1.35458c2.39437,1.10988 -2.64493,4.51954 -3.28458,5.36176c-0.52341,0.68916 -1.02368,1.462 -1.46608,2.28896c-1.50481,-2.47358 -2.81194,-5.18163 -3.88849,-8.08146c0.99678,0.61362 2.05534,1.18932 3.3527,1.78532z" fill="#7f7f7f" stroke="none" stroke-width="0" stroke-linecap="butt"/><path d="M267.43553,164.78409c0.17399,-0.88529 0.29573,-1.69462 0.3651,-2.43805c0.41564,1.1789 0.79531,2.3764 1.13709,3.58791c-0.81478,-0.26655 -1.63396,-0.47936 -1.50218,-1.14986z" fill="#7f7f7f" stroke="none" stroke-width="0" stroke-linecap="butt"/><path d="M216.16399,140.58969c-0.13172,0.01237 -0.26264,0.02752 -0.39269,0.04538c1.56108,-0.96264 3.21225,-1.79244 4.90751,-2.4885c-1.4195,0.8874 -2.87503,1.75087 -4.51482,2.44313z" fill="#7f7f7f" stroke="none" stroke-width="0" stroke-linecap="butt"/><path d="M271.09885,181.1836c0,0.39285 -0.0055,0.78433 -0.01639,1.17433c-0.04895,-0.51077 -0.1857,-1.0535 -0.03016,-1.52007c0.01313,-0.03939 0.02801,-0.078 0.04447,-0.1159c0.00137,0.15395 0.00207,0.30783 0.00207,0.46164z" fill="#7f7f7f" stroke="none" stroke-width="0" stroke-linecap="butt"/></g></g></svg>