<svg version="1.1" xmlns="http://www.w3.org/2000/svg" xmlns:xlink="http://www.w3.org/1999/xlink" width="88.83166" height="123.27948" viewBox="0,0,88.83166,123.27948"><defs><linearGradient x1="299.27548" y1="87.88942" x2="264.20952" y2="181.02704" gradientUnits="userSpaceOnUse" id="color-1"><stop offset="0" stop-color="#b1cf16"/><stop offset="1" stop-color="#e9f366"/></linearGradient><radialGradient cx="281.91994" cy="111.79244" r="3.55387" gradientUnits="userSpaceOnUse" id="color-2"><stop offset="0" stop-color="#020702"/><stop offset="1" stop-color="#050a02"/></radialGradient><radialGradient cx="307.27843" cy="127.18378" r="2.78735" gradientUnits="userSpaceOnUse" id="color-3"><stop offset="0" stop-color="#020702"/><stop offset="1" stop-color="#050a02"/></radialGradient></defs><g transform="translate(-232.80682,-71.94163)"><g data-paper-data="{&quot;isPaintingLayer&quot;:true}" fill-rule="nonzero" stroke-linejoin="miter" stroke-miterlimit="10" stroke-dasharray="" stroke-dashoffset="0" style="mix-blend-mode: normal"><g><g stroke-linecap="butt"><g stroke="#004700" stroke-width="1"><path d="M289.00206,101.16349c0,0 6.6307,-10.48026 9.79187,-14.74795c2.83049,-3.82125 10.73871,-11.16239 10.73871,-11.16239c0,0 4.97021,8.19585 5.94069,9.07272c0.20383,0.18419 1.63908,2.651 1.63908,2.651c0,0 -6.23042,4.38123 -8.9703,8.08015c-3.21279,4.33737 -10.38364,14.01823 -10.38364,14.01823z" fill="#399435"/><path d="M318.23436,87.24445c-1.12434,1.51788 -2.52783,-0.24476 -4.84102,-2.52999c-0.38957,-0.38486 0.4835,-2.52395 0.03934,-2.92529c-0.57614,-0.52056 -2.33852,0.58962 -2.71979,-0.10102c-1.65803,-3.00355 -1.56306,-7.16886 -0.49497,-8.6108c1.31368,-1.77353 4.19667,0.4416 7.27829,3.22596c3.08162,2.78437 2.05184,9.16764 0.73816,10.94117z" fill="#91e665"/></g><path d="M235.9245,147.91327c0.61648,-8.79906 4.32201,-15.82181 8.50699,-23.38242c4.55901,-8.23627 8.74823,-15.30374 15.7583,-21.34042c3.5883,-2.60434 7.29897,-5.30777 10.69306,-8.20314c5.33588,-4.55183 10.09394,-10.64279 17.44091,-10.60746c4.25798,0.02047 9.36874,1.83015 11.50936,5.9982c0.61181,1.19128 1.68241,2.19924 2.19411,3.4143c2.4848,-0.50873 3.05368,-0.87283 5.16818,2.40591c0.51116,0.79261 0.85206,1.76084 0.94475,2.72715c0.71122,-0.28564 1.53274,-0.28272 2.29513,-0.36484c2.71058,-0.29196 3.40743,-0.22951 5.79485,1.18739c5.66627,3.36283 4.5436,10.31269 3.75675,16.19852c-0.58687,3.89066 -0.65285,7.99696 -1.4892,11.81705c-0.20031,0.91495 -1.21139,3.65095 -1.26114,4.86138c-0.15231,3.70508 0.32861,7.27341 -0.2453,11.00902c-1.13375,7.37954 -3.61819,14.74366 -5.61676,21.87303c-1.49308,5.32613 -2.51107,11.08604 -5.17572,15.83153c-0.26364,0.499 -3.14393,5.97418 -3.33497,6.23186c-0.97751,1.31854 -2.64151,1.86215 -3.6452,3.15649c-0.5888,0.75931 -0.63021,2.04121 -1.39912,2.57139c-3.27488,2.25798 -8.73736,-0.03078 -11.49996,-2.53834c-1.79892,-1.63286 -2.34605,-3.0693 -3.08928,-5.38957c-0.27883,-0.87048 -0.57946,-1.75148 -0.67157,-2.66632c-0.03263,-0.32422 0.58941,-0.79441 0.31154,-0.9102c-0.3456,-0.14402 -0.55412,0.62621 -0.92055,0.65641c-1.86195,0.15357 -3.75228,-0.13681 -5.59399,-0.51673c-5.03271,-1.03816 -8.21021,-3.94088 -10.60679,-8.73995c-0.10527,-0.99221 -0.25097,-1.98081 -0.31579,-2.97661c-0.02128,-0.32689 0.33864,-0.86603 0.05829,-0.97924c-0.37753,-0.15246 -0.67822,0.54415 -1.07768,0.56761c-3.10798,0.18259 -6.53265,-0.50621 -9.50125,-1.57685c-7.94288,-2.86462 -20.22123,-7.38471 -21.10561,-17.90292c0,0 -0.14995,-2.2729 1.91185,-2.4068c0.07086,-0.0046 0.13947,-0.00636 0.20589,-0.00546z" fill="url(#color-1)" stroke="#334a0d" stroke-width="2"/><path d="M305.04951,122.39674c1.69574,0.79563 4.30442,-2.64882 5.15614,-1.03305c1.17829,2.23526 1.44279,4.98256 0.4998,7.4872c-1.62463,4.31511 -6.21808,6.27598 -10.25976,4.37967c-4.04169,-1.89631 -6.31405,-4.95691 -4.68942,-9.27205c1.62463,-4.31511 4.13981,-4.18661 8.1815,-2.29031z" data-paper-data="{&quot;index&quot;:null}" fill="#f6f9df" stroke="#354c0d" stroke-width="1.5"/><path d="M290.79124,118.50282c-1.62463,4.31511 -5.17334,4.64459 -9.21503,2.74828c-4.04169,-1.89631 -6.0011,-6.93165 -4.37647,-11.24676c0.943,-2.50464 2.88619,-4.21614 5.14115,-4.84056c1.62998,-0.45137 1.59918,5.79144 3.29491,6.58705c4.04169,1.89631 6.78003,2.43687 5.1554,6.75199z" fill="#f6f9df" stroke="#354c0d" stroke-width="1.5"/><path d="M310.56382,126.21326c-0.76448,-0.35868 -0.4493,-1.1958 -0.4493,-1.1958l0.02518,0.00447c0.41123,-2.30459 -1.35082,-1.86389 -2.88025,-2.57529c-1.55546,-0.80041 -3.94232,0.30522 -5.85243,-0.29074c-4.99495,-1.55843 -8.72692,-4.43195 -12.09317,-8.74313c-1.00132,-1.49831 -2.97633,-1.69576 -4.51792,-3.22963c-2.65117,-2.6379 -5.2544,-5.95093 -8.32569,-2.97308c0,0 -0.62378,0.58836 -1.1666,-0.10686c-0.54283,-0.69519 0.08097,-1.28354 0.08097,-1.28354c5.82107,-5.3775 11.79749,1.35303 15.21757,6.47066c3.15137,4.03596 6.58574,6.62305 11.24367,8.11622c2.12499,0.68119 4.09693,-0.49359 6.04395,0.36585c2.29953,1.08992 4.26256,1.05123 3.8861,4.53942l-0.13241,0.42303c0,0 -0.31518,0.83713 -1.07966,0.47844z" fill="#334a0d" stroke="none" stroke-width="0.5"/><path d="M283.76742,112.65925c-0.73978,1.96493 -2.16666,3.16971 -3.187,2.69097c-1.02034,-0.47873 -1.24777,-2.45971 -0.50799,-4.42461c0.73978,-1.96493 2.16665,-3.16972 3.18699,-2.69098c1.02034,0.47873 1.24778,2.45971 0.508,4.42461z" fill="url(#color-2)" stroke="none" stroke-width="0"/><path d="M309.18964,128.08049c-0.58023,1.54111 -1.90627,2.38895 -2.9618,1.89373c-1.05552,-0.49525 -1.44085,-2.14603 -0.86063,-3.68714c0.58023,-1.54111 1.90627,-2.38896 2.9618,-1.89373c1.05552,0.49525 1.44085,2.14603 0.86063,3.68714z" fill="url(#color-3)" stroke="none" stroke-width="0"/><path d="M258.11391,143.73138c-0.76345,0.33832 -1.08114,-0.50726 -1.08114,-0.50726l-0.26963,-0.89798c-2.41586,-0.76823 -5.60973,-1.19853 -4.95372,-4.97796c0.02653,-0.15287 0.90645,-2.4715 0.99749,-2.71332c0,0 0.31517,-0.83713 1.07966,-0.47843c0.76448,0.35868 0.4493,1.1958 0.4493,1.1958c-0.29104,0.77305 -0.74095,1.48781 -0.89356,2.30946c-0.48503,2.61136 2.87497,2.51808 4.48831,3.39214l0.629,1.49364c0,0 0.3177,0.84557 -0.44572,1.18388z" fill="#334a0d" stroke="none" stroke-width="0.5"/><path d="M299.87643,175.53833c0.54283,0.69519 -0.08097,1.28354 -0.08097,1.28354l-1.10644,0.86326c-1.34728,-0.46879 -2.74381,-0.67077 -4.0272,-1.25021c-0.00652,-0.00286 -0.01305,-0.0058 -0.01954,-0.00885c-0.09662,-0.04533 -0.18166,-0.10834 -0.25329,-0.18407c-0.18858,-0.18448 -0.38368,-0.5133 -0.19602,-1.01174c0.18767,-0.49844 0.53461,-0.57293 0.78462,-0.55163c0.09859,0.00411 0.19843,0.02786 0.29505,0.07319c0.00623,0.00293 0.01243,0.00593 0.01859,0.009c1.0738,0.51576 2.17939,0.23353 3.13018,1.12296l0.28841,-0.4523c0,0 0.62378,-0.58836 1.1666,0.10686z" fill="#334a0d" stroke="none" stroke-width="0.5"/></g><path d="M300.70218,167.14647c-0.88884,2.43308 -8.16954,-7.27967 -12.85743,-11.31225c-4.40124,-3.78599 -8.52362,-7.99612 -8.69968,-8.0762c-2.79604,-1.27177 -5.58465,-2.00302 -7.96305,-2.44897c-3.92571,-0.73607 -13.54018,-6.84934 -12.41167,-9.93852c1.81222,-4.96077 17.62361,-5.35603 25.03469,-1.98513c7.41108,3.37089 18.70937,28.8003 16.89715,33.76107z" fill="#ffffff" stroke="#334a0d" stroke-width="1.5" stroke-linecap="butt"/><path d="M269.57918,142.96129l1.43611,-10.93589" fill="none" stroke="#334a0d" stroke-width="1.5" stroke-linecap="round"/><path d="M288.41233,138.82402l-6.45836,14.4461" fill="none" stroke="#334a0d" stroke-width="1.5" stroke-linecap="round"/><path d="M296.78911,151.99458l-4.43371,8.90385" fill="none" stroke="#334a0d" stroke-width="1.5" stroke-linecap="round"/><path d="M259.9404,137.01706l25.51584,5.58834l15.11781,23.81418" fill="none" stroke="#334a0d" stroke-width="1.5" stroke-linecap="round"/></g></g></g></svg>