<svg version="1.1" xmlns="http://www.w3.org/2000/svg" xmlns:xlink="http://www.w3.org/1999/xlink" width="122.54681" height="101.03199" viewBox="0,0,122.54681,101.03199"><defs><linearGradient x1="312.95729" y1="146.92931" x2="325.14042" y2="230.21681" gradientUnits="userSpaceOnUse" id="color-1"><stop offset="0" stop-color="#b1cf16"/><stop offset="1" stop-color="#e9f366"/></linearGradient><radialGradient cx="304.77983" cy="171.30557" r="5.31874" gradientUnits="userSpaceOnUse" id="color-2"><stop offset="0" stop-color="#020702"/><stop offset="1" stop-color="#050a02"/></radialGradient><radialGradient cx="348.9372" cy="173.88012" r="4.17157" gradientUnits="userSpaceOnUse" id="color-3"><stop offset="0" stop-color="#020702"/><stop offset="1" stop-color="#050a02"/></radialGradient></defs><g transform="translate(-260.68377,-130.10711)"><g data-paper-data="{&quot;isPaintingLayer&quot;:true}" fill-rule="nonzero" stroke-linejoin="miter" stroke-miterlimit="10" stroke-dasharray="" stroke-dashoffset="0" style="mix-blend-mode: normal"><g stroke="#004700" stroke-width="1" stroke-linecap="butt"><path d="M307.55658,160.6944c0,0 2.26125,-10.33621 3.80581,-14.71082c1.38296,-3.91699 7.38192,-12.32938 7.38192,-12.32938c0,0 11.9701,4.4357 13.84427,4.7527c0.39364,0.0666 3.91433,1.42347 3.91433,1.42347c0,0 -5.62393,5.56316 -6.96264,9.35476c-1.56978,4.44605 -5.07345,14.36949 -5.07345,14.36949z" fill="#399435"/><path d="M338.19195,139.6305c-0.54937,1.55591 -3.57631,0.72212 -8.16845,-0.18162c-0.77337,-0.15221 -0.96158,-2.08938 -1.81934,-2.23449c-1.11264,-0.18819 -2.78611,1.28743 -3.74398,0.90016c-4.16564,-1.68425 -6.7035,-4.87991 -6.18164,-6.35798c0.64185,-1.81796 5.95993,-1.17209 11.91108,-0.16551c5.95118,1.0066 8.64421,6.22147 8.00237,8.03943z" fill="#91e665"/></g><path d="M265.67939,215.24171c-4.79858,-6.90007 -4.28123,-13.56135 -3.45958,-20.80306c0.89512,-7.8889 2.03818,-14.75784 7.65713,-21.85754c3.18713,-3.26552 6.47636,-6.6502 9.21445,-10.06687c4.30458,-5.37136 6.84228,-11.70341 16.80386,-14.31534c5.7733,-1.51376 13.84555,-1.97577 19.40946,0.41903c1.59023,0.68445 3.68376,1.06502 5.15378,1.80348c3.03577,-1.27857 3.57228,-1.75925 8.53159,-0.03008c1.19886,0.41802 2.27982,1.03049 3.02379,1.73064c0.77928,-0.47225 1.89251,-0.76509 2.8713,-1.10125c3.47997,-1.19513 4.46265,-1.39802 8.59935,-1.18003c9.81798,0.51735 12.74804,6.19564 15.45129,10.9457c1.69662,3.16386 4.23594,6.30432 5.54988,9.50423c0.3147,0.76641 0.69831,3.20623 1.40585,4.14283c2.16569,2.86692 5.10048,5.40263 6.71538,8.44416c3.19014,6.00841 4.5432,12.49023 6.40326,18.61936c1.38958,4.57889 3.69956,9.3164 3.13254,13.87535c-0.03724,0.47344 -0.42883,5.66369 -0.52233,5.92788c-0.47833,1.35187 -2.3814,2.36214 -2.91066,3.70505c-0.31046,0.78781 0.4541,1.77566 -0.2467,2.45424c-2.98485,2.89005 -11.83958,3.11475 -17.18198,2.20368c-3.47882,-0.59326 -5.13849,-1.48704 -7.6292,-2.98124c-0.93442,-0.56057 -1.90507,-1.12128 -2.61531,-1.78258c-0.25168,-0.23437 0.28882,-0.81466 -0.16119,-0.80275c-0.55972,0.01481 -0.34876,0.67432 -0.82514,0.82884c-2.42053,0.78531 -5.16364,1.24382 -7.8983,1.61693c-7.47279,1.01956 -13.62942,-0.04241 -19.94355,-2.82425c-0.77754,-0.7153 -1.60749,-1.41334 -2.33263,-2.14588c-0.23803,-0.24047 -0.09626,-0.77896 -0.548,-0.7642c-0.60832,0.01987 -0.56918,0.65661 -1.09452,0.81788c-4.08757,1.25485 -9.1614,1.96204 -13.86266,2.21562c-12.57884,0.67846 -32.0824,1.65754 -40.01183,-6.00836c0,0 -1.6578,-1.67132 1.04568,-2.51348c0.09291,-0.02894 0.18461,-0.05492 0.27503,-0.07808z" fill="url(#color-1)" stroke="#334a0d" stroke-width="2" stroke-linecap="butt"/><path d="M342.85758,171.04721c2.8033,-0.00514 4.12741,-3.55648 6.31392,-2.63599c3.02484,1.27341 5.1413,3.26365 5.46892,5.50342c0.56444,3.85874 -4.39435,6.99688 -11.07583,7.00914c-6.68148,0.01229 -11.71469,-1.49462 -12.27916,-5.3534c-0.56444,-3.85874 2.92034,-4.66458 9.60181,-4.67685z" data-paper-data="{&quot;index&quot;:null}" fill="#f6f9df" stroke="#354c0d" stroke-width="1.5" stroke-linecap="butt"/><path d="M321.07642,173.21267c0.56444,3.85874 -4.02534,5.38338 -10.70681,5.39567c-6.68148,0.01229 -12.55543,-3.10589 -13.11987,-6.96464c-0.32761,-2.23976 1.20554,-4.23674 3.85634,-5.52057c1.9161,-0.92803 5.87064,3.82145 8.67393,3.81628c6.68148,-0.01229 10.73192,-0.58548 11.29637,3.27327z" fill="#f6f9df" stroke="#354c0d" stroke-width="1.5" stroke-linecap="butt"/><path d="M352.7604,171.9635c-1.26379,0.00233 -1.37329,-0.74627 -1.37329,-0.74627l0.03694,-0.00566c-0.91893,-1.89692 -3.02052,-0.92958 -5.5449,-0.92021c-2.61659,-0.04886 -5.13777,1.64759 -8.10327,1.88129c-7.75476,0.61111 -14.64277,-0.22957 -21.95635,-2.2928c-2.31369,-0.77761 -5.11188,-0.21814 -8.17922,-0.82868c-5.27511,-1.05002 -10.91752,-2.62969 -13.16613,0.73363c0,0 -0.46721,0.67062 -1.64658,0.33789c-1.17935,-0.3327 -0.7121,-1.00331 -0.7121,-1.00331c4.43243,-6.17232 16.82574,-3.21021 24.72836,-0.55421c6.84672,1.93153 13.14879,2.66169 20.40584,2.12208c3.31073,-0.24618 5.22636,-1.8461 8.41043,-1.89306c3.8085,0.00137 6.43929,-0.73303 8.16294,2.04978l0.09167,0.36865c0,0 0.1095,0.7486 -1.15429,0.75091z" fill="#334a0d" stroke="none" stroke-width="0.5" stroke-linecap="butt"/><path d="M307.83396,171.29995c0.25704,1.75712 -0.90202,3.18406 -2.5888,3.18714c-1.68677,0.0031 -3.26253,-1.41882 -3.51954,-3.17592c-0.25704,-1.75712 0.90201,-3.18404 2.58876,-3.18715c1.68677,-0.0031 3.26254,1.41881 3.51955,3.17592z" fill="url(#color-2)" stroke="none" stroke-width="0" stroke-linecap="butt"/><path d="M352.09668,173.87431c0.20159,1.37813 -1.04956,2.49791 -2.79448,2.50114c-1.74492,0.00319 -3.32292,-1.11139 -3.52452,-2.4895c-0.20159,-1.37813 1.04954,-2.49792 2.79448,-2.50114c1.74492,-0.00319 3.32292,1.11139 3.52452,2.4895z" fill="url(#color-3)" stroke="none" stroke-width="0" stroke-linecap="butt"/><path d="M293.02021,204.09801c-0.81622,0.53099 -1.78728,0.00329 -1.78728,0.00329l-0.93959,-0.58474c-3.75993,0.28457 -8.35604,1.10508 -9.88792,-1.99918c-0.06196,-0.12557 -0.35583,-2.20148 -0.38749,-2.41772c0,0 -0.10952,-0.7486 1.1543,-0.7509c1.26379,-0.00233 1.37329,0.74627 1.37329,0.74627c0.10114,0.6913 -0.04996,1.39539 0.26955,2.07385c1.01546,2.15628 5.50115,0.87869 8.2432,0.96266l1.80705,0.90778c0,0 0.97106,0.5277 0.15486,1.05867z" fill="#334a0d" stroke="none" stroke-width="0.5" stroke-linecap="butt"/><path d="M369.87705,213.24063c1.17935,0.3327 0.7121,1.00331 0.7121,1.00331l-0.9442,1.05262c-2.1227,0.12808 -4.1412,0.47634 -6.24828,0.49748c-0.01065,0.00017 -0.02137,0.00029 -0.03209,0.00029c-0.15972,0.0003 -0.3151,-0.01698 -0.46048,-0.04873c-0.3732,-0.0723 -0.84763,-0.25181 -0.91282,-0.69753c-0.06517,-0.44573 0.35647,-0.62688 0.70832,-0.7005c0.136,-0.03228 0.28628,-0.05012 0.44601,-0.05042c0.01031,-0.00001 0.02061,0.00003 0.0309,0.00016c1.78278,0.00581 3.09777,-0.6055 4.95334,-0.27189l0.10064,-0.4469c0,0 0.46721,-0.67062 1.64658,-0.33789z" fill="#334a0d" stroke="none" stroke-width="0.5" stroke-linecap="butt"/><path d="M365.62222,206.57447c0.35508,2.16599 -15.71168,-2.59124 -24.63482,-3.96833c-8.37752,-1.29288 -16.6493,-3.00786 -16.93873,-3.0054c-4.59657,0.03894 -8.8371,0.48546 -12.34005,1.0012c-5.78188,0.85126 -22.70159,-0.33568 -23.15243,-3.08574c-0.72398,-4.4162 20.41262,-10.39503 32.59612,-10.49821c12.18349,-0.1032 43.74596,15.14029 44.46993,19.55649z" fill="#ffffff" stroke="#334a0d" stroke-width="1.5" stroke-linecap="butt"/><path d="M302.9798,190.57929l5.05765,8.81633" fill="none" stroke="#334a0d" stroke-width="1.5" stroke-linecap="round"/><path d="M330.86649,189.49124l0.51053,13.28445" fill="none" stroke="#334a0d" stroke-width="1.5" stroke-linecap="round"/><path d="M350.33116,204.82993l0.29828,-8.3506" fill="none" stroke="#334a0d" stroke-width="1.5" stroke-linecap="round"/><path d="M291.19302,198.34572l38.09502,-4.92263l35.69554,12.64568" fill="none" stroke="#334a0d" stroke-width="1.5" stroke-linecap="round"/></g></g></svg>