<svg version="1.1" xmlns="http://www.w3.org/2000/svg" xmlns:xlink="http://www.w3.org/1999/xlink" width="44.56917" height="46.57103" viewBox="0,0,44.56917,46.57103"><g transform="translate(-263.49257,-160.229)"><g data-paper-data="{&quot;isPaintingLayer&quot;:true}" fill-rule="nonzero" stroke-linejoin="miter" stroke-miterlimit="10" stroke-dasharray="" stroke-dashoffset="0" style="mix-blend-mode: normal"><path d="M294.75,182.36842c0,6.83088 -5.26065,12.36842 -11.75,12.36842c-6.48935,0 -11.75,-5.53754 -11.75,-12.36842c0,-6.83088 5.26065,-12.36842 11.75,-12.36842c6.48935,0 11.75,5.53754 11.75,12.36842z" fill="#09f4c9" stroke="#29907d" stroke-width="2.5" stroke-linecap="butt"/><path d="M285.49303,186.30902c-0.55902,1.11803 -1.67705,0.55902 -1.67705,0.55902l-1.0841,-0.54617c-3.50606,-2.13146 -5.08859,-4.19374 -5.10688,-8.32187c0,0 0,-1.25 1.25,-1.25c1.25,0 1.25,1.25 1.25,1.25c-0.01766,3.27131 1.02225,4.48351 3.89312,6.17813l0.9159,0.45383c0,0 1.11803,0.55902 0.55902,1.67705z" fill="#a4f7e8" stroke="none" stroke-width="0.5" stroke-linecap="butt"/><g><path d="M264.04785,201.88926l4.84851,-41.12481l38.59456,2.97666l-5.53907,42.50594z" fill="#3b9987" stroke="#3b9987" stroke-width="1" stroke-linecap="butt"/><path d="M267.20607,172.53445l1.62442,-11.3408l39.23126,2.8032l-1.90065,11.89325z" fill-opacity="0.62059" fill="#7bcebf" stroke="#29907d" stroke-width="0" stroke-linecap="butt"/><path d="M264.04785,201.88926l3.7436,-32.56182c0,0 11.75554,1.87236 17.87256,2.84664c6.45357,1.02789 19.89332,3.1685 19.89332,3.1685l-3.60549,30.90447z" fill-opacity="0.25158" fill="#7bcebf" stroke="none" stroke-width="0" stroke-linecap="butt"/><path d="M288.51109,204.8069l2.0537,-31.85399l14.90622,2.38968c0,0 -0.92547,18.72636 -1.19282,24.61462c-0.1354,2.98215 -0.30596,6.73871 -0.30596,6.73871z" fill-opacity="0.54612" fill="#7bcebf" stroke="none" stroke-width="0" stroke-linecap="butt"/><path d="M288.01372,204.3908l2.15802,-31.40341" fill="none" stroke="#29907d" stroke-width="0.5" stroke-linecap="round"/><path d="M267.82335,169.37919l38.25726,6.07696" fill="none" stroke="#29907d" stroke-width="0.5" stroke-linecap="round"/><path d="M273.31169,174.83946c3.44193,-0.91757 6.92871,-1.94134 10.13511,0.19867c1.35851,1.41854 2.35539,4.59864 0.5652,6.21181c-0.81305,0.73265 -3.12362,0.65677 -3.61967,1.86975c-1.11478,2.72595 3.58231,2.67633 4.29621,4.46102c0.83444,2.08603 -0.71439,4.93725 -2.3271,6.05413c-3.37893,1.69693 0.62448,3.63971 -2.45497,5.30123c-5.11699,2.76087 -5.25596,-3.97922 -7.09509,-5.49599c-1.55163,-1.27965 -3.48669,1.69058 -4.22617,-2.0373c-0.00126,-3.28581 2.23452,-4.76834 2.78401,-7.45176c0.55286,-2.69986 -2.48316,-2.14094 -2.78091,-4.39162c-0.3213,-2.42869 2.01725,-4.52278 4.09573,-4.85592c0,0 0.34118,-0.04265 0.62763,0.13599z" fill="#b9f8ed" stroke="none" stroke-width="0.5" stroke-linecap="butt"/><path d="M284.82383,164.10547l0.09591,-0.00908c3.59227,1.03496 6.65856,-0.7783 10.17998,-0.01053c2.04255,0.44534 2.97034,1.63334 5.18014,1.63334c2.28798,0.00572 4.21406,-0.24723 6.09367,1.44649c1.98866,1.79199 0.45634,5.47433 -1.91504,6.23206c-2.34638,0.74974 -6.67561,-2.56838 -9.84125,-2.56838c-2.06247,0 -4.45853,1.42472 -6.29816,1.23916c-1.91047,-0.1927 -2.2449,-2.46252 -4.01888,-2.92777c-0.27772,-0.07284 -2.26795,-0.21269 -2.30886,-0.24094c-2.6421,-1.82433 0.16761,-4.88761 2.26743,-4.9761c0,0 0.30951,0 0.56506,0.18173z" fill="#b9f8ed" stroke="none" stroke-width="0.5" stroke-linecap="butt"/><path d="M296.57198,181.92615c0.13175,0.08676 0.21994,0.19155 0.27775,0.3012c4.10383,0.34255 4.4479,2.85234 2.26192,6.66069c4.76925,2.93642 -0.39343,5.90919 0.17087,9.04659c0.28252,1.57076 1.87353,3.25115 0.84894,4.89444c-1.87957,3.01452 -7.90279,1.06917 -9.127,-1.29468c-0.61257,-4.0592 1.32462,-6.50005 2.62708,-10.0538c1.23267,-3.36333 -2.80732,-6.55327 1.69685,-9.71825c0,0 0.72004,-0.48002 1.2436,0.16382z" fill="#b9f8ed" stroke="none" stroke-width="0.5" stroke-linecap="butt"/><path d="M272.8504,181.55727c-0.51285,-0.726 -1.58675,-1.29043 -1.53854,-2.17799c0.07703,-1.41814 0.82548,-2.13634 1.76681,-2.3681c-0.15221,-0.16923 -0.30054,-0.34331 -0.44602,-0.52289l-0.126,0.1575l-1.37141,-1.09713c-0.31365,-0.24655 -0.5151,-0.62939 -0.5151,-1.05929c0,-0.74371 0.60289,-1.3466 1.3466,-1.3466c0.20516,0 0.39961,0.04588 0.57364,0.12794l1.21628,0.54057l-0.00991,0.0223l0.05936,0.00089c0.52257,0.28462 1.04514,0.56923 1.56771,0.85385c0,0 0.81491,0.4445 0.72251,1.27199c0.63659,0.53137 1.28068,1.14939 1.98948,1.54261l0.05416,0.08073l0.02113,-0.02817l1.09237,0.81927c0.3342,0.24504 0.55118,0.64052 0.55118,1.08668c0,0.74371 -0.60289,1.3466 -1.3466,1.3466c-0.03976,0 -0.07912,-0.00172 -0.118,-0.0051l-1.78074,-0.13698l0.00224,-0.02907c-0.05506,0.00309 -0.11023,0.00525 -0.16551,0.00639c-0.12764,0.00264 -0.29391,-0.03599 -0.47924,-0.10136l0.06055,0.09082c0.1491,0.21674 0.23637,0.47932 0.23637,0.76228c0,0.74371 -0.60289,1.3466 -1.3466,1.3466c-0.30805,0 -0.59195,-0.10344 -0.81884,-0.27748l-1.09402,-0.82052l0.03573,-0.04763z" fill="#e7fffb" stroke="none" stroke-width="0.5" stroke-linecap="butt"/><path d="M302.12212,175.48355c0.38694,1.28981 -0.90287,1.67675 -0.90287,1.67675l-0.18908,0.05279c0.15919,0.111 0.29174,0.2517 0.3867,0.43431c0.2614,0.50266 0.04536,1.21872 -0.4059,1.93434c0.12753,0.20578 0.20115,0.44847 0.20115,0.70836c0,0.28296 -0.08727,0.54554 -0.23637,0.76228l-0.81846,1.2277l-0.04576,-0.03051l-0.0333,0.13728c-1.03396,1.03762 -3.95861,4.24882 -5.82349,2.62033c-1.56653,-1.36796 1.14089,-5.28732 1.85056,-6.40682c0,0 0.03422,-0.05377 0.09946,-0.13047c0.02255,-0.09876 0.05596,-0.19339 0.0989,-0.28257l0.6786,-1.49293l0.48435,0.22016c0.32769,-0.71463 0.7696,-1.35438 1.36722,-1.82647l1.61153,-0.5074c0,0 1.28981,-0.38694 1.67675,0.90287z" fill="#e7fffb" stroke="none" stroke-width="0.5" stroke-linecap="butt"/><path d="M271.58745,167.77199c-0.74611,-1.12101 0.3749,-1.86711 0.3749,-1.86711l0.43634,-0.2874c0.01167,-0.09651 0.03404,-0.19325 0.06781,-0.28871c0.06843,-0.19342 0.17654,-0.36143 0.31195,-0.49812l0.91529,-0.96633l0.11573,0.10962l0.16775,-0.33749c3.01325,-0.89127 4.77078,-1.16774 6.08662,0.51799l0.49396,-0.32876l0.5341,0.80247c0.28707,0.15612 0.80799,0.54253 0.72796,1.26294l0.08258,0.11028c0.27003,0.34987 0.36249,0.82536 0.20411,1.273c-0.22078,0.62402 -0.85459,0.98359 -1.48563,0.88023l-1.36948,-0.1967l0.01022,-0.07115l-0.20537,0.02814c-0.61482,-0.29565 -1.12967,-0.74865 -1.57254,-1.2853l-0.32446,0.27477l-0.04768,-0.0563c-0.14423,0.06223 -0.29946,0.09946 -0.45871,0.10835l-1.28285,0.10049c-0.29134,0.14128 -0.58638,0.27445 -0.88643,0.3963l-1.02907,0.69369c0,0 -1.12101,0.74611 -1.86711,-0.3749z" fill="#e7fffb" stroke="none" stroke-width="0.5" stroke-linecap="butt"/></g></g></g></svg>