<svg version="1.1" xmlns="http://www.w3.org/2000/svg" xmlns:xlink="http://www.w3.org/1999/xlink" width="31.945" height="45.69529" viewBox="0,0,31.945,45.69529"><g transform="translate(-225.43341,-157.15235)"><g data-paper-data="{&quot;isPaintingLayer&quot;:true}" fill="none" fill-rule="nonzero" stroke-linecap="round" stroke-linejoin="miter" stroke-miterlimit="10" stroke-dasharray="" stroke-dashoffset="0" style="mix-blend-mode: normal"><path d="M228.68342,180.91413c2.39521,-4.03768 8.23734,-2.19326 11.68393,-2.85607c3.44658,-0.6628 5.05061,-3.02966 8.56821,-1.03857c3.5176,1.9911 4.87987,5.54144 5.19286,8.82786c0.31299,3.28642 -0.7603,4.41538 -3.635,7.52964c-2.87471,3.11427 -4.35953,5.32506 -8.82786,5.97179c-4.46833,0.64674 -7.25592,0.17445 -10.905,-3.11571c-3.64908,-3.29015 -5.0634,-4.06955 -4.93321,-11.16464c0.13019,-7.0951 1.15706,-11.9048 5.4525,-17.13643c4.29544,-5.23162 12.79343,-1.36771 14.79964,-7.52964" stroke="#ffffff" stroke-width="6.5"/><path d="M228.68342,180.91413c2.39521,-4.03768 8.23734,-2.19326 11.68393,-2.85607c3.44658,-0.6628 5.05061,-3.02966 8.56821,-1.03857c3.5176,1.9911 4.87987,5.54144 5.19286,8.82786c0.31299,3.28642 -0.7603,4.41538 -3.635,7.52964c-2.87471,3.11427 -4.35953,5.32506 -8.82786,5.97179c-4.46833,0.64674 -7.25592,0.17445 -10.905,-3.11571c-3.64908,-3.29015 -5.0634,-4.06955 -4.93321,-11.16464c0.13019,-7.0951 1.15706,-11.9048 5.4525,-17.13643c4.29544,-5.23162 12.79343,-1.36771 14.79964,-7.52964" stroke="#000000" stroke-width="4"/></g></g></svg>