<svg version="1.1" xmlns="http://www.w3.org/2000/svg" xmlns:xlink="http://www.w3.org/1999/xlink" width="144.3648" height="212.07111" viewBox="0,0,144.3648,212.07111"><defs><radialGradient cx="260.36013" cy="185.62613" r="39.00129" gradientUnits="userSpaceOnUse" id="color-1"><stop offset="0" stop-color="#4000bf"/><stop offset="1" stop-color="#38a000"/></radialGradient><linearGradient x1="260.36012" y1="152.29279" x2="260.36012" y2="218.95946" gradientUnits="userSpaceOnUse" id="color-2"><stop offset="0" stop-color="#797979"/><stop offset="1" stop-color="#bfbfbf"/></linearGradient><radialGradient cx="256.06694" cy="141.32784" r="16.33333" gradientUnits="userSpaceOnUse" id="color-3"><stop offset="0" stop-color="#b5b5b5"/><stop offset="1" stop-color="#c9c9c9"/></radialGradient><radialGradient cx="241.01332" cy="127.91966" r="9.88289" gradientUnits="userSpaceOnUse" id="color-4"><stop offset="0" stop-color="#bc1818"/><stop offset="1" stop-color="#9b18bc"/></radialGradient><radialGradient cx="237.81102" cy="118.89359" r="7.46965" gradientUnits="userSpaceOnUse" id="color-5"><stop offset="0" stop-color="#bc1818"/><stop offset="1" stop-color="#9b18bc"/></radialGradient><radialGradient cx="204.7889" cy="117.96927" r="10.47714" gradientUnits="userSpaceOnUse" id="color-6"><stop offset="0" stop-color="#569ffe"/><stop offset="1" stop-color="#bfebf3"/></radialGradient><linearGradient x1="207.46702" y1="105.68672" x2="234.95309" y2="127.48358" gradientUnits="userSpaceOnUse" id="color-7"><stop offset="0" stop-color="#070707"/><stop offset="1" stop-color="#ff0000"/></linearGradient><linearGradient x1="207.55487" y1="106.44781" x2="235.04096" y2="128.24468" gradientUnits="userSpaceOnUse" id="color-8"><stop offset="0" stop-color="#070707"/><stop offset="1" stop-color="#ff0000"/></linearGradient><linearGradient x1="207.88216" y1="105.94262" x2="235.36825" y2="127.73949" gradientUnits="userSpaceOnUse" id="color-9"><stop offset="0" stop-color="#070707"/><stop offset="1" stop-color="#ff0000"/></linearGradient><linearGradient x1="207.63532" y1="105.47448" x2="235.12141" y2="127.27135" gradientUnits="userSpaceOnUse" id="color-10"><stop offset="0" stop-color="#ff0000" stop-opacity="0"/><stop offset="1" stop-color="#ff0000"/></linearGradient><linearGradient x1="207.18326" y1="105.73408" x2="234.66934" y2="127.53096" gradientUnits="userSpaceOnUse" id="color-11"><stop offset="0" stop-color="#ff0000" stop-opacity="0"/><stop offset="1" stop-color="#ff0000"/></linearGradient><linearGradient x1="207.28939" y1="105.81824" x2="234.77548" y2="127.61511" gradientUnits="userSpaceOnUse" id="color-12"><stop offset="0" stop-color="#ff0000" stop-opacity="0"/><stop offset="1" stop-color="#ff0000"/></linearGradient></defs><g transform="translate(-159.39686,-59.97273)"><g data-paper-data="{&quot;isPaintingLayer&quot;:true}" fill-rule="nonzero" stroke-linejoin="miter" stroke-miterlimit="10" stroke-dasharray="" stroke-dashoffset="0" style="mix-blend-mode: normal"><g data-paper-data="{&quot;index&quot;:null}"><path d="M292.73507,214.26805c0,0 0.43453,2.60925 0.89781,6.40725c0.45731,3.74901 -0.56151,8.88012 -0.43845,13.57945c0.11006,4.20318 0.22161,8.83029 0.33452,11.14474c0.21116,4.32858 1.21258,9.9976 1.21258,9.9976l-16.23061,2.62292c0,0 0.48578,-2.31806 -0.7033,-5.01398c-1.90087,-4.30969 -5.86187,-10.30314 -6.19465,-14.74959c-0.10981,-1.4673 -0.03104,-3.26004 0.15911,-5.22139c0.31483,-3.24754 0.93499,-6.95729 1.50993,-10.41713c0.83103,-5.00094 1.90734,-8.98011 1.90734,-8.98011" fill="#7f7f7f" stroke="#e3efff" stroke-width="1.5" stroke-linecap="round"/><g stroke="#0f0f0f" stroke-linecap="butt"><path d="M259.9457,270.53147c0,0 -3.5771,-4.09615 -4.45487,-6.1434c-0.93025,-2.16968 5.68887,-9.47377 5.68887,-9.47377l25.49803,-0.78682l1.09578,11.44768z" data-paper-data="{&quot;index&quot;:null}" fill="#000b20" stroke-width="0"/><path d="M261.69325,268.7823c-0.40679,-2.85495 -0.98978,-6.94637 -1.26956,-8.91001c-0.14426,-1.01246 0.91482,-4.92833 2.54746,-5.16096c3.93517,-0.56071 20.99865,-2.99204 28.95752,-4.12608c2.56302,-0.3652 4.20161,1.30434 4.37357,2.65521c0.36846,2.89463 1.70173,13.39832 1.70173,13.39832c0,0 -27.4676,3.91378 -32.67002,4.65506c-1.63264,0.23263 -3.41385,-0.91959 -3.64068,-2.51155z" data-paper-data="{&quot;index&quot;:null}" fill="#3b3b3b" stroke-width="1.5"/></g></g><g><path d="M249.13698,214.83021c0,0 0.12711,3.88851 0.23503,7.19032c0.06165,1.88603 -2.12706,4.93387 -2.00294,8.73107c0.0518,1.58477 0.81894,2.9203 0.87489,4.63205c0.16899,5.17 1.93083,11.19645 2.06499,15.30102c0.1274,3.8977 0.21448,6.56181 0.21448,6.56181l-18.21432,-4.47786c0,0 -2.33083,-13.04642 -2.00191,-19.05091c0.2984,-5.4471 3.89281,-15.46701 3.89281,-15.46701" fill="#7f7f7f" stroke="#e3efff" stroke-width="1.5" stroke-linecap="round"/><g stroke="#0f0f0f" stroke-linecap="butt"><path d="M220.15696,265.09795c0,0 -2.75886,-4.68646 -3.24332,-6.86062c-0.51343,-2.30418 7.34107,-8.25979 7.34107,-8.25979l25.20453,3.93702l-1.03783,11.45308z" fill="#000b20" stroke-width="0"/><path d="M221.18982,263.57842c0.12761,-2.88096 0.31048,-7.00967 0.39825,-8.99119c0.04525,-1.02168 1.80949,-4.67451 3.457,-4.60153c3.97102,0.17589 21.18997,0.93858 29.22135,1.29432c2.58637,0.11456 3.88835,2.05805 3.80779,3.41744c-0.17261,2.91288 -0.80266,13.48209 -0.80266,13.48209c0,0 -27.71785,-1.22772 -32.96767,-1.46026c-1.64751,-0.07298 -3.18522,-1.53441 -3.11407,-3.14087z" fill="#3b3b3b" stroke-width="1.5"/></g></g><g><g stroke-linecap="butt"><g><g><path d="M189.58626,210.64374c0,0 -9.36053,-42.32097 -13.96196,-55.38762c-3.01646,-8.56584 -7.87958,-26.27046 -7.87958,-26.27046l11.63885,-3.28308l23.20133,80.36371z" fill="#c70303" stroke="#9966ff" stroke-width="1"/><path d="M169.71839,136.465c-0.00364,-0.05247 -0.00654,-0.10491 -0.00875,-0.15735l-0.03192,0.00653l-0.40993,-2.00005c-0.14149,-0.69038 0.30345,-1.36474 0.99383,-1.50624c0.54617,-0.11193 1.08233,0.14315 1.35254,0.59645l0.75745,1.20566l-0.03586,0.02252l0.08706,0.06677c1.00313,2.38613 2.46212,4.49931 3.52844,6.88882c2.39735,7.3861 0.14241,20.92777 2.57691,28.31183c2.91087,6.25967 5.23498,13.11908 6.55767,19.49424c0,0 0.25622,1.25003 -0.99382,1.50624c-1.25003,0.25622 -1.50624,-0.99382 -1.50624,-0.99382c-0.21486,-1.06307 -1.78975,-0.99381 -2.06338,-2.0701c-0.19006,-0.10804 -0.18938,-1.16598 -0.30367,-1.3577l-0.0908,-1.3423c-0.51031,-0.81227 -0.52053,-1.72713 -1.03065,-2.53955c-1.75801,-2.58185 -1.84841,-5.8267 -2.91166,-8.73104c-2.53839,-6.93375 -2.77957,-20.7343 -3.11255,-28.36619c-0.03889,-0.10199 -0.07783,-0.20378 -0.11682,-0.30543l-0.23295,0.04775l-0.37576,-1.8334c-0.04817,-0.23509 -0.02836,-0.46829 0.04599,-0.67924c-0.88927,-1.99428 -2.55046,-4.46376 -2.67511,-6.26436z" fill="#870303" stroke="none" stroke-width="0.5"/><path d="M177.7874,138.38596c-0.50001,0.10248 -0.60249,-0.39753 -0.60249,-0.39753l-0.05123,-0.25001c-0.23904,-1.41413 -1.51935,-2.32889 -1.81987,-3.79513c0,0 -0.10249,-0.50003 0.39752,-0.6025c0.50001,-0.10248 0.60249,0.39752 0.60249,0.39752c0.29552,1.44181 1.49179,2.35433 1.81992,3.79517l0.05125,0.25002c0,0 0.10247,0.50001 -0.39753,0.6025z" fill="#0554ff" stroke="none" stroke-width="0.5"/><path d="M185.74882,146.85908c-0.4014,0.31526 -0.71667,-0.08611 -0.71667,-0.08611l-0.23217,-0.33802c-1.16227,-0.25818 -1.84298,0.46338 -2.22517,-1.21488c0,0 -0.10247,-0.50001 0.39754,-0.60249c0.50001,-0.10247 0.60249,0.39754 0.60249,0.39754c0.15193,0.89884 0.86987,0.30769 1.78735,0.56778l0.4728,0.55954c0,0 0.31526,0.40141 -0.08611,0.71667z" fill="#0554ff" stroke="none" stroke-width="0.5"/><path d="M181.51655,163.87352c-0.31526,-0.4014 0.08613,-0.71669 0.08613,-0.71669l0.28483,-0.12678c-0.44819,-0.80647 4.27461,-7.10406 4.87671,-7.67224c0,0 0.40142,-0.31529 0.71668,0.08612c0.31526,0.4014 -0.08614,0.71667 -0.08614,0.71667c-0.43861,0.19523 -4.6082,6.65504 -4.54882,7.22085l-0.61271,0.57819c0,0 -0.4014,0.31526 -0.71667,-0.0861z" fill="#9b7137" stroke="none" stroke-width="0.5"/><path d="M184.80307,177.50046c-0.49305,-0.13195 -0.36109,-0.625 -0.36109,-0.625l0.14753,-0.55125c0.29431,-1.09263 0.65495,-1.62025 0.4294,-2.7206c0,0 -0.10249,-0.50003 0.39752,-0.60252c0.50001,-0.10247 0.60249,0.39753 0.60249,0.39753c0.26286,1.28246 -0.11461,1.95211 -0.44332,3.18948l-0.14752,0.55126c0,0 -0.13195,0.49305 -0.62501,0.36112z" fill="#0554ff" stroke="none" stroke-width="0.5"/><path d="M191.96624,182.07902c-0.50001,0.10248 -0.60249,-0.39752 -0.60249,-0.39752c-0.20497,-1.00004 -0.46116,-2.25006 -0.66616,-3.2501c0,0 -0.10247,-0.50001 0.39753,-0.60249c0.5,-0.10248 0.6025,0.39753 0.6025,0.39753c0.20497,1.00006 0.40993,2.00005 0.6149,3.00008l0.05123,0.25001c0,0 0.10248,0.5 -0.39754,0.60249z" fill="#0554ff" stroke="none" stroke-width="0.5"/><path d="M187.38265,183.86516c0.13781,0.03687 0.28844,0.13625 0.33969,0.38627c0.10248,0.50001 -0.39753,0.60249 -0.39753,0.60249l-0.8525,-0.34628c-0.10247,-0.50001 -0.20496,-1.00003 -0.30745,-1.50005c0,0 -0.10247,-0.50002 0.39753,-0.60249c0.5,-0.10248 0.6025,0.39753 0.6025,0.39753c0.0726,0.35418 0.14518,0.70836 0.21777,1.06254z" fill="#0554ff" stroke="none" stroke-width="0.5"/><path d="M185.2441,168.34721c-0.05125,-0.25002 0.04814,-0.40063 0.16033,-0.48876c-0.00428,-0.02084 -0.00853,-0.04167 -0.0128,-0.06249c0,0 -0.10248,-0.5 0.39753,-0.60249c0.50001,-0.10248 0.60249,0.39752 0.60249,0.39752c0.03417,0.16666 0.06831,0.33336 0.10247,0.50001l-0.64755,0.65374c0,0 -0.50001,0.10248 -0.6025,-0.39752z" fill="#9b7137" stroke="none" stroke-width="0.5"/><path d="M185.39945,166.69732c-0.4014,0.31526 -0.71667,-0.08611 -0.71667,-0.08611l-0.23218,-0.33802c-0.41097,-0.14315 -0.74415,-0.55529 -0.87267,-0.97109c0,0 -0.10248,-0.50001 0.39752,-0.60249c0.50001,-0.10248 0.6025,0.39751 0.6025,0.39751c-0.01858,0.1798 0.25621,0.29627 0.43483,0.324l0.47279,0.55951c0,0 0.31529,0.40141 -0.08612,0.71668z" fill="#9b7137" stroke="none" stroke-width="0.5"/><path d="M182.51569,153.82899c-0.5,0.10248 -0.60249,-0.39754 -0.60249,-0.39754c-0.23913,-1.16671 -0.58074,-2.83341 -0.81987,-4.00013c0,0 -0.10247,-0.50001 0.39752,-0.60249c0.5,-0.10248 0.60249,0.39754 0.60249,0.39754c0.23913,1.1667 0.47826,2.33341 0.7174,3.5001l0.10247,0.50001c0,0 0.10249,0.50003 -0.39752,0.6025z" fill="#0554ff" stroke="none" stroke-width="0.5"/><path d="M182.96142,138.73594c-0.38488,-0.25394 -0.19264,-0.62618 -0.15192,-0.69573c-0.68026,-0.816 -1.50247,-1.65985 -1.73318,-2.67295c0,0 -0.10249,-0.50003 0.39752,-0.60252c0.50001,-0.10247 0.60249,0.39753 0.60249,0.39753c0.15282,0.90411 1.20113,1.81149 1.76632,2.53108l-0.17412,0.89764c0,0 -0.28108,0.42603 -0.70713,0.14492z" fill="#9b7137" stroke="none" stroke-width="0.5"/><path d="M179.22218,145.38619c-0.50001,0.10248 -0.60249,-0.39753 -0.60249,-0.39753c-0.10247,-0.50001 -0.2562,-1.25004 -0.35869,-1.75006c0,0 -0.10247,-0.50001 0.39753,-0.6025c0.50001,-0.10248 0.60249,0.39752 0.60249,0.39752c0.10248,0.5 0.20496,1.00005 0.30745,1.50005l0.05124,0.25001c0,0 0.10247,0.50002 -0.39754,0.60252z" fill="#9b7137" stroke="none" stroke-width="0.5"/><path d="M179.17255,134.97596c-0.5,0.10248 -0.6025,-0.39752 -0.6025,-0.39752l-0.10249,-0.50003c-0.09894,-0.48269 0.08533,-0.75011 -0.38814,-0.75696c0,0 -0.49305,-0.13195 -0.3611,-0.62501c0.13195,-0.49307 0.62501,-0.36112 0.62501,-0.36112c0.98492,0.36187 0.92605,0.57097 1.12429,1.53812l0.10248,0.50001c0,0 0.10247,0.50001 -0.39753,0.6025z" fill="#0554ff" stroke="none" stroke-width="0.5"/><path d="M182.90863,141.76497c-0.5,0.10248 -0.60248,-0.39754 -0.60248,-0.39754l-0.05123,-0.25001c-0.04543,-0.26877 -0.18162,-0.52681 -0.35637,-0.73599c0,0 -0.31526,-0.4014 0.08614,-0.71667c0.4014,-0.31526 0.71667,0.0861 0.71667,0.0861c0.25819,0.3425 0.45836,0.74338 0.5536,1.16158l0.05123,0.25001c0,0 0.10247,0.50001 -0.39753,0.6025z" fill="#4f340e" stroke="none" stroke-width="0.5"/><path d="M183.31231,149.34494c-0.42604,-0.28109 -0.14494,-0.70712 -0.14494,-0.70712l0.12478,0.08233c-0.07782,-0.37977 -0.31989,-0.96327 -0.16192,-1.27502c-0.22459,0.05133 -0.45723,0.09936 -0.5943,0.12747c0,0 -0.50001,0.10248 -0.60249,-0.39752c-0.10248,-0.50001 0.39752,-0.60249 0.39752,-0.60249c2.45827,-0.50385 1.71811,0.75655 1.96122,1.94261l-0.27273,0.68484c0,0 -0.2811,0.42605 -0.70712,0.14494z" fill="#0554ff" stroke="none" stroke-width="0.5"/><path d="M180.47149,165.12977c-0.31526,-0.4014 0.08612,-0.71668 0.08612,-0.71668l0.25729,-0.01198c-1.26706,-1.04589 5.84397,-8.03465 4.11703,-7.6807c0,0 -0.50001,0.10247 -0.6025,-0.39755c-0.10248,-0.50001 0.39752,-0.60249 0.39752,-0.60249c2.8127,-0.57651 -3.56289,7.67042 -2.89851,8.80253l-0.64025,0.693c0,0 -0.40141,0.31526 -0.71667,-0.08611z" fill="#4f340e" stroke="none" stroke-width="0.5"/><path d="M187.69132,177.74501c-0.5,0.10248 -0.60251,-0.39752 -0.60251,-0.39752l0.02607,-0.25245c-2.57766,-0.03735 -1.69983,-2.1531 -0.57419,-3.43865c0,0 0.33852,-0.38199 0.72051,-0.04348c0.38199,0.33852 0.04346,0.72052 0.04346,0.72052c-1.38656,1.54268 -1.06427,1.46727 0.55314,2.06152l0.23104,0.74759c0,0 0.10248,0.50001 -0.39752,0.60251z" fill="#0554ff" stroke="none" stroke-width="0.5"/><path d="M190.78571,183.09361c-2.39447,0.35397 -0.17148,-1.7761 -0.82962,-2.19315c0,0 -0.31528,-0.40139 0.0861,-0.71667c0.4014,-0.31526 0.71668,0.08612 0.71668,0.08612c0.93509,1.50684 -0.75746,1.94795 -0.10016,1.81674c0.00406,-0.00098 0.00621,-0.00144 0.00621,-0.00144l0.00008,0.00017c0.06193,-0.01242 0.14395,-0.02969 0.24994,-0.05142l-0.02252,0.52563l0.22748,0.4744c-0.08806,0.01804 -0.17125,0.03348 -0.2498,0.0464l-0.00021,0.00485c0,0 -0.03319,0.00681 -0.0842,0.00835z" fill="#0554ff" stroke="none" stroke-width="0.5"/><path d="M181.85888,172.16718c-0.50001,0.10248 -0.60249,-0.39753 -0.60249,-0.39753l0.04739,-0.03722c-0.3328,-0.74761 -2.02876,-0.39369 -0.67012,-1.86423c0,0 0.40141,-0.31526 0.71667,0.0861c0.25753,0.32787 0.03691,0.59828 -0.05256,0.68634c0.18169,0.02162 0.49172,0.12519 0.80879,0.4612l0.14987,0.46281c0,0 0.10247,0.50001 -0.39753,0.6025z" fill="#0554ff" stroke="none" stroke-width="0.5"/><path d="M188.62498,152.74502c-0.53415,-0.14295 -0.39121,-0.67709 -0.39121,-0.67709l0.14129,-0.47066c-0.16194,-0.79015 0.16253,-0.88604 -0.31467,-1.60287c0,0 -0.27663,-0.47876 0.20216,-0.75539c0.47878,-0.27662 0.75539,0.20217 0.75539,0.20217c0.57117,1.08341 0.2502,1.15299 0.46252,2.1889l-0.17835,0.72373c0,0 -0.14296,0.53416 -0.67709,0.39121z" fill="#4f340e" stroke="none" stroke-width="0.5"/><path d="M176.08859,138.99468c-0.50001,0.10248 -0.6025,-0.39753 -0.6025,-0.39753l-0.05125,-0.25002c-0.14,-0.68298 -0.66622,-1.43644 -1.34315,-1.60328c0,0 -0.49306,-0.13192 -0.36111,-0.62498c0.13195,-0.49307 0.62501,-0.36113 0.62501,-0.36113c1.5638,0.46937 1.73215,0.69076 2.0793,2.38444l0.05125,0.25001c0,0 0.10246,0.50003 -0.39753,0.60249z" fill="#4f340e" stroke="none" stroke-width="0.5"/></g><g><g><path d="M163.24615,165.56279l2.57979,-13.329c0,0 12.97554,-0.02087 19.47959,-1.35396c6.71191,-1.37567 15.71898,-0.68236 15.71898,-0.68236l1.48289,7.23495z" fill="#ff0000" stroke="none" stroke-width="0"/><g data-paper-data="{&quot;index&quot;:null}"><path d="M163.00008,164.0698c0,0 15.05829,-6.68857 25.14331,-9.09445c6.61123,-1.57717 13.45681,-0.21561 13.45681,-0.21561l2.39335,10.03251l-39.95938,8.46555z" fill="#c70303" stroke="#9966ff" stroke-width="1"/><path d="M197.49631,160.84194c-0.03729,-0.38016 0.34289,-0.41746 0.34289,-0.41746l0.19009,-0.01865c1.07124,-0.06762 1.852,-0.9493 2.96687,-1.05862c0,0 0.3802,-0.03728 0.41748,0.34288c0.03729,0.38016 -0.34289,0.41748 -0.34289,0.41748c-1.09626,0.10751 -1.86878,0.92679 -2.96683,1.05863l-0.19007,0.01864c0,0 -0.3802,0.03728 -0.41746,-0.34288z" fill="#0554ff" stroke="none" stroke-width="0.5"/><path d="M190.56842,166.10708c-0.20337,-0.32338 0.12001,-0.52673 0.12001,-0.52673l0.26972,-0.14647c0.28282,-0.84499 -0.20118,-1.40794 1.07785,-1.56154c0,0 0.3802,-0.03728 0.41746,0.34289c0.03729,0.38016 -0.3429,0.41746 -0.3429,0.41746c-0.6809,0.04298 -0.29689,0.62349 -0.56205,1.28614l-0.45336,0.30828c0,0 -0.32336,0.20336 -0.52673,-0.12001z" fill="#0554ff" stroke="none" stroke-width="0.5"/><path d="M182.4214,165.43152c0.32338,-0.20337 0.52673,0.12001 0.52673,0.12001l0.07216,0.22191c0.63526,-0.27071 0.76696,-0.06588 1.14294,0.4266c0,0 0.20336,0.32336 -0.12001,0.52673c-0.32336,0.20337 -0.52672,-0.12001 -0.52672,-0.12001c-0.11113,-0.3417 -0.40675,-0.14741 -0.83251,-0.14734l-0.38259,-0.50116c0,0 -0.20337,-0.32336 0.12002,-0.52674z" fill="#0554ff" stroke="none" stroke-width="0.5"/><path d="M172.02191,166.81497c0.13666,-0.35672 0.49337,-0.22005 0.49337,-0.22005l0.39881,0.15279c0.79032,0.30428 1.15497,0.61387 1.99158,0.53182c0,0 0.38017,-0.03728 0.41746,0.34289c0.03729,0.38016 -0.34289,0.41748 -0.34289,0.41748c-0.97508,0.09561 -1.4441,-0.23758 -2.3395,-0.57878l-0.39882,-0.1528c0,0 -0.35672,-0.13666 -0.22003,-0.49338z" fill="#0554ff" stroke="none" stroke-width="0.5"/><path d="M168.05516,171.78971c-0.03729,-0.38016 0.34288,-0.41745 0.34288,-0.41745c0.76034,-0.07455 1.71078,-0.16778 2.47116,-0.24235c0,0 0.38018,-0.03726 0.41748,0.34289c0.03729,0.38016 -0.3429,0.41746 -0.3429,0.41746c-0.76034,0.07455 -1.5207,0.14915 -2.28105,0.2237l-0.19009,0.01863c0,0 -0.38017,0.03727 -0.41746,-0.3429z" fill="#0554ff" stroke="none" stroke-width="0.5"/><path d="M167.08316,168.23863c-0.03821,0.0997 -0.12391,0.20405 -0.31401,0.22271c-0.38016,0.03729 -0.41746,-0.34289 -0.41746,-0.34289l0.32424,-0.60755c0.38016,-0.03729 0.76036,-0.07456 1.14054,-0.11185c0,0 0.38017,-0.03729 0.41746,0.34289c0.03729,0.38016 -0.3429,0.41746 -0.3429,0.41746c-0.26929,0.02641 -0.53858,0.05282 -0.80786,0.07922z" fill="#0554ff" stroke="none" stroke-width="0.5"/><path d="M178.80069,167.85715c0.19009,-0.01865 0.29446,0.06709 0.3513,0.15746c0.01582,-0.00156 0.03168,-0.0031 0.0475,-0.00465c0,0 0.3802,-0.03728 0.41746,0.3429c0.03729,0.38016 -0.3429,0.41746 -0.3429,0.41746c-0.12673,0.01243 -0.25345,0.02484 -0.38017,0.03728l-0.43611,-0.53298c0,0 -0.03726,-0.38018 0.34291,-0.41747z" fill="#0554ff" stroke="none" stroke-width="0.5"/><path d="M180.01667,168.10147c-0.20337,-0.32338 0.12001,-0.52673 0.12001,-0.52673l0.26972,-0.14647c0.13861,-0.29474 0.47138,-0.51062 0.79089,-0.57382c0,0 0.38018,-0.03726 0.41748,0.34289c0.03729,0.38016 -0.3429,0.41746 -0.3429,0.41746c-0.13238,-0.02785 -0.2405,0.16759 -0.27508,0.29839l-0.45335,0.30829c0,0 -0.32338,0.20337 -0.52674,-0.12001z" fill="#0554ff" stroke="none" stroke-width="0.5"/><path d="M185.63258,163.15689c-0.03729,-0.38016 4.81184,-6.51148 4.81184,-6.51148c0.88708,-0.08701 2.15432,-0.21129 3.04142,-0.29827c0,0 0.3802,-0.03728 0.41746,0.34289c0.03729,0.38016 -4.81185,6.51149 -4.81185,6.51149c-0.88708,0.08701 -1.77417,0.17399 -2.66125,0.26099l-0.38018,0.0373c0,0 -0.38018,0.03726 -0.41747,-0.34291z" fill="#0554ff" stroke="none" stroke-width="0.5"/><path d="M196.83223,164.6659c0.21907,-0.26669 0.48112,-0.09455 0.52972,-0.05879c0.66043,-0.44272 1.35271,-0.9889 2.12479,-1.08161c0,0 0.38017,-0.03728 0.41748,0.34289c0.03729,0.38016 -0.3429,0.41746 -0.3429,0.41746c-0.68489,0.04323 -1.44206,0.75275 -2.02177,1.11732l-0.65457,-0.19963c0,0 -0.29519,-0.24246 -0.05274,-0.53766z" fill="#0554ff" stroke="none" stroke-width="0.5"/><path d="M196.64277,155.26989c0.03729,0.38017 0.41746,0.34289 0.41746,0.34289l0.19008,-0.01865c0.38016,-0.03729 -3.70859,6.01946 -3.32843,5.98217c0,0 0.38017,-0.0373 0.34288,-0.41746c-0.0373,-0.38019 -0.41746,-0.3429 -0.41746,-0.3429c-0.38017,0.03729 3.5185,-6.00083 3.13834,-5.96354c0,0 -0.38018,0.0373 -0.34289,0.41746z" fill="#0554ff" stroke="none" stroke-width="0.5"/><path d="M199.92653,162.13893c-0.03729,-0.38016 0.3429,-0.41746 0.3429,-0.41746l0.38016,-0.03729c0.36702,-0.03599 0.55172,0.12201 0.59373,-0.22988c0,0 0.13669,-0.35673 0.49339,-0.22005c0.35672,0.13666 0.22004,0.49338 0.22004,0.49338c-0.34618,0.70491 -0.49722,0.64479 -1.23257,0.7169l-0.38019,0.03729c0,0 -0.38017,0.03727 -0.41746,-0.3429z" fill="#0554ff" stroke="none" stroke-width="0.5"/><path d="M194.58173,164.39037c-0.03729,-0.38016 0.34289,-0.41746 0.34289,-0.41746l0.19009,-0.01865c0.20358,-0.01284 0.40629,-0.09408 0.57564,-0.20785c0,0 0.32336,-0.20336 0.52674,0.12002c0.20337,0.32338 -0.12001,0.52673 -0.12001,0.52673c-0.27506,0.16546 -0.58907,0.28319 -0.90781,0.32148l-0.19009,0.01863c0,0 -0.38017,0.03728 -0.41746,-0.34289z" fill="#0554ff" stroke="none" stroke-width="0.5"/><path d="M188.90812,164.09958c0.24246,-0.29518 0.53766,-0.05274 0.53766,-0.05274l-0.07103,0.08647c0.28875,-0.02832 0.74198,-0.16298 0.96169,-0.02108c-0.02068,-0.17117 -0.03832,-0.34808 -0.04851,-0.4523c0,0 -0.03727,-0.3802 0.34288,-0.41748c0.38016,-0.03729 0.41746,0.34291 0.41746,0.34291c0.18331,1.86911 -0.69714,1.21987 -1.59894,1.3083l-0.48846,-0.25644c0,0 -0.29519,-0.24247 -0.05272,-0.53766z" fill="#0554ff" stroke="none" stroke-width="0.5"/><path d="M181.56784,164.55562c0.32338,-0.20337 0.52674,0.12001 0.52674,0.12001l-0.01115,0.19246c0.87734,-0.86155 1.33726,1.17486 1.2085,-0.13821c0,0 -0.03728,-0.38017 0.34289,-0.41746c0.38016,-0.03729 0.41746,0.34291 0.41746,0.34291c0.20972,2.13859 -1.24405,0.55147 -2.13854,0.95768l-0.46589,-0.53064c0,0 -0.20338,-0.32336 0.12,-0.52673z" fill="#0554ff" stroke="none" stroke-width="0.5"/><path d="M171.61459,168.94573c-0.03729,-0.38016 0.34291,-0.41747 0.34291,-0.41747l0.18586,0.03911c0.22883,-1.91575 1.73523,-1.09731 2.60435,-0.1592c0,0 0.25792,0.28176 -0.02385,0.53971c-0.28177,0.25795 -0.53971,-0.02385 -0.53971,-0.02385c-1.04013,-1.15243 -1.00915,-0.90664 -1.57763,0.25094l-0.57449,0.11366c0,0 -0.38016,0.03729 -0.41745,-0.34288z" fill="#0554ff" stroke="none" stroke-width="0.5"/><path d="M167.39204,170.83187c-0.07671,-1.80991 1.3354,0.0109 1.69717,-0.44645c0,0 0.32336,-0.20337 0.52672,0.12001c0.20337,0.32338 -0.11999,0.52674 -0.11999,0.52674c-1.19455,0.57852 -1.39087,-0.71576 -1.34449,-0.21626c0.00041,0.0031 0.00059,0.00475 0.00059,0.00475l-0.00013,0.00005c0.00441,0.04707 0.01088,0.10946 0.01876,0.19004l-0.38948,-0.05776l-0.37086,0.13234c-0.00656,-0.06697 -0.01155,-0.13008 -0.01505,-0.18956l-0.00361,-0.00053c0,0 -0.00247,-0.02522 0.00035,-0.06333z" fill="#0554ff" stroke="none" stroke-width="0.5"/><path d="M176.22136,165.03944c-0.03729,-0.38016 0.34288,-0.41746 0.34288,-0.41746l0.02402,0.03817c0.58244,-0.1894 0.45129,-1.47937 1.43987,-0.35339c0,0 0.20337,0.32336 -0.12,0.52673c-0.26412,0.16611 -0.44821,-0.0192 -0.50677,-0.09266c-0.03028,0.13353 -0.13155,0.35622 -0.40639,0.56606l-0.35617,0.07546c0,0 -0.38017,0.03728 -0.41746,-0.3429z" fill="#0554ff" stroke="none" stroke-width="0.5"/><path d="M185.9629,167.78887c0.14806,-0.38643 0.53451,-0.23838 0.53451,-0.23838l0.33932,0.14186c0.60078,-0.05892 0.64687,0.19009 1.21764,-0.10921c0,0 0.37795,-0.16857 0.54651,0.20937c0.16857,0.37795 -0.20939,0.54652 -0.20939,0.54652c-0.85098,0.34064 -0.87773,0.09629 -1.66536,0.17352l-0.52481,-0.18922c0,0 -0.38643,-0.14806 -0.2384,-0.5345z" fill="#0554ff" stroke="none" stroke-width="0.5"/><path d="M197.17572,159.52994c-0.03729,-0.38016 0.3429,-0.41746 0.3429,-0.41746l0.19009,-0.01863c0.51929,-0.05093 1.12118,-0.38386 1.29816,-0.87473c0,0 0.13666,-0.35672 0.49338,-0.22003c0.35672,0.13666 0.22003,0.49338 0.22003,0.49338c-0.47135,1.1274 -0.64928,1.23544 -1.93701,1.36171l-0.19009,0.01865c0,0 -0.38017,0.03728 -0.41746,-0.3429z" fill="#0554ff" stroke="none" stroke-width="0.5"/></g></g><g fill="#a8a8a8" stroke="#6b6b6b" stroke-width="1"><path d="M175.94756,149.78376c0.08631,0.421 -0.7742,0.95301 -1.92198,1.18825c-1.14777,0.23525 -2.14818,0.08466 -2.23446,-0.33635c-0.08631,-0.421 0.77421,-0.95301 1.92198,-1.18826c1.14776,-0.23525 2.14817,-0.08467 2.23445,0.33635z"/><path d="M177.61784,150.66901c0.09413,0.45929 -1.22523,1.11765 -2.9469,1.47053c-1.72165,0.35289 -3.19365,0.26661 -3.28777,-0.19266c-0.09415,-0.45928 1.22523,-1.11767 2.94687,-1.47055c1.72165,-0.35289 3.19364,-0.2666 3.28777,0.19267z"/><path d="M178.50667,152.36433c0.09413,0.45929 -1.48691,1.17132 -3.53137,1.59034c-2.04447,0.41904 -3.77813,0.38642 -3.87227,-0.07287c-0.09415,-0.45928 1.4869,-1.17129 3.53137,-1.59033c2.04447,-0.41903 3.77814,-0.38642 3.87227,0.07286z"/><path d="M179.5985,153.72923c0.10981,0.53584 -1.63296,1.34565 -3.89263,1.8088c-2.25968,0.46316 -4.18052,0.40421 -4.29034,-0.1316c-0.10981,-0.53584 1.63296,-1.34565 3.89263,-1.8088c2.25968,-0.46316 4.18054,-0.40424 4.29034,0.1316z"/></g><g fill="#a8a8a8" stroke="#6b6b6b" stroke-width="1"><path d="M195.42883,150.9689c0.08627,0.421 -0.77421,0.95301 -1.92198,1.18826c-1.14776,0.23525 2.32079,-6.00936 2.23451,-6.43038c-0.08627,-0.421 0.77422,-0.953 1.92198,-1.18824c1.14776,-0.23524 -2.32079,6.00936 -2.2345,6.43037z"/><path d="M197.09907,151.85417c0.09415,0.45928 -1.22523,1.11765 -2.9469,1.47053c-1.72165,0.35289 1.27531,-5.82742 1.18119,-6.28669c-0.09415,-0.45928 -3.24373,4.97638 -1.52206,4.6235c1.72165,-0.35289 3.19363,-0.26663 3.28777,0.19266z"/><path d="M197.98791,153.54948c0.09415,0.45928 -1.48691,1.1713 -3.53138,1.59034c-2.04445,0.41904 0.69082,-5.70761 0.59669,-6.16689c-0.09415,-0.45928 -2.98205,4.92273 -0.93758,4.50369c2.04447,-0.41904 3.77814,-0.38643 3.87227,0.07286z"/><path d="M199.07975,154.91437c0.10981,0.53584 -1.63296,1.34564 -3.89263,1.8088c-2.25968,0.46316 0.28844,-5.68982 0.17862,-6.22563c-0.10981,-0.53584 -2.836,4.74838 -0.57634,4.28523c2.25968,-0.46316 4.18054,-0.40424 4.29034,0.1316z"/></g></g><g><path d="M161.78412,144.26887l-2.38726,-6.37856c0,0 11.41134,-1.87771 17.14553,-4.0238c5.91744,-2.2147 17.42036,-9.06503 17.42036,-9.06503l2.38726,6.37857z" data-paper-data="{&quot;index&quot;:null}" fill="#ff0000" stroke="none" stroke-width="0"/><g data-paper-data="{&quot;index&quot;:null}"><path d="M194.29405,143.779l-30.4892,6.87598l-3.04706,-9.01016c0,0 10.75175,-1.84805 16.68929,-3.85599c9.05732,-3.063 17.93832,-7.98723 17.93832,-7.98723z" fill="#c70303" stroke="#9966ff" stroke-width="1"/><path d="M166.38007,144.85733l-0.15763,0.07859c-0.92239,0.43512 -1.52112,0.17373 -2.43019,0.62699c0,0 -0.31526,0.15718 -0.47246,-0.15809c-0.15718,-0.31526 0.15809,-0.47246 0.15809,-0.47246c0.92449,-0.46097 1.56022,-0.15484 2.4302,-0.62701l0.15763,-0.0786c0,0 0.31526,-0.15718 0.47243,0.15807c0.15718,0.31526 -0.15809,0.47246 -0.15809,0.47246z" fill="#0554ff" stroke="none" stroke-width="0.5"/><path d="M174.17779,145.45462l-0.50524,-0.01865c-0.53188,-0.3877 -0.51638,-1.02936 -1.06936,-0.72926c0,0 -0.31527,0.15718 -0.47246,-0.15809c-0.15718,-0.31526 0.15806,-0.47245 0.15806,-0.47245c1.07442,-0.50684 0.97223,0.17012 1.60729,0.69162l0.28248,-0.01776c0,0 0.35227,0.00036 0.35188,0.35268c-0.0004,0.35229 -0.35267,0.3519 -0.35267,0.3519z" fill="#0554ff" stroke="none" stroke-width="0.5"/><path d="M180.91559,140.93496l-0.05325,0.57901c-0.33266,0.20861 -0.65881,0.20172 -0.57815,0.52308c0,0 -0.00036,0.35227 -0.35266,0.35188c-0.35229,-0.0004 -0.35189,-0.35267 -0.35189,-0.35267c0.05234,-0.56896 0.05487,-0.79353 0.68377,-0.89338l-0.05238,-0.20873c0,0 0.00039,-0.35227 0.35268,-0.35188c0.35229,0.0004 0.35188,0.35266 0.35188,0.35266z" fill="#0554ff" stroke="none" stroke-width="0.5"/><path d="M189.43553,137.05976l-0.23666,0.31483c-0.53227,0.70533 -0.73536,1.19548 -1.54395,1.59866c0,0 -0.31526,0.15718 -0.47243,-0.15807c-0.15718,-0.31526 0.15808,-0.47244 0.15808,-0.47244c0.6938,-0.34592 0.82689,-0.76647 1.29516,-1.39151l0.23667,-0.31481c0,0 0.21167,-0.28158 0.49326,-0.0699c0.28158,0.21167 0.0699,0.49325 0.0699,0.49325z" fill="#0554ff" stroke="none" stroke-width="0.5"/><path d="M194.74435,138.98116l-0.15762,0.0786c-0.63053,0.31438 -1.26105,0.62876 -1.89157,0.94314c0,0 -0.31526,0.15718 -0.47245,-0.15806c-0.15718,-0.31528 0.15809,-0.47246 0.15809,-0.47246c0.63053,-0.31439 1.41868,-0.70736 2.04921,-1.02174c0,0 0.31524,-0.1572 0.47244,0.15808c0.15718,0.31526 -0.15808,0.47244 -0.15808,0.47244z" fill="#0554ff" stroke="none" stroke-width="0.5"/><path d="M193.25147,135.59231c0,0 -0.31524,0.1572 -0.47244,-0.15808c-0.15718,-0.31526 0.15808,-0.47244 0.15808,-0.47244c0.31526,-0.15718 0.63053,-0.31439 0.9458,-0.47156l0.55103,0.3157c0,0 0.15718,0.31528 -0.15808,0.47244c-0.15762,0.0786 -0.27574,0.03907 -0.35444,-0.02009c-0.22329,0.11135 -0.44662,0.22268 -0.66994,0.33401z" fill="#0554ff" stroke="none" stroke-width="0.5"/><path d="M185.05334,140.86083l-0.07947,0.63007c-0.10508,0.05239 -0.21017,0.1048 -0.31527,0.15719c0,0 -0.31528,0.15718 -0.47244,-0.15808c-0.15718,-0.31528 0.15807,-0.47245 0.15807,-0.47245c0.01312,-0.00653 0.02628,-0.01311 0.03942,-0.01964c0.00011,-0.09847 0.03963,-0.21658 0.19726,-0.29517c0.31527,-0.1572 0.47243,0.15808 0.47243,0.15808z" fill="#0554ff" stroke="none" stroke-width="0.5"/><path d="M183.39806,141.84145l-0.50524,-0.01865c-0.0911,-0.08523 -0.27135,-0.18492 -0.36113,-0.09828c0,0 -0.31527,0.15718 -0.47243,-0.15808c-0.15718,-0.31526 0.15807,-0.47243 0.15807,-0.47243c0.28058,-0.10721 0.64631,-0.10167 0.89906,0.06066l0.28248,-0.01776c0,0 0.35228,0.00039 0.35188,0.35268c-0.0004,0.35229 -0.35268,0.35188 -0.35268,0.35188z" fill="#0554ff" stroke="none" stroke-width="0.5"/><path d="M176.78236,140.8516l-0.31526,0.15718c-0.73559,0.36677 -1.47122,0.73357 -2.20683,1.10033c0,0 -0.31527,0.15718 -0.47246,-0.15809c-0.15718,-0.31526 0.15808,-0.47243 0.15808,-0.47243c0.73559,-0.36677 1.78647,-0.89074 2.52209,-1.25752c0,0 0.31526,-0.15718 0.47244,0.15808c0.15718,0.31528 -0.15809,0.47246 -0.15809,0.47246z" fill="#0554ff" stroke="none" stroke-width="0.5"/><path d="M169.15324,147.49249l-0.41349,0.47674c-0.63155,-0.00072 -1.57075,-0.1839 -2.12697,0.11797c0,0 -0.31524,0.1572 -0.47244,-0.15808c-0.1572,-0.31527 0.15808,-0.47244 0.15808,-0.47244c0.64857,-0.30596 1.45703,-0.21854 2.18992,-0.19639c0.02045,-0.05172 0.14081,-0.31461 0.44261,-0.21365c0.33407,0.11176 0.22231,0.44584 0.22231,0.44584z" fill="#0554ff" stroke="none" stroke-width="0.5"/><path d="M170.79374,142.65667l-0.15762,0.0786c-0.31527,0.1572 -0.63053,0.31438 -0.9458,0.47156c0,0 -0.31527,0.15719 -0.47244,-0.15808c-0.15718,-0.31526 0.15807,-0.47245 0.15807,-0.47245c0.31526,-0.15718 0.78817,-0.39298 1.10342,-0.55016c0,0 0.31526,-0.15718 0.47244,0.15808c0.15718,0.31526 -0.15808,0.47243 -0.15808,0.47243z" fill="#0554ff" stroke="none" stroke-width="0.5"/><path d="M165.11728,147.06153l-0.31528,0.15718c-0.6098,0.30405 -0.29206,0.42505 -0.90794,0.04405c0,0 -0.28157,-0.21167 -0.06991,-0.49327c0.21169,-0.28159 0.08701,-0.06991 0.08701,-0.06991c0.20529,0.2543 0.27211,0.04036 0.57647,-0.11139l0.31526,-0.15718c0,0 0.31528,-0.15718 0.47246,0.15809c0.15718,0.31526 -0.15808,0.47244 -0.15808,0.47244z" fill="#0554ff" stroke="none" stroke-width="0.5"/><path d="M170.39593,146.20093l-0.15763,0.07859c-0.26774,0.12631 -0.57071,0.18824 -0.8667,0.19378c0,0 -0.35229,-0.00038 -0.35188,-0.35266c0.0004,-0.35229 0.35266,-0.35188 0.35266,-0.35188c0.18804,0.00587 0.38619,-0.03 0.55153,-0.11974l0.15762,-0.0786c0,0 0.31526,-0.15718 0.47243,0.15807c0.15718,0.31528 -0.15806,0.47245 -0.15806,0.47245z" fill="#0554ff" stroke="none" stroke-width="0.5"/><path d="M175.06592,143.16669l-0.25591,0.4397c-0.74781,0.37287 -1.11745,1.31153 -1.89026,-0.23842c0,0 -0.15719,-0.31524 0.15808,-0.47243c0.31526,-0.15718 0.47244,0.15808 0.47244,0.15808c0.0431,0.08643 0.11602,0.23326 0.18375,0.37711c0.10209,-0.21853 0.52213,-0.33546 0.76159,-0.45483l-0.09786,-0.03273c0,0 0.11177,-0.33407 0.44584,-0.22231c0.33407,0.11177 0.22231,0.44585 0.22231,0.44585z" fill="#0554ff" stroke="none" stroke-width="0.5"/><path d="M181.15313,139.83244l-0.1039,0.64286c-0.89785,0.12105 -1.25572,2.07332 -2.13995,0.29991c0,0 -0.1572,-0.31524 0.15808,-0.47244c0.31526,-0.15718 0.47244,0.15808 0.47244,0.15808c0.5429,1.08885 -0.0958,-0.72736 1.01179,-0.48428l-0.10303,-0.14489c0,0 0.00038,-0.35229 0.35267,-0.35189c0.35229,0.0004 0.35189,0.35267 0.35189,0.35267z" fill="#0554ff" stroke="none" stroke-width="0.5"/><path d="M190.56998,138.50386l-0.50448,0.19276c-1.01139,-0.62567 -1.10759,-0.83287 -1.35538,0.57715c0,0 -0.0634,0.34652 -0.40992,0.28312c-0.34653,-0.06339 -0.28312,-0.40993 -0.28312,-0.40993c0.21919,-1.15877 0.99486,-2.53636 2.1125,-1.15196l0.12604,-0.12166c0,0 0.31524,-0.1572 0.47244,0.15808c0.15718,0.31526 -0.15808,0.47244 -0.15808,0.47244z" fill="#0554ff" stroke="none" stroke-width="0.5"/><path d="M194.98232,137.48477l-0.00254,0.00216c0.02642,0.04819 0.05346,0.09995 0.08114,0.15547l-0.35457,0.07836l-0.27597,0.23598c-0.03332,-0.06683 -0.05886,-0.11872 -0.07847,-0.15765l-0.00013,0.00003c0,0 -0.00068,-0.00136 -0.00189,-0.00399c-0.20857,-0.41294 0.27238,0.69435 -0.94429,0.82784c0,0 -0.35229,-0.00039 -0.35188,-0.35268c0.00039,-0.35229 0.35268,-0.35188 0.35268,-0.35188c0.50674,0.17997 0.71753,-1.93445 1.54461,-0.48298c0.02087,0.02837 0.03132,0.04929 0.03132,0.04929z" fill="#0554ff" stroke="none" stroke-width="0.5"/><path d="M185.05687,137.70999l-0.31521,0.11562c-0.31753,-0.02921 -0.50579,-0.15353 -0.59487,-0.24303c-0.00975,0.0861 -0.06272,0.32107 -0.35046,0.32075c-0.35229,-0.0004 -0.35188,-0.35268 -0.35188,-0.35268c0.22048,-1.36409 0.7502,-0.29211 1.29802,-0.42959l0.00005,-0.04158c0,0 0.31527,-0.15719 0.47244,0.15808c0.15718,0.31528 -0.15808,0.47244 -0.15808,0.47244z" fill="#0554ff" stroke="none" stroke-width="0.5"/><path d="M179.02814,144.69382l-0.31724,0.405c-0.65315,0.32565 -0.55431,0.52967 -1.386,0.6806c0,0 -0.37786,0.05354 -0.43142,-0.3243c-0.05355,-0.37786 0.32432,-0.43141 0.32432,-0.43141c0.59256,-0.04592 0.50652,-0.26304 1.00471,-0.51144l0.19554,-0.27711c0,0 0.22932,-0.30504 0.53435,-0.07573c0.30505,0.22933 0.07574,0.53437 0.07574,0.53437z" fill="#0554ff" stroke="none" stroke-width="0.5"/><path d="M165.98753,143.67532l-0.15763,0.07859c-1.06786,0.53243 -0.85353,0.53525 -1.77425,-0.11448c0,0 -0.28158,-0.21167 -0.06991,-0.49327c0.21169,-0.28159 0.08699,-0.06991 0.08699,-0.06991c0.37882,0.2967 1.01214,0.26182 1.44277,0.04712l0.15763,-0.07859c0,0 0.31527,-0.15718 0.47243,0.15808c0.15718,0.31526 -0.15808,0.47244 -0.15808,0.47244z" fill="#0554ff" stroke="none" stroke-width="0.5"/></g><g data-paper-data="{&quot;index&quot;:null}" fill="#a8a8a8" stroke="#6b6b6b" stroke-width="1"><path d="M188.81136,125.60104c1.0119,-0.37872 1.94485,-0.38484 2.08375,-0.01367c0.13892,0.37117 -0.56879,0.97912 -1.58068,1.35784c-1.0119,0.37872 -1.94486,0.38483 -2.08376,0.01367c-0.13891,-0.37116 0.56879,-0.97909 1.58069,-1.35781z"/><path d="M188.83367,126.70719c1.51787,-0.56808 2.8712,-0.70035 3.02273,-0.29543c0.15155,0.40491 -0.95607,1.19371 -2.47392,1.76178c-1.51787,0.56808 -2.87119,0.70035 -3.02274,0.29544c-0.15155,-0.40491 0.95607,-1.19371 2.47393,-1.76178z"/><path d="M189.48546,128.27429c1.80247,-0.67459 3.3865,-0.89322 3.53805,-0.4883c0.15154,0.40492 -1.18679,1.28004 -2.98926,1.95463c-1.80247,0.67459 -3.3865,0.89321 -3.53806,0.4883c-0.15156,-0.40492 1.18678,-1.28003 2.98927,-1.95463z"/><path d="M189.59924,129.6248c1.99221,-0.74561 3.75052,-0.96708 3.92732,-0.49468c0.17681,0.47241 -1.29487,1.45979 -3.28706,2.20541c-1.99221,0.74561 -3.75052,0.9671 -3.92732,0.49468c-0.1768,-0.47242 1.29487,-1.45979 3.28705,-2.2054z"/></g><g data-paper-data="{&quot;index&quot;:null}" fill="#a8a8a8" stroke="#6b6b6b" stroke-width="1"><path d="M167.36615,133.62722c1.0119,-0.37872 1.94483,-0.38485 2.08376,-0.01367c0.13892,0.37117 -0.56881,0.97909 -1.5807,1.35782c-1.0119,0.37872 -1.94483,0.38484 -2.08376,0.01366c-0.13892,-0.37117 0.56878,-0.9791 1.58069,-1.35781z"/><path d="M167.38847,134.73334c1.51787,-0.56808 2.87118,-0.70034 3.02273,-0.29543c0.15156,0.40492 -0.95607,1.19371 -2.47393,1.76178c-1.51787,0.56808 -2.8712,0.70035 -3.02273,0.29543c-0.15156,-0.40492 0.95607,-1.19371 2.47393,-1.76178z"/><path d="M168.04025,136.30045c1.80247,-0.67459 3.3865,-0.89321 3.53806,-0.4883c0.15156,0.40492 -1.1868,1.28003 -2.98925,1.95462c-1.80247,0.67459 -3.38651,0.89321 -3.53805,0.48831c-0.15154,-0.40492 1.18679,-1.28005 2.98922,-1.95465z"/><path d="M168.15404,137.65097c1.99221,-0.74561 3.75052,-0.96708 3.92733,-0.49467c0.1768,0.47242 -1.29488,1.45979 -3.28705,2.2054c-1.99221,0.74561 -3.75053,0.96707 -3.92735,0.49467c-0.17681,-0.47241 1.29489,-1.45979 3.28705,-2.2054z"/></g></g></g><g><g><g fill="#8a8a8a" stroke="#212121" stroke-width="1"><path d="M221.81185,182.90426c-3.40312,3.17675 -5.87199,9.40193 -8.99679,11.12802c-3.12479,1.72608 -3.38529,-0.15479 -5.93414,0.97664c-2.54885,1.13143 -2.04317,6.66166 -4.86056,9.35113c-6.17264,5.89238 -15.43777,-0.74544 -16.091,-2.1017c-0.50395,-1.04634 4.95302,-13.93792 6.99269,-17.36274c1.51029,-2.5359 4.87831,-2.1998 6.56877,-4.64319c1.69045,-2.44339 3.59592,-9.02963 5.33425,-11.25314c1.73829,-2.22348 5.52642,-2.31375 8.04369,-4.66354c3.58603,-3.34751 3.23001,-1.72865 6.48915,-3.45926c3.25915,-1.73062 8.63648,1.50273 10.22949,4.81027c1.56583,3.25112 7.69054,2.45667 3.50423,8.7686c-4.18632,6.31193 -7.58252,4.99761 -11.27975,8.44892z"/></g><path d="M213.16063,182.44655l-0.85301,0.31434c0.06759,-0.59038 0.2333,-1.22398 0.50295,-1.81735c0.28531,-0.6092 1.07187,-1.25643 0.96762,-1.78402c-0.05474,-0.27699 -1.95229,-0.0917 -2.09454,-0.66252c-0.05405,-0.21685 0.63863,-2.4419 0.71992,-2.79258c0.70993,-3.06307 1.17308,-5.38209 2.61036,-8.4509c0,0 0.25892,-0.55282 0.65166,-0.4286c0.39273,0.12423 0.13381,0.67704 0.13381,0.67704c-1.38703,2.96147 -1.81423,5.15785 -2.49317,8.11631c-0.1005,0.43788 -0.69813,2.03858 -0.70101,2.27263c-0.00032,0.02541 2.02315,0.30138 2.09454,0.66252c0.0866,0.43814 -0.86137,2.12109 -1.10373,2.63858c-0.09768,0.20007 -0.1748,0.40932 -0.23254,0.61876c0.14816,0.20325 -0.02348,0.56968 -0.02348,0.56968l-0.09119,0.03361c-0.00264,0.02501 -0.00499,0.04987 -0.00708,0.0746z" fill="#212121" stroke="none" stroke-width="0.5"/><path d="M206.25789,185.66685c-0.46077,0.30307 -0.55541,-0.17567 -0.55541,-0.17567l-0.09547,-0.61832c0.11588,-1.01231 0.74486,-2.16968 0.85411,-3.06516c0.04629,-0.37941 -0.53079,-0.19729 -0.74668,-0.37529c-0.13647,-0.11251 -0.80051,-1.20271 -0.81439,-1.38271c-0.06686,-0.86741 0.13154,-2.44058 0.33372,-3.4178c0,0 0.12145,-0.56373 0.5759,-0.62071c0.45446,-0.05696 0.33302,0.50677 0.33302,0.50677c-0.20821,0.92135 -0.32856,2.19165 -0.30725,3.0195c0.02907,1.12995 1.49739,0.74281 1.56605,1.90031c0.04548,0.76646 -0.78522,2.2698 -0.8604,3.16286l0.08293,0.28442c0,0 0.09463,0.47875 -0.36615,0.78181z" fill="#212121" stroke="none" stroke-width="0.5"/><path d="M203.03678,194.01458c-0.39272,-0.12423 -0.1338,-0.67705 -0.1338,-0.67705l0.26775,-0.42791c-0.9283,-1.11773 -0.30592,-4.98025 -0.11506,-6.85657c0,0 0.05594,-0.54999 0.52301,-0.68613c0.46706,-0.13612 0.41111,0.4139 0.41111,0.4139c-0.21354,2.09928 -0.70222,5.25943 0.12133,6.75887l-0.42269,1.04631c0,0 -0.25892,0.5528 -0.65164,0.42859z" fill="#212121" stroke="none" stroke-width="0.5"/><path d="M216.69904,183.23138c-0.39273,-0.12423 -0.13381,-0.67705 -0.13381,-0.67705l0.17262,-0.36855c1.46038,-3.11809 2.20237,-5.98596 3.61905,-9.01076c0,0 0.25891,-0.55281 0.65165,-0.4286c0.39273,0.12423 0.1338,0.67705 0.1338,0.67705c-1.40625,3.00254 -2.16186,5.89952 -3.61905,9.01075l-0.17262,0.36856c0,0 -0.25891,0.55282 -0.65164,0.42861z" fill="#212121" stroke="none" stroke-width="0.5"/><path d="M199.4545,198.03149c-0.40722,0.43889 -0.64268,0.08056 -0.64268,0.08056l-0.38349,-0.59724c-0.25058,-1.26792 -0.00254,-2.96065 0.41498,-4.46928c0.12405,-0.44822 0.67383,-0.88129 0.66197,-1.29534c-0.01386,-0.48378 -0.60021,-0.51093 -0.69263,-0.95026c-0.17805,-0.84632 -0.102,-1.91538 0.31827,-2.88701c0,0 0.25891,-0.55282 0.65164,-0.42861c0.39272,0.12423 0.13381,0.67705 0.13381,0.67705c-0.8816,1.64827 0.535,2.01941 0.5293,3.21889c-0.00319,0.67308 -0.55351,1.04767 -0.71894,1.65303c-0.32819,1.20114 -0.61937,2.71633 -0.41906,3.72983l0.31856,0.47111c0,0 0.23548,0.35835 -0.17176,0.79724z" fill="#212121" stroke="none" stroke-width="0.5"/></g><path d="M201.79818,200.51387c0.35112,0.95092 -0.10866,1.52694 0.02139,2.47362c0.29736,2.16464 -0.96153,3.7348 -2.80338,4.96717c-0.68402,0.45767 -0.99001,1.13756 -1.48027,1.68865c-0.2656,0.29855 -1.50354,0.49747 -1.90395,0.63845c-1.59723,0.56247 -3.20313,0.5538 -4.77064,1.1058c-0.28201,0.09932 -1.45356,0.72276 -1.74045,0.52853c-0.23094,-0.15633 0.07014,-0.55789 0.04406,-0.83554c-0.10272,-1.09428 0.11778,-1.78815 0.38029,-2.60132l0.0598,0.0287l0.32913,-0.68819c0.04473,-0.0934 0.04275,-0.15106 0.00564,-0.25644c-0.07422,-0.21077 -0.30719,-0.32197 -0.51797,-0.24774l-0.44304,0.15518c-0.66516,-0.07877 -1.05938,0.07596 -1.68749,0.30493c-0.21772,0.07934 -0.5776,0.45533 -0.65451,0.23674c-0.11069,-0.31454 0.22303,-0.6398 0.23347,-0.97311c0.04638,-1.47873 1.26075,-2.4076 1.06389,-3.61388c0.0374,-0.01719 0.07347,-0.03408 0.1078,-0.05089l-0.14109,-0.10422c-0.01171,-0.04483 -0.02589,-0.09065 -0.04176,-0.13639l0.19873,-0.06956l-0.18108,-0.51127c-0.07422,-0.21077 -0.30676,-0.32391 -0.51753,-0.24967c-0.21077,0.07424 -0.27496,0.27798 -0.20075,0.48877l0.01579,0.20254c-1.15243,-0.16357 -3.07183,1.05744 -3.97524,0.17664c-1.03153,-1.00572 0.67428,-2.16185 1.15163,-2.74495c0.23596,-0.28824 0.48584,-0.70247 0.7122,-1.11123l0.01277,0.0124l0.41347,-0.42938c0.10752,-0.10666 0.15094,-0.27147 0.09727,-0.42382c-0.07422,-0.21077 -0.25316,-0.3075 -0.46394,-0.23328l-0.7066,0.2174c-0.67569,-0.30484 -1.22167,-0.45573 -1.82859,-0.91627c-0.38699,-0.18657 -2.62961,-0.90886 -2.4824,-1.55115c0.53184,-2.32033 3.39749,-4.58717 5.35682,-5.63537c0.27593,-0.14761 1.06235,0.80929 1.15767,0.89634c2.46343,0.33991 4.46126,-0.55103 6.65816,-1.64714c0.6539,-0.32625 1.616,-0.3518 2.15123,-0.90439c3.17342,3.2037 4.87496,7.56943 6.36943,11.81334z" data-paper-data="{&quot;noHover&quot;:false,&quot;origItem&quot;:[&quot;Path&quot;,{&quot;applyMatrix&quot;:true,&quot;segments&quot;:[[[352.98765,211.79952],[7.15143,15.10973],[-2.55196,1.27316]],[[344.36571,212.32209],[2.68815,-0.33561],[-9.03143,1.12755]],[[319.12178,209.89399],[8.19519,4.2219],[-0.22607,-0.42176]],[[316.18244,205.33333],[1.14654,-0.1764],[-8.14174,1.25266]],[[290.56826,218.40736],[4.71675,-7.45853],[-1.30565,2.06461]],[[297.34245,226.88235],[-1.12338,-1.1289],[1.55513,2.35765]],[[302.61113,232.33333],[-1.98728,-1.89794],[0,0]],[[305.18244,232.33333],[0,0],[0.82843,0]],[[306.68244,233.83333],[0,-0.82843],[0,0.5988]],[[305.82419,235.18951],[0.50737,-0.24052],[0,0]],[303.85326,236.17497],[[303.82379,236.11605],[0,0],[-1.29482,1.15054]],[[299.97103,239.10931],[1.17999,-0.71729],[-2.38708,1.45106]],[[292.56826,247.25931],[-2.36844,-4.78677],[2.07425,4.1922]],[[306.68244,251.51318],[-3.82814,-1.9909],[0,0]],[[306.68244,250.83333],[0,0],[0,-0.82843]],[[308.18244,249.33333],[-0.82843,0],[0.82843,0]],[[309.68244,250.83333],[0,-0.82843],[0,0]],[309.68244,252.83333],[[308.90249,252.83333],[0,0],[-0.00083,0.17941]],[[308.87958,253.35911],[0.01432,-0.1712],[0,0]],[[309.2431,253.89399],[0,0],[-0.14078,0.0165]],[[308.80379,253.93991],[0.15196,-0.01408],[-0.79701,4.46031]],[[300.62231,265.24677],[1.98302,-5.11343],[-0.44697,1.15256]],[[298.60546,268.35899],[0.00029,-1.23619],[-0.0002,0.85903]],[[301.18244,268.33333],[-0.85898,0.00943],[2.47817,-0.0272]],[[307.44609,269.33333],[-2.22884,-1.09444],[0,0]],[[309.18244,269.33333],[0,0],[0.82843,0]],[[310.68244,270.83333],[0,-0.82843],[0,0.41421]],[[310.2431,271.89399],[0.27145,-0.27145],[0,0]],[308.2431,273.89399],[[308.06872,273.71962],[0,0],[-1.91921,2.52017]],[[303.64231,282.17796],[0.98821,-3.95282],[-0.25075,1.003]],[[302.45841,285.04474],[-0.61503,-0.83104],[0.76407,1.03243]],[[309.18244,285.33333],[-1.10841,0],[6.16069,0]],[[327.18244,287.33333],[-6.27749,0],[1.57371,0]],[[334.60841,287.44751],[-1.29634,0.7169],[2.39284,-1.32329]],[[341.8448,283.37183],[-2.95535,0.75806],[7.95781,-2.0412]],[[357.72256,269.4887],[-1.62566,7.93509],[0.71097,-3.47035]],[[360.68244,260.83333],[0.05678,3.75743],[0,-16.67958]]],&quot;closed&quot;:true}]}" fill="#001a3a" stroke="#e3efff" stroke-width="1.5"/></g></g><path d="M236.78873,165.30378l-2.95639,7.85012l-18.40892,-10.52958l6.28886,-6.17408" fill="#000000" stroke="#000000" stroke-width="1" stroke-linecap="round"/></g><g stroke-linecap="butt"><g data-paper-data="{&quot;index&quot;:null}"><g><g fill="#8a8a8a" stroke="#212121" stroke-width="1"><path d="M216.24428,198.1191c2.89723,-3.64405 4.4207,-10.16532 7.25666,-12.33352c2.83596,-2.16819 3.37107,-0.34633 5.72512,-1.8414c2.35405,-1.49507 1.84613,-6.95013 4.23594,-10.02582c5.23583,-6.73853 15.37883,-1.54019 16.22499,-0.29513c0.65281,0.96055 -2.84261,14.51612 -4.35472,18.20434c-1.11965,2.73096 -4.50041,2.89541 -5.81188,5.56145c-1.31148,2.66604 -2.62629,9.52127 -4.01755,11.97687c-1.39125,2.4556 -5.12463,3.10373 -7.26768,5.79919c-3.05293,3.8399 -2.93964,2.18625 -5.9078,4.37874c-2.96818,2.19249 -8.76367,-0.21217 -10.8272,-3.24852c-2.02831,-2.98453 -7.97326,-1.35517 -4.76394,-8.21562c3.20933,-6.86046 6.36044,-6.00159 9.50806,-9.96058z"/></g><path d="M224.86836,197.29552l0.79729,-0.43673c0.02024,0.59389 -0.05018,1.24499 -0.22935,1.87166c-0.19232,0.64462 -0.87479,1.40082 -0.69385,1.90723c0.095,0.26587 1.94446,-0.19731 2.16935,0.34628c0.08543,0.20649 -0.2714,2.50939 -0.30005,2.86824c-0.25028,3.13428 -0.36624,5.49627 -1.33507,8.74353c0,0 -0.17453,0.58497 -0.58129,0.52004c-0.40675,-0.06493 -0.23222,-0.64989 -0.23222,-0.64989c0.93496,-3.13369 1.03347,-5.36906 1.26853,-8.39531c0.0348,-0.44793 0.38975,-2.11926 0.35806,-2.35117c-0.00344,-0.02518 -2.04549,0.00039 -2.16936,-0.34627c-0.15028,-0.42058 0.53902,-2.22497 0.70239,-2.77253c0.06709,-0.21229 0.1125,-0.43062 0.13872,-0.6463c-0.17652,-0.17916 -0.06082,-0.56691 -0.06082,-0.56691l0.08524,-0.04669c-0.00107,-0.02512 -0.00241,-0.05006 -0.004,-0.07482z" fill="#212121" stroke="none" stroke-width="0.5"/><path d="M231.62677,193.09212c0.41102,-0.36773 0.57525,0.09181 0.57525,0.09181l0.18564,0.59746c0.03472,1.01833 -0.41662,2.25582 -0.39257,3.15762c0.01019,0.38208 0.55408,0.11683 0.79387,0.26102c0.15158,0.09114 0.96919,1.07145 1.00946,1.24744c0.19409,0.84806 0.22995,2.43327 0.17413,3.42964c0,0 -0.03694,0.57548 -0.47801,0.69887c-0.44108,0.12339 -0.40413,-0.4521 -0.40413,-0.4521c0.07001,-0.94199 0.00163,-2.21616 -0.14158,-3.03179c-0.19546,-1.1133 -1.99686,-0.51378 -2.23554,-1.64847c-0.15804,-0.75135 0.44178,-2.36081 0.38438,-3.25518l-0.12398,-0.26907c0,0 0.24205,-0.45954 0.65307,-0.82727z" fill="#000000" stroke="none" stroke-width="0.5"/><path d="M233.98294,184.30059c0.40676,0.06492 0.23222,0.64989 0.23222,0.64989l-0.20169,0.46273c1.08303,0.96856 1.03731,4.88063 1.12533,6.76457c0,0 0.0258,0.55224 -0.41606,0.75577c-0.44187,0.20353 -0.46767,-0.34871 -0.46767,-0.34871c-0.09849,-2.10782 -0.08137,-5.30549 -1.11712,-6.66702l0.26371,-1.0972c0,0 0.17453,-0.58496 0.58129,-0.52004z" fill="#000000" stroke="none" stroke-width="0.5"/><path d="M221.25289,197.04129c0.40675,0.06493 0.23223,0.6499 0.23223,0.6499l-0.11635,0.38998c-0.9844,3.29942 -1.29517,6.24537 -2.25012,9.44607c0,0 -0.17452,0.58497 -0.58128,0.52005c-0.40675,-0.06493 -0.23221,-0.6499 -0.23221,-0.6499c0.94792,-3.17716 1.26787,-6.15391 2.25011,-9.44607l0.11635,-0.38998c0,0 0.17453,-0.58497 0.58128,-0.52004z" fill="#212121" stroke="none" stroke-width="0.5"/><path d="M236.93342,179.79914c0.33802,-0.49418 0.62377,-0.17451 0.62377,-0.17451l0.4674,0.53414c0.4349,1.21707 0.43928,2.92788 0.24889,4.4816c-0.05658,0.46162 -0.53645,0.97107 -0.46363,1.37883c0.08508,0.47644 0.66903,0.41679 0.82525,0.83768c0.30095,0.8108 0.38344,1.87937 0.11112,2.90237c0,0 -0.17453,0.58497 -0.58128,0.52005c-0.40676,-0.06492 -0.23223,-0.64989 -0.23223,-0.64989c0.62879,-1.7603 -0.82704,-1.91838 -0.99837,-3.10559c-0.09615,-0.66619 0.3929,-1.11785 0.4672,-1.74102c0.1474,-1.23642 0.21187,-2.77798 -0.13577,-3.75084l-0.38457,-0.41897c0,0 -0.28576,-0.31968 0.05225,-0.81384z" fill="#000000" stroke="none" stroke-width="0.5"/></g></g><path d="M207.88973,203.6338c0.70943,-0.34299 1.42808,-0.64288 2.10171,-0.75452c0.90335,-0.14971 1.83717,0.0003 2.73665,-0.13158c1.06886,-0.15672 1.71994,-1.29858 2.96215,-0.61455c0.24377,0.13423 0.22867,0.51377 0.40109,0.73221c0.87407,1.1074 1.77365,1.64204 2.35328,2.98738c0.85559,1.98583 1.50776,4.95114 2.84429,6.64494c1.71668,2.17558 2.56555,6.01313 1.02335,8.46547c-0.62584,1.542 -0.36985,3.47962 -1.54731,4.78766c-0.35499,0.39436 -1.4714,0.68711 -1.97307,0.90326c-0.45225,0.19485 -1.65771,0.90623 -2.11455,0.80675c-0.67769,-0.14757 -1.72367,-1.87911 -2.12326,-3.23985c-0.53157,0.59859 -2.48234,1.97558 -3.39546,1.77675c-1.37706,-0.29987 -1.39093,-1.88715 -1.55283,-2.87878c-0.25402,-1.5559 -1.34725,-2.97826 -0.18834,-4.3989c0.10075,-0.1235 0.19844,-0.28992 0.29767,-0.4765c-0.19042,0.08748 -0.39582,0.15066 -0.62455,0.17576c-3.55036,0.38968 -3.3992,-4.46037 -2.34173,-6.34812c0.08558,-0.15276 0.22528,-0.37169 0.39482,-0.60188c-1.02317,0.03143 -2.27558,-0.29184 -2.74446,-0.3166c-0.24452,-0.0129 -0.04985,0.31325 -0.28556,0.24694c-1.66274,-0.46774 -1.52301,-2.41347 -0.88256,-3.57365c1.12953,-2.04613 1.93166,-3.22614 4.1354,-4.18359c0,0 0.27009,-0.11637 0.52328,-0.00861z" fill="#001a3a" stroke="#e3efff" stroke-width="1.5"/></g><g stroke="#e3efff" stroke-width="1" stroke-linecap="butt"><path d="M220.95257,219.5717l-0.40627,-67.89114h78.81513v67.89114z" fill="url(#color-1)"/><path d="M222.7872,218.95946c0,0 20,-6.10917 20,-13.78729c0,-4.49588 -20.40627,-9.31066 -20.40627,-14.33333c0,-3.1096 25.07293,-7.50445 25.07293,-10.33334c0,-3.95675 -25.07293,-6.12507 -25.07293,-8.66666c0,-7.92594 0,-19.54604 0,-19.54604h75.14588c0,0 0,11.6201 0,19.54604c0,2.96231 -25.66667,4.89549 -25.66667,9.66666c0,6.40187 25.66667,16.04569 25.66667,22.33334c0,2.54328 -24.33334,-1.74744 -24.33334,0.33333c0,4.86813 24.33334,14.7873 24.33334,14.7873z" fill="url(#color-2)"/></g><g stroke-linecap="round"><path d="M241.30727,121.66667l22.7396,12.33333l1,17.33333h-25.7396v-15.33333l-7.33333,-9" fill="url(#color-3)" stroke="#9966ff" stroke-width="0.5"/><path d="M247.30727,126.75l-9.75,9" fill="none" stroke="#000000" stroke-width="1"/><path d="M256.96353,131.75l-16.90627,9.5" fill="none" stroke="#000000" stroke-width="1"/><path d="M263.21353,135.5l-23.65627,11.5" fill="none" stroke="#000000" stroke-width="1"/><path d="M263.96353,147.25l-25.40627,3.5" fill="none" stroke="#000000" stroke-width="1"/></g><g stroke-linecap="butt"><g><g><path d="M239.64011,131.43752c-3.35163,1.39602 -1.24039,-7.11183 -3.55378,-12.66595c-2.31339,-5.55412 -8.58166,-6.05129 -5.23003,-7.4473c3.35163,-1.39602 8.35031,1.9748 10.6637,7.52892c2.31339,5.55412 1.47174,11.18832 -1.87989,12.58434z" fill="url(#color-4)" stroke="#e3efff" stroke-width="0.5"/><path d="M237.6924,128.42907c-2.9102,1.11342 -7.149,-1.83501 -8.96648,-6.58548c-1.81748,-4.75047 3.05818,-9.29318 5.96837,-10.40658c1.85203,-0.70856 2.62628,0.14248 3.41289,2.07944c0.44943,1.10667 0.90291,2.56785 1.56375,4.29513c1.81748,4.75047 0.93166,9.50408 -1.97854,10.6175z" fill="url(#color-5)" stroke="#e3efff" stroke-width="1"/><path d="M231.13262,125.13393c-1.10441,1.4625 -1.94993,-0.29565 -3.16408,-1.21252c-1.21415,-0.91687 0.37737,-3.61656 1.48178,-5.07907c1.10441,-1.4625 3.08634,-0.87902 4.30049,0.03785c1.21415,0.91687 -1.51378,4.79124 -2.61819,6.25374z" fill="#5d8d03" stroke="#000000" stroke-width="0"/><path d="M234.23321,124.66275c-1.42062,4.3296 -7.32465,5.84905 -11.48181,7.28572c-3.58634,1.23939 -8.2528,1.67983 -11.62933,0.57194c-1.59341,-0.52282 -2.05941,-2.18673 -3.58005,-2.70233c-2.21786,-0.75201 -4.53814,-1.43958 -5.35712,-3.44911c-0.75943,-1.86342 -0.02315,-4.31844 0.47115,-6.84296c0.42673,-2.17943 0.52099,-4.41961 1.12784,-6.26907c0.5502,-1.67684 2.03899,-1.97823 3.58993,-3.14643c0.64221,-0.48372 1.08181,-1.61455 1.57016,-2.26296c0.40713,-0.54057 1.46669,-0.90654 1.8784,-1.44487c1.96651,-2.57126 3.58728,-5.51736 5.57892,-7.30073c1.69266,-1.51566 3.70976,-2.14877 5.83397,-1.45178c1.94811,0.63921 6.19372,-0.27609 8.23922,1.71084c3.04661,2.95939 4.08591,10.38212 4.45075,14.18455c0.3069,3.1986 0.19387,8.4172 -0.69205,11.1172z" fill="#9966ff" stroke="#e3efff" stroke-width="1"/><path d="M234.41142,123.61569c-1.29195,1.71085 -4.57986,1.71259 -6.8426,0.00389c-2.26274,-1.70871 -2.07285,-4.52769 -0.7809,-6.23854c1.29195,-1.71085 3.93342,-3.14223 6.19616,-1.43352c2.26274,1.70871 2.71929,5.95732 1.42734,7.66818z" fill="#58ff00" stroke="#000000" stroke-width="0"/><path d="M225.10802,120.64457c0.87114,-1.15359 1.88871,-0.83302 3.22657,-0.9163c1.0943,-0.06812 3.16169,-1.07135 4.10527,-0.35882c2.09718,1.58369 2.25265,4.91295 0.66897,7.01012c-1.58369,2.09718 -4.97387,2.51344 -7.07104,0.92976c-2.09718,-1.58369 -2.51345,-4.5676 -0.92976,-6.66478z" fill="#070707" stroke="#000000" stroke-width="1"/><path d="M227.49508,122.05488c-0.52095,0.68986 -1.59198,0.75922 -2.39222,0.15492c-0.80024,-0.6043 -1.02665,-1.65342 -0.5057,-2.34328c0.52095,-0.68986 1.59198,-0.75922 2.39222,-0.15492c0.80024,0.6043 1.02665,1.65342 0.5057,2.34328z" fill="#58ff00" stroke="none" stroke-width="0"/><g fill="url(#color-6)" stroke="none" stroke-width="0"><path d="M215.61218,129.27134c-0.07273,0.0963 0.25574,2.52721 0.15103,2.58329c-1.25732,0.6735 -5.11872,-3.79061 -7.86981,-5.8681c-2.9802,-2.25049 -6.3458,-4.14938 -5.39982,-5.40208c0.48982,-0.64865 0.14626,-7.83291 2.04842,-7.44033c1.77139,0.36559 5.85587,5.91433 7.29292,6.99953c2.9802,2.25049 4.72324,7.87499 3.77726,9.12769z"/></g><path d="M232.40243,111.78474c-0.06971,0.37634 -0.44603,0.30663 -0.44603,0.30663l-0.07832,-0.12851c-0.32988,0.22393 -1.10083,0.40065 -1.47662,0.53385c-0.72122,0.33287 -1.39996,0.73762 -2.00063,-0.06626c-0.00791,-0.01058 -0.0156,-0.02127 -0.0231,-0.03207c-0.04412,0.0637 -0.11103,0.12358 -0.21,0.17266c-0.45719,0.22671 -0.68389,-0.23047 -0.68389,-0.23047l0.02527,-0.07033c-0.52995,-0.40325 -0.94103,-0.87057 -1.47092,-1.27246c-1.42083,-1.76051 -3.98335,-2.42958 -5.61874,-3.98787c-0.51011,-0.48606 -0.63006,-1.31898 -0.9298,-1.97404c-0.03012,-0.00945 -0.05993,-0.01814 -0.08939,-0.02603c-0.38912,-0.10418 -1.71964,0.19348 -2.02622,-0.03804c-0.15296,-0.11551 -0.24457,-0.9418 -0.27811,-1.18224c-0.13138,-0.94177 -0.1869,-1.91801 -0.50377,-2.81572c0,0 -0.12619,-0.36132 0.23513,-0.48752c0.36133,-0.1262 0.48752,0.23513 0.48752,0.23513c0.32932,0.95187 0.40029,1.96632 0.53924,2.96235c0.0312,0.22363 -0.19892,0.54106 -0.01872,0.67713c0.20291,0.15323 0.48155,-0.2296 0.73466,-0.20534c0.02753,0.00263 0.05512,0.00499 0.08275,0.00714c-0.11555,-0.06798 -0.37793,-0.27057 -0.21971,-0.6429c0.19958,-0.46967 0.66925,-0.27009 0.66925,-0.27009c0.6045,0.2616 0.907,0.75118 1.16449,1.28401c0.72277,0.35363 1.4862,0.91415 2.04395,1.33533c2.42479,1.83108 5.76082,3.19475 6.75011,6.17353c0.11899,0.3583 0.86574,-0.16809 1.05324,-0.25535c0.32477,-0.11155 0.64258,-0.25866 0.92417,-0.45521l1.05763,0.00664c0,0 0.37634,0.06971 0.30663,0.44603z" fill="#212121" stroke="none" stroke-width="0.5"/><path d="M228.5341,108.63893c-0.23065,0.30543 -0.53608,0.07478 -0.53608,0.07478l-0.18468,-0.16407c-1.6974,-2.47303 -4.1412,-4.51482 -6.53086,-6.31937c0,0 -0.30543,-0.23065 -0.07478,-0.53608c0.23065,-0.30543 0.53608,-0.07478 0.53608,-0.07478c2.45406,1.85318 4.95289,3.95839 6.70036,6.4966l0.01517,-0.01316c0,0 0.30543,0.23065 0.07478,0.53608z" fill="#212121" stroke="none" stroke-width="0.5"/><path d="M227.75673,98.6555c-0.23065,0.30543 -0.53608,0.07478 -0.53608,0.07478l0.10823,0.00118c-1.24804,-0.08189 -2.20759,0.28235 -3.03306,1.39026c0,0 -0.23065,0.30543 -0.53608,0.07478c-0.30543,-0.23065 -0.07478,-0.53608 -0.07478,-0.53608c0.99254,-1.29958 2.17076,-1.76959 3.68889,-1.6931l0.30808,0.1521c0,0 0.30543,0.23065 0.07478,0.53608z" fill="#0e1501" stroke="none" stroke-width="0.5"/><path d="M232.58042,102.59366c0.05288,0.37906 -0.32618,0.43195 -0.32618,0.43195l-0.45891,-0.04916c-1.22908,-0.95003 -3.71797,0.16572 -4.6743,1.08361c0,0 -0.27771,0.26336 -0.54107,-0.01436c-0.26336,-0.27772 0.01437,-0.54107 0.01437,-0.54107c1.27974,-1.20099 4.0706,-2.31918 5.6623,-1.13904l-0.10813,-0.09811c0,0 0.37906,-0.05288 0.43195,0.32618z" fill="#0e1501" stroke="none" stroke-width="0.5"/><path d="M234.42371,106.36461c-0.23065,0.30543 -0.53608,0.07478 -0.53608,0.07478l0.00849,-0.01819c-0.96119,-0.33979 -3.21548,-0.36827 -4.12143,0.09224c0,0 -0.34289,0.17003 -0.51292,-0.17285c-0.17003,-0.34289 0.17285,-0.51292 0.17285,-0.51292c1.11908,-0.5439 3.51034,-0.52042 4.70594,-0.13185l0.20836,0.13272c0,0 0.30543,0.23065 0.07478,0.53608z" fill="#0e1501" stroke="none" stroke-width="0.5"/><path d="M232.88052,110.27236c0.08736,-0.07518 0.26404,-0.17519 0.47713,-0.01427c0.30543,0.23065 0.07478,0.53608 0.07478,0.53608l-0.40338,0.25136c-0.8511,-0.05037 -1.86594,-0.00024 -2.65265,-0.36983c0,0 -0.34473,-0.16627 -0.17847,-0.51101c0.16626,-0.34473 0.51099,-0.17846 0.51099,-0.17846c0.60496,0.30145 1.52907,0.26299 2.17159,0.28613z" fill="#0e1501" stroke="none" stroke-width="0.5"/><path d="M233.06794,99.03901c0.05288,0.37906 -0.32618,0.43195 -0.32618,0.43195l-0.01145,-0.0392c-0.68928,0.46619 -1.87161,0.71905 -2.564,1.19502c0,0 -0.3154,0.21682 -0.53221,-0.09858c-0.21682,-0.3154 0.09858,-0.53221 0.09858,-0.53221c0.69109,-0.47509 1.88941,-0.72146 2.56399,-1.19502l0.33933,-0.08814c0,0 0.37906,-0.05288 0.43195,0.32618z" fill="#0e1501" stroke="none" stroke-width="0.5"/><path d="M228.88839,99.16171c-0.05765,-0.09681 -0.09332,-0.24239 0.03376,-0.41069c0.23065,-0.30543 0.53608,-0.07478 0.53608,-0.07478l0.23197,0.50312c-0.04215,0.12508 -0.08431,0.25017 -0.12646,0.37524c0,0 -0.12222,0.36269 -0.48491,0.24047c-0.36269,-0.12222 -0.24048,-0.48492 -0.24048,-0.48492c0.01668,-0.04948 0.03334,-0.09896 0.05003,-0.14844z" fill="#0e1501" stroke="none" stroke-width="0.5"/><path d="M234.69912,108.46079c-0.12222,0.36269 -0.48491,0.24047 -0.48491,0.24047l-0.43177,-0.15071c-0.26081,-0.1953 -0.54518,-0.36435 -0.84583,-0.48994c0,0 -0.35225,-0.14968 -0.20257,-0.50192c0.14968,-0.35224 0.50194,-0.20257 0.50194,-0.20257c0.31886,0.13742 0.62777,0.30716 0.90395,0.51758l0.31872,0.10219c0,0 0.36269,0.12222 0.24047,0.48491z" fill="#0e1501" stroke="none" stroke-width="0.5"/><path d="M232.41272,119.85972c1.69584,1.84067 1.63933,4.67683 0.0801,6.74163c-0.09894,0.12929 -0.20395,0.2451 -0.31442,0.34952c-0.26817,0.20068 -0.97399,0.36882 -1.3068,0.49711c-0.7606,0.29319 -1.10295,0.66881 -1.84984,0.24089c0.03169,-0.04347 0.0641,-0.08433 0.09718,-0.12281l0.2457,-0.3105c0.06102,-0.01771 0.12205,-0.03518 0.18294,-0.05265c0.40046,-0.24392 0.86138,-0.32751 1.34414,-0.52606c0.21809,-0.13796 0.82226,-0.31058 0.99022,-0.53679c1.31012,-1.73491 1.42007,-4.06852 0.07449,-5.64295c-0.1179,-0.04552 -0.17655,-0.14783 -0.20455,-0.22202c-0.13923,-0.14034 -0.69759,-0.27343 -0.86279,-0.39817c0,0 -0.30543,-0.23065 -0.07478,-0.53608c0.01194,-0.0158 0.02407,-0.03018 0.03635,-0.04322l-0.72598,0.08907c0.24273,0.11691 1.5251,-0.20958 1.75289,-0.06125l0.05547,-0.04856c0.68144,0.51459 1.34672,1.11835 2.00912,1.6761c0.39162,2.04283 -0.03004,4.70046 -1.7638,5.99789c-0.61716,0.58347 -1.81036,0.81186 -2.65452,1.05341l-0.50211,-0.31543l0.09718,-0.12281c0.13272,-0.15436 0.2763,-0.27036 0.42865,-0.36315c0.47595,-0.13652 0.94403,-0.27295 1.34414,-0.52606c0.04904,-0.02016 0.09831,-0.04153 0.14774,-0.06435c1.83886,-0.84898 2.29955,-3.64939 2.24279,-5.27168c-0.40174,-0.2372 -0.74315,-0.53285 -1.0799,-0.83286c-0.01342,0.00299 -0.02746,0.00552 -0.04215,0.00757c-0.0824,0.01149 -0.1494,0.00258 -0.20377,-0.01841c-0.0648,-0.07581 -0.13297,-0.14988 -0.20455,-0.22202c-0.0185,-0.04901 -0.02363,-0.08574 -0.02363,-0.08574l0.07335,0.06056c-0.05174,-0.05821 -0.09748,-0.13042 -0.13214,-0.20882c-0.08776,-0.07326 -0.58336,-0.14497 -0.67515,-0.21429l-0.14367,-0.52919c0.22509,-0.23896 0.90599,-0.03156 0.90599,-0.03156c0.03384,0.02556 0.06722,0.05142 0.10014,0.07758l0.02079,-0.0182c0.18278,0.11903 0.35254,0.25435 0.49615,0.41592z" fill="#070707" stroke="none" stroke-width="0.5"/><path d="M205.24747,130.11479c-0.20362,-0.15376 -0.04986,-0.35738 -0.04986,-0.35738l0.1,-0.13243c0.52601,-0.69656 0.33171,-1.22113 0.80271,-1.88905c0,0 0.15377,-0.20363 0.35738,-0.04986c0.20362,0.15376 0.04986,0.35738 0.04986,0.35738c-0.42263,0.50659 -0.31578,1.24425 -0.80271,1.88905l-0.1,0.13243c0,0 -0.15376,0.20362 -0.35738,0.04986z" fill="#0e1501" stroke="none" stroke-width="0.5"/><path d="M208.58219,132.33142c-0.25271,0.03526 -0.28796,-0.21746 -0.28796,-0.21746l-0.0306,-0.31414c0.10463,-0.56488 -0.00221,-1.10085 0.31757,-1.56666c0,0 0.15376,-0.20362 0.35738,-0.04986c0.20362,0.15376 0.04986,0.35738 0.04986,0.35738c-0.23639,0.26441 -0.14887,0.95167 -0.22303,1.35207l0.03425,0.15069c0,0 0.03526,0.25271 -0.21746,0.28796z" fill="#0e1501" stroke="none" stroke-width="0.5"/><path d="M206.97169,130.58508c-0.20362,-0.15376 -0.04986,-0.35738 -0.04986,-0.35738l0.1,-0.13243c0.31137,-0.41233 0.46317,-0.66475 0.92267,-0.90178c0,0 0.22859,-0.11336 0.34195,0.11523c0.11336,0.22859 -0.11523,0.34195 -0.11523,0.34195c-0.38252,0.17939 -0.48029,0.40536 -0.74215,0.75213l-0.1,0.13243c0,0 -0.15376,0.20362 -0.35738,0.04986z" fill="#0e1501" stroke="none" stroke-width="0.5"/><path d="M210.24707,133.68231c-0.20362,-0.15376 -0.04986,-0.35738 -0.04986,-0.35738l0.05273,-0.02512c0.09842,-0.50558 0.01255,-0.84764 0.1794,-1.36196c0,0 0.08148,-0.24179 0.32329,-0.16031c0.24179,0.08148 0.16031,0.32329 0.16031,0.32329c-0.16541,0.46873 -0.0757,0.81045 -0.16121,1.29193l-0.14727,0.23972c0,0 -0.15377,0.20363 -0.35738,0.04986z" fill="#0e1501" stroke="none" stroke-width="0.5"/></g><path d="M213.19654,111.27568c-1.10441,1.4625 -1.94993,-0.29565 -3.16408,-1.21252c-1.21415,-0.91687 0.37737,-3.61657 1.48178,-5.07907c1.10441,-1.4625 2.68007,-0.87903 3.89422,0.03784c1.21415,0.91687 -1.10751,4.79124 -2.21192,6.25374z" fill="#58ff00" stroke="#000000" stroke-width="0"/><path d="M213.06138,110.21553c-0.48689,1.48391 -1.97995,2.32646 -3.33481,1.88191c-1.35487,-0.44456 -2.0585,-2.00788 -1.5716,-3.49178c0.48689,-1.48391 2.58964,-3.4929 3.9445,-3.04833c0.46704,0.15324 0.20003,1.68225 0.48564,2.07698c0.54293,0.7504 0.79533,1.60884 0.47627,2.58124z" fill="#070707" stroke="#000000" stroke-width="1"/><path d="M210.51954,109.31425c-0.42197,0.55879 -1.1667,0.70771 -1.6634,0.33263c-0.4967,-0.37508 -0.55728,-1.13214 -0.13531,-1.69091c0.42197,-0.55879 1.16669,-0.70771 1.66339,-0.33263c0.4967,0.37508 0.55728,1.13214 0.13531,1.69092z" fill="#58ff00" stroke="none" stroke-width="0"/><path d="M214.22481,107.39968c-0.3154,0.21682 -0.53221,-0.09858 -0.53221,-0.09858l-0.18552,-0.27859c-0.49554,-0.36554 -0.74772,-0.60772 -1.37127,-0.63913c0,0 -0.38207,-0.02249 -0.35958,-0.40456c0.02249,-0.38208 0.40456,-0.35959 0.40456,-0.35959c0.82795,0.05434 1.23569,0.37909 1.87948,0.87419l0.26312,0.37403c0,0 0.21682,0.31541 -0.09858,0.53222z" fill="#58ff00" stroke="none" stroke-width="0.5"/><path d="M222.119,96.72535c-0.06283,-0.09641 -0.10964,-0.24854 0.02429,-0.4259c0.23065,-0.30543 0.53608,-0.07478 0.53608,-0.07478l0.23197,0.50312c-0.14063,0.40417 -0.14455,0.79068 -0.27944,1.2012c0,0 -0.12222,0.36269 -0.48491,0.24047c-0.36269,-0.12222 -0.24047,-0.48491 -0.24047,-0.48491c0.11271,-0.32392 0.1376,-0.6365 0.21248,-0.95917z" fill="#0e1501" stroke="none" stroke-width="0.5"/><path d="M209.50847,111.45549c0.02249,-0.38208 0.40456,-0.35959 0.40456,-0.35959l0.40912,0.02704c1.53509,0.30458 1.94998,-1.2399 1.94996,-2.4726c0,0 0.00125,-0.38273 0.38398,-0.38147c0.38273,0.00125 0.38148,0.38399 0.38148,0.38399c-0.01077,1.74523 -0.80057,3.5827 -2.85484,3.22274l-0.31469,-0.01556c0,0 -0.38208,-0.02248 -0.35959,-0.40456z" fill="#070707" stroke="none" stroke-width="0.5"/><path d="M201.74321,128.40936c-0.20362,-0.15376 -0.04986,-0.35738 -0.04986,-0.35738c0.43333,-0.57383 1.16665,-1.54492 1.59997,-2.11875c0,0 0.15376,-0.20362 0.35738,-0.04986c0.20362,0.15376 0.04986,0.35738 0.04986,0.35738c-0.43333,0.57383 -0.86665,1.14765 -1.29998,1.72148l-0.29999,0.39727c0,0 -0.15377,0.20362 -0.35738,0.04986z" fill="#0e1501" stroke="none" stroke-width="0.5"/></g><g text-anchor="start"><g><g><g fill="none" stroke="none" stroke-width="1" font-family="sans-serif" font-weight="normal" font-size="12"/><g fill="url(#color-7)" stroke="#000000" stroke-width="3.5" font-family="&quot;Helvetica Neue&quot;, Helvetica, Arial, sans-serif" font-weight="400" font-size="16"/><g fill="none" stroke="none" stroke-width="1" font-family="sans-serif" font-weight="normal" font-size="12"/></g><g><g fill="url(#color-8)" stroke="#000000" stroke-width="3.5" font-family="&quot;Helvetica Neue&quot;, Helvetica, Arial, sans-serif" font-weight="400" font-size="16"/><g fill="url(#color-9)" stroke="#e3efff" stroke-width="3.5" font-family="&quot;Helvetica Neue&quot;, Helvetica, Arial, sans-serif" font-weight="400" font-size="16"/><g fill="none" stroke="none" stroke-width="1" font-family="sans-serif" font-weight="normal" font-size="12"/></g></g><g data-paper-data="{&quot;index&quot;:null}"><g><g fill="url(#color-10)" stroke="#000000" stroke-width="3.5" font-family="&quot;Helvetica Neue&quot;, Helvetica, Arial, sans-serif" font-weight="400" font-size="16"/><g fill="url(#color-11)" stroke="#000000" stroke-width="3.5" font-family="&quot;Helvetica Neue&quot;, Helvetica, Arial, sans-serif" font-weight="400" font-size="16"/><g fill="none" stroke="none" stroke-width="1" font-family="sans-serif" font-weight="normal" font-size="12"/></g><g><g fill="url(#color-12)" stroke="#000000" stroke-width="3.5" font-family="&quot;Helvetica Neue&quot;, Helvetica, Arial, sans-serif" font-weight="400" font-size="16"/><g fill="none" stroke="none" stroke-width="1" font-family="sans-serif" font-weight="normal" font-size="12"/><g fill="none" stroke="none" stroke-width="1" font-family="sans-serif" font-weight="normal" font-size="12"/></g></g></g></g><g data-paper-data="{&quot;index&quot;:null}"><g stroke="#000000" stroke-width="2"><path d="M299.09108,95.73367c-3.34804,14.02942 -10.90302,24.24725 -16.87451,22.82218c-5.97149,-1.42506 -8.0982,-13.9534 -4.75017,-27.98279c3.34804,-14.02942 10.90301,-24.24724 16.87449,-22.82217c5.97149,1.42506 8.09822,13.95339 4.75018,27.98278z" fill="#9966ff" stroke-linecap="butt"/><path d="M299.49908,110.97967l-11.8558,15.61502l-2.77407,-10.30019l-13.19579,11.44584l-3.6633,-22.07702" fill="#58ff00" stroke-linecap="round"/><path d="M300.2355,78.40895c-0.70622,2.95931 -3.27789,4.88121 -5.74398,4.29269c-2.46609,-0.58852 -3.89273,-3.4646 -3.18651,-6.4239c0.70622,-2.95931 3.27788,-4.88121 5.74397,-4.29269c2.46609,0.58852 3.89274,3.4646 3.18652,6.42391z" fill="#58ff00" stroke-linecap="butt"/><path d="M287.31769,70.69245l1.71409,5.04279l-1.09235,3.85819l3.0297,3.12571l-0.73624,3.08508l4.83243,1.32486l-5.36942,5.24017l-8.14626,-8.29399l-2.03335,-0.82849" fill="#00e6ff" stroke-linecap="round"/><path d="M298.64128,80.77442l-2.7566,-7.86588" fill="none" stroke-linecap="round"/><path d="M284.21319,77.58865l6.82889,-1.28785l-5.22367,7.50601l6.91377,-0.92436l-2.37658,4.92468" fill="none" stroke-linecap="round"/></g><g stroke="#545454" stroke-width="1"><path d="M300.35901,149.77814c0,1.51048 -1.31275,2.38679 -2.6981,2.38679c-3.83673,0 -22.02678,0 -28.22642,0c-1.30226,0 -2.07547,-0.69029 -2.07547,-1.5566c0,-6.89786 0,-37.90592 0,-43.37737c0,-1.59381 0.85577,-3.00942 2.28303,-3.00942c6.38801,0 24.22407,0 28.01887,0c1.38535,0 2.6981,1.30652 2.6981,2.80189c0,5.1041 0,34.17051 0,42.75472z" fill="#a1a1a0" stroke-linecap="butt"/><path d="M296.00053,152.16494l-3.73585,-48.56604" fill="none" stroke-linecap="round"/><path d="M281.05713,152.58004l-1.86792,-47.94339" fill="none" stroke-linecap="round"/><path d="M272.75524,152.78758l-0.4151,-48.56604" fill="none" stroke-linecap="round"/></g><g fill="#c1c1c1" stroke="#545454" stroke-width="1"><path d="M303.04409,65.38847c0.05275,0.14285 -0.90563,0.59081 -1.94926,0.97607c-2.89035,1.06699 -16.59361,6.12564 -21.26403,7.84975c-0.98105,0.36216 -1.58765,0.51191 -1.61789,0.42997c-0.24083,-0.65237 -1.32341,-3.58496 -1.51443,-4.10241c-0.05564,-0.15073 0.53961,-0.52262 1.61482,-0.91953c4.81235,-1.7765 18.24892,-6.7367 21.10769,-7.79203c1.04364,-0.38526 2.0782,-0.62677 2.13041,-0.48535c0.1782,0.48272 1.193,3.23168 1.4927,4.04353z" stroke-linecap="butt"/><path d="M285.26195,71.11984l-2.81961,-7.40456l10.38687,-3.14495l2.95216,5.54589" stroke-linecap="round"/><path d="M286.46091,69.81546l-1.07543,-5.24766l6.55505,-1.3857l1.96109,4.14511" stroke-linecap="round"/></g></g></g></g></svg>