<svg version="1.1" xmlns="http://www.w3.org/2000/svg" xmlns:xlink="http://www.w3.org/1999/xlink" width="94" height="75.5" viewBox="0,0,94,75.5"><g transform="translate(-204.23149,-139.25001)"><g data-paper-data="{&quot;isPaintingLayer&quot;:true}" fill-rule="nonzero" stroke-linejoin="miter" stroke-miterlimit="10" stroke-dasharray="" stroke-dashoffset="0" style="mix-blend-mode: normal"><path d="M287.56481,184.21876c4.87851,0 8.83333,3.88019 8.83333,8.66666c0,4.78647 -3.95482,8.66666 -8.83333,8.66666c-4.87851,0 -8.83333,-3.88019 -8.83333,-8.66666c0,-4.78647 3.95481,-8.66666 8.83333,-8.66666z" data-paper-data="{&quot;index&quot;:null}" fill="#989898" stroke="#847f7f" stroke-width="1" stroke-linecap="butt"/><path d="M289.39815,194.71875c-1.38071,0 -2.5,-1.11929 -2.5,-2.5c0,-1.38071 1.11929,-2.5 2.5,-2.5c1.38071,0 2.5,1.11929 2.5,2.5c0,1.38071 -1.11929,2.5 -2.5,2.5z" data-paper-data="{&quot;index&quot;:null}" fill="#000000" stroke="none" stroke-width="0.5" stroke-linecap="butt"/><path d="M288.89815,146.88542c4.87851,0 8.83333,3.88019 8.83333,8.66666c0,4.78647 -3.95482,8.66667 -8.83333,8.66667c-4.87851,0 -8.83333,-3.8802 -8.83333,-8.66667c0,-4.78647 3.95481,-8.66666 8.83333,-8.66666z" data-paper-data="{&quot;index&quot;:null}" fill="#989898" stroke="#847f7f" stroke-width="1" stroke-linecap="butt"/><path d="M290.73148,157.71875c-1.38071,0 -2.5,-1.11929 -2.5,-2.5c0,-1.38071 1.11929,-2.5 2.5,-2.5c1.38071,0 2.5,1.11929 2.5,2.5c0,1.38071 -1.11929,2.5 -2.5,2.5z" data-paper-data="{&quot;index&quot;:null}" fill="#000000" stroke="none" stroke-width="0.5" stroke-linecap="butt"/><path d="M223.73148,195.55209c0,4.78647 -3.95481,8.66667 -8.83333,8.66667c-4.87851,0 -8.83334,-3.8802 -8.83334,-8.66667c0,-4.78647 3.95482,-8.66666 8.83334,-8.66666c4.87851,0 8.83333,3.88019 8.83333,8.66666z" fill="#989898" stroke="#847f7f" stroke-width="1" stroke-linecap="butt"/><path d="M210.56482,194.88542c0,-1.38071 1.11929,-2.5 2.5,-2.5c1.38071,0 2.5,1.11929 2.5,2.5c0,1.38071 -1.11929,2.5 -2.5,2.5c-1.38071,0 -2.5,-1.11929 -2.5,-2.5z" fill="#000000" stroke="none" stroke-width="0.5" stroke-linecap="butt"/><path d="M222.39815,158.21875c0,4.78647 -3.95482,8.66667 -8.83333,8.66667c-4.87852,0 -8.83333,-3.8802 -8.83333,-8.66667c0,-4.78647 3.95482,-8.66667 8.83333,-8.66667c4.87852,0 8.83333,3.8802 8.83333,8.66667z" fill="#989898" stroke="#847f7f" stroke-width="1" stroke-linecap="butt"/><path d="M209.23149,157.88542c0,-1.38071 1.11929,-2.5 2.5,-2.5c1.38071,0 2.5,1.11929 2.5,2.5c0,1.38071 -1.11929,2.5 -2.5,2.5c-1.38071,0 -2.5,-1.11929 -2.5,-2.5z" fill="#000000" stroke="none" stroke-width="0.5" stroke-linecap="butt"/><path d="M213.41668,213.50002v-73h75v73z" fill="#9a5f06" stroke="#000000" stroke-width="2.5" stroke-linecap="butt"/><g stroke="#000000"><path d="M221.64191,203.71623v-57.21622h58.78378v57.21622z" fill="#eff50a" stroke-width="2.5" stroke-linecap="butt"/><path d="M278.66218,147.2838l-53.10135,55.06081" fill="none" stroke-width="3" stroke-linecap="round"/><path d="M279.44596,174.71623l-34.48649,29.78378" fill="none" stroke-width="3" stroke-linecap="round"/><path d="M222.22975,183.33785l32.33108,-35.85811" fill="none" stroke-width="3" stroke-linecap="round"/><path d="M279.44596,161.7838l-44.28379,41.14864" fill="none" stroke-width="3" stroke-linecap="round"/><path d="M268.47299,202.93245l11.75675,-10.97297" fill="none" stroke-width="3" stroke-linecap="round"/><path d="M221.25002,200.18921l46.63514,-52.12162" fill="none" stroke-width="3" stroke-linecap="round"/><path d="M240.25677,146.50001l-18.81081,12.93243" fill="none" stroke-width="3" stroke-linecap="round"/><path d="M222.42569,170.89528l24.2973,-23.12162" fill="none" stroke-width="3" stroke-linecap="round"/></g></g></g></svg>