<svg version="1.1" xmlns="http://www.w3.org/2000/svg" xmlns:xlink="http://www.w3.org/1999/xlink" width="102.3528" height="33.86558" viewBox="0,0,102.3528,33.86558"><defs><linearGradient x1="258.42127" y1="285.97337" x2="258.42127" y2="299.15241" gradientUnits="userSpaceOnUse" id="color-1"><stop offset="0" stop-color="#b1cf16"/><stop offset="1" stop-color="#e9f366"/></linearGradient><radialGradient cx="257.71597" cy="289.95559" r="0.50343" gradientUnits="userSpaceOnUse" id="color-2"><stop offset="0" stop-color="#020702"/><stop offset="1" stop-color="#050a02"/></radialGradient><radialGradient cx="260.52925" cy="290.20237" r="0.39485" gradientUnits="userSpaceOnUse" id="color-3"><stop offset="0" stop-color="#020702"/><stop offset="1" stop-color="#050a02"/></radialGradient><radialGradient cx="211.74102" cy="296.74307" r="3.70904" gradientUnits="userSpaceOnUse" id="color-4"><stop offset="0" stop-color="#625f63"/><stop offset="1" stop-color="#322935"/></radialGradient><linearGradient x1="211.70042" y1="285.99436" x2="211.70042" y2="293.96263" gradientUnits="userSpaceOnUse" id="color-5"><stop offset="0" stop-color="#7b7879"/><stop offset="1" stop-color="#151316"/></linearGradient><radialGradient cx="211.74102" cy="296.74307" r="3.70904" gradientUnits="userSpaceOnUse" id="color-6"><stop offset="0" stop-color="#625f63"/><stop offset="1" stop-color="#322935"/></radialGradient><linearGradient x1="214.26005" y1="292.95094" x2="215.44549" y2="292.21416" gradientUnits="userSpaceOnUse" id="color-7"><stop offset="0" stop-color="#a83336"/><stop offset="1" stop-color="#271216"/></linearGradient><linearGradient x1="210.38574" y1="293.26281" x2="209.2003" y2="292.52603" gradientUnits="userSpaceOnUse" id="color-8"><stop offset="0" stop-color="#a83336"/><stop offset="1" stop-color="#271216"/></linearGradient></defs><g transform="translate(-184.38353,-266.463)"><g data-paper-data="{&quot;isPaintingLayer&quot;:true}" fill-rule="nonzero" stroke-linejoin="miter" stroke-miterlimit="10" stroke-dasharray="" stroke-dashoffset="0" style="mix-blend-mode: normal"><path d="M185.38354,299.32858v-31.86558h100.3528v31.86558z" fill="#a88202" stroke="#000000" stroke-width="2" stroke-linecap="butt"/><path d="M231.70662,279.86269c-0.48754,1.78476 -2.45917,2.80097 -4.40376,2.26977c-1.94459,-0.5312 -3.12576,-2.40866 -2.63822,-4.19342c0.21567,-0.78951 -0.37935,-3.96614 0.54282,-6.22483c0.92217,-2.25869 2.63235,-3.83124 3.42754,-3.49985c0.84752,0.3532 -0.25116,4.4439 -0.25116,4.4439c0,0 4.87654,-3.30767 5.04174,-3.26254c0.60617,0.16559 -1.12587,3.00373 -1.19477,4.69318c-0.02576,0.63155 -0.24543,4.75335 -0.52419,5.7738z" fill="#03ca1e" stroke="#0f681c" stroke-width="0.5" stroke-linecap="butt"/><g data-paper-data="{&quot;index&quot;:null}" stroke="none" stroke-width="0" stroke-linecap="butt"><path d="M203.08517,292.97551v1.51925h-4.20958v-1.51925z" fill="#101010"/><path d="M201.53426,296.93188v1.58255h-4.62104v-1.58255z" fill="#101010"/><path d="M195.82127,298.95752c-2.21563,0 -4.01176,-1.84218 -4.01176,-4.11462c0,-2.27245 1.79613,-4.11462 4.01176,-4.11462c2.21563,0 4.01176,1.84218 4.01176,4.11462c0,2.27245 -1.79612,4.11462 -4.01176,4.11462z" fill="#101010"/><path d="M201.70905,296.46986c0.61883,-0.03692 1.15561,0.52165 1.19891,1.24759c0.04331,0.72594 -0.42325,1.34436 -1.04209,1.38128c-0.61883,0.03692 -1.15561,-0.52165 -1.19891,-1.24759c-0.04331,-0.72594 0.42325,-1.34436 1.04209,-1.38128z" fill="#101010"/><path d="M202.65971,294.81125c-0.65652,0 -1.18874,-0.50306 -1.18874,-1.12361c0,-0.62055 0.53222,-1.12361 1.18874,-1.12361c0.65652,0 1.18875,0.50306 1.18875,1.12361c0,0.62055 -0.53222,1.12361 -1.18875,1.12361z" fill="#101010"/><path d="M190.70964,297.53324c-0.12661,0 -0.1266,-0.1266 -0.1266,-0.1266l0.01336,-0.08827c0.3293,-0.60362 1.56966,-0.48015 2.17056,-0.48145c0,0 0.1266,0 0.1266,0.1266c0,0.1266 -0.1266,0.1266 -0.1266,0.1266c-0.46276,-0.00111 -1.04119,-0.02854 -1.49531,0.06102c-0.15693,0.03095 -0.38725,0.13484 -0.44877,0.28046l0.01336,-0.02497c0,0 0,0.1266 -0.12661,0.1266z" fill="#101010"/><path d="M190.48809,296.23555c-0.12661,0 -0.1266,-0.1266 -0.1266,-0.1266l0.03708,-0.15283c0.32336,-0.30344 1.09401,-0.3056 1.50699,-0.22453c0,0 0.12414,0.02483 0.09931,0.14898c-0.02483,0.12414 -0.14897,0.09931 -0.14897,0.09931c-0.29664,-0.06061 -1.05929,-0.08954 -1.2783,0.15528l0.03709,-0.02622c0,0 0,0.1266 -0.12661,0.1266z" fill="#101010"/><path d="M190.36816,295.01944c-0.11324,-0.05662 -0.05662,-0.16985 -0.05662,-0.16985l0.09732,-0.16874c0.68888,-0.21751 1.5108,-0.08266 2.21553,0.00478c0,0 0.12563,0.01571 0.10993,0.14133c-0.0157,0.12563 -0.14133,0.10992 -0.14133,0.10992c-0.67668,-0.08526 -1.34229,-0.11883 -2.02569,-0.05852l-0.02928,0.08446c0,0 -0.05662,0.11324 -0.16986,0.05662z" fill="#101010"/><path d="M197.34052,298.03963c-0.58559,0 -1.0603,-0.52431 -1.0603,-1.17108c0,-0.64677 0.47472,-1.17109 1.0603,-1.17109c0.58559,0 1.06031,0.52432 1.06031,1.17109c0,0.64677 -0.47472,1.17108 -1.06031,1.17108z" fill="#ffffff"/><path d="M197.51885,294.96952c-0.50928,0 -0.92213,-0.43221 -0.92213,-0.96535c0,-0.53315 0.41285,-0.96535 0.92213,-0.96535c0.50928,0 0.92212,0.43221 0.92212,0.96535c0,0.53315 -0.41285,0.96535 -0.92212,0.96535z" fill="#ffffff"/><path d="M197.59372,297.43827c-0.2185,0 -0.39564,-0.14171 -0.39564,-0.31651c0,-0.1748 0.17713,-0.31651 0.39564,-0.31651c0.2185,0 0.39563,0.14171 0.39563,0.31651c0,0.1748 -0.17713,0.31651 -0.39563,0.31651z" fill="#101010"/><path d="M198.021,294.52639c-0.12237,0 -0.22155,-0.12045 -0.22155,-0.26904c0,-0.14859 0.09919,-0.26903 0.22155,-0.26903c0.12237,0 0.22156,0.12044 0.22156,0.26903c0,0.14859 -0.09919,0.26904 -0.22156,0.26904z" fill="#101010"/><path d="M198.46413,295.63419c0.0874,0 0.15825,0.07085 0.15825,0.15825c0,0.0874 -0.07085,0.15825 -0.15825,0.15825c-0.0874,0 -0.15826,-0.07085 -0.15826,-0.15825c0,-0.0874 0.07086,-0.15825 0.15826,-0.15825z" fill="#101010"/><path d="M198.59073,294.87456c0.0874,0 0.15825,0.07085 0.15825,0.15825c0,0.0874 -0.07085,0.15825 -0.15825,0.15825c-0.0874,0 -0.15825,-0.07085 -0.15825,-0.15825c0,-0.0874 0.07085,-0.15825 0.15825,-0.15825z" fill="#101010"/></g><g fill="#101010" stroke="none" stroke-width="0" stroke-linecap="butt"><path d="M197.80415,296.06753v-1.51925h4.20958v1.51925z"/><path d="M195.8418,292.11114v-1.58254h4.62104v1.58254z"/><path d="M198.7616,294.20009c0,2.27245 -1.79613,4.11463 -4.01176,4.11463c-2.21563,0 -4.01176,-1.84218 -4.01176,-4.11463c0,-2.27245 1.79612,-4.11462 4.01176,-4.11462c2.21563,0 4.01176,1.84218 4.01176,4.11462z"/><path d="M200.63763,292.57316c-0.61883,-0.03692 -1.08539,-0.65534 -1.04208,-1.38128c0.04331,-0.72594 0.58008,-1.28451 1.19891,-1.24759c0.61883,0.03692 1.08539,0.65534 1.04208,1.38128c-0.04331,0.72594 -0.58008,1.28451 -1.19891,1.24759z"/><path d="M202.77702,295.35535c0,0.62055 -0.53222,1.12361 -1.18875,1.12361c-0.65652,0 -1.18875,-0.50306 -1.18875,-1.12361c0,-0.62055 0.53222,-1.12361 1.18875,-1.12361c0.65652,0 1.18875,0.50306 1.18875,1.12361z"/><path d="M189.63821,291.50978c0.12661,0 0.1266,0.1266 0.1266,0.1266l-0.01336,-0.02497c0.06152,0.14562 0.29184,0.24951 0.44877,0.28046c0.45411,0.08956 1.03254,0.06213 1.49531,0.06102c0,0 0.1266,0 0.1266,0.1266c0,0.1266 -0.1266,0.1266 -0.1266,0.1266c-0.6009,-0.0013 -1.84125,0.12218 -2.17055,-0.48144l-0.01337,-0.08827c0,0 0,-0.1266 0.12661,-0.1266z"/><path d="M189.41666,292.80746c0.12661,0 0.1266,0.1266 0.1266,0.1266l-0.03708,-0.02622c0.21901,0.24482 0.98165,0.21589 1.27829,0.15529c0,0 0.12414,-0.02483 0.14897,0.09931c0.02483,0.12414 -0.09932,0.14898 -0.09932,0.14898c-0.41298,0.08107 -1.18363,0.07891 -1.50699,-0.22453l-0.03708,-0.15283c0,0 -0.00001,-0.1266 0.1266,-0.1266z"/><path d="M189.29674,294.02358c0.11324,-0.05662 0.16986,0.05662 0.16986,0.05662l0.02928,0.08447c0.6834,0.06031 1.34901,0.02673 2.02569,-0.05852c0,0 0.12563,-0.0157 0.14133,0.10992c0.0157,0.12563 -0.10993,0.14133 -0.10993,0.14133c-0.70473,0.08744 -1.52666,0.22228 -2.21554,0.00478l-0.09732,-0.16874c0,0 -0.05661,-0.11323 0.05662,-0.16985z"/><path d="M197.32939,292.17445c0,0.64677 -0.47472,1.17109 -1.06031,1.17109c-0.58559,0 -1.0603,-0.52432 -1.0603,-1.17109c0,-0.64677 0.47472,-1.17109 1.0603,-1.17109c0.58559,0 1.06031,0.52432 1.06031,1.17109z"/><path d="M197.36955,295.03884c0,0.53315 -0.41285,0.96536 -0.92212,0.96536c-0.50928,0 -0.92213,-0.43221 -0.92213,-0.96536c0,-0.53315 0.41285,-0.96535 0.92213,-0.96535c0.50928,0 0.92212,0.43221 0.92212,0.96535z"/><path d="M196.91793,291.92125c0,0.1748 -0.17713,0.31651 -0.39563,0.31651c-0.2185,0 -0.39564,-0.14171 -0.39564,-0.31651c0,-0.1748 0.17714,-0.31651 0.39564,-0.31651c0.2185,0 0.39563,0.14171 0.39563,0.31651z"/><path d="M197.17114,294.78565c0,0.14859 -0.09919,0.26903 -0.22156,0.26903c-0.12237,0 -0.22156,-0.12044 -0.22156,-0.26903c0,-0.14859 0.09919,-0.26903 0.22156,-0.26903c0.12237,0 0.22156,0.12045 0.22156,0.26903z"/><path d="M197.23444,293.25059c0,-0.0874 0.07085,-0.15825 0.15825,-0.15825c0.0874,0 0.15825,0.07085 0.15825,0.15825c0,0.0874 -0.07085,0.15825 -0.15825,0.15825c-0.0874,0 -0.15825,-0.07085 -0.15825,-0.15825z"/><path d="M197.36105,294.01021c0,-0.0874 0.07085,-0.15825 0.15825,-0.15825c0.0874,0 0.15825,0.07085 0.15825,0.15825c0,0.0874 -0.07085,0.15825 -0.15825,0.15825c-0.0874,0 -0.15825,-0.07085 -0.15825,-0.15825z"/></g><g stroke="none" stroke-width="0" stroke-linecap="butt"><path d="M193.87559,296.71038v-1.51925h4.20958v1.51925z" fill="#101010"/><path d="M191.91323,292.75399v-1.58254h4.62104v1.58254z" fill="#101010"/><path d="M194.83303,294.84297c0,1.33586 0.37932,2.95161 -0.5824,3.70327c-0.67427,0.527 -2.51618,0.41136 -3.42935,0.41136c-2.21563,0 -4.01176,-1.84218 -4.01176,-4.11463c0,-2.27245 1.79613,-4.11462 4.01176,-4.11462c2.21563,0 4.01176,1.84218 4.01176,4.11462z" fill="#101010"/><path d="M196.70905,293.21603c-0.61883,-0.03692 -1.08539,-0.65534 -1.04209,-1.38128c0.04331,-0.72594 0.58008,-1.28451 1.19891,-1.24759c0.61883,0.03692 1.0854,0.65534 1.04209,1.38128c-0.04331,0.72594 -0.58008,1.28451 -1.19891,1.24759z" fill="#ffffff"/><path d="M198.84846,295.99823c0,0.62055 -0.53222,1.12361 -1.18875,1.12361c-0.65652,0 -1.18874,-0.50306 -1.18874,-1.12361c0,-0.62055 0.53222,-1.12361 1.18874,-1.12361c0.65652,0 1.18875,0.50306 1.18875,1.12361z" fill="#ffffff"/><path d="M185.70964,292.15263c0.12661,0 0.12661,0.1266 0.12661,0.1266l-0.01336,-0.02497c0.06152,0.14562 0.29184,0.24951 0.44877,0.28046c0.45411,0.08956 1.03254,0.06213 1.49531,0.06102c0,0 0.1266,0 0.1266,0.1266c0,0.1266 -0.1266,0.1266 -0.1266,0.1266c-0.6009,-0.0013 -1.84126,0.12217 -2.17056,-0.48145l-0.01336,-0.08827c0,0 0,-0.1266 0.1266,-0.1266z" fill="#101010"/><path d="M185.48809,293.45032c0.12661,0 0.12661,0.1266 0.12661,0.1266l-0.03709,-0.02622c0.21901,0.24482 0.98166,0.21589 1.2783,0.15529c0,0 0.12414,-0.02483 0.14897,0.09931c0.02483,0.12414 -0.09931,0.14898 -0.09931,0.14898c-0.41298,0.08107 -1.18363,0.07891 -1.50699,-0.22453l-0.03708,-0.15283c0,0 -0.00001,-0.1266 0.1266,-0.1266z" fill="#101010"/><path d="M185.36816,294.66641c0.11324,-0.05662 0.16986,0.05662 0.16986,0.05662l0.02928,0.08447c0.6834,0.06031 1.34901,0.02673 2.02569,-0.05852c0,0 0.12563,-0.0157 0.14133,0.10992c0.0157,0.12563 -0.10993,0.14133 -0.10993,0.14133c-0.70473,0.08744 -1.52665,0.22228 -2.21553,0.00478l-0.09732,-0.16874c0,0 -0.05662,-0.11324 0.05662,-0.16986z" fill="#101010"/><path d="M193.40083,292.8173c0,0.64677 -0.47472,1.17109 -1.06031,1.17109c-0.58559,0 -1.0603,-0.52432 -1.0603,-1.17109c0,-0.64677 0.47472,-1.17109 1.0603,-1.17109c0.58559,0 1.06031,0.52432 1.06031,1.17109z" fill="#ffffff"/><path d="M193.44097,295.68172c0,0.53315 -0.41285,0.96536 -0.92212,0.96536c-0.50928,0 -0.92213,-0.43221 -0.92213,-0.96536c0,-0.53315 0.41285,-0.96535 0.92213,-0.96535c0.50928,0 0.92212,0.43221 0.92212,0.96535z" fill="#ffffff"/><path d="M192.98936,292.56408c0,0.1748 -0.17713,0.31651 -0.39563,0.31651c-0.2185,0 -0.39564,-0.14171 -0.39564,-0.31651c0,-0.1748 0.17713,-0.31651 0.39564,-0.31651c0.2185,0 0.39563,0.14171 0.39563,0.31651z" fill="#101010"/><path d="M193.24257,295.4285c0,0.14859 -0.09919,0.26903 -0.22156,0.26903c-0.12237,0 -0.22155,-0.12044 -0.22155,-0.26903c0,-0.14859 0.09919,-0.26903 0.22155,-0.26903c0.12237,0 0.22156,0.12045 0.22156,0.26903z" fill="#101010"/><path d="M193.30587,293.89342c0,-0.0874 0.07086,-0.15825 0.15826,-0.15825c0.0874,0 0.15825,0.07085 0.15825,0.15825c0,0.0874 -0.07085,0.15825 -0.15825,0.15825c-0.0874,0 -0.15826,-0.07085 -0.15826,-0.15825z" fill="#101010"/><path d="M193.43248,294.65306c0,-0.0874 0.07085,-0.15825 0.15825,-0.15825c0.0874,0 0.15825,0.07085 0.15825,0.15825c0,0.0874 -0.07085,0.15825 -0.15825,0.15825c-0.0874,0 -0.15825,-0.07085 -0.15825,-0.15825z" fill="#101010"/></g><path d="M196.89414,291.78132c0,-0.27614 0.22386,-0.5 0.5,-0.5c0.27614,0 0.5,0.22386 0.5,0.5c0,0.27614 -0.22386,0.5 -0.5,0.5c-0.27614,0 -0.5,-0.22386 -0.5,-0.5z" fill="#040404" stroke="none" stroke-width="0.5" stroke-linecap="butt"/><path d="M197.96557,295.99562c0,-0.27614 0.22386,-0.5 0.5,-0.5c0.27614,0 0.5,0.22386 0.5,0.5c0,0.27614 -0.22386,0.5 -0.5,0.5c-0.27614,0 -0.5,-0.22386 -0.5,-0.5z" fill="#040404" stroke="none" stroke-width="0.5" stroke-linecap="butt"/><path d="M227.52974,279.72567l-2.35,5.45l-2.6,-0.2l3.4,-5.8" fill="#03ca1e" stroke="#0f681c" stroke-width="0.5" stroke-linecap="round"/><path d="M231.07974,279.02565l3.2,6.55l-2.7,0.1l-2.05,-5.65" fill="#03ca1e" stroke="#0f681c" stroke-width="0.5" stroke-linecap="round"/><path d="M228.19943,289.5929c-0.54544,2.67571 -3.44916,4.34302 -6.48565,3.72404c-3.03648,-0.61898 -5.05588,-3.28986 -4.51044,-5.96558c0.4669,-2.29042 2.66182,-3.84195 5.18883,-3.85303c0.42509,-0.00187 0.94265,1.33304 1.42909,1.48269c0.48644,0.14965 1.51506,-0.83458 2.17917,-0.37261c1.66736,1.15986 2.58906,3.07094 2.19899,4.98449z" fill="#ff0000" stroke="#920707" stroke-width="0.5" stroke-linecap="butt"/><path d="M224.30781,288.09022c0.58338,-0.29648 1.30783,-0.04191 1.6181,0.56861c0.31027,0.61052 0.08887,1.34578 -0.49451,1.64226c-0.58338,0.29648 -1.30783,0.04191 -1.6181,-0.56861c-0.31027,-0.61052 -0.08888,-1.34578 0.49451,-1.64226z" data-paper-data="{&quot;index&quot;:null}" fill="#f9ffab" stroke="#000000" stroke-width="0.125" stroke-linecap="butt"/><path d="M237.84415,290.01309c0,2.73074 -2.26345,4.94444 -5.05555,4.94444c-2.7921,0 -5.05555,-2.2137 -5.05555,-4.94444c0,-2.13475 1.38325,-3.95351 3.32097,-4.64573c0.54099,-0.19326 1.09999,0.36039 1.8457,0.36795c0.74571,0.00757 1.1534,-0.54801 1.72162,-0.33175c1.88611,0.71783 3.22283,2.51101 3.22283,4.60953z" fill="#ff0000" stroke="#920707" stroke-width="0.5" stroke-linecap="butt"/><path d="M220.8696,287.43566c0.65439,0 1.18489,0.55516 1.18489,1.24c0,0.68484 -0.5305,1.24 -1.18489,1.24c-0.65439,0 -1.18489,-0.55516 -1.18489,-1.24c0,-0.68484 0.53049,-1.24 1.18489,-1.24z" data-paper-data="{&quot;index&quot;:null}" fill="#f9ffab" stroke="#000000" stroke-width="0.125" stroke-linecap="butt"/><path d="M229.53331,289.57883c0.31027,-0.61052 1.03472,-0.86509 1.6181,-0.56861c0.58338,0.29648 0.80478,1.03174 0.49451,1.64226c-0.31027,0.61052 -1.03472,0.86509 -1.6181,0.56861c-0.58338,-0.29648 -0.80478,-1.03175 -0.49451,-1.64226z" data-paper-data="{&quot;index&quot;:null}" fill="#f9ffab" stroke="#000000" stroke-width="0.125" stroke-linecap="butt"/><path d="M224.97472,274.25566c0,0 -0.07205,-0.72782 0.18625,-1.53938c0.28077,-0.88218 0.89375,-1.87055 0.89375,-2.32062c0,-0.39384 1,-1.42 1,-1.42l1.3,-0.6c0,0 -0.69682,0.41035 -0.7446,0.85629c-0.05088,0.47487 -1.58354,1.6721 -1.62406,2.68934c-0.04228,1.06164 -0.19134,4.37437 -0.19134,4.37437z" fill="#badbbf" stroke="none" stroke-width="0" stroke-linecap="butt"/><path d="M228.16472,273.19566l4.12,-2.8l1.08,-0.76c0,0 -0.40428,0.60443 -0.85206,1.02451c-0.3178,0.29814 -0.9054,0.87852 -1.51606,1.406c-0.61067,0.52749 -1.51188,1.20948 -1.51188,1.20948c0,0 -0.52775,0.4394 -0.72205,0.81844c-0.1943,0.37905 -0.95502,2.45325 -0.95502,2.45325z" fill="#badbbf" stroke="#000000" stroke-width="0" stroke-linecap="butt"/><path d="M233.23391,289.07568c0.48548,-0.48302 1.2532,-0.49851 1.71474,-0.03461c0.46155,0.4639 0.44215,1.23153 -0.04333,1.71455c-0.48548,0.48302 -1.2532,0.49851 -1.71475,0.03461c-0.46155,-0.4639 -0.44214,-1.23153 0.04334,-1.71455z" data-paper-data="{&quot;index&quot;:null}" fill="#f9ffab" stroke="#000000" stroke-width="0.125" stroke-linecap="butt"/><path d="M221.70695,289.19433c0,0.26436 -0.21431,0.47868 -0.47868,0.47868c-0.26436,0 -0.47868,-0.21431 -0.47868,-0.47868c0,-0.26436 0.21431,-0.47868 0.47868,-0.47868c0.26436,0 0.47868,0.21431 0.47868,0.47868z" fill="#03ca1e" stroke="none" stroke-width="0" stroke-linecap="butt"/><path d="M225.15612,289.41137c0,0.25167 -0.20402,0.45571 -0.45569,0.45571c-0.25168,0 -0.45569,-0.20403 -0.45569,-0.45571c0,-0.25167 0.20402,-0.45569 0.45569,-0.45569c0.25168,0 0.45569,0.20402 0.45569,0.45569z" fill="#03ca1e" stroke="none" stroke-width="0" stroke-linecap="butt"/><path d="M231.44472,290.33212c0,0.29628 -0.24019,0.53647 -0.53647,0.53647c-0.29628,0 -0.53646,-0.24019 -0.53646,-0.53647c0,-0.29628 0.24018,-0.53646 0.53646,-0.53646c0.29628,0 0.53647,0.24018 0.53647,0.53646z" fill="#03ca1e" stroke="none" stroke-width="0" stroke-linecap="butt"/><path d="M234.06622,290.20169c0,0.2326 -0.21076,0.42116 -0.47075,0.42116c-0.25999,0 -0.47075,-0.18856 -0.47075,-0.42116c0,-0.2326 0.21076,-0.42116 0.47075,-0.42116c0.25999,0 0.47075,0.18856 0.47075,0.42116z" fill="#03ca1e" stroke="none" stroke-width="0" stroke-linecap="butt"/><path d="M221.20473,286.83565l1.28,1.76l-0.96,0.36c0,0 -0.16386,0.23608 -0.87356,-0.48507c-0.7097,-0.72115 -1.32644,-3.07493 -1.32644,-3.07493" fill="#f84141" stroke="#3b1010" stroke-width="0.25" stroke-linecap="round"/><path d="M226.72472,286.59565c0,0 -0.67961,0.97251 -1.20935,1.5108c-0.52974,0.53829 -1.27065,1.00921 -1.27065,1.00921l-0.96,-0.36l1.64,-1.8" data-paper-data="{&quot;index&quot;:null}" fill="#f84141" stroke="#3b1010" stroke-width="0.25" stroke-linecap="round"/><path d="M221.29985,289.24107c0,0.05971 -0.0605,0.10811 -0.13513,0.10811c-0.07464,0 -0.13513,-0.04841 -0.13513,-0.10811c0,-0.05971 0.0605,-0.10811 0.13513,-0.10811c0.07464,0 0.13513,0.0484 0.13513,0.10811z" fill="#fac1c1" stroke="#3b1010" stroke-width="0" stroke-linecap="butt"/><path d="M224.73229,289.34918c0,0.05971 -0.05445,0.1081 -0.12162,0.1081c-0.06717,0 -0.12162,-0.0484 -0.12162,-0.1081c0,-0.05971 0.05445,-0.10811 0.12162,-0.10811c0.06717,0 0.12162,0.04841 0.12162,0.10811z" fill="#fac1c1" stroke="none" stroke-width="0" stroke-linecap="butt"/><path d="M231.16472,290.40322c0,0.08956 -0.0847,0.16216 -0.18919,0.16216c-0.10449,0 -0.18919,-0.0726 -0.18919,-0.16216c0,-0.08956 0.0847,-0.16216 0.18919,-0.16216c0.10449,0 0.18919,0.0726 0.18919,0.16216z" fill="#fac1c1" stroke="none" stroke-width="0" stroke-linecap="butt"/><path d="M233.6512,290.20052c0,0.08209 -0.0726,0.14865 -0.16216,0.14865c-0.08956,0 -0.16217,-0.06656 -0.16217,-0.14865c0,-0.08209 0.07261,-0.14865 0.16217,-0.14865c0.08956,0 0.16216,0.06655 0.16216,0.14865z" fill="#fac1c1" stroke="none" stroke-width="0" stroke-linecap="butt"/><path d="M230.72472,288.03565l1.52,1.92l-0.96,0.36l-2.48,-2.52" data-paper-data="{&quot;index&quot;:null}" fill="#f84141" stroke="#3b1010" stroke-width="0.25" stroke-linecap="round"/><path d="M236.27757,288.63631l-3.25992,1.36885l-0.74695,-0.70233l2.21661,-1.15457" data-paper-data="{&quot;index&quot;:null}" fill="#f84141" stroke="#3b1010" stroke-width="0.25" stroke-linecap="round"/><path d="M224.77704,291.60585c0,0.46732 -0.75768,0.84616 -1.69231,0.84616c-0.71385,0 -1.84235,-0.149 -1.84235,-0.149l-0.0038,-0.69716c0,0 0.91152,-0.84615 1.84616,-0.84615c0.93463,0 1.69231,0.37883 1.69231,0.84615z" fill="#272626" stroke="#000000" stroke-width="0.125" stroke-linecap="butt"/><path d="M234.54626,292.52893l0.05089,0.94833c0,0 -1.1379,-0.10217 -1.74321,-0.10217c-0.93463,0 -1.69231,-0.37884 -1.69231,-0.84616c0,-0.46732 0.75767,-0.84616 1.69231,-0.84616c0.93463,0 1.69231,0.84616 1.69231,0.84616z" fill="#000000" stroke="#000000" stroke-width="0.125" stroke-linecap="butt"/><path d="M222.62319,290.87505v0.73077l-0.76923,0.11539l-0.19231,-0.46154" fill="#e8e3e3" stroke="#000000" stroke-width="0.125" stroke-linecap="round"/><path d="M221.46934,292.41353l-0.11539,-0.84616l-0.03846,0.80769l0.11539,-0.88461z" fill="none" stroke="#000000" stroke-width="0.125" stroke-linecap="round"/><path d="M221.93089,292.22123l0.5,-0.46154l0.73077,0.07692v0.69231" fill="#e8e3e3" stroke="#000000" stroke-width="0.125" stroke-linecap="round"/><path d="M224.12318,290.91353l-0.11538,0.65385l-0.34615,0.15385l-0.65385,-0.92308" fill="#e8e3e3" stroke="#000000" stroke-width="0.125" stroke-linecap="round"/><path d="M223.54626,292.22121l0.30769,-0.46154l0.34615,-0.07692l0.19231,0.34615" fill="#e8e3e3" stroke="#000000" stroke-width="0.125" stroke-linecap="round"/><path d="M231.75979,293.04902l0.5,-0.46154l0.73077,0.07692v0.69231" fill="#e8e3e3" stroke="#000000" stroke-width="0.125" stroke-linecap="round"/><path d="M232.70125,293.12141l0.5,-0.46154l0.73077,0.07692v0.69231" fill="#e8e3e3" stroke="#000000" stroke-width="0.125" stroke-linecap="round"/><path d="M232.50389,291.72067v0.69231l-0.73077,0.07692l-0.5,-0.46154" data-paper-data="{&quot;index&quot;:null}" fill="#e8e3e3" stroke="#000000" stroke-width="0.125" stroke-linecap="round"/><g stroke-width="0.5" stroke-linecap="butt"><g stroke="#004700"><path d="M257.72625,288.12242c0,0 0.35356,-1.63445 0.55826,-2.32604c0.18328,-0.61924 0.86071,-1.94827 0.86071,-1.94827c0,0 1.06085,0.70518 1.23212,0.75587c0.03597,0.01065 0.34728,0.22632 0.34728,0.22632c0,0 -0.60324,0.87842 -0.78065,1.47783c-0.20804,0.70288 -0.67236,2.27168 -0.67236,2.27168z" fill="#399435"/><path d="M260.88563,284.79918c-0.0728,0.24598 -0.34502,0.1132 -0.76293,-0.03111c-0.07038,-0.0243 -0.06146,-0.33081 -0.13985,-0.35401c-0.10168,-0.03009 -0.27872,0.20285 -0.36317,0.14131c-0.36725,-0.26765 -0.56126,-0.77392 -0.4921,-1.00759c0.08506,-0.2874 0.57454,-0.18368 1.11839,-0.02272c0.54385,0.16097 0.72472,0.98671 0.63966,1.27411z" fill="#91e665"/></g><path d="M253.05481,296.76617c-0.35507,-1.09294 -0.21529,-2.14655 -0.03903,-3.2919c0.19201,-1.24771 0.39327,-2.33399 1.0171,-3.45548c0.34341,-0.51566 0.69801,-1.05013 1.00142,-1.58983c0.47698,-0.84846 0.80157,-1.84941 1.77081,-2.2597c0.56173,-0.23779 1.32447,-0.30853 1.813,0.07194c0.13963,0.10874 0.33059,0.16955 0.45821,0.2868c0.30199,-0.20138 0.35885,-0.27726 0.79986,-0.00228c0.10661,0.06648 0.1995,0.16368 0.25962,0.27465c0.07949,-0.07448 0.18782,-0.12048 0.28415,-0.17337c0.34247,-0.18805 0.43733,-0.21986 0.82197,-0.18417c0.91289,0.0847 1.10962,0.98381 1.29782,1.73603c0.11561,0.50099 0.31051,0.99853 0.38977,1.50511c0.01898,0.12133 0.02149,0.50741 0.07495,0.65578c0.16364,0.45416 0.40388,0.85614 0.51351,1.33776c0.21657,0.95142 0.25451,1.97719 0.3448,2.94731c0.06745,0.72475 0.21897,1.47486 0.10335,2.19589c-0.00998,0.07488 -0.11782,0.89583 -0.1302,0.9376c-0.06335,0.21372 -0.25553,0.37298 -0.32353,0.58527c-0.03989,0.12453 0.01821,0.28103 -0.05676,0.38817c-0.31931,0.45632 -1.15211,0.48929 -1.64023,0.34361c-0.31785,-0.09486 -0.46111,-0.23673 -0.67402,-0.47383c-0.07988,-0.08895 -0.16315,-0.17793 -0.22063,-0.28275c-0.02037,-0.03715 0.03823,-0.12879 -0.0041,-0.12704c-0.05265,0.00218 -0.04192,0.10657 -0.08868,0.13088c-0.23758,0.12352 -0.50091,0.19526 -0.76227,0.25349c-0.71421,0.15912 -1.27655,-0.01068 -1.83008,-0.45258c-0.06305,-0.11338 -0.13126,-0.22405 -0.18916,-0.34014c-0.01901,-0.03811 0.00166,-0.12325 -0.04087,-0.12105c-0.05727,0.00297 -0.06233,0.10371 -0.11377,0.12907c-0.40022,0.19732 -0.88535,0.30772 -1.32936,0.34646c-1.18799,0.10367 -3.02897,0.25288 -3.66692,-0.96212c0,0 -0.13244,-0.26487 0.13244,-0.39731c0.0091,-0.00455 0.01805,-0.00863 0.02684,-0.01227z" fill="url(#color-1)" stroke="#334a0d"/><path d="M260.68366,289.74584c0.26275,0 0.61802,-0.53652 0.81029,-0.39027c0.26599,0.20232 0.43702,0.51778 0.43702,0.87219c0,0.61059 -0.50767,1.10558 -1.13392,1.10558c-0.62625,0 -1.07723,-0.23985 -1.07723,-0.85044c0,-0.61059 0.33759,-0.73705 0.96383,-0.73705z" data-paper-data="{&quot;index&quot;:null}" fill="#f6f9df" stroke="#354c0d"/><path d="M258.82154,290.10666c0,0.61059 -0.45098,0.85044 -1.07723,0.85044c-0.62625,0 -1.13392,-0.49498 -1.13392,-1.10558c0,-0.35441 0.17104,-0.66987 0.43702,-0.87219c0.19227,-0.14625 0.54754,0.39028 0.81029,0.39028c0.62625,0 0.96383,0.12646 0.96383,0.73705z" fill="#f6f9df" stroke="#354c0d"/><path d="M261.80758,289.91826c-0.11845,0 -0.11845,-0.11845 -0.11845,-0.11845l0.00354,-0.00088c-0.06011,-0.30035 -0.27029,-0.14793 -0.50697,-0.14718c-0.24451,-0.00849 -0.50402,0.25914 -0.7851,0.29525c-0.73503,0.09442 -1.36894,-0.04058 -2.02597,-0.36909c-0.20614,-0.12369 -0.47601,-0.03599 -0.75507,-0.13347c-0.47991,-0.16764 -0.98697,-0.41917 -1.24378,0.11222c0,0 -0.05297,0.10595 -0.15892,0.05297c-0.10595,-0.05297 -0.05297,-0.15892 -0.05297,-0.15892c0.49994,-0.97513 1.62064,-0.50294 2.32475,-0.08048c0.61509,0.30754 1.19561,0.42488 1.88303,0.34163c0.3136,-0.03798 0.51504,-0.29052 0.81404,-0.29702c0.35685,0.00133 0.61344,-0.11409 0.7368,0.32663l0.00354,0.05834c0,0 0,0.11845 -0.11845,0.11845z" fill="#334a0d" stroke="none"/><path d="M258.00221,289.95559c0,0.27804 -0.12817,0.50343 -0.28627,0.50343c-0.1581,0 -0.28627,-0.22539 -0.28627,-0.50343c0,-0.27804 0.12817,-0.50343 0.28627,-0.50343c0.1581,0 0.28627,0.22539 0.28627,0.50343z" fill="url(#color-2)" stroke="none"/><path d="M260.8254,290.20237c0,0.21807 -0.13258,0.39485 -0.29614,0.39485c-0.16355,0 -0.29614,-0.17678 -0.29614,-0.39485c0,-0.21807 0.13258,-0.39485 0.29614,-0.39485c0.16355,0 0.29614,0.17678 0.29614,0.39485z" fill="url(#color-3)" stroke="none"/><path d="M261.9573,296.0134c-0.10595,0.05297 -0.15892,-0.05297 -0.15892,-0.05297l-0.06091,-0.12195c-0.08867,-0.21606 -0.23171,-0.34676 -0.33149,-0.55799c-0.21994,-0.10997 -0.28246,-0.41245 -0.42693,-0.60677c-0.5198,-0.6992 -1.41987,-1.07612 -2.273,-1.07612c-0.69014,0 -1.38116,0.00386 -2.05342,0.11683c-0.15403,0.02588 -0.37605,-0.00344 -0.51755,0.05555c-0.22453,0.09361 -0.4913,0.39142 -0.66199,0.56288c0,0 -0.08376,0.08376 -0.16752,0c-0.08376,-0.08376 0,-0.16752 0,-0.16752c0.203,-0.20217 0.49308,-0.50928 0.75946,-0.62167c0.15323,-0.06465 0.38442,-0.03524 0.54854,-0.0629c0.68548,-0.11554 1.38923,-0.12008 2.09249,-0.12008c0.93973,0 1.69169,0.3935 2.3344,1.04156c0.203,0.20469 0.29506,0.59174 0.53305,0.71073c0.12116,0.23134 0.27627,0.38674 0.37923,0.62656l0.05755,0.11495c0,0 0.05297,0.10595 -0.05297,0.15892z" fill="#334a0d" stroke="none"/><path d="M255.76921,294.98434c-0.08376,0.08376 -0.16752,0 -0.16752,0l-0.08003,-0.09278c-0.35622,0.04393 -0.79814,0.17239 -0.89914,-0.31913c-0.00408,-0.01988 -0.00317,-0.34836 -0.00317,-0.38258c0,0 0,-0.11845 0.11845,-0.11845c0.11845,0 0.11845,0.11845 0.11845,0.11845c0,0.10939 -0.02381,0.22073 -0.00317,0.32815c0.0656,0.3414 0.50344,0.1406 0.75923,0.15469l0.15688,0.14413c0,0 0.08376,0.08376 0,0.16752z" fill="#334a0d" stroke="none"/><path d="M262.84569,296.453c0.10595,0.05297 0.05297,0.15892 0.05297,0.15892l-0.1029,0.16624c-0.20066,0.01964 -0.39458,0.07415 -0.59231,0.07688c-0.001,0.00002 -0.00201,0.00004 -0.00301,0.00004c-0.01497,0 -0.02929,-0.00278 -0.04248,-0.00785c-0.03398,-0.01155 -0.07597,-0.04008 -0.07597,-0.11061c0,-0.07053 0.04199,-0.09906 0.07597,-0.11061c0.01319,-0.00507 0.02751,-0.00785 0.04248,-0.00785c0.00097,0 0.00193,0.00001 0.0029,0.00003c0.16698,0.00144 0.29857,-0.09488 0.46787,-0.04157l0.01555,-0.07067c0,0 0.05297,-0.10595 0.15892,-0.05297z" fill="#334a0d" stroke="none"/></g><g stroke-width="0.5"><path d="M208.03199,293.42553h7.41808c0,0 -0.45333,1.78594 -0.45333,2.8436c0,0.79837 0.33955,1.70351 0.54588,2.17983c0.09005,0.20788 0.03611,0.45039 -0.16666,0.61199c-0.39707,0.31646 -1.11687,0.80663 -1.9007,0.93727c-0.80992,0.13499 -3.88618,0.41873 -5.19489,-1.51777c-0.87165,-1.28978 -0.24837,-5.05491 -0.24837,-5.05491z" fill="url(#color-4)" stroke="#000000" stroke-linecap="butt"/><g stroke-linecap="butt"><path d="M208.37601,293.72121c-0.01914,0.07022 -0.09894,0.07022 -0.09894,0.07022c-0.20352,0 -0.42872,0.02477 -0.63076,-0.00077c-0.15703,-0.01985 -0.29694,-0.10474 -0.45333,-0.12363c-0.20819,-0.02515 -0.41459,-0.03668 -0.60964,-0.13334c-0.12581,-0.06235 -0.28011,-0.13138 -0.39096,-0.21893c-0.06098,-0.04817 -0.10412,-0.11636 -0.16485,-0.16485c-0.07477,-0.05969 -0.15949,-0.10573 -0.2391,-0.1588c-0.14756,-0.09905 -0.26143,-0.21739 -0.38661,-0.34257c-0.01848,-0.01848 -0.17221,-0.17113 -0.17964,-0.18353c-0.07397,-0.12359 -0.08838,-0.29741 -0.13373,-0.4337c-0.05853,-0.17588 -0.10381,-0.36538 -0.12676,-0.54955c-0.04595,-0.36881 0.03539,-0.75186 -0.00166,-1.12134c-0.01179,-0.11757 -0.04051,-0.23395 -0.04098,-0.35211c0.01551,-0.06311 0.05912,-0.26593 0.09708,-0.33038c0.02201,-0.03737 0.06334,-0.05968 0.09039,-0.09358c0.09228,-0.11567 0.15465,-0.25534 0.24727,-0.3709c0.08781,-0.10957 0.19766,-0.17422 0.30284,-0.26163c0.12862,-0.10689 0.23901,-0.22616 0.3709,-0.32969c0.06656,-0.05225 0.09754,-0.13934 0.15731,-0.19923c0.03352,-0.03359 0.08858,-0.04155 0.11925,-0.07776c0.07571,-0.08939 0.09217,-0.21645 0.15444,-0.31567c0.11528,-0.18367 0.28191,-0.32751 0.43444,-0.47884c0.04984,-0.03264 0.09408,-0.07612 0.14953,-0.09793c0.06408,-0.02521 0.13804,-0.0165 0.20254,-0.04061c0.0456,-0.01705 0.0781,-0.05912 0.12178,-0.08062c0.07481,-0.03682 0.16669,-0.03391 0.2379,-0.07728c0.02934,-0.01787 0.04447,-0.05296 0.07127,-0.07446c0.11569,-0.09282 0.25529,-0.17596 0.38113,-0.25465c0.10383,-0.06493 0.22294,-0.10235 0.32865,-0.16418c0.11394,-0.06665 0.17136,-0.18923 0.29935,-0.25343c0.1039,-0.05212 0.22754,-0.0498 0.3378,-0.08662c0.05952,-0.01987 0.10931,-0.06341 0.16885,-0.08322c0.21762,-0.07241 0.40673,-0.1012 0.61559,-0.20514c0.01515,-0.00384 0.33801,-0.0862 0.35285,-0.08805c0.10776,-0.01346 0.21833,0.01631 0.32578,0.00056c0.04298,-0.0063 0.08061,-0.03521 0.12363,-0.04121c0.14598,-0.02036 0.32205,-0.00133 0.46983,-0.00133c0.1364,0 0.29021,-0.01623 0.4247,0.00077c0.1573,0.01989 0.297,0.10189 0.45333,0.12363c0.37541,0.05222 0.772,0.13349 1.13538,0.25272c0.14298,0.05842 0.2839,0.09364 0.43458,0.11875c0.09021,0.01503 0.18607,0.01183 0.27019,0.04772c0.19808,0.08452 0.34878,0.2355 0.54159,0.33233c0.19385,0.09735 0.42551,0.11082 0.61817,0.20606c0.39134,0.19345 0.76989,0.42868 1.13277,0.67226c0.10226,0.10145 0.20764,0.19159 0.2745,0.32289c0.0182,0.03575 0.01561,0.08037 0.0363,0.11474c0.02004,0.03329 0.06243,0.04911 0.08242,0.08242c0.02235,0.03725 0.01912,0.08623 0.04121,0.12363c0.0679,0.11496 0.19714,0.21167 0.28052,0.31854c0.02571,0.03296 0.03247,0.08117 0.06528,0.10708c0.03155,0.02491 0.08083,0.0147 0.11526,0.03545c0.03715,0.02238 0.05964,0.06339 0.09358,0.09039c0.11817,0.09402 0.33747,0.22286 0.40077,0.36994c0.01838,0.04271 -0.00752,0.09464 0.00509,0.13939c0.05414,0.19221 0.21486,0.32229 0.27585,0.50526c0.10987,0.10354 0.21478,0.20242 0.2921,0.33604c0.02056,0.03553 0.01476,0.08317 0.03759,0.11729c0.03109,0.04645 0.08706,0.0721 0.11957,0.11756c0.03574,0.04997 0.04834,0.11373 0.08242,0.16485c0.02288,0.03432 0.06554,0.05297 0.08648,0.0885c0.09913,0.16813 0.0988,0.36194 0.09781,0.5487c-0.0004,0.07518 0.01228,0.1517 -0.00186,0.22554c-0.02269,0.1185 -0.092,0.22356 -0.12598,0.33933c-0.0172,0.0586 -0.02123,0.1215 -0.04582,0.17741c-0.06562,0.14921 -0.11988,0.15356 -0.22245,0.27309c-0.15475,0.18035 -0.32023,0.37789 -0.45148,0.57478c-0.0909,0.09162 -0.16542,0.20789 -0.25409,0.29601c-0.11041,0.10974 -0.29759,0.23599 -0.437,0.30681c-0.09901,0.0503 -0.19869,0.10364 -0.30633,0.13098c-0.13601,0.03454 -0.2815,0.01308 -0.41893,0.04144c-0.26564,0.05482 -0.51766,0.20553 -0.78982,0.25021c-0.10032,0.01647 -0.20332,0.00133 -0.30498,0.00133c-0.20606,0 -0.41212,0 -0.61817,0c-0.21242,0 -0.42668,-0.00768 -0.635,-0.04259c-0.16421,-0.02752 -0.30854,-0.07746 -0.47997,-0.08107c-0.21876,-0.00461 -0.43832,0.00002 -0.65713,0.00002c-0.11813,0 -0.23785,-0.02063 -0.3544,-0.00133c-0.06643,0.011 -0.12543,0.05119 -0.19145,0.06442c-0.14983,0.03003 -0.3811,0.03624 -0.5358,0.01883c-0.26502,-0.02984 -0.53228,-0.15034 -0.78914,-0.22384c-0.10787,-0.02137 -0.21386,-0.05614 -0.3235,-0.06464c-0.13643,-0.01058 -0.27415,0.01132 -0.41053,0.00014c-0.14329,-0.01175 -0.38341,-0.09142 -0.52904,-0.0487c-0.03349,0.00983 -0.03985,0.06132 -0.07109,0.07689c-0.05555,0.02769 -0.12182,0.0262 -0.17986,0.04818c-0.15303,0.05796 -0.15018,0.10175 -0.30772,0.1287c-0.23514,0.04023 -0.44044,-0.07189 -0.65937,-0.1101z" fill="url(#color-5)" stroke="#4f4548"/><path d="M206.88898,289.05758l-0.59757,-0.84484c0,0 0.62755,-0.79088 0.82069,-0.79959c0.09958,-0.00449 0.61663,-0.34391 1.14213,-0.52211c0.26222,-0.08892 0.38656,-0.40064 0.5929,-0.4033c0.05654,-0.00073 0.3862,-0.22969 0.74251,-0.33752c0.26992,-0.08169 0.59026,-0.04996 0.61734,-0.04857c0.43619,0.02236 0.75045,-0.12336 1.03403,-0.10755c0.65091,0.03628 0.96425,0.21989 0.96425,0.21989c0,0 1.54092,0.33438 1.76608,0.56329c0.17312,0.17601 -0.52973,0.69366 -0.52973,0.69366c0,0 -2.6531,-1.03708 -3.70867,-0.78149c-0.40041,0.09696 -1.14422,0.15735 -1.59109,0.53986c-0.80787,0.69154 -1.25288,1.82827 -1.25288,1.82827z" fill="#c2bfc0" stroke="none"/><path d="M210.52583,288.31503c0,0.808 -0.74727,1.46301 -1.66907,1.46301c-0.9218,0 -1.66907,-0.65501 -1.66907,-1.46301c0,-0.808 0.74727,-1.46301 1.66907,-1.46301c0.13434,0 0.73891,-0.35699 0.86407,-0.33072c0.73361,0.15399 0.805,1.10349 0.805,1.79373z" fill="#c2bfc0" stroke="none"/></g><path d="M208.03199,293.42553h7.41808c0,0 -0.45333,1.78594 -0.45333,2.8436c0,0.79837 0.33955,1.70351 0.54588,2.17983c0.09005,0.20788 0.03611,0.45039 -0.16666,0.61199c-0.39707,0.31646 -1.11687,0.80663 -1.9007,0.93727c-0.80992,0.13499 -3.88618,0.41873 -5.19489,-1.51777c-0.87165,-1.28978 -0.24837,-5.05491 -0.24837,-5.05491z" fill="url(#color-6)" stroke="#000000" stroke-linecap="butt"/><path d="M211.74726,299.45561c-0.13993,-0.03498 -0.10495,-0.17492 -0.10495,-0.17492l0.01054,-0.03786c0.04484,-0.34304 0.21077,-0.67586 0.32184,-1.00183c0.04154,-0.12192 0.03548,-0.25387 0.05047,-0.38147h-0.00252v-0.02028l-0.01302,-0.13021l0.00031,-0.00003l-0.00038,-0.00062c-0.02577,-0.28391 -0.07528,-0.55993 -0.12215,-0.84065c-0.06857,-0.3848 -0.00035,-0.74867 0.05421,-1.13009c0.03647,-0.25497 0.04418,-0.51102 0.0975,-0.76344c0.04891,-0.23157 0.14228,-0.44906 0.1627,-0.68566c0,0 0.01306,-0.14365 0.15671,-0.13059c0.14365,0.01306 0.13059,0.15671 0.13059,0.15671c-0.0235,0.24798 -0.11614,0.47306 -0.167,0.71553c-0.05186,0.24724 -0.05919,0.49786 -0.09482,0.74765c-0.04986,0.34946 -0.1213,0.6877 -0.05568,1.04039c0.04646,0.27925 0.09552,0.55423 0.12263,0.83617c0.01077,0.0202 0.01688,0.04327 0.01688,0.06777v0.1099v0.02747h-0.00261c-0.00058,0.00301 -0.00125,0.00599 -0.00202,0.00893c0.00236,0.1562 -0.00928,0.3146 -0.05731,0.4613c-0.10095,0.3083 -0.27199,0.6251 -0.31007,0.94885l-0.01693,0.07204c0,0 -0.03498,0.13993 -0.17492,0.10495z" fill="#918890" stroke="none" stroke-linecap="butt"/><path d="M213.71378,297.90142c0.02392,0.03475 0.05827,0.10925 -0.01624,0.18376c-0.10199,0.10199 -0.20399,0 -0.20399,0l-0.05168,-0.08075c-0.06453,-0.25918 -0.07322,-0.5034 -0.07281,-0.76961c-0.02862,-0.28251 -0.04878,-0.56724 -0.09418,-0.84778c-0.0548,-0.33857 -0.21574,-0.64505 -0.23537,-0.99063c-0.03116,-0.54865 -0.00032,-1.10794 -0.00032,-1.65802c0,0 0,-0.14424 0.14424,-0.14424c0.14424,0 0.14424,0.14424 0.14424,0.14424c0,0.54388 -0.02972,1.09635 -0.00032,1.63891c0.018,0.33216 0.17839,0.63338 0.23169,0.96005c0.04767,0.29215 0.06905,0.58877 0.09814,0.8831c0.00032,0.23576 0.0038,0.45261 0.05659,0.68097z" fill="#918890" stroke="none" stroke-linecap="butt"/><path d="M214.25006,295.39542c0.01514,0.02071 0.02547,0.04898 0.02547,0.08759c0,0.14424 -0.14424,0.14424 -0.14424,0.14424l-0.15686,-0.12635c-0.02441,-0.20368 -0.14207,-0.3725 -0.17738,-0.56912c-0.00288,-0.01605 -0.00231,-0.2246 -0.00231,-0.25927c0,-0.24269 0,-0.48538 0,-0.72807c0,0 0,-0.14424 0.14424,-0.14424c0.14424,0 0.14424,0.14424 0.14424,0.14424c0,0.1969 0,0.3938 0,0.5907c0,0.10471 -0.0201,0.24143 -0.00231,0.34517c0.01102,0.06427 0.05247,0.11946 0.07532,0.18053c0.04141,0.11063 0.07372,0.22 0.09384,0.33457z" fill="#918890" stroke="none" stroke-linecap="butt"/><path d="M210.86602,298.84027c-0.12901,-0.06451 -0.06451,-0.19352 -0.06451,-0.19352l-0.00078,0.02268c0.05912,-0.5831 0.05423,-1.17102 0.05423,-1.75774c0,-0.43992 -0.03239,-0.87358 -0.05482,-1.31278c-0.02822,-0.55252 -0.00012,-1.11451 -0.00012,-1.66819c0,0 0,-0.14424 0.14424,-0.14424c0.14424,0 0.14424,0.14424 0.14424,0.14424c0,0.5496 -0.0285,1.1078 -0.00012,1.65621c0.02293,0.44319 0.05507,0.88082 0.05507,1.32476c0,0.59658 0.0029,1.19342 -0.05566,1.78645l-0.02825,0.07763c0,0 -0.06451,0.12901 -0.19352,0.06451z" fill="#918890" stroke="none" stroke-linecap="butt"/><path d="M210.32609,299.13023c-0.14424,0 -0.14424,-0.14424 -0.14424,-0.14424v-0.02747c0,-0.33537 0.00056,-0.67992 0.02789,-1.01381c0.01392,-0.16995 0.03745,-0.33007 0.02733,-0.50205c-0.01695,-0.28817 -0.13862,-0.55223 -0.13679,-0.84493c-0.06481,-0.28529 -0.02852,-0.56922 -0.04179,-0.85848c-0.02621,-0.57115 -0.04149,-1.13904 -0.04149,-1.71237c0,0 0,-0.14424 0.14424,-0.14424c0.14424,0 0.14424,0.14424 0.14424,0.14424c0,0.56741 0.01548,1.12924 0.04093,1.69445c0.01285,0.28527 -0.02063,0.56364 0.04063,0.84493c0.00161,0.29638 0.12069,0.56496 0.13795,0.85848c0.01088,0.18489 -0.0121,0.35922 -0.02762,0.54197c-0.02769,0.3262 -0.02705,0.66396 -0.02705,0.99182v0.02747c0,0 0,0.14424 -0.14424,0.14424z" fill="#918890" stroke="none" stroke-linecap="butt"/><path d="M208.58148,298.22358c-0.14424,0 -0.14424,-0.14424 -0.14424,-0.14424v-0.05495c0.00144,-0.32732 -0.12083,-0.63828 -0.15041,-0.96113c-0.00088,-0.00962 -0.0007,-0.28449 -0.0007,-0.31643c0,-0.44893 0.06647,-0.8819 0.09648,-1.32832c0.04003,-0.59559 -0.00032,-1.20644 -0.00032,-1.80376c0,0 0,-0.14424 0.14424,-0.14424c0.14424,0 0.14424,0.14424 0.14424,0.14424c0,0.60384 0.03953,1.22066 -0.00032,1.82286c-0.02912,0.44012 -0.09584,0.86679 -0.09584,1.30922c0,0.2116 0.03569,0.41818 0.07238,0.62454c0.00529,-0.06666 0.01337,-0.13313 0.02653,-0.19925c0.03838,-0.19286 0.11211,-0.38046 0.16982,-0.56801c0.03414,-0.09063 0.05163,-0.18684 0.08366,-0.27823c0.02551,-0.07278 0.07549,-0.13733 0.09026,-0.21302c0.03905,-0.20012 0.01068,-0.42648 0.01068,-0.62985c0,-0.34801 0,-0.69602 0,-1.04403c0,0 0,-0.14424 0.14424,-0.14424c0.14424,0 0.14424,0.14424 0.14424,0.14424c0,0.38922 0,0.77844 0,1.16766c0,0.18446 0.02017,0.38357 -0.01679,0.56528c-0.01819,0.08943 -0.07196,0.16789 -0.10206,0.25404c-0.03113,0.0891 -0.04817,0.18284 -0.08118,0.27125c-0.05391,0.1752 -0.12367,0.35094 -0.15988,0.53096c-0.03785,0.18816 -0.0287,0.38003 -0.03864,0.56986c-0.01072,0.20457 -0.04117,0.40545 -0.04103,0.61099v0.08242c0,0 0,0.14424 -0.14424,0.14424c-0.14424,0 -0.14424,-0.14424 -0.14424,-0.14424v-0.08242c0.00004,-0.06231 0.00272,-0.1242 0.00675,-0.1859c-0.00439,0.0003 -0.00893,0.00045 -0.01362,0.00045z" fill="#918890" stroke="none" stroke-linecap="butt"/><path d="M208.64622,298.02043c-0.051,0.051 -0.10199,0 -0.10199,0l-0.02458,-0.02763c-0.08226,-0.1371 -0.18344,-0.30615 -0.21518,-0.46383c-0.0197,-0.09785 0.02711,-0.18953 0.02632,-0.28761c0.00058,-0.24234 0.02472,-0.48151 0.0553,-0.72144c0.01763,-0.13834 -0.01004,-0.28391 -0.00021,-0.42323c0.0205,-0.29073 0.04107,-0.58286 0.04107,-0.8747c0,-0.28498 -0.00568,-0.56318 -0.02729,-0.84659c-0.01295,-0.16986 0.03284,-0.36063 0.00112,-0.52722c-0.01805,-0.09482 -0.02878,-0.17422 -0.02878,-0.27464c0,0 0,-0.07212 0.07212,-0.07212c0.07212,0 0.07212,0.07212 0.07212,0.07212c0,0.09482 0.0107,0.15876 0.02617,0.24737c0.03061,0.17527 -0.01266,0.36684 0.00112,0.54428c0.02227,0.28683 0.02766,0.56845 0.02766,0.85682c0,0.29474 -0.0201,0.5901 -0.04135,0.88366c-0.01023,0.14135 0.01705,0.28785 -0.00021,0.42848c-0.02889,0.23531 -0.05525,0.46953 -0.0546,0.70723c-0.00053,0.081 -0.04662,0.18496 -0.02863,0.26188c0.03328,0.14229 0.12206,0.29055 0.19694,0.41535l0.00289,-0.00015c0,0 0.051,0.051 0,0.10199z" fill="#d6d3d6" stroke="none" stroke-linecap="butt"/><path d="M208.87726,298.65806l-0.13339,0.02383c-0.00465,-0.02796 -0.00931,-0.05592 -0.01396,-0.08388c-0.01606,-0.12838 -0.03676,-0.25735 -0.02798,-0.38726c0.018,-0.26646 0.11833,-0.53388 0.15149,-0.80033c0.04742,-0.38098 0.06777,-0.75823 0.10971,-1.13863c0.0219,-0.19711 0.02253,-0.40708 0.07037,-0.60012c0.04767,-0.19234 0.0964,-0.40023 0.10798,-0.59942c0.01374,-0.23647 -0.00021,-0.47871 -0.00021,-0.7157c0,0 0,-0.07212 0.07212,-0.07212c0.07212,0 0.07212,0.07212 0.07212,0.07212c0,0.24063 0.01407,0.48661 -0.00021,0.7267c-0.0123,0.20679 -0.06147,0.42369 -0.11181,0.62319c-0.04697,0.1861 -0.04586,0.39104 -0.067,0.58128c-0.04271,0.38124 -0.06215,0.75983 -0.11009,1.14174c-0.03309,0.2636 -0.13344,0.52971 -0.15072,0.79318c-0.00778,0.1187 0.01231,0.23724 0.02697,0.35455c0.00273,0.01636 0.00546,0.03273 0.00819,0.04909c0.0063,0.0158 0.0063,0.03 0.0063,0.03l-0.00126,0.00022c0.00009,0.00055 0.00018,0.0011 0.00028,0.00166z" fill="#d6d3d6" stroke="none" stroke-linecap="butt"/><path d="M210.36801,299.14912c-0.06696,-0.02678 -0.04018,-0.09375 -0.04018,-0.09375l0.02362,-0.05554c-0.00645,-0.34113 0.01262,-0.68212 0.01262,-1.02176c0.01603,-0.11219 0.0343,-0.2517 0.02735,-0.36291c-0.0086,-0.13759 -0.09745,-0.26619 -0.10971,-0.40904c-0.01108,-0.12915 0.0067,-0.27467 -0.02559,-0.40068c-0.02927,-0.11419 -0.07897,-0.2154 -0.10936,-0.32764c-0.03669,-0.13555 -0.01889,-0.29121 -0.00191,-0.42821c0.0483,-0.28225 0.04599,-0.56028 0.0269,-0.84993c-0.02642,-0.40088 -0.00018,-0.81233 -0.00018,-1.21398c0,0 0,-0.07212 0.07212,-0.07212c0.07212,0 0.07212,0.07212 0.07212,0.07212c0,0.39808 -0.02698,0.80651 -0.00018,1.20376c0.02025,0.30016 0.01917,0.58785 -0.02805,0.88096c-0.01458,0.11555 -0.03344,0.25409 -0.00191,0.36854c0.03117,0.11314 0.0821,0.21583 0.11044,0.33174c0.03301,0.13502 0.01824,0.2857 0.02936,0.42355c0.01183,0.14675 0.09884,0.2711 0.11009,0.41519c0.00896,0.11486 -0.01112,0.26352 -0.0276,0.37889c0,0.34467 -0.01017,0.69285 -0.01486,1.03881l-0.03133,0.08183c0,0 -0.02678,0.06696 -0.09375,0.04018z" fill="#d6d3d6" stroke="none" stroke-linecap="butt"/><path d="M211.0092,293.75084c0.06997,-0.01749 0.08746,0.05248 0.08746,0.05248l0.01219,0.04963c0.05764,0.1751 0.10839,0.40873 0.08577,0.59314c-0.02472,0.20154 -0.06359,0.37604 -0.04097,0.5796c0.00035,0.27682 0.0778,0.53223 0.09602,0.80853c0.01072,0.16256 0.01785,0.36278 -0.00045,0.52423c-0.00817,0.07207 -0.03596,0.14139 -0.04062,0.21378c-0.00962,0.14932 0.01385,0.29947 0.01385,0.44934c0,0.25155 0.01698,0.50915 -0.00014,0.76003c-0.00713,0.10453 -0.04735,0.20036 -0.05505,0.30369c-0.00747,0.10012 0.00834,0.20211 0,0.30222c-0.01215,0.14583 -0.07409,0.27635 -0.0969,0.41802c0,0 -0.01186,0.07114 -0.083,0.05928c-0.07114,-0.01186 -0.05928,-0.083 -0.05928,-0.083c0.02362,-0.13784 0.08363,-0.26475 0.09542,-0.40621c0.00834,-0.10001 -0.0079,-0.2021 0,-0.30222c0.0081,-0.10268 0.04814,-0.1974 0.05484,-0.30075c0.0161,-0.24808 -0.00014,-0.50236 -0.00014,-0.75106c0,-0.1525 -0.02406,-0.30526 -0.01363,-0.45732c0.00524,-0.07637 0.03303,-0.14977 0.0418,-0.22581c0.01743,-0.15119 0.00981,-0.34019 -0.00045,-0.49232c-0.01869,-0.27726 -0.09669,-0.53404 -0.0963,-0.81245c-0.02342,-0.21074 0.01489,-0.39359 0.04145,-0.60179c0.02086,-0.1635 -0.02681,-0.37879 -0.07907,-0.53331l-0.01528,-0.06026c0,0 -0.01749,-0.06997 0.05248,-0.08746z" fill="#d6d3d6" stroke="none" stroke-linecap="butt"/><path d="M211.84115,299.32545c-0.04369,-0.04369 -0.01253,-0.08737 -0.00269,-0.099c0.02748,-0.16684 0.05252,-0.33459 0.12522,-0.48971c0.04685,-0.09996 0.15831,-0.17297 0.1736,-0.28642c0.02286,-0.16956 -0.01504,-0.35104 -0.01504,-0.52211c0,-0.30945 -0.02958,-0.60757 -0.0547,-0.91444c-0.03112,-0.38013 -0.0148,-0.76991 -0.01374,-1.15208c0.02407,-0.14439 0.02322,-0.29167 0.05647,-0.43576c0.08761,-0.37963 0.26031,-0.77137 0.25924,-1.16554c0,0 0,-0.07212 0.07212,-0.07212c0.07212,0 0.07212,0.07212 0.07212,0.07212c-0.00098,0.40659 -0.17244,0.80581 -0.26277,1.19726c-0.03175,0.13759 -0.03045,0.27806 -0.05343,0.41594c0.0012,0.37429 -0.01786,0.75609 0.01374,1.12829c0.02637,0.31061 0.05519,0.61303 0.05519,0.92634c0,0.18028 0.03907,0.37056 0.01244,0.54939c-0.02013,0.13516 -0.13112,0.20211 -0.18356,0.31802c-0.06912,0.15275 -0.09111,0.31358 -0.11833,0.47696l-0.03388,0.05288c0,0 -0.051,0.051 -0.10199,0z" fill="#d6d3d6" stroke="none" stroke-linecap="butt"/><path d="M213.69171,298.02781c-0.07212,0 -0.07212,-0.07212 -0.07212,-0.07212l0.00072,-0.03101c-0.01446,-0.10119 -0.02802,-0.19631 -0.0282,-0.29868c0,-0.67962 -0.22669,-1.33567 -0.30164,-2.01028c-0.08991,-0.62921 -0.09673,-1.2822 -0.09673,-1.91855c0,0 0,-0.07212 0.07212,-0.07212c0.07212,0 0.07212,0.07212 0.07212,0.07212c0,0.63038 0.00658,1.27716 0.09559,1.90039c0.07567,0.681 0.30279,1.342 0.30279,2.02845c-0.00019,0.0955 0.01326,0.18382 0.02675,0.27828l0.00072,0.05141c0,0 0,0.07212 -0.07212,0.07212z" fill="#d6d3d6" stroke="none" stroke-linecap="butt"/><path d="M214.29406,295.39405c0.01695,0.0095 0.03299,0.02747 0.03299,0.06148c0,0.07212 -0.07212,0.07212 -0.07212,0.07212l-0.0807,-0.04534c-0.06546,-0.16405 -0.13973,-0.32054 -0.16907,-0.49603c-0.06025,-0.36031 -0.04214,-0.73044 -0.04214,-1.09679c0,0 0,-0.07212 0.07212,-0.07212c0.07212,0 0.07212,0.07212 0.07212,0.07212c0,0.35861 -0.01827,0.72107 0.04028,1.07369c0.02528,0.15224 0.08835,0.28934 0.14652,0.43087z" fill="#d6d3d6" stroke="none" stroke-linecap="butt"/><path d="M212.84694,293.86125c-0.08737,0.05461 -0.14197,-0.03276 -0.14197,-0.03276l-0.05638,-0.09393c-0.15443,-0.10667 -0.25465,-0.09936 -0.43487,-0.07815c-0.07285,0.00857 -0.14779,0.00571 -0.21866,0.0246c-0.22921,0.0611 -0.43409,0.27143 -0.57971,0.44732c0,0 -0.06596,0.07915 -0.14511,0.01319c-0.07915,-0.06596 -0.01319,-0.14511 -0.01319,-0.14511c0.13169,-0.15714 0.28944,-0.31313 0.4649,-0.42027c0.31978,-0.19524 0.77985,-0.19897 1.07676,0.01727l0.08099,0.12586c0,0 0.05461,0.08737 -0.03276,0.14197z" fill="#342b37" stroke="none" stroke-linecap="butt"/><path d="M212.43976,293.79267c-0.19484,-0.02991 -0.3974,0.02763 -0.57884,0.10112c-0.01682,0.03403 -0.05188,0.05743 -0.09241,0.05743c-0.0569,0 -0.10303,-0.04613 -0.10303,-0.10303c0,-0.00366 0.00019,-0.00727 0.00056,-0.01083c-0.01676,-0.07764 0.06188,-0.11135 0.06188,-0.11135c0.09576,-0.04104 0.19263,-0.0756 0.29067,-0.10007c0.0133,-0.02839 0.03917,-0.04971 0.07045,-0.05681l0.10781,-0.02695l0.0007,0.0028l0.00537,-0.00412c0.08815,-0.00999 0.30848,-0.03375 0.36976,0.07516c0.00392,0.00095 0.00784,0.00193 0.01177,0.00294l0.01188,0.02163l0.00743,-0.00892l0.08182,0.06818c0.023,0.0189 0.03768,0.04756 0.03768,0.07965c0,0.0569 -0.04613,0.10303 -0.10303,0.10303c-0.01925,0 -0.03727,-0.00528 -0.05269,-0.01447l-0.09459,-0.05405l0.00133,-0.00232c-0.003,-0.0008 -0.00599,-0.00163 -0.00898,-0.0025c-0.00999,-0.00292 -0.01812,-0.00906 -0.02553,-0.01651z" fill="#640505" stroke="none" stroke-linecap="butt"/><path d="M211.40103,292.00663c-0.06182,0.08242 -0.14424,0.02061 -0.14424,0.02061l-0.07108,-0.05442c-0.14406,-0.05762 -0.30375,-0.15555 -0.41501,-0.26538c-0.10639,-0.10502 -0.18132,-0.19192 -0.32679,-0.24976c-0.20032,-0.14886 -0.44551,-0.28488 -0.67172,-0.38734c-0.10299,-0.04665 -0.25626,-0.14184 -0.36879,-0.15581c-0.06981,-0.00866 -0.12342,0.06813 -0.18836,0.09519c-0.1619,0.06749 -0.31624,0.16871 -0.47992,0.22893c-0.05347,0.01967 -0.1126,0.03178 -0.15707,0.06739c0,0 -0.08242,0.06182 -0.14424,-0.02061c-0.06182,-0.08242 0.02061,-0.14424 0.02061,-0.14424c0.06361,-0.04572 0.14011,-0.07098 0.21383,-0.09745c0.15897,-0.05708 0.31066,-0.15889 0.46794,-0.2244c0.05526,-0.02302 0.20368,-0.11397 0.26497,-0.11087c0.13791,0.00699 0.3291,0.11627 0.45544,0.17388c0.23083,0.10526 0.48544,0.24204 0.68826,0.39568c0.28811,0.11591 0.44868,0.39789 0.74181,0.51514l0.09376,0.06921c0,0 0.08242,0.06182 0.02061,0.14424z" fill="#342b37" stroke="none" stroke-linecap="butt"/><path d="M215.67179,291.23474c0.0072,0.00381 0.08967,0.0498 0.04558,0.13797c-0.04608,0.09215 -0.13823,0.04608 -0.13823,0.04608l-0.09616,-0.09255c-0.03026,-0.18017 -0.15964,-0.23777 -0.30344,-0.32407c-0.10798,-0.06481 -0.21545,-0.13877 -0.34745,-0.14996c-0.21992,-0.01863 -0.43231,0.06403 -0.6504,0.06046c-0.1082,0.04553 -0.23579,0.10068 -0.3503,0.12363c-0.02941,0.0059 -0.06123,-0.01215 -0.08993,-0.00343c-0.10059,0.03057 -0.21361,0.16922 -0.30146,0.23269c-0.17589,0.12708 -0.26063,0.30002 -0.39037,0.47301c-0.14574,0.19433 -0.23983,0.3027 -0.18758,0.55693c0,0 0.02021,0.10103 -0.08082,0.12123c-0.10103,0.02021 -0.12123,-0.08082 -0.12123,-0.08082c-0.0336,-0.17189 -0.03483,-0.34418 0.05242,-0.5034c0.03044,-0.05555 0.14046,-0.17503 0.17211,-0.21722c0.14344,-0.19125 0.23865,-0.37324 0.43386,-0.51606c0.10908,-0.07981 0.22947,-0.21662 0.35792,-0.26184c0.03653,-0.01286 0.07815,0.00415 0.11613,-0.00343c0.11439,-0.02282 0.24057,-0.08149 0.3503,-0.12363c0.2374,-0.00314 0.47032,-0.08567 0.70958,-0.06318c0.16453,0.01546 0.29946,0.0981 0.43556,0.17974c0.18557,0.11131 0.32242,0.20327 0.38392,0.40786z" fill="#342b37" stroke="none" stroke-linecap="butt"/><path d="M209.25221,291.99967c0.36276,-0.16743 1.21468,0.37788 1.21468,0.37788l0.66457,0.31447c0,0 -0.37933,0.25429 -0.62642,0.18957c-0.24708,-0.06471 -1.10447,-0.6429 -1.10447,-0.6429l-0.11539,-0.18133" fill="#c51113" stroke="#ca1414" stroke-linecap="round"/><path d="M215.20664,291.95617l-0.11539,0.18133c0,0 -0.85739,0.57819 -1.10447,0.6429c-0.24708,0.06471 -0.62642,-0.18957 -0.62642,-0.18957l0.66457,-0.31447c0,0 0.85192,-0.54531 1.21468,-0.37788" data-paper-data="{&quot;index&quot;:null}" fill="#c51113" stroke="#ca1414" stroke-linecap="round"/><path d="M214.38793,293.00667c-0.02555,-0.01114 0.05792,-0.06302 0.05792,-0.06302l0.04952,-0.02885c0.13267,-0.06507 0.17008,-0.11328 0.25628,-0.18512c0.17065,-0.14223 0.23998,-0.25139 0.31564,-0.36062c0.03243,-0.04681 0.06124,-0.08328 0.06972,-0.119c0,0 0.00727,-0.02961 0.09427,-0.07364c0.08699,-0.04403 0.07972,-0.01442 0.07972,-0.01442c-0.01012,0.04002 -0.04161,0.08286 -0.07746,0.13459c-0.08496,0.12262 -0.16652,0.24413 -0.35893,0.4045c-0.08154,0.06796 -0.14887,0.13679 -0.27499,0.21173c-0.03877,0.02304 -0.07919,0.0408 -0.11878,0.0612l0.01613,-0.00809c0,0 -0.08347,0.05188 -0.10903,0.04074z" fill="url(#color-7)" stroke="none" stroke-linecap="butt"/><path d="M210.14883,293.27781l0.01613,0.00809c-0.03959,-0.0204 -0.08001,-0.03816 -0.11878,-0.0612c-0.12612,-0.07494 -0.19346,-0.14377 -0.27499,-0.21173c-0.19241,-0.16036 -0.27396,-0.28188 -0.35893,-0.4045c-0.03585,-0.05174 -0.06734,-0.09457 -0.07746,-0.13459c0,0 -0.00727,-0.02961 0.07972,0.01442c0.08699,0.04403 0.09427,0.07364 0.09427,0.07364c0.00848,0.03572 0.03729,0.07219 0.06972,0.119c0.07566,0.10923 0.14499,0.21838 0.31564,0.36062c0.0862,0.07185 0.1236,0.12005 0.25628,0.18512l0.04952,0.02885c0,0 0.08347,0.05188 0.05792,0.06302c-0.02555,0.01114 -0.10903,-0.04074 -0.10903,-0.04074z" data-paper-data="{&quot;index&quot;:null}" fill="url(#color-8)" stroke="none" stroke-linecap="butt"/></g><path d="M185.29739,299.66191v-31.86558h42.15033v31.86558z" fill-opacity="0.53358" fill="#100c01" stroke="none" stroke-width="0" stroke-linecap="butt"/></g></g></svg>