<svg version="1.1" xmlns="http://www.w3.org/2000/svg" xmlns:xlink="http://www.w3.org/1999/xlink" width="24.12834" height="18.17672" viewBox="0,0,24.12834,18.17672"><g transform="translate(-227.99359,-170.74632)"><g data-paper-data="{&quot;isPaintingLayer&quot;:true}" fill-rule="nonzero" stroke-linejoin="miter" stroke-miterlimit="10" stroke-dasharray="" stroke-dashoffset="0" style="mix-blend-mode: normal"><path d="M236.79527,172.87702l6.04885,-1.81258l0.58302,2.88197l3.5285,-0.29812l-0.78237,2.12589l3.49128,1.53845l-1.74451,1.85633l3.7236,2.41291l-3.9383,2.27935l0.18416,3.78712l-5.02761,-1.90663l-2.14336,2.76148l-1.90237,-2.69128l-5.95023,1.23837l0.92262,-3.14499l-3.23267,-1.4245l1.4596,-1.2098l-3.5943,-2.35593l4.02157,-3.16915l-2.30123,-1.78613z" fill="#fff900" stroke="#000000" stroke-width="0.5" stroke-linecap="round"/><path d="M244.27063,181.88445c-1.03001,2.33744 -3.81108,3.37475 -6.21169,2.31691c-2.40061,-1.05785 -3.51171,-3.81027 -2.4817,-6.14771c1.03001,-2.33744 3.81108,-3.37475 6.21169,-2.31691c2.40061,1.05785 3.51171,3.81027 2.4817,6.14771z" fill="#ff9800" stroke="none" stroke-width="0" stroke-linecap="butt"/></g></g></svg>