<svg version="1.1" xmlns="http://www.w3.org/2000/svg" xmlns:xlink="http://www.w3.org/1999/xlink" width="103.08856" height="76.22757" viewBox="0,0,103.08856,76.22757"><g transform="translate(-202.17044,-140.38393)"><g data-paper-data="{&quot;isPaintingLayer&quot;:true}" fill-rule="nonzero" stroke-linejoin="miter" stroke-miterlimit="10" stroke-dasharray="" stroke-dashoffset="0" style="mix-blend-mode: normal"><g stroke="#1a6521" stroke-width="2.5" stroke-linecap="butt"><path d="M255.2634,202.08761v-12c0,0 3.03965,-3.2357 5.76641,-3.2357c1.983,0 6.21343,5.46834 10.26249,3.92666c9.03715,-3.44091 24.0687,-0.69096 24.0687,-0.69096v12c0,0 -7.68207,2.95 -15.09755,2.89906c-1.94749,-0.01337 -3.6171,-4.10697 -5.43238,-3.91752c-6.41188,0.66917 -9.75285,4.25415 -12.68638,4.25415c-3.1526,0 -6.88128,-3.23569 -6.88128,-3.23569z" fill="#7f4e07"/><path d="M302.63162,196.46261c0,4.90153 -5.06957,8.875 -11.32319,8.875c-6.25363,0 -11.32319,-3.97347 -11.32319,-8.875c0,-4.90153 5.06957,-8.875 11.32319,-8.875c6.25363,0 11.32319,3.97347 11.32319,8.875z" fill="#32c302"/></g><g stroke="#1a6521" stroke-width="2.5" stroke-linecap="butt"><path d="M251.61227,166.12727v-12.5c0,0 5.74065,-1.61785 9.84351,-1.61785c2.22954,0 5.6592,3.38439 9.71283,3.59162c2.46844,0.12619 5.85867,-5.96216 8.38097,-6.14679c6.99831,-0.51227 12.45469,4.17302 12.45469,4.17302v12.5c0,0 -6.37855,3.45682 -13.41158,3.52544c-2.02522,0.01976 -3.87016,-4.05665 -5.92187,-3.87363c-5.1089,0.45571 -9.91407,3.12164 -12.49387,3.12164c-3.67107,0 -8.56469,-2.77345 -8.56469,-2.77345z" fill="#7f4e07"/><path d="M293.53212,169.7766c-5.40918,-0.2916 -9.4873,-5.17629 -9.10875,-10.91025c0.37854,-5.73396 5.07043,-10.14587 10.47959,-9.85426c1.81535,0.09786 6.29557,0.47375 8.06327,1.46475c1.32916,0.74516 0.08886,1.94209 0.78621,3.05204c1.13867,1.81236 0.41526,4.03081 0.25928,6.39345c-0.12054,1.82575 0.11608,3.75676 -0.76297,5.20528c-1.03703,1.70881 -2.23273,3.00648 -4.18984,3.79393c-1.59417,0.64141 -3.87177,0.94428 -5.52678,0.85506z" fill="#32c302"/></g><path d="M271.6875,180c0,17.94925 -14.18698,32.5 -31.6875,32.5c-17.50053,0 -31.6875,-14.55075 -31.6875,-32.5c0,-17.94925 14.18697,-32.5 31.6875,-32.5c17.50052,0 31.6875,14.55075 31.6875,32.5z" fill="#32c302" stroke="#1a6521" stroke-width="2.5" stroke-linecap="butt"/><path d="M205.50053,215.3615v-73.72757h65.63834v73.72757z" fill="#a90000" stroke="#040404" stroke-width="2.5" stroke-linecap="butt"/><path d="M228.15038,194.56062v-42.064h18.72079v42.064z" fill="#000000" stroke="#040404" stroke-width="2.5" stroke-linecap="butt"/><path d="M247.4366,186.62504c0,4.21117 -3.26097,7.625 -7.28358,7.625c-4.02261,0 -7.28358,-3.41383 -7.28358,-7.625c0,-4.21117 3.26097,-7.625 7.28358,-7.625c4.02261,0 7.28358,3.41383 7.28358,7.625z" fill="#ffffa8" stroke="#040404" stroke-width="2.5" stroke-linecap="butt"/><path d="M244.98541,163.29015c0,5.10863 -3.74962,9.25 -8.375,9.25c-4.62538,0 -8.375,-4.14137 -8.375,-9.25c0,-5.10863 3.74962,-9.25 8.375,-9.25c4.62538,0 8.375,4.14137 8.375,9.25z" fill="#ffffa8" stroke="#040404" stroke-width="2.5" stroke-linecap="butt"/><path d="M243.4476,162.1306c0,1.38071 -1.39911,2.5 -3.125,2.5c-1.72589,0 -3.125,-1.11929 -3.125,-2.5c0,-1.38071 1.39911,-2.5 3.125,-2.5c1.72589,0 3.125,1.11929 3.125,2.5z" fill="#060606" stroke="#040404" stroke-width="0" stroke-linecap="butt"/><path d="M245.39628,185.34049c0,1.17361 -0.7835,2.125 -1.75,2.125c-0.9665,0 -1.75,-0.95139 -1.75,-2.125c0,-1.17361 0.7835,-2.125 1.75,-2.125c0.9665,0 1.75,0.95139 1.75,2.125z" fill="#070606" stroke="none" stroke-width="0" stroke-linecap="butt"/><path d="M206.42501,146.71859l62.86488,0.46224" fill="none" stroke="#9d9a9a" stroke-width="2.5" stroke-linecap="round"/><path d="M205.50053,161.27921l21.49424,0.69336" fill="none" stroke="#9d9a9a" stroke-width="2.5" stroke-linecap="round"/><path d="M247.33341,162.20369l22.41873,-0.69336" fill="none" stroke="#9d9a9a" stroke-width="2.5" stroke-linecap="round"/><path d="M205.26941,171.91077l20.80088,0.92448" fill="none" stroke="#9d9a9a" stroke-width="2.5" stroke-linecap="round"/><path d="M269.52101,174.22198l-21.72536,-0.23112" fill="none" stroke="#9d9a9a" stroke-width="2.5" stroke-linecap="round"/><path d="M224.91469,180l-19.41416,-0.69336" fill="none" stroke="#9d9a9a" stroke-width="2.5" stroke-linecap="round"/><path d="M247.79565,181.38673h21.26312" fill="none" stroke="#9d9a9a" stroke-width="2.5" stroke-linecap="round"/><path d="M203.42044,186.47139l24.03657,0.23112" fill="none" stroke="#9d9a9a" stroke-width="2.5" stroke-linecap="round"/><path d="M248.2579,188.08923l22.41873,0.46224" fill="none" stroke="#9d9a9a" stroke-width="2.5" stroke-linecap="round"/><path d="M203.88268,193.63613l22.18761,0.69336" fill="none" stroke="#9d9a9a" stroke-width="2.5" stroke-linecap="round"/><path d="M246.40893,193.63613l22.88097,0.46224" fill="none" stroke="#9d9a9a" stroke-width="2.5" stroke-linecap="round"/><path d="M204.1138,204.26769l64.94497,1.1556" fill="none" stroke="#9d9a9a" stroke-width="2.5" stroke-linecap="round"/><path d="M260.50731,209.58347l0.46224,-66.79394" fill="none" stroke="#9d9a9a" stroke-width="2.5" stroke-linecap="round"/><path d="M250.10686,142.09617l-0.23112,68.41179" fill="none" stroke="#9d9a9a" stroke-width="2.5" stroke-linecap="round"/><path d="M239.24419,152.03437l1.1556,-8.08923" fill="none" stroke="#9d9a9a" stroke-width="2.5" stroke-linecap="round"/><path d="M239.24418,193.17389v19.8764" fill="none" stroke="#9d9a9a" stroke-width="2.5" stroke-linecap="round"/><path d="M219.13666,141.86505l0.46224,70.26075" fill="none" stroke="#9d9a9a" stroke-width="2.5" stroke-linecap="round"/><path d="M211.04743,142.32729l0.69336,69.33627" fill="none" stroke="#9d9a9a" stroke-width="2.5" stroke-linecap="round"/><path d="M227.45701,143.25178l1.1556,70.49187" fill="none" stroke="#9d9a9a" stroke-width="2.5" stroke-linecap="round"/></g></g></svg>