<svg version="1.1" xmlns="http://www.w3.org/2000/svg" xmlns:xlink="http://www.w3.org/1999/xlink" width="341.44125" height="337.93483" viewBox="0,0,341.44125,337.93483"><g transform="translate(-117.67844,10.58902)"><g data-paper-data="{&quot;isPaintingLayer&quot;:true}" fill-rule="nonzero" stroke-linejoin="miter" stroke-miterlimit="10" stroke-dasharray="" stroke-dashoffset="0" style="mix-blend-mode: normal"><text transform="translate(161.34849,30.78435) scale(1.02003,1.02003)" font-size="40" xml:space="preserve" fill="#ffffff" fill-rule="nonzero" stroke="#ffffff" stroke-width="4" stroke-linecap="butt" stroke-linejoin="miter" stroke-miterlimit="10" stroke-dasharray="" stroke-dashoffset="0" font-family="Curly" font-weight="normal" text-anchor="start" style="mix-blend-mode: normal"><tspan x="0" dy="0">WAVE</tspan></text><text transform="translate(162.40996,29.19215) scale(1.02003,1.02003)" font-size="40" xml:space="preserve" fill="#000000" fill-rule="nonzero" stroke="none" stroke-width="1" stroke-linecap="butt" stroke-linejoin="miter" stroke-miterlimit="10" stroke-dasharray="" stroke-dashoffset="0" font-family="Curly" font-weight="normal" text-anchor="start" style="mix-blend-mode: normal"><tspan x="0" dy="0">WAVE</tspan></text><g><path d="M146.40267,26.11026l-8.53178,6.22783l-2.52467,-4.22122l-5.39971,2.43534l0.05013,-3.78902l-6.36383,-0.48233l1.71791,-3.89967l-7.21728,-1.73228l4.94271,-5.78869l-2.39963,-5.87112l8.99221,0.20746l1.84294,-5.54956l4.49959,3.18566l8.696,-5.26717l0.2962,5.47462l5.89245,0.44662l-1.62855,2.72117l6.9816,1.71443l-4.57851,7.23862l4.62461,1.53575z" fill="#fff900" stroke="#000000" stroke-width="0.5" stroke-linecap="round"/><path d="M129.59485,16.06543c0.32293,-4.26064 4.132,-7.44568 8.50775,-7.11404c4.37578,0.33165 7.66126,4.05445 7.33836,8.31507c-0.32293,4.26064 -4.132,7.44568 -8.50775,7.11404c-4.37578,-0.33165 -7.66126,-4.05445 -7.33836,-8.31507z" fill="#ff9800" stroke="none" stroke-width="0" stroke-linecap="butt"/></g><text transform="translate(329.53317,296.291) scale(0.29774,0.29774)" font-size="40" xml:space="preserve" fill="#020200" fill-rule="nonzero" stroke="none" stroke-width="1" stroke-linecap="butt" stroke-linejoin="miter" stroke-miterlimit="10" stroke-dasharray="" stroke-dashoffset="0" font-family="Sans Serif" font-weight="normal" text-anchor="start" style="mix-blend-mode: normal"><tspan x="0" dy="0">M to switch plant </tspan><tspan x="0" dy="46.15px">space or hold down to </tspan><tspan x="0" dy="46.15px">shoot. Q to power up</tspan></text></g></g></svg>