<svg version="1.1" xmlns="http://www.w3.org/2000/svg" xmlns:xlink="http://www.w3.org/1999/xlink" width="211.10163" height="198.47879" viewBox="0,0,211.10163,198.47879"><g transform="translate(-130.43219,-84.47254)"><g data-paper-data="{&quot;isPaintingLayer&quot;:true}" fill="#faff4f" fill-rule="nonzero" stroke="#000000" stroke-width="1.5" stroke-linecap="round" stroke-linejoin="miter" stroke-miterlimit="10" stroke-dasharray="" stroke-dashoffset="0" style="mix-blend-mode: normal"><path d="M178.25,122.5v-36l21.5,7l25,-8v20l37,-16v16.5h35v23h22.5l-0.5,27.5h8l-0.5,32h14.5l-1.5,34h-12v26l-7.5,-0.5v28l-17.5,-1.5l-7,7.5l-17,-10l-25,4l-0.5,-17l-24.5,8.5v-10l-28.5,9l-0.5,-15l-26.5,0.5l0.5,-22h-22.5l16.5,-26l-33.5,-1l24.5,-37.5l-25.5,-1.5l33,-21.5h-12z"/></g></g></svg>