<svg version="1.1" xmlns="http://www.w3.org/2000/svg" xmlns:xlink="http://www.w3.org/1999/xlink" width="121.24145" height="70.98891" viewBox="0,0,121.24145,70.98891"><g transform="translate(-168.67026,-142.76111)"><g data-paper-data="{&quot;isPaintingLayer&quot;:true}" fill-rule="nonzero" stroke-linejoin="miter" stroke-miterlimit="10" stroke-dasharray="" stroke-dashoffset="0" style="mix-blend-mode: normal"><g stroke-width="2.5" stroke-linecap="butt"><g><path d="M243.03187,205.53607l0.51394,-12.48944l36.46914,1.50071l-0.51394,12.48943z" fill="#9c671d" stroke="#6b3b0d"/><path d="M278.73211,210.65752c-4.87185,-0.49232 -8.35307,-5.5244 -7.77553,-11.23945c0.57754,-5.71505 4.99514,-9.9489 9.86698,-9.45657c4.87185,0.49232 8.35307,5.5244 7.77553,11.23945c-0.57754,5.71505 -4.99513,9.94891 -9.86698,9.45657z" fill="#5be62d" stroke="#199e25"/></g><g><path d="M243.58869,164.03179l-0.53133,-12.4887l36.46701,-1.55147l0.53132,12.4887z" fill="#9c671d" stroke="#6b3b0d"/><path d="M279.592,166.15265c-4.89595,-0.08357 -8.78542,-4.8072 -8.68738,-10.55052c0.09803,-5.74332 4.14645,-10.33146 9.04239,-10.24788c4.89595,0.08357 8.78543,4.8072 8.68739,10.55053c-0.09803,5.74332 -4.14645,10.33146 -9.0424,10.24788z" fill="#5be62d" stroke="#199e25"/></g></g><path d="M271.6875,180.00002c0,17.94925 -14.18698,32.5 -31.6875,32.5c-17.50053,0 -31.6875,-14.55075 -31.6875,-32.5c0,-17.94925 14.18697,-32.5 31.6875,-32.5c17.50052,0 31.6875,14.55075 31.6875,32.5z" fill="#32c302" stroke="#1a6521" stroke-width="2.5" stroke-linecap="butt"/><path d="M205.33702,151.28149c0.79132,0.61141 0.17991,1.40272 0.17991,1.40272l0.03704,-0.2206c-0.31873,1.20732 0.61912,2.9689 1.45054,3.92021c2.40584,2.75278 6.15365,5.37476 9.05147,7.60265c0,0 0.79132,0.61141 0.17991,1.40272c-0.61141,0.79132 -1.40272,0.17991 -1.40272,0.17991c-3.74953,-2.90998 -12.09844,-8.12833 -11.24161,-13.49144l0.34274,-0.61626c0,0 0.61141,-0.79132 1.40272,-0.17991z" fill="#141514" stroke="none" stroke-width="0.5" stroke-linecap="butt"/><path d="M197.875,169.00002c1,0 1,1 1,1l-0.29289,-0.20711c1.72983,1.93375 7.75372,1.70523 10.09678,1.22653c0,0 0.98058,-0.19612 1.1767,0.78446c0.19612,0.98058 -0.78446,1.1767 -0.78446,1.1767c-3.26199,0.64038 -9.34913,0.62331 -11.90322,-1.77347l-0.29289,-1.20711c0,0 0,-1 1,-1z" fill="#141514" stroke="none" stroke-width="0.5" stroke-linecap="butt"/><path d="M196.92779,178.60559c0.89443,-0.44721 1.34164,0.44721 1.34164,0.44721l0.2313,0.66717c5.39799,0.47632 10.65539,0.21117 16.00024,-0.46224c0,0 0.99228,-0.12403 1.11631,0.86824c0.12403,0.99228 -0.86824,1.11631 -0.86824,1.11631c-5.56644,0.69061 -12.05852,1.75576 -17.49976,0.03776l-0.7687,-1.33283c0,0 -0.44721,-0.89443 0.44721,-1.34164z" fill="#141514" stroke="none" stroke-width="0.5" stroke-linecap="butt"/><path d="M260.375,164c0,5.10863 -3.74962,9.25 -8.375,9.25c-4.62538,0 -8.375,-4.14137 -8.375,-9.25c0,-5.10863 3.74962,-9.25 8.375,-9.25c4.62538,0 8.375,4.14137 8.375,9.25z" fill="#ffffa8" stroke="#040404" stroke-width="2.5" stroke-linecap="butt"/><path d="M260.69216,186.62502c0,4.21117 -3.26097,7.625 -7.28358,7.625c-4.02261,0 -7.28358,-3.41383 -7.28358,-7.625c0,-4.21117 3.26097,-7.625 7.28358,-7.625c4.02261,0 7.28358,3.41383 7.28358,7.625z" fill="#ffffa8" stroke="#040404" stroke-width="2.5" stroke-linecap="butt"/><path d="M257.125,162c0,1.38071 -1.39911,2.5 -3.125,2.5c-1.72589,0 -3.125,-1.11929 -3.125,-2.5c0,-1.38071 1.39911,-2.5 3.125,-2.5c1.72589,0 3.125,1.11929 3.125,2.5z" fill="#0c0c0b" stroke="#040404" stroke-width="0" stroke-linecap="butt"/><path d="M259.125,184.62502c0,1.17361 -0.7835,2.125 -1.75,2.125c-0.9665,0 -1.75,-0.95139 -1.75,-2.125c0,-1.17361 0.7835,-2.125 1.75,-2.125c0.9665,0 1.75,0.95139 1.75,2.125z" fill="#0c0c0b" stroke="none" stroke-width="0" stroke-linecap="butt"/><path d="M259.625,172.50002c0,-0.69036 0.55964,-1.25 1.25,-1.25c0.69036,0 1.25,0.55964 1.25,1.25c0,0.69036 -0.55964,1.25 -1.25,1.25c-0.69036,0 -1.25,-0.55964 -1.25,-1.25z" fill="#0c0c0b" stroke="none" stroke-width="0.5" stroke-linecap="butt"/><path d="M260.625,178.50002c0,-0.69036 0.55964,-1.25 1.25,-1.25c0.69036,0 1.25,0.55964 1.25,1.25c0,0.69036 -0.55964,1.25 -1.25,1.25c-0.69036,0 -1.25,-0.55964 -1.25,-1.25z" fill="#0c0c0b" stroke="none" stroke-width="0.5" stroke-linecap="butt"/><g><path d="M232.96287,196.98405c0,0 -54.57129,2.71562 -62.39993,-3.93734c-1.95214,-1.65897 -0.09403,-49.17147 -0.09403,-49.17147l63.05917,7.10207z" fill="#858481" stroke="#504c40" stroke-width="2" stroke-linecap="round"/><path d="M223.29216,157.90961c0,-1.58621 1.28588,-2.87208 2.87208,-2.87208c1.58621,0 2.87208,1.28588 2.87208,2.87208c0,1.58621 -1.28588,2.87208 -2.87208,2.87208c-1.58621,0 -2.87208,-1.28588 -2.87208,-2.87208z" fill="#504c40" stroke="none" stroke-width="0.5" stroke-linecap="butt"/><path d="M223.29216,191.47162c0,-1.58621 1.28588,-2.87208 2.87208,-2.87208c1.58621,0 2.87208,1.28588 2.87208,2.87208c0,1.58621 -1.28588,2.87208 -2.87208,2.87208c-1.58621,0 -2.87208,-1.28588 -2.87208,-2.87208z" fill="#504c40" stroke="none" stroke-width="0.5" stroke-linecap="butt"/><path d="M225.69117,156.64385l24.40162,7.09866l-3.99299,31.27843l-21.96145,-3.54933" fill="none" stroke="#7b7975" stroke-width="2" stroke-linecap="round"/><path d="M178.31688,171.2447c-0.42579,0.78367 -0.96954,1.53265 -1.32491,2.18626c-0.23562,0.43336 0.88446,-0.55876 1.08006,-1.0116c0.1566,-0.36254 0.21019,-0.76579 0.24485,-1.17466zM171.04465,165.94113v-1.97679c0,-3.46399 -1.09264,-8.94046 1.52977,-11.66341c1.20537,-1.25158 6.34035,-3.73945 7.86795,-1.70013c1.82102,2.43104 -0.92607,3.45983 -1.42368,5.17965c-0.12821,0.73182 0.66849,0.78624 1.16431,0.22944c1.69926,-1.90822 3.45829,-6.38202 6.65195,-2.26197c0.38103,0.49156 -0.05341,1.2651 0.12181,1.86185c0.52186,1.77733 2.5701,2.36869 0.0589,4.67913c-0.60203,0.5539 -2.41471,-1.04564 -2.44359,-0.22808c-0.02777,0.78633 0.21609,1.56387 0.21447,2.35069c-0.00212,1.03512 -0.8132,2.37166 -0.08194,3.10427c0.2569,0.25737 0.7172,-0.38928 1.05854,-0.26387c1.63954,0.60239 3.0951,2.00387 2.78416,3.9871c-0.51618,3.29232 -2.12185,2.64606 -4.61476,2.93795c-4.73958,-5.26483 -1.32223,6.16529 -7.40711,4.03872c-6.28562,-2.19672 1.41867,-4.82564 -0.81741,-7.04344c-0.71055,-0.70474 -0.84168,2.05353 -1.77131,2.42413c-4.36111,1.73855 -3.7794,-1.80281 -3.7794,-4.30453c0,0 0,-1.04179 0.88733,-1.3507zM173.02921,167.3116c-0.00032,0.01732 -0.00106,0.03539 -0.00218,0.05413c0.02317,-0.0272 0.04683,-0.05394 0.07096,-0.08023c-0.02231,0.00919 -0.04524,0.0179 -0.06878,0.0261z" fill="#d40505" stroke="none" stroke-width="0.5" stroke-linecap="butt"/><path d="M192.08291,149.29664l1.44862,0.29512c0.64153,0.35702 1.11168,0.93826 1.46179,1.61864l0.54692,-0.23439l0.65299,1.52365c0.0826,0.18125 0.12862,0.38268 0.12862,0.59486c0,0.46378 -0.21985,0.87621 -0.56103,1.13876c0.06207,0.9666 -0.48518,1.80606 -2.51708,2.06917c-0.93297,0.12081 -1.32804,-1.34661 -1.8607,-2.12205c-1.1916,-1.73472 -2.30285,-3.90584 -3.14116,-5.84419c0,0 -0.56568,-1.31993 0.75425,-1.88561c1.31993,-0.56568 1.88561,0.75425 1.88561,0.75425c0.30213,0.71256 0.74336,1.40206 1.20116,2.09179z" fill="#d40505" stroke="none" stroke-width="0.5" stroke-linecap="butt"/><path d="M198.48299,191.36203c1.68093,-0.07357 3.2161,0.22349 1.82253,3.55291c-0.64272,1.53554 -5.02859,1.31831 -6.30704,1.32021c0,0 -1.43604,0 -1.43604,-1.43604c0,-1.43604 1.43604,-1.43604 1.43604,-1.43604c0.13275,0.00022 0.34885,-0.02549 0.61332,-0.06052c0.09549,-0.34166 0.31417,-0.6319 0.60514,-0.81982l1.31246,-0.87498l0.08488,0.12731l0.19917,-0.27392c0.36244,-0.00362 0.77521,-0.04099 1.19515,-0.07084c0.13871,-0.12806 0.29058,-0.23589 0.44982,-0.31579z" fill="#d40505" stroke="none" stroke-width="0.5" stroke-linecap="butt"/></g></g></g></svg>