<svg version="1.1" xmlns="http://www.w3.org/2000/svg" xmlns:xlink="http://www.w3.org/1999/xlink" width="71.41864" height="72.96309" viewBox="0,0,71.41864,72.96309"><g transform="translate(-254.14583,-143.53793)"><g data-paper-data="{&quot;isPaintingLayer&quot;:true}" fill-rule="nonzero" stroke-linejoin="miter" stroke-miterlimit="10" stroke-dasharray="" stroke-dashoffset="0" style="mix-blend-mode: normal"><g stroke-linecap="butt"><path d="M313.02319,184.54733c0,12.35043 -9.51141,22.36246 -21.24434,22.36246c-11.73292,0 -21.24434,-10.01203 -21.24434,-22.36246c0,-12.35043 9.51141,-22.36245 21.24434,-22.36245c11.73292,0 21.24434,10.01203 21.24434,22.36245z" fill="#09f4c9" stroke="#29907d" stroke-width="2.5"/><path d="M296.11905,191.67205c-1.01072,2.02143 -3.03217,1.01074 -3.03217,1.01074l-1.96007,-0.98749c-6.33906,-3.85374 -9.20033,-7.5824 -9.2334,-15.04618c0,0 0,-2.26004 2.26004,-2.26004c2.26004,0 2.26004,2.26004 2.26004,2.26004c-0.03193,5.91462 1.84825,8.10632 7.03888,11.17024l1.65597,0.82053c0,0 2.02143,1.01074 1.01072,3.03217z" fill="#a4f7e8" stroke="none" stroke-width="0.5"/></g><path d="M325.29583,182.59281c0,17.92274 -15.49786,32.45198 -34.61545,32.45198c-19.11759,0 -34.61545,-14.52924 -34.61545,-32.45198c0,-17.92274 15.49786,-32.45198 34.61545,-32.45198c19.11759,0 34.61545,14.52924 34.61545,32.45198z" fill-opacity="0.58871" fill="#3fbffc" stroke="none" stroke-width="0" stroke-linecap="butt"/><path d="M255.73039,165.53043l5.18563,-8.69847l13.0477,14.05137" fill="none" stroke="#29907d" stroke-width="2.5" stroke-linecap="round"/><path d="M271.62182,192.12767l-12.88042,2.3419l-3.34556,-8.02936" fill="none" stroke="#29907d" stroke-width="2.5" stroke-linecap="round"/><path d="M281.32396,213.03745l-13.71682,-0.33456l9.2003,-12.54587" fill="none" stroke="#29907d" stroke-width="2.5" stroke-linecap="round"/><path d="M314.77961,208.35366l-9.86942,1.84006l-4.51651,-5.01835" fill="none" stroke="#29907d" stroke-width="2.5" stroke-linecap="round"/><path d="M319.12884,189.45122l-0.16728,7.52752l-10.70581,-2.84373" fill="none" stroke="#29907d" stroke-width="2.5" stroke-linecap="round"/><path d="M324.31447,167.03594v9.53486l-13.38226,0.16728" fill="none" stroke="#29907d" stroke-width="2.5" stroke-linecap="round"/><path d="M304.24108,152.31545l12.04403,2.50917l-8.02936,13.38226" fill="none" stroke="#29907d" stroke-width="2.5" stroke-linecap="round"/><path d="M297.38267,164.02493l-1.17095,-19.237" fill="none" stroke="#29907d" stroke-width="2.5" stroke-linecap="round"/><path d="M275.30194,152.81729l6.35657,-1.00367l7.52752,9.86942" fill="none" stroke="#29907d" stroke-width="2.5" stroke-linecap="round"/><path d="M270.45088,181.9237l-13.54954,-2.00734l0.66911,-7.19296" fill="none" stroke="#29907d" stroke-width="2.5" stroke-linecap="round"/><path d="M296.379,215.04479l-4.68379,0.16728l-1.17095,-7.6948" fill="none" stroke="#29907d" stroke-width="2.5" stroke-linecap="round"/></g></g></svg>