<svg version="1.1" xmlns="http://www.w3.org/2000/svg" xmlns:xlink="http://www.w3.org/1999/xlink" width="100.77474" height="51.5552" viewBox="0,0,100.77474,51.5552"><g transform="translate(-189.19245,-161.3556)"><g data-paper-data="{&quot;isPaintingLayer&quot;:true}" fill-rule="nonzero" stroke-linejoin="miter" stroke-miterlimit="10" stroke-dasharray="" stroke-dashoffset="0" style="mix-blend-mode: normal"><g stroke="#029f0f" stroke-width="1.5"><path d="M221.22,178.8168c0,0.17947 -0.01891,0.35453 -0.05485,0.52329l0.09125,0.02281l0.45821,0.80187l0.5489,0.47049l0.03016,0.54287l0.21273,0.37227l-0.02402,0.04204l0.2004,0.3006l-0.17638,0.79369v0.63246l-0.07464,0.29857v0.30776l-0.08616,0.34463v1.13712l0.01558,0.02336l-0.01558,0.07009v0.06966l-0.13932,0.55728l-0.12461,0.56075l-0.03115,0.06231l-0.01742,0.06966l-0.02438,0.01393l-0.00839,0.01679l-0.73862,2.21587l-0.63465,2.06262l-0.01545,0.02557l-0.00229,0.02979l-0.19331,0.57992v0.07671l-0.09747,0.38988l-0.03082,0.40069l-0.03251,0.09752v0.98082l0.1699,0.09709l0.3125,1.25v0.64088l0.01558,0.02336l-0.01558,0.07009v0.06966l-0.13932,0.55728l-0.12461,0.56075l-0.03115,0.06231l-0.01742,0.06966l-0.02438,0.01393l-0.08785,0.1757l-0.13284,0.15498l-0.00692,0.12453l-0.37626,0.32251l-0.32251,0.37626l-0.12453,0.00692l-0.15498,0.13284l-0.1757,0.08785l-0.01393,0.02438l-0.06966,0.01742l-0.06231,0.03115l-0.56075,0.12461l-0.55728,0.13932h-0.06966l-0.02114,0.0047l-0.08343,0.02781l-0.19772,0.01521l-0.18186,0.07907l-0.9648,0.1608l-0.18176,-0.01454l-0.31516,0.07004l-0.2209,0.05523l-0.34981,0.1166l-0.40069,0.03082l-0.38988,0.09747h-0.20797l-1.1472,0.25493l-0.61129,0.15282h-0.05754l-0.11515,0.0987l-0.32251,0.37626l-0.12453,0.00692l-0.15498,0.13284l-0.3216,0.1608l-0.26876,0.05973l-0.24293,0.12956l-1.2864,0.3216h-0.06096l-0.05509,0.0261l-0.65138,0.13028l-0.81714,0.27238l-0.15751,0.01212l-0.14277,0.06763l-0.47571,0.09514l-0.02215,0.01108l-0.56075,0.12461l-0.55728,0.13932h-0.06966l-0.07009,0.01558l-0.02336,-0.01558h-0.01152l-0.34463,0.08616h-0.30776l-0.29857,0.07464h-0.71725l-0.56126,0.11225l-0.24872,-0.01184l-0.24157,0.06039h-0.39565l-0.23296,0.04659l-0.02215,0.01108l-0.56075,0.12461l-0.55728,0.13932h-0.06966l-0.07009,0.01558l-0.02336,-0.01558h-3.53296l-0.02336,0.01558l-0.07009,-0.01558h-0.06966l-0.55728,-0.13932l-0.56075,-0.12461l-0.06231,-0.03115l-0.06966,-0.01742l-0.01393,-0.02438l-0.98727,-0.49363l-0.48997,0.24498l-0.17566,0.03903l-0.15181,0.09661l-0.4824,0.1608l-0.31367,0.02413l-0.00206,0.00103l-1.0737,0.2386l-0.04433,0.02533l-0.0195,-0.01115l-0.12025,0.02672l-0.70012,-0.46674l-0.08853,-0.02213l-0.03405,-0.05959l-0.17938,-0.11959l-1.04567,-0.59752l-0.02988,-0.1195l-0.01869,-0.01246l0.00283,-0.05098l-0.26676,-1.06706v-0.31928l-0.01558,-0.02336l0.01558,-0.07009v-0.06966l0.13932,-0.55728l0.12461,-0.56075l0.03115,-0.06231l0.01742,-0.06966l0.02438,-0.01393l0.40945,-0.8189l0.17308,-0.20193l0.11081,-0.24177l0.58915,-0.73643l1.33643,-1.93041l0.58958,-1.03177l0.01892,-0.01974l0.00796,-0.02615l0.4824,-0.804l0.07205,-0.07205l0.03735,-0.0948l0.686,-0.9604l0.10222,-0.30667l0.21576,-0.33905l0.15595,-0.37038l0.4824,-0.6432l0.03112,-0.02529l0.01671,-0.03645l0.6432,-0.804l0.02044,-0.01558l0.01117,-0.02315l3.2,-3.84l0.62758,-0.78448l0.04495,-0.03424l0.02578,-0.05028l0.9144,-1.04503l0.17817,-0.35634l0.26154,-0.30513l0.20676,-0.34461l0.13789,-0.13789l0.22538,-0.26294l0.32516,-0.42677l0.12933,-0.10346l0.03487,-0.04068l0.01717,-0.00095l0.62263,-0.4981l0.15496,-0.07102l0.12054,-0.12054l0.72861,-0.43717l1.51747,-1.06223l1.75053,-1.27311l0.0102,-0.00412l0.00713,-0.00837l1.05334,-0.75238l0.01369,-0.03285l0.62942,-0.24365l0.62796,-0.24738l0.03233,0.01488l1.19828,-0.14978l0.15683,0.01901l0.15326,-0.03831h7.0752c0.42612,0 0.82733,0.10661 1.17843,0.29461l0.07157,0.01789l0.01883,0.03296c0.73685,0.43488 1.23117,1.23698 1.23117,2.15454z" fill="#01d312" stroke-linecap="butt"/><path d="M220.6496,183.1584l-29.1048,17.0448" fill="none" stroke-linecap="round"/></g><g stroke-linecap="butt"><path d="M288.7172,184.3556c0,12.01219 -6.26801,21.75 -14,21.75c-7.73199,0 -14,-9.73781 -14,-21.75c0,-12.01219 6.26801,-21.75 14,-21.75c7.73199,0 14,9.73781 14,21.75z" fill="#01d312" stroke="#029f0f" stroke-width="2.5"/><path d="M286.7172,184.3556c0,8.42234 -3.69365,15.25 -8.25,15.25c-4.55635,0 -8.25,-6.82766 -8.25,-15.25c0,-8.42234 3.69365,-15.25 8.25,-15.25c4.55635,0 8.25,6.82766 8.25,15.25z" fill="#0f0f0f" stroke="none" stroke-width="0"/></g><path d="M267.75,187.6608c0,13.25484 -11.52867,24 -25.75,24c-14.22133,0 -25.75,-10.74516 -25.75,-24c0,-13.25484 11.52867,-24 25.75,-24c14.22133,0 25.75,10.74516 25.75,24z" fill="#01d312" stroke="#029f0f" stroke-width="2.5" stroke-linecap="butt"/><path d="M257,176.5c0,-2.25 2.25,-2.25 2.25,-2.25l0.03496,0.04227c0.08226,-0.07064 0.16969,-0.13544 0.26164,-0.19375c0.55534,-0.3822 1.45527,-0.69782 2.51441,0.07267c0.02337,0.01678 0.0464,0.034 0.06908,0.05164c1.04116,0.79944 0.99464,1.75111 0.78462,2.39293c-0.07838,0.27609 -0.20816,0.53056 -0.37834,0.75242l-0.31761,0.42348l0.38125,0.50833l-1.98182,1.48636c-0.37911,0.2908 -0.85346,0.46364 -1.36818,0.46364c-1.24264,0 -2.25,-1.00736 -2.25,-2.25c0,-0.24605 0.0395,-0.48288 0.11249,-0.70449c-0.07128,-0.22767 -0.11249,-0.49098 -0.11249,-0.79551z" fill="#0f0f0f" stroke="none" stroke-width="0.5" stroke-linecap="butt"/><path d="M260.94776,192.76866l-0.44776,-0.26866c0.16999,-1.30883 -0.42804,-2.99801 0.50998,-3.92648c1.88375,-1.86456 7.98706,-2.17482 8.44806,1.99395c0.5723,5.17523 -4.83368,6.64182 -7.94806,3.859c-0.45845,-0.40965 -0.56356,-1.00566 -0.56222,-1.65782z" fill="#0f0f0f" stroke="none" stroke-width="0.5" stroke-linecap="butt"/><path d="M262.5,192c0,-0.69036 0.55964,-1.25 1.25,-1.25c0.69036,0 1.25,0.55964 1.25,1.25c0,0.69036 -0.55964,1.25 -1.25,1.25c-0.69036,0 -1.25,-0.55964 -1.25,-1.25z" fill="#e8e4e4" stroke="none" stroke-width="0.5" stroke-linecap="butt"/><path d="M259.5,178c0,-0.69036 0.55964,-1.25 1.25,-1.25c0.69036,0 1.25,0.55964 1.25,1.25c0,0.69036 -0.55964,1.25 -1.25,1.25c-0.69036,0 -1.25,-0.55964 -1.25,-1.25z" fill="#e8e4e4" stroke="none" stroke-width="0.5" stroke-linecap="butt"/></g></g></svg>