<svg version="1.1" xmlns="http://www.w3.org/2000/svg" xmlns:xlink="http://www.w3.org/1999/xlink" width="102.3528" height="33.86558" viewBox="0,0,102.3528,33.86558"><defs><radialGradient cx="228.66215" cy="283.81435" r="27.1" gradientUnits="userSpaceOnUse" id="color-1"><stop offset="0" stop-color="#e59406"/><stop offset="1" stop-color="#955904"/></radialGradient></defs><g transform="translate(-184.28348,-266.46454)"><g data-paper-data="{&quot;isPaintingLayer&quot;:true}" fill-rule="nonzero" stroke-linecap="butt" stroke-linejoin="miter" stroke-miterlimit="10" stroke-dasharray="" stroke-dashoffset="0" style="mix-blend-mode: normal"><g><path d="M185.28349,299.33012v-31.86558h100.3528v31.86558z" fill="#00d8ff" stroke="#c27e07" stroke-width="2"/><path d="M186.20629,298.5371v-11.13248h98.722v11.13248z" fill="#c27e07" stroke="none" stroke-width="0"/></g><g stroke-width="0.5"><path d="M205.78553,298.54689c0,0 0,-6.03276 0,-8.00132c0,-1.15141 -4.46136,-6.80413 -0.7039,-7.15908c3.75747,-0.35495 20.42884,-3.36847 39.06623,-0.84224c18.63739,2.52623 4.57532,7.14282 4.57532,8.42245c0,1.98238 0,7.5802 0,7.5802z" fill="#c27e07" stroke="#87611e"/><path d="M239.74852,293.70398c0,0.5264 -0.87987,0.5264 -0.87987,0.5264l-0.42566,-0.02701c-0.29051,0.05299 -0.581,0.10597 -0.8715,0.15896c-2.56699,1.57632 -10.74754,2.73978 -14.32949,2.38799c-2.20526,-0.21658 -4.30418,-1.06266 -6.54607,-1.046c0,0 -0.87987,0 -0.87987,-0.5264c0,-0.5264 0.87987,-0.5264 0.87987,-0.5264c2.40044,0.01363 4.48698,0.82174 6.82795,1.0596c3.30828,0.33615 10.69803,-0.82693 13.12246,-2.24435c0.41339,-0.08739 0.82679,-0.17478 1.24018,-0.26217l0.98214,-0.02701c0,0 0.87987,0 0.87987,0.5264z" fill="#87611e" stroke="none"/><path d="M224.48032,293.122c-0.78698,0.23541 -1.18047,-0.23541 -1.18047,-0.23541l-0.18713,-0.28432c-0.91845,-0.67387 -3.00536,-0.06376 -4.30511,-0.05638c0,0 -0.87987,0 -0.87987,-0.5264c0,-0.5264 0.87987,-0.5264 0.87987,-0.5264c2.1635,0.01607 3.70954,-0.63063 5.54943,0.36474l0.51677,0.55793c0,0 0.3935,0.47083 -0.39349,0.70624z" fill="#87611e" stroke="none"/><path d="M237.85434,292.70088c-0.78698,0.23541 -1.18047,-0.23541 -1.18047,-0.23541l0.15679,-0.15715c-2.73225,-0.54488 -4.21038,-0.40678 -6.6246,0.57029c0,0 -0.7321,0.292 -1.22016,-0.146c-0.48806,-0.43799 0.24403,-0.72999 0.24403,-0.72999c2.85233,-1.12385 4.90978,-1.3407 8.15721,-0.69308l0.86069,0.6851c0,0 0.3935,0.47083 -0.39349,0.70624z" fill="#87611e" stroke="none"/><path d="M255.76216,283.81435c0,4.19016 -12.13309,7.58695 -27.1,7.58695c-14.96691,0 -27.1,-3.39679 -27.1,-7.58695c0,-4.19016 12.13309,-7.58695 27.1,-7.58695c14.96691,0 27.1,3.39679 27.1,7.58695z" fill="url(#color-1)" stroke="#87611e"/></g><g stroke="none" stroke-width="1" font-family="Marker" font-weight="normal" font-size="40" text-anchor="start"><text transform="translate(201.51284,285.21671) scale(0.46735,0.46735)" font-size="40" xml:space="preserve" fill="#089628" fill-rule="nonzero" stroke="none" stroke-width="1" stroke-linecap="butt" stroke-linejoin="miter" stroke-miterlimit="10" stroke-dasharray="" stroke-dashoffset="0" font-family="Marker" font-weight="normal" text-anchor="start" style="mix-blend-mode: normal"><tspan x="0" dy="0">PLant</tspan></text><text transform="translate(201.97951,286.1996) scale(0.49465,0.49465)" font-size="40" xml:space="preserve" fill="#15ed3d" fill-rule="nonzero" stroke="none" stroke-width="1" stroke-linecap="butt" stroke-linejoin="miter" stroke-miterlimit="10" stroke-dasharray="" stroke-dashoffset="0" font-family="Marker" font-weight="normal" text-anchor="start" style="mix-blend-mode: normal"><tspan x="0" dy="0">PLant</tspan></text><text transform="translate(203.11284,285.41671) scale(0.46735,0.46735)" font-size="40" xml:space="preserve" fill="#08cc35" fill-rule="nonzero" stroke="none" stroke-width="1" stroke-linecap="butt" stroke-linejoin="miter" stroke-miterlimit="10" stroke-dasharray="" stroke-dashoffset="0" font-family="Marker" font-weight="normal" text-anchor="start" style="mix-blend-mode: normal"><tspan x="0" dy="0">PLant</tspan></text></g><g stroke-width="0.5"><path d="M270.30772,290.00878c-0.32815,0.07978 -0.62747,0.22311 -0.93623,0.27721c-0.05103,0.05696 -0.1306,0.10136 -0.25467,0.10136c-0.13605,0 -0.2186,-0.05341 -0.26868,-0.1182c-0.08098,-0.02202 -0.16379,-0.05441 -0.24899,-0.09944c-0.40039,-0.21159 -0.85611,-0.8889 -0.62964,-1.3475c-0.01453,0.01157 -0.0277,0.02183 -0.03894,0.03031c-0.34912,0.26334 -0.75958,0.8153 -1.225,0.88114c-1.26231,0.17857 -0.97891,-1.07678 -0.97891,-1.90113c0.25491,-0.31231 -0.31264,0.13007 -0.40483,0.15188c-0.56531,0.13372 -1.35203,-0.00714 -1.82958,-0.31852c-0.53303,-0.34756 -0.6958,-0.71822 -0.62272,-1.34859c0.00044,-0.00381 0.08381,-0.47155 0.18906,-0.71933c-0.12749,0.02011 -0.29104,0.01823 -0.37878,-0.00554c-0.24395,-0.06611 -0.46301,-0.20269 -0.69601,-0.30053c-0.58394,-0.24522 -1.94549,-0.55065 -1.88294,-1.44918c0.01491,-0.21412 0.22969,-0.36294 0.34454,-0.54441c0.17212,-0.22581 0.44205,-0.36507 0.61307,-0.59171c0.10292,-0.13639 -0.07855,-0.33236 -0.11844,-0.49839c-0.08994,-0.37432 -0.21175,-0.6349 0.04741,-1.01123c0.45119,-0.65516 1.24452,-0.15974 1.29694,-0.88093c0.03785,-0.52063 0.08385,-1.41133 -0.04496,-1.91435c-0.07316,-0.28569 -0.42809,-0.52334 -0.35722,-0.80961c0.22542,-0.91062 2.01922,0.30051 1.6492,-0.60331c-0.04231,-0.10334 -0.10104,-0.1992 -0.15156,-0.2988c-0.09225,-0.12276 -0.1845,-0.24551 -0.27674,-0.36826l-0.00543,-0.03196l-0.00972,0.00485l-0.18139,-0.36205c-0.02531,-0.04798 -0.03963,-0.10262 -0.03963,-0.16061c0,-0.19067 0.15488,-0.34525 0.34593,-0.34525c0.0581,0 0.11286,0.0143 0.16093,0.03955l0.36277,0.18103l-0.05915,0.11807c0.42929,0.14465 0.91281,0.26123 1.13582,0.03867c0.5276,-0.52655 -0.42722,-0.3778 -0.46125,-0.4324c-0.6138,-0.98502 0.91185,-1.41098 1.48612,-1.41538l0.0749,0.0182c0.01603,-0.8109 0.14432,-1.52029 1.09843,-1.76162c0.27181,-0.06875 0.64101,-0.19008 0.92328,-0.08276c0.38928,0.14801 0.65265,0.46615 0.76855,0.85221c0.01954,0.06507 -0.10791,0.18045 -0.04252,0.19932c0.30312,0.08749 0.57244,-0.26523 0.86138,-0.39177c0.49117,-0.2151 0.95877,-0.31865 1.42252,-0.47563c0.18383,-0.06223 0.31092,-0.32166 0.50292,-0.29305c0.23539,0.03509 0.36884,0.30031 0.55326,0.45047c0.06082,0.22429 -0.02701,0.48024 0.06388,0.69416c0.07276,0.17123 0.37134,-0.04745 0.55758,-0.04071c0.19095,0.0069 0.2563,0.10464 0.34471,-0.10105c0.0602,-0.14006 0.09615,-0.75213 0.11264,-0.76829c0.21329,-0.20889 0.54881,-0.23662 0.82761,-0.34401c0.76648,-0.29527 1.69496,-0.48573 2.51601,-0.5117c0.26769,-0.00847 0.5667,-0.10169 0.80311,0.02391c0.63101,0.33524 0.33518,1.20785 0.10012,1.8484c0.32476,-0.18356 0.70933,-0.24828 1.11159,-0.3821c0.88018,-0.29281 2.0499,-0.88036 2.53433,0.27619c0.24142,0.57639 0.1345,0.98328 -0.24761,1.45078c-0.12982,0.15883 -0.49153,0.18716 -0.47514,0.39147c0.09719,1.21151 2.64964,1.46683 1.49607,2.82349c-0.29932,0.45059 -0.57792,1.06894 -0.92442,1.47538c-0.10764,0.12626 -0.56329,0.20933 -0.41255,0.27898c1.0064,0.46502 1.85431,1.25416 2.59103,2.10087c0.27783,0.31931 0.84212,0.51996 0.85065,0.94277c0.02119,1.0498 -1.41273,1.10316 -2.24908,0.98595c0.01037,0.14798 0.00056,0.30155 0.01655,0.44786c0.03315,0.30317 0.2595,1.3387 0.06231,1.64846c-0.30452,0.47835 -1.59295,0.81484 -1.99688,0.34103c0.0475,0.08688 0.10178,0.20027 0.10872,0.26387c0.01997,0.18305 -0.01762,0.3691 0,0.55239c0.03814,0.39676 0.41656,0.96661 0.11383,1.35944c-0.12566,0.16306 -0.37777,0.1707 -0.57815,0.21897c-0.66063,0.15917 -1.33773,0.25496 -2.00271,0.42699c-0.66432,0.16811 -0.94242,0.21185 -1.37147,-0.13991c-0.03823,0.14571 -0.11127,0.29366 -0.17065,0.42136c-0.40624,0.87369 -1.09816,1.47111 -1.76058,2.16203c-0.15572,0.16242 -0.75163,0.9085 -1.11607,0.80743c-0.22772,-0.06315 -0.3083,-0.36244 -0.41909,-0.5708c-0.25631,-0.48206 -0.36616,-1.15382 -0.55834,-1.66952c-0.07231,-0.19402 0.01099,-0.44033 -0.10466,-0.61218c-0.09075,-0.13484 -0.32762,0.03003 -0.48082,0.08489c-0.19424,0.06955 -0.38477,0.15198 -0.56558,0.25127c-0.07476,0.04106 -0.1431,0.09228 -0.21068,0.14469c-0.03875,0.19938 -0.25939,0.25442 -0.25939,0.25442z" fill="#fff400" stroke="#dad232"/><path d="M279.40116,281.80223c0,3.5084 -3.0976,6.35253 -6.91868,6.35253c-3.82108,0 -6.91868,-2.84412 -6.91868,-6.35253c0,-3.5084 3.0976,-6.35253 6.91868,-6.35253c3.82108,0 6.91868,2.84412 6.91868,6.35253z" fill="#b7933a" stroke="#76622d"/><g fill="#907125" stroke="none"><g><path d="M270.89262,277.06086c0,-0.19067 0.15488,-0.34525 0.34593,-0.34525c0.19106,0 0.34593,0.15457 0.34593,0.34525c0,0.19067 -0.15488,0.34525 -0.34593,0.34525c-0.19106,0 -0.34593,-0.15457 -0.34593,-0.34525z"/><path d="M267.29491,280.74348c0,-0.19067 0.15488,-0.34525 0.34593,-0.34525c0.19106,0 0.34593,0.15457 0.34593,0.34525c0,0.19067 -0.15488,0.34525 -0.34593,0.34525c-0.19106,0 -0.34593,-0.15457 -0.34593,-0.34525z"/><path d="M268.30964,283.41338c0,-0.19067 0.15488,-0.34525 0.34593,-0.34525c0.19106,0 0.34593,0.15457 0.34593,0.34525c0,0.19067 -0.15488,0.34525 -0.34593,0.34525c-0.19106,0 -0.34593,-0.15457 -0.34593,-0.34525z"/><path d="M272.18411,285.25469c0,-0.19067 0.15488,-0.34525 0.34593,-0.34525c0.19106,0 0.34593,0.15457 0.34593,0.34525c0,0.19067 -0.15488,0.34525 -0.34593,0.34525c-0.19106,0 -0.34593,-0.15457 -0.34593,-0.34525z"/><path d="M274.30584,283.04512c0,-0.19067 0.15488,-0.34525 0.34593,-0.34525c0.19106,0 0.34593,0.15457 0.34593,0.34525c0,0.19067 -0.15488,0.34525 -0.34593,0.34525c-0.19106,0 -0.34593,-0.15457 -0.34593,-0.34525z"/><path d="M271.26162,282.76892c0,-0.19067 0.15488,-0.34525 0.34593,-0.34525c0.19106,0 0.34593,0.15457 0.34593,0.34525c0,0.19067 -0.15488,0.34525 -0.34593,0.34525c-0.19106,0 -0.34593,-0.15457 -0.34593,-0.34525z"/><path d="M270.61588,280.37522c0,-0.19067 0.15488,-0.34525 0.34593,-0.34525c0.19106,0 0.34593,0.15457 0.34593,0.34525c0,0.19067 -0.15488,0.34525 -0.34593,0.34525c-0.19106,0 -0.34593,-0.15457 -0.34593,-0.34525z"/><path d="M273.56785,279.73076c0,-0.19067 0.15488,-0.34525 0.34593,-0.34525c0.19106,0 0.34593,0.15457 0.34593,0.34525c0,0.19067 -0.15488,0.34525 -0.34593,0.34525c-0.19106,0 -0.34593,-0.15457 -0.34593,-0.34525z"/><path d="M274.39809,282.12446c0,-0.19067 0.15488,-0.34525 0.34593,-0.34525c0.19106,0 0.34593,0.15457 0.34593,0.34525c0,0.19067 -0.15488,0.34525 -0.34593,0.34525c-0.19106,0 -0.34593,-0.15457 -0.34593,-0.34525z"/><path d="M276.42757,282.95305c0,-0.19067 0.15488,-0.34525 0.34593,-0.34525c0.19106,0 0.34593,0.15457 0.34593,0.34525c0,0.19067 -0.15488,0.34525 -0.34593,0.34525c-0.19106,0 -0.34593,-0.15457 -0.34593,-0.34525z"/><path d="M275.78182,280.74348c0,-0.19067 0.15488,-0.34525 0.34593,-0.34525c0.19106,0 0.34593,0.15457 0.34593,0.34525c0,0.19067 -0.15488,0.34525 -0.34593,0.34525c-0.19106,0 -0.34593,-0.15457 -0.34593,-0.34525z"/><path d="M273.93684,278.8101c0,-0.19067 0.15488,-0.34525 0.34593,-0.34525c0.19106,0 0.34593,0.15457 0.34593,0.34525c0,0.19067 -0.15488,0.34525 -0.34593,0.34525c-0.19106,0 -0.34593,-0.15457 -0.34593,-0.34525z"/><path d="M272.73761,276.04813c0,-0.19067 0.15488,-0.34525 0.34593,-0.34525c0.19106,0 0.34593,0.15457 0.34593,0.34525c0,0.19067 -0.15488,0.34525 -0.34593,0.34525c-0.19106,0 -0.34593,-0.15457 -0.34593,-0.34525z"/><path d="M274.02909,286.26741c0,-0.19067 0.15488,-0.34525 0.34593,-0.34525c0.19106,0 0.34593,0.15457 0.34593,0.34525c0,0.19067 -0.15488,0.34525 -0.34593,0.34525c-0.19106,0 -0.34593,-0.15457 -0.34593,-0.34525z"/></g><g data-paper-data="{&quot;index&quot;:null}"><path d="M274.25971,285.80708c0,0.19067 -0.15488,0.34525 -0.34593,0.34525c-0.19106,0 -0.34593,-0.15457 -0.34593,-0.34525c0,-0.19067 0.15488,-0.34525 0.34593,-0.34525c0.19106,0 0.34593,0.15457 0.34593,0.34525z"/><path d="M277.85744,282.12446c0,0.19067 -0.15488,0.34525 -0.34593,0.34525c-0.19106,0 -0.34593,-0.15457 -0.34593,-0.34525c0,-0.19067 0.15488,-0.34525 0.34593,-0.34525c0.19106,0 0.34593,0.15457 0.34593,0.34525z"/><path d="M276.84269,279.45456c0,0.19067 -0.15488,0.34525 -0.34593,0.34525c-0.19106,0 -0.34593,-0.15457 -0.34593,-0.34525c0,-0.19067 0.15488,-0.34525 0.34593,-0.34525c0.19106,0 0.34593,0.15457 0.34593,0.34525z"/><path d="M272.96823,277.61325c0,0.19067 -0.15488,0.34525 -0.34593,0.34525c-0.19106,0 -0.34593,-0.15457 -0.34593,-0.34525c0,-0.19067 0.15488,-0.34525 0.34593,-0.34525c0.19106,0 0.34593,0.15457 0.34593,0.34525z"/><path d="M270.8465,279.82282c0,0.19067 -0.15488,0.34525 -0.34593,0.34525c-0.19106,0 -0.34593,-0.15457 -0.34593,-0.34525c0,-0.19067 0.15488,-0.34525 0.34593,-0.34525c0.19106,0 0.34593,0.15457 0.34593,0.34525z"/><path d="M273.89072,280.09902c0,0.19067 -0.15488,0.34525 -0.34593,0.34525c-0.19106,0 -0.34593,-0.15457 -0.34593,-0.34525c0,-0.19067 0.15488,-0.34525 0.34593,-0.34525c0.19106,0 0.34593,0.15457 0.34593,0.34525z"/><path d="M274.53646,282.49272c0,0.19067 -0.15488,0.34525 -0.34593,0.34525c-0.19106,0 -0.34593,-0.15457 -0.34593,-0.34525c0,-0.19067 0.15488,-0.34525 0.34593,-0.34525c0.19106,0 0.34593,0.15457 0.34593,0.34525z"/><path d="M271.58449,283.13718c0,0.19067 -0.15488,0.34525 -0.34593,0.34525c-0.19106,0 -0.34593,-0.15457 -0.34593,-0.34525c0,-0.19067 0.15488,-0.34525 0.34593,-0.34525c0.19106,0 0.34593,0.15457 0.34593,0.34525z"/><path d="M270.75425,280.74348c0,0.19067 -0.15488,0.34525 -0.34593,0.34525c-0.19106,0 -0.34593,-0.15457 -0.34593,-0.34525c0,-0.19067 0.15488,-0.34525 0.34593,-0.34525c0.19106,0 0.34593,0.15457 0.34593,0.34525z"/><path d="M268.72477,279.91489c0,0.19067 -0.15488,0.34525 -0.34593,0.34525c-0.19106,0 -0.34593,-0.15457 -0.34593,-0.34525c0,-0.19067 0.15488,-0.34525 0.34593,-0.34525c0.19106,0 0.34593,0.15457 0.34593,0.34525z"/><path d="M269.37051,282.12446c0,0.19067 -0.15488,0.34525 -0.34593,0.34525c-0.19106,0 -0.34593,-0.15457 -0.34593,-0.34525c0,-0.19067 0.15488,-0.34525 0.34593,-0.34525c0.19106,0 0.34593,0.15457 0.34593,0.34525z"/><path d="M271.2155,284.05784c0,0.19067 -0.15488,0.34525 -0.34593,0.34525c-0.19106,0 -0.34593,-0.15457 -0.34593,-0.34525c0,-0.19067 0.15488,-0.34525 0.34593,-0.34525c0.19106,0 0.34593,0.15457 0.34593,0.34525z"/><path d="M272.41473,286.8198c0,0.19067 -0.15488,0.34525 -0.34593,0.34525c-0.19106,0 -0.34593,-0.15457 -0.34593,-0.34525c0,-0.19067 0.15488,-0.34525 0.34593,-0.34525c0.19106,0 0.34593,0.15457 0.34593,0.34525z"/><path d="M271.12324,276.60053c0,0.19067 -0.15488,0.34525 -0.34593,0.34525c-0.19106,0 -0.34593,-0.15457 -0.34593,-0.34525c0,-0.19067 0.15488,-0.34525 0.34593,-0.34525c0.19106,0 0.34593,0.15457 0.34593,0.34525z"/></g></g><g data-paper-data="{&quot;index&quot;:null}" fill="#907125" stroke="none"><g><path d="M273.63703,277.6823c-0.19106,0 -0.34593,-0.15457 -0.34593,-0.34525c0,-0.19067 0.15488,-0.34525 0.34593,-0.34525c0.19106,0 0.34593,0.15457 0.34593,0.34525c0,0.19067 -0.15488,0.34525 -0.34593,0.34525z"/><path d="M277.23475,281.36492c-0.19106,0 -0.34593,-0.15457 -0.34593,-0.34525c0,-0.19067 0.15488,-0.34525 0.34593,-0.34525c0.19106,0 0.34593,0.15457 0.34593,0.34525c0,0.19067 -0.15488,0.34525 -0.34593,0.34525z"/><path d="M276.22001,284.03482c-0.19106,0 -0.34593,-0.15457 -0.34593,-0.34525c0,-0.19067 0.15488,-0.34525 0.34593,-0.34525c0.19106,0 0.34593,0.15457 0.34593,0.34525c0,0.19067 -0.15488,0.34525 -0.34593,0.34525z"/><path d="M272.34554,285.87614c-0.19106,0 -0.34593,-0.15457 -0.34593,-0.34525c0,-0.19067 0.15488,-0.34525 0.34593,-0.34525c0.19106,0 0.34593,0.15457 0.34593,0.34525c0,0.19067 -0.15488,0.34525 -0.34593,0.34525z"/><path d="M270.22382,283.66656c-0.19106,0 -0.34593,-0.15457 -0.34593,-0.34525c0,-0.19067 0.15488,-0.34525 0.34593,-0.34525c0.19106,0 0.34593,0.15457 0.34593,0.34525c0,0.19067 -0.15488,0.34525 -0.34593,0.34525z"/><path d="M273.26804,283.39036c-0.19106,0 -0.34593,-0.15457 -0.34593,-0.34525c0,-0.19067 0.15488,-0.34525 0.34593,-0.34525c0.19106,0 0.34593,0.15457 0.34593,0.34525c0,0.19067 -0.15488,0.34525 -0.34593,0.34525z"/><path d="M273.91378,280.99666c-0.19106,0 -0.34593,-0.15457 -0.34593,-0.34525c0,-0.19067 0.15488,-0.34525 0.34593,-0.34525c0.19106,0 0.34593,0.15457 0.34593,0.34525c0,0.19067 -0.15488,0.34525 -0.34593,0.34525z"/><path d="M270.96181,280.3522c-0.19106,0 -0.34593,-0.15457 -0.34593,-0.34525c0,-0.19067 0.15488,-0.34525 0.34593,-0.34525c0.19106,0 0.34593,0.15457 0.34593,0.34525c0,0.19067 -0.15488,0.34525 -0.34593,0.34525z"/><path d="M270.13157,282.7459c-0.19106,0 -0.34593,-0.15457 -0.34593,-0.34525c0,-0.19067 0.15488,-0.34525 0.34593,-0.34525c0.19106,0 0.34593,0.15457 0.34593,0.34525c0,0.19067 -0.15488,0.34525 -0.34593,0.34525z"/><path d="M268.10208,283.5745c-0.19106,0 -0.34593,-0.15457 -0.34593,-0.34525c0,-0.19067 0.15488,-0.34525 0.34593,-0.34525c0.19106,0 0.34593,0.15457 0.34593,0.34525c0,0.19067 -0.15488,0.34525 -0.34593,0.34525z"/><path d="M268.74783,281.36492c-0.19106,0 -0.34593,-0.15457 -0.34593,-0.34525c0,-0.19067 0.15488,-0.34525 0.34593,-0.34525c0.19106,0 0.34593,0.15457 0.34593,0.34525c0,0.19067 -0.15488,0.34525 -0.34593,0.34525z"/><path d="M270.59281,279.43154c-0.19106,0 -0.34593,-0.15457 -0.34593,-0.34525c0,-0.19067 0.15488,-0.34525 0.34593,-0.34525c0.19106,0 0.34593,0.15457 0.34593,0.34525c0,0.19067 -0.15488,0.34525 -0.34593,0.34525z"/><path d="M271.79205,276.66957c-0.19106,0 -0.34593,-0.15457 -0.34593,-0.34525c0,-0.19067 0.15488,-0.34525 0.34593,-0.34525c0.19106,0 0.34593,0.15457 0.34593,0.34525c0,0.19067 -0.15488,0.34525 -0.34593,0.34525z"/><path d="M270.50056,286.88886c-0.19106,0 -0.34593,-0.15457 -0.34593,-0.34525c0,-0.19067 0.15488,-0.34525 0.34593,-0.34525c0.19106,0 0.34593,0.15457 0.34593,0.34525c0,0.19067 -0.15488,0.34525 -0.34593,0.34525z"/></g><g data-paper-data="{&quot;index&quot;:null}"><path d="M270.96181,285.73804c0.19106,0 0.34593,0.15457 0.34593,0.34525c0,0.19067 -0.15488,0.34525 -0.34593,0.34525c-0.19106,0 -0.34593,-0.15457 -0.34593,-0.34525c0,-0.19067 0.15488,-0.34525 0.34593,-0.34525z"/><path d="M267.36409,282.05541c0.19106,0 0.34593,0.15457 0.34593,0.34525c0,0.19067 -0.15488,0.34525 -0.34593,0.34525c-0.19106,0 -0.34593,-0.15457 -0.34593,-0.34525c0,-0.19067 0.15488,-0.34525 0.34593,-0.34525z"/><path d="M268.37883,279.38551c0.19106,0 0.34593,0.15457 0.34593,0.34525c0,0.19067 -0.15488,0.34525 -0.34593,0.34525c-0.19106,0 -0.34593,-0.15457 -0.34593,-0.34525c0,-0.19067 0.15488,-0.34525 0.34593,-0.34525z"/><path d="M272.2533,277.5442c0.19106,0 0.34593,0.15457 0.34593,0.34525c0,0.19067 -0.15488,0.34525 -0.34593,0.34525c-0.19106,0 -0.34593,-0.15457 -0.34593,-0.34525c0,-0.19067 0.15488,-0.34525 0.34593,-0.34525z"/><path d="M274.37503,279.75377c0.19106,0 0.34593,0.15457 0.34593,0.34525c0,0.19067 -0.15488,0.34525 -0.34593,0.34525c-0.19106,0 -0.34593,-0.15457 -0.34593,-0.34525c0,-0.19067 0.15488,-0.34525 0.34593,-0.34525z"/><path d="M271.3308,280.02997c0.19106,0 0.34593,0.15457 0.34593,0.34525c0,0.19067 -0.15488,0.34525 -0.34593,0.34525c-0.19106,0 -0.34593,-0.15457 -0.34593,-0.34525c0,-0.19067 0.15488,-0.34525 0.34593,-0.34525z"/><path d="M270.68506,282.42368c0.19106,0 0.34593,0.15457 0.34593,0.34525c0,0.19067 -0.15488,0.34525 -0.34593,0.34525c-0.19106,0 -0.34593,-0.15457 -0.34593,-0.34525c0,-0.19067 0.15488,-0.34525 0.34593,-0.34525z"/><path d="M273.63703,283.06814c0.19106,0 0.34593,0.15457 0.34593,0.34525c0,0.19067 -0.15488,0.34525 -0.34593,0.34525c-0.19106,0 -0.34593,-0.15457 -0.34593,-0.34525c0,-0.19067 0.15488,-0.34525 0.34593,-0.34525z"/><path d="M274.46728,280.67443c0.19106,0 0.34593,0.15457 0.34593,0.34525c0,0.19067 -0.15488,0.34525 -0.34593,0.34525c-0.19106,0 -0.34593,-0.15457 -0.34593,-0.34525c0,-0.19067 0.15488,-0.34525 0.34593,-0.34525z"/><path d="M276.49676,279.84584c0.19106,0 0.34593,0.15457 0.34593,0.34525c0,0.19067 -0.15488,0.34525 -0.34593,0.34525c-0.19106,0 -0.34593,-0.15457 -0.34593,-0.34525c0,-0.19067 0.15488,-0.34525 0.34593,-0.34525z"/><path d="M275.85101,282.05541c0.19106,0 0.34593,0.15457 0.34593,0.34525c0,0.19067 -0.15488,0.34525 -0.34593,0.34525c-0.19106,0 -0.34593,-0.15457 -0.34593,-0.34525c0,-0.19067 0.15488,-0.34525 0.34593,-0.34525z"/><path d="M274.00603,283.98879c0.19106,0 0.34593,0.15457 0.34593,0.34525c0,0.19067 -0.15488,0.34525 -0.34593,0.34525c-0.19106,0 -0.34593,-0.15457 -0.34593,-0.34525c0,-0.19067 0.15488,-0.34525 0.34593,-0.34525z"/><path d="M272.80679,286.75076c0.19106,0 0.34593,0.15457 0.34593,0.34525c0,0.19067 -0.15488,0.34525 -0.34593,0.34525c-0.19106,0 -0.34593,-0.15457 -0.34593,-0.34525c0,-0.19067 0.15488,-0.34525 0.34593,-0.34525z"/><path d="M274.09828,276.53147c0.19106,0 0.34593,0.15457 0.34593,0.34525c0,0.19067 -0.15488,0.34525 -0.34593,0.34525c-0.19106,0 -0.34593,-0.15457 -0.34593,-0.34525c0,-0.19067 0.15488,-0.34525 0.34593,-0.34525z"/></g></g><path d="M271.05406,279.36249c0,1.06778 -0.49562,1.93338 -1.10699,1.93338c-0.61138,0 -1.10699,-0.8656 -1.10699,-1.93338c0,-1.06778 0.49562,-1.93338 1.10699,-1.93338c0.61138,0 1.10699,0.8656 1.10699,1.93338z" fill="#000000" stroke="none"/><path d="M275.66652,278.99423c0,1.06778 -0.45432,1.93338 -1.01474,1.93338c-0.56043,0 -1.01474,-0.8656 -1.01474,-1.93338c0,-1.06778 0.45432,-1.93338 1.01474,-1.93338c0.56043,0 1.01474,0.8656 1.01474,1.93338z" fill="#000000" stroke="none"/><path d="M270.59281,278.85613c0,0.4322 -0.2065,0.78255 -0.46125,0.78255c-0.25474,0 -0.46125,-0.35037 -0.46125,-0.78255c0,-0.4322 0.2065,-0.78256 0.46125,-0.78256c0.25474,0 0.46125,0.35037 0.46125,0.78256z" fill="#fafafa" stroke="none"/><path d="M275.29752,278.48787c0,0.63558 -0.18586,1.15082 -0.41512,1.15082c-0.22927,0 -0.41512,-0.51524 -0.41512,-1.15082c0,-0.63558 0.18586,-1.15082 0.41512,-1.15082c0.22927,0 0.41512,0.51524 0.41512,1.15082z" fill="#fafafa" stroke="none"/><path d="M268.85116,282.94568c0.19189,0.28726 -0.09595,0.47877 -0.09595,0.47877l-0.09532,0.05743c0.31335,0.4753 0.95254,0.90635 1.39472,1.21478c0.70233,0.48989 1.63518,1.28995 2.58044,1.05062c0.26659,-0.0675 0.4716,-0.29998 0.73799,-0.36827c0.57648,-0.14777 0.79712,-0.03355 1.26095,-0.49646c0.66432,-0.32135 0.69276,-0.89998 0.99009,-1.51162c-0.00052,-0.00019 -0.00104,-0.00038 -0.00156,-0.00057l-0.0252,0.04302c0,0 0,-0.01993 0.0048,-0.05022c-0.13884,-0.04779 -0.28389,-0.07257 -0.39686,-0.06486c0,0 -0.34593,0 -0.34593,-0.34525c0,-0.34525 0.34593,-0.34525 0.34593,-0.34525c0.71236,0.02638 1.30529,0.33577 1.53484,0.99803l0.09225,0.36827c0,0 0.0839,0.33494 -0.25171,0.41867c-0.33561,0.08373 -0.41951,-0.2512 -0.41951,-0.2512l-0.04629,-0.18477c-0.25753,0.59956 -0.39837,1.13828 -1.07632,1.4859c-0.49779,0.4968 -0.88677,0.45945 -1.50653,0.60832c-0.60257,0.14475 -0.91143,0.46646 -1.59848,0.37482c-1.30942,-0.17466 -3.17098,-1.48257 -3.89612,-2.66659c-0.11411,0.04276 -0.22576,0.09223 -0.33411,0.14705c0,0 -0.30941,0.1544 -0.46412,-0.1544c-0.1547,-0.3088 0.1547,-0.46319 0.1547,-0.46319c0.18552,-0.09152 0.3781,-0.17097 0.57535,-0.2348c0.02648,-0.01987 0.05836,-0.03787 0.09662,-0.05314c0.05829,-0.02327 0.11023,-0.03176 0.15622,-0.03007l0.14937,-0.12078c0,0 0.28783,-0.19151 0.47972,0.09576z" fill="#000000" stroke="none"/></g></g></g></svg>