<svg version="1.1" xmlns="http://www.w3.org/2000/svg" xmlns:xlink="http://www.w3.org/1999/xlink" width="61.64182" height="71.227" viewBox="0,0,61.64182,71.227"><defs><radialGradient cx="259.39459" cy="180.56092" r="7.03903" gradientUnits="userSpaceOnUse" id="color-1"><stop offset="0" stop-color="#b40404"/><stop offset="1" stop-color="#ff0505"/></radialGradient></defs><g transform="translate(-226.56926,-167.01298)"><g data-paper-data="{&quot;isPaintingLayer&quot;:true}" fill-rule="nonzero" stroke-linejoin="miter" stroke-miterlimit="10" stroke-dasharray="" stroke-dashoffset="0" style="mix-blend-mode: normal"><g><path d="M287.93935,200.4179c0.65124,9.70272 -13.44014,24.73919 -27.86981,25.70771c-14.42967,0.96852 -26.21776,-6.54935 -26.869,-16.25207c-0.13964,-2.08036 1.92125,-5.39506 2.6329,-7.57098c0.37922,-1.1595 0.12659,-2.65471 0.83431,-3.60245c0.71203,-0.95353 2.61792,-2.48766 2.61792,-2.48766c0,0 3.11319,-5.79995 4.04442,-6.3731c0.41346,-0.25448 1.3445,-1.01595 1.87131,-1.35252c0.96183,-0.61449 2.09807,-1.1933 3.29889,-1.95501c1.90487,-1.20832 7.76526,-5.93303 13.38725,-6.23673c5.62198,-0.30371 11.16845,4.0922 12.64554,4.83039c2.47421,1.23652 4.77018,3.23717 6.66439,4.55705c0.82471,0.57466 1.66229,0.52534 2.25645,1.05499c0.48548,0.43276 0.94021,0.88297 1.36208,1.34937c0.77697,0.859 1.44238,1.77293 1.9826,2.73389c0.56566,1.0062 0.99409,2.06396 1.26966,3.16427c0.17328,0.69186 -0.17747,1.70962 -0.12892,2.43287z" fill="#d7c195" stroke="#6b4b04" stroke-width="0.5" stroke-linecap="butt"/><path d="M259.57325,185.99071l0.80776,-15.96346l6.6952,-0.35339l-4.54015,17.55776" fill="#7b7878" stroke="#42413f" stroke-width="0.5" stroke-linecap="round"/><path d="M269.99655,173.1793c0.23555,3.5094 -2.97774,7.19861 -6.85656,7.45895c-3.87883,0.26034 -7.21418,-2.37354 -7.44974,-5.88294c-0.23555,-3.5094 3.1085,-7.23199 6.98732,-7.49233c3.87883,-0.26034 7.08343,2.40691 7.31898,5.91632z" fill="url(#color-1)" stroke="#7e0707" stroke-width="0.5" stroke-linecap="butt"/><path d="M278.03918,194.00846c0.21214,3.16052 -1.25138,3.60587 -2.9284,3.71842c-1.67701,0.11256 -2.25074,-0.15029 -2.46286,-3.31081c-0.21214,-3.16052 0.29365,-2.69702 1.97067,-2.80957c1.67701,-0.11256 3.20847,-0.75857 3.4206,2.40195z" fill="#0b0a0a" stroke="none" stroke-width="0" stroke-linecap="butt"/><path d="M283.37143,195.09634c0.18833,2.80578 -0.75266,2.72275 -1.88141,2.79852c-1.12876,0.07576 -2.01785,0.28161 -2.20618,-2.52415c-0.18833,-2.80578 0.57405,-3.81058 1.7028,-3.88634c1.12876,-0.07576 2.19645,0.80621 2.38478,3.61198z" fill="#0b0a0a" stroke="none" stroke-width="0" stroke-linecap="butt"/><path d="M278.12503,194.18029c0.05845,0.87076 -1.42116,3.21859 -1.71141,3.23807c-0.29025,0.01948 -2.91477,-2.04688 -2.97321,-2.91764c-0.05845,-0.87076 3.22929,-2.37603 3.51954,-2.39552c0.29025,-0.01948 1.10664,1.20433 1.16509,2.07509z" fill="#f0eeee" stroke="none" stroke-width="0" stroke-linecap="butt"/><path d="M282.95005,193.77056c0.05195,0.77401 -0.3432,3.62642 -0.76245,3.65456c-0.41925,0.02814 -2.43186,-2.62616 -2.48381,-3.40017c-0.05195,-0.77401 1.89757,-2.03422 2.31682,-2.06236c0.41925,-0.02814 0.87749,1.03396 0.92944,1.80797z" fill="#f0eeee" stroke="none" stroke-width="0" stroke-linecap="butt"/><path d="M255.07816,187.43509c0,0 3.69024,-1.35723 5.33517,-1.35976c1.37186,-0.00211 4.85634,2.63654 4.85634,2.63654" fill="none" stroke="#6b4b04" stroke-width="1" stroke-linecap="round"/><path d="M276.46537,213.88169c0,0 -0.30094,0.29412 -3.5212,0.22569c-2.86241,-0.06083 -2.28106,-0.15518 -2.28106,-0.15518" fill="none" stroke="#6b4b04" stroke-width="2" stroke-linecap="round"/></g><g stroke-linecap="butt"><g data-paper-data="{&quot;index&quot;:null}"><path d="M267.00131,228.93257c0,0 -1.41436,-3.79219 -1.41436,-5.76686c0,-0.6448 -0.84238,-1.64055 -0.70696,-2.47762c0.27929,-1.72643 1.64987,-3.28924 1.64987,-3.28924c0,0 1.51306,-0.88141 3.03714,-1.20079c0.97252,-0.2038 2.17068,0.10073 2.97156,0.10073c0.88154,0 2.77933,-0.95075 4.07654,-0.83624c2.0741,0.1831 2.61023,0.14958 3.50369,1.46484c0.89345,1.31527 3.25293,4.3206 2.82874,6.55263c-0.56519,2.97393 0.53866,3.1758 0.53866,3.1758l-3.52455,1.33385l-3.58821,4.90949c0,0 -2.78327,-1.295 -2.89195,-1.295c-0.94566,0 -3.37816,-1.53949 -3.37816,-1.53949z" fill="#6b4b04" stroke="#362602" stroke-width="1"/><path d="M268.32435,220.87926l3.99257,-1.53717l-1.29268,5.38916z" fill="#f6dfb1" stroke="none" stroke-width="0"/></g><g data-paper-data="{&quot;index&quot;:null}"><path d="M227.86156,220.14416c0,0 -0.7923,-2.1243 -0.7923,-3.23047c0,-0.3612 -0.05667,-1.33421 0.01919,-1.80312c0.15645,-0.96711 0.92422,-1.84256 0.92422,-1.84256c0,0 0.84758,-0.49375 1.70133,-0.67266c0.54479,-0.11416 1.21597,0.05643 1.66461,0.05643c0.49382,0 0.69056,-1.59628 0.69056,-1.59628c0,0 2.1202,-0.16843 3.31571,0.43702c0.84771,0.42931 0.83261,1.60584 1.04026,1.91152c0.26893,0.39589 1.50421,0.94959 1.66424,1.57119c0.13779,0.53524 -1.18516,1.53603 -1.29511,2.11453c-0.3166,1.66593 0.30175,1.77901 0.30175,1.77901l-1.97438,0.7472l0.63059,2.06839l-2.64062,0.6818c0,0 -1.55913,-0.72543 -1.62001,-0.72543c-0.52974,0 -1.89237,-0.86239 -1.89237,-0.86239z" fill="#6b4b04" stroke="#362602" stroke-width="1"/><path d="M228.13761,215.13764l3.19686,-0.94112c0,0 -1.04096,1.56642 -1.33316,2.10399c-0.26701,0.49122 -0.28633,2.45046 -0.28633,2.45046z" fill="#f6dfb1" stroke="none" stroke-width="0"/></g><g data-paper-data="{&quot;index&quot;:null}"><path d="M284.86751,218.16531c0,0 0.8214,2.20234 0.8214,3.34914c0,0.37447 0.48921,0.95276 0.41057,1.43889c-0.1622,1.00263 -0.95817,1.91025 -0.95817,1.91025c0,0 -0.87872,0.51188 -1.76383,0.69737c-0.5648,0.11836 -1.26064,-0.0585 -1.72576,-0.0585c-0.51196,0 -1.37297,0.31102 -2.12633,0.24451c-1.20455,-0.10634 -1.75704,0.15427 -2.27592,-0.60958c-0.51888,-0.76385 -1.88916,-2.50921 -1.64281,-3.80547c0.32823,-1.72713 -0.31283,-1.84436 -0.31283,-1.84436l2.04691,-0.77464l2.49908,-3.26643c0,0 1.20119,1.16729 1.26431,1.16729c0.5492,0 1.96189,0.89407 1.96189,0.89407z" fill="#6b4b04" stroke="#362602" stroke-width="1"/><path d="M284.09916,222.84231l-2.31871,0.89272l0.75073,-3.12978z" fill="#f6dfb1" stroke="none" stroke-width="0"/></g><g data-paper-data="{&quot;index&quot;:null}"><path d="M278.77869,222.11399c0,0 1.41437,3.79219 1.41437,5.76686c0,0.6448 0.84238,1.64055 0.70696,2.47762c-0.27929,1.72643 -1.64987,3.28924 -1.64987,3.28924c0,0 -1.51306,0.88141 -3.03714,1.20079c-0.97252,0.2038 -2.17068,-0.10073 -2.97156,-0.10073c-0.88154,0 -2.36412,0.53554 -3.66133,0.42102c-2.0741,-0.1831 -3.02545,0.26563 -3.9189,-1.04963c-0.89345,-1.31527 -3.25292,-4.3206 -2.82874,-6.55262c0.56519,-2.97393 -0.53866,-3.1758 -0.53866,-3.1758l3.52455,-1.33385l3.58821,-4.90949c0,0 2.78327,1.295 2.89195,1.295c0.94566,0 3.37816,1.5395 3.37816,1.5395z" fill="#6b4b04" stroke="#362602" stroke-width="1"/><path d="M277.45565,230.1673l-3.99258,1.53718l1.29268,-5.38916z" fill="#f6dfb1" stroke="none" stroke-width="0"/></g><g data-paper-data="{&quot;index&quot;:null}"><path d="M266.10526,234.77895c0,0 -2.4325,1.53949 -3.37816,1.53949c-0.10868,0 -2.89195,1.29499 -2.89195,1.29499l-3.58821,-4.90949l-3.52455,-1.33386c0,0 1.10385,-0.20186 0.53866,-3.17579c-0.42419,-2.23203 1.93528,-5.23736 2.82874,-6.55263c0.89346,-1.31526 1.8448,-0.86654 3.9189,-1.04963c1.29721,-0.11452 2.77979,0.42102 3.66132,0.42102c0.80088,0 1.99904,-0.30453 2.97157,-0.10073c1.52408,0.31939 3.03713,1.20079 3.03713,1.20079c0,0 1.37057,1.56281 1.64987,3.28924c0.13542,0.83708 -0.70696,1.83282 -0.70696,2.47762c0,1.97467 -1.41437,5.76687 -1.41437,5.76687z" fill="#6b4b04" stroke="#362602" stroke-width="1"/><path d="M265.18433,229.44553l-1.29268,-5.38916l3.99257,1.53718z" fill="#f6dfb1" stroke="none" stroke-width="0"/></g><g data-paper-data="{&quot;index&quot;:null}"><path d="M255.81957,233.49324c0,0 -2.4325,1.53949 -3.37816,1.53949c-0.10868,0 -2.89196,1.295 -2.89196,1.295l-3.5882,-4.90949l-3.52455,-1.33385c0,0 1.10385,-0.20186 0.53866,-3.17579c-0.42418,-2.23202 0.50671,-4.52307 1.40017,-5.83834c0.89345,-1.31527 5.63319,-4.04963 5.63319,-4.04963c0,0 2.49407,2.70674 3.37561,2.70674c0.80088,0 1.99905,-0.30453 2.97157,-0.10073c1.52408,0.31939 3.03713,1.20079 3.03713,1.20079c0,0 1.37058,1.56282 1.64987,3.28924c0.13542,0.83707 -0.70695,1.83282 -0.70695,2.47762c0,1.97467 -1.41437,5.76687 -1.41437,5.76687z" fill="#6b4b04" stroke="#362602" stroke-width="1"/><path d="M254.89864,228.01696l-1.29268,-5.38915l3.99257,1.53717z" fill="#f6dfb1" stroke="none" stroke-width="0"/></g><g data-paper-data="{&quot;index&quot;:null}"><path d="M246.63585,217.70147c0,0 1.41437,3.79219 1.41437,5.76687c0,0.6448 0.84238,1.64055 0.70696,2.47762c-0.27929,1.72643 -1.64987,3.28925 -1.64987,3.28925c0,0 -1.51305,0.88141 -3.03713,1.20079c-0.97252,0.2038 -2.17068,-0.10073 -2.97157,-0.10073c-0.88154,0 -3.37561,2.70674 -3.37561,2.70674c0,0 -4.73973,-2.73437 -5.63318,-4.04964c-0.89345,-1.31527 -1.82435,-3.60631 -1.40016,-5.83834c0.56519,-2.97393 -0.53867,-3.17579 -0.53867,-3.17579l3.52455,-1.33385l4.00342,-5.3247c0,0 2.78328,1.295 2.89195,1.295c0.94566,0 2.96295,1.9547 2.96295,1.9547z" fill="#6b4b04" stroke="#362602" stroke-width="1"/><path d="M245.31282,225.89764l-3.99258,1.53717l1.29268,-5.38916z" fill="#f6dfb1" stroke="none" stroke-width="0"/></g></g></g></g></svg>