<svg version="1.1" xmlns="http://www.w3.org/2000/svg" xmlns:xlink="http://www.w3.org/1999/xlink" width="134.9014" height="212.07111" viewBox="0,0,134.9014,212.07111"><defs><radialGradient cx="260.36013" cy="185.62613" r="39.00129" gradientUnits="userSpaceOnUse" id="color-1"><stop offset="0" stop-color="#4000bf"/><stop offset="1" stop-color="#38a000"/></radialGradient><linearGradient x1="260.36012" y1="152.29279" x2="260.36012" y2="218.95946" gradientUnits="userSpaceOnUse" id="color-2"><stop offset="0" stop-color="#797979"/><stop offset="1" stop-color="#bfbfbf"/></linearGradient><radialGradient cx="256.06694" cy="141.32784" r="16.33333" gradientUnits="userSpaceOnUse" id="color-3"><stop offset="0" stop-color="#b5b5b5"/><stop offset="1" stop-color="#c9c9c9"/></radialGradient><radialGradient cx="241.01332" cy="127.91966" r="9.88289" gradientUnits="userSpaceOnUse" id="color-4"><stop offset="0" stop-color="#bc1818"/><stop offset="1" stop-color="#9b18bc"/></radialGradient><radialGradient cx="237.81102" cy="118.89359" r="7.46965" gradientUnits="userSpaceOnUse" id="color-5"><stop offset="0" stop-color="#bc1818"/><stop offset="1" stop-color="#9b18bc"/></radialGradient><radialGradient cx="204.7889" cy="117.96927" r="10.47714" gradientUnits="userSpaceOnUse" id="color-6"><stop offset="0" stop-color="#569ffe"/><stop offset="1" stop-color="#bfebf3"/></radialGradient><linearGradient x1="207.46702" y1="105.68672" x2="234.95309" y2="127.48358" gradientUnits="userSpaceOnUse" id="color-7"><stop offset="0" stop-color="#070707"/><stop offset="1" stop-color="#ff0000"/></linearGradient><linearGradient x1="207.55487" y1="106.44781" x2="235.04096" y2="128.24468" gradientUnits="userSpaceOnUse" id="color-8"><stop offset="0" stop-color="#070707"/><stop offset="1" stop-color="#ff0000"/></linearGradient><linearGradient x1="207.88216" y1="105.94262" x2="235.36825" y2="127.73949" gradientUnits="userSpaceOnUse" id="color-9"><stop offset="0" stop-color="#070707"/><stop offset="1" stop-color="#ff0000"/></linearGradient><linearGradient x1="207.63532" y1="105.47448" x2="235.12141" y2="127.27135" gradientUnits="userSpaceOnUse" id="color-10"><stop offset="0" stop-color="#ff0000" stop-opacity="0"/><stop offset="1" stop-color="#ff0000"/></linearGradient><linearGradient x1="207.18326" y1="105.73408" x2="234.66934" y2="127.53096" gradientUnits="userSpaceOnUse" id="color-11"><stop offset="0" stop-color="#ff0000" stop-opacity="0"/><stop offset="1" stop-color="#ff0000"/></linearGradient><linearGradient x1="207.28939" y1="105.81824" x2="234.77548" y2="127.61511" gradientUnits="userSpaceOnUse" id="color-12"><stop offset="0" stop-color="#ff0000" stop-opacity="0"/><stop offset="1" stop-color="#ff0000"/></linearGradient></defs><g transform="translate(-168.86026,-59.97273)"><g data-paper-data="{&quot;isPaintingLayer&quot;:true}" fill-rule="nonzero" stroke-linejoin="miter" stroke-miterlimit="10" stroke-dasharray="" stroke-dashoffset="0" style="mix-blend-mode: normal"><g data-paper-data="{&quot;index&quot;:null}"><path d="M292.73507,214.26805c0,0 0.43453,2.60925 0.89781,6.40725c0.45731,3.74901 -0.56151,8.88012 -0.43845,13.57945c0.11006,4.20318 0.22161,8.83029 0.33452,11.14474c0.21116,4.32858 1.21258,9.9976 1.21258,9.9976l-16.23061,2.62292c0,0 0.48578,-2.31806 -0.7033,-5.01398c-1.90087,-4.30969 -5.86187,-10.30314 -6.19465,-14.74959c-0.10981,-1.4673 -0.03104,-3.26004 0.15911,-5.22139c0.31483,-3.24754 0.93499,-6.95729 1.50993,-10.41713c0.83103,-5.00094 1.90734,-8.98011 1.90734,-8.98011" fill="#7f7f7f" stroke="#e3efff" stroke-width="1.5" stroke-linecap="round"/><g stroke="#0f0f0f" stroke-linecap="butt"><path d="M259.9457,270.53147c0,0 -3.5771,-4.09615 -4.45487,-6.1434c-0.93025,-2.16968 5.68887,-9.47377 5.68887,-9.47377l25.49803,-0.78682l1.09578,11.44768z" data-paper-data="{&quot;index&quot;:null}" fill="#000b20" stroke-width="0"/><path d="M261.69325,268.7823c-0.40679,-2.85495 -0.98978,-6.94637 -1.26956,-8.91001c-0.14426,-1.01246 0.91482,-4.92833 2.54746,-5.16096c3.93517,-0.56071 20.99865,-2.99204 28.95752,-4.12608c2.56302,-0.3652 4.20161,1.30434 4.37357,2.65521c0.36846,2.89463 1.70173,13.39832 1.70173,13.39832c0,0 -27.4676,3.91378 -32.67002,4.65506c-1.63264,0.23263 -3.41385,-0.91959 -3.64068,-2.51155z" data-paper-data="{&quot;index&quot;:null}" fill="#3b3b3b" stroke-width="1.5"/></g></g><g><path d="M249.13698,214.83021c0,0 0.12711,3.88851 0.23503,7.19032c0.06165,1.88603 -2.12706,4.93387 -2.00294,8.73107c0.0518,1.58477 0.81894,2.9203 0.87489,4.63205c0.16899,5.17 1.93083,11.19645 2.06499,15.30102c0.1274,3.8977 0.21448,6.56181 0.21448,6.56181l-18.21432,-4.47786c0,0 -2.33083,-13.04642 -2.00191,-19.05091c0.2984,-5.4471 3.89281,-15.46701 3.89281,-15.46701" fill="#7f7f7f" stroke="#e3efff" stroke-width="1.5" stroke-linecap="round"/><g stroke="#0f0f0f" stroke-linecap="butt"><path d="M220.15696,265.09795c0,0 -2.75886,-4.68646 -3.24332,-6.86062c-0.51343,-2.30418 7.34107,-8.25979 7.34107,-8.25979l25.20453,3.93702l-1.03783,11.45308z" fill="#000b20" stroke-width="0"/><path d="M221.18982,263.57842c0.12761,-2.88096 0.31048,-7.00967 0.39825,-8.99119c0.04525,-1.02168 1.80949,-4.67451 3.457,-4.60153c3.97102,0.17589 21.18997,0.93858 29.22135,1.29432c2.58637,0.11456 3.88835,2.05805 3.80779,3.41744c-0.17261,2.91288 -0.80266,13.48209 -0.80266,13.48209c0,0 -27.71785,-1.22772 -32.96767,-1.46026c-1.64751,-0.07298 -3.18522,-1.53441 -3.11407,-3.14087z" fill="#3b3b3b" stroke-width="1.5"/></g></g><g><g stroke-linecap="butt"><g><g><path d="M181.18747,196.84856c0,0 -1.0616,-38.76234 -1.07958,-52.61551c-0.01178,-9.08144 1.25814,-27.39785 1.25814,-27.39785l12.06953,0.75358l1.53296,79.24191z" fill="#c70303" stroke="#9966ff" stroke-width="1"/><path d="M180.75335,124.54627c0.01393,-0.05072 0.02855,-0.10116 0.04382,-0.15138l-0.03228,-0.0044l0.27505,-2.02301c0.09495,-0.6983 0.73799,-1.18742 1.4363,-1.09248c0.55244,0.07512 0.97397,0.49326 1.07895,1.01044l0.31578,1.38839l-0.04129,0.00938l0.06006,0.09182c0.15696,2.58365 0.83442,5.06059 1.0499,7.66834c-0.18203,7.76329 -0.55742,15.52398 -0.70372,23.29763c0.67533,6.87027 0.59849,14.1123 -0.2631,20.56597c0,0 -0.17189,1.26439 -1.43628,1.09248c-1.26439,-0.17189 -1.09248,-1.43629 -1.09248,-1.43629c0.14905,-1.07428 -1.36002,-1.5301 -1.26205,-2.6363c-0.1436,-0.16485 0.20715,-1.16295 0.16275,-1.38169l0.35853,-1.29672c-0.21275,-0.93538 0.08036,-1.80207 -0.13216,-2.73753c-0.80454,-3.01816 0.18398,-6.11009 0.14178,-9.20265c-0.10076,-7.3831 -1.99517,-16.21413 0.21625,-23.52619c-0.00295,-0.10911 -0.00601,-0.21806 -0.00916,-0.32688l-0.23563,-0.03203l0.25214,-1.85445c0.03234,-0.23779 0.12821,-0.45129 0.26818,-0.62575c-0.17919,-2.1762 -0.92955,-5.05628 -0.4513,-6.79667z" fill="#870303" stroke="none" stroke-width="0.5"/><path d="M187.732,129.02929c-0.50575,-0.06876 -0.43699,-0.57452 -0.43699,-0.57452l0.03439,-0.25288c0.24241,-1.41356 -0.66304,-2.70047 -0.4614,-4.18355c0,0 0.06876,-0.50577 0.57451,-0.437c0.50575,0.06876 0.43699,0.57451 0.43699,0.57451c-0.19827,1.45837 0.62861,2.71536 0.46143,4.1836l-0.03438,0.25289c0,0 -0.06877,0.50575 -0.57452,0.437z" fill="#0554ff" stroke="none" stroke-width="0.5"/><path d="M192.4408,139.65968c-0.48311,0.16466 -0.64779,-0.31843 -0.64779,-0.31843l-0.10723,-0.39581c-1.01134,-0.62826 -1.89248,-0.17263 -1.69775,-1.88281c0,0 0.06877,-0.50575 0.57452,-0.43698c0.50575,0.06877 0.43698,0.57452 0.43698,0.57452c-0.15408,0.89847 0.71903,0.57822 1.49874,1.12728l0.26099,0.68448c0,0 0.16466,0.48312 -0.31843,0.64779z" fill="#0554ff" stroke="none" stroke-width="0.5"/><path d="M189.05023,150.0431c-0.16466,-0.48311 0.31845,-0.64781 0.31845,-0.64781l0.31074,-0.02538c-0.15605,-0.90935 0.15085,-1.01744 0.90706,-1.35435c0,0 0.48314,-0.16468 0.6478,0.31844c0.16466,0.48311 -0.31845,0.64778 -0.31845,0.64778c-0.4785,0.03908 -0.31705,0.48332 -0.44826,1.0369l-0.76953,0.34285c0,0 -0.48311,0.16466 -0.64779,-0.31842z" fill="#9b7137" stroke="none" stroke-width="0.5"/><path d="M187.64197,163.98984c-0.4216,-0.28768 -0.13391,-0.70928 -0.13391,-0.70928l0.32164,-0.47137c0.63931,-0.93367 1.15424,-1.31221 1.30554,-2.4252c0,0 0.06876,-0.50577 0.57452,-0.43702c0.50575,0.06877 0.43699,0.57452 0.43699,0.57452c-0.17636,1.29719 -0.75417,1.80419 -1.47384,2.86306l-0.32164,0.47138c0,0 -0.28768,0.4216 -0.7093,0.13394z" fill="#0554ff" stroke="none" stroke-width="0.5"/><path d="M192.88634,170.68094c-0.50575,-0.06876 -0.43699,-0.57451 -0.43699,-0.57451c0.13752,-1.01152 0.30944,-2.27589 0.44694,-3.28742c0,0 0.06877,-0.50575 0.57452,-0.43699c0.50574,0.06876 0.437,0.57452 0.437,0.57452c-0.13753,1.01154 -0.27505,2.02301 -0.41257,3.03453l-0.03439,0.25288c0,0 -0.06876,0.50574 -0.57452,0.43698z" fill="#0554ff" stroke="none" stroke-width="0.5"/><path d="M187.96992,170.84958c0.11784,0.0804 0.2271,0.22403 0.19272,0.47692c-0.06876,0.50575 -0.57452,0.43699 -0.57452,0.43699l-0.68987,-0.60889c0.06877,-0.50575 0.13753,-1.01151 0.20629,-1.51727c0,0 0.06878,-0.50576 0.57452,-0.43699c0.50574,0.06876 0.437,0.57452 0.437,0.57452c-0.0487,0.35825 -0.09742,0.71649 -0.14613,1.07474z" fill="#0554ff" stroke="none" stroke-width="0.5"/><path d="M191.08726,155.49829c0.03438,-0.25289 0.17801,-0.36213 0.31304,-0.40816c0.00286,-0.02108 0.00574,-0.04215 0.0086,-0.06321c0,0 0.06876,-0.50574 0.57452,-0.43699c0.50575,0.06876 0.43699,0.57451 0.43699,0.57451c-0.02291,0.16858 -0.04586,0.33718 -0.06877,0.50575l-0.82741,0.40261c0,0 -0.50575,-0.06876 -0.437,-0.57451z" fill="#9b7137" stroke="none" stroke-width="0.5"/><path d="M191.77986,153.99277c-0.48311,0.16466 -0.64779,-0.31843 -0.64779,-0.31843l-0.10724,-0.39581c-0.34044,-0.27109 -0.51846,-0.77027 -0.50213,-1.20517c0,0 0.06876,-0.50575 0.57451,-0.43699c0.50575,0.06876 0.437,0.5745 0.437,0.5745c-0.07703,0.16352 0.14373,0.36437 0.30311,0.44964l0.26099,0.68445c0,0 0.16469,0.48313 -0.31844,0.6478z" fill="#9b7137" stroke="none" stroke-width="0.5"/><path d="M187.08328,145.16692c-0.50574,-0.06876 -0.43698,-0.57452 -0.43698,-0.57452c0.16045,-1.18011 0.38965,-2.86595 0.5501,-4.04606c0,0 0.06877,-0.50575 0.57451,-0.43699c0.50574,0.06876 0.43698,0.57452 0.43698,0.57452c-0.16044,1.1801 -0.32089,2.3602 -0.48132,3.5403l-0.06877,0.50575c0,0 -0.06876,0.50577 -0.57451,0.437z" fill="#0554ff" stroke="none" stroke-width="0.5"/><path d="M192.49867,131.07181c-0.27916,-0.367 0.02544,-0.65465 0.08688,-0.7068c-0.37189,-0.99514 -0.86851,-2.06354 -0.75096,-3.09591c0,0 0.06876,-0.50577 0.57452,-0.43702c0.50575,0.06877 0.43699,0.57452 0.43699,0.57452c-0.15499,0.90374 0.53397,2.10691 0.82918,2.973l-0.46137,0.78944c0,0 -0.40623,0.30901 -0.71524,-0.09726z" fill="#9b7137" stroke="none" stroke-width="0.5"/><path d="M186.76934,136.10991c-0.50575,-0.06876 -0.43699,-0.57452 -0.43699,-0.57452c0.06877,-0.50575 0.17191,-1.26439 0.24067,-1.77015c0,0 0.06877,-0.50575 0.57452,-0.437c0.50575,0.06876 0.43699,0.57451 0.43699,0.57451c-0.06876,0.50574 -0.13754,1.01153 -0.20629,1.51727l-0.03438,0.25288c0,0 -0.06878,0.50576 -0.57453,0.43701z" fill="#9b7137" stroke="none" stroke-width="0.5"/><path d="M190.16759,126.26982c-0.50574,-0.06876 -0.437,-0.57451 -0.437,-0.57451l0.06876,-0.50577c0.06637,-0.48824 0.32876,-0.67961 -0.11577,-0.84276c0,0 -0.4216,-0.28768 -0.13392,-0.70929c0.28769,-0.42162 0.7093,-0.13394 0.7093,-0.13394c0.80967,0.66742 0.68492,0.84526 0.55193,1.82352l-0.06876,0.50575c0,0 -0.06877,0.50575 -0.57452,0.437z" fill="#0554ff" stroke="none" stroke-width="0.5"/><path d="M191.44645,133.91269c-0.50574,-0.06876 -0.43697,-0.57452 -0.43697,-0.57452l0.03439,-0.25288c0.04607,-0.26866 0.00295,-0.55723 -0.09273,-0.81246c0,0 -0.16466,-0.48311 0.31845,-0.64778c0.48311,-0.16466 0.64779,0.31842 0.64779,0.31842c0.1303,0.40865 0.18653,0.85318 0.138,1.27933l-0.03439,0.25288c0,0 -0.06877,0.50575 -0.57452,0.437z" fill="#4f340e" stroke="none" stroke-width="0.5"/><path d="M189.31893,141.19916c-0.30901,-0.40624 0.09723,-0.71524 0.09723,-0.71524l0.0905,0.11898c0.05224,-0.38413 0.01691,-1.01486 0.26915,-1.25676c-0.22892,-0.02589 -0.46435,-0.05755 -0.603,-0.07639c0,0 -0.50575,-0.06876 -0.43699,-0.57451c0.06876,-0.50575 0.57451,-0.43699 0.57451,-0.43699c2.4865,0.33806 1.37094,1.2825 1.20784,2.48218l-0.484,0.556c0,0 -0.40626,0.30902 -0.71524,-0.09723z" fill="#0554ff" stroke="none" stroke-width="0.5"/><path d="M187.64832,150.88272c-0.16466,-0.48311 0.31844,-0.6478 0.31844,-0.6478l0.24676,0.07384c-0.84955,-1.40627 1.93975,-1.37624 0.19298,-1.61373c0,0 -0.50575,-0.06877 -0.43699,-0.57454c0.06876,-0.50575 0.57451,-0.43699 0.57451,-0.43699c2.845,0.38679 0.33334,1.78742 0.58563,3.0756l-0.83351,0.44207c0,0 -0.48312,0.16466 -0.64779,-0.31843z" fill="#4f340e" stroke="none" stroke-width="0.5"/><path d="M190.28655,165.17643c-0.50574,-0.06876 -0.43701,-0.57451 -0.43701,-0.57451l0.10815,-0.2296c-2.42006,-0.88828 -0.89152,-2.59431 0.59612,-3.43492c0,0 0.44586,-0.24844 0.6943,0.19741c0.24844,0.44586 -0.19743,0.6943 -0.19743,0.6943c-1.81896,0.9969 -1.48987,1.03239 -0.16025,2.12841l-0.02938,0.78192c0,0 -0.06876,0.50575 -0.57451,0.43701z" fill="#0554ff" stroke="none" stroke-width="0.5"/><path d="M191.43657,171.24769c-2.37669,-0.45838 0.42595,-1.73277 -0.05709,-2.34412c0,0 -0.16468,-0.48311 0.31842,-0.64779c0.48311,-0.16466 0.6478,0.31844 0.6478,0.31844c0.38374,1.73139 -1.35942,1.58752 -0.69574,1.68123c0.00416,0.00042 0.00634,0.0007 0.00634,0.0007l0.00002,0.00019c0.06255,0.00877 0.14566,0.01962 0.25287,0.03419l-0.1952,0.48856l0.05767,0.52295c-0.08907,-0.01212 -0.17268,-0.02508 -0.25108,-0.03888l-0.0018,0.00451c0,0 -0.03357,-0.00456 -0.08222,-0.01999z" fill="#0554ff" stroke="none" stroke-width="0.5"/><path d="M186.62863,157.98274c-0.50575,-0.06876 -0.43699,-0.57452 -0.43699,-0.57452l0.05704,-0.01944c-0.06664,-0.81562 -1.78416,-1.04289 -0.01543,-1.98095c0,0 0.48312,-0.16466 0.64779,0.31842c0.13452,0.39462 -0.16316,0.57678 -0.27673,0.63027c0.1643,0.08053 0.42259,0.28086 0.61059,0.70287l-0.01173,0.48633c0,0 -0.06877,0.50575 -0.57452,0.437z" fill="#0554ff" stroke="none" stroke-width="0.5"/><path d="M193.20706,146.16579c-0.45675,-0.31166 -0.1451,-0.7684 -0.1451,-0.7684l0.28908,-0.39738c0.10867,-0.79922 0.44659,-0.78233 0.2335,-1.61669c0,0 -0.10261,-0.54333 0.44075,-0.64593c0.54335,-0.10259 0.64592,0.44076 0.64592,0.44076c0.18045,1.21138 -0.14546,1.17082 -0.28792,2.21863l-0.40781,0.62393c0,0 -0.31167,0.45675 -0.7684,0.1451z" fill="#4f340e" stroke="none" stroke-width="0.5"/><path d="M185.92747,129.04152c-0.50575,-0.06876 -0.437,-0.57452 -0.437,-0.57452l0.03438,-0.25289c0.09391,-0.69083 -0.15332,-1.57598 -0.73689,-1.95743c0,0 -0.42162,-0.28766 -0.13394,-0.70927c0.28769,-0.42162 0.7093,-0.13395 0.7093,-0.13395c1.32036,0.96044 1.40596,1.22506 1.17305,2.93819l-0.03437,0.25288c0,0 -0.06879,0.50576 -0.57452,0.43699z" fill="#4f340e" stroke="none" stroke-width="0.5"/></g><g><g><path d="M170.86688,145.45648l0.99494,-7.31805c0,0 12.25133,4.27433 18.83007,5.16876c6.78898,0.92303 21.29297,0.28627 21.29297,0.28627l-0.99494,7.31803z" fill="#ff0000" stroke="none" stroke-width="0"/><g data-paper-data="{&quot;index&quot;:null}"><path d="M171.12876,143.96618c0,0 10.5728,3.07776 20.88576,4.1449c6.76065,0.69957 19.0038,-0.0219 19.0038,-0.0219l-1.06159,10.25926l-40.50937,-5.2353z" fill="#c70303" stroke="#9966ff" stroke-width="1"/><path d="M205.13285,152.47056c0.09062,-0.37108 0.46172,-0.28047 0.46172,-0.28047l0.18555,0.04531c1.03326,0.2907 2.0618,-0.28293 3.15003,-0.01714c0,0 0.37112,0.09064 0.28049,0.46172c-0.09062,0.37108 -0.46173,0.28048 -0.46173,0.28048c-1.07007,-0.26134 -2.07019,0.25613 -3.15,0.01716l-0.18553,-0.04531c0,0 -0.37112,-0.09064 -0.28047,-0.46171z" fill="#0554ff" stroke="none" stroke-width="0.5"/><path d="M196.85291,155.14637c-0.08489,-0.37246 0.28756,-0.45734 0.28756,-0.45734l0.30299,-0.04896c0.54652,-0.70378 0.27609,-1.39519 1.53388,-1.11686c0,0 0.37111,0.09064 0.28047,0.46172c-0.09062,0.37108 -0.46173,0.28046 -0.46173,0.28046c-0.65676,-0.18477 -0.48649,0.49011 -0.95601,1.02767l-0.52984,0.14088c0,0 -0.37244,0.08489 -0.45734,-0.28756z" fill="#0554ff" stroke="none" stroke-width="0.5"/><path d="M189.3885,151.81276c0.37246,-0.08489 0.45734,0.28756 0.45734,0.28756l-0.00534,0.23329c0.68905,-0.04523 0.74555,0.19164 0.93736,0.7808c0,0 0.08489,0.37244 -0.28756,0.45734c-0.37244,0.0849 -0.45733,-0.28756 -0.45733,-0.28756c0.00821,-0.35922 -0.33505,-0.27371 -0.73684,-0.41454l-0.19518,-0.59953c0,0 -0.0849,-0.37244 0.28757,-0.45734z" fill="#0554ff" stroke="none" stroke-width="0.5"/><path d="M179.11715,149.67673c0.24701,-0.2914 0.53839,-0.04438 0.53839,-0.04438l0.32578,0.27616c0.64509,0.54868 0.88674,0.9615 1.70337,1.16093c0,0 0.37109,0.09063 0.28047,0.46172c-0.09062,0.37108 -0.46173,0.28048 -0.46173,0.28048c-0.95178,-0.23246 -1.28411,-0.70209 -2.01614,-1.32038l-0.32578,-0.27617c0,0 -0.2914,-0.24701 -0.04436,-0.5384z" fill="#0554ff" stroke="none" stroke-width="0.5"/><path d="M173.72761,153.05844c0.09062,-0.37108 0.46171,-0.28046 0.46171,-0.28046c0.74217,0.18127 1.66991,0.40783 2.41212,0.58909c0,0 0.37109,0.09065 0.28048,0.46173c-0.09062,0.37108 -0.46173,0.28046 -0.46173,0.28046c-0.74217,-0.18127 -1.48438,-0.3625 -2.22655,-0.54378l-0.18554,-0.04533c0,0 -0.37108,-0.09064 -0.28046,-0.46173z" fill="#0554ff" stroke="none" stroke-width="0.5"/><path d="M173.98554,149.38578c-0.06905,0.08144 -0.18446,0.15155 -0.37002,0.10625c-0.37108,-0.09062 -0.28047,-0.46172 -0.28047,-0.46172l0.50703,-0.46602c0.37108,0.09062 0.74219,0.18127 1.11329,0.27189c0,0 0.37109,0.09062 0.28046,0.46172c-0.09062,0.37108 -0.46173,0.28046 -0.46173,0.28046c-0.26286,-0.0642 -0.52571,-0.12839 -0.78856,-0.19259z" fill="#0554ff" stroke="none" stroke-width="0.5"/><path d="M185.16908,152.90351c0.18555,0.04531 0.25567,0.16076 0.2794,0.26485c0.01545,0.00376 0.03092,0.00756 0.04636,0.01133c0,0 0.37111,0.09064 0.28046,0.46173c-0.09062,0.37108 -0.46173,0.28046 -0.46173,0.28046c-0.1237,-0.03021 -0.24739,-0.06043 -0.37109,-0.09063l-0.23516,-0.64727c0,0 0.09065,-0.37109 0.46174,-0.28047z" fill="#0554ff" stroke="none" stroke-width="0.5"/><path d="M186.23569,153.53647c-0.08489,-0.37246 0.28756,-0.45734 0.28756,-0.45734l0.30299,-0.04896c0.22834,-0.23226 0.6138,-0.32585 0.93622,-0.27976c0,0 0.37109,0.09065 0.28048,0.46173c-0.09062,0.37108 -0.46173,0.28046 -0.46173,0.28046c-0.1157,-0.07009 -0.28241,0.07856 -0.35833,0.19054l-0.52983,0.14089c0,0 -0.37246,0.08489 -0.45735,-0.28756z" fill="#0554ff" stroke="none" stroke-width="0.5"/><path d="M193.1715,150.72898c0.09062,-0.37108 0.46171,-0.28046 0.46171,-0.28046c0.86589,0.21146 2.10286,0.51355 2.96876,0.72504c0,0 0.37111,0.09064 0.28047,0.46172c-0.09062,0.37108 -0.46172,0.28047 -0.46172,0.28047c-0.86589,-0.21146 -1.73178,-0.42294 -2.59767,-0.63441l-0.3711,-0.09062c0,0 -0.37109,-0.09065 -0.28047,-0.46174z" fill="#0554ff" stroke="none" stroke-width="0.5"/><path d="M203.24072,155.85929c0.29498,-0.17917 0.4853,0.07 0.51933,0.11982c0.76973,-0.19922 1.60375,-0.48552 2.36301,-0.3175c0,0 0.37109,0.09063 0.28048,0.46173c-0.09062,0.37108 -0.46173,0.28046 -0.46173,0.28046c-0.6606,-0.18586 -1.60991,0.23311 -2.27761,0.3853l-0.55162,-0.405c0,0 -0.19832,-0.32649 0.12816,-0.52482z" fill="#0554ff" stroke="none" stroke-width="0.5"/><path d="M199.93751,151.20171c0.09062,-0.37108 0.46172,-0.28047 0.46172,-0.28047c0.37108,0.09062 0.92774,0.22659 1.29883,0.31721c0,0 0.37108,0.09062 0.28046,0.46173c-0.09062,0.37108 -0.46171,0.28047 -0.46171,0.28047c-0.37108,-0.09062 -0.7422,-0.18126 -1.11329,-0.27188l-0.18554,-0.0453c0,0 -0.37109,-0.09063 -0.28047,-0.46172z" fill="#0554ff" stroke="none" stroke-width="0.5"/><path d="M206.99692,154.49871c0.09062,-0.37108 0.46173,-0.28046 0.46173,-0.28046l0.37108,0.09062c0.35825,0.0875 0.48025,0.29772 0.63635,-0.02044c0,0 0.24704,-0.29139 0.53841,-0.04437c0.2914,0.24701 0.04437,0.5384 0.04437,0.5384c-0.55995,0.55063 -0.68259,0.44391 -1.40037,0.26861l-0.37111,-0.09063c0,0 -0.37108,-0.09064 -0.28046,-0.46173z" fill="#0554ff" stroke="none" stroke-width="0.5"/><path d="M201.2082,154.85452c0.09062,-0.37108 0.46172,-0.28047 0.46172,-0.28047l0.18555,0.04531c0.19636,0.05526 0.41453,0.04567 0.61199,-0.00564c0,0 0.37244,-0.08489 0.45734,0.28757c0.08489,0.37246 -0.28756,0.45734 -0.28756,0.45734c-0.31432,0.06511 -0.6496,0.07229 -0.96305,0.00294l-0.18554,-0.04533c0,0 -0.37109,-0.09063 -0.28047,-0.46172z" fill="#0554ff" stroke="none" stroke-width="0.5"/><path d="M195.95051,152.70254c0.32648,-0.19831 0.52482,0.12816 0.52482,0.12816l-0.09564,0.05809c0.28185,0.06883 0.75411,0.09175 0.91448,0.29836c0.03713,-0.16837 0.07903,-0.34115 0.1039,-0.44287c0,0 0.09065,-0.37111 0.46172,-0.28049c0.37108,0.09062 0.28046,0.46174 0.28046,0.46174c-0.44557,1.82446 -1.06155,0.92043 -1.94181,0.70544l-0.37607,-0.40364c0,0 -0.19832,-0.3265 0.12818,-0.52481z" fill="#0554ff" stroke="none" stroke-width="0.5"/><path d="M188.8729,150.70374c0.37246,-0.08489 0.45735,0.28756 0.45735,0.28756l-0.07421,0.17793c1.11302,-0.52267 0.87311,1.5512 1.18614,0.26951c0,0 0.09063,-0.37109 0.46172,-0.28047c0.37108,0.09062 0.28046,0.46174 0.28046,0.46174c-0.50982,2.08749 -1.35645,0.1087 -2.33497,0.19601l-0.26403,-0.65492c0,0 -0.08491,-0.37244 0.28755,-0.45734z" fill="#0554ff" stroke="none" stroke-width="0.5"/><path d="M178.02764,151.55264c0.09062,-0.37108 0.46174,-0.28047 0.46174,-0.28047l0.16245,0.09841c0.84992,-1.73208 2.00059,-0.46124 2.51029,0.71163c0,0 0.15014,0.35124 -0.20111,0.50141c-0.35126,0.15017 -0.50141,-0.20111 -0.50141,-0.20111c-0.60015,-1.43171 -0.65225,-1.18951 -1.57178,-0.28529l-0.57973,-0.08286c0,0 -0.37108,-0.09062 -0.28046,-0.46171z" fill="#0554ff" stroke="none" stroke-width="0.5"/><path d="M173.41883,151.93512c0.52657,-1.73332 1.25655,0.45221 1.74929,0.14035c0,0 0.37244,-0.0849 0.45733,0.28756c0.08489,0.37246 -0.28754,0.45735 -0.28754,0.45735c-1.31869,0.15061 -1.07563,-1.13571 -1.19717,-0.64901c-0.00064,0.00306 -0.00102,0.00468 -0.00102,0.00468l-0.00014,0c-0.01142,0.04588 -0.02596,0.10689 -0.04519,0.18554l-0.34842,-0.1834l-0.39376,0.00215c0.01597,-0.06537 0.03215,-0.12657 0.04853,-0.18386l-0.00323,-0.00169c0,0 0.00602,-0.02462 0.02129,-0.05965z" fill="#0554ff" stroke="none" stroke-width="0.5"/><path d="M183.66756,149.39098c0.09062,-0.37108 0.46171,-0.28047 0.46171,-0.28047l0.01003,0.04397c0.6123,0.01402 0.91543,-1.24667 1.47569,0.14302c0,0 0.0849,0.37244 -0.28755,0.45734c-0.30421,0.06934 -0.4166,-0.16644 -0.44755,-0.25515c-0.07276,0.11599 -0.24202,0.29262 -0.57082,0.39968l-0.36107,-0.04666c0,0 -0.37109,-0.09063 -0.28046,-0.46173z" fill="#0554ff" stroke="none" stroke-width="0.5"/><path d="M191.95033,155.20928c0.2676,-0.31566 0.58328,-0.04806 0.58328,-0.04806l0.27325,0.24616c0.58643,0.14322 0.54751,0.39345 1.18517,0.2999c0,0 0.41244,-0.034 0.44643,0.37843c0.034,0.41244 -0.37845,0.44643 -0.37845,0.44643c-0.91576,0.03983 -0.86014,-0.19961 -1.62895,-0.38738l-0.43262,-0.35224c0,0 -0.31566,-0.2676 -0.04808,-0.58328z" fill="#0554ff" stroke="none" stroke-width="0.5"/><path d="M205.26451,151.12639c0.09062,-0.37108 0.46173,-0.28046 0.46173,-0.28046l0.18554,0.04533c0.50688,0.12379 1.18504,0.0088 1.51449,-0.39584c0,0 0.24701,-0.2914 0.5384,-0.04436c0.2914,0.24701 0.04436,0.5384 0.04436,0.5384c-0.81788,0.90789 -1.02154,0.95096 -2.2785,0.64397l-0.18555,-0.04531c0,0 -0.37109,-0.09063 -0.28046,-0.46173z" fill="#0554ff" stroke="none" stroke-width="0.5"/></g></g><g fill="#a8a8a8" stroke="#6b6b6b" stroke-width="1"><path d="M182.22393,139.17602c-0.05788,0.42584 -1.04596,0.6431 -2.20691,0.48525c-1.16095,-0.15784 -2.05516,-0.63101 -1.99725,-1.05685c0.05788,-0.42584 1.04597,-0.6431 2.20692,-0.48526c1.16094,0.15784 2.05515,0.631 1.99724,1.05685z"/><path d="M183.50714,140.56414c-0.06317,0.46456 -1.52606,0.64921 -3.2675,0.41245c-1.74143,-0.23674 -3.10193,-0.80529 -3.03876,-1.26983c0.06315,-0.46456 1.52607,-0.64922 3.26748,-0.41248c1.74143,0.23674 3.10192,0.8053 3.03876,1.26984z"/><path d="M183.78485,142.45808c-0.06317,0.46456 -1.79076,0.61325 -3.85869,0.33209c-2.06795,-0.28115 -3.69313,-0.88566 -3.62997,-1.35022c0.06315,-0.46456 1.79074,-0.61323 3.85869,-0.33208c2.06794,0.28116 3.69314,0.88566 3.62997,1.35021z"/><path d="M184.36347,144.10739c-0.0737,0.54199 -1.98627,0.72943 -4.27189,0.41868c-2.28563,-0.31074 -4.07873,-1.00203 -4.00505,-1.544c0.0737,-0.54199 1.98627,-0.72943 4.27189,-0.41868c2.28563,0.31074 4.07876,1.00201 4.00505,1.544z"/></g><g fill="#a8a8a8" stroke="#6b6b6b" stroke-width="1"><path d="M206.44917,142.46962c-0.05791,0.42583 -1.04597,0.6431 -2.20692,0.48526c-1.16094,-0.15784 -2.05515,-0.631 -1.99724,-1.05685c0.05791,-0.42583 1.04597,-0.64309 2.20691,-0.48524c1.16094,0.15785 2.05515,0.631 1.99725,1.05684z"/><path d="M207.73234,143.85775c-0.06315,0.46456 -1.52606,0.64921 -3.2675,0.41245c-1.74143,-0.23674 -3.10193,-0.80529 -3.03876,-1.26983c0.06315,-0.46456 1.52606,-0.64921 3.2675,-0.41245c1.74143,0.23674 3.10192,0.80527 3.03876,1.26983z"/><path d="M208.01006,145.75168c-0.06315,0.46456 -1.79075,0.61324 -3.8587,0.33208c-2.06793,-0.28115 -3.69314,-0.88566 -3.62997,-1.35021c0.06315,-0.46456 1.79075,-0.61324 3.8587,-0.33208c2.06795,0.28115 3.69314,0.88565 3.62997,1.35021z"/><path d="M208.58869,147.40099c-0.0737,0.54199 -1.98627,0.72942 -4.27189,0.41868c-2.28563,-0.31074 -4.07873,-1.00203 -4.00505,-1.544c0.0737,-0.54199 1.98627,-0.72943 4.27188,-0.41869c2.28563,0.31074 4.07876,1.00201 4.00505,1.544z"/></g></g><g><path d="M170.30022,129.15028l-0.14188,-6.80918c0,0 11.77314,2.13892 17.89444,2.01138c6.31693,-0.13164 19.43871,-2.7893 19.43871,-2.7893l0.14187,6.80919z" data-paper-data="{&quot;index&quot;:null}" fill="#ff0000" stroke="none" stroke-width="0"/><g data-paper-data="{&quot;index&quot;:null}"><path d="M207.7577,135.3093l-37.664,0.53597l0.10638,-9.51085c0,0 11.1409,1.94863 17.40837,2.01875c9.56063,0.10695 19.57081,-1.60082 19.57081,-1.60082z" fill="#c70303" stroke="#9966ff" stroke-width="1"/><path d="M174.82584,131.36098l-0.17476,0.022c-1.01441,0.10535 -1.87628,-0.47389 -2.88413,-0.34701c0,0 -0.34951,0.044 -0.39352,-0.30553c-0.044,-0.34951 0.30553,-0.39352 0.30553,-0.39352c1.02495,-0.12905 1.90693,0.50466 2.88414,0.347l0.17476,-0.02201c0,0 0.34951,-0.044 0.3935,0.30551c0.044,0.34951 -0.30553,0.39352 -0.30553,0.39352z" fill="#0554ff" stroke="none" stroke-width="0.5"/><path d="M181.98653,134.50513l-0.4706,-0.1848c-0.37361,-0.54187 -0.14664,-1.14225 -0.76777,-1.04206c0,0 -0.34952,0.04399 -0.39352,-0.30553c-0.044,-0.34951 0.3055,-0.39352 0.3055,-0.39352c1.18161,-0.12272 0.86115,0.48228 1.28785,1.18456l0.27244,0.07672c0,0 0.3323,0.11692 0.21534,0.44926c-0.11696,0.33231 -0.44925,0.21536 -0.44925,0.21536z" fill="#0554ff" stroke="none" stroke-width="0.5"/><path d="M189.84039,132.46989l-0.24186,0.52876c-0.38295,0.08677 -0.68844,-0.02767 -0.71868,0.30228c0,0 -0.11692,0.3323 -0.44924,0.21535c-0.33231,-0.11696 -0.21535,-0.44925 -0.21535,-0.44925c0.23768,-0.51958 0.31438,-0.73066 0.94089,-0.61676l0.01965,-0.2143c0,0 0.11694,-0.33229 0.44926,-0.21534c0.33231,0.11696 0.21535,0.44924 0.21535,0.44924z" fill="#0554ff" stroke="none" stroke-width="0.5"/><path d="M199.16269,131.63256l-0.32751,0.21877c-0.73569,0.48944 -1.08955,0.88476 -1.986,0.99764c0,0 -0.34951,0.044 -0.3935,-0.30551c-0.044,-0.34951 0.30552,-0.39351 0.30552,-0.39351c0.76918,-0.09683 1.03395,-0.44964 1.68268,-0.88449l0.32752,-0.21875c0,0 0.29293,-0.19566 0.4886,0.09727c0.19567,0.29293 -0.09727,0.48859 -0.09727,0.48859z" fill="#0554ff" stroke="none" stroke-width="0.5"/><path d="M203.53653,135.20256l-0.17475,0.02201c-0.69904,0.088 -1.39807,0.17601 -2.0971,0.26402c0,0 -0.34951,0.044 -0.39352,-0.3055c-0.04399,-0.34953 0.30553,-0.39352 0.30553,-0.39352c0.69904,-0.08801 1.57283,-0.19802 2.27187,-0.28602c0,0 0.3495,-0.04402 0.39351,0.30552c0.044,0.34951 -0.30552,0.39351 -0.30552,0.39351z" fill="#0554ff" stroke="none" stroke-width="0.5"/><path d="M203.24925,131.51061c0,0 -0.3495,0.04402 -0.39351,-0.30552c-0.044,-0.34951 0.30552,-0.39351 0.30552,-0.39351c0.34951,-0.044 0.69904,-0.08801 1.04856,-0.13199l0.41551,0.48027c0,0 0.04399,0.34953 -0.30552,0.39351c-0.17475,0.02201 -0.27313,-0.05438 -0.32782,-0.13625c-0.24756,0.03118 -0.49515,0.06233 -0.74273,0.09348z" fill="#0554ff" stroke="none" stroke-width="0.5"/><path d="M193.76952,133.76925l-0.2835,0.56827c-0.1165,0.01466 -0.23301,0.02934 -0.34952,0.044c0,0 -0.34953,0.04399 -0.39351,-0.30552c-0.04399,-0.34953 0.30551,-0.39352 0.30551,-0.39352c0.01454,-0.00182 0.02914,-0.00367 0.0437,-0.00549c0.03269,-0.09289 0.10907,-0.19126 0.28383,-0.21326c0.34953,-0.04401 0.3935,0.30552 0.3935,0.30552z" fill="#0554ff" stroke="none" stroke-width="0.5"/><path d="M191.88299,134.14683l-0.4706,-0.1848c-0.05776,-0.11057 -0.19486,-0.2643 -0.30826,-0.21225c0,0 -0.34952,0.04399 -0.3935,-0.30552c-0.044,-0.34951 0.30551,-0.3935 0.30551,-0.3935c0.30025,-0.00832 0.64354,0.11794 0.82833,0.35477l0.27244,0.07672c0,0 0.3323,0.11695 0.21534,0.44926c-0.11696,0.33231 -0.44926,0.21534 -0.44926,0.21534z" fill="#0554ff" stroke="none" stroke-width="0.5"/><path d="M185.96763,131.02341l-0.34951,0.044c-0.81552,0.10267 -1.63108,0.20536 -2.44662,0.30802c0,0 -0.34952,0.04399 -0.39352,-0.30553c-0.044,-0.34951 0.30552,-0.3935 0.30552,-0.3935c0.81552,-0.10267 1.98059,-0.24935 2.79613,-0.35202c0,0 0.34951,-0.044 0.39351,0.30552c0.04399,0.34953 -0.30553,0.39352 -0.30553,0.39352z" fill="#0554ff" stroke="none" stroke-width="0.5"/><path d="M176.57069,134.76539l-0.54796,0.31304c-0.59573,-0.20968 -1.42139,-0.69335 -2.04616,-0.59256c0,0 -0.3495,0.04402 -0.39351,-0.30552c-0.04401,-0.34953 0.30552,-0.39351 0.30552,-0.39351c0.71328,-0.07409 1.44726,0.27595 2.13152,0.53939c0.03641,-0.04204 0.23699,-0.25029 0.48838,-0.05514c0.27826,0.21602 0.06224,0.49429 0.06224,0.49429z" fill="#0554ff" stroke="none" stroke-width="0.5"/><path d="M179.71909,130.74494l-0.17475,0.02201c-0.34953,0.04401 -0.69904,0.088 -1.04856,0.132c0,0 -0.34952,0.044 -0.39351,-0.30552c-0.044,-0.34951 0.30551,-0.39352 0.30551,-0.39352c0.34951,-0.044 0.87381,-0.11001 1.22331,-0.154c0,0 0.34951,-0.044 0.39351,0.30552c0.044,0.34951 -0.30552,0.3935 -0.30552,0.3935z" fill="#0554ff" stroke="none" stroke-width="0.5"/><path d="M172.90476,133.02308l-0.34953,0.04399c-0.67606,0.08512 -0.79965,0.17 -1.25474,-0.39335c0,0 -0.19566,-0.29292 0.09727,-0.48861c0.29295,-0.19567 0.48862,0.09727 0.48862,0.09727c0.10957,0.30791 0.24342,0.12814 0.58085,0.08566l0.34951,-0.044c0,0 0.34953,-0.04399 0.39352,0.30553c0.044,0.34951 -0.30552,0.39351 -0.30552,0.39351z" fill="#0554ff" stroke="none" stroke-width="0.5"/><path d="M178.17078,133.95785l-0.17476,0.022c-0.29445,0.03059 -0.60085,-0.01123 -0.88199,-0.10396c0,0 -0.33231,-0.11694 -0.21535,-0.44924c0.11696,-0.33231 0.44924,-0.21535 0.44924,-0.21535c0.1755,0.06777 0.37436,0.09949 0.56008,0.06953l0.17475,-0.02201c0,0 0.34951,-0.044 0.3935,0.30551c0.04399,0.34953 -0.3055,0.39352 -0.3055,0.39352z" fill="#0554ff" stroke="none" stroke-width="0.5"/><path d="M183.58177,132.64003l-0.387,0.33024c-0.82907,0.10439 -1.48851,0.86783 -1.70485,-0.85053c0,0 -0.04401,-0.3495 0.30552,-0.3935c0.34951,-0.044 0.39351,0.30552 0.39351,0.30552c0.01207,0.09582 0.03229,0.25851 0.0486,0.41667c0.16866,-0.17243 0.60373,-0.14377 0.8692,-0.17717l-0.08151,-0.06327c0,0 0.21603,-0.27826 0.49429,-0.06224c0.27826,0.21603 0.06224,0.4943 0.06224,0.4943z" fill="#0554ff" stroke="none" stroke-width="0.5"/><path d="M190.4294,131.5081l-0.31079,0.57225c-0.88732,-0.1829 -1.87109,1.54094 -2.11862,-0.42517c0,0 -0.04402,-0.3495 0.30552,-0.39351c0.34951,-0.044 0.39351,0.30552 0.39351,0.30552c0.15197,1.20716 0.15031,-0.71808 1.11504,-0.12216l-0.04928,-0.17082c0,0 0.11694,-0.33231 0.44925,-0.21535c0.33231,0.11696 0.21535,0.44925 0.21535,0.44925z" fill="#0554ff" stroke="none" stroke-width="0.5"/><path d="M199.75532,133.37072l-0.53985,0.01495c-0.74735,-0.92512 -0.76956,-1.15248 -1.47001,0.09609c0,0 -0.1745,0.30601 -0.48052,0.13151c-0.30603,-0.1745 -0.13151,-0.48053 -0.13151,-0.48053c0.59031,-1.02094 1.77817,-2.06422 2.37469,-0.38796l0.1592,-0.07309c0,0 0.3495,-0.04402 0.39351,0.30552c0.044,0.34951 -0.30552,0.39351 -0.30552,0.39351z" fill="#0554ff" stroke="none" stroke-width="0.5"/><path d="M204.2563,133.86924l-0.00311,0.0012c0.00898,0.05422 0.01737,0.11201 0.02512,0.17356l-0.36052,-0.04339l-0.33851,0.13136c-0.00933,-0.07409 -0.01625,-0.13151 -0.02188,-0.17474l-0.00013,-0.00001c0,0 -0.00019,-0.00151 -0.00046,-0.00439c-0.06016,-0.45869 0.02725,0.74537 -1.16504,0.4687c0,0 -0.33231,-0.11695 -0.21534,-0.44926c0.11695,-0.33231 0.44926,-0.21534 0.44926,-0.21534c0.41863,0.33753 1.31727,-1.588 1.61741,0.05539c0.01031,0.03368 0.01324,0.05688 0.01324,0.05688z" fill="#0554ff" stroke="none" stroke-width="0.5"/><path d="M194.81557,130.79711l-0.33571,0.00479c-0.28997,-0.13264 -0.42648,-0.31226 -0.48092,-0.4262c-0.03769,0.07802 -0.16544,0.28222 -0.43686,0.1867c-0.33231,-0.11696 -0.21534,-0.44926 -0.21534,-0.44926c0.65948,-1.21427 0.8046,-0.02739 1.36705,0.02417l0.01381,-0.03922c0,0 0.34952,-0.044 0.39351,0.30552c0.04399,0.34953 -0.30552,0.39351 -0.30552,0.39351z" fill="#0554ff" stroke="none" stroke-width="0.5"/><path d="M186.81536,135.39234l-0.43339,0.2772c-0.72412,0.09115 -0.69836,0.31639 -1.53314,0.18358c0,0 -0.37429,-0.07452 -0.29979,-0.4488c0.07451,-0.37429 0.44881,-0.29977 0.44881,-0.29977c0.57437,0.15276 0.56503,-0.08059 1.11735,-0.15013l0.27623,-0.19678c0,0 0.31735,-0.21196 0.5293,0.10537c0.21197,0.31736 -0.10537,0.52932 -0.10537,0.52932z" fill="#0554ff" stroke="none" stroke-width="0.5"/><path d="M174.84658,130.11566l-0.17476,0.022c-1.18389,0.14904 -1.36595,0.08818 -2.01977,-0.82963c0,0 -0.19567,-0.29293 0.09727,-0.48861c0.29295,-0.19567 0.4886,0.09726 0.4886,0.09726c0.25929,0.40535 0.86847,0.58202 1.34588,0.52192l0.17476,-0.022c0,0 0.34952,-0.04399 0.3935,0.30552c0.044,0.34951 -0.30552,0.39351 -0.30552,0.39351z" fill="#0554ff" stroke="none" stroke-width="0.5"/></g><g data-paper-data="{&quot;index&quot;:null}" fill="#a8a8a8" stroke="#6b6b6b" stroke-width="1"><path d="M202.36575,120.61293c1.08021,-0.02251 1.96262,0.28046 1.97086,0.67668c0.00826,0.39623 -0.86076,0.73572 -1.94097,0.75823c-1.08021,0.02251 -1.96263,-0.28047 -1.97087,-0.67668c-0.00825,-0.39622 0.86075,-0.73569 1.94097,-0.7582z"/><path d="M202.02075,121.66414c1.62034,-0.03376 2.94119,0.28928 2.95018,0.72153c0.00901,0.43225 -1.29724,0.81005 -2.91756,0.84381c-1.62034,0.03376 -2.94118,-0.28928 -2.95019,-0.72153c-0.00901,-0.43225 1.29724,-0.81005 2.91757,-0.84381z"/><path d="M202.11721,123.35864c1.92415,-0.04009 3.49128,0.27781 3.50029,0.71007c0.009,0.43225 -1.54353,0.81517 -3.46768,0.85525c-1.92415,0.04009 -3.49128,-0.27782 -3.5003,-0.71007c-0.00902,-0.43226 1.54351,-0.81516 3.46769,-0.85525z"/><path d="M201.77765,124.67071c2.1267,-0.04431 3.85923,0.32858 3.86974,0.83287c0.01051,0.5043 -1.705,0.94902 -3.83169,0.99335c-2.1267,0.04431 -3.85924,-0.32856 -3.86974,-0.83287c-0.0105,-0.50431 1.705,-0.94902 3.83168,-0.99334z"/></g><g data-paper-data="{&quot;index&quot;:null}" fill="#a8a8a8" stroke="#6b6b6b" stroke-width="1"><path d="M179.47276,121.08996c1.08021,-0.02251 1.96261,0.28044 1.97087,0.67668c0.00826,0.39623 -0.86077,0.73569 -1.94098,0.75821c-1.08021,0.02251 -1.9626,-0.28045 -1.97087,-0.67669c-0.00826,-0.39623 0.86075,-0.7357 1.94097,-0.7582z"/><path d="M179.12777,122.14114c1.62034,-0.03376 2.94117,0.28929 2.95018,0.72153c0.00902,0.43226 -1.29724,0.81005 -2.91757,0.84381c-1.62034,0.03376 -2.94119,-0.28928 -2.95018,-0.72153c-0.00902,-0.43226 1.29724,-0.81005 2.91757,-0.84381z"/><path d="M179.22422,123.83565c1.92415,-0.04009 3.49128,0.27782 3.5003,0.71007c0.00902,0.43226 -1.54353,0.81516 -3.46767,0.85525c-1.92415,0.04009 -3.49129,-0.27782 -3.50029,-0.71006c-0.009,-0.43225 1.54353,-0.81518 3.46765,-0.85528z"/><path d="M178.88467,125.14773c2.1267,-0.04431 3.85923,0.32858 3.86975,0.83288c0.0105,0.50431 -1.70501,0.94902 -3.83168,0.99334c-2.1267,0.04431 -3.85924,-0.32859 -3.86976,-0.83289c-0.01051,-0.5043 1.70502,-0.94902 3.83168,-0.99334z"/></g></g></g><g><g><g fill="#8a8a8a" stroke="#212121" stroke-width="1"><path d="M221.16056,181.47101c-4.26266,1.87155 -8.65253,6.92894 -12.17248,7.52368c-3.51994,0.59473 -3.14332,-1.26637 -5.92298,-1.04219c-2.77966,0.22418 -4.51598,5.47571 -8.06466,7.08127c-7.77482,3.51764 -14.32123,-5.81229 -14.48882,-7.30831c-0.12929,-1.15416 9.28645,-11.51347 12.34458,-14.07032c2.2644,-1.89321 5.33142,-0.46146 7.73523,-2.20775c2.4038,-1.74629 6.76488,-7.1964 9.14109,-8.71935c2.37617,-1.52294 5.98073,-0.35451 9.13378,-1.73885c4.49177,-1.97216 3.62008,-0.56233 7.2683,-1.11688c3.64823,-0.55455 7.65255,4.27615 8.06123,7.9245c0.4017,3.58612 6.06084,4.72885 0.02159,9.29974c-6.03926,4.57089 -8.42577,2.34116 -13.05683,4.37447z"/></g><path d="M213.14827,178.17612l-0.90897,0.01434c0.25916,-0.53475 0.62521,-1.07781 1.07603,-1.54851c0.47084,-0.48046 1.42727,-0.83092 1.50349,-1.36328c0.04001,-0.2795 -1.81194,-0.73261 -1.75727,-1.31834c0.02076,-0.22252 1.41075,-2.09297 1.60351,-2.39699c1.6836,-2.65554 2.88809,-4.69062 5.25995,-7.11088c0,0 0.42728,-0.43599 0.75678,-0.18879c0.32949,0.2472 -0.09778,0.68317 -0.09778,0.68317c-2.28892,2.33559 -3.41891,4.26684 -5.03864,6.83392c-0.23975,0.37995 -1.33342,1.69268 -1.4136,1.91259c-0.00871,0.02387 1.80942,0.95392 1.75727,1.31834c-0.06327,0.44211 -1.51477,1.71652 -1.91473,2.12465c-0.15838,0.15647 -0.30041,0.32841 -0.42421,0.50694c0.07255,0.24083 -0.21068,0.52981 -0.21068,0.52981l-0.09717,0.00154c-0.01077,0.02273 -0.02121,0.04541 -0.03137,0.06805z" fill="#212121" stroke="none" stroke-width="0.5"/><path d="M205.56877,178.93063c-0.5351,0.13351 -0.46598,-0.34958 -0.46598,-0.34958l0.11453,-0.61507c0.44436,-0.91692 1.42091,-1.80093 1.82035,-2.6098c0.16924,-0.34271 -0.43559,-0.36183 -0.58041,-0.60124c-0.09155,-0.15133 -0.35739,-1.39986 -0.31092,-1.57431c0.22396,-0.84066 0.93179,-2.25953 1.44598,-3.11478c0,0 0.30116,-0.49178 0.74886,-0.39515c0.4477,0.09664 0.14655,0.58842 0.14655,0.58842c-0.50138,0.80053 -1.03534,1.95943 -1.28919,2.74769c-0.3465,1.0759 1.1672,1.19649 0.84894,2.31149c-0.21073,0.73832 -1.49213,1.88205 -1.85861,2.69991l-0.01587,0.29584c0,0 -0.06914,0.48309 -0.60425,0.61659z" fill="#212121" stroke="none" stroke-width="0.5"/><path d="M199.38324,185.60759c-0.32948,-0.24719 0.0978,-0.68318 0.0978,-0.68318l0.39427,-0.31519c-0.5061,-1.36196 1.35944,-4.80088 2.16048,-6.50831c0,0 0.2348,-0.50049 0.7206,-0.47439c0.48579,0.02612 0.25097,0.52663 0.25097,0.52663c-0.89623,1.91033 -2.40317,4.7307 -2.12224,6.41819l-0.74513,0.84747c0,0 -0.42727,0.43597 -0.75676,0.18879z" fill="#212121" stroke="none" stroke-width="0.5"/><path d="M216.22758,180.0877c-0.32949,-0.2472 0.09779,-0.68318 0.09779,-0.68318l0.28486,-0.29066c2.40997,-2.45911 4.05922,-4.91984 6.39708,-7.30538c0,0 0.42726,-0.43598 0.75677,-0.1888c0.32949,0.2472 -0.0978,0.68318 -0.0978,0.68318c-2.32065,2.36799 -3.99239,4.85168 -6.39708,7.30537l-0.28486,0.29067c0,0 -0.42727,0.43599 -0.75676,0.18881z" fill="#212121" stroke="none" stroke-width="0.5"/><path d="M194.67348,188.21267c-0.52952,0.2794 -0.63313,-0.13666 -0.63313,-0.13666l-0.16424,-0.6905c0.18313,-1.2794 0.97738,-2.79467 1.87063,-4.08012c0.26539,-0.38191 0.92751,-0.60864 1.05334,-1.00329c0.14702,-0.46111 -0.39731,-0.68077 -0.33913,-1.12593c0.11206,-0.85756 0.53761,-1.84121 1.25574,-2.61901c0,0 0.42727,-0.43599 0.75676,-0.18881c0.32948,0.24719 -0.09779,0.68318 -0.09779,0.68318c-1.37739,1.26365 -0.16343,2.08267 -0.56576,3.21268c-0.22575,0.6341 -0.86903,0.80546 -1.22547,1.32197c-0.70719,1.02485 -1.48339,2.35831 -1.62977,3.38099l0.1447,0.54999c0,0 0.10362,0.41609 -0.42591,0.69548z" fill="#212121" stroke="none" stroke-width="0.5"/></g><path d="M196.0636,191.33078c0.01664,1.01354 -0.60785,1.40494 -0.79842,2.34132c-0.43575,2.14108 -2.14332,3.20616 -4.28922,3.75956c-0.79694,0.20552 -1.31068,0.74584 -1.95569,1.10363c-0.34943,0.19383 -1.58345,-0.02813 -2.00796,-0.0276c-1.69337,0.0022 -3.20592,-0.53742 -4.86778,-0.53527c-0.29899,0.0004 -1.61084,0.20101 -1.81729,-0.07722c-0.16619,-0.22395 0.25081,-0.50324 0.31808,-0.77388c0.2652,-1.06662 0.7029,-1.64842 1.21972,-2.3289l0.04693,0.04687l0.53833,-0.54049c0.07312,-0.07333 0.09033,-0.1284 0.09019,-0.24012c-0.00029,-0.22346 -0.18333,-0.40549 -0.4068,-0.40519l-0.46943,-0.00018c-0.60161,-0.29445 -1.02483,-0.2789 -1.69332,-0.2707c-0.23171,0.00282 -0.69574,0.23853 -0.69598,0.0068c-0.00036,-0.33345 0.42219,-0.52994 0.54235,-0.84102c0.53313,-1.38006 1.98646,-1.85472 2.1999,-3.05818c0.04098,-0.00384 0.08061,-0.00785 0.11857,-0.01235l-0.09865,-0.14504c0.00379,-0.04618 0.00557,-0.09411 0.00573,-0.14252l0.21055,0.00013l-0.00168,-0.54239c-0.00029,-0.22346 -0.18228,-0.40718 -0.40575,-0.40687c-0.22346,0.00031 -0.35146,0.17132 -0.35119,0.3948l-0.05213,0.19635c-1.03336,-0.53573 -3.24869,-0.01871 -3.80971,-1.14885c-0.64058,-1.29042 1.35171,-1.8169 1.99513,-2.20917c0.31805,-0.19391 0.69094,-0.50211 1.03981,-0.81293l0.00795,0.01593l0.53227,-0.26836c0.13676,-0.06507 0.23227,-0.20622 0.23204,-0.36775c-0.00029,-0.22346 -0.13713,-0.37395 -0.3606,-0.37367l-0.73873,-0.02869c-0.53674,-0.51127 -1.00202,-0.83434 -1.42233,-1.46978c-0.30344,-0.30412 -2.18067,-1.72787 -1.8292,-2.28526c1.26975,-2.01359 4.7241,-3.20436 6.91991,-3.5451c0.30923,-0.04798 0.73467,1.11526 0.79581,1.22895c2.21214,1.13599 4.39224,0.95639 6.82809,0.64907c0.72502,-0.09147 1.64137,0.20281 2.32931,-0.14152c1.9344,4.07337 2.09531,8.75621 2.10113,13.25556z" data-paper-data="{&quot;noHover&quot;:false,&quot;origItem&quot;:[&quot;Path&quot;,{&quot;applyMatrix&quot;:true,&quot;segments&quot;:[[[352.98765,211.79952],[7.15143,15.10973],[-2.55196,1.27316]],[[344.36571,212.32209],[2.68815,-0.33561],[-9.03143,1.12755]],[[319.12178,209.89399],[8.19519,4.2219],[-0.22607,-0.42176]],[[316.18244,205.33333],[1.14654,-0.1764],[-8.14174,1.25266]],[[290.56826,218.40736],[4.71675,-7.45853],[-1.30565,2.06461]],[[297.34245,226.88235],[-1.12338,-1.1289],[1.55513,2.35765]],[[302.61113,232.33333],[-1.98728,-1.89794],[0,0]],[[305.18244,232.33333],[0,0],[0.82843,0]],[[306.68244,233.83333],[0,-0.82843],[0,0.5988]],[[305.82419,235.18951],[0.50737,-0.24052],[0,0]],[303.85326,236.17497],[[303.82379,236.11605],[0,0],[-1.29482,1.15054]],[[299.97103,239.10931],[1.17999,-0.71729],[-2.38708,1.45106]],[[292.56826,247.25931],[-2.36844,-4.78677],[2.07425,4.1922]],[[306.68244,251.51318],[-3.82814,-1.9909],[0,0]],[[306.68244,250.83333],[0,0],[0,-0.82843]],[[308.18244,249.33333],[-0.82843,0],[0.82843,0]],[[309.68244,250.83333],[0,-0.82843],[0,0]],[309.68244,252.83333],[[308.90249,252.83333],[0,0],[-0.00083,0.17941]],[[308.87958,253.35911],[0.01432,-0.1712],[0,0]],[[309.2431,253.89399],[0,0],[-0.14078,0.0165]],[[308.80379,253.93991],[0.15196,-0.01408],[-0.79701,4.46031]],[[300.62231,265.24677],[1.98302,-5.11343],[-0.44697,1.15256]],[[298.60546,268.35899],[0.00029,-1.23619],[-0.0002,0.85903]],[[301.18244,268.33333],[-0.85898,0.00943],[2.47817,-0.0272]],[[307.44609,269.33333],[-2.22884,-1.09444],[0,0]],[[309.18244,269.33333],[0,0],[0.82843,0]],[[310.68244,270.83333],[0,-0.82843],[0,0.41421]],[[310.2431,271.89399],[0.27145,-0.27145],[0,0]],[308.2431,273.89399],[[308.06872,273.71962],[0,0],[-1.91921,2.52017]],[[303.64231,282.17796],[0.98821,-3.95282],[-0.25075,1.003]],[[302.45841,285.04474],[-0.61503,-0.83104],[0.76407,1.03243]],[[309.18244,285.33333],[-1.10841,0],[6.16069,0]],[[327.18244,287.33333],[-6.27749,0],[1.57371,0]],[[334.60841,287.44751],[-1.29634,0.7169],[2.39284,-1.32329]],[[341.8448,283.37183],[-2.95535,0.75806],[7.95781,-2.0412]],[[357.72256,269.4887],[-1.62566,7.93509],[0.71097,-3.47035]],[[360.68244,260.83333],[0.05678,3.75743],[0,-16.67958]]],&quot;closed&quot;:true}]}" fill="#001a3a" stroke="#e3efff" stroke-width="1.5"/></g></g><path d="M240.73475,169.68412l-5.38767,6.42944l-13.5037,-15.89394l7.97771,-3.74501" fill="#000000" stroke="#000000" stroke-width="1" stroke-linecap="round"/></g><g stroke-linecap="butt"><g data-paper-data="{&quot;index&quot;:null}"><g><g fill="#8a8a8a" stroke="#212121" stroke-width="1"><path d="M217.05681,198.1191c2.89723,-3.64405 4.4207,-10.16532 7.25666,-12.33352c2.83596,-2.16819 3.37107,-0.34633 5.72512,-1.8414c2.35405,-1.49507 1.43986,-6.95013 3.82967,-10.02582c5.23583,-6.73853 15.37883,-1.54019 16.22499,-0.29513c0.65281,0.96055 -2.84261,14.51612 -4.35472,18.20434c-1.11965,2.73096 -4.50041,2.89541 -5.81188,5.56145c-1.31148,2.66604 -2.62629,9.52127 -4.01755,11.97687c-1.39125,2.4556 -5.12463,3.10373 -7.26768,5.79919c-3.05293,3.8399 -2.93964,2.18625 -5.9078,4.37874c-2.96818,2.19249 -8.76367,-0.21217 -10.8272,-3.24852c-2.02831,-2.98453 -7.56699,-1.35517 -4.35767,-8.21562c3.20933,-6.86046 6.36044,-6.00159 9.50806,-9.96058z"/></g><path d="M225.68089,197.29552l0.79729,-0.43673c0.02024,0.59389 -0.05018,1.24499 -0.22935,1.87166c-0.19232,0.64462 -0.87479,1.40082 -0.69385,1.90723c0.095,0.26587 1.94446,-0.19731 2.16935,0.34628c0.08543,0.20649 -0.2714,2.50939 -0.30005,2.86824c-0.25028,3.13428 -0.36624,5.49627 -1.33507,8.74353c0,0 -0.17453,0.58497 -0.58129,0.52004c-0.40675,-0.06493 -0.23222,-0.64989 -0.23222,-0.64989c0.93496,-3.13369 1.03347,-5.36906 1.26853,-8.39531c0.0348,-0.44793 0.38975,-2.11926 0.35806,-2.35117c-0.00344,-0.02518 -2.04549,0.00039 -2.16936,-0.34627c-0.15028,-0.42058 0.53902,-2.22497 0.70239,-2.77253c0.06709,-0.21229 0.1125,-0.43062 0.13872,-0.6463c-0.17652,-0.17916 -0.06082,-0.56691 -0.06082,-0.56691l0.08524,-0.04669c-0.00107,-0.02512 -0.00241,-0.05006 -0.004,-0.07482z" fill="#212121" stroke="none" stroke-width="0.5"/><path d="M232.03303,193.09212c0.41102,-0.36773 0.57525,0.09181 0.57525,0.09181l0.18564,0.59746c0.03472,1.01833 -0.41662,2.25582 -0.39257,3.15762c0.01019,0.38208 0.55408,0.11683 0.79387,0.26102c0.15158,0.09114 0.96919,1.07145 1.00946,1.24744c0.19409,0.84806 0.22995,2.43327 0.17413,3.42964c0,0 -0.03694,0.57548 -0.47801,0.69887c-0.44108,0.12339 -0.40413,-0.4521 -0.40413,-0.4521c0.07001,-0.94199 0.00163,-2.21616 -0.14158,-3.03179c-0.19546,-1.1133 -1.59059,-0.51378 -1.82927,-1.64847c-0.15804,-0.75135 0.44178,-2.36081 0.38438,-3.25518l-0.12398,-0.26907c0,0 -0.16422,-0.45954 0.2468,-0.82727z" fill="#000000" stroke="none" stroke-width="0.5"/><path d="M234.3892,184.30059c0.40676,0.06492 0.23222,0.64989 0.23222,0.64989l-0.20169,0.46273c1.08303,0.96856 1.03731,4.88063 1.12533,6.76457c0,0 0.0258,0.55224 -0.41606,0.75577c-0.44187,0.20353 -0.46767,-0.34871 -0.46767,-0.34871c-0.09849,-2.10782 -0.08137,-5.30549 -1.11712,-6.66702l0.26371,-1.0972c0,0 0.17453,-0.58496 0.58129,-0.52004z" fill="#000000" stroke="none" stroke-width="0.5"/><path d="M222.06542,197.04129c0.40675,0.06493 0.23223,0.6499 0.23223,0.6499l-0.11635,0.38998c-0.9844,3.29942 -1.29517,6.24537 -2.25012,9.44607c0,0 -0.17452,0.58497 -0.58128,0.52005c-0.40675,-0.06493 -0.23221,-0.6499 -0.23221,-0.6499c0.94792,-3.17716 1.26787,-6.15391 2.25011,-9.44607l0.11635,-0.38998c0,0 0.17453,-0.58497 0.58128,-0.52004z" fill="#212121" stroke="none" stroke-width="0.5"/><path d="M237.33968,179.79914c0.33802,-0.49418 0.62377,-0.17451 0.62377,-0.17451l0.4674,0.53414c0.4349,1.21707 0.43928,2.92788 0.24889,4.4816c-0.05658,0.46162 -0.53645,0.97107 -0.46363,1.37883c0.08508,0.47644 0.66903,0.41679 0.82525,0.83768c0.30095,0.8108 0.38344,1.87937 0.11112,2.90237c0,0 -0.17453,0.58497 -0.58128,0.52005c-0.40676,-0.06492 -0.23223,-0.64989 -0.23223,-0.64989c0.62879,-1.7603 -0.82704,-1.91838 -0.99837,-3.10559c-0.09615,-0.66619 0.3929,-1.11785 0.4672,-1.74102c0.1474,-1.23642 0.21187,-2.77798 -0.13577,-3.75084l-0.38457,-0.41897c0,0 -0.28576,-0.31968 0.05225,-0.81384z" fill="#000000" stroke="none" stroke-width="0.5"/></g></g><path d="M208.70226,203.6338c0.70943,-0.34299 1.42808,-0.64288 2.10171,-0.75452c0.90335,-0.14971 1.83717,0.0003 2.73665,-0.13158c1.06886,-0.15672 1.71994,-1.29858 2.96215,-0.61455c0.24377,0.13423 0.22867,0.51377 0.40109,0.73221c0.87407,1.1074 1.77365,1.64204 2.35328,2.98738c0.85559,1.98583 1.50776,4.95114 2.84429,6.64494c1.71668,2.17558 2.15928,6.01313 0.61708,8.46547c-0.62584,1.542 -0.77612,3.47962 -1.95358,4.78766c-0.35499,0.39436 -1.4714,0.68711 -1.97307,0.90326c-0.45225,0.19485 -1.65771,0.90623 -2.11455,0.80675c-0.67769,-0.14757 -1.72367,-1.87911 -2.12326,-3.23985c-0.53157,0.59859 -2.48234,1.97558 -3.39546,1.77675c-1.37706,-0.29987 -1.39093,-1.88715 -1.55283,-2.87878c-0.25402,-1.5559 -0.94098,-2.97826 0.21793,-4.3989c0.10075,-0.1235 0.19844,-0.28992 0.29767,-0.4765c-0.19042,0.08748 -0.39582,0.15066 -0.62455,0.17576c-3.55036,0.38968 -2.99293,-4.46037 -1.93546,-6.34812c0.08558,-0.15276 0.22528,-0.37169 0.39482,-0.60188c-1.02317,0.03143 -2.27558,-0.29184 -2.74446,-0.3166c-0.24452,-0.0129 -0.45612,0.31325 -0.69183,0.24694c-1.66274,-0.46774 -1.52301,-2.41347 -0.88256,-3.57365c1.12953,-2.04613 2.33793,-3.22614 4.54167,-4.18359c0,0 0.27009,-0.11637 0.52328,-0.00861z" fill="#001a3a" stroke="#e3efff" stroke-width="1.5"/></g><g stroke="#e3efff" stroke-width="1" stroke-linecap="butt"><path d="M221.35883,219.5717v-67.89114h78.00259v67.89114z" fill="url(#color-1)"/><path d="M223.19346,218.95946c0,0 20,-6.10917 20,-13.78729c0,-4.49588 -20,-9.31066 -20,-14.33333c0,-3.1096 24.66666,-7.50445 24.66666,-10.33334c0,-3.95675 -24.66666,-6.12507 -24.66666,-8.66666c0,-7.92594 0,-19.54604 0,-19.54604h74.33334c0,0 0,11.6201 0,19.54604c0,2.96231 -25.66667,4.89549 -25.66667,9.66666c0,6.40187 25.66667,16.04569 25.66667,22.33334c0,2.54328 -24.33334,-1.74744 -24.33334,0.33333c0,4.86813 24.33334,14.7873 24.33334,14.7873z" fill="url(#color-2)"/></g><g stroke-linecap="round"><path d="M241.71353,121.66667l22.33333,12.33333l1,17.33333h-25.33333v-15.33333l-7.33333,-9" fill="url(#color-3)" stroke="#9966ff" stroke-width="0.5"/><path d="M247.71353,126.75l-9.75,9" fill="none" stroke="#000000" stroke-width="1"/><path d="M256.96353,131.75l-16.5,9.5" fill="none" stroke="#000000" stroke-width="1"/><path d="M263.21353,135.5l-23.25,11.5" fill="none" stroke="#000000" stroke-width="1"/><path d="M263.96353,147.25l-25,3.5" fill="none" stroke="#000000" stroke-width="1"/></g><g stroke-linecap="butt"><g><g><path d="M240.04637,131.43752c-3.35163,1.39602 -1.24039,-7.11183 -3.55378,-12.66595c-2.31339,-5.55412 -8.17539,-6.05129 -4.82376,-7.4473c3.35163,-1.39602 7.94404,1.9748 10.25743,7.52892c2.31339,5.55412 1.47174,11.18832 -1.87989,12.58434z" fill="url(#color-4)" stroke="#e3efff" stroke-width="0.5"/><path d="M238.09866,128.42907c-2.9102,1.11342 -6.74273,-1.83501 -8.56021,-6.58548c-1.81748,-4.75047 2.65191,-9.29318 5.5621,-10.40658c1.85203,-0.70856 2.62628,0.14248 3.41289,2.07944c0.44943,1.10667 0.90291,2.56785 1.56375,4.29513c1.81748,4.75047 0.93166,9.50408 -1.97854,10.6175z" fill="url(#color-5)" stroke="#e3efff" stroke-width="1"/><path d="M231.94515,125.13393c-1.10441,1.4625 -1.94993,-0.29565 -3.16408,-1.21252c-1.21415,-0.91687 0.37737,-3.61656 1.48178,-5.07907c1.10441,-1.4625 2.68007,-0.87902 3.89422,0.03785c1.21415,0.91687 -1.10751,4.79124 -2.21192,6.25374z" fill="#5d8d03" stroke="#000000" stroke-width="0"/><path d="M234.63947,124.66275c-1.42062,4.3296 -6.91838,5.84905 -11.07554,7.28572c-3.58634,1.23939 -8.2528,1.67983 -11.62933,0.57194c-1.59341,-0.52282 -2.05941,-2.18673 -3.58005,-2.70233c-2.21786,-0.75201 -4.94441,-1.43958 -5.76339,-3.44911c-0.75943,-1.86342 -0.02315,-4.31844 0.47115,-6.84296c0.42673,-2.17943 0.52099,-4.41961 1.12784,-6.26907c0.5502,-1.67684 2.44526,-1.97823 3.9962,-3.14643c0.64221,-0.48372 1.08181,-1.61455 1.57016,-2.26296c0.40713,-0.54057 1.46669,-0.90654 1.8784,-1.44487c1.96651,-2.57126 3.58728,-5.51736 5.57892,-7.30073c1.69266,-1.51566 3.70976,-2.14877 5.83397,-1.45178c1.94811,0.63921 6.19372,-0.27609 8.23922,1.71084c3.04661,2.95939 3.67964,10.38212 4.04448,14.18455c0.3069,3.1986 0.19387,8.4172 -0.69205,11.1172z" fill="#9966ff" stroke="#e3efff" stroke-width="1"/><path d="M234.81768,123.61569c-1.29195,1.71085 -4.17359,1.71259 -6.43633,0.00389c-2.26274,-1.70871 -2.07285,-4.52769 -0.7809,-6.23854c1.29195,-1.71085 3.52715,-3.14223 5.78989,-1.43352c2.26274,1.70871 2.71929,5.95732 1.42734,7.66818z" fill="#58ff00" stroke="#000000" stroke-width="0"/><path d="M225.92055,120.64457c0.87114,-1.15359 1.88871,-0.83302 3.22657,-0.9163c1.0943,-0.06812 2.75542,-1.07135 3.699,-0.35882c2.09718,1.58369 2.25265,4.91295 0.66897,7.01012c-1.58369,2.09718 -4.5676,2.51344 -6.66477,0.92976c-2.09718,-1.58369 -2.51345,-4.5676 -0.92976,-6.66478z" fill="#070707" stroke="#000000" stroke-width="1"/><path d="M228.30761,122.05488c-0.52095,0.68986 -1.59198,0.75922 -2.39222,0.15492c-0.80024,-0.6043 -1.02665,-1.65342 -0.5057,-2.34328c0.52095,-0.68986 1.59198,-0.75922 2.39222,-0.15492c0.80024,0.6043 1.02665,1.65342 0.5057,2.34328z" fill="#58ff00" stroke="none" stroke-width="0"/><g fill="url(#color-6)" stroke="none" stroke-width="0"><path d="M216.42471,129.27134c-0.07273,0.0963 0.25574,2.52721 0.15103,2.58329c-1.25732,0.6735 -5.11872,-3.79061 -7.86981,-5.8681c-2.9802,-2.25049 -6.75207,-4.14938 -5.80609,-5.40208c0.48982,-0.64865 0.14626,-7.83291 2.04842,-7.44033c1.77139,0.36559 6.26214,5.91433 7.69919,6.99953c2.9802,2.25049 4.72324,7.87499 3.77726,9.12769z"/></g><path d="M232.80869,111.78474c-0.06971,0.37634 -0.44603,0.30663 -0.44603,0.30663l-0.07832,-0.12851c-0.32988,0.22393 -0.69456,0.40065 -1.07035,0.53385c-0.72122,0.33287 -1.39996,0.73762 -2.00063,-0.06626c-0.00791,-0.01058 -0.0156,-0.02127 -0.0231,-0.03207c-0.04412,0.0637 -0.11103,0.12358 -0.21,0.17266c-0.45719,0.22671 -0.68389,-0.23047 -0.68389,-0.23047l0.02527,-0.07033c-0.52995,-0.40325 -0.94103,-0.87057 -1.47092,-1.27246c-1.42083,-1.76051 -3.98335,-2.42958 -5.61874,-3.98787c-0.51011,-0.48606 -0.63006,-1.31898 -0.9298,-1.97404c-0.03012,-0.00945 -0.05993,-0.01814 -0.08939,-0.02603c-0.38912,-0.10418 -1.71964,0.19348 -2.02622,-0.03804c-0.15296,-0.11551 -0.24457,-0.9418 -0.27811,-1.18224c-0.13138,-0.94177 -0.1869,-1.91801 -0.50377,-2.81572c0,0 -0.12619,-0.36132 0.23513,-0.48752c0.36133,-0.1262 0.48752,0.23513 0.48752,0.23513c0.32932,0.95187 0.40029,1.96632 0.53924,2.96235c0.0312,0.22363 -0.19892,0.54106 -0.01872,0.67713c0.20291,0.15323 0.48155,-0.2296 0.73466,-0.20534c0.02753,0.00263 0.05512,0.00499 0.08275,0.00714c-0.11555,-0.06798 -0.37793,-0.27057 -0.21971,-0.6429c0.19958,-0.46967 0.66925,-0.27009 0.66925,-0.27009c0.6045,0.2616 0.907,0.75118 1.16449,1.28401c0.72277,0.35363 1.4862,0.91415 2.04395,1.33533c2.42479,1.83108 5.76082,3.19475 6.75011,6.17353c0.11899,0.3583 0.86574,-0.16809 1.05324,-0.25535c0.32477,-0.11155 0.64258,-0.25866 0.92417,-0.45521l0.65136,0.00664c0,0 0.37634,0.06971 0.30663,0.44603z" fill="#212121" stroke="none" stroke-width="0.5"/><path d="M229.34663,108.63893c-0.23065,0.30543 -0.53608,0.07478 -0.53608,0.07478l-0.18468,-0.16407c-1.6974,-2.47303 -4.1412,-4.51482 -6.53086,-6.31937c0,0 -0.30543,-0.23065 -0.07478,-0.53608c0.23065,-0.30543 0.53608,-0.07478 0.53608,-0.07478c2.45406,1.85318 4.95289,3.95839 6.70036,6.4966l0.01517,-0.01316c0,0 0.30543,0.23065 0.07478,0.53608z" fill="#212121" stroke="none" stroke-width="0.5"/><path d="M228.56926,98.6555c-0.23065,0.30543 -0.53608,0.07478 -0.53608,0.07478l0.10823,0.00118c-1.24804,-0.08189 -2.20759,0.28235 -3.03306,1.39026c0,0 -0.23065,0.30543 -0.53608,0.07478c-0.30543,-0.23065 -0.07478,-0.53608 -0.07478,-0.53608c0.99254,-1.29958 2.17076,-1.76959 3.68889,-1.6931l0.30808,0.1521c0,0 0.30543,0.23065 0.07478,0.53608z" fill="#0e1501" stroke="none" stroke-width="0.5"/><path d="M232.98668,102.59366c0.05288,0.37906 -0.32618,0.43195 -0.32618,0.43195l-0.45891,-0.04916c-1.22908,-0.95003 -3.3117,0.16572 -4.26803,1.08361c0,0 -0.27771,0.26336 -0.54107,-0.01436c-0.26336,-0.27772 0.01437,-0.54107 0.01437,-0.54107c1.27974,-1.20099 3.66433,-2.31918 5.25603,-1.13904l-0.10813,-0.09811c0,0 0.37906,-0.05288 0.43195,0.32618z" fill="#0e1501" stroke="none" stroke-width="0.5"/><path d="M234.82997,106.36461c-0.23065,0.30543 -0.53608,0.07478 -0.53608,0.07478l0.00849,-0.01819c-0.96119,-0.33979 -2.80921,-0.36827 -3.71516,0.09224c0,0 -0.34289,0.17003 -0.51292,-0.17285c-0.17003,-0.34289 0.17285,-0.51292 0.17285,-0.51292c1.11908,-0.5439 3.10407,-0.52042 4.29967,-0.13185l0.20836,0.13272c0,0 0.30543,0.23065 0.07478,0.53608z" fill="#0e1501" stroke="none" stroke-width="0.5"/><path d="M233.28678,110.27236c0.08736,-0.07518 0.26404,-0.17519 0.47713,-0.01427c0.30543,0.23065 0.07478,0.53608 0.07478,0.53608l-0.40338,0.25136c-0.8511,-0.05037 -1.45967,-0.00024 -2.24638,-0.36983c0,0 -0.34473,-0.16627 -0.17847,-0.51101c0.16626,-0.34473 0.51099,-0.17846 0.51099,-0.17846c0.60496,0.30145 1.1228,0.26299 1.76532,0.28613z" fill="#0e1501" stroke="none" stroke-width="0.5"/><path d="M233.4742,99.03901c0.05288,0.37906 -0.32618,0.43195 -0.32618,0.43195l-0.01145,-0.0392c-0.68928,0.46619 -1.46534,0.71905 -2.15773,1.19502c0,0 -0.3154,0.21682 -0.53221,-0.09858c-0.21682,-0.3154 0.09858,-0.53221 0.09858,-0.53221c0.69109,-0.47509 1.48314,-0.72146 2.15772,-1.19502l0.33933,-0.08814c0,0 0.37906,-0.05288 0.43195,0.32618z" fill="#0e1501" stroke="none" stroke-width="0.5"/><path d="M229.70092,99.16171c-0.05765,-0.09681 -0.09332,-0.24239 0.03376,-0.41069c0.23065,-0.30543 0.53608,-0.07478 0.53608,-0.07478l0.23197,0.50312c-0.04215,0.12508 -0.08431,0.25017 -0.12646,0.37524c0,0 -0.12222,0.36269 -0.48491,0.24047c-0.36269,-0.12222 -0.24048,-0.48492 -0.24048,-0.48492c0.01668,-0.04948 0.03334,-0.09896 0.05003,-0.14844z" fill="#0e1501" stroke="none" stroke-width="0.5"/><path d="M235.10538,108.46079c-0.12222,0.36269 -0.48491,0.24047 -0.48491,0.24047l-0.43177,-0.15071c-0.26081,-0.1953 -0.54518,-0.36435 -0.84583,-0.48994c0,0 -0.35225,-0.14968 -0.20257,-0.50192c0.14968,-0.35224 0.50194,-0.20257 0.50194,-0.20257c0.31886,0.13742 0.62777,0.30716 0.90395,0.51758l0.31872,0.10219c0,0 0.36269,0.12222 0.24047,0.48491z" fill="#0e1501" stroke="none" stroke-width="0.5"/><path d="M232.81898,119.85972c1.69584,1.84067 1.63933,4.67683 0.0801,6.74163c-0.09894,0.12929 -0.20395,0.2451 -0.31442,0.34952c-0.26817,0.20068 -0.56772,0.36882 -0.90053,0.49711c-0.7606,0.29319 -1.10295,0.66881 -1.84984,0.24089c0.03169,-0.04347 0.0641,-0.08433 0.09718,-0.12281l0.2457,-0.3105c0.06102,-0.01771 0.12205,-0.03518 0.18294,-0.05265c0.40046,-0.24392 0.86138,-0.32751 1.34414,-0.52606c0.21809,-0.13796 0.41599,-0.31058 0.58395,-0.53679c1.31012,-1.73491 1.42007,-4.06852 0.07449,-5.64295c-0.1179,-0.04552 -0.17655,-0.14783 -0.20455,-0.22202c-0.13923,-0.14034 -0.29132,-0.27343 -0.45652,-0.39817c0,0 -0.30543,-0.23065 -0.07478,-0.53608c0.01194,-0.0158 0.02407,-0.03018 0.03635,-0.04322l-0.72598,0.08907c0.24273,0.11691 1.11883,-0.20958 1.34662,-0.06125l0.05547,-0.04856c0.68144,0.51459 1.34672,1.11835 2.00912,1.6761c0.39162,2.04283 -0.03004,4.70046 -1.7638,5.99789c-0.61716,0.58347 -1.40409,0.81186 -2.24825,1.05341l-0.50211,-0.31543l0.09718,-0.12281c0.13272,-0.15436 0.2763,-0.27036 0.42865,-0.36315c0.47595,-0.13652 0.94403,-0.27295 1.34414,-0.52606c0.04904,-0.02016 0.09831,-0.04153 0.14774,-0.06435c1.83886,-0.84898 1.89328,-3.64939 1.83652,-5.27168c-0.40174,-0.2372 -0.74315,-0.53285 -1.0799,-0.83286c-0.01342,0.00299 -0.02746,0.00552 -0.04215,0.00757c-0.0824,0.01149 -0.1494,0.00258 -0.20377,-0.01841c-0.0648,-0.07581 -0.13297,-0.14988 -0.20455,-0.22202c-0.0185,-0.04901 -0.02363,-0.08574 -0.02363,-0.08574l0.07335,0.06056c-0.05174,-0.05821 -0.09748,-0.13042 -0.13214,-0.20882c-0.08776,-0.07326 -0.17709,-0.14497 -0.26888,-0.21429l-0.14367,-0.52919c0.22509,-0.23896 0.49972,-0.03156 0.49972,-0.03156c0.03384,0.02556 0.06722,0.05142 0.10014,0.07758l0.02079,-0.0182c0.18278,0.11903 0.35254,0.25435 0.49615,0.41592z" fill="#070707" stroke="none" stroke-width="0.5"/><path d="M206.06,130.11479c-0.20362,-0.15376 -0.04986,-0.35738 -0.04986,-0.35738l0.1,-0.13243c0.52601,-0.69656 0.33171,-1.22113 0.80271,-1.88905c0,0 0.15377,-0.20363 0.35738,-0.04986c0.20362,0.15376 0.04986,0.35738 0.04986,0.35738c-0.42263,0.50659 -0.31578,1.24425 -0.80271,1.88905l-0.1,0.13243c0,0 -0.15376,0.20362 -0.35738,0.04986z" fill="#0e1501" stroke="none" stroke-width="0.5"/><path d="M209.39472,132.33142c-0.25271,0.03526 -0.28796,-0.21746 -0.28796,-0.21746l-0.0306,-0.31414c0.10463,-0.56488 -0.00221,-1.10085 0.31757,-1.56666c0,0 0.15376,-0.20362 0.35738,-0.04986c0.20362,0.15376 0.04986,0.35738 0.04986,0.35738c-0.23639,0.26441 -0.14887,0.95167 -0.22303,1.35207l0.03425,0.15069c0,0 0.03526,0.25271 -0.21746,0.28796z" fill="#0e1501" stroke="none" stroke-width="0.5"/><path d="M207.78422,130.58508c-0.20362,-0.15376 -0.04986,-0.35738 -0.04986,-0.35738l0.1,-0.13243c0.31137,-0.41233 0.46317,-0.66475 0.92267,-0.90178c0,0 0.22859,-0.11336 0.34195,0.11523c0.11336,0.22859 -0.11523,0.34195 -0.11523,0.34195c-0.38252,0.17939 -0.48029,0.40536 -0.74215,0.75213l-0.1,0.13243c0,0 -0.15376,0.20362 -0.35738,0.04986z" fill="#0e1501" stroke="none" stroke-width="0.5"/><path d="M211.0596,133.68231c-0.20362,-0.15376 -0.04986,-0.35738 -0.04986,-0.35738l0.05273,-0.02512c0.09842,-0.50558 0.01255,-0.84764 0.1794,-1.36196c0,0 0.08148,-0.24179 0.32329,-0.16031c0.24179,0.08148 0.16031,0.32329 0.16031,0.32329c-0.16541,0.46873 -0.0757,0.81045 -0.16121,1.29193l-0.14727,0.23972c0,0 -0.15377,0.20363 -0.35738,0.04986z" fill="#0e1501" stroke="none" stroke-width="0.5"/></g><path d="M214.00907,111.27568c-1.10441,1.4625 -1.94993,-0.29565 -3.16408,-1.21252c-1.21415,-0.91687 0.37737,-3.61657 1.48178,-5.07907c1.10441,-1.4625 2.68007,-0.87903 3.89422,0.03784c1.21415,0.91687 -1.10751,4.79124 -2.21192,6.25374z" fill="#58ff00" stroke="#000000" stroke-width="0"/><path d="M213.87391,110.21553c-0.48689,1.48391 -1.97995,2.32646 -3.33481,1.88191c-1.35487,-0.44456 -2.0585,-2.00788 -1.5716,-3.49178c0.48689,-1.48391 2.58964,-3.4929 3.9445,-3.04833c0.46704,0.15324 0.20003,1.68225 0.48564,2.07698c0.54293,0.7504 0.79533,1.60884 0.47627,2.58124z" fill="#070707" stroke="#000000" stroke-width="1"/><path d="M211.33207,109.31425c-0.42197,0.55879 -1.1667,0.70771 -1.6634,0.33263c-0.4967,-0.37508 -0.55728,-1.13214 -0.13531,-1.69091c0.42197,-0.55879 1.16669,-0.70771 1.66339,-0.33263c0.4967,0.37508 0.55728,1.13214 0.13531,1.69092z" fill="#58ff00" stroke="none" stroke-width="0"/><path d="M215.03734,107.39968c-0.3154,0.21682 -0.53221,-0.09858 -0.53221,-0.09858l-0.18552,-0.27859c-0.49554,-0.36554 -0.74772,-0.60772 -1.37127,-0.63913c0,0 -0.38207,-0.02249 -0.35958,-0.40456c0.02249,-0.38208 0.40456,-0.35959 0.40456,-0.35959c0.82795,0.05434 1.23569,0.37909 1.87948,0.87419l0.26312,0.37403c0,0 0.21682,0.31541 -0.09858,0.53222z" fill="#58ff00" stroke="none" stroke-width="0.5"/><path d="M222.93153,96.72535c-0.06283,-0.09641 -0.10964,-0.24854 0.02429,-0.4259c0.23065,-0.30543 0.53608,-0.07478 0.53608,-0.07478l0.23197,0.50312c-0.14063,0.40417 -0.14455,0.79068 -0.27944,1.2012c0,0 -0.12222,0.36269 -0.48491,0.24047c-0.36269,-0.12222 -0.24047,-0.48491 -0.24047,-0.48491c0.11271,-0.32392 0.1376,-0.6365 0.21248,-0.95917z" fill="#0e1501" stroke="none" stroke-width="0.5"/><path d="M210.321,111.45549c0.02249,-0.38208 0.40456,-0.35959 0.40456,-0.35959l0.40912,0.02704c1.53509,0.30458 1.94998,-1.2399 1.94996,-2.4726c0,0 0.00125,-0.38273 0.38398,-0.38147c0.38273,0.00125 0.38148,0.38399 0.38148,0.38399c-0.01077,1.74523 -0.80057,3.5827 -2.85484,3.22274l-0.31469,-0.01556c0,0 -0.38208,-0.02248 -0.35959,-0.40456z" fill="#070707" stroke="none" stroke-width="0.5"/><path d="M202.14947,128.40936c-0.20362,-0.15376 -0.04986,-0.35738 -0.04986,-0.35738c0.43333,-0.57383 1.16665,-1.54492 1.59997,-2.11875c0,0 0.15376,-0.20362 0.35738,-0.04986c0.20362,0.15376 0.04986,0.35738 0.04986,0.35738c-0.43333,0.57383 -0.86665,1.14765 -1.29998,1.72148l-0.29999,0.39727c0,0 -0.15377,0.20362 -0.35738,0.04986z" fill="#0e1501" stroke="none" stroke-width="0.5"/></g><g text-anchor="start"><g><g><g fill="none" stroke="none" stroke-width="1" font-family="sans-serif" font-weight="normal" font-size="12"/><g fill="url(#color-7)" stroke="#000000" stroke-width="3.5" font-family="&quot;Helvetica Neue&quot;, Helvetica, Arial, sans-serif" font-weight="400" font-size="16"/><g fill="none" stroke="none" stroke-width="1" font-family="sans-serif" font-weight="normal" font-size="12"/></g><g><g fill="url(#color-8)" stroke="#000000" stroke-width="3.5" font-family="&quot;Helvetica Neue&quot;, Helvetica, Arial, sans-serif" font-weight="400" font-size="16"/><g fill="url(#color-9)" stroke="#e3efff" stroke-width="3.5" font-family="&quot;Helvetica Neue&quot;, Helvetica, Arial, sans-serif" font-weight="400" font-size="16"/><g fill="none" stroke="none" stroke-width="1" font-family="sans-serif" font-weight="normal" font-size="12"/></g></g><g data-paper-data="{&quot;index&quot;:null}"><g><g fill="url(#color-10)" stroke="#000000" stroke-width="3.5" font-family="&quot;Helvetica Neue&quot;, Helvetica, Arial, sans-serif" font-weight="400" font-size="16"/><g fill="url(#color-11)" stroke="#000000" stroke-width="3.5" font-family="&quot;Helvetica Neue&quot;, Helvetica, Arial, sans-serif" font-weight="400" font-size="16"/><g fill="none" stroke="none" stroke-width="1" font-family="sans-serif" font-weight="normal" font-size="12"/></g><g><g fill="url(#color-12)" stroke="#000000" stroke-width="3.5" font-family="&quot;Helvetica Neue&quot;, Helvetica, Arial, sans-serif" font-weight="400" font-size="16"/><g fill="none" stroke="none" stroke-width="1" font-family="sans-serif" font-weight="normal" font-size="12"/><g fill="none" stroke="none" stroke-width="1" font-family="sans-serif" font-weight="normal" font-size="12"/></g></g></g></g><g data-paper-data="{&quot;index&quot;:null}"><g stroke="#000000" stroke-width="2"><path d="M299.09108,95.73367c-3.34804,14.02942 -10.90302,24.24725 -16.87451,22.82218c-5.97149,-1.42506 -8.0982,-13.9534 -4.75017,-27.98279c3.34804,-14.02942 10.90301,-24.24724 16.87449,-22.82217c5.97149,1.42506 8.09822,13.95339 4.75018,27.98278z" fill="#9966ff" stroke-linecap="butt"/><path d="M299.49908,110.97967l-11.8558,15.61502l-2.77407,-10.30019l-13.19579,11.44584l-3.6633,-22.07702" fill="#58ff00" stroke-linecap="round"/><path d="M300.2355,78.40895c-0.70622,2.95931 -3.27789,4.88121 -5.74398,4.29269c-2.46609,-0.58852 -3.89273,-3.4646 -3.18651,-6.4239c0.70622,-2.95931 3.27788,-4.88121 5.74397,-4.29269c2.46609,0.58852 3.89274,3.4646 3.18652,6.42391z" fill="#58ff00" stroke-linecap="butt"/><path d="M287.31769,70.69245l1.71409,5.04279l-1.09235,3.85819l3.0297,3.12571l-0.73624,3.08508l4.83243,1.32486l-5.36942,5.24017l-8.14626,-8.29399l-2.03335,-0.82849" fill="#00e6ff" stroke-linecap="round"/><path d="M298.64128,80.77442l-2.7566,-7.86588" fill="none" stroke-linecap="round"/><path d="M284.21319,77.58865l6.82889,-1.28785l-5.22367,7.50601l6.91377,-0.92436l-2.37658,4.92468" fill="none" stroke-linecap="round"/></g><g stroke="#545454" stroke-width="1"><path d="M300.35901,149.77814c0,1.51048 -1.31275,2.38679 -2.6981,2.38679c-3.83673,0 -22.02678,0 -28.22642,0c-1.30226,0 -2.07547,-0.69029 -2.07547,-1.5566c0,-6.89786 0,-37.90592 0,-43.37737c0,-1.59381 0.85577,-3.00942 2.28303,-3.00942c6.38801,0 24.22407,0 28.01887,0c1.38535,0 2.6981,1.30652 2.6981,2.80189c0,5.1041 0,34.17051 0,42.75472z" fill="#a1a1a0" stroke-linecap="butt"/><path d="M296.00053,152.16494l-3.73585,-48.56604" fill="none" stroke-linecap="round"/><path d="M279.18921,104.63665l1.86792,47.94339" fill="none" stroke-linecap="round"/><path d="M272.75524,152.78758l-0.4151,-48.56604" fill="none" stroke-linecap="round"/></g><g fill="#c1c1c1" stroke="#545454" stroke-width="1"><path d="M303.04409,65.38847c0.05275,0.14285 -0.90563,0.59081 -1.94926,0.97607c-2.89035,1.06699 -16.59361,6.12564 -21.26403,7.84975c-0.98105,0.36216 -1.58765,0.51191 -1.61789,0.42997c-0.24083,-0.65237 -1.32341,-3.58496 -1.51443,-4.10241c-0.05564,-0.15073 0.53961,-0.52262 1.61482,-0.91953c4.81235,-1.7765 18.24892,-6.7367 21.10769,-7.79203c1.04364,-0.38526 2.0782,-0.62677 2.13041,-0.48535c0.1782,0.48272 1.193,3.23168 1.4927,4.04353z" stroke-linecap="butt"/><path d="M285.26195,71.11984l-2.81961,-7.40456l10.38687,-3.14495l2.95216,5.54589" stroke-linecap="round"/><path d="M286.46091,69.81546l-1.07543,-5.24766l6.55505,-1.3857l1.96109,4.14511" stroke-linecap="round"/></g></g></g></g></svg>