<svg version="1.1" xmlns="http://www.w3.org/2000/svg" xmlns:xlink="http://www.w3.org/1999/xlink" width="190.74708" height="215.49614" viewBox="0,0,190.74708,215.49614"><defs><radialGradient cx="260.81791" cy="184.23493" r="38.58303" gradientUnits="userSpaceOnUse" id="color-1"><stop offset="0" stop-color="#4000bf"/><stop offset="1" stop-color="#38a000"/></radialGradient><linearGradient x1="260.8179" y1="150.36047" x2="260.8179" y2="218.10939" gradientUnits="userSpaceOnUse" id="color-2"><stop offset="0" stop-color="#797979"/><stop offset="1" stop-color="#bfbfbf"/></linearGradient><radialGradient cx="256.57076" cy="139.21752" r="16.15817" gradientUnits="userSpaceOnUse" id="color-3"><stop offset="0" stop-color="#b5b5b5"/><stop offset="1" stop-color="#c9c9c9"/></radialGradient><radialGradient cx="241.67858" cy="125.59167" r="9.7769" gradientUnits="userSpaceOnUse" id="color-4"><stop offset="0" stop-color="#bc1818"/><stop offset="1" stop-color="#9b18bc"/></radialGradient><radialGradient cx="238.51062" cy="116.41907" r="7.38954" gradientUnits="userSpaceOnUse" id="color-5"><stop offset="0" stop-color="#bc1818"/><stop offset="1" stop-color="#9b18bc"/></radialGradient><radialGradient cx="205.84264" cy="115.47975" r="10.36478" gradientUnits="userSpaceOnUse" id="color-6"><stop offset="0" stop-color="#569ffe"/><stop offset="1" stop-color="#bfebf3"/></radialGradient><linearGradient x1="208.49204" y1="102.99781" x2="235.68334" y2="125.14851" gradientUnits="userSpaceOnUse" id="color-7"><stop offset="0" stop-color="#070707"/><stop offset="1" stop-color="#ff0000"/></linearGradient><linearGradient x1="208.57895" y1="103.77125" x2="235.77027" y2="125.92197" gradientUnits="userSpaceOnUse" id="color-8"><stop offset="0" stop-color="#070707"/><stop offset="1" stop-color="#ff0000"/></linearGradient><linearGradient x1="208.90273" y1="103.25786" x2="236.09405" y2="125.40858" gradientUnits="userSpaceOnUse" id="color-9"><stop offset="0" stop-color="#070707"/><stop offset="1" stop-color="#ff0000"/></linearGradient><linearGradient x1="208.65854" y1="102.78212" x2="235.84986" y2="124.93284" gradientUnits="userSpaceOnUse" id="color-10"><stop offset="0" stop-color="#ff0000" stop-opacity="0"/><stop offset="1" stop-color="#ff0000"/></linearGradient><linearGradient x1="208.21133" y1="103.04593" x2="235.40264" y2="125.19666" gradientUnits="userSpaceOnUse" id="color-11"><stop offset="0" stop-color="#ff0000" stop-opacity="0"/><stop offset="1" stop-color="#ff0000"/></linearGradient><linearGradient x1="208.31632" y1="103.13146" x2="235.50764" y2="125.28218" gradientUnits="userSpaceOnUse" id="color-12"><stop offset="0" stop-color="#ff0000" stop-opacity="0"/><stop offset="1" stop-color="#ff0000"/></linearGradient></defs><g transform="translate(-113.00803,-56.54722)"><g data-paper-data="{&quot;isPaintingLayer&quot;:true}" fill-rule="nonzero" stroke-linejoin="miter" stroke-miterlimit="10" stroke-dasharray="" stroke-dashoffset="0" style="mix-blend-mode: normal"><g stroke-linecap="butt"><g><path d="M199.46022,223.28205c0,0 -41.23385,-10.00082 -56.10523,-13.98456c-9.74893,-2.61155 -29.67011,-9.34489 -29.67011,-9.34489l5.89613,-13.46012l86.47289,21.16686z" fill="#c70303" stroke="#9966ff" stroke-width="1"/><path d="M121.70025,202.87575c-0.04854,-0.03045 -0.09651,-0.06158 -0.14395,-0.09341l-0.01833,0.0353l-2.05467,-0.89644c-0.70922,-0.30944 -0.96297,-1.17955 -0.56675,-1.94347c0.31347,-0.60434 0.9398,-0.96119 1.53896,-0.93067l1.62279,0.04344l-0.00733,0.0495l0.12384,-0.04151c2.8383,0.5689 6.58533,0.5171 9.47415,1.02665c8.25292,2.45019 16.42154,5.11876 24.70064,7.53145c7.65614,1.22046 15.39412,3.40078 21.95543,6.24255c0,0 1.28417,0.56026 0.56676,1.94346c-0.7174,1.3832 -2.00157,0.82292 -2.00157,0.82292c-1.08982,-0.47943 -2.21501,1.099 -3.36061,0.66824c-0.23741,0.11509 -1.16048,-0.5709 -1.41389,-0.58381l-1.2402,-0.78111c-1.0933,-0.02927 -1.89967,-0.61195 -2.99295,-0.64149c-3.57748,0.03938 -6.47829,-1.97456 -9.81425,-2.82062c-7.96419,-2.01983 -18.23802,-2.42549 -25.15135,-7.04509c-0.11832,-0.0282 -0.2365,-0.05622 -0.35459,-0.0841l-0.13369,0.25777l-1.88345,-0.82176c-0.24149,-0.10538 -0.43017,-0.27573 -0.55836,-0.48478c-2.4105,-0.42593 -6.6208,-0.40805 -8.28657,-1.45306z" fill="#870303" stroke="none" stroke-width="0.5"/><path d="M130.2558,196.26289c-0.28696,0.55327 -0.80063,0.32916 -0.80063,0.32916l-0.25683,-0.11206c-1.41451,-0.68329 -3.9808,-0.02915 -5.48707,-0.68633c0,0 -0.51369,-0.22411 -0.22671,-0.77738c0.28696,-0.55327 0.80062,-0.32917 0.80062,-0.32917c1.48118,0.64622 3.98224,0.07247 5.48714,0.68631l0.25686,0.11205c0,0 0.51366,0.22412 0.2267,0.77739z" fill="#0554ff" stroke="none" stroke-width="0.5"/><path d="M143.64658,193.9992c-0.02697,0.59509 -0.61472,0.64209 -0.61472,0.64209l-0.46989,0.00711c-1.10041,0.96453 -0.98295,2.09478 -2.73581,1.37978c0,0 -0.51366,-0.22412 -0.22668,-0.77739c0.28698,-0.55327 0.80064,-0.32916 0.80064,-0.32916c0.89907,0.43431 0.9235,-0.64773 1.84128,-1.37264l0.84443,-0.09792c0,0 0.58778,-0.04695 0.56083,0.54811z" fill="#0554ff" stroke="none" stroke-width="0.5"/><path d="M153.35831,200.84283c-0.58777,0.04696 -0.56082,-0.54813 -0.56082,-0.54813l0.10375,-0.35948c-1.04147,-0.08599 -1.02808,-0.46504 -1.0708,-1.41939c0,0 0.02697,-0.59513 0.61474,-0.64209c0.58777,-0.04696 0.5608,0.54814 0.5608,0.54814c-0.15977,0.55357 0.38494,0.49899 0.9236,0.80771l0.04348,0.97117c0,0 -0.02697,0.59509 -0.61471,0.64209z" fill="#9b7137" stroke="none" stroke-width="0.5"/><path d="M167.7289,206.46991c-0.48639,0.39463 -0.81747,-0.05326 -0.81747,-0.05326l-0.37018,-0.50075c-0.7323,-0.99437 -0.92141,-1.68733 -2.05183,-2.1805c0,0 -0.51369,-0.22411 -0.22672,-0.77739c0.28698,-0.55327 0.80063,-0.32916 0.80063,-0.32916c1.31749,0.5748 1.61791,1.37615 2.45067,2.49779l0.3702,0.50075c0,0 0.3311,0.44788 -0.15528,0.84254z" fill="#0554ff" stroke="none" stroke-width="0.5"/><path d="M177.11876,202.46068c-0.28696,0.55327 -0.80062,0.32917 -0.80062,0.32917c-1.02735,-0.44822 -2.31149,-1.0085 -3.33885,-1.4567c0,0 -0.51366,-0.22412 -0.22669,-0.77739c0.28695,-0.55327 0.80063,-0.32918 0.80063,-0.32918c1.02736,0.44824 2.05467,0.89644 3.082,1.34465l0.25683,0.11206c0,0 0.51365,0.2241 0.22668,0.77739z" fill="#0554ff" stroke="none" stroke-width="0.5"/><path d="M175.22732,208.08101c0.13594,-0.11031 0.3361,-0.19261 0.59294,-0.08056c0.51366,0.22411 0.22669,0.77739 0.22669,0.77739l-0.94411,0.60582c-0.51366,-0.22412 -1.02733,-0.44823 -1.54101,-0.67233c0,0 -0.51366,-0.22413 -0.22669,-0.77739c0.28695,-0.55327 0.80063,-0.32918 0.80063,-0.32918c0.36386,0.15875 0.7277,0.3175 1.09156,0.47625z" fill="#0554ff" stroke="none" stroke-width="0.5"/><path d="M160.07012,200.11111c-0.25686,-0.11205 -0.3135,-0.30639 -0.30598,-0.47273c-0.02141,-0.00933 -0.0428,-0.01869 -0.06419,-0.02802c0,0 -0.51365,-0.2241 -0.22669,-0.77739c0.28696,-0.55327 0.80062,-0.32917 0.80062,-0.32917c0.17122,0.07468 0.34245,0.14944 0.51366,0.22412l0.08321,1.05404c0,0 -0.28696,0.55327 -0.80062,0.32918z" fill="#9b7137" stroke="none" stroke-width="0.5"/><path d="M158.74671,198.89106c-0.02697,0.59509 -0.61472,0.64209 -0.61472,0.64209l-0.46989,0.00712c-0.43437,0.30745 -1.045,0.36491 -1.50475,0.22071c0,0 -0.51366,-0.22411 -0.2267,-0.77737c0.28696,-0.55327 0.80061,-0.32919 0.80061,-0.32919c0.14298,0.13457 0.45154,-0.05757 0.61021,-0.21353l0.8444,-0.09793c0,0 0.5878,-0.04699 0.56083,0.54812z" fill="#9b7137" stroke="none" stroke-width="0.5"/><path d="M147.29727,201.6625c-0.28695,0.55327 -0.80064,0.32916 -0.80064,0.32916c-1.19858,-0.52292 -2.91079,-1.26995 -4.10936,-1.79288c0,0 -0.51366,-0.22412 -0.2267,-0.77737c0.28695,-0.55327 0.80064,-0.32916 0.80064,-0.32916c1.19856,0.52292 2.39713,1.04585 3.59568,1.56875l0.51366,0.22412c0,0 0.51369,0.22411 0.22671,0.77738z" fill="#0554ff" stroke="none" stroke-width="0.5"/><path d="M134.45657,191.45137c-0.51145,0.21028 -0.69168,-0.21805 -0.72175,-0.30276c-1.2245,0.13382 -2.58018,0.3878 -3.63831,-0.04381c0,0 -0.51369,-0.22411 -0.22672,-0.77739c0.28698,-0.55327 0.80063,-0.32916 0.80063,-0.32916c0.90434,0.43686 2.4857,0.00385 3.53941,-0.08036l0.65256,0.75103c0,0 0.16031,0.54968 -0.40585,0.78245z" fill="#9b7137" stroke="none" stroke-width="0.5"/><path d="M137.44718,199.40042c-0.28696,0.55327 -0.80063,0.32916 -0.80063,0.32916c-0.51366,-0.22412 -1.28416,-0.56028 -1.79784,-0.78438c0,0 -0.51366,-0.22412 -0.2267,-0.77739c0.28696,-0.55327 0.80062,-0.32917 0.80062,-0.32917c0.51365,0.2241 1.02735,0.44824 1.54101,0.67233l0.25684,0.11206c0,0 0.51366,0.22413 0.22672,0.77741z" fill="#9b7137" stroke="none" stroke-width="0.5"/><path d="M128.32167,192.70514c-0.28695,0.55327 -1.60445,0.32918 -1.60445,0.32918l-0.51369,-0.22411c-0.49587,-0.21634 -0.59061,-0.56901 -0.95304,-0.11241c0,0 -0.48639,0.39463 -0.81749,-0.05325c-0.33112,-0.44789 0.15528,-0.84254 0.15528,-0.84254c1.05741,-0.72467 1.19563,-0.53188 2.18921,-0.09841l1.31749,0.22411c0,0 0.51366,0.22412 0.2267,0.77739z" fill="#0554ff" stroke="none" stroke-width="0.5"/><path d="M137.06119,193.46495c-0.28695,0.55327 -0.80062,0.32914 -0.80062,0.32914l-0.25683,-0.11206c-0.26884,-0.12986 -0.59664,-0.16442 -0.91082,-0.12974c0,0 -0.58777,0.04696 -0.5608,-0.54814c0.02697,-0.59509 0.61471,-0.64209 0.61471,-0.64209c0.49338,-0.02955 0.99404,0.03522 1.43084,0.21338l0.25683,0.11206c0,0 0.51366,0.22412 0.2267,0.77739z" fill="#4f340e" stroke="none" stroke-width="0.5"/><path d="M143.98243,197.98207c-0.56613,0.23277 -0.72643,-0.31692 -0.72643,-0.31692l0.16581,-0.06818c-0.39012,-0.17024 -1.08176,-0.3125 -1.23499,-0.66828c-0.12427,0.25195 -0.25749,0.50959 -0.33614,0.66128c0,0 -0.28696,0.55327 -0.80062,0.32917c-0.51366,-0.22411 -0.2267,-0.77737 -0.2267,-0.77737c1.41085,-2.72014 1.95394,-1.18294 3.1724,-0.65134l0.39254,0.7092c0,0 0.16032,0.54971 -0.40582,0.78245z" fill="#0554ff" stroke="none" stroke-width="0.5"/><path d="M153.66825,202.67424c-0.58777,0.04696 -0.56083,-0.54812 -0.56083,-0.54812l0.18324,-0.2583c-1.86696,0.55629 -0.65899,-2.59603 -1.65012,-0.68513c0,0 -0.28698,0.55327 -0.80065,0.32916c-0.51366,-0.22411 -0.2267,-0.77737 -0.2267,-0.77737c1.61424,-3.11234 2.05833,0.13888 3.54684,0.2253l0.12298,1.07236c0,0 -0.02698,0.5951 -0.61472,0.64209z" fill="#4f340e" stroke="none" stroke-width="0.5"/><path d="M170.11679,203.81589c-0.28695,0.55327 -0.80063,0.32919 -0.80063,0.32919l-0.20076,-0.18892c-1.97319,2.48581 -3.15937,0.26047 -3.43422,-1.66839c0,0 -0.07863,-0.57708 0.50447,-0.72977c0.58311,-0.15268 0.66174,0.42442 0.66174,0.42442c0.3029,2.3495 0.47969,1.98682 2.21614,0.7968l0.82659,0.2593c0,0 0.51366,0.22411 0.22672,0.77739z" fill="#0554ff" stroke="none" stroke-width="0.5"/><path d="M177.11574,204.26746c-1.49365,2.56092 -1.67963,-0.98355 -2.53919,-0.61285c0,0 -0.58777,0.04699 -0.56083,-0.5481c0.02697,-0.59509 0.61474,-0.64209 0.61474,-0.64209c2.01945,0.06557 1.13031,1.99944 1.5106,1.27439c0.0022,-0.00459 0.00342,-0.00697 0.00342,-0.00697l0.00022,0.00003c0.03578,-0.06835 0.08246,-0.1594 0.14328,-0.27669l0.44193,0.36243l0.5854,0.0858c-0.05055,0.09744 -0.0997,0.18844 -0.14756,0.27331l0.00409,0.00334c0,0 -0.01903,0.03673 -0.05609,0.0874z" fill="#0554ff" stroke="none" stroke-width="0.5"/><path d="M160.8564,205.882c-0.28696,0.55327 -0.80063,0.32916 -0.80063,0.32916l0.00318,-0.07026c-0.90321,-0.16022 -1.87104,1.72048 -2.13198,-0.5551c0,0 0.02698,-0.5951 0.61471,-0.64209c0.48012,-0.03837 0.55009,0.35162 0.55961,0.49578c0.15566,-0.16292 0.47948,-0.39772 1.01152,-0.48881l0.51687,0.15386c0,0 0.51366,0.22412 0.2267,0.77739z" fill="#0554ff" stroke="none" stroke-width="0.5"/><path d="M150.95033,195.01136c-0.52693,0.42752 -0.88562,-0.05767 -0.88562,-0.05767l-0.30452,-0.44247c-0.81172,-0.35416 -0.65116,-0.73224 -1.63621,-0.73191c0,0 -0.62621,-0.04077 -0.50726,-0.68619c0.11896,-0.64541 0.74519,-0.6046 0.74519,-0.6046c1.37583,0.14564 1.19493,0.50326 2.25912,0.96757l0.49755,0.64249c0,0 0.3587,0.48523 -0.16822,0.91274z" fill="#4f340e" stroke="none" stroke-width="0.5"/><path d="M129.50827,198.31143c-0.28696,0.55327 -0.80063,0.32918 -0.80063,0.32918l-0.25686,-0.11205c-0.70164,-0.3061 -2.5594,-0.28177 -3.21468,0.26931c0,0 -0.48637,0.39466 -0.81746,-0.05322c-0.33112,-0.44789 0.15527,-0.84254 0.15527,-0.84254c1.58706,-1.21871 2.71091,-1.23923 4.45084,-0.48011l0.25684,0.11205c0,0 0.51366,0.22414 0.22669,0.77739z" fill="#4f340e" stroke="none" stroke-width="0.5"/></g><g><g><path d="M139.96856,220.1236l-6.62871,-3.24274c0,0 9.75038,-12.64851 13.48313,-19.84542c3.85208,-7.4269 9.28262,-24.04776 9.28262,-24.04776l7.43252,3.24273z" fill="#ff0000" stroke="none" stroke-width="0"/><g data-paper-data="{&quot;index&quot;:null}"><path d="M139.28374,219.39607c0,0 7.75897,-11.09215 13.25111,-22.47098c3.60037,-7.45939 7.98703,-21.5426 7.98703,-21.5426l10.56023,4.1684l-23.49667,44.39451z" fill="#c70303" stroke="#9966ff" stroke-width="1"/><path d="M162.74204,183.31865c-0.35995,-0.20995 -0.1063,-0.60432 -0.1063,-0.60432l0.12684,-0.19718c0.74745,-1.08692 0.56553,-2.41834 1.30943,-3.57476c0,0 0.25369,-0.39437 0.61363,-0.18441c0.35995,0.20995 0.10632,0.60432 0.10632,0.60432c-0.73146,1.13714 -0.59782,2.4201 -1.30938,3.57473l-0.12682,0.19715c0,0 -0.25369,0.39437 -0.61362,0.1844z" fill="#0554ff" stroke="none" stroke-width="0.5"/><path d="M162.12288,193.47539c-0.43542,-0.01145 -0.36948,-0.45807 -0.36948,-0.45807l0.07519,-0.35752c-0.52476,-0.82277 -1.38059,-0.71615 -0.55177,-2.06111c0,0 0.25369,-0.39437 0.61363,-0.18439c0.35995,0.20995 0.1063,0.60432 0.1063,0.60432c-0.47509,0.69087 0.3208,0.69298 0.69967,1.38044l-0.07218,0.64116c0,0 -0.06591,0.44661 -0.50132,0.43517z" fill="#0554ff" stroke="none" stroke-width="0.5"/><path d="M155.39966,200.97098c0.06592,-0.44663 0.50132,-0.43517 0.50132,-0.43517l0.24806,0.07348c0.24193,-0.79394 0.51989,-0.7895 1.23288,-0.83659c0,0 0.4354,0.01144 0.36948,0.45807c-0.0659,0.44661 -0.50132,0.43515 -0.50132,0.43515c-0.38196,-0.11314 -0.43492,0.30058 -0.75538,0.71522l-0.72554,0.04791c0,0 -0.4354,-0.01143 -0.36948,-0.45809z" fill="#0554ff" stroke="none" stroke-width="0.5"/><path d="M148.77819,211.9937c-0.20853,-0.36415 0.17934,-0.62297 0.17934,-0.62297l0.43362,-0.28937c0.86062,-0.57247 1.40542,-0.72699 1.96363,-1.59481c0,0 0.25366,-0.39435 0.61363,-0.18439c0.35995,0.20995 0.10632,0.60432 0.10632,0.60432c-0.65062,1.01143 -1.2946,1.25229 -2.26656,1.90317l-0.43365,0.28937c0,0 -0.38787,0.25882 -0.59637,-0.10535z" fill="#0554ff" stroke="none" stroke-width="0.5"/><path d="M150.13479,219.07893c-0.35995,-0.20995 -0.1063,-0.60429 -0.1063,-0.60429c0.50733,-0.78868 1.14149,-1.77457 1.64884,-2.5633c0,0 0.25369,-0.39434 0.61365,-0.18441c0.35995,0.20995 0.1063,0.60432 0.1063,0.60432c-0.50733,0.78868 -1.01464,1.57741 -1.52199,2.3661l-0.12684,0.19717c0,0 -0.25368,0.39433 -0.61363,0.18438z" fill="#0554ff" stroke="none" stroke-width="0.5"/><path d="M146.30292,217.72507c0.05827,0.1018 0.08485,0.25284 -0.04197,0.45003c-0.25365,0.39434 -0.61363,0.18439 -0.61363,0.18439l-0.2863,-0.70929c0.25365,-0.39434 0.50734,-0.78871 0.76101,-1.18306c0,0 0.25365,-0.39435 0.61363,-0.18439c0.35995,0.20995 0.1063,0.60432 0.1063,0.60432c-0.17968,0.27933 -0.35935,0.55865 -0.53904,0.83798z" fill="#0554ff" stroke="none" stroke-width="0.5"/><path d="M154.79139,206.06795c0.12684,-0.19718 0.28025,-0.24328 0.40194,-0.24008c0.01055,-0.01641 0.02115,-0.03285 0.03171,-0.04927c0,0 0.25369,-0.39437 0.61363,-0.18438c0.35995,0.20995 0.1063,0.60432 0.1063,0.60432c-0.08456,0.13145 -0.16913,0.26289 -0.25366,0.39435l-0.79362,0.07941c0,0 -0.35995,-0.20999 -0.10629,-0.60434z" fill="#0554ff" stroke="none" stroke-width="0.5"/><path d="M155.92014,205.04216c-0.43542,-0.01145 -0.36948,-0.45807 -0.36948,-0.45807l0.07519,-0.35752c-0.15296,-0.3259 -0.09089,-0.78978 0.09447,-1.14185c0,0 0.25369,-0.39434 0.61365,-0.18441c0.35995,0.20995 0.1063,0.60432 0.1063,0.60432c-0.12397,0.11087 -0.03475,0.34276 0.0534,0.46116l-0.07217,0.64115c0,0 -0.06592,0.44663 -0.50133,0.43518z" fill="#0554ff" stroke="none" stroke-width="0.5"/><path d="M155.83143,196.37059c-0.35995,-0.20995 -0.1063,-0.60429 -0.1063,-0.60429c0.59187,-0.92017 1.43742,-2.23465 2.02933,-3.15482c0,0 0.25369,-0.39437 0.61363,-0.18439c0.35995,0.20995 0.1063,0.60432 0.1063,0.60432c-0.59187,0.92017 -1.18379,1.84032 -1.77567,2.76047l-0.25365,0.39436c0,0 -0.25369,0.39434 -0.61365,0.18439z" fill="#0554ff" stroke="none" stroke-width="0.5"/><path d="M165.58042,186.44241c-0.06789,-0.38608 0.27967,-0.52974 0.34747,-0.5539c0.11071,-0.92988 0.15507,-1.9578 0.65539,-2.76968c0,0 0.25366,-0.39435 0.61365,-0.18441c0.35995,0.20995 0.1063,0.60432 0.1063,0.60432c-0.47787,0.69492 -0.42849,1.89184 -0.54665,2.69249l-0.66707,0.50807c0,0 -0.4339,0.13037 -0.50908,-0.29693z" fill="#0554ff" stroke="none" stroke-width="0.5"/><path d="M159.19067,188.83958c-0.35995,-0.20995 -0.1063,-0.60432 -0.1063,-0.60432c0.25365,-0.39434 0.63418,-0.98588 0.88784,-1.38023c0,0 0.25365,-0.39434 0.61363,-0.18438c0.35995,0.20995 0.10631,0.60431 0.10631,0.60431c-0.25365,0.39434 -0.50734,0.78872 -0.76099,1.18306l-0.12682,0.19717c0,0 -0.25366,0.39435 -0.61363,0.18439z" fill="#0554ff" stroke="none" stroke-width="0.5"/><path d="M165.7039,181.79237c-0.35995,-0.20995 -0.1063,-0.60432 -0.1063,-0.60432l0.25365,-0.39434c0.24489,-0.3807 0.52188,-0.4582 0.2463,-0.72706c0,0 -0.20852,-0.36419 0.17934,-0.62299c0.38787,-0.25882 0.59637,0.10534 0.59637,0.10534c0.35476,0.79373 0.18858,0.90186 -0.30209,1.66462l-0.25367,0.39437c0,0 -0.25368,0.39433 -0.61363,0.18438z" fill="#0554ff" stroke="none" stroke-width="0.5"/><path d="M163.6456,188.45535c-0.35995,-0.20995 -0.1063,-0.60432 -0.1063,-0.60432l0.12684,-0.19718c0.14205,-0.20656 0.22373,-0.45657 0.25192,-0.69518c0,0 0.06591,-0.44661 0.50133,-0.43517c0.43542,0.01145 0.36948,0.45807 0.36948,0.45807c-0.06263,0.37502 -0.19625,0.75706 -0.40279,1.09223l-0.12684,0.19717c0,0 -0.25366,0.39435 -0.61363,0.18439z" fill="#0554ff" stroke="none" stroke-width="0.5"/><path d="M159.12037,193.79169c-0.07516,-0.42731 0.35873,-0.55772 0.35873,-0.55772l0.02202,0.12518c0.19266,-0.29952 0.41631,-0.82809 0.7056,-0.95011c-0.165,-0.09074 -0.33273,-0.18817 -0.43138,-0.24577c0,0 -0.35998,-0.21 -0.10633,-0.60432c0.25365,-0.39434 0.61365,-0.18438 0.61365,-0.18438c1.76974,1.03229 0.5401,1.46906 -0.06161,2.40447l-0.59161,0.30952c0,0 -0.43392,0.13037 -0.50906,-0.29695z" fill="#0554ff" stroke="none" stroke-width="0.5"/><path d="M153.99239,201.23474c0.06592,-0.44663 0.50133,-0.43518 0.50133,-0.43518l0.15962,0.13552c-0.09164,-1.41241 2.0324,-0.5411 0.78916,-1.26632c0,0 -0.35995,-0.20997 -0.1063,-0.60432c0.25365,-0.39434 0.61365,-0.18438 0.61365,-0.18438c2.02489,1.18114 -0.45515,1.56863 -0.77393,2.70279l-0.814,0.10992c0,0 -0.43541,-0.01142 -0.36949,-0.45807z" fill="#0554ff" stroke="none" stroke-width="0.5"/><path d="M150.3317,213.77062c-0.35995,-0.20995 -0.10629,-0.60434 -0.10629,-0.60434l0.17406,-0.15565c-1.50018,-1.46382 0.34841,-2.40051 1.82169,-2.63913c0,0 0.44015,-0.06864 0.45322,0.37284c0.01307,0.44147 -0.42714,0.5101 -0.42714,0.5101c-1.78913,0.2663 -1.55123,0.39536 -0.96864,1.69878l-0.33328,0.63303c0,0 -0.25365,0.39434 -0.61361,0.18439z" fill="#0554ff" stroke="none" stroke-width="0.5"/><path d="M148.79937,219.10417c-1.63781,-1.09775 1.01487,-1.29329 0.88796,-1.94183c0,0 0.0659,-0.44661 0.50132,-0.43515c0.43542,0.01145 0.36951,0.45806 0.36951,0.45806c-0.39427,1.53796 -1.67197,0.89071 -1.20099,1.16912c0.00302,0.00161 0.00459,0.0025 0.00459,0.0025l-0.00006,0.00016c0.04441,0.0262 0.10375,0.06031 0.18003,0.10483l-0.34364,0.34184l-0.16367,0.44686c-0.0634,-0.03699 -0.12225,-0.07302 -0.17681,-0.10814l-0.00318,0.00317c0,0 -0.02388,-0.01393 -0.05502,-0.04137z" fill="#0554ff" stroke="none" stroke-width="0.5"/><path d="M150.38969,206.75431c-0.35995,-0.20995 -0.10631,-0.60431 -0.10631,-0.60431l0.0514,0.00134c0.27314,-0.68985 -0.95174,-1.39776 0.77549,-1.63099c0,0 0.4354,0.01143 0.36949,0.45807c-0.05384,0.36479 -0.3542,0.42401 -0.46241,0.43344c0.09378,0.11598 0.21195,0.35885 0.18823,0.76242l-0.20227,0.39571c0,0 -0.25366,0.39435 -0.61363,0.18438z" fill="#0554ff" stroke="none" stroke-width="0.5"/><path d="M160.12384,199.04949c-0.22588,-0.3945 0.19429,-0.67491 0.19429,-0.67491l0.3793,-0.23852c0.40085,-0.62319 0.65294,-0.50676 0.82136,-1.25643c0,0 0.13737,-0.47722 0.59422,-0.39653c0.45686,0.08069 0.31948,0.55792 0.31948,0.55792c-0.34328,1.0493 -0.57674,0.91707 -1.10228,1.73406l-0.5603,0.38847c0,0 -0.42018,0.28038 -0.6461,-0.1141z" fill="#0554ff" stroke="none" stroke-width="0.5"/><path d="M161.3553,182.78093c-0.35995,-0.20995 -0.1063,-0.60432 -0.1063,-0.60432l0.12684,-0.19717c0.34648,-0.53865 0.50897,-1.34041 0.21367,-1.83072c0,0 -0.20853,-0.36415 0.17936,-0.62296c0.38787,-0.25882 0.59637,0.10535 0.59637,0.10535c0.62937,1.1893 0.58974,1.43254 -0.2695,2.76827l-0.12684,0.19718c0,0 -0.25366,0.39435 -0.61363,0.18438z" fill="#0554ff" stroke="none" stroke-width="0.5"/></g></g><g fill="#a8a8a8" stroke="#6b6b6b" stroke-width="1"><path d="M138.82098,205.43779c0.43251,0.18867 0.24912,1.37123 -0.40961,2.64127c-0.65872,1.27004 -1.54335,2.14664 -1.97584,1.95793c-0.43251,-0.18867 -0.24912,-1.37123 0.4096,-2.64127c0.65871,-1.27003 1.54333,-2.14664 1.97583,-1.95793z"/><path d="M140.85127,204.38481c0.47183,0.20587 0.0533,1.91707 -0.93479,3.82215c-0.98807,1.90506 -2.17158,3.28255 -2.64337,3.07668c-0.47184,-0.20584 -0.05331,-1.91708 0.93475,-3.82214c0.98807,-1.90506 2.17158,-3.28252 2.64338,-3.07667z"/><path d="M143.00044,204.6175c0.47183,0.20587 -0.09685,2.20665 -1.27021,4.46889c-1.17335,2.26227 -2.507,3.9293 -2.97885,3.72344c-0.47184,-0.20584 0.09687,-2.20662 1.27022,-4.46889c1.17336,-2.26226 2.50701,-3.9293 2.97883,-3.72344z"/><path d="M145.01398,204.43849c0.55046,0.24019 -0.05461,2.4618 -1.35147,4.96218c-1.29686,2.5004 -2.79442,4.33264 -3.34485,4.0925c-0.55046,-0.24019 0.05461,-2.4618 1.35147,-4.96218c1.29686,-2.5004 2.7944,-4.33268 3.34485,-4.0925z"/></g><g fill="#a8a8a8" stroke="#6b6b6b" stroke-width="1"><path d="M152.56636,178.93623c0.43248,0.18871 0.24912,1.37123 -0.4096,2.64127c-0.65871,1.27003 -1.54333,2.14664 -1.97583,1.95793c-0.43248,-0.18871 -0.2491,-1.37123 0.40962,-2.64126c0.65872,-1.27003 1.54333,-2.14664 1.97584,-1.95794z"/><path d="M154.59663,177.88329c0.47184,0.20584 0.0533,1.91707 -0.93479,3.82215c-0.98807,1.90506 -2.17158,3.28255 -2.64337,3.07668c-0.47184,-0.20584 -0.0533,-1.91707 0.93479,-3.82215c0.98807,-1.90506 2.17155,-3.28253 2.64337,-3.07668z"/><path d="M156.74581,178.11599c0.47184,0.20584 -0.09687,2.20664 -1.27022,4.4689c-1.17333,2.26224 -2.50701,3.9293 -2.97883,3.72344c-0.47184,-0.20584 0.09687,-2.20664 1.27022,-4.4689c1.17335,-2.26227 2.50701,-3.92931 2.97883,-3.72344z"/><path d="M158.75935,177.93696c0.55046,0.24019 -0.05463,2.46179 -1.35147,4.96218c-1.29686,2.5004 -2.79442,4.33264 -3.34485,4.0925c-0.55046,-0.24019 0.05461,-2.4618 1.35146,-4.96218c1.29686,-2.5004 2.7944,-4.33268 3.34485,-4.0925z"/></g></g><g><path d="M122.2339,216.05263l-7.36574,-1.80734c0,0 7.2576,-12.72382 9.70102,-19.69772c2.52149,-7.19678 6.00489,-22.83536 6.00489,-22.83536l7.36575,1.80735z" data-paper-data="{&quot;index&quot;:null}" fill="#ff0000" stroke="none" stroke-width="0"/><g data-paper-data="{&quot;index&quot;:null}"><path d="M145.43525,175.3837l-15.30115,42.83809l-10.96369,-2.86958c0,0 7.59075,-12.06232 10.30788,-19.14475c4.14477,-10.80378 6.53193,-22.64155 6.53193,-22.64155z" fill="#c70303" stroke="#9966ff" stroke-width="1"/><path d="M126.51352,211.5629l-0.05006,0.20441c-0.31455,1.18005 -1.29936,1.98934 -1.58805,3.16817c0,0 -0.10012,0.40881 -0.49371,0.35765c-0.39355,-0.05117 -0.29344,-0.46 -0.29344,-0.46c0.29358,-1.19884 1.34529,-2.01518 1.58804,-3.1682l0.05005,-0.20442c0,0 0.10012,-0.40881 0.49366,-0.35763c0.39355,0.05117 0.29344,0.46 0.29344,0.46z" fill="#0554ff" stroke="none" stroke-width="0.5"/><path d="M133.70927,204.35675l-0.39665,0.4799c-0.73889,0.26677 -1.28738,-0.16398 -1.44171,0.56889c0,0 -0.10013,0.40881 -0.49371,0.35765c-0.39355,-0.05117 -0.29345,-0.45996 -0.29345,-0.45996c0.3664,-1.37455 0.88046,-0.83651 1.81383,-1.11707l0.19716,-0.28657c0,0 0.26552,-0.3428 0.5728,-0.11418c0.30725,0.2286 0.0417,0.57138 0.0417,0.57138z" fill="#0554ff" stroke="none" stroke-width="0.5"/><path d="M134.83613,194.86801l0.46538,0.42693c-0.06832,0.45906 -0.31988,0.77219 0.02139,0.90182c0,0 0.30726,0.22855 0.04169,0.57135c-0.26557,0.34279 -0.5728,0.11419 -0.5728,0.11419c-0.45729,-0.41953 -0.65145,-0.56746 -0.26515,-1.24455l-0.22166,-0.08421c0,0 -0.30725,-0.22857 -0.04168,-0.57137c0.26557,-0.34279 0.57279,-0.11419 0.57279,-0.11419z" fill="#0554ff" stroke="none" stroke-width="0.5"/><path d="M137.86728,184.06137l0.09668,0.43439c0.21504,0.97521 0.49005,1.49047 0.23327,2.53902c0,0 -0.10012,0.40881 -0.49366,0.35763c-0.39355,-0.05117 -0.29344,-0.45997 -0.29344,-0.45997c0.22033,-0.89967 -0.04661,-1.3017 -0.23973,-2.16257l-0.09665,-0.43439c0,0 -0.08646,-0.38852 0.31033,-0.5256c0.39678,-0.13707 0.48323,0.25146 0.48323,0.25146z" fill="#0554ff" stroke="none" stroke-width="0.5"/><path d="M143.5414,180.13653l-0.05005,0.2044c-0.20024,0.81763 -0.40047,1.63526 -0.6007,2.45288c0,0 -0.10012,0.40881 -0.49367,0.35766c-0.39357,-0.05118 -0.29344,-0.46 -0.29344,-0.46c0.20023,-0.81764 0.45053,-1.83966 0.65076,-2.6573c0,0 0.10009,-0.4088 0.49368,-0.35764c0.39355,0.05117 0.29344,0.45997 0.29344,0.45997z" fill="#0554ff" stroke="none" stroke-width="0.5"/><path d="M139.45901,179.39499c0,0 -0.10009,0.4088 -0.49368,0.35764c-0.39355,-0.05117 -0.29344,-0.45997 -0.29344,-0.45997c0.10012,-0.40881 0.20023,-0.81764 0.30036,-1.22645l0.69045,-0.33205c0,0 0.39357,0.05118 0.29344,0.45997c-0.05005,0.2044 -0.17348,0.29381 -0.28438,0.33213c-0.0709,0.28956 -0.14183,0.57915 -0.21277,0.86873z" fill="#0554ff" stroke="none" stroke-width="0.5"/><path d="M137.88651,190.79083l0.49023,0.48553c-0.03338,0.13626 -0.06674,0.27254 -0.10012,0.40882c0,0 -0.10014,0.40882 -0.49368,0.35764c-0.39357,-0.05118 -0.29345,-0.45997 -0.29345,-0.45997c0.00417,-0.01701 0.00834,-0.03407 0.01253,-0.05111c-0.08588,-0.0639 -0.15924,-0.17889 -0.10918,-0.38329c0.10011,-0.40882 0.49368,-0.35763 0.49368,-0.35763z" fill="#0554ff" stroke="none" stroke-width="0.5"/><path d="M137.49642,193.0379l-0.39665,0.4799c-0.14299,0.03351 -0.36573,0.14444 -0.35767,0.28799c0,0 -0.10013,0.40881 -0.49368,0.35763c-0.39355,-0.05117 -0.29343,-0.45996 -0.29343,-0.45996c0.11764,-0.34266 0.39781,-0.69521 0.72982,-0.83617l0.19716,-0.28657c0,0 0.26555,-0.34279 0.5728,-0.11418c0.30725,0.2286 0.04168,0.57137 0.04168,0.57137z" fill="#0554ff" stroke="none" stroke-width="0.5"/><path d="M131.65167,198.83876l-0.10012,0.40881c-0.2336,0.95387 -0.46721,1.90781 -0.70082,2.86169c0,0 -0.10013,0.40881 -0.49371,0.35765c-0.39355,-0.05117 -0.29342,-0.45997 -0.29342,-0.45997c0.2336,-0.95387 0.56732,-2.31659 0.80093,-3.2705c0,0 0.10012,-0.40881 0.49368,-0.35764c0.39357,0.05118 0.29344,0.46 0.29344,0.46z" fill="#0554ff" stroke="none" stroke-width="0.5"/><path d="M131.70563,210.56953l0.1049,0.71147c-0.47609,0.61451 -1.34308,1.4104 -1.4983,2.14757c0,0 -0.10009,0.4088 -0.49368,0.35764c-0.39358,-0.05115 -0.29344,-0.45997 -0.29344,-0.45997c0.22117,-0.82974 0.90614,-1.56036 1.47723,-2.25967c-0.02976,-0.05341 -0.16864,-0.34092 0.1467,-0.5694c0.34907,-0.25291 0.55659,0.07234 0.55659,0.07234z" fill="#0554ff" stroke="none" stroke-width="0.5"/><path d="M128.71899,205.8395l-0.05005,0.2044c-0.10011,0.40882 -0.20024,0.81763 -0.30036,1.22645c0,0 -0.10012,0.40882 -0.49368,0.35764c-0.39355,-0.05117 -1.09727,-0.45997 -1.09727,-0.45997c0.10012,-0.40881 1.05412,-1.02205 1.15424,-1.43085c0,0 0.10012,-0.40881 0.49368,-0.35764c0.39355,0.05117 0.29342,0.45997 0.29342,0.45997z" fill="#0554ff" stroke="none" stroke-width="0.5"/><path d="M128.29093,214.2204l-0.10014,0.40882c-0.19365,0.79075 -0.95849,0.95535 -1.75477,1.30825c0,0 -0.39677,0.13706 -0.48325,-0.25146c-0.08645,-0.38855 0.31034,-0.52562 0.31034,-0.52562c0.37656,-0.03517 0.2401,-0.23883 0.33675,-0.6335l0.10012,-0.40881c0,0 0.90397,-0.40882 1.29753,-0.35765c0.39355,0.05117 0.29344,0.45997 0.29344,0.45997z" fill="#0554ff" stroke="none" stroke-width="0.5"/><path d="M131.51365,208.52281l-0.05006,0.20441c-0.0913,0.34253 -0.26532,0.67768 -0.48332,0.96949c0,0 -0.26556,0.3428 -0.57279,0.11419c-0.30725,-0.2286 -0.04169,-0.57135 -0.04169,-0.57135c0.14669,-0.1793 0.26455,-0.39549 0.31068,-0.61463l0.05005,-0.2044c0,0 0.10012,-0.40881 0.49366,-0.35763c0.39357,0.05118 0.29345,0.45996 0.29345,0.45996z" fill="#0554ff" stroke="none" stroke-width="0.5"/><path d="M132.38053,202.00984l0.1912,0.53403c-0.23747,0.96972 0.3037,1.93771 -1.63123,1.68621c0,0 -0.39354,-0.05115 -0.29342,-0.45997c0.10012,-0.40881 0.49368,-0.35764 0.49368,-0.35764c0.1079,0.01402 0.29099,0.03813 0.46756,0.06536c-0.11392,-0.24097 0.10022,-0.72573 0.1763,-1.03623l-0.10224,0.07408c0,0 -0.2075,-0.32525 0.14158,-0.57816c0.34908,-0.2529 0.5566,0.07235 0.5566,0.07235z" fill="#0554ff" stroke="none" stroke-width="0.5"/><path d="M134.05245,193.92251l0.48299,0.51762c-0.57026,0.9527 0.86465,2.56583 -1.34923,2.27806c0,0 -0.39355,-0.05114 -0.29344,-0.45997c0.10012,-0.40881 0.49368,-0.35764 0.49368,-0.35764c1.35928,0.17669 -0.7071,-0.37789 0.33895,-1.29894l-0.20406,0.00646c0,0 -0.30727,-0.22858 -0.0417,-0.57137c0.26557,-0.34279 0.5728,-0.11419 0.5728,-0.11419z" fill="#0554ff" stroke="none" stroke-width="0.5"/><path d="M139.98205,183.89217l-0.21152,0.61611c-1.30763,0.57955 -1.56094,0.539 -0.51653,1.69368c0,0 0.25478,0.2862 -0.06144,0.58257c-0.31623,0.29637 -0.57102,0.01015 -0.57102,0.01015c-0.84659,-0.96407 -1.46527,-2.61177 0.58473,-2.80328l-0.01133,-0.20154c0,0 0.10009,-0.4088 0.49368,-0.35764c0.39355,0.05117 0.29344,0.45997 0.29344,0.45997z" fill="#0554ff" stroke="none" stroke-width="0.5"/><path d="M142.4142,178.93548l-0.00003,0.00387c0.06196,0.00549 0.1275,0.01269 0.19681,0.02171l-0.19853,0.39603l-0.00175,0.42159c-0.08343,-0.01084 -0.14796,-0.01959 -0.19671,-0.02571l-0.00007,0.00015c0,0 -0.0017,-0.00021 -0.00491,-0.00074c-0.51751,-0.0644 0.81124,0.18456 0.0118,1.45577c0,0 -0.26556,0.34279 -0.5728,0.11418c-0.30726,-0.22859 -0.04168,-0.57137 -0.04168,-0.57137c0.53861,-0.37686 -1.14859,-1.95181 0.74121,-1.81693c0.04048,-0.00195 0.06661,0.00143 0.06661,0.00143z" fill="#0554ff" stroke="none" stroke-width="0.5"/><path d="M135.13847,188.74633l-0.13637,0.38184c-0.26455,0.29028 -0.51482,0.39307 -0.66002,0.42182c0.06782,0.06526 0.23307,0.26906 0.01617,0.54904c-0.26557,0.34279 -0.5728,0.11418 -0.5728,0.11418c-1.02486,-1.09834 0.30977,-0.91973 0.60218,-1.54224l-0.03627,-0.02698c0,0 0.10012,-0.40882 0.49368,-0.35764c0.39357,0.05118 0.29344,0.45997 0.29344,0.45997z" fill="#0554ff" stroke="none" stroke-width="0.5"/><path d="M136.69667,199.14087l0.11473,0.57127c-0.20742,0.84696 0.04509,0.88287 -0.44928,1.79051c0,0 -0.23772,0.40263 -0.60791,0.21001c-0.37019,-0.19263 -0.13246,-0.59527 -0.13246,-0.59527c0.40602,-0.60675 0.1517,-0.66362 0.30991,-1.30965l-0.0947,-0.36992c0,0 -0.09365,-0.4209 0.33617,-0.56938c0.42986,-0.14848 0.52353,0.27241 0.52353,0.27241z" fill="#0554ff" stroke="none" stroke-width="0.5"/><path d="M125.1861,211.17945l-0.05006,0.20441c-0.33912,1.38473 -0.48116,1.57347 -1.74154,2.04913c0,0 -0.39678,0.13707 -0.48325,-0.25146c-0.08645,-0.38855 0.31032,-0.52561 0.31032,-0.52561c0.54422,-0.17668 0.99056,-0.81597 1.12732,-1.37439l0.05006,-0.20441c0,0 0.10013,-0.40881 0.49368,-0.35763c0.39355,0.05117 0.29344,0.45997 0.29344,0.45997z" fill="#0554ff" stroke="none" stroke-width="0.5"/></g><g data-paper-data="{&quot;index&quot;:null}" fill="#a8a8a8" stroke="#6b6b6b" stroke-width="1"><path d="M126.59007,177.24634c0.43119,-1.23067 1.93204,-2.14309 2.36064,-2.03791c0.42861,0.10517 0.42657,1.18812 -0.00461,2.41879c-0.43119,1.23067 -1.93205,2.1431 -2.36064,2.03792c-0.4286,-0.10517 -0.42654,-1.18811 0.00465,-2.41878z"/><path d="M128.37636,177.94117c0.64679,-1.84603 1.55017,-3.24953 2.01774,-3.13478c0.46758,0.11472 0.32235,1.70424 -0.32444,3.55025c-0.64679,1.84603 -1.55016,3.24951 -2.01774,3.13479c-0.46758,-0.11472 -0.32235,-1.70424 0.32445,-3.55025z"/><path d="M130.23514,178.32163c0.76806,-2.19216 1.76973,-3.87624 2.23733,-3.76151c0.46758,0.11474 0.224,1.98484 -0.54406,4.17699c-0.76806,2.19216 -1.76973,3.87623 -2.23733,3.76152c-0.46759,-0.11472 -0.224,-1.98483 0.54406,-4.17701z"/><path d="M131.4998,179.08569c0.84891,-2.42291 1.9793,-4.27855 2.52481,-4.14469c0.54553,0.13386 0.29956,2.20652 -0.54933,4.62942c-0.84891,2.42291 -1.97928,4.27856 -2.52481,4.14469c-0.54553,-0.13387 -0.29956,-2.20652 0.54933,-4.62941z"/></g><g data-paper-data="{&quot;index&quot;:null}" fill="#a8a8a8" stroke="#6b6b6b" stroke-width="1"><path d="M117.45198,203.32797c0.43119,-1.23067 1.12818,-2.14308 1.55681,-2.03792c0.42861,0.10517 0.42652,1.18812 -0.00465,2.41879c-0.43119,1.23067 -1.1282,2.14308 -1.55682,2.03792c-0.42861,-0.10517 -0.42656,-1.1881 0.00465,-2.41878z"/><path d="M118.43443,204.02277c0.64679,-1.84603 1.55016,-3.24949 2.01774,-3.13478c0.46759,0.11472 0.32235,1.70424 -0.32445,3.55025c-0.64679,1.84603 -1.55017,3.24953 -2.01774,3.13478c-0.46759,-0.11472 -0.32235,-1.70424 0.32445,-3.55025z"/><path d="M120.29321,204.40325c0.76806,-2.19216 1.76973,-3.87623 2.23733,-3.76152c0.46759,0.11472 0.22399,1.98484 -0.54406,4.17696c-0.76806,2.19216 -1.76974,3.87624 -2.23732,3.76152c-0.46758,-0.11474 -0.22402,-1.98484 0.54401,-4.17696z"/><path d="M121.55788,205.16731c0.84891,-2.42291 1.9793,-4.27855 2.52483,-4.1447c0.54553,0.13387 0.29956,2.20653 -0.54933,4.62941c-0.84891,2.42291 -1.97932,4.27855 -2.52484,4.14472c-0.54553,-0.13386 -0.29954,-2.20654 0.54933,-4.62941z"/></g></g></g><g><g stroke-linecap="butt"><g><g fill="#8a8a8a" stroke="#212121" stroke-width="1"><path d="M231.05189,190.5338c-3.37491,4.10885 -4.96797,11.33699 -8.32668,13.8197c-3.35869,2.48269 -4.08043,0.49615 -6.88039,2.22169c-2.79997,1.72554 -1.47461,7.6972 -4.25568,11.1633c-6.09303,7.5939 -18.6164,2.21968 -19.69314,0.87847c-0.83068,-1.03473 2.87987,-16.07084 4.57085,-20.18107c1.2521,-3.04341 5.35145,-3.33975 6.83909,-6.31827c1.48764,-2.97852 2.81411,-10.56701 4.40696,-13.31672c1.5928,-2.74966 6.1013,-3.59028 8.59772,-6.62954c3.55631,-4.3297 3.4839,-2.50611 7.00221,-5.02005c3.51831,-2.51396 10.65159,-0.06559 13.27741,3.20525c2.58103,3.21504 8.4395,1.23303 4.81238,8.89193c-3.62713,7.65891 -6.6841,6.82135 -10.35067,11.28532z"/></g><path d="M220.61067,191.7344l-0.95108,0.5078c-0.04801,-0.65284 0.01184,-1.37174 0.20472,-2.06745c0.20814,-0.71593 1.00716,-1.57133 0.76744,-2.12246c-0.12587,-0.28934 -2.3537,0.28349 -2.64828,-0.30701c-0.11193,-0.22432 0.23065,-2.77065 0.25132,-3.16649c0.18036,-3.45757 0.22806,-6.0607 1.27662,-9.66712c0,0 0.1889,-0.64967 0.68547,-0.5921c0.49656,0.05757 0.30765,0.70723 0.30765,0.70723c-1.01191,3.48029 -1.04339,5.94349 -1.20954,9.28167c-0.0246,0.49408 -0.38977,2.34539 -0.34215,2.59951c0.00515,0.02759 2.48415,-0.07023 2.64828,0.30701c0.1991,0.45767 -0.5669,2.46679 -0.74371,3.07493c-0.07311,0.2359 -0.11965,0.47771 -0.14297,0.71594c0.22145,0.19114 0.09623,0.62176 0.09623,0.62176l-0.10167,0.0543c0.0023,0.02761 0.00492,0.05501 0.00781,0.08221z" fill="#212121" stroke="none" stroke-width="0.5"/><path d="M213.06193,196.57668c-0.48467,0.41869 -0.70225,-0.08139 -0.70225,-0.08139l-0.24902,-0.65114c-0.08233,-1.1194 0.41703,-2.49657 0.35225,-3.48811c-0.02744,-0.42011 -0.67754,-0.10965 -0.97444,-0.26016c-0.18768,-0.09513 -1.21929,-1.14598 -1.27516,-1.33826c-0.26916,-0.92659 -0.37521,-2.66979 -0.34673,-3.7681c0,0 0.02219,-0.63453 0.553,-0.78538c0.53083,-0.15082 0.50865,0.48371 0.50865,0.48371c-0.04788,1.03897 0.08539,2.43875 0.29148,3.33142c0.28126,1.21842 1.95199,0.51108 2.28659,1.7516c0.22158,0.82142 -0.44343,2.61295 -0.33846,3.59519l0.16118,0.29186c0,0 0.21756,0.5001 -0.26711,0.91877z" fill="#212121" stroke="none" stroke-width="0.5"/><path d="M210.5471,206.33145c-0.49655,-0.05757 -0.30764,-0.70724 -0.30764,-0.70724l0.2267,-0.51607c-1.35351,-1.02885 -1.45221,-5.33534 -1.63341,-7.40548c0,0 -0.05312,-0.60679 0.4755,-0.84588c0.52861,-0.23906 0.58172,0.36777 0.58172,0.36777c0.20273,2.31612 0.30803,5.83549 1.61959,7.2984l-0.277,1.2164c0,0 -0.1889,0.64965 -0.68545,0.59209z" fill="#212121" stroke="none" stroke-width="0.5"/><path d="M225.01158,191.89078c-0.49656,-0.05757 -0.30765,-0.70724 -0.30765,-0.70724l0.12594,-0.43312c1.06542,-3.66435 1.3267,-6.91673 2.36024,-10.47144c0,0 0.18889,-0.64966 0.68545,-0.5921c0.49656,0.05757 0.30764,0.70724 0.30764,0.70724c-1.02593,3.52854 -1.29713,6.81514 -2.36024,10.47143l-0.12594,0.43313c0,0 -0.18888,0.64967 -0.68544,0.59211z" fill="#212121" stroke="none" stroke-width="0.5"/><path d="M207.14132,211.38561c-0.39103,0.55532 -0.75066,0.2133 -0.75066,0.2133l-0.58871,-0.57181c-0.57615,-1.32446 -0.64895,-3.20691 -0.479,-4.92314c0.05049,-0.5099 0.6132,-1.08688 0.5087,-1.5331c-0.12212,-0.52138 -0.82894,-0.43581 -1.03526,-0.89364c-0.39747,-0.88195 -0.5398,-2.05502 -0.2494,-3.19004c0,0 0.18888,-0.64967 0.68544,-0.59211c0.49655,0.05757 0.30765,0.70724 0.30765,0.70724c-0.69423,1.95853 1.08009,2.0828 1.33496,3.38338c0.14303,0.72981 -0.43308,1.24352 -0.49876,1.93179c-0.13026,1.3656 -0.14776,3.06418 0.3128,4.12287l0.48358,0.44791c0,0 0.35966,0.34204 -0.03138,0.89736z" fill="#212121" stroke="none" stroke-width="0.5"/></g><path d="M210.48444,213.61531c0.62717,0.96133 0.20324,1.67551 0.56523,2.67559c0.82771,2.28674 -1.1384,4.23463 -3.07122,5.93088c-0.71781,0.62995 -0.93525,1.42651 -1.40105,2.11966c-0.25235,0.37551 -1.68874,0.83377 -2.13663,1.06501c-1.78656,0.92256 -3.70809,1.22808 -5.46141,2.13346c-0.31543,0.1629 -1.57985,1.06803 -1.96517,0.91387c-0.31017,-0.12407 -0.03787,-0.61814 -0.12961,-0.91382c-0.36152,-1.16534 -0.24932,-1.96028 -0.11294,-2.8927l0.07775,0.01936l0.24329,-0.81009c0.03309,-0.10996 0.01814,-0.17204 -0.0492,-0.27892c-0.13471,-0.21379 -0.43745,-0.28857 -0.67321,-0.16682l-0.49574,0.25499c-0.81229,0.04509 -1.24977,0.29002 -1.95063,0.66124c-0.24295,0.12865 -0.5911,0.60655 -0.73073,0.38482c-0.20094,-0.31905 0.12701,-0.73686 0.06679,-1.1c-0.26716,-1.61108 1.78562,-2.85548 1.28714,-4.12369c0.04096,-0.02595 0.08039,-0.05133 0.11776,-0.07627l-0.1914,-0.08524c-0.02378,-0.04627 -0.05072,-0.09313 -0.07968,-0.13957l0.22238,-0.11433l-0.328,-0.51837c-0.13471,-0.21379 -0.43735,-0.29075 -0.6731,-0.169c-0.23575,0.12175 -0.26802,0.35506 -0.13333,0.56887l0.06307,0.21633c-1.41326,0.04878 -4.24509,1.74793 -5.51715,0.97088c-1.45247,-0.88726 1.13819,-2.47425 1.58158,-3.19956c0.21917,-0.35854 0.42751,-0.85629 0.6089,-1.3435l0.01798,0.01093l0.40057,-0.54625c0.10526,-0.13663 0.1212,-0.3237 0.02381,-0.47822c-0.13471,-0.21379 -0.3697,-0.28348 -0.60548,-0.16174l-0.79722,0.37408c-0.8742,-0.19775 -1.55976,-0.25415 -2.38573,-0.63406c-0.50329,-0.12623 -3.34162,-0.46896 -3.30578,-1.19365c0.12953,-2.61801 3.06047,-5.63572 5.1739,-7.1555c0.29763,-0.21402 1.44645,0.66842 1.57939,0.74404c3.01885,-0.11481 5.21262,-1.47178 7.59958,-3.09004c0.71047,-0.48167 1.85496,-0.698 2.37419,-1.40161c4.49234,2.84842 7.47876,7.24435 10.19107,11.54892z" data-paper-data="{&quot;noHover&quot;:false,&quot;origItem&quot;:[&quot;Path&quot;,{&quot;applyMatrix&quot;:true,&quot;segments&quot;:[[[352.98765,211.79952],[7.15143,15.10973],[-2.55196,1.27316]],[[344.36571,212.32209],[2.68815,-0.33561],[-9.03143,1.12755]],[[319.12178,209.89399],[8.19519,4.2219],[-0.22607,-0.42176]],[[316.18244,205.33333],[1.14654,-0.1764],[-8.14174,1.25266]],[[290.56826,218.40736],[4.71675,-7.45853],[-1.30565,2.06461]],[[297.34245,226.88235],[-1.12338,-1.1289],[1.55513,2.35765]],[[302.61113,232.33333],[-1.98728,-1.89794],[0,0]],[[305.18244,232.33333],[0,0],[0.82843,0]],[[306.68244,233.83333],[0,-0.82843],[0,0.5988]],[[305.82419,235.18951],[0.50737,-0.24052],[0,0]],[303.85326,236.17497],[[303.82379,236.11605],[0,0],[-1.29482,1.15054]],[[299.97103,239.10931],[1.17999,-0.71729],[-2.38708,1.45106]],[[292.56826,247.25931],[-2.36844,-4.78677],[2.07425,4.1922]],[[306.68244,251.51318],[-3.82814,-1.9909],[0,0]],[[306.68244,250.83333],[0,0],[0,-0.82843]],[[308.18244,249.33333],[-0.82843,0],[0.82843,0]],[[309.68244,250.83333],[0,-0.82843],[0,0]],[309.68244,252.83333],[[308.90249,252.83333],[0,0],[-0.00083,0.17941]],[[308.87958,253.35911],[0.01432,-0.1712],[0,0]],[[309.2431,253.89399],[0,0],[-0.14078,0.0165]],[[308.80379,253.93991],[0.15196,-0.01408],[-0.79701,4.46031]],[[300.62231,265.24677],[1.98302,-5.11343],[-0.44697,1.15256]],[[298.60546,268.35899],[0.00029,-1.23619],[-0.0002,0.85903]],[[301.18244,268.33333],[-0.85898,0.00943],[2.47817,-0.0272]],[[307.44609,269.33333],[-2.22884,-1.09444],[0,0]],[[309.18244,269.33333],[0,0],[0.82843,0]],[[310.68244,270.83333],[0,-0.82843],[0,0.41421]],[[310.2431,271.89399],[0.27145,-0.27145],[0,0]],[308.2431,273.89399],[[308.06872,273.71962],[0,0],[-1.91921,2.52017]],[[303.64231,282.17796],[0.98821,-3.95282],[-0.25075,1.003]],[[302.45841,285.04474],[-0.61503,-0.83104],[0.76407,1.03243]],[[309.18244,285.33333],[-1.10841,0],[6.16069,0]],[[327.18244,287.33333],[-6.27749,0],[1.57371,0]],[[334.60841,287.44751],[-1.29634,0.7169],[2.39284,-1.32329]],[[341.8448,283.37183],[-2.95535,0.75806],[7.95781,-2.0412]],[[357.72256,269.4887],[-1.62566,7.93509],[0.71097,-3.47035]],[[360.68244,260.83333],[0.05678,3.75743],[0,-16.67958]]],&quot;closed&quot;:true}]}" fill="#001a3a" stroke="#e3efff" stroke-width="1.5"/></g><path d="M246.0199,167.10833l-1.82134,9.08412l-23.01311,-7.87697l6.17051,-7.92187" fill="#000000" stroke="#000000" stroke-width="1" stroke-linecap="round"/></g><g data-paper-data="{&quot;index&quot;:null}"><path d="M292.84565,213.34182c0,0 0.42987,2.65161 0.88818,6.51126c0.45241,3.80987 -0.55549,9.02428 -0.43375,13.7999c0.10888,4.27141 0.21923,8.97364 0.33093,11.32566c0.2089,4.39885 1.19958,10.1599 1.19958,10.1599l-16.05655,2.6655c0,0 0.48057,-2.35569 -0.69576,-5.09538c-1.88048,-4.37965 -5.79901,-10.4704 -6.12822,-14.98903c-0.10863,-1.49112 -0.03071,-3.31296 0.1574,-5.30615c0.31145,-3.30026 0.92496,-7.07023 1.49374,-10.58624c0.82212,-5.08212 1.88689,-9.12589 1.88689,-9.12589" fill="#7f7f7f" stroke="#e3efff" stroke-width="1.5" stroke-linecap="round"/><g stroke="#0f0f0f" stroke-linecap="butt"><path d="M260.40792,270.51861c0,0 -3.53874,-4.16265 -4.40709,-6.24313c-0.92027,-2.2049 5.62786,-9.62756 5.62786,-9.62756l25.22458,-0.79959l1.08403,11.63352z" data-paper-data="{&quot;index&quot;:null}" fill="#000b20" stroke-width="0"/><path d="M262.13673,268.74104c-0.40243,-2.9013 -0.97917,-7.05914 -1.25594,-9.05465c-0.14271,-1.0289 0.90501,-5.00834 2.52014,-5.24474c3.89297,-0.56981 20.77345,-3.04061 28.64697,-4.19306c2.53553,-0.37113 4.15655,1.32551 4.32667,2.69831c0.36451,2.94162 1.68348,13.61583 1.68348,13.61583c0,0 -27.17303,3.97732 -32.31966,4.73063c-1.61513,0.23641 -3.37724,-0.93452 -3.60164,-2.55232z" data-paper-data="{&quot;index&quot;:null}" fill="#3b3b3b" stroke-width="1.5"/></g></g><g><path d="M249.71512,213.91311c0,0 0.12575,3.95164 0.23251,7.30705c0.06099,1.91665 -2.10425,5.01397 -1.98146,8.87281c0.05124,1.6105 0.81016,2.96771 0.86551,4.70725c0.16718,5.25393 1.91012,11.37821 2.04284,15.54941c0.12603,3.96097 0.21218,6.66833 0.21218,6.66833l-18.01898,-4.55055c0,0 -2.30583,-13.25821 -1.98044,-19.36018c0.2952,-5.53553 4.65489,-15.7181 4.65489,-15.7181" fill="#7f7f7f" stroke="#e3efff" stroke-width="1.5" stroke-linecap="round"/><g stroke="#0f0f0f" stroke-linecap="butt"><path d="M221.04589,264.99688c0,0 -2.72927,-4.76254 -3.20854,-6.97199c-0.50792,-2.34159 7.26234,-8.39388 7.26234,-8.39388l24.93423,4.00093l-1.0267,11.63901z" fill="#000b20" stroke-width="0"/><path d="M222.06768,263.45268c0.12624,-2.92773 0.30715,-7.12346 0.39398,-9.13715c0.04476,-1.03827 1.79008,-4.75039 3.41993,-4.67623c3.92843,0.17875 20.96272,0.95382 28.90797,1.31533c2.55863,0.11642 3.84665,2.09146 3.76695,3.47292c-0.17076,2.96017 -0.79405,13.70096 -0.79405,13.70096c0,0 -27.42059,-1.24765 -32.61411,-1.48397c-1.62984,-0.07416 -3.15106,-1.55932 -3.08067,-3.19186z" fill="#3b3b3b" stroke-width="1.5"/></g></g><g stroke-linecap="butt"><g data-paper-data="{&quot;index&quot;:null}"><g><g fill="#8a8a8a" stroke="#212121" stroke-width="1"><path d="M218.78282,196.93071c2.86616,-3.70321 4.37329,-10.33034 7.17884,-12.53374c2.80555,-2.20339 3.33492,-0.35195 5.66372,-1.87129c2.3288,-1.51934 1.42442,-7.06296 3.7886,-10.18858c5.17968,-6.84792 14.41008,-1.56519 15.24716,-0.29992c0.64581,0.97614 -2.81212,14.75177 -4.30802,18.49987c-1.10764,2.77529 -4.45215,2.94241 -5.74955,5.65173c-1.29742,2.70932 -1.7943,9.67584 -3.17064,12.1713c-1.37633,2.49546 -5.06967,3.15412 -7.18974,5.89333c-3.02019,3.90224 -2.90811,2.22174 -5.84444,4.44982c-2.93635,2.22808 -8.66969,-0.21561 -10.71109,-3.30126c-2.00656,-3.03298 -7.48584,-1.37717 -4.31094,-8.34899c3.17491,-6.97183 6.29223,-6.09902 9.40609,-10.12228z"/></g><path d="M227.31441,196.09376l0.78874,-0.44382c0.02002,0.60353 -0.04964,1.2652 -0.22689,1.90204c-0.19026,0.65508 -0.86541,1.42356 -0.68641,1.93819c0.09398,0.27019 1.92361,-0.20051 2.14609,0.3519c0.08451,0.20984 -0.26849,2.55013 -0.29683,2.9148c-0.2476,3.18516 -0.36231,5.5855 -1.32075,8.88547c0,0 -0.17266,0.59447 -0.57506,0.52848c-0.40239,-0.06598 -0.22973,-0.66044 -0.22973,-0.66044c0.92493,-3.18456 1.02239,-5.45622 1.25493,-8.5316c0.03443,-0.4552 0.38557,-2.15366 0.35422,-2.38934c-0.0034,-0.02559 -2.02355,0.0004 -2.1461,-0.35189c-0.14867,-0.42741 0.53324,-2.26109 0.69486,-2.81754c0.06637,-0.21574 0.11129,-0.43761 0.13723,-0.65679c-0.17463,-0.18207 -0.06017,-0.57611 -0.06017,-0.57611l0.08433,-0.04745c-0.00106,-0.02553 -0.00238,-0.05087 -0.00396,-0.07603z" fill="#212121" stroke="none" stroke-width="0.5"/><path d="M233.59842,191.82212c0.40661,-0.3737 0.56908,0.0933 0.56908,0.0933l0.18365,0.60716c0.03435,1.03486 -0.41215,2.29244 -0.38836,3.20888c0.01008,0.38828 0.54814,0.11873 0.78536,0.26526c0.14995,0.09262 0.9588,1.08884 0.99863,1.26769c0.19201,0.86183 0.22748,2.47277 0.17226,3.48532c0,0 -0.03654,0.58482 -0.47288,0.71022c-0.43635,0.12539 -0.3998,-0.45944 -0.3998,-0.45944c0.06926,-0.95728 0.00161,-2.25214 -0.14006,-3.08101c-0.19336,-1.13137 -1.57353,-0.52212 -1.80965,-1.67523c-0.15635,-0.76355 0.43704,-2.39913 0.38026,-3.30802l-0.12265,-0.27344c0,0 -0.16246,-0.467 0.24415,-0.8407z" fill="#000000" stroke="none" stroke-width="0.5"/><path d="M235.92933,182.88787c0.4024,0.06597 0.22973,0.66044 0.22973,0.66044l-0.19953,0.47024c1.07142,0.98428 1.02619,4.95986 1.11326,6.87438c0,0 0.02552,0.5612 -0.4116,0.76804c-0.43713,0.20683 -0.46265,-0.35437 -0.46265,-0.35437c-0.09743,-2.14204 -0.0805,-5.39162 -1.10514,-6.77525l0.26088,-1.11501c0,0 0.17266,-0.59446 0.57506,-0.52848z" fill="#000000" stroke="none" stroke-width="0.5"/><path d="M223.73771,195.8354c0.40239,0.06598 0.22974,0.66045 0.22974,0.66045l-0.1151,0.39631c-0.97384,3.35298 -1.28128,6.34676 -2.22599,9.59942c0,0 -0.17265,0.59447 -0.57505,0.52849c-0.40239,-0.06598 -0.22972,-0.66045 -0.22972,-0.66045c0.93775,-3.22874 1.25427,-6.25381 2.22598,-9.59942l0.1151,-0.39631c0,0 0.17266,-0.59447 0.57505,-0.52848z" fill="#212121" stroke="none" stroke-width="0.5"/><path d="M238.84816,178.31335c0.33439,-0.5022 0.61708,-0.17734 0.61708,-0.17734l0.46239,0.54281c0.43024,1.23683 0.43457,2.97541 0.24622,4.55435c-0.05597,0.46911 -0.5307,0.98683 -0.45866,1.40121c0.08417,0.48417 -0.14197,0.42356 0.01257,0.85128c0.29772,0.82396 0.37933,1.90988 0.10993,2.94949c0,0 0.63117,0.59447 0.22878,0.52849c-0.4024,-0.06597 -0.22974,-0.66044 -0.22974,-0.66044c0.62205,-1.78888 -0.81817,-1.94952 -0.98766,-3.15601c-0.09512,-0.677 0.38869,-1.136 0.46219,-1.76928c0.14582,-1.25649 0.2096,-2.82308 -0.13431,-3.81173l-0.38045,-0.42577c0,0 -0.2827,-0.32487 0.05169,-0.82705z" fill="#000000" stroke="none" stroke-width="0.5"/></g></g><path d="M210.51786,202.53494c0.70182,-0.34856 1.41276,-0.65332 2.07917,-0.76677c0.89366,-0.15214 1.81747,0.0003 2.7073,-0.13372c1.0574,-0.15926 1.70149,-1.31966 2.93038,-0.62453c0.24116,0.13641 0.22622,0.52211 0.39679,0.7441c0.8647,1.12538 1.75463,1.6687 2.32804,3.03588c0.84641,2.01807 1.49159,5.03152 2.81379,6.75281c1.69827,2.2109 1.3323,6.11075 -0.19336,8.6029c-0.61913,1.56703 -0.7678,3.53611 -1.93263,4.86538c-0.35118,0.40076 -1.45562,0.69826 -1.95191,0.91792c-0.4474,0.19801 -1.63993,0.92094 -2.09187,0.81985c-0.67042,-0.14997 -1.70518,-1.90962 -2.10049,-3.29244c-0.52587,0.60831 -2.45572,2.00765 -3.35905,1.80559c-1.36229,-0.30474 -1.37601,-1.91779 -1.53618,-2.92551c-0.2513,-1.58116 -0.12706,-3.02661 1.01942,-4.47031c0.09967,-0.1255 0.19631,-0.29463 0.29448,-0.48424c-0.18838,0.0889 -0.39158,0.15311 -0.61785,0.17861c-3.51228,0.39601 -2.96083,-4.53278 -1.9147,-6.45117c0.08466,-0.15524 0.22286,-0.37772 0.39059,-0.61165c-1.0122,0.03194 -2.25118,-0.29658 -2.71503,-0.32174c-0.2419,-0.01311 -0.45123,0.31834 -0.68441,0.25095c-1.64491,-0.47533 -1.50668,-2.45265 -0.8731,-3.63166c1.11742,-2.07935 2.31286,-3.27851 4.49296,-4.25151c0,0 0.26719,-0.11826 0.51767,-0.00875z" fill="#001a3a" stroke="#e3efff" stroke-width="1.5"/></g><g stroke="#e3efff" stroke-width="1" stroke-linecap="butt"><path d="M223.0387,218.73157v-68.99327h76.36224v68.99327z" fill="url(#color-1)"/><path d="M224.85365,218.10939c0,0 18.98169,-6.20834 18.98169,-14.01111c0,-4.56887 -18.98169,-9.46181 -18.98169,-14.56601c0,-3.16008 23.5983,-7.62628 23.5983,-10.50109c0,-4.02098 -23.5983,-6.2245 -23.5983,-8.80735c0,-8.05461 0,-19.86335 0,-19.86335h72.73234c0,0 0,11.80874 0,19.86335c0,3.0104 -25.39141,4.97496 -25.39141,9.82359c0,6.5058 25.39141,16.30617 25.39141,22.69589c0,2.58457 -24.07238,-1.77581 -24.07238,0.33874c0,4.94716 24.07238,15.02735 24.07238,15.02735z" fill="url(#color-2)"/></g><g stroke-linecap="round"><path d="M242.37128,119.23717l22.09382,12.53355l0.98928,17.61472h-25.06165v-15.58225l-6.45086,-9.1461" fill="url(#color-3)" stroke="#9966ff" stroke-width="0.5"/><path d="M239.46532,133.54913l8.84161,-9.1461" fill="none" stroke="#000000" stroke-width="1"/><path d="M257.45774,129.48419l-16.32305,9.65422" fill="none" stroke="#000000" stroke-width="1"/><path d="M263.64071,133.29507l-23.00066,11.68669" fill="none" stroke="#000000" stroke-width="1"/><path d="M264.38266,145.23581l-24.73189,3.55682" fill="none" stroke="#000000" stroke-width="1"/></g><g stroke-linecap="butt"><g><g><path d="M240.722,129.16664c-3.31569,1.41868 -0.42326,-7.22728 -2.71184,-12.87157c-2.28858,-5.64428 -8.08771,-6.14953 -4.77203,-7.5682c3.31569,-1.41868 7.05502,2.00686 9.3436,7.65114c2.28858,5.64428 1.45596,11.36995 -1.85973,12.78863z" fill="url(#color-4)" stroke="#e3efff" stroke-width="0.5"/><path d="M239.599,126.10935c-2.87899,1.1315 -6.67042,-1.8648 -8.46841,-6.69239c-1.79799,-4.82759 2.62347,-9.44404 5.50245,-10.57552c1.83217,-0.72006 2.59811,0.14479 3.37629,2.1132c0.44461,1.12464 0.0894,2.60954 0.74315,4.36486c1.79799,4.82759 1.72549,9.65837 -1.1535,10.78986z" fill="url(#color-5)" stroke="#e3efff" stroke-width="1"/><path d="M233.51149,122.76072c-1.09257,1.48624 -1.92902,-0.30045 -3.13015,-1.2322c-1.20113,-0.93175 0.37332,-3.67527 1.46589,-5.16152c1.09257,-1.48624 2.65133,-0.89329 3.85246,0.03846c1.20113,0.93175 -1.09563,4.86902 -2.1882,6.35526z" fill="#5d8d03" stroke="#000000" stroke-width="0"/><path d="M236.17691,122.28189c-1.40538,4.39989 -6.84418,5.944 -10.95676,7.40399c-3.54788,1.25951 -8.16429,1.7071 -11.50461,0.58122c-1.57632,-0.53131 -2.03732,-2.22223 -3.54166,-2.7462c-2.19407,-0.76422 -4.89138,-1.46295 -5.70158,-3.5051c-0.75129,-1.89367 -0.0229,-4.38854 0.4661,-6.95405c0.42215,-2.21481 0.5154,-4.49136 1.11574,-6.37084c0.5443,-1.70406 2.41904,-2.01034 3.95334,-3.19751c0.63532,-0.49157 1.07021,-1.64076 1.55332,-2.2997c0.40276,-0.54935 1.45096,-0.92126 1.85826,-1.46833c1.94542,-2.613 3.54881,-5.60693 5.51909,-7.41925c1.67451,-1.54026 3.66998,-2.18365 5.7714,-1.47535c1.92722,0.64959 6.1273,-0.28057 8.15086,1.73861c3.01394,3.00743 3.64018,10.55066 4.00111,14.41482c0.30361,3.25053 0.19179,8.55384 -0.68463,11.29767z" fill="#9966ff" stroke="#e3efff" stroke-width="1"/><path d="M236.35321,121.21783c-1.27809,1.73862 -4.12883,1.74039 -6.3673,0.00395c-2.23847,-1.73645 -2.05062,-4.60119 -0.77253,-6.33982c1.27809,-1.73862 3.48932,-3.19324 5.7278,-1.45679c2.23847,1.73645 2.69013,6.05403 1.41203,7.79266z" fill="#58ff00" stroke="#000000" stroke-width="0"/><path d="M227.5515,118.19848c0.8618,-1.17232 1.86845,-0.84654 3.19197,-0.93118c1.08256,-0.06923 2.72587,-1.08874 3.65933,-0.36464c2.07469,1.6094 2.22849,4.99271 0.6618,7.12392c-1.56671,2.13123 -4.51862,2.55424 -6.59329,0.94485c-2.07469,-1.6094 -2.48649,-4.64175 -0.91979,-6.77297z" fill="#070707" stroke="#000000" stroke-width="1"/><path d="M229.91296,119.63168c-0.51536,0.70106 -1.57491,0.77154 -2.36656,0.15743c-0.79166,-0.61411 -1.01564,-1.68026 -0.50028,-2.38132c0.51536,-0.70106 1.57491,-0.77155 2.36656,-0.15743c0.79166,0.61411 1.01564,1.68026 0.50028,2.38132z" fill="#58ff00" stroke="none" stroke-width="0"/><g fill="url(#color-6)" stroke="none" stroke-width="0"><path d="M218.15749,126.96529c-0.07195,0.09786 0.253,2.56824 0.14941,2.62523c-1.24384,0.68443 -5.06383,-3.85215 -7.78541,-5.96336c-2.94824,-2.28702 -6.67966,-4.21674 -5.74382,-5.48978c0.48457,-0.65918 0.14469,-7.96007 2.02645,-7.56111c1.75239,0.37152 6.19498,6.01034 7.61662,7.11316c2.94824,2.28702 4.67259,8.00283 3.73675,9.27587z"/></g><path d="M234.36577,109.19482c-0.06896,0.38245 -0.44125,0.31161 -0.44125,0.31161l-0.07748,-0.1306c-0.32634,0.22757 -0.68711,0.40715 -1.05887,0.54252c-0.71349,0.33827 -1.38495,0.74959 -1.97917,-0.06734c-0.00783,-0.01075 -0.01543,-0.02162 -0.02285,-0.03259c-0.04365,0.06473 -0.10984,0.12559 -0.20775,0.17546c-0.45229,0.23039 -0.67656,-0.23421 -0.67656,-0.23421l0.025,-0.07147c-0.52427,-0.4098 -0.93094,-0.8847 -1.45515,-1.29312c-1.40559,-1.78909 -3.94063,-2.46902 -5.55848,-4.05261c-0.50464,-0.49395 -0.6233,-1.34039 -0.91983,-2.00609c-0.0298,-0.0096 -0.05929,-0.01843 -0.08843,-0.02645c-0.38495,-0.10587 -1.7012,0.19662 -2.00449,-0.03866c-0.15132,-0.11739 -0.24195,-0.95709 -0.27513,-1.20143c-0.12997,-0.95706 -0.1849,-1.94915 -0.49837,-2.86143c0,0 -0.12484,-0.36719 0.23261,-0.49543c0.35745,-0.12825 0.48229,0.23895 0.48229,0.23895c0.32579,0.96732 0.396,1.99824 0.53346,3.01044c0.03087,0.22726 -0.19679,0.54984 -0.01852,0.68812c0.20073,0.15572 0.47639,-0.23333 0.72678,-0.20867c0.02723,0.00267 0.05453,0.00507 0.08186,0.00726c-0.11431,-0.06908 -0.37388,-0.27496 -0.21735,-0.65334c0.19744,-0.47729 0.66207,-0.27447 0.66207,-0.27447c0.59802,0.26585 0.89727,0.76337 1.152,1.30485c0.71502,0.35937 1.47026,0.92899 2.02203,1.35701c2.39879,1.86081 5.69904,3.24661 6.67772,6.27375c0.11771,0.36412 0.85646,-0.17082 1.04194,-0.2595c0.32129,-0.11336 0.63569,-0.26286 0.91426,-0.4626l0.64437,0.00675c0,0 0.3723,0.07084 0.30334,0.45327z" fill="#212121" stroke="none" stroke-width="0.5"/><path d="M230.94083,105.99794c-0.22818,0.31039 -0.53033,0.07599 -0.53033,0.07599l-0.1827,-0.16673c-1.6792,-2.51318 -4.09679,-4.58811 -6.46082,-6.42196c0,0 -0.30215,-0.23439 -0.07398,-0.54478c0.22818,-0.31039 0.53033,-0.07599 0.53033,-0.07599c2.42774,1.88326 4.89977,4.02265 6.6285,6.60206l0.01501,-0.01337c0,0 0.30215,0.23439 0.07398,0.54478z" fill="#212121" stroke="none" stroke-width="0.5"/><path d="M230.1718,95.85244c-0.22818,0.31039 -0.53033,0.07599 -0.53033,0.07599l0.10707,0.0012c-1.23466,-0.08322 -2.18392,0.28693 -3.00053,1.41283c0,0 -0.22818,0.31039 -0.53033,0.07599c-0.30215,-0.23439 -0.07398,-0.54478 -0.07398,-0.54478c0.9819,-1.32068 2.14748,-1.79832 3.64933,-1.72059l0.30478,0.15457c0,0 0.30215,0.23439 0.07398,0.54478z" fill="#0e1501" stroke="none" stroke-width="0.5"/><path d="M234.54185,99.85453c0.05231,0.38521 -0.32268,0.43896 -0.32268,0.43896l-0.45399,-0.04996c-1.2159,-0.96545 -3.27618,0.16841 -4.22226,1.1012c0,0 -0.27473,0.26764 -0.53527,-0.01459c-0.26054,-0.28223 0.01422,-0.54985 0.01422,-0.54985c1.26602,-1.22049 3.62503,-2.35683 5.19966,-1.15753l-0.10697,-0.0997c0,0 0.37499,-0.05374 0.42732,0.33148z" fill="#0e1501" stroke="none" stroke-width="0.5"/><path d="M236.36537,103.6867c-0.22818,0.31039 -0.53033,0.07599 -0.53033,0.07599l0.0084,-0.01849c-0.95088,-0.34531 -2.77908,-0.37425 -3.67532,0.09374c0,0 -0.33921,0.17279 -0.50742,-0.17566c-0.16821,-0.34846 0.171,-0.52125 0.171,-0.52125c1.10708,-0.55273 3.07078,-0.52887 4.25356,-0.13399l0.20613,0.13487c0,0 0.30215,0.23439 0.07398,0.54478z" fill="#0e1501" stroke="none" stroke-width="0.5"/><path d="M234.83873,107.65789c0.08642,-0.0764 0.26121,-0.17803 0.47201,-0.0145c0.30215,0.23439 0.07398,0.54478 0.07398,0.54478l-0.39905,0.25544c-0.84197,-0.05119 -1.44402,-0.00024 -2.22229,-0.37583c0,0 -0.34103,-0.16897 -0.17656,-0.51931c0.16448,-0.35033 0.50551,-0.18136 0.50551,-0.18136c0.59847,0.30634 1.11076,0.26726 1.74639,0.29077z" fill="#0e1501" stroke="none" stroke-width="0.5"/><path d="M235.02414,96.24218c0.05231,0.38521 -0.32268,0.43896 -0.32268,0.43896l-0.01133,-0.03984c-0.68189,0.47376 -1.44963,0.73072 -2.13459,1.21442c0,0 -0.31202,0.22034 -0.5265,-0.10018c-0.21449,-0.32052 0.09752,-0.54085 0.09752,-0.54085c0.68368,-0.4828 1.46723,-0.73317 2.13458,-1.21442l0.33569,-0.08957c0,0 0.37499,-0.05374 0.42732,0.33148z" fill="#0e1501" stroke="none" stroke-width="0.5"/><path d="M231.29133,96.36687c-0.05703,-0.09838 -0.09232,-0.24632 0.0334,-0.41736c0.22818,-0.31039 0.53033,-0.07599 0.53033,-0.07599l0.22948,0.51129c-0.0417,0.12711 -0.08341,0.25423 -0.1251,0.38133c0,0 -0.12091,0.36858 -0.47971,0.24437c-0.3588,-0.1242 -0.2379,-0.49279 -0.2379,-0.49279c0.0165,-0.05028 0.03298,-0.10057 0.04949,-0.15085z" fill="#0e1501" stroke="none" stroke-width="0.5"/><path d="M236.63783,105.81691c-0.12091,0.36858 -0.47971,0.24437 -0.47971,0.24437l-0.42714,-0.15316c-0.25801,-0.19847 -0.53933,-0.37026 -0.83676,-0.49789c0,0 -0.34847,-0.15211 -0.2004,-0.51007c0.14807,-0.35796 0.49656,-0.20586 0.49656,-0.20586c0.31544,0.13965 0.62104,0.31215 0.89426,0.52598l0.3153,0.10385c0,0 0.3588,0.1242 0.23789,0.49278z" fill="#0e1501" stroke="none" stroke-width="0.5"/><path d="M234.37595,117.40089c1.67765,1.87055 1.62175,4.75275 0.07924,6.85107c-0.09788,0.13139 -0.20176,0.24908 -0.31105,0.35519c-0.26529,0.20394 -0.56163,0.37481 -0.89087,0.50518c-0.75244,0.29795 -1.09112,0.67967 -1.83,0.2448c0.03135,-0.04418 0.06341,-0.0857 0.09614,-0.1248l0.24307,-0.31554c0.06037,-0.018 0.12074,-0.03575 0.18098,-0.0535c0.39617,-0.24788 0.85214,-0.33283 1.32972,-0.5346c0.21575,-0.1402 0.41153,-0.31562 0.57769,-0.5455c1.29607,-1.76307 1.40484,-4.13457 0.07369,-5.73456c-0.11664,-0.04626 -0.17466,-0.15023 -0.20236,-0.22562c-0.13774,-0.14262 -0.2882,-0.27787 -0.45162,-0.40463c0,0 -0.30215,-0.23439 -0.07398,-0.54478c0.01181,-0.01606 0.02381,-0.03067 0.03596,-0.04392l-0.71819,0.09052c0.24013,0.11881 1.10683,-0.21298 1.33218,-0.06224l0.05488,-0.04935c0.67413,0.52294 1.33228,1.13651 1.98757,1.70331c0.38742,2.07599 -0.02972,4.77677 -1.74488,6.09526c-0.61054,0.59294 -1.38903,0.82504 -2.22414,1.07051l-0.49673,-0.32055l0.09614,-0.1248c0.1313,-0.15687 0.27334,-0.27475 0.42405,-0.36905c0.47085,-0.13874 0.93391,-0.27738 1.32972,-0.5346c0.04851,-0.02049 0.09726,-0.0422 0.14616,-0.06539c1.81914,-0.86276 1.87298,-3.70863 1.81682,-5.35726c-0.39743,-0.24105 -0.73518,-0.5415 -1.06832,-0.84638c-0.01328,0.00304 -0.02717,0.00561 -0.0417,0.00769c-0.08152,0.01168 -0.1478,0.00262 -0.20158,-0.01871c-0.06411,-0.07704 -0.13154,-0.15231 -0.20236,-0.22562c-0.0183,-0.04981 -0.02338,-0.08713 -0.02338,-0.08713l0.07256,0.06154c-0.05119,-0.05915 -0.09643,-0.13254 -0.13072,-0.21221c-0.08682,-0.07445 -0.17519,-0.14732 -0.266,-0.21777l-0.14213,-0.53778c0.22268,-0.24284 0.49436,-0.03207 0.49436,-0.03207c0.03348,0.02597 0.0665,0.05225 0.09907,0.07884l0.02057,-0.0185c0.18082,0.12096 0.34876,0.25848 0.49083,0.42267z" fill="#070707" stroke="none" stroke-width="0.5"/><path d="M207.90394,127.82244c-0.20144,-0.15626 -0.04933,-0.36318 -0.04933,-0.36318l0.09893,-0.13458c0.52037,-0.70787 0.32815,-1.24095 0.7941,-1.91972c0,0 0.15212,-0.20694 0.35355,-0.05067c0.20144,0.15626 0.04933,0.36318 0.04933,0.36318c-0.4181,0.51481 -0.31239,1.26445 -0.7941,1.91972l-0.09893,0.13458c0,0 -0.15211,0.20693 -0.35355,0.05067z" fill="#0e1501" stroke="none" stroke-width="0.5"/><path d="M211.2029,130.07505c-0.25,0.03583 -0.28487,-0.22099 -0.28487,-0.22099l-0.03027,-0.31924c0.10351,-0.57405 -0.00219,-1.11872 0.31416,-1.59209c0,0 0.15211,-0.20693 0.35355,-0.05067c0.20144,0.15626 0.04933,0.36318 0.04933,0.36318c-0.23385,0.2687 -0.14727,0.96712 -0.22064,1.37402l0.03388,0.15314c0,0 0.03488,0.25681 -0.21513,0.29263z" fill="#0e1501" stroke="none" stroke-width="0.5"/><path d="M209.60967,128.30036c-0.20144,-0.15626 -0.04933,-0.36318 -0.04933,-0.36318l0.09893,-0.13458c0.30803,-0.41902 0.4582,-0.67554 0.91277,-0.91642c0,0 0.22614,-0.1152 0.33828,0.1171c0.11214,0.2323 -0.11399,0.3475 -0.11399,0.3475c-0.37842,0.1823 -0.47514,0.41194 -0.73419,0.76434l-0.09893,0.13458c0,0 -0.15211,0.20693 -0.35355,0.05067z" fill="#0e1501" stroke="none" stroke-width="0.5"/><path d="M212.84992,131.44787c-0.20144,-0.15626 -0.04933,-0.36318 -0.04933,-0.36318l0.05216,-0.02553c0.09736,-0.51379 0.01242,-0.8614 0.17748,-1.38407c0,0 0.08061,-0.24572 0.31982,-0.16291c0.2392,0.0828 0.15859,0.32854 0.15859,0.32854c-0.16364,0.47634 -0.07489,0.82361 -0.15948,1.3129l-0.14569,0.24361c0,0 -0.15212,0.20694 -0.35355,0.05067z" fill="#0e1501" stroke="none" stroke-width="0.5"/></g><path d="M215.76776,108.6775c-1.09257,1.48624 -1.92902,-0.30045 -3.13015,-1.2322c-1.20113,-0.93175 0.37332,-3.67528 1.46589,-5.16152c1.09257,-1.48624 2.65133,-0.8933 3.85246,0.03845c1.20113,0.93175 -1.09563,4.86902 -2.1882,6.35526z" fill="#58ff00" stroke="#000000" stroke-width="0"/><path d="M215.63405,107.60014c-0.48167,1.508 -1.95872,2.36423 -3.29905,1.91246c-1.34034,-0.45178 -2.03642,-2.04048 -1.55475,-3.54846c0.48167,-1.508 2.56187,-3.5496 3.9022,-3.09782c0.46203,0.15573 0.19788,1.70956 0.48043,2.1107c0.53711,0.76258 0.7868,1.63496 0.47116,2.62314z" fill="#070707" stroke="#000000" stroke-width="1"/><path d="M213.11947,106.68422c-0.41744,0.56786 -1.15419,0.7192 -1.64556,0.33803c-0.49137,-0.38117 -0.5513,-1.15052 -0.13386,-1.71836c0.41744,-0.56786 1.15418,-0.7192 1.64555,-0.33803c0.49137,0.38117 0.5513,1.15052 0.13386,1.71837z" fill="#58ff00" stroke="none" stroke-width="0"/><path d="M216.785,104.73857c-0.31202,0.22034 -0.5265,-0.10018 -0.5265,-0.10018l-0.18353,-0.28311c-0.49023,-0.37147 -0.7397,-0.61759 -1.35656,-0.64951c0,0 -0.37797,-0.02286 -0.35572,-0.41113c0.02225,-0.38828 0.40022,-0.36543 0.40022,-0.36543c0.81907,0.05522 1.22244,0.38524 1.85932,0.88838l0.2603,0.3801c0,0 0.21449,0.32053 -0.09752,0.54086z" fill="#58ff00" stroke="none" stroke-width="0.5"/><path d="M224.59453,93.89096c-0.06216,-0.09798 -0.10846,-0.25257 0.02403,-0.43281c0.22818,-0.31039 0.53033,-0.07599 0.53033,-0.07599l0.22948,0.51129c-0.13912,0.41073 -0.143,0.80352 -0.27644,1.2207c0,0 -0.12091,0.36858 -0.47971,0.24437c-0.3588,-0.1242 -0.23789,-0.49278 -0.23789,-0.49278c0.1115,-0.32918 0.13612,-0.64683 0.2102,-0.97474z" fill="#0e1501" stroke="none" stroke-width="0.5"/><path d="M212.11924,108.86022c0.02225,-0.38828 0.40022,-0.36543 0.40022,-0.36543l0.40473,0.02748c1.51863,0.30952 1.92907,-1.26003 1.92905,-2.51274c0,0 0.00124,-0.38894 0.37986,-0.38766c0.37863,0.00127 0.37739,0.39022 0.37739,0.39022c-0.01065,1.77356 -0.79198,3.64086 -2.82422,3.27506l-0.31132,-0.01581c0,0 -0.37798,-0.02284 -0.35573,-0.41113z" fill="#070707" stroke="none" stroke-width="0.5"/><path d="M204.03535,126.08932c-0.20144,-0.15626 -0.04933,-0.36318 -0.04933,-0.36318c0.42868,-0.58315 1.15414,-1.57 1.58281,-2.15315c0,0 0.15211,-0.20693 0.35355,-0.05067c0.20144,0.15626 0.04933,0.36318 0.04933,0.36318c-0.42868,0.58315 -0.85736,1.16628 -1.28604,1.74943l-0.29677,0.40372c0,0 -0.15212,0.20693 -0.35355,0.05067z" fill="#0e1501" stroke="none" stroke-width="0.5"/></g><g text-anchor="start"><g><g><g fill="none" stroke="none" stroke-width="1" font-family="sans-serif" font-weight="normal" font-size="12"/><g fill="url(#color-7)" stroke="#000000" stroke-width="3.5" font-family="&quot;Helvetica Neue&quot;, Helvetica, Arial, sans-serif" font-weight="400" font-size="16"/><g fill="none" stroke="none" stroke-width="1" font-family="sans-serif" font-weight="normal" font-size="12"/></g><g><g fill="url(#color-8)" stroke="#000000" stroke-width="3.5" font-family="&quot;Helvetica Neue&quot;, Helvetica, Arial, sans-serif" font-weight="400" font-size="16"/><g fill="url(#color-9)" stroke="#e3efff" stroke-width="3.5" font-family="&quot;Helvetica Neue&quot;, Helvetica, Arial, sans-serif" font-weight="400" font-size="16"/><g fill="none" stroke="none" stroke-width="1" font-family="sans-serif" font-weight="normal" font-size="12"/></g></g><g data-paper-data="{&quot;index&quot;:null}"><g><g fill="url(#color-10)" stroke="#000000" stroke-width="3.5" font-family="&quot;Helvetica Neue&quot;, Helvetica, Arial, sans-serif" font-weight="400" font-size="16"/><g fill="url(#color-11)" stroke="#000000" stroke-width="3.5" font-family="&quot;Helvetica Neue&quot;, Helvetica, Arial, sans-serif" font-weight="400" font-size="16"/><g fill="none" stroke="none" stroke-width="1" font-family="sans-serif" font-weight="normal" font-size="12"/></g><g><g fill="url(#color-12)" stroke="#000000" stroke-width="3.5" font-family="&quot;Helvetica Neue&quot;, Helvetica, Arial, sans-serif" font-weight="400" font-size="16"/><g fill="none" stroke="none" stroke-width="1" font-family="sans-serif" font-weight="normal" font-size="12"/><g fill="none" stroke="none" stroke-width="1" font-family="sans-serif" font-weight="normal" font-size="12"/></g></g></g></g><g data-paper-data="{&quot;index&quot;:null}"><g stroke="#000000" stroke-width="2"><path d="M299.13349,92.88318c-3.31213,14.25717 -10.78609,24.64087 -16.69354,23.19267c-5.90745,-1.44819 -8.01135,-14.17992 -4.69923,-28.43706c3.31213,-14.25717 10.78608,-24.64086 16.69352,-23.19266c5.90745,1.44819 8.01137,14.17991 4.69924,28.43705z" fill="#9966ff" stroke-linecap="butt"/><path d="M299.53712,108.37668l-11.72865,15.86851l-2.74432,-10.4674l-13.05427,11.63165l-3.62401,-22.43541" fill="#58ff00" stroke-linecap="round"/><path d="M300.26564,75.27721c-0.69865,3.00735 -3.24274,4.96045 -5.68238,4.36238c-2.43964,-0.59807 -3.85098,-3.52084 -3.15234,-6.52818c0.69865,-3.00735 3.24273,-4.96045 5.68237,-4.36238c2.43964,0.59807 3.85099,3.52084 3.15235,6.52819z" fill="#58ff00" stroke-linecap="butt"/><path d="M287.48637,67.43545l1.69571,5.12465l-1.08064,3.92082l2.99721,3.17645l-0.72834,3.13516l4.78061,1.34637l-5.31184,5.32524l-8.0589,-8.42863l-2.01154,-0.84194" fill="#00e6ff" stroke-linecap="round"/><path d="M298.68852,77.68109l-2.72704,-7.99357" fill="none" stroke-linecap="round"/><path d="M284.41516,74.4436l6.75565,-1.30876l-5.16765,7.62786l6.83962,-0.93937l-2.35109,5.00463" fill="none" stroke-linecap="round"/></g><g stroke="#545454" stroke-width="1"><path d="M300.38783,147.805c0,1.535 -1.29867,2.42554 -2.66916,2.42554c-3.79558,0 -21.79056,0 -27.92371,0c-1.28829,0 -2.05321,-0.7015 -2.05321,-1.58187c0,-7.00984 0,-38.52128 0,-44.08155c0,-1.61968 0.84659,-3.05827 2.25855,-3.05827c6.3195,0 23.96428,0 27.71839,0c1.37049,0 2.66916,1.32773 2.66916,2.84738c0,5.18696 0,34.72523 0,43.44879z" fill="#a1a1a0" stroke-linecap="butt"/><path d="M296.07609,150.23054l-3.69579,-49.35445" fill="none" stroke-linecap="round"/><path d="M279.44506,101.93069l1.84789,48.72169" fill="none" stroke-linecap="round"/><path d="M273.08009,150.86329l-0.41065,-49.35445" fill="none" stroke-linecap="round"/></g><g fill="#c1c1c1" stroke="#545454" stroke-width="1"><path d="M303.04411,62.04536c0.05218,0.14517 -0.89592,0.6004 -1.92836,0.99192c-2.85935,1.08431 -16.41565,6.22508 -21.03599,7.97718c-0.97053,0.36804 -1.57062,0.52022 -1.60054,0.43695c-0.23825,-0.66296 -1.30922,-3.64316 -1.49819,-4.16901c-0.05504,-0.15318 0.53382,-0.5311 1.5975,-0.93446c4.76074,-1.80534 18.05321,-6.84606 20.88132,-7.91852c1.03245,-0.39151 2.05591,-0.63694 2.10756,-0.49323c0.17629,0.49056 1.18021,3.28414 1.47669,4.10917z" stroke-linecap="butt"/><path d="M285.45267,67.86977l-2.78937,-7.52476l10.27548,-3.196l2.9205,5.63592" stroke-linecap="round"/><path d="M286.63877,66.54422l-1.0639,-5.33285l6.48475,-1.4082l1.94006,4.2124" stroke-linecap="round"/></g></g></g></g></svg>