<svg version="1.1" xmlns="http://www.w3.org/2000/svg" xmlns:xlink="http://www.w3.org/1999/xlink" width="149.20136" height="118.12847" viewBox="0,0,149.20136,118.12847"><g transform="translate(-165.39932,-120.93576)"><g data-paper-data="{&quot;isPaintingLayer&quot;:true}" fill-rule="nonzero" stroke-linejoin="miter" stroke-miterlimit="10" stroke-dasharray="" stroke-dashoffset="0" style="mix-blend-mode: normal"><g data-paper-data="{&quot;index&quot;:null}"><path d="M219.74537,177.17715c-0.04071,0.01941 -0.10404,0.12569 -0.18095,0.27791c0.07478,-0.09849 0.15068,-0.19836 0.22648,-0.29836c-0.01523,0.00642 -0.03042,0.01324 -0.04552,0.02045zM219.37512,172.28317c-0.22702,0.3281 -0.46767,0.63018 -0.68105,0.9843c-0.64722,1.07414 -1.888,2.69145 -1.55848,2.3837c1.23155,-1.15023 2.24486,-1.50657 2.86718,-3.54616c-0.20806,-0.03186 -0.42326,0.02102 -0.62765,0.17816zM220.3893,169.56436c-0.10717,-2.32124 -2.06954,-1.97879 -3.59266,0.908c0,0 -0.69133,1.26015 -1.19397,0.65384c-0.50264,-0.60631 0.18869,-1.86645 0.18869,-1.86645c1.52164,-2.70524 4.00507,-4.84855 5.48942,-4.01867c0.95559,0.53425 1.07324,2.6286 0.6834,4.88169c0.95235,0.98477 1.2289,3.13836 0.31035,5.67959c0.22942,0.29628 0.39975,0.61115 0.40136,0.8743c0.01037,1.69356 -1.70025,5.08975 -2.75926,6.09331c-1.34277,1.27246 -1.64321,0.63623 -2.61799,0.25538c0.11345,-0.51142 0.22689,-1.02283 0.34033,-1.53424c-0.26808,0.04498 -0.48003,-0.04503 -0.598,-0.32724c-0.29351,-0.70218 0.05934,-2.00532 0.6387,-3.27731c-1.12202,0.90263 -2.17732,1.29881 -2.41575,0.209c-0.44705,-2.04343 2.8035,-6.61391 3.81867,-8.01214c0.4634,-0.30303 0.90278,-0.47031 1.3067,-0.51904zM219.57196,180.11957c-0.01238,0.12244 -0.03088,0.23751 -0.05425,0.34551c0.51036,-0.52299 1.17496,-1.1716 1.38415,-1.9672c-0.30373,0.44757 -0.79432,1.0556 -1.3285,1.6076c-0.00045,0.00468 -0.00091,0.00937 -0.00139,0.01409zM220.57399,174.48853c0.19903,0.07083 0.38078,0.21318 0.56765,0.30831c0.09749,-0.53046 0.06223,-1.03256 -0.06005,-1.45667c-0.15676,0.40601 -0.32678,0.79227 -0.5076,1.14836z" fill="#ab7809" stroke="#8e6201" stroke-width="0.5" stroke-linecap="butt"/><g><path d="M211.82536,150.51404c0,0 0.38481,-2.79864 0.86416,-2.63732c0.54635,0.18388 1.20919,3.31873 1.4537,3.09621c0.80368,-0.73142 2.08017,-4.46147 2.08017,-4.46147l0.32862,1.97307c0,0 1.10106,3.07857 2.10356,3.6544c1.11716,0.64169 4.29275,0.01959 4.29275,0.01959l-1.24715,2.3548l3.8088,3.18269l-0.89131,1.05034l0.27011,3.2222l-2.46912,-1.2209c0,0 -1.116,-0.52685 -1.48988,0.06514c-0.44464,0.70401 -0.19758,2.54783 -0.76702,2.56913c-0.91636,0.03427 -3.69036,-2.41181 -3.69036,-2.41181l3.45296,4.48715c0,0 -1.86618,0.74647 -1.74804,2.20722c0.09029,1.11648 2.23089,2.97204 1.94123,3.31338c-0.49939,0.58849 -3.84755,-1.2142 -3.84755,-1.2142l3.21482,4.17768l-4.54635,4.47242l0.80489,2.59198l-3.65843,-0.99954l-1.0097,1.77993l-3.33524,-6.10106l-2.76306,3.25606l0.59194,-3.64797l-0.06056,-1.40385l-2.82768,-3.45373c0,0 -1.01603,-3.80676 2.73104,-0.55076c0.32172,0.27956 -0.85998,-2.53928 -0.85998,-2.53928l-1.96427,-2.11087c0,0 3.08081,0.26605 3.99,-1.32356c0.69358,-1.21262 -0.82733,-4.29761 -0.3269,-4.7225c0.72588,-0.61631 2.60733,0.72208 2.60733,0.72208l-3.03724,-5.27207c0,0 1.72344,1.41783 2.48084,0.35473c0.38605,-0.54186 -0.34248,-3.91694 0.10069,-3.94467c0.50196,-0.03142 1.04652,3.19402 1.49168,3.9885c0.45807,0.81751 0.81297,-0.79712 1.05859,-0.96585c0.72538,-0.49833 0.87193,-3.55725 0.87193,-3.55725z" fill-opacity="0.78226" fill="#8cedf3" stroke="none" stroke-width="0" stroke-linecap="round"/><g stroke-linecap="butt"><path d="M221.29635,161.51765c0.29173,0.46308 0.53887,0.95944 0.74287,1.48087c-0.80111,0.4242 -1.55271,1.07355 -2.21173,1.95294c-0.38468,0.51332 -0.71825,1.07891 -1.00066,1.6843c-2.11423,3.02455 -4.21555,7.19224 -5.26274,10.80818c-0.92813,-0.46998 -1.78098,-1.2591 -2.47859,-2.36646c-2.39661,-3.80423 -1.74095,-9.68434 1.07869,-13.42878c2.81965,-3.74444 6.73555,-3.9353 9.13216,-0.13106z" fill="#27d3fe" stroke="#04acd6" stroke-width="1.5"/><path d="M214.87941,173.81104c-0.13253,0.31025 -0.26026,0.62049 -0.38263,0.92979c-0.4877,-0.62679 -0.94935,-1.30071 -1.42609,-1.95921c-1.10606,-1.52773 -2.31096,-2.74019 -3.35416,-4.39611c0,0 -0.26173,-0.41546 0.00472,-0.7693c0.26645,-0.35383 0.52818,0.06161 0.52818,0.06161c1.02915,1.63361 2.21282,2.82752 3.30917,4.32998c0.44562,0.61069 0.87388,1.22438 1.32082,1.80322z" fill="#04acd6" stroke="none" stroke-width="0.5"/><path d="M217.59417,165.32208c0.41667,0.42293 0.89402,0.71083 1.30324,1.16542c-0.02387,0.04915 -0.0474,0.09857 -0.07057,0.14826c-0.14175,0.20277 -0.28343,0.41068 -0.42475,0.62322c-0.58524,-0.64187 -1.23469,-1.02461 -1.77838,-1.79206c-0.3443,-0.486 -0.52869,-1.07868 -0.87493,-1.5445c-0.94171,-1.26696 -2.05648,-2.14224 -3.12172,-3.1316c0,0 -0.32486,-0.30227 -0.14056,-0.75662c0.18429,-0.45436 0.50915,-0.15209 0.50915,-0.15209c1.10419,1.02939 2.27137,1.9376 3.24104,3.26653c0.50457,0.69151 0.76844,1.57556 1.3575,2.17345z" fill="#04acd6" stroke="none" stroke-width="0.5"/><path d="M219.36621,163.06183c0.42746,0.36156 0.96096,0.54216 1.45946,0.79075c-0.28459,0.25543 -0.55844,0.54477 -0.81907,0.86833c-0.34776,-0.2184 -0.7223,-0.50532 -0.98528,-0.72913c-1.46002,-1.24255 -2.66184,-3.26173 -3.78945,-5.05163c0,0 -0.26173,-0.41546 0.00472,-0.7693c0.26645,-0.35383 0.52818,0.06161 0.52818,0.06161c1.0694,1.69749 2.21312,3.65507 3.60145,4.82936z" fill="#04acd6" stroke="none" stroke-width="0.5"/><path d="M216.14411,171.12463c-0.14451,0.28099 -0.28631,0.56428 -0.42496,0.84915c-0.59095,-0.55442 -1.19155,-0.95786 -1.815,-1.46185c-0.56853,-0.45961 -0.91172,-1.4288 -1.46543,-1.85763c-0.99308,-0.76911 -2.1348,-1.50447 -2.91695,-2.73729c0,0 -0.26173,-0.41546 0.00472,-0.7693c0.26645,-0.35383 0.52818,0.06161 0.52818,0.06161c0.72144,1.15476 1.80841,1.76077 2.71823,2.50594c0.56006,0.4587 0.88242,1.39762 1.45048,1.84547c0.66789,0.52657 1.29774,0.96795 1.92075,1.56388z" fill="#04acd6" stroke="none" stroke-width="0.5"/><path d="M217.16572,167.55186c0.14113,0.19727 0.46649,0.32789 0.76199,0.44017c-0.17361,0.27549 -0.3461,0.55721 -0.51688,0.84417c-0.28019,-0.12812 -0.55585,-0.28167 -0.75579,-0.54273c-0.11477,-0.14985 -0.09911,-0.4263 -0.18795,-0.60941c-0.05637,-0.11617 -0.5481,-0.4521 -0.55661,-0.45933c-0.61865,-0.52492 -1.29596,-1.07193 -1.86821,-1.70524c-0.9201,-1.01826 -1.67203,-2.33017 -2.44968,-3.56454c0,0 -0.26173,-0.41546 0.00472,-0.7693c0.26645,-0.35383 0.52818,0.06162 0.52818,0.06162c0.74186,1.17757 1.45752,2.44226 2.33526,3.41381c0.74085,0.82002 2.00085,1.33484 2.58486,2.39424c0.07636,0.13853 0.03207,0.37348 0.12011,0.49655z" fill="#04acd6" stroke="none" stroke-width="0.5"/><path d="M215.25811,167.72345c0.54722,0.61585 1.09026,1.32345 1.61776,2.03892c-0.15188,0.2709 -0.30181,0.5453 -0.44934,0.8225c-0.5199,-0.70898 -1.05578,-1.41139 -1.59615,-2.0132c-0.72529,-0.80776 -1.56763,-1.29194 -2.31885,-2.04115c-0.73971,-0.73772 -1.34435,-1.69892 -1.94854,-2.65797c0,0 -0.26173,-0.41546 0.00472,-0.7693c0.26645,-0.35383 0.52818,0.06162 0.52818,0.06162c0.56107,0.89061 1.11947,1.79527 1.80727,2.47918c0.76413,0.75981 1.61905,1.25122 2.35494,2.07941z" fill="#04acd6" stroke="none" stroke-width="0.5"/></g><g fill="#ab7809" stroke="#8e6201" stroke-width="0.5" stroke-linecap="butt"><path d="M214.45262,167.16633c2.97682,-5.4261 5.6899,-9.46308 6.05983,-9.01685c0.36993,0.44623 -1.74335,5.2067 -4.72017,10.6328c-2.97682,5.4261 -5.6899,9.46308 -6.05983,9.01684c-0.36993,-0.44623 1.74336,-5.2067 4.72017,-10.6328z"/><path d="M218.03339,158.05708c0.78873,-1.43768 2.16422,-1.71524 3.07224,-0.61993c0.90802,1.0953 1.00473,3.14869 0.216,4.58638c-0.78873,1.43768 -2.16422,1.71524 -3.07224,0.61994c-0.90802,-1.0953 -1.00473,-3.1487 -0.216,-4.58639z"/><path d="M215.89667,162.87544c0.55974,-1.0203 1.77687,-0.9266 2.71852,0.20927c0.94165,1.13587 1.25125,2.88378 0.69151,3.90408c-0.55974,1.0203 -1.77686,0.92661 -2.71852,-0.20927c-0.94165,-1.13587 -1.25125,-2.88378 -0.69151,-3.90408z"/><path d="M214.03527,165.70126c0.54834,-0.99951 1.88104,-0.7384 2.97666,0.5832c1.09562,1.3216 1.53929,3.20322 0.99095,4.20273c-0.54834,0.99951 -1.88104,0.7384 -2.97666,-0.5832c-1.09562,-1.3216 -1.53929,-3.20322 -0.99095,-4.20273z"/><path d="M211.92907,168.61595c0.52284,-0.95301 1.65723,-0.8685 2.53373,0.18878c0.8765,1.05727 1.1632,2.68695 0.64036,3.63996c-0.52284,0.95301 -1.65723,0.8685 -2.53372,-0.18878c-0.8765,-1.05727 -1.1632,-2.68694 -0.64036,-3.63996z"/><path d="M210.5766,170.34164c0.52283,-0.95302 1.61622,-0.91795 2.44216,0.07833c0.82593,0.99628 1.07164,2.5765 0.54881,3.52952c-0.52283,0.95302 -1.61622,0.91795 -2.44216,-0.07833c-0.82593,-0.99628 -1.07164,-2.5765 -0.54881,-3.52952z"/><path d="M208.63044,173.5193c0.5611,-1.02275 1.72649,-0.99476 2.60299,0.06252c0.8765,1.05728 1.13219,2.74348 0.5711,3.76623c-0.5611,1.02275 -1.72649,0.99476 -2.60299,-0.06252c-0.8765,-1.05728 -1.13219,-2.74348 -0.5711,-3.76623z"/></g><path d="M215.99,145.94696l0.32862,1.97307l6.3963,3.67399l-1.24715,2.3548l3.80879,3.18269l-0.8913,1.05034l0.27011,3.22219l-2.46912,-1.2209l-5.94725,0.22246l3.45296,4.48715l-3.65436,4.3064l3.21482,4.17768l-4.54634,4.47242l0.80489,2.59198l-3.65843,-0.99955l-1.0097,1.77994l-3.33525,-6.10107l-2.76305,3.25606l0.59194,-3.64798l-0.06056,-1.40385l-2.82768,-3.45373l1.87107,-3.09004l-1.96427,-2.11087l6.27045,-5.32398l-3.03724,-5.27209l6.00373,-4.12454z" fill-opacity="0.5" fill="#27d4fe" stroke="none" stroke-width="0" stroke-linecap="round"/></g></g><g><path d="M221.96785,196.75655c-0.05271,-0.13612 -0.10561,-0.2722 -0.15768,-0.40635c0.03156,0.1839 0.06579,0.31814 0.10891,0.36031c0.016,0.01566 0.03227,0.03101 0.04877,0.04603zM220.05363,201.44095c0.09366,-2.21663 -1.0346,-3.15219 -2.09604,-4.936c-0.28401,-0.47728 0.58733,1.73337 0.94226,3.0944c0.11701,0.4487 0.29103,0.86701 0.43655,1.30051c0.19074,0.2656 0.4402,0.44373 0.71724,0.5411zM219.44516,203.96658c-0.49004,-0.28877 -0.97376,-0.70594 -1.42921,-1.26011c-0.68051,-1.87633 -2.81914,-7.96851 -1.3707,-9.54046c0.7725,-0.83836 1.93667,0.15858 2.96649,1.6527c-0.1836,-1.49834 -0.06713,-2.88747 0.60761,-3.34285c0.27118,-0.18302 0.57826,-0.13573 0.89805,0.06732c0.07739,-0.52999 0.15476,-1.05997 0.23215,-1.58997c1.39797,0.24734 2.05299,-0.14435 3.20236,1.81711c0.90649,1.54696 1.60386,5.64672 0.85913,7.16781c-0.11572,0.23635 -0.46728,0.41708 -0.88557,0.54524c0.06447,2.8486 -1.21582,4.62326 -2.84629,4.93417c-0.48005,2.26829 -1.53369,4.08581 -2.97364,3.98845c-2.23675,-0.15124 -4.45324,-3.58946 -5.20999,-6.95152c0,0 -0.33039,-1.55551 0.56756,-1.79767c0.89795,-0.24216 1.22834,1.31336 1.22834,1.31336c0.68018,3.52669 3.01533,5.02494 4.15373,2.99644zM222.96646,193.96527c0.43746,0.8216 0.79557,1.66732 0.98654,2.25507c0.079,-0.84432 -0.48175,-1.8321 -0.9016,-2.61311c-0.01708,0.11157 -0.04338,0.22656 -0.08061,0.34449c-0.00144,0.00455 -0.00287,0.00906 -0.00433,0.01355zM221.80608,199.63754c0.07497,0.43075 0.12324,0.88215 0.1462,1.34333c0.33794,-0.30837 0.59946,-0.73983 0.70527,-1.27733c-0.27755,-0.02747 -0.56902,-0.00923 -0.85146,-0.066z" fill="#ab7809" stroke="#8e6201" stroke-width="0.5" stroke-linecap="butt"/><g><path d="M200.37898,215.95683c0,0 1.13601,-2.84759 0.43344,-3.73668c-0.2379,-0.30105 0.01054,-1.97235 -0.92224,-1.5127c-0.9065,0.4467 -2.98895,3.02558 -3.61054,2.693c-0.54879,-0.29362 1.8311,-2.89595 1.57669,-3.61862c-0.49911,-1.41784 -3.29238,-1.18373 -3.29238,-1.18373l6.12071,-2.91385c0,0 -2.95889,0.0667 -3.61114,-0.9291c-0.44967,-0.68651 2.80754,-2.54695 2.45376,-4.06096c-0.46375,-1.98469 -4.47698,-3.61206 -4.47698,-3.61206l3.39739,-0.71318c0,0 2.713,-1.826 2.18515,-1.76887c-6.14797,0.66535 -3.2178,-2.15203 -3.2178,-2.15203l5.07003,-1.40094l0.68309,-1.22939l0.82692,-3.64879l2.08962,4.61126l6.85592,-3.48086l0.50869,2.21726l5.06101,1.31595l-2.13821,1.84979l3.82064,6.78914l-5.87264,1.81921c0,0 5.01537,0.40355 5.39304,1.23698c0.21907,0.48341 -3.29116,0.85945 -3.88772,1.81165c-0.78053,1.24581 1.25837,3.05014 1.25837,3.05014l-6.30766,1.95397c0,0 4.5668,-0.52471 5.71151,0.06161c0.71134,0.36435 -0.39781,1.87749 -0.13932,2.78192c0.21735,0.76052 1.85708,0.96178 1.85708,0.96178l3.65174,0.39546l-1.73378,2.7423l0.67407,1.4875l-6.19439,0.56184l0.56081,2.87964c0,0 -3.74949,-2.48581 -5.44031,-2.5842c-1.51726,-0.0883 -4.24044,2.02082 -4.24044,2.02082l-1.26819,1.58028c0,0 -0.00382,-4.13772 -0.70479,-5.28449c-0.21326,-0.34888 -2.40624,2.0766 -3.17701,1.91129c-0.67624,-0.14504 0.04585,-2.9023 0.04585,-2.9023z" fill-opacity="0.78226" fill="#8cedf3" stroke="none" stroke-width="0" stroke-linecap="round"/><g stroke-linecap="butt"><path d="M217.1167,211.77347c-4.67599,1.97832 -9.54854,-0.56726 -11.49879,-5.65329c-1.95025,-5.08603 -0.23967,-10.78652 4.43632,-12.76486c1.36111,-0.57586 2.78117,-0.77064 4.15861,-0.63195c-0.23702,3.89584 0.62144,8.92819 1.99009,12.9374c0.09581,0.71715 0.27356,1.42943 0.53856,2.12553c0.45399,1.19254 1.12451,2.23372 1.95495,3.10185c-0.48338,0.34662 -1.01053,0.64449 -1.57973,0.8853z" fill="#27d3fe" stroke="#04acd6" stroke-width="1.5"/><path d="M211.85748,197.62273c-2.03632,0.69053 -4.04986,1.04985 -6.05782,1.89938c0,0 -0.51065,0.21605 -0.69495,-0.26456c-0.1843,-0.48061 0.32637,-0.69667 0.32637,-0.69667c2.03537,-0.86113 4.08378,-1.22432 6.14332,-1.93174c0.88772,-0.30492 1.76299,-0.63291 2.65088,-0.90259c0.02123,0.35312 0.04883,0.71033 0.0825,1.07047c-0.81559,0.25114 -1.6226,0.54504 -2.45029,0.82571z" fill="#04acd6" stroke="none" stroke-width="0.5"/><path d="M214.07566,206.09843c-1.00365,0.18219 -1.71945,0.81956 -2.65665,1.13739c-1.80106,0.6108 -3.6703,0.72245 -5.51219,0.98157c0,0 -0.54164,0.0757 -0.57855,-0.44577c-0.03691,-0.52148 0.50472,-0.59718 0.50472,-0.59718c1.7753,-0.24663 3.564,-0.36035 5.30292,-0.9322c0.63935,-0.21025 1.1287,-0.63302 1.77432,-0.86265c1.01951,-0.36261 2.00663,-0.31414 3.02446,-0.53831c0.087,0.27734 0.17646,0.55072 0.26822,0.81951c0.00787,0.05886 0.01628,0.11769 0.02526,0.17648c-0.71419,0.16194 -1.44258,0.13227 -2.15252,0.26115z" fill="#04acd6" stroke="none" stroke-width="0.5"/><path d="M215.34149,209.21094c-2.26403,0.21758 -4.55691,1.28985 -6.6434,2.1726c0,0 -0.51065,0.21605 -0.69495,-0.26456c-0.1843,-0.48061 0.32637,-0.69667 0.32637,-0.69667c2.20007,-0.93081 4.59307,-2.02343 6.9773,-2.25911c0.42945,-0.04245 1.02733,-0.0742 1.56171,-0.06039c0.19002,0.44978 0.41153,0.87671 0.6613,1.27957c-0.73817,-0.07795 -1.49125,-0.23844 -2.18834,-0.17144z" fill="#04acd6" stroke="none" stroke-width="0.5"/><path d="M211.64151,200.23261c-0.91226,0.0596 -1.72578,0.711 -2.63261,0.78523c-1.47315,0.1206 -3.11035,0.00832 -4.52208,0.61249c0,0 -0.51065,0.21605 -0.69495,-0.26456c-0.1843,-0.48061 0.32637,-0.69667 0.32637,-0.69667c1.52228,-0.63777 3.28463,-0.60897 4.87348,-0.70069c0.8859,-0.05114 1.73885,-0.71722 2.65679,-0.78713c1.00661,-0.07666 1.94086,-0.07648 2.92814,-0.21831c0.05238,0.34095 0.10942,0.68239 0.17089,1.0234c-1.04576,0.15985 -2.03342,0.17616 -3.10602,0.24624z" fill="#04acd6" stroke="none" stroke-width="0.5"/><path d="M214.49678,203.82775c-0.16457,0.05763 -0.21003,0.29638 -0.3665,0.37502c-1.19664,0.60147 -3.01339,0.30208 -4.30507,0.5926c-1.53037,0.34421 -2.98228,1.05102 -4.4297,1.66339c0,0 -0.51065,0.21605 -0.69495,-0.26456c-0.1843,-0.48061 0.32637,-0.69667 0.32637,-0.69667c1.51725,-0.64191 3.03545,-1.36933 4.63959,-1.72999c0.99769,-0.22432 2.09104,-0.30714 3.10061,-0.40558c0.01389,-0.00135 0.78123,-0.00628 0.90274,-0.07688c0.19152,-0.11129 0.29114,-0.37011 0.50109,-0.43569c0.36577,-0.11425 0.78092,-0.08566 1.1908,-0.03138c0.09213,0.36232 0.1887,0.72094 0.28936,1.07462c-0.42242,-0.07785 -0.89054,-0.15725 -1.15434,-0.06488z" fill="#04acd6" stroke="none" stroke-width="0.5"/><path d="M212.1571,202.51678c-1.28894,0.30089 -2.58301,0.22591 -3.87814,0.44801c-1.16576,0.19992 -2.26314,0.67735 -3.35784,1.1405c0,0 -0.51065,0.21605 -0.69495,-0.26456c-0.1843,-0.48061 0.32637,-0.69667 0.32637,-0.69667c1.17882,-0.49874 2.35914,-0.99914 3.61383,-1.21613c1.27422,-0.22036 2.54925,-0.14649 3.81595,-0.43538c0.94374,-0.21524 1.92525,-0.52392 2.88939,-0.84821c0.06693,0.33941 0.1381,0.67776 0.21325,1.01413c-0.97656,0.32554 -1.96938,0.63456 -2.92785,0.8583z" fill="#04acd6" stroke="none" stroke-width="0.5"/></g><g fill="#ab7809" stroke="#8e6201" stroke-width="0.5" stroke-linecap="butt"><path d="M209.5179,190.08065c0.66087,-0.17822 2.34989,5.10704 3.77254,11.80497c1.42264,6.69794 2.04018,12.27216 1.3793,12.45038c-0.66087,0.17822 -2.34989,-5.10704 -3.77254,-11.80497c-1.42264,-6.69794 -2.04018,-12.27216 -1.3793,-12.45038z"/><path d="M213.74757,208.91133c1.62214,-0.43747 3.24271,0.64655 3.61966,2.42122c0.37694,1.77467 -0.6325,3.56795 -2.25464,4.00542c-1.62214,0.43747 -3.24271,-0.64655 -3.61966,-2.42122c-0.37694,-1.77467 0.6325,-3.56795 2.25464,-4.00542z"/><path d="M213.43234,204.17426c1.68222,-0.45367 3.26279,0.19954 3.53029,1.45898c0.2675,1.25945 -0.87935,2.64818 -2.56157,3.10186c-1.68222,0.45367 -3.26279,-0.19954 -3.53029,-1.45898c-0.2675,-1.25945 0.87935,-2.64818 2.56157,-3.10186z"/><path d="M212.80568,200.40966c1.95728,-0.52784 3.75641,0.04443 4.01847,1.27821c0.26206,1.23378 -1.1122,2.66187 -3.06948,3.18971c-1.95728,0.52784 -3.75641,-0.04443 -4.01847,-1.27821c-0.26206,-1.23378 1.1122,-2.66187 3.06948,-3.18971z"/><path d="M210.71301,196.79944c1.56583,-0.42228 3.03774,0.18906 3.28761,1.36546c0.24987,1.1764 -0.81693,2.47238 -2.38275,2.89465c-1.56583,0.42228 -3.03774,-0.18906 -3.28761,-1.36546c-0.24987,-1.1764 0.81693,-2.47238 2.38275,-2.89465z"/><path d="M209.58359,194.46746c1.47549,-0.39791 2.87417,0.23317 3.12403,1.40957c0.24987,1.1764 -0.7437,2.45263 -2.21919,2.85054c-1.47549,0.39791 -2.87417,-0.23317 -3.12403,-1.40957c-0.24987,-1.1764 0.7437,-2.45263 2.21919,-2.85054z"/><path d="M208.62423,190.22206c1.56583,-0.42228 3.05256,0.25884 3.32071,1.52132c0.26815,1.26248 -0.78383,2.62823 -2.34965,3.05051c-1.56583,0.42228 -3.05256,-0.25884 -3.32071,-1.52132c-0.26815,-1.26248 0.78383,-2.62823 2.34965,-3.05051z"/></g><path d="M199.83981,216.32451l-5.81503,-7.35874l6.12072,-2.91385l-5.63436,-8.60213l3.39739,-0.71318l-1.03266,-3.92089l5.07003,-1.40094l0.68309,-1.22939l0.82692,-3.64879l2.08962,4.61126l6.85593,-3.48087l0.50869,2.21726l5.06101,1.31595l-2.13821,1.84979l3.82064,6.78913l-5.87264,1.81921l2.76368,6.09877l-6.30766,1.95397l7.42927,3.80531l3.65174,0.39546l-1.73378,2.7423l0.67407,1.4875l-6.19439,0.56184l0.56081,2.87964l-9.68075,-0.56338l-1.26819,1.58028z" fill-opacity="0.5" fill="#27d4fe" stroke="none" stroke-width="0" stroke-linecap="round"/></g></g><g stroke="none" stroke-width="0.5" stroke-linecap="butt"><path d="M176.99372,172.44928c-1.89326,-0.49597 -1.89326,-2.38166 -1.89326,-2.38166c0.00852,-1.21631 -0.1692,-2.44432 0.02557,-3.64893c0.18971,-1.17324 0.35913,-2.43352 1.11742,-3.42001c1.18237,-1.5382 2.40664,-3.69607 4.52607,-3.92183c5.05391,-0.53833 11.57666,9.02784 16.7942,5.00123c6.89927,-5.32447 12.96681,-11.54037 19.8429,-16.94758c0.92093,-0.7242 5.91681,-4.82322 6.99861,-4.88798c4.63608,-0.27757 6.31415,2.50389 8.6342,4.94964c0.60418,1.1178 1.29052,2.20506 1.81256,3.35341c0.23695,0.52123 -0.09536,1.33797 0.45458,1.6336c0.96243,0.51738 6.10035,-0.66553 6.35757,-0.6965c5.26157,-0.63355 10.46913,-0.51111 15.75981,-0.50053c3.37697,0.00675 6.91748,-0.44422 10.07524,0.98245c6.63826,2.99915 8.91815,10.2736 11.18647,15.85429c0.91335,2.24709 2.24305,4.38278 2.85768,6.70461c0.12762,0.4821 -0.54921,1.2821 -0.02704,1.48356c6.00576,2.31701 14.97533,-3.97978 17.36645,4.72271c0.43611,1.58722 -0.56444,3.22613 -0.84665,4.83919c-3.30712,9.93297 -11.81378,18.11907 -17.02511,27.40357c-1.81831,3.2395 -3.19397,9.41625 -7.81353,10.69689c-1.38142,0.38296 -2.78125,-0.77072 -4.22299,-0.90936c-4.70949,-0.45287 -9.59646,0.48454 -13.87137,2.16549c-0.34548,0.13585 -3.44662,1.43564 -3.81763,2.33881c-0.61453,1.49596 0.12436,5.58965 -1.04027,6.56623c-2.60363,2.18325 -6.34913,0.82776 -9.04072,0.22141c-7.05568,-2.25236 -13.95802,-5.15512 -20.19176,-8.84333c-1.47272,-0.87134 -2.91927,-1.78276 -4.27708,-2.78407c-0.30257,-0.22313 -0.27356,-0.93152 -0.66203,-0.85828c-0.39512,0.07449 -0.02744,0.73144 -0.24097,1.02852c-0.74217,1.03261 -1.78542,1.88275 -2.57462,2.88892c-3.54226,4.51609 -7.53527,12.75733 -15.82045,10.95318c-7.58609,-1.65191 -3.53395,-9.2344 -6.67887,-12.96293c-2.49178,-2.95419 -9.94739,-2.09961 -13.18501,-2.10021c-1.39135,0.11028 -7.7783,0.63574 -8.06121,0.53138c-3.97556,-1.46663 -3.79218,-4.55758 -3.99672,-7.43464c-0.45213,-6.35982 0.45585,-12.1752 1.97176,-18.35817c0.26583,-1.08426 0.19679,-2.24891 0.69379,-3.27051c1.02096,-2.09862 4.77056,-5.7377 6.25712,-7.30159c0.64906,-0.68283 2.62885,-1.75037 1.73855,-2.18441c-2.40905,-1.17448 -6.2102,-0.14946 -6.78467,-4.08712c-0.52843,-3.62208 3.69363,-5.50574 7.60135,-6.81942z" fill-opacity="0.65323" fill="#f3efef"/><g fill-opacity="0.48866" fill="#f3efef"><path d="M216.75257,136.47453c-1.27958,-1.30495 -0.0972,-2.88917 -0.0972,-2.88917c0.76982,-1.01785 1.3905,-2.13293 2.30947,-3.05357c0.89502,-0.89667 1.82759,-1.87597 3.08321,-2.34897c1.95783,-0.73754 4.33943,-1.97603 6.26157,-1.1713c4.58347,1.91891 4.06516,13.01603 10.97336,12.08112c9.13485,-1.23625 18.12989,-3.61165 27.29715,-4.92829c1.22778,-0.17634 7.99516,-1.27608 8.94462,-0.82294c4.06893,1.94194 3.73469,5.06604 4.15027,8.20929c-0.1933,1.22257 -0.29844,2.45801 -0.5799,3.6677c-0.12775,0.54907 -0.91906,1.07932 -0.6424,1.58571c0.48415,0.88622 5.54237,2.30301 5.77789,2.39767c4.81763,1.93634 9.11587,4.48248 13.55409,6.97364c2.83285,1.59007 6.09009,2.87233 7.84845,5.55245c3.69643,5.63418 1.05054,12.81532 -0.54302,18.56804c-0.64165,2.31636 -0.86367,4.73448 -1.80317,6.97348c-0.19507,0.4649 -1.26533,0.81945 -0.95295,1.23369c3.59277,4.76434 15.07661,3.68256 11.62875,12.11561c-0.62884,1.53808 -2.49707,2.44554 -3.7456,3.66831c-9.00665,6.79333 -21.28622,9.67957 -31.48603,15.03469c-3.55886,1.86848 -8.58758,6.41231 -13.27159,5.32082c-1.40069,-0.32639 -1.85334,-1.9524 -2.97766,-2.74531c-3.67261,-2.59005 -8.36607,-4.09536 -13.01154,-4.68884c-0.37544,-0.04796 -3.79578,-0.41096 -4.6738,0.17375c-1.45428,0.96848 -3.4004,4.75437 -4.99117,5.0284c-3.55634,0.61264 -5.85309,-2.28344 -7.73418,-4.05569c-4.51538,-5.20263 -8.49411,-10.87973 -11.41863,-16.90303c-0.69092,-1.423 -1.33471,-2.8674 -1.84759,-4.34568c-0.11429,-0.32942 0.35427,-0.91094 -0.01803,-1.03168c-0.37866,-0.1228 -0.48169,0.60162 -0.84735,0.75103c-1.27098,0.51931 -2.68051,0.74407 -3.97444,1.21911c-5.80766,2.13214 -14.32977,7.1824 -20.15913,1.77947c-5.33747,-4.94703 2.82125,-9.41611 2.51702,-14.02407c-0.24105,-3.65098 -7.04056,-6.43102 -9.76019,-7.95055c-1.23806,-0.56014 -6.93339,-3.1153 -7.10562,-3.33571c-2.42035,-3.0974 -0.32819,-5.60815 1.30397,-8.12121c3.60794,-5.55518 8.01716,-10.01484 13.16761,-14.49809c0.9032,-0.78619 1.57546,-1.79704 2.63358,-2.42213c2.17364,-1.2841 7.60557,-2.58216 9.83507,-3.19857c0.97345,-0.26914 3.30609,-0.23713 2.83029,-1.01949c-1.28748,-2.11698 -5.12363,-3.03924 -3.13724,-6.61691c1.82719,-3.29093 6.55537,-2.89256 10.66206,-2.1628z"/><path d="M273.08989,134.83828c0.74856,-1.58391 2.91888,-1.4069 2.91888,-1.4069c1.3991,0.12152 2.82916,0.08373 4.1973,0.36455c1.33252,0.2735 2.76712,0.53771 3.83133,1.28335c1.65938,1.16265 4.02806,2.41955 4.08893,4.26599c0.14518,4.40295 -11.47721,9.12236 -7.33259,13.99367c5.48052,6.44145 12.06509,12.25029 17.64302,18.67953c0.74706,0.86108 4.99583,5.5483 4.96882,6.48602c-0.11572,4.01863 -3.47454,5.20271 -6.50723,6.97115c-1.34324,0.4154 -2.65903,0.9044 -4.02972,1.2462c-0.62215,0.15514 -1.53096,-0.20772 -1.92285,0.23814c-0.68582,0.78028 0.19335,5.31608 0.20485,5.54051c0.23528,4.59072 -0.39448,9.06397 -0.90329,13.61932c-0.32477,2.90761 -0.13808,5.99902 -2.0765,8.58455c-4.07497,5.43533 -12.66145,6.71591 -19.29742,8.14553c-2.672,0.57564 -5.25487,1.52031 -7.98486,1.83167c-0.56684,0.06465 -1.42406,-0.59333 -1.70495,-0.16255c-3.2305,4.95466 3.17476,13.27031 -7.06575,14.51264c-1.86773,0.22658 -3.6601,-0.78892 -5.49015,-1.18338c-11.12183,-3.78049 -19.74504,-11.87484 -29.94175,-17.23436c-3.55779,-1.87001 -10.53773,-3.63454 -11.57804,-7.73311c-0.31109,-1.22562 1.14813,-2.32286 1.44303,-3.55147c0.9633,-4.01329 0.34313,-8.30995 -1.19026,-12.14928c-0.12393,-0.31028 -1.32879,-3.10299 -2.33347,-3.50729c-1.66408,-0.66965 -6.44505,-0.41761 -7.45971,-1.51225c-2.26839,-2.44719 -0.35671,-5.54556 0.59383,-7.80663c3.25464,-5.86491 7.24347,-11.53672 12.07354,-16.55899c1.14111,-1.18651 2.32588,-2.34672 3.60579,-3.42207c0.28521,-0.23963 1.0978,-0.14814 1.04998,-0.48958c-0.04865,-0.34727 -0.83927,-0.0923 -1.16114,-0.30407c-1.11881,-0.73608 -1.99933,-1.71433 -3.0833,-2.48844c-4.86524,-3.47451 -13.9756,-7.68689 -11.1214,-14.65272c2.61336,-6.37805 10.95997,-2.1766 15.54651,-4.535c3.63401,-1.8686 3.35029,-8.36959 3.6549,-11.15776c0.00368,-1.20858 -0.00155,-6.75834 0.14512,-6.99218c2.06119,-3.28607 5.60148,-2.83801 8.932,-2.74408c7.36222,0.20762 13.97015,1.53546 20.94409,3.42135c1.22296,0.33071 2.56989,0.38059 3.69903,0.9045c2.31956,1.07625 6.15594,4.64699 7.81635,6.07402c0.72497,0.62307 1.7678,2.42826 2.35093,1.70229c1.57789,-1.96442 0.75497,-5.33417 5.34092,-5.45928c4.2184,-0.11508 5.99006,3.69777 7.13522,7.1864z"/></g></g><g data-paper-data="{&quot;index&quot;:null}" stroke-width="0" stroke-linecap="butt"><path d="M255.51438,194.24969c-0.00315,2.30899 -2.8436,4.17692 -6.34432,4.17214c-3.50072,-0.00478 -6.33607,-1.88046 -6.33292,-4.18945c0.00315,-2.30899 2.8436,-4.17692 6.34432,-4.17214c3.50072,0.00478 6.33607,1.88046 6.33292,4.18945z" fill="#0f0f0f" stroke="#029f0f"/><path d="M253.08848,193.03259c-0.00122,0.8938 -1.08906,1.61688 -2.42976,1.61505c-1.3407,-0.00183 -2.42656,-0.72788 -2.42534,-1.62169c0.00122,-0.8938 1.08906,-1.61688 2.42976,-1.61505c1.3407,0.00183 2.42656,0.72788 2.42534,1.62169z" fill="#ece4e4" stroke="none"/></g><g data-paper-data="{&quot;index&quot;:null}" stroke-width="0" stroke-linecap="butt"><path d="M255.76258,173.64899c-0.00315,2.30899 -2.8436,4.17692 -6.34432,4.17214c-3.50072,-0.00478 -6.33607,-1.88046 -6.33292,-4.18945c0.00315,-2.30899 2.8436,-4.17692 6.34432,-4.17214c3.50072,0.00478 6.33607,1.88046 6.33292,4.18945z" fill="#0f0f0f" stroke="#029f0f"/><path d="M253.33668,172.43189c-0.00122,0.8938 -1.08906,1.61688 -2.42976,1.61505c-1.3407,-0.00183 -2.42656,-0.72788 -2.42534,-1.62169c0.00122,-0.8938 1.08906,-1.61688 2.42976,-1.61505c1.3407,0.00183 2.42656,0.72788 2.42534,1.62169z" fill="#ece4e4" stroke="none"/></g><path d="M250.51647,189.57466c-0.03802,0.24908 -0.10987,0.5141 -0.22717,0.79192c-0.72655,1.72079 -1.74371,0.49165 -1.74371,0.49165c-2.27237,-2.94693 -3.69209,-10.31436 -0.86108,-14.06482c0.47254,-0.62602 3.50417,-1.79105 4.09471,-2.04996c5.08307,-2.2286 9.6927,-3.94899 14.95626,-2.84221l0.05426,0.04642l0.00356,-0.02709l1.46875,0.55217c0.57199,0.19405 1.00287,1.04858 1.00287,2.07337c0,0.64728 -0.1719,1.22663 -0.44268,1.61453l-1.15488,1.67467l-0.26351,-0.52009c-0.98462,1.35716 -1.97395,2.24664 -3.19022,4.12388c-0.03166,0.04887 -0.06822,0.10206 -0.10861,0.15792c3.452,0.98643 4.34557,6.93986 3.83058,12.16147c-0.12214,1.23838 0.15061,2.89668 -0.42033,3.69876c-0.60803,0.85418 -1.5782,0.28554 -2.36752,0.21772c-2.23405,-0.19196 -4.46159,-0.52163 -6.73986,-0.54602c-2.83328,-1.18143 -5.27095,-5.63067 -7.8914,-7.55427z" fill="#27d3fe" stroke="#0499be" stroke-width="1" stroke-linecap="butt"/><path d="M262.78538,186.59537c0,13.228 -9.27881,23.95143 -20.72481,23.95143c-11.446,0 -20.72481,-10.72342 -20.72481,-23.95142c0,-13.228 9.27881,-23.95142 20.72481,-23.95142c11.446,0 20.72481,10.72342 20.72481,23.95143z" fill="#27d3fe" stroke="#04acd6" stroke-width="2.5" stroke-linecap="butt"/><path d="M257.97879,172.90562c0.1615,-0.08269 0.36435,-0.13462 0.61913,-0.13462c1.25,0 1.25,1.25 1.25,1.25l-1.49515,1.47393c-1.48398,-0.30502 -2.90401,-0.22742 -4.42271,-0.24007c-3.97796,-1.29024 -7.94962,-1.4006 -12.06474,-1.72553c-4.84646,-0.38267 -9.37745,-1.48495 -14.29257,-1.48495c0,0 -1.25,0 -1.25,-1.25c0,-1.25 1.25,-1.25 1.25,-1.25c4.98223,0 9.58977,1.12663 14.49877,1.49347c4.14794,0.30996 8.26674,0.37634 12.25899,1.74929c1.26275,-0.01326 2.43411,-0.03347 3.64827,0.11848z" fill="#04acd6" stroke="none" stroke-width="0.5" stroke-linecap="butt"/><path d="M261.13928,197.58886c0,1.25 -1.25,1.25 -1.25,1.25l-0.96064,-0.0894c-0.70373,-0.29837 -1.49241,-0.41985 -2.25685,-0.40716c-0.00598,0.00016 -0.00912,0.00016 -0.00912,0.00016c0,0 -0.00183,0 -0.00534,-0.00007l-1.72026,-0.02248c-1.69906,-0.65633 -3.50865,-1.15092 -5.29668,-1.50853c-1.61289,-0.55468 -2.67306,-0.21794 -4.32016,-0.46661c-1.76597,-0.26661 -3.37278,-1.10143 -5.08136,-1.5114c-2.26098,-0.54252 -4.28329,0.20607 -6.51383,0.03001c-4.28658,-0.33834 -8.31363,-1.85824 -12.40216,-3.02225c0,0 -1.2019,-0.3434 -0.8585,-1.54531c0.3434,-1.2019 1.54531,-0.8585 1.54531,-0.8585c3.93821,1.12892 7.79731,2.56792 11.92156,2.93458c1.51635,0.13481 2.88842,-0.34794 4.43365,-0.25055c2.61252,0.16467 4.76628,1.3487 7.30209,1.74758c1.66437,0.2618 2.93956,-0.01725 4.61508,0.5262c1.72342,0.34468 3.5074,0.79478 5.12778,1.46989l1.24299,-0.02238c0.00644,-0.00018 0.00984,-0.00018 0.00984,-0.00018c0.00185,0.00002 0.0037,0.00005 0.00555,0.00007c1.0807,0.0147 2.17983,0.19879 3.1889,0.58573l0.03216,-0.0894c0,0 1.25,0 1.25,1.25z" fill="#04acd6" stroke="none" stroke-width="0.5" stroke-linecap="butt"/><path d="M256.95814,203.34872c0.69338,1.04006 -0.34669,1.73344 -0.34669,1.73344l-1.43798,0.70634c-0.8317,-0.0037 -1.67039,0.05647 -2.48507,0.22393c-1.21515,0.24303 -2.73496,0.7799 -3.96816,0.76888c-2.96993,-0.02653 -5.53901,-2.84945 -8.329,-3.78429c-4.94408,-1.65661 -10.63918,-1.42794 -15.74653,-1.42794c0,0 -1.25,0 -1.25,-1.25c0,-1.25 1.25,-1.25 1.25,-1.25c5.38538,0 11.30778,-0.17942 16.51964,1.55048c1.38999,0.46136 3.53867,1.32482 4.76918,2.13079c1.00332,0.65716 1.41147,1.5511 2.7867,1.53096c1.0901,-0.01597 2.40629,-0.50601 3.47787,-0.72033c0.97744,-0.19104 1.97943,-0.26872 2.97536,-0.27248l0.05123,-0.28647c0,0 1.04006,-0.69338 1.73344,0.34669z" fill="#04acd6" stroke="none" stroke-width="0.5" stroke-linecap="butt"/><path d="M260.78467,179.83146c0.15725,-0.07537 0.35218,-0.12209 0.59383,-0.12209c1.25,0 1.25,1.25 1.25,1.25l-1.49515,1.47393c-4.24492,-0.84898 -8.48082,-0.21377 -12.78449,-0.23001c-3.08055,-0.60226 -5.61786,-1.73261 -8.49936,-2.80111c-1.96949,-0.73032 -4.20893,-0.04283 -6.17881,-0.73528c-3.20006,-1.12488 -6.55755,-2.92617 -10.01878,-2.91076c0,0 -1.25,0 -1.25,-1.25c0,-1.25 1.25,-1.25 1.25,-1.25c3.7212,0.01404 7.4097,1.74706 10.83012,3.04607c1.90713,0.72429 4.24149,0.0413 6.23125,0.75393c2.67865,0.95935 5.03414,2.07466 7.88192,2.65932c4.11184,-0.01831 8.13077,-0.52977 12.18946,0.116z" fill="#04acd6" stroke="none" stroke-width="0.5" stroke-linecap="butt"/><path d="M261.75194,192.06582c0.55902,1.11803 -0.55902,1.67705 -0.55902,1.67705l-1.30056,0.35589c-2.82927,-0.58154 -5.77366,-0.5069 -8.6474,-0.98554c-1.37203,-0.22867 -3.21321,-0.25745 -4.49228,-0.82275c-0.87994,-0.3889 -2.74199,-2.06793 -3.79302,-2.13974c-0.39313,-0.02686 -0.68171,0.46439 -1.07477,0.49225c-3.00603,0.21304 -6.59059,-2.17701 -9.54566,-2.74981c-3.50116,-0.67865 -7.12991,-0.47157 -10.67293,-0.47157c0,0 -1.25,0 -1.25,-1.25c0,-1.25 1.25,-1.25 1.25,-1.25c3.71394,0 7.49896,-0.1904 11.16878,0.52124c2.28243,0.4426 4.65206,1.29242 6.85786,2.02798c0.03034,0.01012 1.65045,0.72559 1.96338,0.68263c0.49325,-0.06771 0.91209,-0.55258 1.40724,-0.50056c1.63601,0.17189 3.23111,1.66168 4.64583,2.32788c1.05965,0.499 2.79976,0.47533 3.94657,0.66646c2.90783,0.48496 5.85092,0.43801 8.72669,1.00007l-0.30776,-0.14051c0,0 1.11803,-0.55902 1.67705,0.55902z" fill="#04acd6" stroke="none" stroke-width="0.5" stroke-linecap="butt"/><g data-paper-data="{&quot;index&quot;:null}" stroke-width="0" stroke-linecap="butt"><path d="M254.8036,195.67131c-0.00315,2.30899 -2.8436,4.17692 -6.34432,4.17214c-3.50072,-0.00478 -6.33607,-1.88046 -6.33292,-4.18945c0.00315,-2.30899 2.8436,-4.17692 6.34432,-4.17214c3.50072,0.00478 6.33607,1.88046 6.33292,4.18945z" fill="#0f0f0f" stroke="#029f0f"/><path d="M252.3777,194.45421c-0.00122,0.8938 -1.08906,1.61688 -2.42976,1.61505c-1.3407,-0.00183 -2.42656,-0.72788 -2.42534,-1.62169c0.00122,-0.8938 1.08906,-1.61688 2.42976,-1.61505c1.3407,0.00183 2.42656,0.72788 2.42534,1.62169z" fill="#ece4e4" stroke="none"/></g><g data-paper-data="{&quot;index&quot;:null}" stroke-width="0" stroke-linecap="butt"><path d="M255.0518,175.07061c-0.00315,2.30899 -2.8436,4.17692 -6.34432,4.17214c-3.50072,-0.00478 -6.33607,-1.88046 -6.33292,-4.18945c0.00315,-2.30899 2.8436,-4.17692 6.34432,-4.17214c3.50072,0.00478 6.33607,1.88046 6.33292,4.18945z" fill="#0f0f0f" stroke="#029f0f"/><path d="M252.6259,173.85351c-0.00122,0.8938 -1.08906,1.61688 -2.42976,1.61505c-1.3407,-0.00183 -2.42656,-0.72788 -2.42534,-1.62169c0.00122,-0.8938 1.08906,-1.61688 2.42976,-1.61505c1.3407,0.00183 2.42656,0.72788 2.42534,1.62169z" fill="#ece4e4" stroke="none"/></g><path d="M262.6303,185.59764c0,1.25 -1.25,1.25 -1.25,1.25l-0.32091,-0.00965c-3.60904,-0.45816 -7.28078,-0.29967 -10.9022,-0.65867c-3.60253,-0.27703 -7.51828,-0.52124 -11.0665,-1.17745c-2.95769,-0.54699 -5.62263,-1.93999 -8.52972,-2.66916c-2.6167,-0.65634 -5.31352,-0.6269 -7.99315,-0.6269c0,0 -1.25,0 -1.25,-1.25c0,-1.25 1.25,-1.25 1.25,-1.25c2.88554,0 5.7756,-0.00231 8.59338,0.70002c2.86166,0.71327 5.48738,2.08576 8.38854,2.63854c3.45681,0.65865 7.31012,0.87399 10.82772,1.14466c3.65636,0.36899 7.34407,0.21859 10.99203,0.66826l0.01082,-0.00966c0,0 1.25,0 1.25,1.25z" fill="#04acd6" stroke="none" stroke-width="0.5" stroke-linecap="butt"/><path d="M242.66182,207.23658l-1.67705,0.55902l-1.0841,-0.54617l-5.10688,-8.32187l1.25,-1.25l1.25,1.25l3.89312,6.17813l0.9159,0.45383l0.55902,1.67705z" fill="#a4f7e8" stroke="none" stroke-width="0.5" stroke-linecap="butt"/><g><path d="M219.79553,187.67922c0.03314,-0.14216 0.0661,-0.28439 0.09865,-0.42456c-0.07753,0.16972 -0.12488,0.29991 -0.11301,0.35905c0.0044,0.02195 0.00919,0.0438 0.01436,0.06551zM215.57492,190.47105c1.32618,-1.77862 0.92108,-3.18721 1.04907,-5.25899c0.03424,-0.55433 -0.49129,1.763 -0.96481,3.08744c-0.15611,0.43664 -0.248,0.88028 -0.372,1.32042c0.00796,0.3269 0.11371,0.61461 0.28774,0.85113zM213.64933,192.21493c-0.24219,-0.51466 -0.40681,-1.13184 -0.4709,-1.84629c0.49484,-1.93361 2.16009,-8.17183 4.24239,-8.65456c1.11055,-0.25745 1.51074,1.22209 1.51982,3.03671c0.69244,-1.34136 1.57127,-2.42345 2.38529,-2.41955c0.32716,0.00157 0.55423,0.21364 0.70404,0.56156c0.36252,-0.39428 0.72503,-0.78856 1.08755,-1.18285c1.01566,0.99194 1.77751,1.03734 1.62208,3.30543c-0.12258,1.78879 -1.85611,5.5689 -3.32836,6.40606c-0.22876,0.13008 -0.62104,0.08134 -1.03883,-0.04843c-1.55157,2.38984 -3.60914,3.13478 -5.1314,2.47308c-1.67452,1.60361 -3.56898,2.51166 -4.70382,1.61998c-1.7628,-1.38508 -1.65706,-5.47446 -0.38818,-8.67853c0,0 0.60337,-1.4713 1.48168,-1.16549c0.87831,0.30581 0.27494,1.77711 0.27494,1.77711c-1.42488,3.29695 -0.33966,5.85038 1.74369,4.81577zM222.19312,185.93566c-0.10144,0.92526 -0.28203,1.82575 -0.45537,2.41893c0.54094,-0.65307 0.63414,-1.78509 0.72726,-2.66689c-0.07697,0.08256 -0.16348,0.16274 -0.26068,0.2392c-0.00375,0.00295 -0.00748,0.00587 -0.01121,0.00876zM218.0388,189.96836c-0.18073,0.39812 -0.39516,0.79827 -0.63601,1.19223c0.45294,-0.06439 0.91208,-0.27353 1.30231,-0.658c-0.21384,-0.17906 -0.46492,-0.3282 -0.6663,-0.53422z" fill="#ab7809" stroke="#8e6201" stroke-width="0.5" stroke-linecap="butt"/><g><path d="M191.14182,191.37986c0,0 2.54284,-1.71268 2.46326,-2.84306c-0.02695,-0.38275 1.11988,-1.62362 0.09026,-1.76936c-1.00061,-0.14163 -4.17401,0.81583 -4.5002,0.19087c-0.28799,-0.55176 3.14436,-1.36104 3.34131,-2.10144c0.38641,-1.45261 -2.05328,-2.83285 -2.05328,-2.83285l6.69853,1.04084c0,0 -2.48221,-1.61186 -2.46009,-2.80205c0.01525,-0.82053 3.75448,-0.52259 4.31515,-1.97278c0.73498,-1.90102 -1.66394,-5.50651 -1.66394,-5.50651l3.20871,1.32478c0,0 3.27021,0.0198 2.80191,-0.23038c-5.4543,-2.9139 -1.44615,-3.59084 -1.44615,-3.59084l4.97812,1.69887l1.25698,-0.63089l2.73884,-2.54877l-0.87143,4.98707l7.6254,0.98657l-0.82887,2.11849l3.44004,3.93849l-2.80872,0.32368l-0.66822,7.76165l-5.87688,-1.80547c0,0 3.91635,3.15895 3.75885,4.0603c-0.09135,0.52281 -3.20335,-1.14408 -4.23268,-0.69346c-1.34673,0.58956 -0.67871,3.22896 -0.67871,3.22896l-6.31221,-1.93921c0,0 4.0687,2.13931 4.68414,3.26863c0.38244,0.70178 -1.3864,1.32707 -1.68237,2.21994c-0.24888,0.75079 0.99248,1.84086 0.99248,1.84086l2.79428,2.38403l-2.97739,1.28892l-0.2811,1.60873l-5.43434,-3.02558l-1.15898,2.69511c0,0 -1.69739,-4.16615 -3.03891,-5.20001c-1.20382,-0.92774 -4.64194,-0.71936 -4.64194,-0.71936l-1.93807,0.59116c0,0 2.32794,-3.42074 2.39486,-4.76311c0.02036,-0.40839 -3.15794,0.36007 -3.70162,-0.21074c-0.477,-0.50081 1.67297,-2.37205 1.67297,-2.37205z" fill-opacity="0.78226" fill="#8cedf3" stroke="none" stroke-width="0" stroke-linecap="round"/><g stroke-linecap="butt"><path d="M207.32734,197.35319c-4.97785,-0.99985 -7.56943,-5.84809 -6.31538,-11.14889c1.25405,-5.3008 5.87885,-9.04686 10.8567,-8.04702c1.44898,0.29104 2.73196,0.93014 3.79187,1.82074c-2.39065,3.08521 -4.51649,7.72658 -5.64441,11.81006c-0.32487,0.64649 -0.57929,1.33511 -0.75251,2.05953c-0.29676,1.24104 -0.32935,2.47902 -0.13233,3.66412c-0.59465,0.01405 -1.19799,-0.03683 -1.80393,-0.15854z" fill="#27d3fe" stroke="#04acd6" stroke-width="1.5"/><path d="M210.95435,182.69892c-2.07144,-0.5767 -3.93746,-1.41421 -6.07504,-1.84356c0,0 -0.54362,-0.10919 -0.42512,-0.6101c0.1185,-0.50091 0.66213,-0.39172 0.66213,-0.39172c2.16677,0.43521 4.06377,1.28917 6.16391,1.86499c0.90522,0.24819 1.81315,0.47032 2.69866,0.74772c-0.1814,0.30371 -0.35984,0.61439 -0.53492,0.9309c-0.81533,-0.25199 -1.64766,-0.46382 -2.48962,-0.69823z" fill="#04acd6" stroke="none" stroke-width="0.5"/><path d="M208.01201,190.95122c-0.93186,-0.41491 -1.88233,-0.29158 -2.8357,-0.55698c-1.83215,-0.51003 -3.43942,-1.47087 -5.10717,-2.29446c0,0 -0.49015,-0.2426 -0.22686,-0.69424c0.26329,-0.45164 0.75344,-0.20904 0.75344,-0.20904c1.6057,0.7964 3.14759,1.71015 4.90646,2.21735c0.64668,0.18648 1.28916,0.11288 1.95194,0.28689c1.0466,0.27478 1.83486,0.87094 2.80208,1.25915c-0.08437,0.27815 -0.16447,0.55442 -0.24009,0.82819c-0.02666,0.05306 -0.05285,0.10641 -0.07856,0.16004c-0.6813,-0.26856 -1.26638,-0.70343 -1.92554,-0.99691z" fill="#04acd6" stroke="none" stroke-width="0.5"/><path d="M207.30433,194.23591c-1.99312,-1.09573 -4.49159,-1.50158 -6.71277,-1.94773c0,0 -0.54362,-0.10919 -0.42512,-0.6101c0.1185,-0.50091 0.66213,-0.39172 0.66213,-0.39172c2.34209,0.47043 4.93475,0.91587 7.03738,2.06436c0.37873,0.20687 0.89058,0.51747 1.32431,0.82994c-0.0964,0.47866 -0.15391,0.95619 -0.17451,1.42974c-0.56596,-0.48027 -1.09774,-1.03713 -1.71142,-1.3745z" fill="#04acd6" stroke="none" stroke-width="0.5"/><path d="M209.30558,184.73353c-0.78729,-0.4647 -1.8264,-0.38483 -2.61745,-0.83439c-1.28506,-0.7303 -2.57446,-1.74542 -4.08121,-2.04159c0,0 -0.54362,-0.10919 -0.42512,-0.6101c0.1185,-0.50091 0.66213,-0.39172 0.66213,-0.39172c1.61701,0.33069 3.05684,1.34735 4.42123,2.16669c0.76074,0.45684 1.8407,0.38706 2.63849,0.84644c0.87485,0.50376 1.64663,1.03025 2.54222,1.46927c-0.14881,0.3112 -0.29404,0.62544 -0.43537,0.94181c-0.95406,-0.45709 -1.77926,-1.00004 -2.70492,-1.54641z" fill="#04acd6" stroke="none" stroke-width="0.5"/><path d="M209.63919,189.31243c-0.16843,-0.0451 -0.3405,0.12654 -0.51408,0.10337c-1.32752,-0.17722 -2.65985,-1.44809 -3.89071,-1.93577c-1.45831,-0.57779 -3.05608,-0.81179 -4.59694,-1.12129c0,0 -0.54362,-0.10919 -0.42512,-0.6101c0.1185,-0.50091 0.66213,-0.39172 0.66213,-0.39172c1.61519,0.32443 3.27934,0.57876 4.80787,1.18451c0.95067,0.37674 1.90065,0.92428 2.79022,1.41172c0.01224,0.00671 0.64899,0.43494 0.78916,0.44506c0.22093,0.01595 0.44905,-0.14176 0.65946,-0.07766c0.36657,0.11167 0.69345,0.36918 1.00152,0.64494c-0.128,0.35125 -0.25026,0.70195 -0.36635,1.05087c-0.30515,-0.3023 -0.64717,-0.63163 -0.91717,-0.70393z" fill="#04acd6" stroke="none" stroke-width="0.5"/><path d="M208.44471,186.91118c-1.23444,-0.47756 -2.26136,-1.26856 -3.45652,-1.8147c-1.07578,-0.49159 -2.25141,-0.71537 -3.41678,-0.94944c0,0 -0.54362,-0.10919 -0.42512,-0.6101c0.1185,-0.50091 0.66213,-0.39172 0.66213,-0.39172c1.25492,0.25206 2.51202,0.50359 3.67089,1.03118c1.17691,0.5358 2.18872,1.31516 3.39802,1.7901c0.90098,0.35385 1.88581,0.65178 2.86508,0.92702c-0.13592,0.31813 -0.26774,0.63777 -0.39515,0.95802c-0.99023,-0.28121 -1.9846,-0.58523 -2.90254,-0.94035z" fill="#04acd6" stroke="none" stroke-width="0.5"/></g><g fill="#ab7809" stroke="#8e6201" stroke-width="0.5" stroke-linecap="butt"><path d="M213.27042,175.14958c0.64642,0.22507 -0.9357,5.54331 -3.53376,11.87863c-2.59807,6.33532 -5.22824,11.28865 -5.87466,11.06358c-0.64642,-0.22507 0.9357,-5.54331 3.53376,-11.87863c2.59807,-6.33532 5.22824,-11.28865 5.87466,-11.06358z"/><path d="M206.15623,193.0904c1.58667,0.55244 2.31488,2.36105 1.62651,4.03964c-0.68838,1.67859 -2.53267,2.59151 -4.11934,2.03907c-1.58667,-0.55244 -2.31488,-2.36105 -1.62651,-4.03964c0.68838,-1.67859 2.53267,-2.59151 4.11934,-2.03907z"/><path d="M208.56453,188.99903c1.64544,0.5729 2.5833,2.00304 2.09477,3.19429c-0.48853,1.19126 -2.21844,1.69253 -3.86388,1.11963c-1.64544,-0.5729 -2.5833,-2.00304 -2.09477,-3.19429c0.48853,-1.19126 2.21844,-1.69253 3.86388,-1.11963z"/><path d="M210.16767,185.53567c1.91448,0.66658 3.07852,2.15298 2.59995,3.31997c-0.47857,1.16699 -2.41853,1.57265 -4.33301,0.90607c-1.91448,-0.66658 -3.07852,-2.15298 -2.59995,-3.31997c0.47857,-1.16699 2.41853,-1.57265 4.33301,-0.90607z"/><path d="M210.47261,181.37395c1.53159,0.53326 2.40327,1.86759 1.94696,2.9803c-0.45631,1.11271 -2.06783,1.58244 -3.59941,1.04918c-1.53159,-0.53326 -2.40327,-1.86759 -1.94696,-2.9803c0.45631,-1.11271 2.06783,-1.58244 3.59941,-1.04918z"/><path d="M210.85327,178.81098c1.44323,0.5025 2.24328,1.81188 1.78696,2.92459c-0.45631,1.11271 -1.9962,1.60738 -3.43942,1.10488c-1.44323,-0.5025 -2.24328,-1.81188 -1.78696,-2.92459c0.45631,-1.11271 1.9962,-1.60738 3.43942,-1.10488z"/><path d="M212.4524,174.76294c1.53159,0.53326 2.3762,1.93359 1.8865,3.12772c-0.4897,1.19413 -2.12828,1.72986 -3.65987,1.1966c-1.53159,-0.53326 -2.3762,-1.93359 -1.8865,-3.12772c0.4897,-1.19413 2.12828,-1.72986 3.65987,-1.1966z"/></g><path d="M190.48922,191.37988l-0.65865,-9.35584l6.69854,1.04084l0.19112,-10.28135l3.20871,1.32478l1.35575,-3.82122l4.97812,1.69887l1.25698,-0.63089l2.73884,-2.54877l-0.87143,4.98707l7.62541,0.98657l-0.82887,2.11849l3.44004,3.93849l-2.80872,0.32368l-0.66822,7.76164l-5.87688,-1.80547l-1.15254,6.5958l-6.31221,-1.93921l3.99425,7.32942l2.79428,2.38403l-2.97739,1.28892l-0.28111,1.60873l-5.43434,-3.02558l-1.15898,2.69511l-7.68085,-5.91937l-1.93807,0.59116z" fill-opacity="0.5" fill="#27d4fe" stroke="none" stroke-width="0" stroke-linecap="round"/></g></g></g></g></svg>