<svg version="1.1" xmlns="http://www.w3.org/2000/svg" xmlns:xlink="http://www.w3.org/1999/xlink" width="90.27781" height="115.48517" viewBox="0,0,90.27781,115.48517"><defs><linearGradient x1="250.44799" y1="124.88671" x2="242.74641" y2="218.8021" gradientUnits="userSpaceOnUse" id="color-1"><stop offset="0" stop-color="#b1cf16"/><stop offset="1" stop-color="#e9f366"/></linearGradient><radialGradient cx="239.37442" cy="151.73789" r="4.04602" gradientUnits="userSpaceOnUse" id="color-2"><stop offset="0" stop-color="#020702"/><stop offset="1" stop-color="#050a02"/></radialGradient><radialGradient cx="272.01705" cy="157.01064" r="3.17335" gradientUnits="userSpaceOnUse" id="color-3"><stop offset="0" stop-color="#020702"/><stop offset="1" stop-color="#050a02"/></radialGradient></defs><g transform="translate(-198.69539,-106.566)"><g data-paper-data="{&quot;isPaintingLayer&quot;:true}" fill-rule="nonzero" stroke-linejoin="miter" stroke-miterlimit="10" stroke-dasharray="" stroke-dashoffset="0" style="mix-blend-mode: normal"><g stroke-linecap="butt"><g stroke="#004700" stroke-width="1"><path d="M243.60681,140.00698c0,0 3.78958,-11.45091 5.8347,-16.26553c1.83118,-4.31096 8.03862,-13.4055 8.03862,-13.4055c0,0 8.09244,5.61449 9.43586,6.07088c0.28217,0.09587 2.65178,1.8057 2.65178,1.8057c0,0 -5.34933,5.9246 -7.12189,10.09755c-2.07851,4.89322 -6.71769,15.81474 -6.71769,15.81474z" fill="#399435"/><path d="M270.87673,118.08017c-0.7274,1.71241 -2.83203,0.61498 -6.098,-0.64547c-0.55003,-0.21227 -0.29943,-2.3915 -0.91429,-2.60039c-0.79754,-0.27093 -2.35294,1.29073 -2.99398,0.80525c-2.78775,-2.1113 -4.0472,-5.8268 -3.35619,-7.45354c0.84988,-2.00081 4.71324,-0.98979 8.97907,0.45938c4.26584,1.44918 5.23328,7.43398 4.3834,9.43479z" fill="#91e665"/></g><path d="M201.11926,198.81627c-2.2078,-7.98564 -0.47148,-15.41619 1.61082,-23.48019c2.26842,-8.78465 4.51667,-16.41385 10.17314,-24.05916c3.05434,-3.48386 6.20947,-7.09561 8.95715,-10.773c4.31966,-5.78125 7.5067,-12.73383 15.51661,-15.11919c4.6422,-1.38245 10.79818,-1.46284 14.49231,1.51975c1.05583,0.85246 2.55114,1.39186 3.50575,2.29829c2.53865,-1.26729 3.03885,-1.77646 6.41357,0.42811c0.81581,0.53294 1.50372,1.27722 1.92079,2.10144c0.68082,-0.48659 1.57613,-0.75423 2.37924,-1.07763c2.85537,-1.14983 3.63444,-1.32379 6.69712,-0.85581c7.26891,1.11068 8.32061,7.62718 9.38975,13.09208c0.63407,3.63437 1.90576,7.28814 2.24515,10.94215c0.08129,0.87517 -0.12425,3.62777 0.21762,4.71477c1.04643,3.32728 2.73751,6.32533 3.33495,9.81829c1.18021,6.90021 0.88495,14.23105 1.0418,21.19444c0.11718,5.20214 0.8935,10.63168 -0.45474,15.70559c-0.12375,0.52809 -1.468,6.31835 -1.59167,6.60911c-0.63277,1.48779 -2.26644,2.51596 -2.93563,3.99096c-0.39257,0.86529 -0.01823,2.01277 -0.68185,2.73463c-2.82645,3.07441 -9.52209,2.84672 -13.35006,1.53744c-2.49267,-0.85257 -3.55828,-1.94315 -5.12657,-3.75099c-0.58836,-0.67823 -1.2039,-1.3586 -1.60349,-2.13749c-0.14161,-0.27604 0.38175,-0.89653 0.04136,-0.90756c-0.42336,-0.01371 -0.39836,0.73615 -0.7874,0.8834c-1.97679,0.74828 -4.12972,1.11321 -6.25902,1.38296c-5.81859,0.73713 -10.22753,-0.7852 -14.40678,-4.24173c-0.43924,-0.84299 -0.92132,-1.6695 -1.31769,-2.52897c-0.13012,-0.28214 0.08531,-0.8774 -0.25694,-0.88532c-0.46089,-0.01067 -0.56031,0.70439 -0.98751,0.85654c-3.32379,1.1838 -7.27746,1.70101 -10.85956,1.73047c-9.58436,0.07883 -24.43023,0.11943 -28.83443,-8.89315c0,0 -0.90691,-1.96108 1.29388,-2.7577c0.07564,-0.02738 0.14976,-0.0515 0.22236,-0.07256z" fill="url(#color-1)" stroke="#334a0d" stroke-width="2"/><path d="M268.02425,153.5096c2.1064,0.14597 3.81939,-3.75874 5.27529,-2.60974c2.01411,1.58954 3.20093,3.93256 2.99382,6.45812c-0.35682,4.35115 -4.71596,7.59646 -9.73643,7.24857c-5.02047,-0.34789 -8.49569,-2.30759 -8.13887,-6.65876c0.35682,-4.35115 3.13705,-5.06479 8.15752,-4.71691z" data-paper-data="{&quot;index&quot;:null}" fill="#f6f9df" stroke="#354c0d" stroke-width="1.5"/><path d="M251.22781,154.7553c-0.35682,4.35115 -4.11236,5.80984 -9.13283,5.46195c-5.02047,-0.34789 -8.80109,-4.15721 -8.44427,-8.50835c0.20712,-2.52556 1.76262,-4.67856 4.0132,-5.97259c1.62682,-0.93538 3.63584,4.59658 5.74224,4.74254c5.02047,0.34789 8.17846,-0.07469 7.82164,4.27646z" fill="#f6f9df" stroke="#354c0d" stroke-width="1.5"/><path d="M275.27617,155.07156c-0.94962,-0.0658 -0.88039,-0.90992 -0.88039,-0.90992l0.02887,-0.00433c-0.30634,-2.1737 -2.08043,-1.20431 -3.97822,-1.33048c-1.95525,-0.19634 -4.19199,1.5667 -6.46644,1.66785c-5.94771,0.26452 -10.95072,-1.0496 -16.02599,-3.75564c-1.58032,-0.99592 -3.79504,-0.52093 -5.97517,-1.37058c-3.7493,-1.46122 -7.66732,-3.53536 -10.0366,0.10881c0,0 -0.48659,0.72559 -1.305,0.28921c-0.81841,-0.43636 -0.33181,-1.16194 -0.33181,-1.16194c4.57772,-6.67116 13.28615,-2.68374 18.68388,0.71792c4.75128,2.53329 9.33661,3.69194 14.89606,3.48055c2.53627,-0.09644 4.29867,-1.78417 6.69951,-1.66441c2.86001,0.20767 4.98443,-0.47224 5.71588,2.73693l-0.00574,0.41773c0,0 -0.06923,0.84413 -1.01884,0.77832z" fill="#334a0d" stroke="none" stroke-width="0.5"/><path d="M241.66932,151.89692c-0.16248,1.98134 -1.32167,3.51631 -2.58911,3.42848c-1.26744,-0.08782 -2.16318,-1.76521 -2.0007,-3.74653c0.16248,-1.98134 1.32166,-3.51632 2.5891,-3.42849c1.26744,0.08782 2.16319,1.76521 2.00071,3.74653z" fill="url(#color-2)" stroke="none" stroke-width="0"/><path d="M274.3911,157.17514c-0.12744,1.55398 -1.29365,2.74008 -2.60479,2.64923c-1.31114,-0.09086 -2.27074,-1.42426 -2.14331,-2.97824c0.12744,-1.55398 1.29365,-2.74009 2.60479,-2.64923c1.31114,0.09086 2.27074,1.42426 2.14331,2.97824z" fill="url(#color-3)" stroke="none" stroke-width="0"/><path d="M223.90773,187.81867c-0.72044,0.55036 -1.34296,-0.09306 -1.34296,-0.09306l-0.58734,-0.70559c-2.8814,0.11513 -6.49923,0.78507 -7.02164,-2.77365c-0.02113,-0.14394 0.17818,-2.48423 0.19817,-2.72807c0,0 0.06922,-0.84412 1.01884,-0.77831c0.94962,0.0658 0.88039,0.90992 0.88039,0.90992c-0.06392,0.7795 -0.31985,1.5597 -0.21716,2.33666c0.32637,2.46931 3.95374,1.28162 5.99611,1.52406l1.17346,1.11424c0,0 0.62253,0.64341 -0.09789,1.19376z" fill="#334a0d" stroke="none" stroke-width="0.5"/><path d="M279.77973,202.2155c0.81841,0.43636 0.33181,1.16194 0.33181,1.16194l-0.92209,1.1275c-1.62011,0.02851 -3.20655,0.30921 -4.7933,0.21883c-0.00804,-0.00038 -0.0161,-0.00084 -0.02417,-0.0014c-0.12002,-0.00832 -0.23322,-0.03607 -0.33598,-0.0795c-0.26566,-0.10115 -0.58564,-0.32782 -0.54442,-0.83042c0.04122,-0.5026 0.39455,-0.68261 0.6737,-0.74601c0.10868,-0.02879 0.22513,-0.04063 0.34515,-0.03231c0.00775,0.00054 0.01548,0.00116 0.02319,0.00185c1.33776,0.10299 2.44902,-0.5103 3.77512,-0.03633l0.16599,-0.49493c0,0 0.48659,-0.72559 1.305,-0.28921z" fill="#334a0d" stroke="none" stroke-width="0.5"/></g><path d="M277.93299,194.52119c-0.17157,2.44445 -11.27566,-3.75178 -17.69859,-5.77667c-6.03018,-1.90107 -11.89555,-4.26902 -12.11342,-4.28194c-3.46004,-0.2052 -6.73514,0.06524 -9.47033,0.45311c-4.51459,0.64021 -16.98167,-1.6046 -16.76384,-4.70821c0.3498,-4.98394 17.43371,-10.53433 26.60476,-9.99043c9.17105,0.5439 29.79121,19.32019 29.44141,24.30413z" fill="#ffffff" stroke="#334a0d" stroke-width="1.5" stroke-linecap="butt"/><path d="M236.13755,183.36629l-2.01464,-10.14529" fill="none" stroke="#334a0d" stroke-width="1.5" stroke-linecap="round"/><path d="M255.28679,173.51212l-2.30439,14.90206" fill="none" stroke="#334a0d" stroke-width="1.5" stroke-linecap="round"/><path d="M266.80191,191.74021l1.91358,-9.33392" fill="none" stroke="#334a0d" stroke-width="1.5" stroke-linecap="round"/><path d="M223.69932,181.279l29.60651,-3.44987l24.24983,16.09127" fill="none" stroke="#334a0d" stroke-width="1.5" stroke-linecap="round"/></g></g></svg>