<svg version="1.1" xmlns="http://www.w3.org/2000/svg" xmlns:xlink="http://www.w3.org/1999/xlink" width="17.84384" height="23.45713" viewBox="0,0,17.84384,23.45713"><g transform="translate(-230.7148,-168.50362)"><g data-paper-data="{&quot;isPaintingLayer&quot;:true}" fill-rule="nonzero" stroke-linejoin="miter" stroke-miterlimit="10" stroke-dasharray="" stroke-dashoffset="0" style="mix-blend-mode: normal"><path d="M247.38712,178.11358l0.88556,6.25218l-2.9368,0.14452l-0.23407,3.53333l-1.98462,-1.09214l-2.04432,3.22128l-1.57391,-2.00302l-2.94372,3.31992l-1.66337,-4.23542l-3.77195,-0.3855l2.63858,-4.68507l-2.40907,-2.53302l2.946,-1.47755l-0.33262,-6.06861l2.97119,1.38355l1.8929,-2.98267l0.97738,1.62442l2.86801,-3.20062l2.53065,4.45111l2.11083,-2.00755z" fill="#fff900" stroke="#000000" stroke-width="0.5" stroke-linecap="round"/><path d="M237.36108,184.15456c-2.15667,-1.36869 -2.76546,-4.27381 -1.35979,-6.48876c1.40568,-2.21496 4.29354,-2.90099 6.45021,-1.53232c2.15667,1.36869 2.76546,4.27381 1.35979,6.48876c-1.40568,2.21496 -4.29354,2.90099 -6.45021,1.53232z" fill="#ff9800" stroke="none" stroke-width="0" stroke-linecap="butt"/></g></g></svg>