<svg version="1.1" xmlns="http://www.w3.org/2000/svg" xmlns:xlink="http://www.w3.org/1999/xlink" width="63" height="40" viewBox="0,0,63,40"><g transform="translate(-208.5,-160)"><g data-paper-data="{&quot;isPaintingLayer&quot;:true}" fill-rule="nonzero" stroke-linecap="butt" stroke-linejoin="miter" stroke-miterlimit="10" stroke-dasharray="" stroke-dashoffset="0" style="mix-blend-mode: normal"><path d="M209.5,199v-38h61v38z" fill="#00ff15" stroke="#000000" stroke-width="2"/><path d="M245.14709,175.20382l-14.81518,18.71382l-0.81382,-30.88528z" fill="#cfffd3" stroke="none" stroke-width="0"/><path d="M268.0471,179.95382l-17.21519,16.06382l-2.66382,-34.23528z" fill="#cfffd3" stroke="none" stroke-width="0"/><path d="M241.27237,161.1c-0.98146,0.01023 -1.96306,-0.02649 -2.94306,-0.1h5.05845c-0.70008,0.05795 -1.40498,0.09259 -2.11539,0.1z" fill-opacity="0.65323" fill="#000000" stroke="none" stroke-width="0"/><path d="M209.5,199v-17.25111c3.53657,1.10009 7.73882,1.2145 11.18403,2.47651c3.63568,1.33178 7.50966,3.03588 11.37198,3.53854c4.04591,0.52656 7.77836,0.63277 11.99028,0.39949c7.71473,-0.42728 18.52006,-0.58303 26.45371,-4.28902v15.12559z" fill-opacity="0.43221" fill="#000000" stroke="none" stroke-width="0"/></g></g></svg>