<svg version="1.1" xmlns="http://www.w3.org/2000/svg" xmlns:xlink="http://www.w3.org/1999/xlink" width="145.02617" height="212.07111" viewBox="0,0,145.02617,212.07111"><defs><radialGradient cx="260.36013" cy="185.62613" r="39.00129" gradientUnits="userSpaceOnUse" id="color-1"><stop offset="0" stop-color="#4000bf"/><stop offset="1" stop-color="#38a000"/></radialGradient><linearGradient x1="260.36012" y1="152.29279" x2="260.36012" y2="218.95946" gradientUnits="userSpaceOnUse" id="color-2"><stop offset="0" stop-color="#797979"/><stop offset="1" stop-color="#bfbfbf"/></linearGradient><radialGradient cx="256.06694" cy="141.32784" r="16.33333" gradientUnits="userSpaceOnUse" id="color-3"><stop offset="0" stop-color="#b5b5b5"/><stop offset="1" stop-color="#c9c9c9"/></radialGradient><radialGradient cx="241.01332" cy="127.91966" r="9.88289" gradientUnits="userSpaceOnUse" id="color-4"><stop offset="0" stop-color="#bc1818"/><stop offset="1" stop-color="#9b18bc"/></radialGradient><radialGradient cx="237.81102" cy="118.89359" r="7.46965" gradientUnits="userSpaceOnUse" id="color-5"><stop offset="0" stop-color="#bc1818"/><stop offset="1" stop-color="#9b18bc"/></radialGradient><radialGradient cx="204.7889" cy="117.96927" r="10.47714" gradientUnits="userSpaceOnUse" id="color-6"><stop offset="0" stop-color="#569ffe"/><stop offset="1" stop-color="#bfebf3"/></radialGradient><linearGradient x1="207.46702" y1="105.68672" x2="234.95309" y2="127.48358" gradientUnits="userSpaceOnUse" id="color-7"><stop offset="0" stop-color="#070707"/><stop offset="1" stop-color="#ff0000"/></linearGradient><linearGradient x1="207.55487" y1="106.44781" x2="235.04096" y2="128.24468" gradientUnits="userSpaceOnUse" id="color-8"><stop offset="0" stop-color="#070707"/><stop offset="1" stop-color="#ff0000"/></linearGradient><linearGradient x1="207.88216" y1="105.94262" x2="235.36825" y2="127.73949" gradientUnits="userSpaceOnUse" id="color-9"><stop offset="0" stop-color="#070707"/><stop offset="1" stop-color="#ff0000"/></linearGradient><linearGradient x1="207.63532" y1="105.47448" x2="235.12141" y2="127.27135" gradientUnits="userSpaceOnUse" id="color-10"><stop offset="0" stop-color="#ff0000" stop-opacity="0"/><stop offset="1" stop-color="#ff0000"/></linearGradient><linearGradient x1="207.18326" y1="105.73408" x2="234.66934" y2="127.53096" gradientUnits="userSpaceOnUse" id="color-11"><stop offset="0" stop-color="#ff0000" stop-opacity="0"/><stop offset="1" stop-color="#ff0000"/></linearGradient><linearGradient x1="207.28939" y1="105.81824" x2="234.77548" y2="127.61511" gradientUnits="userSpaceOnUse" id="color-12"><stop offset="0" stop-color="#ff0000" stop-opacity="0"/><stop offset="1" stop-color="#ff0000"/></linearGradient></defs><g transform="translate(-158.73549,-59.97273)"><g data-paper-data="{&quot;isPaintingLayer&quot;:true}" fill-rule="nonzero" stroke-linejoin="miter" stroke-miterlimit="10" stroke-dasharray="" stroke-dashoffset="0" style="mix-blend-mode: normal"><g data-paper-data="{&quot;index&quot;:null}"><path d="M292.73507,214.26805c0,0 0.43453,2.60925 0.89781,6.40725c0.45731,3.74901 -0.56151,8.88012 -0.43845,13.57945c0.11006,4.20318 0.22161,8.83029 0.33452,11.14474c0.21116,4.32858 1.21258,9.9976 1.21258,9.9976l-16.23061,2.62292c0,0 0.48578,-2.31806 -0.7033,-5.01398c-1.90087,-4.30969 -5.86187,-10.30314 -6.19465,-14.74959c-0.10981,-1.4673 -0.03104,-3.26004 0.15911,-5.22139c0.31483,-3.24754 0.93499,-6.95729 1.50993,-10.41713c0.83103,-5.00094 1.90734,-8.98011 1.90734,-8.98011" fill="#7f7f7f" stroke="#e3efff" stroke-width="1.5" stroke-linecap="round"/><g stroke="#0f0f0f" stroke-linecap="butt"><path d="M259.9457,270.53147c0,0 -3.5771,-4.09615 -4.45487,-6.1434c-0.93025,-2.16968 5.68887,-9.47377 5.68887,-9.47377l25.49803,-0.78682l1.09578,11.44768z" data-paper-data="{&quot;index&quot;:null}" fill="#000b20" stroke-width="0"/><path d="M261.69325,268.7823c-0.40679,-2.85495 -0.98978,-6.94637 -1.26956,-8.91001c-0.14426,-1.01246 0.91482,-4.92833 2.54746,-5.16096c3.93517,-0.56071 20.99865,-2.99204 28.95752,-4.12608c2.56302,-0.3652 4.20161,1.30434 4.37357,2.65521c0.36846,2.89463 1.70173,13.39832 1.70173,13.39832c0,0 -27.4676,3.91378 -32.67002,4.65506c-1.63264,0.23263 -3.41385,-0.91959 -3.64068,-2.51155z" data-paper-data="{&quot;index&quot;:null}" fill="#3b3b3b" stroke-width="1.5"/></g></g><g><path d="M249.13698,214.83021c0,0 0.12711,3.88851 0.23503,7.19032c0.06165,1.88603 -2.12706,4.93387 -2.00294,8.73107c0.0518,1.58477 0.81894,2.9203 0.87489,4.63205c0.16899,5.17 1.93083,11.19645 2.06499,15.30102c0.1274,3.8977 0.21448,6.56181 0.21448,6.56181l-18.21432,-4.47786c0,0 -2.33083,-13.04642 -2.00191,-19.05091c0.2984,-5.4471 3.89281,-15.46701 3.89281,-15.46701" fill="#7f7f7f" stroke="#e3efff" stroke-width="1.5" stroke-linecap="round"/><g stroke="#0f0f0f" stroke-linecap="butt"><path d="M220.15696,265.09795c0,0 -2.75886,-4.68646 -3.24332,-6.86062c-0.51343,-2.30418 7.34107,-8.25979 7.34107,-8.25979l25.20453,3.93702l-1.03783,11.45308z" fill="#000b20" stroke-width="0"/><path d="M221.18982,263.57842c0.12761,-2.88096 0.31048,-7.00967 0.39825,-8.99119c0.04525,-1.02168 1.80949,-4.67451 3.457,-4.60153c3.97102,0.17589 21.18997,0.93858 29.22135,1.29432c2.58637,0.11456 3.88835,2.05805 3.80779,3.41744c-0.17261,2.91288 -0.80266,13.48209 -0.80266,13.48209c0,0 -27.71785,-1.22772 -32.96767,-1.46026c-1.64751,-0.07298 -3.18522,-1.53441 -3.11407,-3.14087z" fill="#3b3b3b" stroke-width="1.5"/></g></g><g><g stroke-linecap="butt"><g><g><path d="M160.76751,180.07081c0,0 19.4765,-33.53077 26.7446,-45.32421c4.7646,-7.73118 15.4748,-22.64411 15.4748,-22.64411l9.87057,6.98665l-40.35793,68.21193z" fill="#c70303" stroke="#9966ff" stroke-width="1"/><path d="M198.4116,118.33969c0.03852,-0.03582 0.07747,-0.07104 0.11686,-0.10573l-0.02515,-0.02071l1.29758,-1.57624c0.4479,-0.54408 1.25205,-0.62206 1.79614,-0.17416c0.43043,0.35435 0.56916,0.93165 0.38655,1.42678l-0.46134,1.34704l-0.04006,-0.01373l0.00281,0.10968c-1.22485,2.28027 -1.95085,4.74342 -3.1386,7.07495c-4.23644,6.50802 -8.63599,12.91218 -12.84747,19.4478c-3.03763,6.19915 -6.91053,12.31908 -11.03649,17.35581c0,0 -0.81098,0.98516 -1.79613,0.17417c-0.98516,-0.81098 -0.17417,-1.79614 -0.17417,-1.79614c0.69159,-0.83545 -0.35243,-2.0166 0.31251,-2.90607c-0.03548,-0.21572 0.78764,-0.88033 0.86487,-1.08975l0.98674,-0.91453c0.31081,-0.90753 1.01581,-1.49066 1.32685,-2.39812c0.90244,-2.99034 3.36892,-5.10073 4.95895,-7.75356c3.79599,-6.3333 6.82751,-14.84129 12.55299,-19.89851c0.05485,-0.09436 0.10953,-0.18865 0.16407,-0.28288l-0.18359,-0.15113l1.18946,-1.4449c0.15253,-0.18527 0.34633,-0.31647 0.55711,-0.39129c0.99172,-1.94536 1.86766,-4.78977 3.1895,-6.01876z" fill="#870303" stroke="none" stroke-width="0.5"/><path d="M201.99092,125.82217c-0.39406,-0.32439 -0.06966,-0.71846 -0.06966,-0.71846l0.1622,-0.19703c0.94939,-1.07497 0.85578,-2.64571 1.80704,-3.80126c0,0 0.3244,-0.39407 0.71846,-0.06967c0.39406,0.32439 0.06967,0.71844 0.06967,0.71844c-0.93541,1.1363 -0.8929,2.64028 -1.80704,3.80131l-0.1622,0.19704c0,0 -0.3244,0.39405 -0.71847,0.06967z" fill="#0554ff" stroke="none" stroke-width="0.5"/><path d="M200.40739,137.34043c-0.49752,-0.11393 -0.38361,-0.61145 -0.38361,-0.61145l0.11688,-0.39307c-0.52997,-1.06614 -1.51905,-1.14183 -0.45427,-2.49419c0,0 0.3244,-0.39405 0.71845,-0.06966c0.39405,0.3244 0.06966,0.71845 0.06966,0.71845c-0.60344,0.68327 0.30763,0.86989 0.6822,1.74688l-0.13786,0.71945c0,0 -0.11393,0.49753 -0.61145,0.38361z" fill="#0554ff" stroke="none" stroke-width="0.5"/><path d="M192.0641,144.39033c0.11393,-0.49752 0.61147,-0.38362 0.61147,-0.38362l0.27767,0.14178c0.34536,-0.85557 0.66325,-0.78616 1.48363,-0.67517c0,0 0.49755,0.11393 0.38362,0.61146c-0.11393,0.49752 -0.61146,0.3836 -0.61146,0.3836c-0.42758,-0.21833 -0.5238,0.24444 -0.92646,0.64635l-0.83485,-0.11295c0,0 -0.49752,-0.11393 -0.38362,-0.61144z" fill="#9b7137" stroke="none" stroke-width="0.5"/><path d="M183.53361,155.51352c-0.20738,-0.46637 0.259,-0.67375 0.259,-0.67375l0.52142,-0.23186c1.0347,-0.45809 1.67174,-0.50937 2.38561,-1.37657c0,0 0.3244,-0.39407 0.71847,-0.06969c0.39405,0.3244 0.06966,0.71846 0.06966,0.71846c-0.83203,1.01071 -1.59009,1.1382 -2.75897,1.66054l-0.52143,0.23187c0,0 -0.46637,0.20738 -0.67377,-0.25899z" fill="#0554ff" stroke="none" stroke-width="0.5"/><path d="M184.47677,163.96246c-0.39406,-0.32439 -0.06967,-0.71844 -0.06967,-0.71844c0.64879,-0.78813 1.45978,-1.77327 2.10857,-2.56141c0,0 0.3244,-0.39405 0.71846,-0.06966c0.39405,0.32438 0.06967,0.71847 0.06967,0.71847c-0.64881,0.78814 -1.29758,1.57624 -1.94637,2.36437l-0.1622,0.19703c0,0 -0.32438,0.39405 -0.71845,0.06966z" fill="#0554ff" stroke="none" stroke-width="0.5"/><path d="M180.20603,161.52108c0.05797,0.13035 0.0754,0.30997 -0.08681,0.507c-0.32439,0.39406 -0.71846,0.06966 -0.71846,0.06966l-0.2667,-0.88065c0.3244,-0.39405 0.6488,-0.78811 0.97319,-1.18218c0,0 0.32441,-0.39406 0.71846,-0.06966c0.39405,0.32438 0.06967,0.71847 0.06967,0.71847c-0.22978,0.27913 -0.45957,0.55825 -0.68935,0.83738z" fill="#0554ff" stroke="none" stroke-width="0.5"/><path d="M190.92878,150.10169c0.1622,-0.19704 0.34181,-0.21445 0.48087,-0.18261c0.01352,-0.01643 0.02704,-0.03284 0.04055,-0.04925c0,0 0.32438,-0.39405 0.71846,-0.06966c0.39406,0.32439 0.06967,0.71844 0.06967,0.71844c-0.10812,0.13135 -0.21628,0.26271 -0.3244,0.39405l-0.91549,-0.09254c0,0 -0.39406,-0.32439 -0.06967,-0.71846z" fill="#9b7137" stroke="none" stroke-width="0.5"/><path d="M192.30947,149.18518c-0.49752,-0.11393 -0.38361,-0.61145 -0.38361,-0.61145l0.11687,-0.39307c-0.14706,-0.40959 -0.03604,-0.9278 0.2065,-1.28916c0,0 0.32439,-0.39406 0.71844,-0.06967c0.39406,0.32439 0.06968,0.71845 0.06968,0.71845c-0.15149,0.0986 -0.06931,0.38551 0.02143,0.54185l-0.13785,0.71944c0,0 -0.11392,0.49756 -0.61146,0.38362z" fill="#9b7137" stroke="none" stroke-width="0.5"/><path d="M192.95463,139.20834c-0.39405,-0.32438 -0.06966,-0.71845 -0.06966,-0.71845c0.75693,-0.91948 1.83824,-2.23302 2.59517,-3.1525c0,0 0.3244,-0.39405 0.71844,-0.06967c0.39405,0.32438 0.06966,0.71845 0.06966,0.71845c-0.75692,0.91948 -1.51385,1.83896 -2.27076,2.75844l-0.3244,0.39405c0,0 -0.3244,0.39407 -0.71846,0.06967z" fill="#0554ff" stroke="none" stroke-width="0.5"/><path d="M204.97175,130.06572c-0.04451,-0.45896 0.36583,-0.54349 0.44551,-0.55555c0.20686,-1.04202 0.34614,-2.21194 0.9889,-3.02831c0,0 0.3244,-0.39407 0.71847,-0.06969c0.39405,0.3244 0.06966,0.71846 0.06966,0.71846c-0.60699,0.68727 -0.65351,2.07295 -0.85774,2.96489l-0.80751,0.42896c0,0 -0.50802,0.04927 -0.55728,-0.45877z" fill="#9b7137" stroke="none" stroke-width="0.5"/><path d="M197.44936,131.33907c-0.39406,-0.32439 -0.06966,-0.71846 -0.06966,-0.71846c0.3244,-0.39405 0.81099,-0.98515 1.13539,-1.37922c0,0 0.3244,-0.39405 0.71847,-0.06967c0.39406,0.32439 0.06967,0.71844 0.06967,0.71844c-0.32438,0.39405 -0.64881,0.78813 -0.97319,1.18218l-0.16219,0.19703c0,0 -0.32441,0.39406 -0.71848,0.06967z" fill="#9b7137" stroke="none" stroke-width="0.5"/><path d="M205.51353,124.75539c-0.39405,-0.32438 -0.06967,-0.71846 -0.06967,-0.71846l0.3244,-0.39407c0.31316,-0.38042 0.63696,-0.40525 0.34461,-0.77775c0,0 -0.20738,-0.46637 0.25899,-0.67376c0.46639,-0.20739 0.67377,0.25899 0.67377,0.25899c0.33784,0.99342 0.13822,1.07911 -0.48924,1.84133l-0.32439,0.39406c0,0 -0.3244,0.39405 -0.71847,0.06967z" fill="#0554ff" stroke="none" stroke-width="0.5"/><path d="M202.58307,131.92906c-0.39405,-0.32438 -0.06965,-0.71845 -0.06965,-0.71845l0.1622,-0.19703c0.18044,-0.20431 0.29548,-0.47245 0.34828,-0.73986c0,0 0.11393,-0.49752 0.61146,-0.3836c0.49752,0.11393 0.38363,0.61144 0.38363,0.61144c-0.10401,0.41612 -0.28989,0.82381 -0.55523,1.1608l-0.1622,0.19703c0,0 -0.3244,0.39405 -0.71847,0.06967z" fill="#4f340e" stroke="none" stroke-width="0.5"/><path d="M196.94243,137.00863c-0.04927,-0.50803 0.45876,-0.55729 0.45876,-0.55729l0.01443,0.14879c0.24639,-0.29929 0.54796,-0.85439 0.8897,-0.92754c-0.18111,-0.14238 -0.36474,-0.29309 -0.47277,-0.38201c0,0 -0.39406,-0.32439 -0.06967,-0.71844c0.32439,-0.39406 0.71844,-0.06967 0.71844,-0.06967c1.93737,1.59486 0.49188,1.81172 -0.27759,2.74646l-0.70403,0.21848c0,0 -0.50805,0.04927 -0.55729,-0.45876z" fill="#0554ff" stroke="none" stroke-width="0.5"/><path d="M190.43016,144.36747c0.11393,-0.49752 0.61146,-0.38362 0.61146,-0.38362l0.17108,0.19255c0.0167,-1.64288 2.37359,-0.15085 1.01258,-1.27124c0,0 -0.39405,-0.3244 -0.06965,-0.71847c0.32439,-0.39406 0.71844,-0.06967 0.71844,-0.06967c2.2167,1.82479 -0.6562,1.6957 -1.11886,2.92411l-0.94143,-0.06219c0,0 -0.49753,-0.11393 -0.38361,-0.61145z" fill="#4f340e" stroke="none" stroke-width="0.5"/><path d="M185.15932,157.91328c-0.39405,-0.32438 -0.06968,-0.71846 -0.06968,-0.71846l0.21271,-0.13845c-1.59157,-2.02796 0.60562,-2.67553 2.313,-2.60845c0,0 0.50988,0.02308 0.48681,0.53296c-0.02308,0.50988 -0.53297,0.4868 -0.53297,0.4868c-2.0714,-0.10833 -1.81013,0.09488 -1.25534,1.72625l-0.43609,0.64968c0,0 -0.32439,0.39406 -0.71846,0.06968z" fill="#0554ff" stroke="none" stroke-width="0.5"/><path d="M182.94558,163.68233c-1.7807,-1.63948 1.27335,-1.25001 1.18387,-2.024c0,0 0.11392,-0.49754 0.61144,-0.38362c0.49752,0.11393 0.38362,0.61146 0.38362,0.61146c-0.58387,1.67453 -1.99102,0.63568 -1.47574,1.06432c0.00332,0.00254 0.00502,0.00393 0.00502,0.00393l-0.00008,0.00017c0.0486,0.04035 0.11359,0.09328 0.19712,0.16203l-0.4229,0.31296l-0.22588,0.47516c-0.0694,-0.05714 -0.1337,-0.11212 -0.19314,-0.16508l-0.0039,0.00289c0,0 -0.02616,-0.02153 -0.05943,-0.06023z" fill="#0554ff" stroke="none" stroke-width="0.5"/><path d="M185.8299,149.8709c-0.39406,-0.32439 -0.06966,-0.71846 -0.06966,-0.71846l0.05874,0.01345c0.37213,-0.72883 -0.96936,-1.82515 1.02837,-1.69317c0,0 0.49753,0.11393 0.38362,0.61144c-0.09305,0.4064 -0.44203,0.40485 -0.56677,0.39063c0.09742,0.15488 0.2118,0.46109 0.14985,0.91891l-0.26567,0.40752c0,0 -0.3244,0.39405 -0.71847,0.06967z" fill="#0554ff" stroke="none" stroke-width="0.5"/><path d="M197.63857,143.27763c-0.22467,-0.50525 0.28057,-0.72992 0.28057,-0.72992l0.45482,-0.18604c0.51263,-0.62272 0.7912,-0.43068 1.04861,-1.25245c0,0 0.19838,-0.51612 0.71452,-0.31772c0.51613,0.1984 0.31771,0.71452 0.31771,0.71452c-0.48339,1.12532 -0.7393,0.91946 -1.41137,1.73587l-0.67494,0.31633c0,0 -0.50526,0.22466 -0.72992,-0.28057z" fill="#4f340e" stroke="none" stroke-width="0.5"/><path d="M200.44949,124.88383c-0.39406,-0.32439 -0.06967,-0.71847 -0.06967,-0.71847l0.1622,-0.19704c0.44309,-0.53827 0.69816,-1.42119 0.40231,-2.05249c0,0 -0.2074,-0.46637 0.25897,-0.67375c0.46639,-0.20739 0.67377,0.25898 0.67377,0.25898c0.61818,1.51117 0.55188,1.78127 -0.54694,3.11606l-0.16219,0.19704c0,0 -0.32442,0.39406 -0.71846,0.06966z" fill="#4f340e" stroke="none" stroke-width="0.5"/></g><g><g><path d="M179.00816,130.92878l4.69384,-5.70189c0,0 8.17416,10.07711 13.30001,14.29675c5.28966,4.35451 17.96204,11.43842 17.96204,11.43842l-4.69383,5.70188z" fill="#ff0000" stroke="none" stroke-width="0"/><g data-paper-data="{&quot;index&quot;:null}"><path d="M180.01445,129.79876c0,0 7.37545,8.17677 15.58696,14.50662c5.38305,4.14953 16.17682,9.97273 16.17682,9.97273l-6.29689,8.16875l-31.70621,-25.75138z" fill="#c70303" stroke="#9966ff" stroke-width="1"/><path d="M204.46831,154.91074c0.27219,-0.26801 0.54022,0.00417 0.54022,0.00417l0.13401,0.1361c0.72609,0.79052 1.90259,0.84334 2.68854,1.64156c0,0 0.26803,0.27222 -0.00416,0.54023c-0.27219,0.26801 -0.54023,-0.00418 -0.54023,-0.00418c-0.77284,-0.7849 -1.89564,-0.87055 -2.68853,-1.64154l-0.134,-0.13609c0,0 -0.26803,-0.27221 0.00417,-0.54021z" fill="#0554ff" stroke="none" stroke-width="0.5"/><path d="M196.01827,152.83366c0.12361,-0.36146 0.48506,-0.23784 0.48506,-0.23784l0.28347,0.11765c0.8349,-0.31133 0.96839,-1.04164 1.89197,-0.14359c0,0 0.26802,0.27221 -0.00417,0.54022c-0.27219,0.26801 -0.54022,-0.00418 -0.54022,-0.00418c-0.46151,-0.50247 -0.6715,0.16113 -1.35351,0.37154l-0.52477,-0.15873c0,0 -0.36144,-0.12361 -0.23784,-0.48506z" fill="#0554ff" stroke="none" stroke-width="0.5"/><path d="M191.42145,146.07351c0.36146,0.12361 0.23784,0.48506 0.23784,0.48506l-0.12719,0.19564c0.60991,0.3238 0.53344,0.555 0.38685,1.157c0,0 -0.1236,0.36144 -0.48506,0.23784c-0.36145,-0.1236 -0.23784,-0.48505 -0.23784,-0.48505c0.19585,-0.30125 -0.1411,-0.40898 -0.40884,-0.74002l0.14918,-0.6126c0,0 0.1236,-0.36145 0.48507,-0.23784z" fill="#0554ff" stroke="none" stroke-width="0.5"/><path d="M183.8073,138.8563c0.36332,-0.118 0.48131,0.24531 0.48131,0.24531l0.13192,0.40619c0.26027,0.80589 0.24878,1.28409 0.83858,1.88309c0,0 0.26801,0.2722 -0.00417,0.54022c-0.27219,0.26801 -0.54023,-0.00418 -0.54023,-0.00418c-0.6874,-0.69814 -0.72318,-1.27235 -1.0208,-2.18316l-0.13192,-0.4062c0,0 -0.118,-0.36332 0.24533,-0.48131z" fill="#0554ff" stroke="none" stroke-width="0.5"/><path d="M177.44481,138.89932c0.27219,-0.26801 0.5402,0.00418 0.5402,0.00418c0.53602,0.54439 1.20607,1.22489 1.74212,1.76929c0,0 0.268,0.27221 -0.00418,0.54023c-0.27219,0.26801 -0.54022,-0.00418 -0.54022,-0.00418c-0.53602,-0.54439 -1.07208,-1.08878 -1.60809,-1.63318l-0.134,-0.13611c0,0 -0.268,-0.2722 0.00419,-0.54021z" fill="#0554ff" stroke="none" stroke-width="0.5"/><path d="M179.59514,135.91084c-0.10155,0.03297 -0.23659,0.03194 -0.37061,-0.10416c-0.26801,-0.27219 0.00417,-0.54022 0.00417,-0.54022l0.67631,-0.12983c0.26801,0.27219 0.53603,0.54441 0.80405,0.8166c0,0 0.26802,0.27219 -0.00418,0.54021c-0.27219,0.26801 -0.54021,-0.00419 -0.54021,-0.00419c-0.18985,-0.19281 -0.37969,-0.38561 -0.56953,-0.57841z" fill="#0554ff" stroke="none" stroke-width="0.5"/><path d="M187.25879,144.78295c0.13401,0.1361 0.13296,0.27117 0.09842,0.37219c0.01117,0.01133 0.02232,0.02269 0.03348,0.03401c0,0 0.26802,0.27221 -0.00418,0.54022c-0.27219,0.26801 -0.54022,-0.00418 -0.54022,-0.00418c-0.08934,-0.09074 -0.17866,-0.18147 -0.26801,-0.2722l0.14027,-0.67422c0,0 0.27221,-0.268 0.54023,0.00419z" fill="#0554ff" stroke="none" stroke-width="0.5"/><path d="M187.8333,145.88215c0.12361,-0.36146 0.48506,-0.23784 0.48506,-0.23784l0.28347,0.11765c0.31635,-0.07752 0.69344,0.04553 0.94347,0.25425c0,0 0.268,0.27221 -0.00418,0.54023c-0.27219,0.26801 -0.54021,-0.00419 -0.54021,-0.00419c-0.06157,-0.12045 -0.28153,-0.08165 -0.40499,-0.02631l-0.52477,-0.15872c0,0 -0.36146,-0.12361 -0.23785,-0.48506z" fill="#0554ff" stroke="none" stroke-width="0.5"/><path d="M195.2092,147.14054c0.27219,-0.26801 0.5402,0.00418 0.5402,0.00418c0.62538,0.63513 1.51876,1.54244 2.14414,2.17759c0,0 0.26802,0.27221 -0.00417,0.54022c-0.27219,0.26801 -0.54022,-0.00417 -0.54022,-0.00417c-0.62538,-0.63513 -1.25075,-1.27026 -1.87612,-1.90539l-0.26803,-0.27219c0,0 -0.268,-0.27221 0.00419,-0.54023z" fill="#0554ff" stroke="none" stroke-width="0.5"/><path d="M201.07715,156.79852c0.34512,0.00268 0.37601,0.3147 0.37876,0.37496c0.7595,0.23523 1.61947,0.43018 2.17699,0.97229c0,0 0.26801,0.2722 -0.00418,0.54023c-0.27219,0.26801 -0.54022,-0.00418 -0.54022,-0.00418c-0.46421,-0.50541 -1.49201,-0.64813 -2.13999,-0.86972l-0.2563,-0.63452c0,0 0.00295,-0.38199 0.38495,-0.37904z" fill="#0554ff" stroke="none" stroke-width="0.5"/><path d="M200.71607,151.09994c0.27219,-0.26801 0.54022,0.00417 0.54022,0.00417c0.26801,0.27219 0.67003,0.68051 0.93806,0.9527c0,0 0.26801,0.27219 -0.00419,0.54021c-0.27219,0.26801 -0.54021,-0.00417 -0.54021,-0.00417c-0.26801,-0.27219 -0.53604,-0.5444 -0.80406,-0.81659l-0.13401,-0.13608c0,0 -0.26801,-0.2722 0.00417,-0.54022z" fill="#0554ff" stroke="none" stroke-width="0.5"/><path d="M204.98763,157.61601c0.27219,-0.26801 0.54021,0.00419 0.54021,0.00419l0.26801,0.27219c0.25873,0.26278 0.25199,0.50574 0.55204,0.31718c0,0 0.36334,-0.11799 0.48132,0.24533c0.118,0.36332 -0.24532,0.48131 -0.24532,0.48131c-0.76581,0.17399 -0.81402,0.01873 -1.33243,-0.50777l-0.26803,-0.2722c0,0 -0.268,-0.2722 0.00419,-0.54021z" fill="#0554ff" stroke="none" stroke-width="0.5"/><path d="M199.87648,154.87522c0.27219,-0.26801 0.54022,0.00417 0.54022,0.00417l0.13401,0.1361c0.13798,0.15024 0.3286,0.25679 0.52354,0.31696c0,0 0.36144,0.1236 0.23784,0.48507c-0.12361,0.36146 -0.48506,0.23784 -0.48506,0.23784c-0.3016,-0.10987 -0.59058,-0.28004 -0.82074,-0.50383l-0.134,-0.13611c0,0 -0.26801,-0.2722 0.00417,-0.54022z" fill="#0554ff" stroke="none" stroke-width="0.5"/><path d="M196.53551,150.28041c0.38198,0.00296 0.37905,0.38494 0.37905,0.38494l-0.11189,-0.00087c0.20356,0.20673 0.59324,0.47452 0.62102,0.73459c0.12011,-0.1237 0.24659,-0.24865 0.32122,-0.3221c0,0 0.27222,-0.26802 0.54023,0.00416c0.26801,0.27219 -0.00419,0.54022 -0.00419,0.54022c-1.33824,1.31768 -1.38692,0.22483 -2.02266,-0.42085l-0.10769,-0.54107c0,0 0.00296,-0.382 0.38495,-0.37903z" fill="#0554ff" stroke="none" stroke-width="0.5"/><path d="M191.56592,144.85906c0.36146,0.12361 0.23785,0.48506 0.23785,0.48506l-0.15667,0.11233c1.22157,0.14057 -0.07285,1.77855 0.86728,0.85287c0,0 0.2722,-0.26801 0.54022,0.00417c0.26801,0.27219 -0.00419,0.54022 -0.00419,0.54022c-1.53118,1.50765 -1.21099,-0.6207 -2.08926,-1.06089l0.11973,-0.69591c0,0 0.12359,-0.36145 0.48505,-0.23785z" fill="#0554ff" stroke="none" stroke-width="0.5"/><path d="M181.89425,139.8792c0.27219,-0.26801 0.54023,0.00419 0.54023,0.00419l0.08645,0.16913c1.63362,-1.02652 1.94428,0.65947 1.7612,1.92514c0,0 -0.05695,0.37772 -0.43469,0.32078c-0.37774,-0.05694 -0.32078,-0.43469 -0.32078,-0.43469c0.24222,-1.5334 0.07057,-1.35476 -1.18701,-1.06905l-0.44957,-0.37528c0,0 -0.26801,-0.27219 0.00418,-0.5402z" fill="#0554ff" stroke="none" stroke-width="0.5"/><path d="M177.77275,137.78144c1.35923,-1.19758 0.83112,1.0453 1.41421,1.03909c0,0 0.36145,0.1236 0.23784,0.48505c-0.12361,0.36146 -0.48505,0.23786 -0.48505,0.23786c-1.2009,-0.5652 -0.31787,-1.5316 -0.67713,-1.18149c-0.00215,0.00227 -0.00332,0.00344 -0.00332,0.00344l-0.00012,-0.00008c-0.03383,0.03303 -0.07828,0.07727 -0.13598,0.13407l-0.19996,-0.33919l-0.33607,-0.20519c0.04795,-0.04721 0.09389,-0.09076 0.13795,-0.13089l-0.00186,-0.00313c0,0 0.01806,-0.01778 0.04947,-0.03955z" fill="#0554ff" stroke="none" stroke-width="0.5"/><path d="M187.82827,141.00564c0.27219,-0.26801 0.54021,0.00417 0.54021,0.00417l-0.01459,0.04267c0.51347,0.33385 1.43414,-0.57917 1.18008,0.89751c0,0 -0.1236,0.36145 -0.48505,0.23785c-0.29523,-0.10096 -0.26686,-0.36061 -0.24656,-0.45234c-0.12287,0.06042 -0.35972,0.12167 -0.69569,0.03987l-0.28261,-0.22953c0,0 -0.26801,-0.2722 0.00419,-0.54021z" fill="#0554ff" stroke="none" stroke-width="0.5"/><path d="M191.81489,150.3096c0.39359,-0.12782 0.52142,0.26578 0.52142,0.26578l0.10301,0.35306c0.42354,0.43015 0.25887,0.62253 0.85047,0.87821c0,0 0.36871,0.18793 0.18078,0.55662c-0.18793,0.36871 -0.55664,0.18078 -0.55664,0.18078c-0.79992,-0.44759 -0.62672,-0.62202 -1.18198,-1.18595l-0.18281,-0.52708c0,0 -0.12782,-0.39359 0.26577,-0.52144z" fill="#0554ff" stroke="none" stroke-width="0.5"/><path d="M205.28701,153.83657c0.27219,-0.26801 0.54022,0.00418 0.54022,0.00418l0.134,0.13611c0.36609,0.37179 1.00341,0.63053 1.49639,0.45954c0,0 0.36332,-0.118 0.48131,0.24533c0.118,0.36332 -0.24533,0.48131 -0.24533,0.48131c-1.17304,0.34228 -1.36893,0.27184 -2.27675,-0.65015l-0.13401,-0.1361c0,0 -0.26801,-0.2722 0.00418,-0.54022z" fill="#0554ff" stroke="none" stroke-width="0.5"/></g></g><g fill="#a8a8a8" stroke="#6b6b6b" stroke-width="1"><path d="M191.97085,131.55743c-0.27313,0.3318 -1.22784,-0.00287 -2.1324,-0.74752c-0.90456,-0.74464 -1.41644,-1.61727 -1.14329,-1.94907c0.27313,-0.3318 1.22785,0.00288 2.13241,0.74752c0.90455,0.74464 1.41643,1.61726 1.14328,1.94906z"/><path d="M192.33258,133.41287c-0.29798,0.36196 -1.63945,-0.25009 -2.9963,-1.36706c-1.35685,-1.11695 -2.21522,-2.31587 -1.91726,-2.67781c0.29797,-0.36197 1.63946,0.25009 2.9963,1.36703c1.35685,1.11695 2.21521,2.31587 1.91725,2.67782z"/><path d="M191.57306,135.16993c-0.29798,0.36196 -1.8457,-0.41985 -3.45693,-1.74624c-1.61125,-1.32639 -2.67587,-2.69506 -2.37789,-3.05702c0.29797,-0.36197 1.84568,0.41985 3.45693,1.74625c1.61124,1.32639 2.67587,2.69507 2.3779,3.05702z"/><path d="M191.19813,136.87711c-0.34764,0.42229 -2.07309,-0.42381 -3.85395,-1.88983c-1.78086,-1.46601 -2.94269,-2.99678 -2.59507,-3.41906c0.34764,-0.42229 2.07309,0.42381 3.85395,1.88983c1.78086,1.46601 2.94272,2.99678 2.59507,3.41906z"/></g><g fill="#a8a8a8" stroke="#6b6b6b" stroke-width="1"><path d="M210.84607,147.09566c-0.27314,0.33179 -1.22785,-0.00288 -2.13241,-0.74752c-0.90455,-0.74464 -1.41643,-1.61726 -1.14328,-1.94906c0.27314,-0.33179 1.22785,0.0029 2.1324,0.74753c0.90455,0.74465 1.41643,1.61726 1.14329,1.94905z"/><path d="M211.20776,148.95108c-0.29797,0.36197 -1.63945,-0.25009 -2.9963,-1.36706c-1.35685,-1.11695 -2.21522,-2.31587 -1.91726,-2.67781c0.29797,-0.36197 1.63945,0.25009 2.9963,1.36706c1.35685,1.11695 2.21522,2.31585 1.91726,2.67781z"/><path d="M210.44825,150.70814c-0.29797,0.36197 -1.84569,-0.41986 -3.45694,-1.74626c-1.61124,-1.32638 -2.67587,-2.69507 -2.3779,-3.05702c0.29797,-0.36197 1.84569,0.41986 3.45694,1.74625c1.61125,1.32639 2.67588,2.69506 2.3779,3.05702z"/><path d="M210.07333,152.41532c-0.34764,0.42229 -2.07309,-0.42382 -3.85395,-1.88983c-1.78086,-1.46601 -2.94269,-2.99678 -2.59507,-3.41906c0.34764,-0.42229 2.07309,0.42381 3.85394,1.88982c1.78086,1.46601 2.94272,2.99678 2.59507,3.41906z"/></g></g><g><path d="M187.09921,116.76022l3.45928,-5.86673c0,0 8.8901,8.00925 14.16415,11.11906c5.44261,3.20919 18.00175,7.84735 18.00175,7.84735l-3.45929,5.86673z" data-paper-data="{&quot;index&quot;:null}" fill="#ff0000" stroke="none" stroke-width="0"/><g data-paper-data="{&quot;index&quot;:null}"><path d="M215.72374,141.6928l-32.32012,-19.34616l5.09088,-8.03433c0,0 8.45234,7.51497 13.7468,10.86977c8.07638,5.11754 17.48927,8.92776 17.48927,8.92776z" fill="#c70303" stroke="#9966ff" stroke-width="1"/><path d="M189.78658,121.02009l-0.16022,-0.07317c-0.91829,-0.44372 -1.34688,-1.38958 -2.2709,-1.81153c0,0 -0.32044,-0.14633 -0.1741,-0.46679c0.14633,-0.32044 0.46679,-0.1741 0.46679,-0.1741c0.9397,0.4291 1.35677,1.43186 2.27091,1.81153l0.16023,0.07316c0,0 0.32044,0.14633 0.1741,0.46676c-0.14633,0.32044 -0.46679,0.1741 -0.46679,0.1741z" fill="#0554ff" stroke="none" stroke-width="0.5"/><path d="M194.22466,127.4594l-0.30315,-0.40462c-0.03292,-0.65736 0.47581,-1.04874 -0.10522,-1.29007c0,0 -0.32044,-0.14634 -0.1741,-0.46679c0.14633,-0.32044 0.46677,-0.17412 0.46677,-0.17412c1.06964,0.51685 0.47897,0.863 0.4727,1.68472l0.19141,0.2085c0,0 0.22119,0.27417 -0.05302,0.49537c-0.2742,0.22118 -0.49537,-0.053 -0.49537,-0.053z" fill="#0554ff" stroke="none" stroke-width="0.5"/><path d="M201.97547,129.85737l-0.48373,0.32262c-0.37137,-0.12753 -0.57106,-0.38549 -0.77026,-0.12072c0,0 -0.27417,0.22119 -0.49536,-0.05301c-0.22118,-0.2742 0.05301,-0.49537 0.05301,-0.49537c0.47536,-0.31701 0.65157,-0.45624 1.12462,-0.02996l0.12938,-0.17196c0,0 0.27418,-0.22118 0.49537,0.05302c0.22118,0.2742 -0.05301,0.49536 -0.05301,0.49536z" fill="#0554ff" stroke="none" stroke-width="0.5"/><path d="M210.34558,134.04636l-0.39361,0.0139c-0.88313,0.02954 -1.39198,0.17977 -2.21388,-0.19553c0,0 -0.32044,-0.14633 -0.1741,-0.46676c0.14633,-0.32044 0.46678,-0.17411 0.46678,-0.17411c0.7052,0.32203 1.11592,0.16113 1.89637,0.1323l0.39361,-0.01388c0,0 0.35205,-0.01242 0.36448,0.33963c0.01243,0.35205 -0.33963,0.36447 -0.33963,0.36447z" fill="#0554ff" stroke="none" stroke-width="0.5"/><path d="M212.18917,139.3827l-0.16022,-0.07316c-0.64089,-0.29267 -1.28179,-0.58532 -1.92268,-0.87798c0,0 -0.32044,-0.14633 -0.17412,-0.46677c0.14634,-0.32045 0.46679,-0.1741 0.46679,-0.1741c0.6409,0.29266 1.44202,0.65848 2.08291,0.95115c0,0 0.32044,0.14631 0.17411,0.46678c-0.14633,0.32044 -0.46678,0.17411 -0.46678,0.17411z" fill="#0554ff" stroke="none" stroke-width="0.5"/><path d="M213.88587,136.09116c0,0 -0.32044,-0.14631 -0.17411,-0.46678c0.14633,-0.32044 0.46678,-0.17411 0.46678,-0.17411c0.32044,0.14633 0.6409,0.29266 0.96134,0.43901l0.10095,0.62699c0,0 -0.14634,0.32045 -0.46678,0.17411c-0.16022,-0.07316 -0.20374,-0.18986 -0.20722,-0.28826c-0.22698,-0.10364 -0.45396,-0.20731 -0.68094,-0.31097z" fill="#0554ff" stroke="none" stroke-width="0.5"/><path d="M204.63458,133.02842l-0.53993,0.33434c-0.10681,-0.04878 -0.21363,-0.09755 -0.32045,-0.14633c0,0 -0.32045,-0.14634 -0.17411,-0.46678c0.14634,-0.32045 0.46678,-0.17412 0.46678,-0.17412c0.01333,0.0061 0.02672,0.0122 0.04006,0.0183c0.07665,-0.06183 0.19334,-0.10535 0.35355,-0.03218c0.32046,0.14633 0.1741,0.46677 0.1741,0.46677z" fill="#0554ff" stroke="none" stroke-width="0.5"/><path d="M202.83132,132.35774l-0.30315,-0.40462c0.009,-0.12442 -0.0268,-0.32727 -0.15062,-0.34262c0,0 -0.32044,-0.14634 -0.1741,-0.46677c0.14633,-0.32044 0.46676,-0.1741 0.46676,-0.1741c0.25978,0.15078 0.48541,0.43867 0.51808,0.73728l0.19141,0.2085c0,0 0.22117,0.27419 -0.05302,0.49537c-0.2742,0.22118 -0.49537,-0.05302 -0.49537,-0.05302z" fill="#0554ff" stroke="none" stroke-width="0.5"/><path d="M199.44166,126.59081l-0.32044,-0.14633c-0.74769,-0.34143 -1.49542,-0.68286 -2.24312,-1.02431c0,0 -0.32044,-0.14634 -0.1741,-0.46679c0.14633,-0.32044 0.46677,-0.1741 0.46677,-0.1741c0.74769,0.34143 1.81586,0.8292 2.56357,1.17064c0,0 0.32044,0.14633 0.17411,0.46678c-0.14634,0.32045 -0.46679,0.1741 -0.46679,0.1741z" fill="#0554ff" stroke="none" stroke-width="0.5"/><path d="M189.48092,124.83338l-0.6307,-0.02181c-0.39651,-0.49157 -0.84455,-1.33709 -1.429,-1.57983c0,0 -0.32044,-0.14631 -0.17411,-0.46678c0.14633,-0.32046 0.46678,-0.17411 0.46678,-0.17411c0.64569,0.31199 1.08601,0.99564 1.52956,1.57949c0.05307,-0.01662 0.33319,-0.08831 0.44442,0.20987c0.12312,0.33005 -0.20693,0.45318 -0.20693,0.45318z" fill="#0554ff" stroke="none" stroke-width="0.5"/><path d="M194.27284,123.06873l-0.16022,-0.07316c-0.32046,-0.14633 -0.64089,-0.29266 -0.96134,-0.439c0,0 -0.32045,-0.14633 -0.17411,-0.46678c0.14633,-0.32044 0.46678,-0.17412 0.46678,-0.17412c0.32044,0.14633 0.80113,0.36583 1.12156,0.51216c0,0 0.32044,0.14633 0.17411,0.46678c-0.14633,0.32044 -0.46677,0.1741 -0.46677,0.1741z" fill="#0554ff" stroke="none" stroke-width="0.5"/><path d="M187.27858,121.42392l-0.32045,-0.14634c-0.61983,-0.28304 -0.76958,-0.27581 -0.86051,-0.99429c0,0 -0.01243,-0.35204 0.33963,-0.36449c0.35207,-0.01243 0.3645,0.33964 0.3645,0.33964c-0.06868,0.31952 0.13969,0.23698 0.44906,0.37825l0.32044,0.14633c0,0 0.32045,0.14635 0.1741,0.46679c-0.14633,0.32044 -0.46678,0.17411 -0.46678,0.17411z" fill="#0554ff" stroke="none" stroke-width="0.5"/><path d="M191.26658,124.98771l-0.16022,-0.07317c-0.26655,-0.12879 -0.5052,-0.32546 -0.69559,-0.55214c0,0 -0.22119,-0.27419 0.05301,-0.49536c0.2742,-0.22118 0.49536,0.05301 0.49536,0.05301c0.11365,0.14992 0.26614,0.28145 0.43987,0.35361l0.16022,0.07316c0,0 0.32044,0.14633 0.1741,0.46676c-0.14634,0.32045 -0.46677,0.17412 -0.46677,0.17412z" fill="#0554ff" stroke="none" stroke-width="0.5"/><path d="M196.56222,126.71159l-0.50282,0.07744c-0.76012,-0.3471 -1.72245,-0.04438 -1.00303,-1.61983c0,0 0.14632,-0.32044 0.46677,-0.1741c0.32044,0.14633 0.17411,0.46678 0.17411,0.46678c-0.04011,0.08786 -0.10845,0.23687 -0.17773,0.37998c0.23412,-0.058 0.58914,0.19512 0.83252,0.30628l-0.03607,-0.09667c0,0 0.33006,-0.12312 0.45318,0.20693c0.12312,0.33006 -0.20694,0.45319 -0.20694,0.45319z" fill="#0554ff" stroke="none" stroke-width="0.5"/><path d="M202.98217,129.34891l-0.56523,0.32338c-0.65862,-0.6221 -2.40177,0.32704 -1.57864,-1.47554c0,0 0.14631,-0.32044 0.46678,-0.17411c0.32044,0.14633 0.17411,0.46678 0.17411,0.46678c-0.5054,1.10675 0.50539,-0.5318 1.01272,0.48233l0.04789,-0.17122c0,0 0.27419,-0.22119 0.49537,0.05301c0.22118,0.2742 -0.05301,0.49537 -0.05301,0.49537z" fill="#0554ff" stroke="none" stroke-width="0.5"/><path d="M209.93584,135.83648l-0.46708,-0.27112c-0.14934,-1.17986 -0.0487,-1.38494 -1.30096,-0.69112c0,0 -0.30932,0.16856 -0.47789,-0.14077c-0.16857,-0.30934 0.14077,-0.4779 0.14077,-0.4779c1.0389,-0.55809 2.59785,-0.82102 2.22397,0.91849l0.17384,0.02153c0,0 0.32044,0.14631 0.17411,0.46678c-0.14633,0.32044 -0.46678,0.17411 -0.46678,0.17411z" fill="#0554ff" stroke="none" stroke-width="0.5"/><path d="M213.50244,138.62696l-0.00328,-0.00061c-0.02087,0.05084 -0.04411,0.10442 -0.06988,0.16084l-0.28386,-0.22645l-0.35702,-0.06623c0.03101,-0.06793 0.05532,-0.12041 0.07326,-0.16015l-0.0001,-0.00008c0,0 0.00063,-0.00139 0.00192,-0.00397c0.18998,-0.4218 -0.3687,0.64836 -1.23745,-0.21384c0,0 -0.22118,-0.27419 0.05302,-0.49537c0.27419,-0.22118 0.49537,0.05302 0.49537,0.05302c0.17865,0.50721 1.95542,-0.65824 1.3467,0.89747c-0.00894,0.03407 -0.01864,0.05535 -0.01864,0.05535z" fill="#0554ff" stroke="none" stroke-width="0.5"/><path d="M207.08701,131.05017l-0.28809,-0.17243c-0.17692,-0.26528 -0.1986,-0.48984 -0.18501,-0.61539c-0.07308,0.04655 -0.2891,0.15308 -0.46977,-0.07087c-0.22118,-0.2742 0.05302,-0.49537 0.05302,-0.49537c1.19938,-0.68618 0.69882,0.39972 1.15015,0.73929l0.03236,-0.0261c0,0 0.32045,0.14633 0.17411,0.46678c-0.14634,0.32045 -0.46678,0.17411 -0.46678,0.17411z" fill="#0554ff" stroke="none" stroke-width="0.5"/><path d="M197.86577,130.75288l-0.51439,0.00794c-0.66389,-0.30317 -0.76039,-0.09803 -1.40066,-0.6499c0,0 -0.27921,-0.26017 -0.01905,-0.53938c0.26016,-0.27921 0.53938,-0.01903 0.53938,-0.01903c0.40826,0.43192 0.52301,0.22852 1.02939,0.45975l0.33843,-0.02216c0,0 0.38139,-0.01345 0.39485,0.36792c0.01346,0.3814 -0.36793,0.39485 -0.36793,0.39485z" fill="#0554ff" stroke="none" stroke-width="0.5"/><path d="M190.45896,119.97169l-0.16022,-0.07317c-1.08542,-0.49566 -1.20828,-0.64315 -1.28191,-1.76762c0,0 -0.01243,-0.35205 0.33963,-0.36449c0.35207,-0.01243 0.36448,0.33962 0.36448,0.33962c0.00744,0.48113 0.43275,0.95168 0.87045,1.15157l0.16022,0.07317c0,0 0.32044,0.14634 0.1741,0.46677c-0.14633,0.32044 -0.46678,0.17411 -0.46678,0.17411z" fill="#0554ff" stroke="none" stroke-width="0.5"/></g><g data-paper-data="{&quot;index&quot;:null}" fill="#a8a8a8" stroke="#6b6b6b" stroke-width="1"><path d="M218.86385,126.3567c0.9307,0.54878 1.52202,1.27043 1.32072,1.6118c-0.20129,0.34139 -1.119,0.17328 -2.0497,-0.3755c-0.9307,-0.54878 -1.52202,-1.27044 -1.32072,-1.61181c0.2013,-0.34138 1.11898,-0.17325 2.04969,0.37553z"/><path d="M218.0177,127.06951c1.39607,0.82319 2.34979,1.79242 2.13018,2.16484c-0.2196,0.37242 -1.52936,0.00702 -2.92542,-0.81616c-1.39607,-0.82319 -2.34978,-1.79242 -2.13019,-2.16484c0.2196,-0.37242 1.52936,-0.00702 2.92543,0.81616z"/><path d="M217.20886,128.56163c1.65783,0.97753 2.82375,2.07188 2.60414,2.44431c-0.21961,0.37242 -1.74156,-0.1181 -3.39938,-1.09565c-1.65783,-0.97753 -2.82374,-2.07189 -2.60415,-2.44431c0.21959,-0.37243 1.74154,0.11811 3.39939,1.09565z"/><path d="M216.2302,129.49919c1.83234,1.08043 3.11005,2.30851 2.85385,2.74301c-0.2562,0.4345 -1.94928,-0.08914 -3.78163,-1.16955c-1.83234,-1.08043 -3.11006,-2.30851 -2.85385,-2.74301c0.25621,-0.43451 1.94928,0.08914 3.78162,1.16956z"/></g><g data-paper-data="{&quot;index&quot;:null}" fill="#a8a8a8" stroke="#6b6b6b" stroke-width="1"><path d="M199.13947,114.72635c0.9307,0.54878 1.52202,1.27041 1.32072,1.61181c-0.20129,0.34139 -1.119,0.17325 -2.0497,-0.37552c-0.9307,-0.54878 -1.52201,-1.27042 -1.32071,-1.61181c0.20129,-0.34139 1.11898,-0.17326 2.04969,0.37553z"/><path d="M198.29334,115.43914c1.39607,0.82319 2.34977,1.79242 2.13018,2.16484c-0.21959,0.37243 -1.52936,0.00702 -2.92543,-0.81616c-1.39607,-0.82319 -2.34979,-1.79242 -2.13018,-2.16484c0.21959,-0.37243 1.52936,-0.00702 2.92543,0.81616z"/><path d="M197.48449,116.93126c1.65783,0.97753 2.82374,2.07189 2.60415,2.44431c-0.21959,0.37243 -1.74156,-0.11811 -3.39938,-1.09564c-1.65783,-0.97753 -2.82375,-2.07189 -2.60415,-2.4443c0.21961,-0.37242 1.74157,0.11809 3.39938,1.09561z"/><path d="M196.50581,117.86884c1.83234,1.08043 3.11005,2.30851 2.85386,2.74302c-0.25621,0.43451 -1.94929,-0.08915 -3.78162,-1.16956c-1.83234,-1.08043 -3.11005,-2.30853 -2.85386,-2.74303c0.2562,-0.4345 1.9493,0.08915 3.78162,1.16956z"/></g></g></g><g><g><g fill="#8a8a8a" stroke="#212121" stroke-width="1"><path d="M202.85488,188.00622c-4.60995,-0.64911 -11.00308,1.34488 -14.30996,0.00016c-3.30687,-1.34473 -2.00802,-2.72984 -4.49036,-4.00057c-2.48234,-1.27073 -6.72034,2.28353 -10.58311,1.78354c-8.46296,-1.09543 -9.1263,-12.47361 -8.48231,-13.8343c0.49683,-1.04975 13.95266,-4.91136 17.89829,-5.47847c2.92155,-0.41991 4.77771,2.41049 7.74059,2.18885c2.96288,-0.22165 9.538,-2.56483 12.35998,-2.61101c2.82195,-0.04618 5.27381,2.84285 8.68373,3.32301c4.85773,0.68399 3.37502,1.42494 6.76988,2.87129c3.39487,1.44636 4.26132,7.66082 2.69081,10.9791c-1.54372,3.26167 2.66934,7.20905 -4.87103,7.92204c-7.54038,0.71299 -8.39814,-2.43843 -13.4065,-3.14363z"/></g><path d="M197.77165,180.99096l-0.78074,-0.4657c0.5016,-0.31862 1.09849,-0.58811 1.72945,-0.75148c0.65311,-0.16115 1.65095,0.04358 1.99567,-0.36918c0.18098,-0.21672 -1.15612,-1.57582 -0.80167,-2.04532c0.13465,-0.17836 2.30043,-1.03864 2.62424,-1.19591c2.82829,-1.37373 4.92284,-2.47158 8.21289,-3.28331c0,0 0.59269,-0.14622 0.743,0.23729c0.15031,0.3835 -0.44236,0.52972 -0.44236,0.52972c-3.17499,0.78332 -5.15156,1.83201 -7.87902,3.16408c-0.4037,0.19715 -2.02419,0.7388 -2.20801,0.88371c-0.01996,0.01573 1.03763,1.76275 0.80167,2.04532c-0.28627,0.34281 -2.19099,0.66374 -2.74578,0.80062c-0.21699,0.04983 -0.4282,0.12141 -0.62738,0.20819c-0.06491,0.243 -0.45776,0.33991 -0.45776,0.33991l-0.08346,-0.04978c-0.02111,0.01367 -0.04192,0.02748 -0.06246,0.0414z" fill="#212121" stroke="none" stroke-width="0.5"/><path d="M190.92757,177.6478c-0.52537,-0.16777 -0.21259,-0.54236 -0.21259,-0.54236l0.4208,-0.46299c0.86007,-0.54634 2.15552,-0.78488 2.92057,-1.26293c0.32414,-0.20254 -0.18029,-0.53679 -0.17761,-0.81659c0.00169,-0.17686 0.43197,-1.37867 0.56323,-1.50263c0.6325,-0.59735 1.98057,-1.43215 2.86762,-1.88931c0,0 0.51473,-0.25999 0.84476,0.05759c0.33002,0.31758 -0.18471,0.57758 -0.18471,0.57758c-0.84737,0.41736 -1.91088,1.12243 -2.54124,1.65949c-0.86041,0.73303 0.36379,1.63144 -0.49314,2.41257c-0.56744,0.51725 -2.25876,0.81644 -3.00049,1.31946l-0.16904,0.24331c0,0 -0.31279,0.37458 -0.83817,0.20681z" fill="#212121" stroke="none" stroke-width="0.5"/><path d="M182.15549,180.07538c-0.15031,-0.38349 0.44238,-0.52972 0.44238,-0.52972l0.50109,-0.06083c0.28555,-1.42461 3.68048,-3.36907 5.25956,-4.40031c0,0 0.46287,-0.30229 0.86237,-0.02467c0.3995,0.27762 -0.06339,0.57992 -0.06339,0.57992c-1.76674,1.1538 -4.53142,2.76062 -5.17965,4.34376l-1.07939,0.32913c0,0 -0.59267,0.14622 -0.74299,-0.23728z" fill="#212121" stroke="none" stroke-width="0.5"/><path d="M199.386,184.23598c-0.15031,-0.3835 0.44237,-0.52973 0.44237,-0.52973l0.39513,-0.09748c3.3429,-0.82475 6.03955,-2.05083 9.28243,-2.85091c0,0 0.59267,-0.14623 0.743,0.23727c0.15031,0.3835 -0.44238,0.52972 -0.44238,0.52972c-3.21902,0.7942 -5.94687,2.02798 -9.28242,2.8509l-0.39513,0.09749c0,0 -0.59268,0.14622 -0.74299,-0.23726z" fill="#212121" stroke="none" stroke-width="0.5"/><path d="M176.77956,179.81517c-0.59733,-0.04073 -0.46671,-0.44912 -0.46671,-0.44912l0.22333,-0.67371c0.82843,-0.99202 2.30071,-1.86338 3.73637,-2.4872c0.42654,-0.18534 1.10897,-0.03009 1.42349,-0.29963c0.36749,-0.31494 0.01995,-0.78798 0.30349,-1.13606c0.54619,-0.67055 1.42534,-1.28355 2.44514,-1.56761c0,0 0.59268,-0.14622 0.74299,0.23726c0.15031,0.38349 -0.44237,0.52973 -0.44237,0.52973c-1.83603,0.35073 -1.234,1.68566 -2.17034,2.43536c-0.52542,0.4207 -1.1627,0.22825 -1.73746,0.48022c-1.14039,0.49996 -2.50172,1.22616 -3.16392,2.01913l-0.16607,0.54392c0,0 -0.13062,0.40841 -0.72794,0.36768z" fill="#212121" stroke="none" stroke-width="0.5"/></g><path d="M176.32268,183.19841c-0.51872,0.8709 -1.25571,0.87551 -1.91013,1.57184c-1.49635,1.59218 -3.50884,1.60041 -5.62517,0.94293c-0.78596,-0.24417 -1.50704,-0.05466 -2.24381,-0.08943c-0.39915,-0.01883 -1.33215,-0.85644 -1.69353,-1.07918c-1.4416,-0.88843 -2.44452,-2.14269 -3.85928,-3.01459c-0.25454,-0.15686 -1.47592,-0.67592 -1.50526,-1.02114c-0.02363,-0.27788 0.47793,-0.29621 0.67745,-0.49106c0.78637,-0.76788 1.46458,-1.03265 2.26197,-1.33977l0.01527,0.06454l0.74209,-0.17673c0.10075,-0.02393 0.14435,-0.06173 0.20297,-0.15684c0.11724,-0.19024 0.05724,-0.44131 -0.133,-0.55855l-0.39922,-0.24696c-0.35694,-0.56677 -0.72512,-0.77606 -1.29807,-1.12054c-0.19859,-0.11942 -0.71723,-0.16288 -0.5956,-0.36013c0.17501,-0.28383 0.63775,-0.22882 0.90351,-0.43026c1.17907,-0.89363 2.66489,-0.5333 3.47917,-1.44478c0.03688,0.01828 0.07269,0.0357 0.10735,0.05184l-0.00765,-0.17524c0.02751,-0.03729 0.05422,-0.07713 0.07981,-0.11822l0.17903,0.11081l0.28373,-0.46226c0.11724,-0.19024 0.05902,-0.44219 -0.13123,-0.55943c-0.19025,-0.11722 -0.38904,-0.03905 -0.50631,0.15119l-0.14758,0.13962c-0.59735,-0.999 -2.75362,-1.72394 -2.63665,-2.98023c0.13355,-1.43446 2.10506,-0.83485 2.85861,-0.83025c0.37249,0.00227 0.85172,-0.06385 1.3119,-0.14482l-0.00161,0.01773l0.59386,0.05157c0.15054,0.01656 0.30599,-0.0533 0.39072,-0.19082c0.11724,-0.19024 0.07996,-0.39019 -0.11029,-0.50744l-0.6133,-0.41279c-0.18777,-0.7171 -0.41369,-1.23654 -0.43714,-1.99805c-0.09822,-0.41823 -0.94652,-2.61629 -0.3545,-2.90564c2.13875,-1.04525 5.7032,-0.24201 7.75018,0.6226c0.28827,0.12176 0.03858,1.33494 0.03082,1.46379c1.28447,2.12936 3.23337,3.12279 5.46696,4.14203c0.66482,0.30337 1.28958,1.03548 2.0558,1.10427c-0.49613,4.48197 -2.82129,8.54996 -5.18189,12.38033z" data-paper-data="{&quot;noHover&quot;:false,&quot;origItem&quot;:[&quot;Path&quot;,{&quot;applyMatrix&quot;:true,&quot;segments&quot;:[[[352.98765,211.79952],[7.15143,15.10973],[-2.55196,1.27316]],[[344.36571,212.32209],[2.68815,-0.33561],[-9.03143,1.12755]],[[319.12178,209.89399],[8.19519,4.2219],[-0.22607,-0.42176]],[[316.18244,205.33333],[1.14654,-0.1764],[-8.14174,1.25266]],[[290.56826,218.40736],[4.71675,-7.45853],[-1.30565,2.06461]],[[297.34245,226.88235],[-1.12338,-1.1289],[1.55513,2.35765]],[[302.61113,232.33333],[-1.98728,-1.89794],[0,0]],[[305.18244,232.33333],[0,0],[0.82843,0]],[[306.68244,233.83333],[0,-0.82843],[0,0.5988]],[[305.82419,235.18951],[0.50737,-0.24052],[0,0]],[303.85326,236.17497],[[303.82379,236.11605],[0,0],[-1.29482,1.15054]],[[299.97103,239.10931],[1.17999,-0.71729],[-2.38708,1.45106]],[[292.56826,247.25931],[-2.36844,-4.78677],[2.07425,4.1922]],[[306.68244,251.51318],[-3.82814,-1.9909],[0,0]],[[306.68244,250.83333],[0,0],[0,-0.82843]],[[308.18244,249.33333],[-0.82843,0],[0.82843,0]],[[309.68244,250.83333],[0,-0.82843],[0,0]],[309.68244,252.83333],[[308.90249,252.83333],[0,0],[-0.00083,0.17941]],[[308.87958,253.35911],[0.01432,-0.1712],[0,0]],[[309.2431,253.89399],[0,0],[-0.14078,0.0165]],[[308.80379,253.93991],[0.15196,-0.01408],[-0.79701,4.46031]],[[300.62231,265.24677],[1.98302,-5.11343],[-0.44697,1.15256]],[[298.60546,268.35899],[0.00029,-1.23619],[-0.0002,0.85903]],[[301.18244,268.33333],[-0.85898,0.00943],[2.47817,-0.0272]],[[307.44609,269.33333],[-2.22884,-1.09444],[0,0]],[[309.18244,269.33333],[0,0],[0.82843,0]],[[310.68244,270.83333],[0,-0.82843],[0,0.41421]],[[310.2431,271.89399],[0.27145,-0.27145],[0,0]],[308.2431,273.89399],[[308.06872,273.71962],[0,0],[-1.91921,2.52017]],[[303.64231,282.17796],[0.98821,-3.95282],[-0.25075,1.003]],[[302.45841,285.04474],[-0.61503,-0.83104],[0.76407,1.03243]],[[309.18244,285.33333],[-1.10841,0],[6.16069,0]],[[327.18244,287.33333],[-6.27749,0],[1.57371,0]],[[334.60841,287.44751],[-1.29634,0.7169],[2.39284,-1.32329]],[[341.8448,283.37183],[-2.95535,0.75806],[7.95781,-2.0412]],[[357.72256,269.4887],[-1.62566,7.93509],[0.71097,-3.47035]],[[360.68244,260.83333],[0.05678,3.75743],[0,-16.67958]]],&quot;closed&quot;:true}]}" fill="#001a3a" stroke="#e3efff" stroke-width="1.5"/></g></g><path d="M225.7024,188.27113l-7.96326,2.63651l-3.13039,-20.6196l8.75509,1.00869" fill="#000000" stroke="#000000" stroke-width="1" stroke-linecap="round"/></g><g stroke-linecap="butt"><g data-paper-data="{&quot;index&quot;:null}"><g><g fill="#8a8a8a" stroke="#212121" stroke-width="1"><path d="M217.05681,198.1191c2.89723,-3.64405 4.4207,-10.16532 7.25666,-12.33352c2.83596,-2.16819 3.37107,-0.34633 5.72512,-1.8414c2.35405,-1.49507 1.43986,-6.95013 3.82967,-10.02582c5.23583,-6.73853 15.37883,-1.54019 16.22499,-0.29513c0.65281,0.96055 -2.84261,14.51612 -4.35472,18.20434c-1.11965,2.73096 -4.50041,2.89541 -5.81188,5.56145c-1.31148,2.66604 -2.62629,9.52127 -4.01755,11.97687c-1.39125,2.4556 -5.12463,3.10373 -7.26768,5.79919c-3.05293,3.8399 -2.93964,2.18625 -5.9078,4.37874c-2.96818,2.19249 -8.76367,-0.21217 -10.8272,-3.24852c-2.02831,-2.98453 -7.56699,-1.35517 -4.35767,-8.21562c3.20933,-6.86046 6.36044,-6.00159 9.50806,-9.96058z"/></g><path d="M225.68089,197.29552l0.79729,-0.43673c0.02024,0.59389 -0.05018,1.24499 -0.22935,1.87166c-0.19232,0.64462 -0.87479,1.40082 -0.69385,1.90723c0.095,0.26587 1.94446,-0.19731 2.16935,0.34628c0.08543,0.20649 -0.2714,2.50939 -0.30005,2.86824c-0.25028,3.13428 -0.36624,5.49627 -1.33507,8.74353c0,0 -0.17453,0.58497 -0.58129,0.52004c-0.40675,-0.06493 -0.23222,-0.64989 -0.23222,-0.64989c0.93496,-3.13369 1.03347,-5.36906 1.26853,-8.39531c0.0348,-0.44793 0.38975,-2.11926 0.35806,-2.35117c-0.00344,-0.02518 -2.04549,0.00039 -2.16936,-0.34627c-0.15028,-0.42058 0.53902,-2.22497 0.70239,-2.77253c0.06709,-0.21229 0.1125,-0.43062 0.13872,-0.6463c-0.17652,-0.17916 -0.06082,-0.56691 -0.06082,-0.56691l0.08524,-0.04669c-0.00107,-0.02512 -0.00241,-0.05006 -0.004,-0.07482z" fill="#212121" stroke="none" stroke-width="0.5"/><path d="M232.03303,193.09212c0.41102,-0.36773 0.57525,0.09181 0.57525,0.09181l0.18564,0.59746c0.03472,1.01833 -0.41662,2.25582 -0.39257,3.15762c0.01019,0.38208 0.55408,0.11683 0.79387,0.26102c0.15158,0.09114 0.96919,1.07145 1.00946,1.24744c0.19409,0.84806 0.22995,2.43327 0.17413,3.42964c0,0 -0.03694,0.57548 -0.47801,0.69887c-0.44108,0.12339 -0.40413,-0.4521 -0.40413,-0.4521c0.07001,-0.94199 0.00163,-2.21616 -0.14158,-3.03179c-0.19546,-1.1133 -1.59059,-0.51378 -1.82927,-1.64847c-0.15804,-0.75135 0.44178,-2.36081 0.38438,-3.25518l-0.12398,-0.26907c0,0 -0.16422,-0.45954 0.2468,-0.82727z" fill="#000000" stroke="none" stroke-width="0.5"/><path d="M234.3892,184.30059c0.40676,0.06492 0.23222,0.64989 0.23222,0.64989l-0.20169,0.46273c1.08303,0.96856 1.03731,4.88063 1.12533,6.76457c0,0 0.0258,0.55224 -0.41606,0.75577c-0.44187,0.20353 -0.46767,-0.34871 -0.46767,-0.34871c-0.09849,-2.10782 -0.08137,-5.30549 -1.11712,-6.66702l0.26371,-1.0972c0,0 0.17453,-0.58496 0.58129,-0.52004z" fill="#000000" stroke="none" stroke-width="0.5"/><path d="M222.06542,197.04129c0.40675,0.06493 0.23223,0.6499 0.23223,0.6499l-0.11635,0.38998c-0.9844,3.29942 -1.29517,6.24537 -2.25012,9.44607c0,0 -0.17452,0.58497 -0.58128,0.52005c-0.40675,-0.06493 -0.23221,-0.6499 -0.23221,-0.6499c0.94792,-3.17716 1.26787,-6.15391 2.25011,-9.44607l0.11635,-0.38998c0,0 0.17453,-0.58497 0.58128,-0.52004z" fill="#212121" stroke="none" stroke-width="0.5"/><path d="M237.33968,179.79914c0.33802,-0.49418 0.62377,-0.17451 0.62377,-0.17451l0.4674,0.53414c0.4349,1.21707 0.43928,2.92788 0.24889,4.4816c-0.05658,0.46162 -0.53645,0.97107 -0.46363,1.37883c0.08508,0.47644 0.66903,0.41679 0.82525,0.83768c0.30095,0.8108 0.38344,1.87937 0.11112,2.90237c0,0 -0.17453,0.58497 -0.58128,0.52005c-0.40676,-0.06492 -0.23223,-0.64989 -0.23223,-0.64989c0.62879,-1.7603 -0.82704,-1.91838 -0.99837,-3.10559c-0.09615,-0.66619 0.3929,-1.11785 0.4672,-1.74102c0.1474,-1.23642 0.21187,-2.77798 -0.13577,-3.75084l-0.38457,-0.41897c0,0 -0.28576,-0.31968 0.05225,-0.81384z" fill="#000000" stroke="none" stroke-width="0.5"/></g></g><path d="M208.70226,203.6338c0.70943,-0.34299 1.42808,-0.64288 2.10171,-0.75452c0.90335,-0.14971 1.83717,0.0003 2.73665,-0.13158c1.06886,-0.15672 1.71994,-1.29858 2.96215,-0.61455c0.24377,0.13423 0.22867,0.51377 0.40109,0.73221c0.87407,1.1074 1.77365,1.64204 2.35328,2.98738c0.85559,1.98583 1.50776,4.95114 2.84429,6.64494c1.71668,2.17558 2.15928,6.01313 0.61708,8.46547c-0.62584,1.542 -0.77612,3.47962 -1.95358,4.78766c-0.35499,0.39436 -1.4714,0.68711 -1.97307,0.90326c-0.45225,0.19485 -1.65771,0.90623 -2.11455,0.80675c-0.67769,-0.14757 -1.72367,-1.87911 -2.12326,-3.23985c-0.53157,0.59859 -2.48234,1.97558 -3.39546,1.77675c-1.37706,-0.29987 -1.39093,-1.88715 -1.55283,-2.87878c-0.25402,-1.5559 -0.94098,-2.97826 0.21793,-4.3989c0.10075,-0.1235 0.19844,-0.28992 0.29767,-0.4765c-0.19042,0.08748 -0.39582,0.15066 -0.62455,0.17576c-3.55036,0.38968 -2.99293,-4.46037 -1.93546,-6.34812c0.08558,-0.15276 0.22528,-0.37169 0.39482,-0.60188c-1.02317,0.03143 -2.27558,-0.29184 -2.74446,-0.3166c-0.24452,-0.0129 -0.45612,0.31325 -0.69183,0.24694c-1.66274,-0.46774 -1.52301,-2.41347 -0.88256,-3.57365c1.12953,-2.04613 2.33793,-3.22614 4.54167,-4.18359c0,0 0.27009,-0.11637 0.52328,-0.00861z" fill="#001a3a" stroke="#e3efff" stroke-width="1.5"/></g><g stroke="#e3efff" stroke-width="1" stroke-linecap="butt"><path d="M221.35883,219.5717v-67.89114h78.00259v67.89114z" fill="url(#color-1)"/><path d="M223.19346,218.95946c0,0 20,-6.10917 20,-13.78729c0,-4.49588 -20,-9.31066 -20,-14.33333c0,-3.1096 24.66666,-7.50445 24.66666,-10.33334c0,-3.95675 -24.66666,-6.12507 -24.66666,-8.66666c0,-7.92594 0,-19.54604 0,-19.54604h74.33334c0,0 0,11.6201 0,19.54604c0,2.96231 -25.66667,4.89549 -25.66667,9.66666c0,6.40187 25.66667,16.04569 25.66667,22.33334c0,2.54328 -24.33334,-1.74744 -24.33334,0.33333c0,4.86813 24.33334,14.7873 24.33334,14.7873z" fill="url(#color-2)"/></g><g stroke-linecap="round"><path d="M241.71353,121.66667l22.33333,12.33333l1,17.33333h-25.33333v-15.33333l-7.33333,-9" fill="url(#color-3)" stroke="#9966ff" stroke-width="0.5"/><path d="M247.71353,126.75l-9.75,9" fill="none" stroke="#000000" stroke-width="1"/><path d="M256.96353,131.75l-16.5,9.5" fill="none" stroke="#000000" stroke-width="1"/><path d="M263.21353,135.5l-23.25,11.5" fill="none" stroke="#000000" stroke-width="1"/><path d="M263.96353,147.25l-25,3.5" fill="none" stroke="#000000" stroke-width="1"/></g><g stroke-linecap="butt"><g><g><path d="M240.04637,131.43752c-3.35163,1.39602 -1.24039,-7.11183 -3.55378,-12.66595c-2.31339,-5.55412 -8.17539,-6.05129 -4.82376,-7.4473c3.35163,-1.39602 7.94404,1.9748 10.25743,7.52892c2.31339,5.55412 1.47174,11.18832 -1.87989,12.58434z" fill="url(#color-4)" stroke="#e3efff" stroke-width="0.5"/><path d="M238.09866,128.42907c-2.9102,1.11342 -6.74273,-1.83501 -8.56021,-6.58548c-1.81748,-4.75047 2.65191,-9.29318 5.5621,-10.40658c1.85203,-0.70856 2.62628,0.14248 3.41289,2.07944c0.44943,1.10667 0.90291,2.56785 1.56375,4.29513c1.81748,4.75047 0.93166,9.50408 -1.97854,10.6175z" fill="url(#color-5)" stroke="#e3efff" stroke-width="1"/><path d="M231.94515,125.13393c-1.10441,1.4625 -1.94993,-0.29565 -3.16408,-1.21252c-1.21415,-0.91687 0.37737,-3.61656 1.48178,-5.07907c1.10441,-1.4625 2.68007,-0.87902 3.89422,0.03785c1.21415,0.91687 -1.10751,4.79124 -2.21192,6.25374z" fill="#5d8d03" stroke="#000000" stroke-width="0"/><path d="M234.63947,124.66275c-1.42062,4.3296 -6.91838,5.84905 -11.07554,7.28572c-3.58634,1.23939 -8.2528,1.67983 -11.62933,0.57194c-1.59341,-0.52282 -2.05941,-2.18673 -3.58005,-2.70233c-2.21786,-0.75201 -4.94441,-1.43958 -5.76339,-3.44911c-0.75943,-1.86342 -0.02315,-4.31844 0.47115,-6.84296c0.42673,-2.17943 0.52099,-4.41961 1.12784,-6.26907c0.5502,-1.67684 2.44526,-1.97823 3.9962,-3.14643c0.64221,-0.48372 1.08181,-1.61455 1.57016,-2.26296c0.40713,-0.54057 1.46669,-0.90654 1.8784,-1.44487c1.96651,-2.57126 3.58728,-5.51736 5.57892,-7.30073c1.69266,-1.51566 3.70976,-2.14877 5.83397,-1.45178c1.94811,0.63921 6.19372,-0.27609 8.23922,1.71084c3.04661,2.95939 3.67964,10.38212 4.04448,14.18455c0.3069,3.1986 0.19387,8.4172 -0.69205,11.1172z" fill="#9966ff" stroke="#e3efff" stroke-width="1"/><path d="M234.81768,123.61569c-1.29195,1.71085 -4.17359,1.71259 -6.43633,0.00389c-2.26274,-1.70871 -2.07285,-4.52769 -0.7809,-6.23854c1.29195,-1.71085 3.52715,-3.14223 5.78989,-1.43352c2.26274,1.70871 2.71929,5.95732 1.42734,7.66818z" fill="#58ff00" stroke="#000000" stroke-width="0"/><path d="M225.92055,120.64457c0.87114,-1.15359 1.88871,-0.83302 3.22657,-0.9163c1.0943,-0.06812 2.75542,-1.07135 3.699,-0.35882c2.09718,1.58369 2.25265,4.91295 0.66897,7.01012c-1.58369,2.09718 -4.5676,2.51344 -6.66477,0.92976c-2.09718,-1.58369 -2.51345,-4.5676 -0.92976,-6.66478z" fill="#070707" stroke="#000000" stroke-width="1"/><path d="M228.30761,122.05488c-0.52095,0.68986 -1.59198,0.75922 -2.39222,0.15492c-0.80024,-0.6043 -1.02665,-1.65342 -0.5057,-2.34328c0.52095,-0.68986 1.59198,-0.75922 2.39222,-0.15492c0.80024,0.6043 1.02665,1.65342 0.5057,2.34328z" fill="#58ff00" stroke="none" stroke-width="0"/><g fill="url(#color-6)" stroke="none" stroke-width="0"><path d="M216.42471,129.27134c-0.07273,0.0963 0.25574,2.52721 0.15103,2.58329c-1.25732,0.6735 -5.11872,-3.79061 -7.86981,-5.8681c-2.9802,-2.25049 -6.75207,-4.14938 -5.80609,-5.40208c0.48982,-0.64865 0.14626,-7.83291 2.04842,-7.44033c1.77139,0.36559 6.26214,5.91433 7.69919,6.99953c2.9802,2.25049 4.72324,7.87499 3.77726,9.12769z"/></g><path d="M232.80869,111.78474c-0.06971,0.37634 -0.44603,0.30663 -0.44603,0.30663l-0.07832,-0.12851c-0.32988,0.22393 -0.69456,0.40065 -1.07035,0.53385c-0.72122,0.33287 -1.39996,0.73762 -2.00063,-0.06626c-0.00791,-0.01058 -0.0156,-0.02127 -0.0231,-0.03207c-0.04412,0.0637 -0.11103,0.12358 -0.21,0.17266c-0.45719,0.22671 -0.68389,-0.23047 -0.68389,-0.23047l0.02527,-0.07033c-0.52995,-0.40325 -0.94103,-0.87057 -1.47092,-1.27246c-1.42083,-1.76051 -3.98335,-2.42958 -5.61874,-3.98787c-0.51011,-0.48606 -0.63006,-1.31898 -0.9298,-1.97404c-0.03012,-0.00945 -0.05993,-0.01814 -0.08939,-0.02603c-0.38912,-0.10418 -1.71964,0.19348 -2.02622,-0.03804c-0.15296,-0.11551 -0.24457,-0.9418 -0.27811,-1.18224c-0.13138,-0.94177 -0.1869,-1.91801 -0.50377,-2.81572c0,0 -0.12619,-0.36132 0.23513,-0.48752c0.36133,-0.1262 0.48752,0.23513 0.48752,0.23513c0.32932,0.95187 0.40029,1.96632 0.53924,2.96235c0.0312,0.22363 -0.19892,0.54106 -0.01872,0.67713c0.20291,0.15323 0.48155,-0.2296 0.73466,-0.20534c0.02753,0.00263 0.05512,0.00499 0.08275,0.00714c-0.11555,-0.06798 -0.37793,-0.27057 -0.21971,-0.6429c0.19958,-0.46967 0.66925,-0.27009 0.66925,-0.27009c0.6045,0.2616 0.907,0.75118 1.16449,1.28401c0.72277,0.35363 1.4862,0.91415 2.04395,1.33533c2.42479,1.83108 5.76082,3.19475 6.75011,6.17353c0.11899,0.3583 0.86574,-0.16809 1.05324,-0.25535c0.32477,-0.11155 0.64258,-0.25866 0.92417,-0.45521l0.65136,0.00664c0,0 0.37634,0.06971 0.30663,0.44603z" fill="#212121" stroke="none" stroke-width="0.5"/><path d="M229.34663,108.63893c-0.23065,0.30543 -0.53608,0.07478 -0.53608,0.07478l-0.18468,-0.16407c-1.6974,-2.47303 -4.1412,-4.51482 -6.53086,-6.31937c0,0 -0.30543,-0.23065 -0.07478,-0.53608c0.23065,-0.30543 0.53608,-0.07478 0.53608,-0.07478c2.45406,1.85318 4.95289,3.95839 6.70036,6.4966l0.01517,-0.01316c0,0 0.30543,0.23065 0.07478,0.53608z" fill="#212121" stroke="none" stroke-width="0.5"/><path d="M228.56926,98.6555c-0.23065,0.30543 -0.53608,0.07478 -0.53608,0.07478l0.10823,0.00118c-1.24804,-0.08189 -2.20759,0.28235 -3.03306,1.39026c0,0 -0.23065,0.30543 -0.53608,0.07478c-0.30543,-0.23065 -0.07478,-0.53608 -0.07478,-0.53608c0.99254,-1.29958 2.17076,-1.76959 3.68889,-1.6931l0.30808,0.1521c0,0 0.30543,0.23065 0.07478,0.53608z" fill="#0e1501" stroke="none" stroke-width="0.5"/><path d="M232.98668,102.59366c0.05288,0.37906 -0.32618,0.43195 -0.32618,0.43195l-0.45891,-0.04916c-1.22908,-0.95003 -3.3117,0.16572 -4.26803,1.08361c0,0 -0.27771,0.26336 -0.54107,-0.01436c-0.26336,-0.27772 0.01437,-0.54107 0.01437,-0.54107c1.27974,-1.20099 3.66433,-2.31918 5.25603,-1.13904l-0.10813,-0.09811c0,0 0.37906,-0.05288 0.43195,0.32618z" fill="#0e1501" stroke="none" stroke-width="0.5"/><path d="M234.82997,106.36461c-0.23065,0.30543 -0.53608,0.07478 -0.53608,0.07478l0.00849,-0.01819c-0.96119,-0.33979 -2.80921,-0.36827 -3.71516,0.09224c0,0 -0.34289,0.17003 -0.51292,-0.17285c-0.17003,-0.34289 0.17285,-0.51292 0.17285,-0.51292c1.11908,-0.5439 3.10407,-0.52042 4.29967,-0.13185l0.20836,0.13272c0,0 0.30543,0.23065 0.07478,0.53608z" fill="#0e1501" stroke="none" stroke-width="0.5"/><path d="M233.28678,110.27236c0.08736,-0.07518 0.26404,-0.17519 0.47713,-0.01427c0.30543,0.23065 0.07478,0.53608 0.07478,0.53608l-0.40338,0.25136c-0.8511,-0.05037 -1.45967,-0.00024 -2.24638,-0.36983c0,0 -0.34473,-0.16627 -0.17847,-0.51101c0.16626,-0.34473 0.51099,-0.17846 0.51099,-0.17846c0.60496,0.30145 1.1228,0.26299 1.76532,0.28613z" fill="#0e1501" stroke="none" stroke-width="0.5"/><path d="M233.4742,99.03901c0.05288,0.37906 -0.32618,0.43195 -0.32618,0.43195l-0.01145,-0.0392c-0.68928,0.46619 -1.46534,0.71905 -2.15773,1.19502c0,0 -0.3154,0.21682 -0.53221,-0.09858c-0.21682,-0.3154 0.09858,-0.53221 0.09858,-0.53221c0.69109,-0.47509 1.48314,-0.72146 2.15772,-1.19502l0.33933,-0.08814c0,0 0.37906,-0.05288 0.43195,0.32618z" fill="#0e1501" stroke="none" stroke-width="0.5"/><path d="M229.70092,99.16171c-0.05765,-0.09681 -0.09332,-0.24239 0.03376,-0.41069c0.23065,-0.30543 0.53608,-0.07478 0.53608,-0.07478l0.23197,0.50312c-0.04215,0.12508 -0.08431,0.25017 -0.12646,0.37524c0,0 -0.12222,0.36269 -0.48491,0.24047c-0.36269,-0.12222 -0.24048,-0.48492 -0.24048,-0.48492c0.01668,-0.04948 0.03334,-0.09896 0.05003,-0.14844z" fill="#0e1501" stroke="none" stroke-width="0.5"/><path d="M235.10538,108.46079c-0.12222,0.36269 -0.48491,0.24047 -0.48491,0.24047l-0.43177,-0.15071c-0.26081,-0.1953 -0.54518,-0.36435 -0.84583,-0.48994c0,0 -0.35225,-0.14968 -0.20257,-0.50192c0.14968,-0.35224 0.50194,-0.20257 0.50194,-0.20257c0.31886,0.13742 0.62777,0.30716 0.90395,0.51758l0.31872,0.10219c0,0 0.36269,0.12222 0.24047,0.48491z" fill="#0e1501" stroke="none" stroke-width="0.5"/><path d="M232.81898,119.85972c1.69584,1.84067 1.63933,4.67683 0.0801,6.74163c-0.09894,0.12929 -0.20395,0.2451 -0.31442,0.34952c-0.26817,0.20068 -0.56772,0.36882 -0.90053,0.49711c-0.7606,0.29319 -1.10295,0.66881 -1.84984,0.24089c0.03169,-0.04347 0.0641,-0.08433 0.09718,-0.12281l0.2457,-0.3105c0.06102,-0.01771 0.12205,-0.03518 0.18294,-0.05265c0.40046,-0.24392 0.86138,-0.32751 1.34414,-0.52606c0.21809,-0.13796 0.41599,-0.31058 0.58395,-0.53679c1.31012,-1.73491 1.42007,-4.06852 0.07449,-5.64295c-0.1179,-0.04552 -0.17655,-0.14783 -0.20455,-0.22202c-0.13923,-0.14034 -0.29132,-0.27343 -0.45652,-0.39817c0,0 -0.30543,-0.23065 -0.07478,-0.53608c0.01194,-0.0158 0.02407,-0.03018 0.03635,-0.04322l-0.72598,0.08907c0.24273,0.11691 1.11883,-0.20958 1.34662,-0.06125l0.05547,-0.04856c0.68144,0.51459 1.34672,1.11835 2.00912,1.6761c0.39162,2.04283 -0.03004,4.70046 -1.7638,5.99789c-0.61716,0.58347 -1.40409,0.81186 -2.24825,1.05341l-0.50211,-0.31543l0.09718,-0.12281c0.13272,-0.15436 0.2763,-0.27036 0.42865,-0.36315c0.47595,-0.13652 0.94403,-0.27295 1.34414,-0.52606c0.04904,-0.02016 0.09831,-0.04153 0.14774,-0.06435c1.83886,-0.84898 1.89328,-3.64939 1.83652,-5.27168c-0.40174,-0.2372 -0.74315,-0.53285 -1.0799,-0.83286c-0.01342,0.00299 -0.02746,0.00552 -0.04215,0.00757c-0.0824,0.01149 -0.1494,0.00258 -0.20377,-0.01841c-0.0648,-0.07581 -0.13297,-0.14988 -0.20455,-0.22202c-0.0185,-0.04901 -0.02363,-0.08574 -0.02363,-0.08574l0.07335,0.06056c-0.05174,-0.05821 -0.09748,-0.13042 -0.13214,-0.20882c-0.08776,-0.07326 -0.17709,-0.14497 -0.26888,-0.21429l-0.14367,-0.52919c0.22509,-0.23896 0.49972,-0.03156 0.49972,-0.03156c0.03384,0.02556 0.06722,0.05142 0.10014,0.07758l0.02079,-0.0182c0.18278,0.11903 0.35254,0.25435 0.49615,0.41592z" fill="#070707" stroke="none" stroke-width="0.5"/><path d="M206.06,130.11479c-0.20362,-0.15376 -0.04986,-0.35738 -0.04986,-0.35738l0.1,-0.13243c0.52601,-0.69656 0.33171,-1.22113 0.80271,-1.88905c0,0 0.15377,-0.20363 0.35738,-0.04986c0.20362,0.15376 0.04986,0.35738 0.04986,0.35738c-0.42263,0.50659 -0.31578,1.24425 -0.80271,1.88905l-0.1,0.13243c0,0 -0.15376,0.20362 -0.35738,0.04986z" fill="#0e1501" stroke="none" stroke-width="0.5"/><path d="M209.39472,132.33142c-0.25271,0.03526 -0.28796,-0.21746 -0.28796,-0.21746l-0.0306,-0.31414c0.10463,-0.56488 -0.00221,-1.10085 0.31757,-1.56666c0,0 0.15376,-0.20362 0.35738,-0.04986c0.20362,0.15376 0.04986,0.35738 0.04986,0.35738c-0.23639,0.26441 -0.14887,0.95167 -0.22303,1.35207l0.03425,0.15069c0,0 0.03526,0.25271 -0.21746,0.28796z" fill="#0e1501" stroke="none" stroke-width="0.5"/><path d="M207.78422,130.58508c-0.20362,-0.15376 -0.04986,-0.35738 -0.04986,-0.35738l0.1,-0.13243c0.31137,-0.41233 0.46317,-0.66475 0.92267,-0.90178c0,0 0.22859,-0.11336 0.34195,0.11523c0.11336,0.22859 -0.11523,0.34195 -0.11523,0.34195c-0.38252,0.17939 -0.48029,0.40536 -0.74215,0.75213l-0.1,0.13243c0,0 -0.15376,0.20362 -0.35738,0.04986z" fill="#0e1501" stroke="none" stroke-width="0.5"/><path d="M211.0596,133.68231c-0.20362,-0.15376 -0.04986,-0.35738 -0.04986,-0.35738l0.05273,-0.02512c0.09842,-0.50558 0.01255,-0.84764 0.1794,-1.36196c0,0 0.08148,-0.24179 0.32329,-0.16031c0.24179,0.08148 0.16031,0.32329 0.16031,0.32329c-0.16541,0.46873 -0.0757,0.81045 -0.16121,1.29193l-0.14727,0.23972c0,0 -0.15377,0.20363 -0.35738,0.04986z" fill="#0e1501" stroke="none" stroke-width="0.5"/></g><path d="M214.00907,111.27568c-1.10441,1.4625 -1.94993,-0.29565 -3.16408,-1.21252c-1.21415,-0.91687 0.37737,-3.61657 1.48178,-5.07907c1.10441,-1.4625 2.68007,-0.87903 3.89422,0.03784c1.21415,0.91687 -1.10751,4.79124 -2.21192,6.25374z" fill="#58ff00" stroke="#000000" stroke-width="0"/><path d="M213.87391,110.21553c-0.48689,1.48391 -1.97995,2.32646 -3.33481,1.88191c-1.35487,-0.44456 -2.0585,-2.00788 -1.5716,-3.49178c0.48689,-1.48391 2.58964,-3.4929 3.9445,-3.04833c0.46704,0.15324 0.20003,1.68225 0.48564,2.07698c0.54293,0.7504 0.79533,1.60884 0.47627,2.58124z" fill="#070707" stroke="#000000" stroke-width="1"/><path d="M211.33207,109.31425c-0.42197,0.55879 -1.1667,0.70771 -1.6634,0.33263c-0.4967,-0.37508 -0.55728,-1.13214 -0.13531,-1.69091c0.42197,-0.55879 1.16669,-0.70771 1.66339,-0.33263c0.4967,0.37508 0.55728,1.13214 0.13531,1.69092z" fill="#58ff00" stroke="none" stroke-width="0"/><path d="M215.03734,107.39968c-0.3154,0.21682 -0.53221,-0.09858 -0.53221,-0.09858l-0.18552,-0.27859c-0.49554,-0.36554 -0.74772,-0.60772 -1.37127,-0.63913c0,0 -0.38207,-0.02249 -0.35958,-0.40456c0.02249,-0.38208 0.40456,-0.35959 0.40456,-0.35959c0.82795,0.05434 1.23569,0.37909 1.87948,0.87419l0.26312,0.37403c0,0 0.21682,0.31541 -0.09858,0.53222z" fill="#58ff00" stroke="none" stroke-width="0.5"/><path d="M222.93153,96.72535c-0.06283,-0.09641 -0.10964,-0.24854 0.02429,-0.4259c0.23065,-0.30543 0.53608,-0.07478 0.53608,-0.07478l0.23197,0.50312c-0.14063,0.40417 -0.14455,0.79068 -0.27944,1.2012c0,0 -0.12222,0.36269 -0.48491,0.24047c-0.36269,-0.12222 -0.24047,-0.48491 -0.24047,-0.48491c0.11271,-0.32392 0.1376,-0.6365 0.21248,-0.95917z" fill="#0e1501" stroke="none" stroke-width="0.5"/><path d="M210.321,111.45549c0.02249,-0.38208 0.40456,-0.35959 0.40456,-0.35959l0.40912,0.02704c1.53509,0.30458 1.94998,-1.2399 1.94996,-2.4726c0,0 0.00125,-0.38273 0.38398,-0.38147c0.38273,0.00125 0.38148,0.38399 0.38148,0.38399c-0.01077,1.74523 -0.80057,3.5827 -2.85484,3.22274l-0.31469,-0.01556c0,0 -0.38208,-0.02248 -0.35959,-0.40456z" fill="#070707" stroke="none" stroke-width="0.5"/><path d="M202.14947,128.40936c-0.20362,-0.15376 -0.04986,-0.35738 -0.04986,-0.35738c0.43333,-0.57383 1.16665,-1.54492 1.59997,-2.11875c0,0 0.15376,-0.20362 0.35738,-0.04986c0.20362,0.15376 0.04986,0.35738 0.04986,0.35738c-0.43333,0.57383 -0.86665,1.14765 -1.29998,1.72148l-0.29999,0.39727c0,0 -0.15377,0.20362 -0.35738,0.04986z" fill="#0e1501" stroke="none" stroke-width="0.5"/></g><g text-anchor="start"><g><g><g fill="none" stroke="none" stroke-width="1" font-family="sans-serif" font-weight="normal" font-size="12"/><g fill="url(#color-7)" stroke="#000000" stroke-width="3.5" font-family="&quot;Helvetica Neue&quot;, Helvetica, Arial, sans-serif" font-weight="400" font-size="16"/><g fill="none" stroke="none" stroke-width="1" font-family="sans-serif" font-weight="normal" font-size="12"/></g><g><g fill="url(#color-8)" stroke="#000000" stroke-width="3.5" font-family="&quot;Helvetica Neue&quot;, Helvetica, Arial, sans-serif" font-weight="400" font-size="16"/><g fill="url(#color-9)" stroke="#e3efff" stroke-width="3.5" font-family="&quot;Helvetica Neue&quot;, Helvetica, Arial, sans-serif" font-weight="400" font-size="16"/><g fill="none" stroke="none" stroke-width="1" font-family="sans-serif" font-weight="normal" font-size="12"/></g></g><g data-paper-data="{&quot;index&quot;:null}"><g><g fill="url(#color-10)" stroke="#000000" stroke-width="3.5" font-family="&quot;Helvetica Neue&quot;, Helvetica, Arial, sans-serif" font-weight="400" font-size="16"/><g fill="url(#color-11)" stroke="#000000" stroke-width="3.5" font-family="&quot;Helvetica Neue&quot;, Helvetica, Arial, sans-serif" font-weight="400" font-size="16"/><g fill="none" stroke="none" stroke-width="1" font-family="sans-serif" font-weight="normal" font-size="12"/></g><g><g fill="url(#color-12)" stroke="#000000" stroke-width="3.5" font-family="&quot;Helvetica Neue&quot;, Helvetica, Arial, sans-serif" font-weight="400" font-size="16"/><g fill="none" stroke="none" stroke-width="1" font-family="sans-serif" font-weight="normal" font-size="12"/><g fill="none" stroke="none" stroke-width="1" font-family="sans-serif" font-weight="normal" font-size="12"/></g></g></g></g><g data-paper-data="{&quot;index&quot;:null}"><g stroke="#000000" stroke-width="2"><path d="M299.09108,95.73367c-3.34804,14.02942 -10.90302,24.24725 -16.87451,22.82218c-5.97149,-1.42506 -8.0982,-13.9534 -4.75017,-27.98279c3.34804,-14.02942 10.90301,-24.24724 16.87449,-22.82217c5.97149,1.42506 8.09822,13.95339 4.75018,27.98278z" fill="#9966ff" stroke-linecap="butt"/><path d="M299.49908,110.97967l-11.8558,15.61502l-2.77407,-10.30019l-13.19579,11.44584l-3.6633,-22.07702" fill="#58ff00" stroke-linecap="round"/><path d="M300.2355,78.40895c-0.70622,2.95931 -3.27789,4.88121 -5.74398,4.29269c-2.46609,-0.58852 -3.89273,-3.4646 -3.18651,-6.4239c0.70622,-2.95931 3.27788,-4.88121 5.74397,-4.29269c2.46609,0.58852 3.89274,3.4646 3.18652,6.42391z" fill="#58ff00" stroke-linecap="butt"/><path d="M287.31769,70.69245l1.71409,5.04279l-1.09235,3.85819l3.0297,3.12571l-0.73624,3.08508l4.83243,1.32486l-5.36942,5.24017l-8.14626,-8.29399l-2.03335,-0.82849" fill="#00e6ff" stroke-linecap="round"/><path d="M298.64128,80.77442l-2.7566,-7.86588" fill="none" stroke-linecap="round"/><path d="M284.21319,77.58865l6.82889,-1.28785l-5.22367,7.50601l6.91377,-0.92436l-2.37658,4.92468" fill="none" stroke-linecap="round"/></g><g stroke="#545454" stroke-width="1"><path d="M300.35901,149.77814c0,1.51048 -1.31275,2.38679 -2.6981,2.38679c-3.83673,0 -22.02678,0 -28.22642,0c-1.30226,0 -2.07547,-0.69029 -2.07547,-1.5566c0,-6.89786 0,-37.90592 0,-43.37737c0,-1.59381 0.85577,-3.00942 2.28303,-3.00942c6.38801,0 24.22407,0 28.01887,0c1.38535,0 2.6981,1.30652 2.6981,2.80189c0,5.1041 0,34.17051 0,42.75472z" fill="#a1a1a0" stroke-linecap="butt"/><path d="M292.26468,103.5989l3.73585,48.56604" fill="none" stroke-linecap="round"/><path d="M279.18921,104.63665l1.86792,47.94339" fill="none" stroke-linecap="round"/><path d="M272.75524,152.78758l-0.4151,-48.56604" fill="none" stroke-linecap="round"/></g><g fill="#c1c1c1" stroke="#545454" stroke-width="1"><path d="M303.04409,65.38847c0.05275,0.14285 -0.90563,0.59081 -1.94926,0.97607c-2.89035,1.06699 -16.59361,6.12564 -21.26403,7.84975c-0.98105,0.36216 -1.58765,0.51191 -1.61789,0.42997c-0.24083,-0.65237 -1.32341,-3.58496 -1.51443,-4.10241c-0.05564,-0.15073 0.53961,-0.52262 1.61482,-0.91953c4.81235,-1.7765 18.24892,-6.7367 21.10769,-7.79203c1.04364,-0.38526 2.0782,-0.62677 2.13041,-0.48535c0.1782,0.48272 1.193,3.23168 1.4927,4.04353z" stroke-linecap="butt"/><path d="M285.26195,71.11984l-2.81961,-7.40456l10.38687,-3.14495l2.95216,5.54589" stroke-linecap="round"/><path d="M286.46091,69.81546l-1.07543,-5.24766l6.55505,-1.3857l1.96109,4.14511" stroke-linecap="round"/></g></g></g></g></svg>