<svg version="1.1" xmlns="http://www.w3.org/2000/svg" xmlns:xlink="http://www.w3.org/1999/xlink" width="108.43337" height="62.93666" viewBox="0,0,108.43337,62.93666"><g transform="translate(-181.53383,-149.97414)"><g data-paper-data="{&quot;isPaintingLayer&quot;:true}" fill-rule="nonzero" stroke-linejoin="miter" stroke-miterlimit="10" stroke-dasharray="" stroke-dashoffset="0" style="mix-blend-mode: normal"><g stroke-width="1.5" stroke-linecap="round"><path d="M211.93519,150.75644l3.96201,2.68854l19.65248,11.60922l-4.69528,6.83111l-24.51115,-13.55577l-0.10322,-6.78808z" fill="#09f4c9" stroke="#498f82"/><g fill="none" stroke="#b5e8e1"><path d="M230.51017,167.23397c0,0 -11.95394,-6.61259 -15.59897,-8.62892c-1.96708,-1.08814 -7.92057,-6.13837 -7.92057,-6.13837"/></g></g><g stroke-width="1.5" stroke-linecap="round"><path d="M193.91036,185.30369l4.77155,0.39754l22.8205,0.46767l-0.73754,8.25625l-28.00904,0.22138l-3.42195,-5.86335z" fill="#09f4c9" stroke="#498f82"/><g fill="none" stroke="#b5e8e1"><path d="M218.18179,190.5417c0,0 -13.66059,0.10664 -17.82601,0.13916c-2.24791,0.01755 -9.91379,-1.46004 -9.91379,-1.46004"/></g></g><g data-paper-data="{&quot;index&quot;:null}" stroke-width="1.5" stroke-linecap="round"><path d="M184.33388,187.69169l3.87405,-6.63799l31.7095,0.25063l0.83499,9.34703l-25.83547,0.52946l-5.40195,0.45006z" fill="#09f4c9" stroke="#498f82"/><g fill="none" stroke="#b5e8e1"><path d="M185.58839,187.19623c0,0 8.67866,-1.6728 11.22357,-1.65293c4.71574,0.03681 20.18112,0.15754 20.18112,0.15754"/></g></g><g stroke-width="1.5" stroke-linecap="round"><path d="M198.4325,161.64031l5.31862,1.04687l25.61706,3.39381l-1.8673,9.1966l-31.54139,-3.27054l-4.11332,-6.77698z" fill="#09f4c9" stroke="#498f82"/><g fill="none" stroke="#b5e8e1"><path d="M225.08259,170.83364c0,0 -15.38322,-1.5966 -20.07391,-2.08344c-2.53139,-0.26273 -9.97075,-2.63848 -9.97075,-2.63848"/></g></g><g stroke-width="1.5" stroke-linecap="round"><path d="M188.52392,169.96816l6.5,0.25l31,-0.75l-0.5,11.25l-38,2l-5,-7.75z" fill="#09f4c9" stroke="#498f82"/><g fill="none" stroke="#b5e8e1"><path d="M221.78255,175.60433c0,0 -18.53346,0.97364 -24.18473,1.27053c-3.04978,0.16022 -13.54344,-1.37998 -13.54344,-1.37998"/></g></g><g stroke-linecap="butt"><path d="M288.7172,184.3556c0,12.01219 -6.26801,21.75 -14,21.75c-7.73199,0 -14,-9.73781 -14,-21.75c0,-12.01219 6.26801,-21.75 14,-21.75c7.73199,0 14,9.73781 14,21.75z" fill="#09f4c9" stroke="#498f82" stroke-width="2.5"/><path d="M286.7172,184.3556c0,8.42234 -3.69365,15.25 -8.25,15.25c-4.55635,0 -8.25,-6.82766 -8.25,-15.25c0,-8.42234 3.69365,-15.25 8.25,-15.25c4.55635,0 8.25,6.82766 8.25,15.25z" fill="#0f0f0f" stroke="none" stroke-width="0"/></g><path d="M267.75001,187.6608c0,13.25484 -11.52867,24 -25.75,24c-14.22133,0 -25.75,-10.74516 -25.75,-24c0,-13.25484 11.52867,-24 25.75,-24c14.22133,0 25.75,10.74516 25.75,24z" fill="#09f4c9" stroke="#498f82" stroke-width="2.5" stroke-linecap="butt"/><g data-paper-data="{&quot;index&quot;:null}" stroke-width="0" stroke-linecap="butt"><path d="M266.18194,179.70802c-0.00249,1.82055 -2.24207,3.29334 -5.00226,3.28957c-2.76019,-0.00377 -4.99575,-1.48267 -4.99326,-3.30322c0.00249,-1.82055 2.24207,-3.29334 5.00226,-3.28957c2.76019,0.00377 4.99575,1.48267 4.99326,3.30322z" fill="#0f0f0f" stroke="#029f0f"/><path d="M264.26921,178.74839c-0.00096,0.70473 -0.85869,1.27485 -1.91578,1.27341c-1.05709,-0.00144 -1.91326,-0.57391 -1.91229,-1.27864c0.00096,-0.70473 0.85869,-1.27485 1.91578,-1.27341c1.05709,0.00144 1.91326,0.57391 1.91229,1.27864z" fill="#ece4e4" stroke="none"/></g><g data-paper-data="{&quot;index&quot;:null}" stroke-width="0" stroke-linecap="butt"><path d="M268.70285,188.47346c-0.00315,2.30899 -2.8436,4.17692 -6.34432,4.17214c-3.50072,-0.00478 -6.33607,-1.88046 -6.33292,-4.18945c0.00315,-2.30899 2.8436,-4.17692 6.34432,-4.17214c3.50072,0.00478 6.33607,1.88046 6.33292,4.18945z" fill="#0f0f0f" stroke="#029f0f"/><path d="M266.27695,187.25636c-0.00122,0.8938 -1.08906,1.61688 -2.42976,1.61505c-1.3407,-0.00183 -2.42656,-0.72788 -2.42534,-1.62169c0.00122,-0.8938 1.08906,-1.61688 2.42976,-1.61505c1.3407,0.00183 2.42656,0.72788 2.42534,1.62169z" fill="#ece4e4" stroke="none"/></g><path d="M228.61603,171.44972c1.87146,1.51361 2.4173,2.61025 2.26673,3.5559c-0.34406,2.16088 -4.32439,3.53339 -4.4334,7.29111c-0.04519,1.55767 -0.96834,4.53254 0.09202,5.92246c0.73114,0.95837 2.10158,2.15816 1.75689,3.53695c-0.26219,1.04874 -1.30978,2.42723 -2.51558,2.36025c-6.94065,-0.38559 -4.68396,-15.34582 -1.29611,-18.99899c0.27842,-0.30022 2.27035,-3.00945 2.48742,-3.05286z" fill="#b5e8e1" stroke="none" stroke-width="0.5" stroke-linecap="butt"/></g></g></svg>