<svg version="1.1" xmlns="http://www.w3.org/2000/svg" xmlns:xlink="http://www.w3.org/1999/xlink" width="36.17147" height="46.87031" viewBox="0,0,36.17147,46.87031"><g transform="translate(-222.19405,-156.48532)"><g data-paper-data="{&quot;isPaintingLayer&quot;:true}" fill="none" fill-rule="nonzero" stroke-linecap="round" stroke-linejoin="miter" stroke-miterlimit="10" stroke-dasharray="" stroke-dashoffset="0" style="mix-blend-mode: normal"><path d="M252.43727,190.62317c0,3.29592 -2.84586,4.52905 -5.97179,5.97179c-3.12593,1.44274 -8.73324,4.83147 -14.28036,3.37536c-5.54712,-1.45612 -6.70109,-4.31241 -6.49107,-8.82786c0.21002,-4.51545 5.37683,-7.79648 7.52964,-13.50143c2.15281,-5.70495 -2.05995,2.2319 -2.33679,-0.25964c-0.27684,-2.49154 -2.08002,-9.20038 0.77893,-13.76107c2.85894,-4.5607 5.73646,-3.18313 10.12607,-3.635c4.38961,-0.45187 5.89227,-0.79206 7.52964,1.8175c1.63737,2.60956 4.01812,8.27771 0.77893,11.42429" stroke="#ffffff" stroke-width="7"/><path d="M234.78157,177.12175c3.16476,-3.98949 9.87076,-1.4889 12.98214,-1.03857c3.11137,0.45033 5.18578,0.76478 6.75071,3.89464c1.56492,3.12985 -2.74045,6.06045 -0.51929,8.56821" stroke="#ffffff" stroke-width="7"/><path d="M252.43727,190.62317c0,3.29592 -2.84586,4.52905 -5.97179,5.97179c-3.12593,1.44274 -8.73324,4.83147 -14.28036,3.37536c-5.54712,-1.45612 -6.70109,-4.31241 -6.49107,-8.82786c0.21002,-4.51545 5.37683,-7.79648 7.52964,-13.50143c2.15281,-5.70495 -2.05995,2.2319 -2.33679,-0.25964c-0.27684,-2.49154 -2.08002,-9.20038 0.77893,-13.76107c2.85894,-4.5607 5.73646,-3.18313 10.12607,-3.635c4.38961,-0.45187 5.89227,-0.79206 7.52964,1.8175c1.63737,2.60956 4.01812,8.27771 0.77893,11.42429" stroke="#000000" stroke-width="4"/><path d="M234.78157,177.12175c3.16476,-3.98949 9.87076,-1.4889 12.98214,-1.03857c3.11137,0.45033 5.18578,0.76478 6.75071,3.89464c1.56492,3.12985 -2.74045,6.06045 -0.51929,8.56821" stroke="#000000" stroke-width="4"/></g></g></svg>