<svg version="1.1" xmlns="http://www.w3.org/2000/svg" xmlns:xlink="http://www.w3.org/1999/xlink" width="56.24928" height="28.56687" viewBox="0,0,56.24928,28.56687"><g transform="translate(-262.6547,-142.88712)"><g data-paper-data="{&quot;isPaintingLayer&quot;:true}" fill-rule="nonzero" stroke-linecap="butt" stroke-linejoin="miter" stroke-miterlimit="10" stroke-dasharray="" stroke-dashoffset="0" style="mix-blend-mode: normal"><g><path d="M315.72337,163.72679c-4.01169,6.21978 -12.95802,8.32658 -19.9822,4.70567c-7.02418,-3.62091 -9.46629,-11.59837 -5.45462,-17.81815c4.01169,-6.21978 12.95802,-8.32658 19.9822,-4.70567c7.02418,3.62091 9.46629,11.59836 5.45462,17.81814z" fill="#030d00" stroke="#656565" stroke-width="2.5"/><path d="M315.72337,163.72679c-4.01169,6.21978 -12.95802,8.32658 -19.9822,4.70567c-7.02418,-3.62091 -9.46629,-11.59837 -5.45462,-17.81815c4.01169,-6.21978 12.95802,-8.32658 19.9822,-4.70567c7.02418,3.62091 9.46629,11.59836 5.45462,17.81814z" fill="#656565" stroke="none" stroke-width="0"/><path d="M295.13857,150.4737c1.48625,4.12201 4.89951,8.34647 3.44057,12.7161c-0.83296,2.49478 -3.90669,4.93403 -6.30478,5.64407c-1.31639,0.38976 -2.74486,0.07426 -4.11764,0.09071c-4.31713,0.05175 -8.72728,0.10569 -12.8874,-1.28542c-1.35044,-0.45158 -5.98674,-3.04968 -6.22219,-4.0905c-0.22906,-1.01257 0.34246,-2.72125 1.14018,-3.73669c-0.44051,0.02036 -0.88022,-0.00128 -1.30651,-0.09385l-2.61015,0.52203c-0.17418,0.03842 -0.35518,0.05867 -0.54091,0.05867c-1.38071,0 -2.5,-1.11929 -2.5,-2.5c0,-1.22888 0.88665,-2.25067 2.05512,-2.46053l2.43432,-0.48686c0.49807,-0.32476 1.93142,-1.23612 1.8577,-1.90026c-0.1091,-0.98285 -1.76165,-0.91126 -2.56401,-1.49235l-2.73259,-1.09304c-0.94948,-0.35452 -1.62559,-1.26971 -1.62559,-2.34282c0,-1.22888 0.88665,-2.25067 2.05512,-2.46053l2.82984,-0.56597l0.01777,0.08886l0.22617,-0.12524c9.21802,-0.03034 19.29544,-1.16132 28.33906,0.61143c0,0 2.45145,0.49029 1.96116,2.94174c-0.49029,2.45145 -2.94174,1.96116 -2.94174,1.96116c-0.00117,-0.00024 -0.00235,-0.00048 -0.00352,-0.00072zM291.81867,149.94224c-0.54549,-0.06529 -1.0943,-0.12116 -1.64593,-0.16862l1.29883,0.32392z" fill="#656565" stroke="none" stroke-width="0.5"/></g></g></g></svg>