<svg version="1.1" xmlns="http://www.w3.org/2000/svg" xmlns:xlink="http://www.w3.org/1999/xlink" width="43.72491" height="33.12506" viewBox="0,0,43.72491,33.12506"><defs><linearGradient x1="290.09463" y1="184.35558" x2="332.75079" y2="184.35558" gradientUnits="userSpaceOnUse" id="color-1"><stop offset="0" stop-color="#7600d4" stop-opacity="0.5"/><stop offset="1" stop-color="#c800ec" stop-opacity="0.50806"/></linearGradient></defs><g transform="translate(-289.56026,-167.79307)"><g data-paper-data="{&quot;isPaintingLayer&quot;:true}" fill="url(#color-1)" fill-rule="nonzero" stroke="#6600b3" stroke-width="1" stroke-linecap="butt" stroke-linejoin="miter" stroke-miterlimit="10" stroke-dasharray="" stroke-dashoffset="0" style="mix-blend-mode: normal"><path d="M304.21638,168.63854l0.01883,-0.03296l0.07157,-0.01789c0.3511,-0.188 0.75232,-0.29461 1.17843,-0.29461h9l0.20271,0.05068l0.20828,-0.01666l1.5,0.25l0.22406,0.09742l0.24275,0.02774l1,0.375l0.02299,0.01586l0.02768,0.00378l0.41188,0.16475l0.39993,0.07998l0.18459,0.08743l0.20292,0.02319l1,0.375l0.02299,0.01586l0.02768,0.00378l1.03688,0.41475l0.39993,0.07998l0.20902,0.09901l0.22917,0.03125l0.46747,0.18698l0.03682,0.0092h0.81723l0.29858,0.07465h0.30777l0.40314,0.10079l0.65151,0.10859l0.18186,0.07907l0.19772,0.01521l0.22025,0.07342l0.02709,-0.00739l0.06158,0.03695l0.06608,0.02203l0.48463,0.3084l0.49257,0.29554l0.04926,0.04926l0.06058,0.03855l0.00551,0.02754l0.38466,0.38466l0.20676,0.34461l0.26154,0.30513l0.05539,0.11079l0.16366,0.2455l0.05313,0.14877l0.10281,0.11995l0.14231,0.28462l0.14315,0.23857l0.16598,0.09484l0.07791,0.31164l0.16527,0.27545l-0.03249,0.11913l0.33787,0.67575l0.05972,0.26877l0.12957,0.24293l0.05844,0.23377l0.00227,0.00454l0.00908,0.04088l0.03612,0.14446l0.09044,0.14212l0.21414,0.64241l0.82954,1.89611l0.00683,0.04037l0.02397,0.0332l1.75,4.375l0.03665,0.26874l0.10815,0.24874l0.125,0.75l-0.00089,0.0111l0.02058,0.09262l0.13932,0.55728v0.06966l0.01558,0.07009l-0.01558,0.02337v0.58688l-0.07464,0.29857v0.30777l-0.125,0.5l-0.12957,0.24293l-0.05972,0.26877l-0.17054,0.34108l-0.06882,0.20645l-0.09661,0.15181l-0.03903,0.17566l-0.25,0.5l-0.26154,0.30513l-0.09616,0.16026l-0.12754,0.25509l0.00264,0.03823l-0.43504,0.47854l-0.42089,0.49103l-0.03826,0.00213l-0.34753,0.23168l-0.31446,0.11231l-0.28172,0.17927l-0.375,0.125l-0.09774,0.00752l-0.08649,0.04613l-0.5,0.125h-0.1019l-0.09345,0.04063l-0.75,0.125l-0.20828,-0.01667l-0.20271,0.05068h-2.04176l-1.79194,0.11947l-0.08374,-0.01511l-0.08256,0.02064h-0.3821l-0.08909,0.31181l-0.05133,0.08896l-0.01166,0.10205l-0.35875,0.95667l-0.48537,1.45609l-0.04035,0.06342l-0.01016,0.07449l-1,2.5l-0.11852,0.16411l-0.05894,0.19366l-0.375,0.625l-0.21762,0.21762l-0.15834,0.26391l-0.5,0.5l-0.42292,0.25375l-0.09485,0.16598l-0.31164,0.07791l-0.27545,0.16527l-0.18443,-0.0503l-0.47848,0.11962h-1.125l-0.29857,-0.07464h-0.30777l-0.5,-0.125l-0.24293,-0.12956l-0.26876,-0.05973l-0.34109,-0.17055l-0.58144,-0.19382l-0.06343,-0.04036l-0.07448,-0.01016l-0.46747,-0.18698l-0.3354,-0.08385l-0.24293,-0.12956l-0.26876,-0.05973l-0.45055,-0.22528l-0.2967,-0.05934l-0.14277,-0.06763l-0.15751,-0.01211l-0.28392,-0.09464l-0.90686,-0.22671l-0.24293,-0.12956l-0.20607,-0.0458h-0.06966l-0.45934,-0.11483l-0.46914,-0.06397l-0.55678,-0.22271l-0.21422,-0.0714l-0.40686,-0.10171l-0.08649,-0.04613l-0.09774,-0.00752l-0.36513,-0.12171h-3.22175l-0.32393,0.06479l-0.44228,0.11057h-0.30777l-0.29858,0.07464h-0.31723l-0.10828,0.02707l-0.28392,0.09464l-0.40069,0.03082l-0.38988,0.09747h-2.875l-0.29857,-0.07464h-0.30777l-1,-0.25l-0.30321,-0.16171l-0.3308,-0.09304l-0.875,-0.5l-0.16024,-0.15356l-0.19987,-0.09649l-0.7308,-0.609l-0.57498,-0.45999l-0.33826,-0.2537l-0.02804,-0.00155l-0.04673,-0.05452l-0.05573,-0.0418l-0.36223,-0.44582l-0.37383,-0.43614l-0.03115,-0.06231l-0.04528,-0.05573l0.00348,-0.02786l-0.2291,-0.4582l-0.02438,-0.01393l-0.01741,-0.06966l-0.03116,-0.0623l-0.12461,-0.56076l-0.13932,-0.55728v-0.06966l-0.01558,-0.07009l0.01558,-0.02337v-0.29876l-0.01558,-0.02337l0.01558,-0.07009v-0.06966l0.13932,-0.55728l0.12461,-0.56076l0.03116,-0.0623l0.01741,-0.06966l0.02438,-0.01393l0.03728,-0.07458l-0.00263,-0.03823l0.43504,-0.47854l0.42088,-0.49103l0.03827,-0.00213l0.34753,-0.23168l0.40291,-0.1439l0.27715,-0.14782l-0.04109,-0.00316h-0.0891l-0.02337,0.01558l-0.07009,-0.01558h-0.06966l-0.55728,-0.13932l-0.30708,-0.06824l-0.04855,0.01324l-0.0636,-0.03817l-0.14151,-0.03144l-0.0623,-0.03116l-0.06966,-0.01741l-0.01393,-0.02438l-0.1041,-0.05205l-0.30513,-0.26154l-0.2126,-0.12756l-0.01178,-0.00066l-0.01131,-0.0132l-0.10891,-0.06534l-0.25,-0.25l-0.06534,-0.10891l-0.0132,-0.01132l-0.00066,-0.01178l-0.12756,-0.2126l-0.26154,-0.30513l-0.05205,-0.10411l-0.02438,-0.01393l-0.01741,-0.06966l-0.03116,-0.0623l-0.03144,-0.14151l-0.03817,-0.0636l0.01324,-0.04855l-0.06824,-0.30709l-0.13932,-0.55728v-0.06966l-0.01558,-0.07009l0.01558,-0.02337v-1.33688l0.09747,-0.38987l0.03082,-0.40069l0.125,-0.375l0.06957,-0.10934l-0.00355,-0.01301l0.03817,-0.0636l0.03144,-0.14151l0.125,-0.25l0.26154,-0.30513l0.12756,-0.2126l0.00066,-0.01178l0.0132,-0.01132l0.06534,-0.10891l0.25,-0.25l0.10891,-0.06534l0.01131,-0.0132l0.01178,-0.00066l0.2126,-0.12756l0.30513,-0.26154l0.36078,-0.18039l0.2455,-0.16367l0.31446,-0.11231l0.28172,-0.17927l0.75,-0.25l0.09774,-0.00752l0.08649,-0.04613l0.33096,-0.08274l-0.04581,-0.06343l-0.21138,-0.52845l-0.4535,-0.90699l-0.03904,-0.17566l-0.0966,-0.15181l-0.03524,-0.10571l-0.18937,-0.16232l-0.0049,-0.08822l-0.04156,-0.04155l-0.08176,-0.13627l-0.01154,-0.01346l-0.0173,-0.03462l-0.09616,-0.16026l-0.26154,-0.30513l-0.05205,-0.10411l-0.02438,-0.01393l-0.01741,-0.06966l-0.03116,-0.0623l-0.03144,-0.14151l-0.03817,-0.0636l0.01324,-0.04855l-0.06824,-0.30709l-0.13932,-0.55728v-0.06966l-0.01558,-0.07009l0.01558,-0.02337v-0.04876l-0.01558,-0.02337l0.01558,-0.07009v-0.06966l0.13932,-0.55728l0.12461,-0.56076l0.03116,-0.0623l0.01741,-0.06966l0.02438,-0.01393l0.05205,-0.10411l0.13284,-0.15498l0.00692,-0.12453l0.37626,-0.32251l0.32251,-0.37626l0.12453,-0.00692l0.15498,-0.13284l0.11078,-0.05539l0.2455,-0.16367l0.0574,-0.02051l0.04311,-0.0431l0.625,-0.375l0.0136,-0.00414l0.02264,-0.03963l0.60239,-0.15059l0.04767,-0.01451l0.54647,-0.21858l0.22917,-0.03125l0.20902,-0.09901l0.2967,-0.05934l0.11468,-0.05734l0.54267,-0.3256l0.26339,-0.08017l0.23228,-0.14781l0.48965,-0.16322l1.01468,-0.6088l0.20954,-0.06378l0.17925,-0.12586l1.50884,-0.58032l0.01361,-0.02382l0.06966,-0.01741l0.0623,-0.03115l0.28125,-0.0625l0.21875,-0.1875l0.5,-0.25l1.05707,-0.2349c0.12761,-0.11661 0.26736,-0.22018 0.41712,-0.30857z"/></g></g></svg>