<svg version="1.1" xmlns="http://www.w3.org/2000/svg" xmlns:xlink="http://www.w3.org/1999/xlink" width="121.8844" height="118.12847" viewBox="0,0,121.8844,118.12847"><g transform="translate(-184.42496,-128.62877)"><g data-paper-data="{&quot;isPaintingLayer&quot;:true}" fill-rule="nonzero" stroke-linecap="butt" stroke-linejoin="miter" stroke-miterlimit="10" stroke-dasharray="" stroke-dashoffset="0" style="mix-blend-mode: normal"><path d="M217.63819,144.16752c-1.10686,-1.30495 -0.08408,-2.88917 -0.08408,-2.88917c0.66591,-1.01785 1.20281,-2.13293 1.99773,-3.05357c0.77421,-0.89667 1.5809,-1.87597 2.66703,-2.34897c1.69356,-0.73754 3.75368,-1.97603 5.41637,-1.1713c3.96478,1.91891 3.51644,13.01603 9.49215,12.08112c7.90181,-1.23625 15.68268,-3.61165 23.61252,-4.92829c1.06205,-0.17634 6.91596,-1.27608 7.73726,-0.82294c3.5197,1.94194 3.23057,5.06604 3.59006,8.20929c-0.16721,1.22257 -0.25816,2.45801 -0.50162,3.6677c-0.11051,0.54907 -0.795,1.07932 -0.55569,1.58571c0.4188,0.88622 4.79425,2.30301 4.99798,2.39767c4.16734,1.93634 7.88539,4.48248 11.72453,6.97364c2.45047,1.59007 5.26804,2.87233 6.78905,5.55245c3.19748,5.63418 0.90874,12.81532 -0.46972,18.56804c-0.55504,2.31636 -0.74709,4.73448 -1.55977,6.97348c-0.16874,0.4649 -1.09453,0.81945 -0.82432,1.23369c3.10781,4.76434 13.04154,3.68256 10.05908,12.11561c-0.54396,1.53808 -2.16001,2.44554 -3.24001,3.66831c-7.79091,6.79333 -18.41296,9.67957 -27.23598,15.03469c-3.07848,1.86848 -7.42841,6.41231 -11.48016,5.32082c-1.21162,-0.32639 -1.60317,-1.9524 -2.57573,-2.74531c-3.17687,-2.59005 -7.2368,-4.09536 -11.25521,-4.68884c-0.32476,-0.04796 -3.28342,-0.41096 -4.04292,0.17375c-1.25798,0.96848 -2.94141,4.75437 -4.31745,5.0284c-3.0763,0.61264 -5.06303,-2.28344 -6.6902,-4.05569c-3.90588,-5.20263 -7.34756,-10.87973 -9.87732,-16.90303c-0.59766,-1.423 -1.15455,-2.8674 -1.5982,-4.34568c-0.09886,-0.32942 0.30645,-0.91094 -0.0156,-1.03168c-0.32755,-0.1228 -0.41667,0.60162 -0.73297,0.75103c-1.09942,0.51931 -2.31869,0.74407 -3.43796,1.21911c-5.02373,2.13214 -12.39551,7.1824 -17.43801,1.77947c-4.61701,-4.94703 2.44043,-9.41611 2.17727,-14.02407c-0.20851,-3.65098 -6.09021,-6.43102 -8.44274,-7.95055c-1.07094,-0.56014 -5.99751,-3.1153 -6.14649,-3.33571c-2.09365,-3.0974 -0.28389,-5.60815 1.12796,-8.12121c3.12093,-5.55518 6.93499,-10.01484 11.39022,-14.49809c0.78128,-0.78619 1.3628,-1.79704 2.27809,-2.42213c1.88024,-1.2841 6.57895,-2.58216 8.50751,-3.19857c0.84205,-0.26914 2.85983,-0.23713 2.44825,-1.01949c-1.11369,-2.11698 -4.43203,-3.03924 -2.71377,-6.61691c1.58055,-3.29093 5.67051,-2.89256 9.22287,-2.1628z" fill-opacity="0.48866" fill="#f3efef" stroke="none" stroke-width="0.5"/><path d="M266.37098,142.53129c0.64752,-1.58391 2.52488,-1.4069 2.52488,-1.4069c1.21025,0.12152 2.44727,0.08373 3.63074,0.36455c1.15265,0.2735 2.39361,0.53771 3.31417,1.28335c1.43539,1.16265 3.48434,2.41955 3.537,4.26599c0.12558,4.40295 -9.92799,9.12236 -6.34282,13.99367c4.74075,6.44145 10.43652,12.25029 15.26153,18.67953c0.64622,0.86108 4.32148,5.5483 4.29812,6.48602c-0.1001,4.01863 -3.00554,5.20271 -5.62887,6.97115c-1.16193,0.4154 -2.30011,0.9044 -3.48578,1.2462c-0.53817,0.15514 -1.32431,-0.20772 -1.6633,0.23814c-0.59325,0.78028 0.16725,5.31608 0.1772,5.54051c0.20352,4.59072 -0.34123,9.06397 -0.78136,13.61932c-0.28093,2.90761 -0.11944,5.99902 -1.79621,8.58455c-3.52492,5.43533 -10.95238,6.71591 -16.69261,8.14553c-2.31133,0.57564 -4.54556,1.52031 -6.90705,1.83167c-0.49033,0.06465 -1.23184,-0.59333 -1.47481,-0.16255c-2.79444,4.95466 2.74622,13.27031 -6.112,14.51264c-1.61562,0.22658 -3.16605,-0.78892 -4.74908,-1.18338c-9.62058,-3.78049 -17.07981,-11.87484 -25.90015,-17.23436c-3.07755,-1.87001 -9.11532,-3.63454 -10.01521,-7.73311c-0.2691,-1.22562 0.99315,-2.32286 1.24825,-3.55147c0.83327,-4.01329 0.29681,-8.30995 -1.0296,-12.14928c-0.1072,-0.31028 -1.14943,-3.10299 -2.01849,-3.50729c-1.43946,-0.66965 -5.57508,-0.41761 -6.45278,-1.51225c-1.9622,-2.44719 -0.30856,-5.54556 0.51367,-7.80663c2.81532,-5.86491 6.26573,-11.53672 10.44383,-16.55899c0.98708,-1.18651 2.01193,-2.34672 3.11907,-3.42207c0.24671,-0.23963 0.94962,-0.14814 0.90825,-0.48958c-0.04208,-0.34727 -0.72598,-0.0923 -1.00441,-0.30407c-0.96779,-0.73608 -1.72946,-1.71433 -2.66711,-2.48844c-4.20852,-3.47451 -12.08914,-7.68689 -9.62021,-14.65272c2.2606,-6.37805 9.48057,-2.1766 13.44801,-4.535c3.14348,-1.8686 2.89806,-8.36959 3.16155,-11.15776c0.00318,-1.20858 -0.00134,-6.75834 0.12553,-6.99218c1.78297,-3.28607 4.84538,-2.83801 7.72634,-2.74408c6.36845,0.20762 12.08443,1.53546 18.11701,3.42135c1.05788,0.33071 2.223,0.38059 3.19973,0.9045c2.00646,1.07625 5.325,4.64699 6.76128,6.07402c0.62711,0.62307 1.52918,2.42826 2.0336,1.70229c1.3649,-1.96442 0.65306,-5.33417 4.61999,-5.45928c3.64899,-0.11508 5.18151,3.69777 6.17209,7.1864z" fill-opacity="0.48866" fill="#f3efef" stroke="none" stroke-width="0.5"/><path d="M200.77931,167.34775c-1.6377,-0.49597 -1.6377,-2.38166 -1.6377,-2.38166c0.00737,-1.21631 -0.14636,-2.44432 0.02212,-3.64893c0.1641,-1.17324 0.31065,-2.43352 0.96659,-3.42001c1.02277,-1.5382 2.08179,-3.69607 3.91513,-3.92183c4.37172,-0.53833 10.01402,9.02784 14.52728,5.00123c5.96799,-5.32447 11.21652,-11.54037 17.16446,-16.94758c0.79662,-0.7242 5.11815,-4.82322 6.05392,-4.88798c4.01029,-0.27757 5.46185,2.50389 7.46874,4.94964c0.52263,1.1178 1.11632,2.20506 1.5679,3.35341c0.20497,0.52123 -0.08249,1.33797 0.39322,1.6336c0.83252,0.51738 5.27691,-0.66553 5.49941,-0.6965c4.55135,-0.63355 9.05598,-0.51111 13.63252,-0.50053c2.92114,0.00675 5.98374,-0.44422 8.71526,0.98245c5.74221,2.99915 7.71436,10.2736 9.6765,15.85429c0.79006,2.24709 1.94028,4.38278 2.47194,6.70461c0.11039,0.4821 -0.47508,1.2821 -0.02339,1.48356c5.19509,2.31701 12.95393,-3.97978 15.02229,4.72271c0.37724,1.58722 -0.48825,3.22613 -0.73237,4.83919c-2.86072,9.93297 -10.21913,18.11907 -14.72702,27.40357c-1.57287,3.2395 -2.76284,9.41625 -6.75884,10.69689c-1.19495,0.38296 -2.40583,-0.77072 -3.65296,-0.90936c-4.07379,-0.45287 -8.30111,0.48454 -11.99898,2.16549c-0.29885,0.13585 -2.98139,1.43564 -3.30232,2.33881c-0.53158,1.49596 0.10757,5.58965 -0.89985,6.56623c-2.25219,2.18325 -5.49211,0.82776 -7.82038,0.22141c-6.10329,-2.25236 -12.07394,-5.15512 -17.46623,-8.84333c-1.27393,-0.87134 -2.52522,-1.78276 -3.69975,-2.78407c-0.26173,-0.22313 -0.23663,-0.93152 -0.57267,-0.85828c-0.34179,0.07449 -0.02374,0.73144 -0.20844,1.02852c-0.64199,1.03261 -1.54442,1.88275 -2.22709,2.88892c-3.06412,4.51609 -6.51814,12.75733 -13.68497,10.95318c-6.5621,-1.65191 -3.05693,-9.2344 -5.77734,-12.96293c-2.15543,-2.95419 -8.60467,-2.09961 -11.40527,-2.10021c-1.20354,0.11028 -6.72837,0.63574 -6.97309,0.53138c-3.43893,-1.46663 -3.2803,-4.55758 -3.45723,-7.43464c-0.3911,-6.35982 0.39432,-12.1752 1.70561,-18.35817c0.22995,-1.08426 0.17023,-2.24891 0.60014,-3.27051c0.88315,-2.09862 4.12662,-5.7377 5.41252,-7.30159c0.56145,-0.68283 2.274,-1.75037 1.50388,-2.18441c-2.08387,-1.17448 -5.37193,-0.14946 -5.86886,-4.08712c-0.4571,-3.62208 3.19506,-5.50574 6.5753,-6.81942z" fill-opacity="0.65323" fill="#f3efef" stroke="none" stroke-width="0.5"/><path d="M201.52773,195.42813c-0.65418,0.65418 -1.30836,0.4971 -1.71103,0.2833c-0.063,0.00811 -0.12724,0.0123 -0.19245,0.0123c-0.79334,0 -1.44207,-0.61918 -1.48929,-1.40065c-2.34718,-1.57427 -5.06569,-3.39844 -7.64269,-4.30089c-0.99425,-0.34818 -2.5465,0.17038 -3.07184,-0.74274c-0.50715,-0.8815 0.51565,-1.98498 0.98279,-2.88833c1.36851,-2.6464 4.80975,-4.34995 7.46836,-5.24319c0.8868,-0.29794 1.82974,-1.26912 2.67134,-0.8606c0.88323,0.42873 0.86226,1.77343 1.14567,2.71343c0.22343,0.74106 0.36029,1.54787 0.45822,2.37502c1.40652,-0.16998 3.10894,0.05621 4.07625,0.01225c3.2233,-0.14648 6.41074,-0.74756 9.63945,-0.84933c3.49589,-0.11019 7.00991,-0.00064 10.50793,-0.00064c0,0 1.49204,0 1.49204,1.49204c0,1.49204 -1.49204,1.49204 -1.49204,1.49204c-6.19312,0 -12.21937,0.13749 -18.38832,0.70083c-1.07894,0.09853 -2.1635,0.14882 -3.24692,0.14762c-0.52461,-0.00058 -1.05361,0.06271 -1.57382,-0.00508c-0.23306,-0.03037 -0.56428,-0.50475 -0.64532,-0.28413c-0.10612,0.28892 0.38773,0.50335 0.45442,0.80384c0.19184,0.8643 0.1453,2.91824 0.1458,3.79101v0.24609l0.41143,0.39576c0,0 1.05503,1.05503 0,2.11006z" fill="#878d9a" stroke="none" stroke-width="0.5"/><path d="M208.89285,198.10985c0.84203,0.23666 0.60537,1.07868 0.60537,1.07868l-0.09679,0.32036l0.0706,0.1258c0.25014,0.44631 0.8632,1.48296 1.01309,1.97983c0.05211,0.17274 -0.13882,0.42405 -0.00169,0.5413c0.10473,0.08954 0.13795,-0.248 0.24838,-0.33039c0.24649,-0.1839 0.53508,-0.30331 0.8031,-0.45412c0.55351,-0.31144 1.12238,-0.59689 1.7022,-0.85606c3.31525,-1.48186 6.43536,-3.14049 9.60134,-4.91727c0,0 0.76275,-0.42806 1.19081,0.33468c0.42806,0.76274 -0.33468,1.19081 -0.33468,1.19081c-1.78822,1.00357 -3.55319,2.06773 -5.37193,3.01435c-1.67974,0.87428 -3.48164,1.48146 -5.17145,2.33133c-0.50711,0.25504 -1.31251,0.85909 -2.0803,1.17572c0.18724,0.45094 0.34875,0.90266 0.44714,1.3456c0.1248,0.56185 0.52131,1.24325 0.19279,1.71581c-0.31303,0.45029 -1.0737,0.22434 -1.61252,0.32645c-1.61538,0.30612 -3.86331,0.42252 -5.32214,-0.53772c-0.49797,-0.32778 -1.33743,-0.59845 -1.33107,-1.19458c0.00659,-0.61751 0.94889,-0.79775 1.35727,-1.261c1.05847,-1.20067 1.92485,-2.91313 2.6731,-4.39131c-0.20006,-0.41304 -0.04607,-0.91569 0.3595,-1.14329c0.03333,-0.01871 0.06737,-0.035 0.10191,-0.04892c0.14451,-0.22482 0.43387,-0.49281 0.95597,-0.34607z" data-paper-data="{&quot;index&quot;:null}" fill="#878d9a" stroke="none" stroke-width="0.5"/><path d="M203.14286,174.87088c-0.5221,0.14674 -0.81146,-0.12124 -0.95597,-0.34606c-0.03453,-0.01393 -0.06858,-0.03022 -0.10191,-0.04893c-0.40556,-0.22761 -0.55956,-0.73025 -0.3595,-1.1433c-0.74825,-1.47818 -1.61463,-3.19064 -2.6731,-4.39131c-0.40838,-0.46324 -1.35068,-0.64348 -1.35726,-1.26099c-0.00636,-0.59613 0.83309,-0.8668 1.33106,-1.19458c1.45884,-0.96024 3.70677,-0.84383 5.32214,-0.53772c0.53882,0.10211 1.29949,-0.12384 1.61252,0.32645c0.32851,0.47257 -0.068,1.15397 -0.1928,1.71582c-0.09839,0.44294 -0.25989,0.89465 -0.44714,1.34559c0.76779,0.31663 1.57319,0.92068 2.0803,1.17572c1.6898,0.84987 3.4917,1.45706 5.17144,2.33134c1.81874,0.94663 3.58371,2.01079 5.37193,3.01436c0,0 0.76274,0.42806 0.33468,1.1908c-0.42806,0.76274 -1.1908,0.33468 -1.1908,0.33468c-3.16598,-1.77678 -6.2861,-3.4354 -9.60134,-4.91727c-0.57983,-0.25917 -1.1487,-0.54462 -1.70221,-0.85606c-0.26802,-0.15081 -0.55661,-0.27022 -0.80309,-0.45412c-0.11043,-0.08239 -0.14365,-0.41992 -0.24838,-0.33039c-0.13714,0.11725 0.0538,0.36856 0.00168,0.5413c-0.14989,0.49688 -0.76295,1.53352 -1.01309,1.97983l-0.0706,0.1258l0.09678,0.32035c0,0 0.23666,0.84202 -0.60537,1.07868z" fill="#878d9a" stroke="none" stroke-width="0.5"/><g><path d="M288.7172,184.3556c0,12.01219 -6.26801,21.75 -14,21.75c-7.73199,0 -14,-9.73781 -14,-21.75c0,-12.01219 6.26801,-21.75 14,-21.75c7.73199,0 14,9.73781 14,21.75z" fill="#01d312" stroke="#029f0f" stroke-width="2.5"/><path d="M286.7172,184.3556c0,8.42234 -3.69365,15.25 -8.25,15.25c-4.55635,0 -8.25,-6.82766 -8.25,-15.25c0,-8.42234 3.69365,-15.25 8.25,-15.25c4.55635,0 8.25,6.82766 8.25,15.25z" fill="#0f0f0f" stroke="none" stroke-width="0"/></g><g><path d="M288.7172,184.3556c0,12.01219 -6.26801,21.75 -14,21.75c-7.73199,0 -14,-9.73781 -14,-21.75c0,-12.01219 6.26801,-21.75 14,-21.75c7.73199,0 14,9.73781 14,21.75z" fill="#01d312" stroke="#029f0f" stroke-width="2.5"/><path d="M286.7172,184.3556c0,8.42234 -3.69365,15.25 -8.25,15.25c-4.55635,0 -8.25,-6.82766 -8.25,-15.25c0,-8.42234 3.69365,-15.25 8.25,-15.25c4.55635,0 8.25,6.82766 8.25,15.25z" fill="#0f0f0f" stroke="none" stroke-width="0"/></g><path d="M268.50001,187.6608c0,13.25484 -11.52867,24 -25.75,24c-14.22133,0 -25.75,-10.74516 -25.75,-24c0,-13.25484 11.52867,-24 25.75,-24c14.22133,0 25.75,10.74516 25.75,24z" fill="#01d312" stroke="#029f0f" stroke-width="2.5"/><path d="M246.98277,215.21776c-18.24348,0 -33.03276,-12.79171 -33.03276,-28.57109c0,-15.77938 14.78928,-28.57109 33.03276,-28.57109c1.51501,0 8.69264,6.72242 10.15351,6.89324c-1.86627,0.8184 -9.40948,-2.45225 -11.08178,-1.6763c-0.46229,0.21871 -1.61374,2.58399 -2.03365,2.83014c-6.45721,3.78525 -7.30069,6.21215 -7.30069,13.18982c0.00014,5.23102 1.74178,10.19135 2.57126,15.1577c0.45475,2.72272 2.13116,5.21681 2.14829,7.98944c1.53841,3.08462 2.66397,5.93789 4.80891,8.54972c1.18551,1.44356 3.56349,2.09454 4.06091,4.06532c-1.09408,0.09464 -2.20388,0.1431 -3.32677,0.1431z" fill="#222a38" stroke="#14435c" stroke-width="2"/><path d="M259.50001,178c0,-0.69036 0.55964,-1.25 1.25,-1.25c0.69036,0 1.25,0.55964 1.25,1.25c0,0.69036 -0.55964,1.25 -1.25,1.25c-0.69036,0 -1.25,-0.55964 -1.25,-1.25z" fill="#e8e4e4" stroke="none" stroke-width="0.5"/><path d="M277.93832,180.75201v-3.6h16v3.6z" fill="#939496" stroke="#14435c" stroke-width="0.5"/><path d="M278.33832,188.75201v-3.2h15.4v3.2z" fill="#939496" stroke="#14435c" stroke-width="0.5"/><path d="M277.93832,192.55201v-2.8h14.8v2.8z" fill="#939496" stroke="#14435c" stroke-width="0.5"/><path d="M276.73832,197.95201v-3h16.6v3z" fill="#939496" stroke="#14435c" stroke-width="0.5"/><path d="M277.73832,184.95201v-3.2h18v3.2z" fill="#939496" stroke="#14435c" stroke-width="0.5"/><path d="M276.67299,198.26917v-23.69355h4.73871v23.69355z" fill="#0f0f0f" stroke="#14435c" stroke-width="0"/><path d="M231.59754,198.50876c-1.89814,1.62698 -3.52512,-0.27116 -3.52512,-0.27116l-1.49685,-1.75068c-3.6299,-4.67652 -5.55033,-9.05655 -3.99441,-14.98035c0.51434,-1.95822 1.22997,-5.74813 2.96121,-7.20577c0.95066,-0.80042 2.35565,-0.79291 3.53347,-1.18936c0,0 2.41191,-0.65779 3.0697,1.75412c0.65779,2.41191 -1.75412,3.0697 -1.75412,3.0697c-2.78859,0.38571 -2.20524,2.073 -2.98275,4.87326c-1.2017,4.32805 0.47314,7.22127 3.11366,10.60869l1.34637,1.56642c0,0 1.62698,1.89814 -0.27116,3.52512z" fill="#fff900" stroke="none" stroke-width="0.5"/><path d="M221.96701,194.71514c0,0.5 -0.5,0.5 -0.5,0.5l-0.46054,-0.05279c-1.23298,-0.70004 -1.43798,-2.64219 -1.68859,-3.90465c-0.67173,-3.38395 -0.72023,-6.54593 -0.72023,-10.04789c0,0 0,-0.5 0.5,-0.5c0.5,0 0.5,0.5 0.5,0.5c0,3.43791 0.03312,6.53713 0.70139,9.8547c0.13945,0.69231 0.35902,2.91149 1.15464,3.20342l0.01333,-0.05279c0,0 0.5,0 0.5,0.5z" fill="#fff900" stroke="none" stroke-width="0.5"/><g data-paper-data="{&quot;index&quot;:null}" stroke-width="0"><path d="M266.18193,179.70802c-0.00249,1.82055 -2.24207,3.29334 -5.00226,3.28957c-2.76019,-0.00377 -4.99575,-1.48267 -4.99326,-3.30322c0.00249,-1.82055 2.24207,-3.29334 5.00226,-3.28957c2.76019,0.00377 4.99575,1.48267 4.99326,3.30322z" fill="#0f0f0f" stroke="#029f0f"/><path d="M264.2692,178.74839c-0.00096,0.70473 -0.85869,1.27485 -1.91578,1.27341c-1.05709,-0.00144 -1.91326,-0.57391 -1.91229,-1.27864c0.00096,-0.70473 0.85869,-1.27485 1.91578,-1.27341c1.05709,0.00144 1.91326,0.57391 1.91229,1.27864z" fill="#ece4e4" stroke="none"/></g><g data-paper-data="{&quot;index&quot;:null}" stroke-width="0"><path d="M268.70284,188.47346c-0.00315,2.30899 -2.8436,4.17692 -6.34432,4.17214c-3.50072,-0.00478 -6.33607,-1.88046 -6.33292,-4.18945c0.00315,-2.30899 2.8436,-4.17692 6.34432,-4.17214c3.50072,0.00478 6.33607,1.88046 6.33292,4.18945z" fill="#0f0f0f" stroke="#029f0f"/><path d="M266.27694,187.25636c-0.00122,0.8938 -1.08906,1.61688 -2.42976,1.61505c-1.3407,-0.00183 -2.42656,-0.72788 -2.42534,-1.62169c0.00122,-0.8938 1.08906,-1.61688 2.42976,-1.61505c1.3407,0.00183 2.42656,0.72788 2.42534,1.62169z" fill="#ece4e4" stroke="none"/></g><path d="M257.31157,178.74334c0.55137,1.18714 2.61161,2.7384 2.61161,2.7384l-5.04358,1.18274l-4.05373,-11.51048l3.69603,-1.30166c0,0 2.23831,7.70386 2.78968,8.89099z" data-paper-data="{&quot;index&quot;:null}" fill="#01920d" stroke="#000000" stroke-width="1"/><path d="M255.75434,194.48174l-3.09014,-0.6515l2.02895,-9.62358l4.15439,0.41481c0,0 -1.48313,1.45613 -1.79889,2.46267c-0.31576,1.00654 -1.29432,7.39759 -1.29432,7.39759z" data-paper-data="{&quot;index&quot;:null}" fill="#01920d" stroke="#000000" stroke-width="1"/></g></g></svg>