<svg version="1.1" xmlns="http://www.w3.org/2000/svg" xmlns:xlink="http://www.w3.org/1999/xlink" width="23.81016" height="19.46597" viewBox="0,0,23.81016,19.46597"><g transform="translate(-228.00737,-170.30589)"><g data-paper-data="{&quot;isPaintingLayer&quot;:true}" fill-rule="nonzero" stroke-linejoin="miter" stroke-miterlimit="10" stroke-dasharray="" stroke-dashoffset="0" style="mix-blend-mode: normal"><path d="M234.27717,174.77174l4.80435,-4.09783l1.69565,2.40217l3.1087,-1.69565l0.1413,2.26087h3.81522l-0.84783,2.40217l4.38043,0.70652l-2.68478,3.67391l1.69565,3.3913l-5.36957,0.28261l-0.84783,3.3913l-2.82609,-1.69565l-4.94565,3.53261l-0.42391,-3.25h-3.53261l0.84783,-1.69565l-4.23913,-0.70652l2.40217,-4.52174l-2.82609,-0.70652z" fill="#fff900" stroke="#000000" stroke-width="0.5" stroke-linecap="round"/><path d="M244.75,180c0,2.55432 -2.12665,4.625 -4.75,4.625c-2.62335,0 -4.75,-2.07068 -4.75,-4.625c0,-2.55432 2.12665,-4.625 4.75,-4.625c2.62335,0 4.75,2.07068 4.75,4.625z" fill="#ff9800" stroke="none" stroke-width="0" stroke-linecap="butt"/></g></g></svg>