<svg version="1.1" xmlns="http://www.w3.org/2000/svg" xmlns:xlink="http://www.w3.org/1999/xlink" width="102.70409" height="65.09382" viewBox="0,0,102.70409,65.09382"><defs><linearGradient x1="241.35893" y1="188.79813" x2="254.03618" y2="188.79813" gradientUnits="userSpaceOnUse" id="color-1"><stop offset="0" stop-color="#0f0f0f"/><stop offset="1" stop-color="#0f0f0f" stop-opacity="0"/></linearGradient><linearGradient x1="246.75518" y1="187.80357" x2="251.61028" y2="187.80357" gradientUnits="userSpaceOnUse" id="color-2"><stop offset="0" stop-color="#8f8f8f"/><stop offset="1" stop-color="#8f8f8f" stop-opacity="0"/></linearGradient><linearGradient x1="241.51975" y1="179.36786" x2="251.51527" y2="179.36786" gradientUnits="userSpaceOnUse" id="color-3"><stop offset="0" stop-color="#0f0f0f"/><stop offset="1" stop-color="#0f0f0f" stop-opacity="0"/></linearGradient><linearGradient x1="245.77447" y1="178.41244" x2="249.60254" y2="178.41244" gradientUnits="userSpaceOnUse" id="color-4"><stop offset="0" stop-color="#8f8f8f"/><stop offset="1" stop-color="#8f8f8f" stop-opacity="0"/></linearGradient><linearGradient x1="266.10249" y1="184.28705" x2="288.82374" y2="184.28705" gradientUnits="userSpaceOnUse" id="color-5"><stop offset="0" stop-color="#029f0f"/><stop offset="1" stop-color="#029f0f" stop-opacity="0"/></linearGradient></defs><g transform="translate(-193.28422,-154.62401)"><g data-paper-data="{&quot;isPaintingLayer&quot;:true}" fill-rule="nonzero" stroke-linejoin="miter" stroke-miterlimit="10" stroke-dasharray="" stroke-dashoffset="0" style="mix-blend-mode: normal"><g data-paper-data="{&quot;index&quot;:null}" stroke="#029f0f" stroke-width="1"><g><path d="M248.86366,172.08785c-0.06758,-0.04179 -0.12908,-0.08966 -0.18424,-0.14248l-0.02983,0.02905l-0.40857,-0.01417l-0.30491,0.09712l-0.21141,-0.11503l-0.18967,-0.00658l-0.01024,-0.01883l-0.15982,0.00546l-0.25776,-0.25117l-0.23811,-0.14724l-0.09503,-0.09762l-0.11588,-0.07165l-0.10968,-0.11266l-0.42811,-0.26473l-0.01242,0.00042l-0.02276,-0.02219l-0.02622,-0.01621l-0.17737,-0.18219l-0.1821,-0.17746l-0.01621,-0.02624l-0.02217,-0.02277l0.00043,-0.01243l-0.00438,-0.00707l-0.66228,-0.79395l-0.6288,-0.71912l-0.00602,-0.01176l-0.01068,-0.0078l-0.17333,-0.20779l-0.02888,-0.01786l-0.12409,-0.12747l-0.14369,-0.10489l-0.02915,-0.03494l-0.36926,-0.22834l-0.0761,0.04136l-0.54336,-0.17335l-0.24128,-0.14919l-0.01242,0.00042l-0.02277,-0.02219l-0.02623,-0.01621l-0.17737,-0.18219l-0.1821,-0.17747l-0.01621,-0.02623l-0.02217,-0.02277l0.00043,-0.01243l-0.04569,-0.07398l-0.02742,-0.08608l-0.04528,-0.0316l-0.03383,-0.21674l-0.06658,-0.20902l0.02639,-0.0485l-0.01394,-0.08927l0.00784,-0.0866l-0.00593,-0.01092l0.00966,-0.03029l0.00278,-0.03071l0.08363,-0.24013l0.07729,-0.24223l0.01622,-0.02622l0.00316,-0.00906l0.00896,-0.03789l0.0403,-0.07797l0.01256,-0.08687l0.16407,-0.40067l0.04779,-0.06504l0.047,-0.13495l0.03064,-0.09603l0.03753,-0.15884l0.08167,-0.15804l0.05407,-0.16947l0.04842,-0.0783l0.1711,-0.49125l0.08478,-0.26572l0.01339,-0.02166l-0.01035,-0.06633l-0.06658,-0.20901l0.02639,-0.0485l-0.01394,-0.08927l0.01433,-0.15851l0.04009,-0.11509l0.00777,-0.12162l0.1784,-0.55918l0.01419,-0.02294l0.00301,-0.02681l0.1026,-0.27556l0.08769,-0.37106l0.03211,-0.06212l0.00779,-0.06949l0.07493,-0.20125l0.00099,-0.01091l0.08364,-0.24013l0.07729,-0.24224l0.01622,-0.02623l0.01046,-0.03001l0.0113,-0.00518l0.00267,-0.00434l0.0478,-0.1498l0.07165,-0.11587l0.0414,-0.12978l0.16698,-0.27003l0.0884,-0.23743l0.06236,-0.09088l0.0335,-0.105l0.09211,-0.14896l0.03669,-0.09855l0.001,-0.01092l0.08363,-0.24012l0.07729,-0.24224l0.01621,-0.02623l0.01047,-0.03001l0.0113,-0.00517l0.8225,-1.33011l-0.00042,-0.01242l0.02218,-0.02276l0.01622,-0.02623l0.18219,-0.17737l0.17746,-0.1821l0.02624,-0.01621l0.02277,-0.02217l0.01242,0.00043l0.41568,-0.25677l0.02183,-0.2415l0.02621,-0.07523l-0.00103,-0.07964l0.05177,-0.21905l0.06395,-0.12371l0.00009,-0.00101l0.16013,-0.45979l0.00078,-0.02258l0.00874,-0.00475l0.01794,-0.05149l0.3387,-0.15492l0.02895,-0.02818l0.03036,0.00105l0.08678,-0.03969l0.46839,-0.25457l0.05195,0.01658l0.00904,-0.00415l0.01853,0.01294l0.46383,0.14799l0.1202,0.07433l0.01243,-0.00042l0.02276,0.02219l0.02623,0.01621l0.17737,0.18219l0.18211,0.17747l0.0162,0.02623l0.02217,0.02277l-0.00043,0.01243l0.21299,0.3448l0.03572,0.11218l0.06522,0.09801l0.1401,0.39325l0.41564,0.95256l0.25119,0.46217l0.00302,0.01172l0.008,0.00908l0.19038,0.3688l0.01036,0.0439l0.027,0.03613l0.20187,0.48186l0.09166,0.10988l0.07742,0.16016l0.10314,0.14494l0.12985,0.33136l0.00227,0.0176l0.00984,0.01478l0.15295,0.42933l0.00111,0.01133l0.00611,0.0096l0.70071,2.09873l0.14924,0.41891l0.00242,0.0249l0.01292,0.02142l0.18056,0.58754l0.09267,0.15004l0.05399,0.1695l0.0816,0.15807l0.01981,0.08402l0.04653,0.14606l0.08497,0.22178l0.00885,0.07277l0.00719,0.0226l-0.00364,0.00668l0.04258,0.35038l-0.00933,0.07487l0.01732,0.07345l-0.00504,0.37608l0.04663,0.81859l0.07177,0.95544l-0.00083,0.00481l0.00149,0.00464l0.03804,0.57172l0.00918,0.0128l-0.0548,0.29369l-0.05306,0.29401l-0.01313,0.00871l-0.22258,0.486l-0.04367,0.05462l-0.02125,0.06661l-1.64715,2.66371c-0.0992,0.16043 -0.23274,0.28666 -0.38527,0.37507l-0.02339,0.02277l-0.0168,-0.00058c-0.33526,0.17617 -0.75233,0.17553 -1.09777,-0.03807z" fill="#01d312" stroke-linecap="butt"/><path d="M247.7206,155.93671l-0.35869,14.92564" fill="none" stroke-linecap="round"/></g><g data-paper-data="{&quot;index&quot;:null}"><path d="M238.82409,169.76371l-0.01236,-0.00492l-0.00972,-0.02397c-0.08249,-0.11264 -0.13919,-0.24668 -0.16011,-0.39459l-0.34728,-2.45594l0.00577,-0.05508l-0.0143,-0.0535l-0.00682,-0.4233l-0.00675,-0.01049l0.05504,-0.23012l0.05368,-0.23045l0.01074,-0.00636l0.20946,-0.40256l0.00256,-0.00289l0.00093,-0.00374l0.356,-0.67014l0.29423,-0.57888l0.11599,-0.27438l0.03593,-0.04775l0.01704,-0.05728l0.14234,-0.24059l-0.00051,-0.006l0.01241,-0.01411l0.02956,-0.04997l0.13218,-0.13381l0.08021,-0.09114l0.0411,-0.05464l0.10947,-0.08868l0.09309,-0.10576l0.11495,-0.07933l0.31786,-0.3687l0.01619,-0.01142l0.00968,-0.01728l0.2415,-0.25635l1.17587,-1.29927l0.00749,-0.00501l0.00441,-0.00786l0.24751,-0.26273l0.01184,-0.00758l0.00725,-0.01205l0.19958,-0.19902l0.12091,-0.07231l0.1071,-0.09153l0.10143,-0.05054l0.2997,-0.28526l0.03108,-0.01762l0.02147,-0.02855l0.2554,-0.20691l0.00868,-0.00405l0.00593,-0.00753l0.32921,-0.25529l0.60449,-0.55866l0.22671,-0.24066l0.07849,-0.05033l0.0616,-0.06999l0.26416,-0.18232l0.00364,-0.00915l0.02333,-0.00947l0.02009,-0.01387l0.18854,-0.07078l0.1866,-0.07571l0.02419,-0.00342l0.02356,-0.00884l0.00888,0.00426l0.11082,-0.01567l0.38349,0.04022l0.01756,-0.00348l0.00525,0.00588l0.04295,0.00451l0.25874,0.33364l0.05032,0.0564l0.02235,0.00889l0.01203,0.02965l0.19638,0.22011l-0.00336,0.04306l0.00482,0.00622l-0.00662,0.01664l-0.03012,0.38441l-0.00026,0.00077l0.00702,0.11006l-0.03213,0.17534l-0.02608,0.05744l-0.00493,0.06289l-0.06099,0.1821l0.21981,0.31848l0.00915,0.00365l0.00947,0.02333l0.01387,0.02009l0.07077,0.18854l0.07572,0.1866l0.00342,0.02418l0.00884,0.02357l-0.00426,0.00887l0.17342,1.22636l0.00655,0.00734l-0.00196,0.0251l0.00342,0.02418l-0.02101,0.20028l-0.01574,0.20077l-0.00276,0.00823l-0.00474,0.08316l0.01942,0.13734l-0.0091,0.08682l0.01632,0.08576l-0.01141,0.20033l0.03521,0.24897l-0.01126,0.1073l0.01511,0.10684l-0.01299,0.12386l0.00056,0.004l0.00655,0.00734l-0.00196,0.0251l0.00342,0.02419l-0.02101,0.20028l-0.01574,0.20076l-0.00276,0.00823l-0.00968,0.16979l-0.01647,0.05288l0.00352,0.05527l-0.05443,0.29701l-0.01326,0.2325l-0.00635,0.0204l0.00299,0.02116l-0.04849,0.46231l-0.03305,0.09069l-0.00754,0.09622l-0.04003,0.11952l-0.0385,0.06031l0.00371,0.04357l-0.11477,0.13043l-0.0286,0.04481l0.00282,0.01997l-0.02304,0.21969l-0.03218,0.41073l0.0102,0.07219l-0.0147,0.14011l0.00897,0.1406l-0.0233,0.12714l-0.00833,0.07939l-0.00884,0.11284l0.01397,0.06237l-0.00846,0.34279l-0.01852,0.06701l0.00443,0.06938l-0.00556,0.03033l-0.0006,0.00757l0.00342,0.02418l-0.02101,0.20028l-0.01573,0.20077l-0.00776,0.02315l-0.00263,0.02503l-0.00778,0.00603l-0.02188,0.0653l-0.0385,0.06031l0.0037,0.04357l-0.11478,0.13042l-0.09348,0.14644l-0.04288,0.00851l-0.04728,0.05372l-0.05668,0.03912l-0.00364,0.00915l-0.02333,0.00947l-0.02009,0.01387l-0.18854,0.07078l-0.18661,0.07571l-0.02418,0.00342l-0.02356,0.00884l-0.00887,-0.00426l-0.22246,0.03146l-0.44924,-0.04711l-0.04204,-0.05421l-0.34046,0.04815l-0.03226,0.01607l-0.13757,0.03037l-0.13055,0.05297l-0.02663,0.00377l-0.19181,0.09557l-0.01023,0.00225l-0.00812,0.00662l-0.68482,0.32154l-0.73292,0.36516l-0.00541,0.00374l-0.00365,0.00914l-0.02333,0.00947l-0.02009,0.01387l-0.18854,0.07077l-0.18659,0.07572l-0.02418,0.00342l-0.02357,0.00884l-0.00887,-0.00426l-0.39471,0.05581l-0.1154,0.04683l-0.10683,0.01511l-0.09997,0.04056l-0.21953,0.03105l-0.26685,0.10019l-0.11418,-0.05481l-0.01342,0.01041l-0.13967,-0.05557l-0.18992,0.01618l-0.19026,-0.16744l-0.30084,-0.1197l-0.01239,-0.03055c-0.05681,0.02076 -0.11666,0.03591 -0.17894,0.04472c-0.3185,0.04504 -0.62119,-0.08717 -0.80831,-0.3216z" fill="#01d312" stroke-linecap="butt"/><path d="M241.11146,169.6742l4.48793,-10.93949" fill="none" stroke-linecap="round"/></g><g><path d="M253.35159,171.95163c-0.05352,-0.03308 -0.10223,-0.071 -0.14591,-0.11283l-0.02362,0.023l-0.32359,-0.01122l-0.24149,0.07691l-0.16743,-0.0911l-0.15023,-0.00522l-0.0081,-0.01492l-0.12658,0.00433l-0.20413,-0.19894l-0.18857,-0.1166l-0.07527,-0.07731l-0.09177,-0.05675l-0.08687,-0.08924l-0.33906,-0.20965l-0.00984,0.00034l-0.01803,-0.01756l-0.02077,-0.01284l-0.14048,-0.14428l-0.14423,-0.14055l-0.01283,-0.02078l-0.01756,-0.01804l0.00033,-0.00984l-0.00346,-0.00559l-0.52452,-0.6288l-0.498,-0.56954l-0.00478,-0.00932l-0.00846,-0.00618l-0.13727,-0.16457l-0.02287,-0.01414l-0.09828,-0.10094l-0.1138,-0.08307l-0.02308,-0.02768l-0.29245,-0.18084l-0.06027,0.03276l-0.43033,-0.1373l-0.19109,-0.11817l-0.00984,0.00033l-0.01803,-0.01756l-0.02077,-0.01284l-0.14048,-0.14429l-0.14423,-0.14055l-0.01283,-0.02077l-0.01756,-0.01804l0.00034,-0.00984l-0.03619,-0.05859l-0.02172,-0.06819l-0.03586,-0.02502l-0.02678,-0.17166l-0.05273,-0.16554l0.0209,-0.03841l-0.01104,-0.0707l0.00619,-0.06859l-0.00471,-0.00865l0.00764,-0.02399l0.0022,-0.02432l0.06624,-0.19017l0.06121,-0.19186l0.01284,-0.02077l0.0025,-0.00717l0.00709,-0.03l0.03192,-0.06176l0.00996,-0.0688l0.12994,-0.31731l0.03785,-0.05151l0.03723,-0.10689l0.02426,-0.07605l0.02973,-0.1258l0.06469,-0.12516l0.04282,-0.13421l0.03835,-0.06201l0.1355,-0.38906l0.06714,-0.21044l0.0106,-0.01716l-0.0082,-0.05253l-0.05272,-0.16554l0.02089,-0.03841l-0.01103,-0.0707l0.01135,-0.12553l0.03175,-0.09115l0.00616,-0.09632l0.1413,-0.44286l0.01124,-0.01818l0.00238,-0.02123l0.08125,-0.21824l0.06944,-0.29386l0.02542,-0.0492l0.00616,-0.05504l0.05934,-0.15938l0.00078,-0.00865l0.06623,-0.19018l0.06121,-0.19186l0.01284,-0.02077l0.00829,-0.02378l0.00895,-0.00409l0.00212,-0.00344l0.03786,-0.11864l0.05675,-0.09177l0.03279,-0.10279l0.13225,-0.21386l0.07002,-0.18805l0.04939,-0.07197l0.02654,-0.08317l0.07295,-0.11797l0.02905,-0.07806l0.00078,-0.00865l0.06624,-0.19017l0.06121,-0.19185l0.01285,-0.02078l0.00827,-0.02378l0.00895,-0.00409l0.65141,-1.05342l-0.00034,-0.00984l0.01757,-0.01803l0.01284,-0.02078l0.14428,-0.14047l0.14055,-0.14423l0.02077,-0.01283l0.01804,-0.01756l0.00984,0.00034l0.32923,-0.20336l0.01728,-0.19126l0.02075,-0.05957l-0.00081,-0.06308l0.041,-0.17348l0.05065,-0.09798l0.00008,-0.0008l0.12682,-0.36414l0.00062,-0.01789l0.00692,-0.00376l0.01421,-0.04078l0.26826,-0.12269l0.02293,-0.02232l0.02404,0.00083l0.06873,-0.03144l0.37097,-0.20162l0.04114,0.01313l0.00716,-0.00328l0.01469,0.01024l0.36735,0.11721l0.09519,0.05886l0.00984,-0.00034l0.01803,0.01756l0.02078,0.01285l0.14047,0.14428l0.14423,0.14055l0.01283,0.02077l0.01756,0.01804l-0.00035,0.00983l0.16868,0.27308l0.0283,0.08884l0.05166,0.07762l0.11096,0.31146l0.32918,0.75441l0.19894,0.36604l0.0024,0.00928l0.00633,0.00719l0.15079,0.29208l0.00819,0.03477l0.02139,0.02862l0.15988,0.38161l0.07259,0.08703l0.06131,0.12684l0.08168,0.11478l0.10284,0.26243l0.0018,0.01395l0.0078,0.0117l0.12114,0.34002l0.00087,0.00897l0.00485,0.0076l0.55496,1.66216l0.1182,0.33176l0.00192,0.01972l0.01023,0.01696l0.143,0.46533l0.0734,0.11882l0.04276,0.13424l0.06463,0.12519l0.01568,0.06654l0.03685,0.11568l0.0673,0.17563l0.007,0.05765l0.0057,0.0179l-0.00288,0.00529l0.03372,0.2775l-0.0074,0.0593l0.01372,0.05816l-0.00399,0.29787l0.03693,0.64831l0.05685,0.7567l-0.00065,0.00379l0.00118,0.00367l0.03013,0.4528l0.00727,0.01014l-0.0434,0.2326l-0.04202,0.23285l-0.0104,0.00689l-0.17628,0.38491l-0.03458,0.04325l-0.01683,0.05276l-1.30452,2.10961c-0.07858,0.12705 -0.18433,0.22702 -0.30512,0.29705l-0.01852,0.01805l-0.0133,-0.00046c-0.26553,0.13952 -0.59583,0.13902 -0.86942,-0.03016z" fill="#01d312" stroke-linecap="butt"/><path d="M252.44631,159.16018l-0.28408,11.82088" fill="none" stroke-linecap="round"/></g></g><g data-paper-data="{&quot;index&quot;:null}" stroke="#029f0f" stroke-width="1"><g><path d="M239.90696,174.63838c-0.06758,-0.04179 -0.12908,-0.08966 -0.18424,-0.14248l-0.02983,0.02905l-0.40857,-0.01417l-0.30491,0.09712l-0.21141,-0.11503l-0.18967,-0.00658l-0.01024,-0.01883l-0.15982,0.00546l-0.25776,-0.25117l-0.23811,-0.14724l-0.09503,-0.09762l-0.11587,-0.07165l-0.10969,-0.11266l-0.4281,-0.26473l-0.01242,0.00042l-0.02277,-0.02218l-0.02622,-0.01622l-0.17737,-0.18219l-0.1821,-0.17746l-0.01621,-0.02623l-0.02217,-0.02277l0.00043,-0.01243l-0.00438,-0.00707l-0.66228,-0.79395l-0.6288,-0.71912l-0.00602,-0.01176l-0.01068,-0.0078l-0.17333,-0.20779l-0.02888,-0.01786l-0.12409,-0.12747l-0.14369,-0.10488l-0.02915,-0.03494l-0.36926,-0.22834l-0.07609,0.04136l-0.54336,-0.17335l-0.24128,-0.1492l-0.01242,0.00042l-0.02276,-0.02219l-0.02623,-0.01621l-0.17737,-0.18219l-0.1821,-0.17747l-0.01621,-0.02623l-0.02217,-0.02277l0.00043,-0.01243l-0.04569,-0.07398l-0.02742,-0.08608l-0.04528,-0.0316l-0.03383,-0.21675l-0.06658,-0.20902l0.02639,-0.0485l-0.01394,-0.08927l0.00784,-0.08661l-0.00593,-0.01092l0.00966,-0.03028l0.00278,-0.03071l0.08363,-0.24013l0.07729,-0.24223l0.01621,-0.02622l0.00316,-0.00905l0.00896,-0.03789l0.0403,-0.07797l0.01256,-0.08687l0.16407,-0.40067l0.04779,-0.06504l0.047,-0.13496l0.03064,-0.09603l0.03753,-0.15885l0.08167,-0.15803l0.05407,-0.16947l0.04842,-0.0783l0.1711,-0.49125l0.08478,-0.26572l0.01339,-0.02166l-0.01035,-0.06633l-0.06658,-0.20901l0.02639,-0.0485l-0.01394,-0.08927l0.01433,-0.15851l0.04009,-0.11509l0.00777,-0.12163l0.1784,-0.55918l0.01419,-0.02294l0.00301,-0.02681l0.1026,-0.27556l0.08768,-0.37105l0.03211,-0.06212l0.00778,-0.06949l0.07493,-0.20125l0.00099,-0.01091l0.08363,-0.24013l0.07729,-0.24224l0.01622,-0.02623l0.01046,-0.03001l0.01131,-0.00517l0.00267,-0.00434l0.0478,-0.1498l0.07165,-0.11587l0.0414,-0.12978l0.16698,-0.27003l0.08841,-0.23743l0.06236,-0.09088l0.0335,-0.105l0.0921,-0.14896l0.0367,-0.09856l0.00099,-0.01092l0.08363,-0.24013l0.0773,-0.24223l0.01621,-0.02623l0.01047,-0.03001l0.0113,-0.00517l0.82249,-1.33011l-0.00042,-0.01242l0.02218,-0.02276l0.01622,-0.02623l0.18219,-0.17737l0.17746,-0.1821l0.02624,-0.01621l0.02277,-0.02217l0.01242,0.00043l0.41568,-0.25677l0.02183,-0.2415l0.02621,-0.07523l-0.00103,-0.07964l0.05177,-0.21905l0.06395,-0.12371l0.00009,-0.00101l0.16013,-0.45978l0.00078,-0.02258l0.00874,-0.00475l0.01794,-0.05149l0.33871,-0.15492l0.02895,-0.02818l0.03036,0.00105l0.08678,-0.03969l0.46839,-0.25457l0.05195,0.01657l0.00904,-0.00414l0.01853,0.01294l0.46383,0.14799l0.1202,0.07432l0.01243,-0.00042l0.02276,0.02219l0.02623,0.01621l0.17737,0.18219l0.18211,0.17747l0.0162,0.02623l0.02217,0.02277l-0.00043,0.01243l0.21299,0.3448l0.03572,0.11218l0.06522,0.09801l0.1401,0.39325l0.41564,0.95256l0.25119,0.46217l0.00302,0.01172l0.008,0.00908l0.19038,0.3688l0.01036,0.0439l0.027,0.03613l0.20187,0.48185l0.09166,0.10988l0.07742,0.16016l0.10314,0.14494l0.12985,0.33136l0.00227,0.0176l0.00984,0.01478l0.15295,0.42933l0.00111,0.01133l0.00611,0.0096l0.70071,2.09872l0.14924,0.41891l0.00242,0.0249l0.01292,0.02142l0.18056,0.58754l0.09267,0.15004l0.05399,0.1695l0.0816,0.15807l0.01981,0.08402l0.04653,0.14606l0.08497,0.22177l0.00884,0.07278l0.0072,0.02259l-0.00364,0.00669l0.04258,0.35038l-0.00934,0.07487l0.01732,0.07345l-0.00504,0.37608l0.04664,0.81859l0.07177,0.95544l-0.00082,0.00481l0.00149,0.00463l0.03804,0.57172l0.00918,0.0128l-0.0548,0.29369l-0.05306,0.29401l-0.01313,0.00871l-0.22257,0.486l-0.04367,0.05462l-0.02125,0.06661l-1.64715,2.6637c-0.0992,0.16043 -0.23274,0.28666 -0.38526,0.37508l-0.02339,0.02277l-0.0168,-0.00058c-0.33526,0.17617 -0.75233,0.17553 -1.09777,-0.03808z" fill="#01d312" stroke-linecap="butt"/><path d="M238.4052,173.41288l0.3587,-14.92564" fill="none" stroke-linecap="round"/></g><g data-paper-data="{&quot;index&quot;:null}"><path d="M229.86739,172.31424l-0.01236,-0.00492l-0.00972,-0.02397c-0.08249,-0.11264 -0.13919,-0.24668 -0.1601,-0.39459l-0.34728,-2.45594l0.00577,-0.05508l-0.0143,-0.0535l-0.00682,-0.4233l-0.00675,-0.01049l0.05504,-0.23012l0.05368,-0.23045l0.01074,-0.00636l0.20946,-0.40257l0.00256,-0.00289l0.00093,-0.00374l0.356,-0.67014l0.29423,-0.57888l0.11599,-0.27438l0.03592,-0.04775l0.01705,-0.05728l0.14234,-0.24059l-0.00051,-0.006l0.01241,-0.01411l0.02956,-0.04997l0.13218,-0.13381l0.08021,-0.09114l0.0411,-0.05464l0.10947,-0.08868l0.09309,-0.10576l0.11495,-0.07933l0.31786,-0.3687l0.01619,-0.01142l0.00968,-0.01728l0.2415,-0.25635l1.17587,-1.29927l0.00749,-0.00501l0.00441,-0.00787l0.24751,-0.26273l0.01183,-0.00758l0.00725,-0.01205l0.19958,-0.19902l0.12091,-0.07231l0.1071,-0.09153l0.10143,-0.05054l0.2997,-0.28526l0.03108,-0.01762l0.02146,-0.02855l0.25541,-0.20692l0.00868,-0.00404l0.00592,-0.00753l0.32921,-0.2553l0.60448,-0.55866l0.22672,-0.24066l0.07849,-0.05033l0.06161,-0.06999l0.26415,-0.18232l0.00364,-0.00915l0.02333,-0.00947l0.02009,-0.01387l0.18854,-0.07078l0.1866,-0.07571l0.02419,-0.00342l0.02356,-0.00884l0.00887,0.00426l0.11083,-0.01567l0.38349,0.04022l0.01756,-0.00348l0.00525,0.00588l0.04295,0.00451l0.25874,0.33365l0.05032,0.0564l0.02235,0.00889l0.01203,0.02965l0.19638,0.22011l-0.00337,0.04305l0.00483,0.00622l-0.00663,0.01664l-0.03012,0.38441l-0.00026,0.00077l0.00702,0.11006l-0.03213,0.17534l-0.02608,0.05744l-0.00493,0.06289l-0.06099,0.1821l0.21981,0.31848l0.00915,0.00365l0.00946,0.02333l0.01388,0.02009l0.07077,0.18854l0.07572,0.1866l0.00341,0.02418l0.00885,0.02357l-0.00426,0.00887l0.17342,1.22635l0.00655,0.00734l-0.00196,0.02511l0.00342,0.02418l-0.021,0.20028l-0.01574,0.20077l-0.00276,0.00823l-0.00475,0.08316l0.01942,0.13734l-0.0091,0.08682l0.01632,0.08576l-0.01141,0.20033l0.03521,0.24897l-0.01126,0.1073l0.01511,0.10684l-0.01299,0.12386l0.00056,0.004l0.00655,0.00734l-0.00196,0.0251l0.00342,0.02419l-0.02101,0.20028l-0.01574,0.20076l-0.00276,0.00823l-0.00968,0.16979l-0.01647,0.05288l0.00352,0.05527l-0.05443,0.29701l-0.01326,0.2325l-0.00635,0.0204l0.00299,0.02116l-0.04849,0.46231l-0.03305,0.09069l-0.00753,0.09622l-0.04003,0.11952l-0.0385,0.06031l0.00371,0.04357l-0.11477,0.13043l-0.02861,0.04481l0.00282,0.01997l-0.02304,0.21969l-0.03218,0.41073l0.0102,0.07219l-0.01469,0.14012l0.00897,0.1406l-0.0233,0.12714l-0.00833,0.07939l-0.00884,0.11284l0.01397,0.06237l-0.00846,0.34279l-0.01851,0.06701l0.00443,0.06938l-0.00556,0.03032l-0.0006,0.00757l0.00342,0.02417l-0.02101,0.20029l-0.01574,0.20076l-0.00775,0.02315l-0.00263,0.02503l-0.00779,0.00603l-0.02187,0.0653l-0.0385,0.06031l0.0037,0.04357l-0.11478,0.13042l-0.09348,0.14644l-0.04288,0.00851l-0.04728,0.05373l-0.05668,0.03912l-0.00364,0.00915l-0.02333,0.00947l-0.02009,0.01387l-0.18854,0.07078l-0.18661,0.07571l-0.02418,0.00342l-0.02356,0.00884l-0.00887,-0.00426l-0.22246,0.03146l-0.44924,-0.04711l-0.04204,-0.05421l-0.34047,0.04815l-0.03225,0.01607l-0.13757,0.03037l-0.13055,0.05297l-0.02663,0.00376l-0.19181,0.09558l-0.01024,0.00225l-0.00812,0.00661l-0.68482,0.32155l-0.73292,0.36516l-0.00541,0.00374l-0.00364,0.00915l-0.02333,0.00947l-0.02009,0.01387l-0.18854,0.07077l-0.1866,0.07572l-0.02417,0.00342l-0.02357,0.00884l-0.00887,-0.00426l-0.39471,0.05581l-0.1154,0.04683l-0.10683,0.01511l-0.09997,0.04056l-0.21953,0.03105l-0.26685,0.10019l-0.11418,-0.05481l-0.01342,0.01041l-0.13967,-0.05557l-0.18992,0.01617l-0.19026,-0.16743l-0.30084,-0.1197l-0.01239,-0.03056c-0.05681,0.02076 -0.11666,0.03592 -0.17894,0.04472c-0.3185,0.04504 -0.62119,-0.08717 -0.80831,-0.3216z" fill="#01d312" stroke-linecap="butt"/><path d="M236.64269,161.28524l-4.48794,10.93949" fill="none" stroke-linecap="round"/></g><g><path d="M244.39488,174.50216c-0.05352,-0.03308 -0.10223,-0.07101 -0.14591,-0.11283l-0.02363,0.023l-0.32358,-0.01122l-0.24149,0.07691l-0.16743,-0.09109l-0.15023,-0.00522l-0.0081,-0.01492l-0.12659,0.00433l-0.20413,-0.19894l-0.18857,-0.1166l-0.07527,-0.07731l-0.09176,-0.05675l-0.08687,-0.08924l-0.33906,-0.20965l-0.00984,0.00034l-0.01803,-0.01756l-0.02077,-0.01284l-0.14048,-0.14428l-0.14423,-0.14055l-0.01283,-0.02078l-0.01756,-0.01804l0.00034,-0.00984l-0.00346,-0.00559l-0.52452,-0.6288l-0.498,-0.56954l-0.00478,-0.00932l-0.00846,-0.00618l-0.13727,-0.16457l-0.02287,-0.01414l-0.09828,-0.10094l-0.1138,-0.08307l-0.02309,-0.02768l-0.29244,-0.18084l-0.06027,0.03276l-0.43033,-0.1373l-0.19109,-0.11816l-0.00984,0.00033l-0.01803,-0.01756l-0.02077,-0.01284l-0.14048,-0.14429l-0.14423,-0.14055l-0.01283,-0.02078l-0.01756,-0.01804l0.00034,-0.00984l-0.03619,-0.05859l-0.02172,-0.06819l-0.03586,-0.02502l-0.02679,-0.17166l-0.05272,-0.16554l0.0209,-0.03841l-0.01104,-0.0707l0.00619,-0.06858l-0.00471,-0.00865l0.00764,-0.02399l0.0022,-0.02432l0.06624,-0.19018l0.06121,-0.19186l0.01284,-0.02076l0.0025,-0.00717l0.00709,-0.03l0.03192,-0.06176l0.00996,-0.0688l0.12994,-0.31732l0.03785,-0.05151l0.03722,-0.10689l0.02427,-0.07604l0.02972,-0.1258l0.06469,-0.12516l0.04282,-0.13422l0.03835,-0.06201l0.1355,-0.38907l0.06714,-0.21044l0.0106,-0.01716l-0.0082,-0.05253l-0.05272,-0.16554l0.02089,-0.03841l-0.01103,-0.0707l0.01135,-0.12553l0.03175,-0.09115l0.00616,-0.09633l0.1413,-0.44286l0.01124,-0.01818l0.00238,-0.02123l0.08125,-0.21824l0.06944,-0.29386l0.02542,-0.0492l0.00616,-0.05504l0.05934,-0.15938l0.00078,-0.00865l0.06624,-0.19018l0.06121,-0.19186l0.01284,-0.02077l0.00829,-0.02378l0.00895,-0.00409l0.00212,-0.00344l0.03786,-0.11865l0.05675,-0.09177l0.03279,-0.10279l0.13225,-0.21386l0.07002,-0.18805l0.04939,-0.07197l0.02654,-0.08317l0.07295,-0.11797l0.02905,-0.07806l0.00078,-0.00865l0.06624,-0.19017l0.06121,-0.19185l0.01285,-0.02078l0.00827,-0.02378l0.00895,-0.00409l0.6514,-1.05342l-0.00034,-0.00984l0.01757,-0.01803l0.01284,-0.02078l0.14428,-0.14047l0.14055,-0.14423l0.02077,-0.01283l0.01804,-0.01756l0.00984,0.00034l0.32922,-0.20336l0.01729,-0.19126l0.02075,-0.05957l-0.00081,-0.06308l0.041,-0.17348l0.05065,-0.09797l0.00007,-0.0008l0.12682,-0.36414l0.00062,-0.01789l0.00692,-0.00376l0.01421,-0.04078l0.26825,-0.12269l0.02293,-0.02232l0.02404,0.00083l0.06873,-0.03144l0.37097,-0.20162l0.04114,0.01313l0.00716,-0.00328l0.01469,0.01024l0.36735,0.11721l0.09519,0.05886l0.00984,-0.00034l0.01803,0.01756l0.02077,0.01285l0.14047,0.14429l0.14423,0.14054l0.01283,0.02078l0.01756,0.01804l-0.00035,0.00984l0.16868,0.27308l0.0283,0.08884l0.05166,0.07762l0.11096,0.31146l0.32918,0.75441l0.19894,0.36604l0.0024,0.00928l0.00633,0.00719l0.15078,0.29208l0.00819,0.03477l0.02139,0.02862l0.15988,0.38161l0.07259,0.08703l0.06132,0.12684l0.08168,0.11478l0.10283,0.26243l0.0018,0.01395l0.0078,0.0117l0.12113,0.34002l0.00088,0.00897l0.00484,0.0076l0.55496,1.66216l0.1182,0.33176l0.00192,0.01971l0.01023,0.01696l0.143,0.46533l0.0734,0.11882l0.04276,0.13424l0.06463,0.12518l0.01568,0.06655l0.03685,0.11568l0.0673,0.17563l0.007,0.05765l0.0057,0.0179l-0.00288,0.00529l0.03372,0.27749l-0.0074,0.05931l0.01372,0.05816l-0.00399,0.29787l0.03693,0.64831l0.05685,0.7567l-0.00065,0.00379l0.00118,0.00367l0.03013,0.4528l0.00727,0.01014l-0.0434,0.2326l-0.04203,0.23285l-0.0104,0.00689l-0.17627,0.38491l-0.03458,0.04325l-0.01684,0.05275l-1.30451,2.10962c-0.07858,0.12705 -0.18433,0.22702 -0.30512,0.29705l-0.01852,0.01805l-0.0133,-0.00046c-0.26553,0.13952 -0.59583,0.13903 -0.86943,-0.03016z" fill="#01d312" stroke-linecap="butt"/><path d="M243.20553,173.53159l0.28408,-11.82088" fill="none" stroke-linecap="round"/></g></g><g stroke="#029f0f" stroke-width="1"><g><path d="M232.00512,202.25425c0.06758,0.04179 0.12908,0.08966 0.18424,0.14248l0.02983,-0.02905l0.40857,0.01417l0.30492,-0.09712l0.2114,0.11503l0.18967,0.00658l0.01024,0.01883l0.15982,-0.00546l0.25776,0.25117l0.23811,0.14724l0.09503,0.09762l0.11587,0.07165l0.10969,0.11266l0.4281,0.26473l0.01242,-0.00042l0.02276,0.02218l0.02622,0.01622l0.17737,0.18219l0.1821,0.17746l0.01621,0.02623l0.02217,0.02277l-0.00043,0.01243l0.00437,0.00707l0.66228,0.79395l0.6288,0.71912l0.00602,0.01176l0.01068,0.0078l0.17333,0.20779l0.02888,0.01786l0.12409,0.12747l0.14368,0.10488l0.02915,0.03494l0.36926,0.22834l0.0761,-0.04136l0.54336,0.17335l0.24128,0.1492l0.01242,-0.00042l0.02276,0.02219l0.02623,0.01621l0.17737,0.18219l0.1821,0.17747l0.01621,0.02623l0.02217,0.02277l-0.00043,0.01243l0.04569,0.07398l0.02742,0.08608l0.04528,0.0316l0.03383,0.21675l0.06657,0.20902l-0.02638,0.0485l0.01394,0.08927l-0.00784,0.08661l0.00593,0.01092l-0.00966,0.03028l-0.00278,0.03071l-0.08364,0.24013l-0.07729,0.24223l-0.01621,0.02622l-0.00316,0.00905l-0.00895,0.03789l-0.04031,0.07797l-0.01256,0.08687l-0.16407,0.40067l-0.04779,0.06504l-0.047,0.13496l-0.03064,0.09603l-0.03753,0.15885l-0.08168,0.15803l-0.05407,0.16947l-0.04842,0.0783l-0.1711,0.49125l-0.08478,0.26572l-0.01339,0.02166l0.01035,0.06633l0.06658,0.20901l-0.02639,0.0485l0.01394,0.08927l-0.01434,0.15851l-0.04009,0.11509l-0.00777,0.12163l-0.1784,0.55918l-0.01419,0.02294l-0.00301,0.02681l-0.1026,0.27556l-0.08768,0.37105l-0.03211,0.06212l-0.00779,0.06949l-0.07493,0.20125l-0.001,0.01091l-0.08363,0.24013l-0.07729,0.24224l-0.01622,0.02623l-0.01046,0.03001l-0.0113,0.00517l-0.00268,0.00434l-0.0478,0.1498l-0.07165,0.11587l-0.0414,0.12978l-0.16698,0.27003l-0.0884,0.23743l-0.06236,0.09088l-0.0335,0.105l-0.09211,0.14896l-0.0367,0.09856l-0.00099,0.01092l-0.08363,0.24013l-0.07729,0.24223l-0.01622,0.02623l-0.01046,0.03001l-0.0113,0.00517l-0.8225,1.33011l0.00042,0.01242l-0.02218,0.02276l-0.01622,0.02623l-0.18219,0.17737l-0.17747,0.1821l-0.02623,0.01621l-0.02277,0.02217l-0.01242,-0.00043l-0.41568,0.25677l-0.02183,0.2415l-0.0262,0.07523l0.00103,0.07964l-0.05177,0.21905l-0.06395,0.12371l-0.00009,0.00101l-0.16013,0.45978l-0.00078,0.02258l-0.00874,0.00475l-0.01794,0.05149l-0.33871,0.15492l-0.02895,0.02818l-0.03036,-0.00105l-0.08678,0.03969l-0.46839,0.25457l-0.05194,-0.01657l-0.00905,0.00414l-0.01853,-0.01294l-0.46383,-0.14799l-0.1202,-0.07432l-0.01242,0.00042l-0.02276,-0.02219l-0.02623,-0.01621l-0.17737,-0.18219l-0.18211,-0.17747l-0.0162,-0.02623l-0.02217,-0.02277l0.00043,-0.01243l-0.21299,-0.3448l-0.03572,-0.11218l-0.06522,-0.09801l-0.1401,-0.39325l-0.41564,-0.95256l-0.25119,-0.46217l-0.00303,-0.01172l-0.008,-0.00908l-0.19038,-0.3688l-0.01036,-0.0439l-0.027,-0.03613l-0.20187,-0.48185l-0.09166,-0.10988l-0.07742,-0.16016l-0.10314,-0.14494l-0.12985,-0.33136l-0.00228,-0.0176l-0.00983,-0.01478l-0.15296,-0.42933l-0.00111,-0.01133l-0.00611,-0.0096l-0.70071,-2.09872l-0.14924,-0.41891l-0.00242,-0.0249l-0.01292,-0.02142l-0.18056,-0.58754l-0.09268,-0.15004l-0.05399,-0.1695l-0.0816,-0.15807l-0.01981,-0.08402l-0.04653,-0.14606l-0.08497,-0.22177l-0.00885,-0.07278l-0.00719,-0.02259l0.00364,-0.00669l-0.04258,-0.35038l0.00933,-0.07487l-0.01732,-0.07345l0.00504,-0.37608l-0.04664,-0.81859l-0.07177,-0.95544l0.00082,-0.00481l-0.00149,-0.00463l-0.03804,-0.57172l-0.00918,-0.0128l0.0548,-0.29369l0.05306,-0.29401l0.01313,-0.00871l0.22258,-0.486l0.04367,-0.05462l0.02125,-0.06661l1.64715,-2.6637c0.0992,-0.16043 0.23274,-0.28666 0.38527,-0.37508l0.02339,-0.02277l0.0168,0.00058c0.33526,-0.17617 0.75233,-0.17553 1.09777,0.03808z" fill="#01d312" stroke-linecap="butt"/><path d="M233.50688,203.47975l-0.3587,14.92564" fill="none" stroke-linecap="round"/></g><g data-paper-data="{&quot;index&quot;:null}"><path d="M242.04469,204.57839l0.01237,0.00492l0.00972,0.02397c0.08249,0.11264 0.13919,0.24668 0.1601,0.39459l0.34729,2.45594l-0.00577,0.05508l0.01429,0.0535l0.00683,0.4233l0.00675,0.01049l-0.05504,0.23012l-0.05368,0.23045l-0.01073,0.00636l-0.20946,0.40257l-0.00256,0.00289l-0.00093,0.00374l-0.356,0.67014l-0.29423,0.57888l-0.11599,0.27438l-0.03592,0.04775l-0.01704,0.05728l-0.14234,0.24059l0.00051,0.006l-0.01241,0.01411l-0.02957,0.04997l-0.13218,0.13381l-0.08021,0.09114l-0.04109,0.05464l-0.10947,0.08868l-0.09308,0.10576l-0.11495,0.07933l-0.31786,0.3687l-0.01619,0.01142l-0.00968,0.01728l-0.2415,0.25635l-1.17586,1.29927l-0.00749,0.00501l-0.00441,0.00787l-0.24751,0.26273l-0.01183,0.00758l-0.00725,0.01205l-0.19959,0.19902l-0.12091,0.07231l-0.1071,0.09153l-0.10143,0.05054l-0.29971,0.28526l-0.03107,0.01762l-0.02147,0.02855l-0.2554,0.20692l-0.00869,0.00404l-0.00592,0.00753l-0.32921,0.2553l-0.60449,0.55866l-0.22672,0.24066l-0.07849,0.05033l-0.06161,0.06999l-0.26415,0.18232l-0.00364,0.00915l-0.02333,0.00947l-0.02009,0.01387l-0.18854,0.07078l-0.1866,0.07571l-0.02418,0.00342l-0.02357,0.00884l-0.00887,-0.00426l-0.11083,0.01567l-0.38349,-0.04022l-0.01756,0.00348l-0.00525,-0.00588l-0.04295,-0.00451l-0.25874,-0.33365l-0.05032,-0.0564l-0.02235,-0.00889l-0.01203,-0.02965l-0.19638,-0.22011l0.00337,-0.04305l-0.00483,-0.00622l0.00663,-0.01664l0.03012,-0.38441l0.00026,-0.00077l-0.00702,-0.11006l0.03214,-0.17534l0.02608,-0.05744l0.00493,-0.06289l0.061,-0.1821l-0.21982,-0.31848l-0.00914,-0.00365l-0.00947,-0.02333l-0.01388,-0.02009l-0.07077,-0.18854l-0.07572,-0.1866l-0.00341,-0.02418l-0.00885,-0.02357l0.00426,-0.00887l-0.17342,-1.22635l-0.00655,-0.00734l0.00196,-0.02511l-0.00342,-0.02418l0.02101,-0.20028l0.01574,-0.20077l0.00275,-0.00823l0.00475,-0.08316l-0.01942,-0.13734l0.0091,-0.08682l-0.01632,-0.08576l0.01141,-0.20033l-0.03521,-0.24897l0.01126,-0.1073l-0.01511,-0.10684l0.01299,-0.12386l-0.00056,-0.004l-0.00655,-0.00734l0.00196,-0.0251l-0.00342,-0.02419l0.02101,-0.20028l0.01574,-0.20076l0.00275,-0.00823l0.00968,-0.16979l0.01647,-0.05288l-0.00352,-0.05527l0.05444,-0.29701l0.01325,-0.2325l0.00635,-0.0204l-0.00299,-0.02116l0.04849,-0.46231l0.03305,-0.09069l0.00753,-0.09622l0.04003,-0.11952l0.03851,-0.06031l-0.00371,-0.04357l0.11478,-0.13043l0.0286,-0.04481l-0.00282,-0.01997l0.02304,-0.21969l0.03218,-0.41073l-0.0102,-0.07219l0.01469,-0.14012l-0.00897,-0.1406l0.0233,-0.12714l0.00833,-0.07939l0.00884,-0.11284l-0.01396,-0.06237l0.00846,-0.34279l0.01852,-0.06701l-0.00443,-0.06938l0.00557,-0.03032l0.00059,-0.00757l-0.00342,-0.02417l0.02101,-0.20029l0.01574,-0.20076l0.00776,-0.02315l0.00263,-0.02503l0.00779,-0.00603l0.02187,-0.0653l0.03851,-0.06031l-0.0037,-0.04357l0.11477,-0.13042l0.09348,-0.14644l0.04289,-0.00851l0.04728,-0.05373l0.05667,-0.03912l0.00364,-0.00915l0.02333,-0.00947l0.02009,-0.01387l0.18854,-0.07078l0.1866,-0.07571l0.02418,-0.00342l0.02356,-0.00884l0.00888,0.00426l0.22246,-0.03146l0.44924,0.04711l0.04204,0.05421l0.34046,-0.04815l0.03225,-0.01607l0.13757,-0.03036l0.13055,-0.05297l0.02663,-0.00376l0.19181,-0.09557l0.01023,-0.00226l0.00812,-0.00661l0.68483,-0.32155l0.73292,-0.36516l0.00541,-0.00374l0.00365,-0.00915l0.02333,-0.00947l0.02009,-0.01387l0.18854,-0.07077l0.1866,-0.07572l0.02417,-0.00342l0.02357,-0.00884l0.00887,0.00426l0.39471,-0.05581l0.1154,-0.04683l0.10684,-0.01511l0.09997,-0.04056l0.21953,-0.03105l0.26685,-0.10019l0.11418,0.05481l0.01343,-0.01041l0.13967,0.05557l0.18992,-0.01617l0.19026,0.16743l0.30084,0.1197l0.01239,0.03056c0.05681,-0.02076 0.11666,-0.03592 0.17894,-0.04472c0.3185,-0.04504 0.62119,0.08717 0.80832,0.3216z" fill="#01d312" stroke-linecap="butt"/><path d="M235.2694,215.60739l4.48793,-10.93949" fill="none" stroke-linecap="round"/></g><g><path d="M227.5172,202.39047c0.05352,0.03308 0.10222,0.07101 0.14591,0.11283l0.02363,-0.023l0.32359,0.01122l0.24149,-0.07691l0.16743,0.09109l0.15023,0.00522l0.0081,0.01492l0.12659,-0.00433l0.20413,0.19894l0.18858,0.1166l0.07527,0.07731l0.09177,0.05675l0.08687,0.08924l0.33905,0.20965l0.00984,-0.00034l0.01803,0.01756l0.02076,0.01284l0.14048,0.14428l0.14423,0.14055l0.01283,0.02078l0.01756,0.01804l-0.00034,0.00984l0.00346,0.00559l0.52452,0.6288l0.498,0.56954l0.00478,0.00932l0.00846,0.00618l0.13728,0.16457l0.02287,0.01414l0.09828,0.10094l0.11379,0.08307l0.02309,0.02768l0.29244,0.18084l0.06028,-0.03276l0.43033,0.1373l0.19109,0.11816l0.00984,-0.00033l0.01803,0.01756l0.02076,0.01284l0.14048,0.14429l0.14423,0.14055l0.01283,0.02078l0.01756,0.01804l-0.00034,0.00984l0.03619,0.05859l0.02172,0.06819l0.03586,0.02502l0.02678,0.17166l0.05273,0.16554l-0.0209,0.03841l0.01104,0.0707l-0.00619,0.06858l0.0047,0.00865l-0.00764,0.02399l-0.0022,0.02432l-0.06623,0.19018l-0.06121,0.19186l-0.01284,0.02076l-0.0025,0.00717l-0.00709,0.03l-0.03192,0.06176l-0.00996,0.0688l-0.12994,0.31732l-0.03785,0.05151l-0.03723,0.10689l-0.02427,0.07604l-0.02972,0.1258l-0.06469,0.12516l-0.04282,0.13422l-0.03835,0.06201l-0.1355,0.38907l-0.06714,0.21044l-0.0106,0.01716l0.0082,0.05253l0.05272,0.16554l-0.0209,0.03841l0.01104,0.0707l-0.01135,0.12553l-0.03175,0.09115l-0.00616,0.09633l-0.14129,0.44286l-0.01124,0.01818l-0.00238,0.02123l-0.08125,0.21824l-0.06944,0.29386l-0.02543,0.0492l-0.00615,0.05504l-0.05934,0.15938l-0.00078,0.00865l-0.06624,0.19018l-0.06121,0.19186l-0.01284,0.02077l-0.00829,0.02378l-0.00895,0.00409l-0.00212,0.00344l-0.03785,0.11865l-0.05675,0.09177l-0.03279,0.10279l-0.13225,0.21386l-0.07002,0.18805l-0.04939,0.07197l-0.02654,0.08317l-0.07295,0.11797l-0.02905,0.07806l-0.00078,0.00865l-0.06623,0.19017l-0.06121,0.19185l-0.01285,0.02078l-0.00827,0.02378l-0.00895,0.00409l-0.65141,1.05342l0.00034,0.00984l-0.01756,0.01803l-0.01284,0.02078l-0.14428,0.14047l-0.14055,0.14423l-0.02077,0.01283l-0.01804,0.01756l-0.00984,-0.00034l-0.32923,0.20336l-0.01729,0.19126l-0.02074,0.05957l0.00081,0.06308l-0.041,0.17348l-0.05064,0.09797l-0.00008,0.0008l-0.12682,0.36414l-0.00061,0.01789l-0.00692,0.00376l-0.01421,0.04078l-0.26826,0.12269l-0.02293,0.02232l-0.02404,-0.00083l-0.06873,0.03144l-0.37097,0.20162l-0.04114,-0.01313l-0.00717,0.00328l-0.01468,-0.01024l-0.36735,-0.11721l-0.0952,-0.05886l-0.00984,0.00034l-0.01803,-0.01756l-0.02077,-0.01285l-0.14047,-0.14429l-0.14423,-0.14054l-0.01283,-0.02078l-0.01757,-0.01804l0.00035,-0.00984l-0.16868,-0.27308l-0.02831,-0.08884l-0.05166,-0.07762l-0.11096,-0.31146l-0.32918,-0.75441l-0.19894,-0.36604l-0.0024,-0.00928l-0.00632,-0.00719l-0.15079,-0.29208l-0.00819,-0.03477l-0.02138,-0.02862l-0.15988,-0.38161l-0.07259,-0.08703l-0.06132,-0.12684l-0.08168,-0.11478l-0.10283,-0.26243l-0.0018,-0.01395l-0.00779,-0.0117l-0.12114,-0.34002l-0.00088,-0.00897l-0.00484,-0.0076l-0.55496,-1.66216l-0.1182,-0.33176l-0.00192,-0.01971l-0.01023,-0.01696l-0.143,-0.46533l-0.0734,-0.11882l-0.04276,-0.13424l-0.06463,-0.12518l-0.01569,-0.06655l-0.03685,-0.11568l-0.0673,-0.17563l-0.007,-0.05765l-0.0057,-0.0179l0.00287,-0.00529l-0.03372,-0.27749l0.0074,-0.05931l-0.01371,-0.05816l0.00399,-0.29787l-0.03693,-0.64831l-0.05684,-0.7567l0.00065,-0.00379l-0.00118,-0.00367l-0.03013,-0.4528l-0.00727,-0.01014l0.04341,-0.2326l0.04202,-0.23285l0.0104,-0.00689l0.17628,-0.38491l0.03458,-0.04325l0.01683,-0.05275l1.30452,-2.10962c0.07858,-0.12705 0.18433,-0.22702 0.30512,-0.29705l0.01853,-0.01805l0.0133,0.00046c0.26553,-0.13952 0.59583,-0.13903 0.86943,0.03016z" fill="#01d312" stroke-linecap="butt"/><path d="M228.42247,215.18192l0.28408,-11.82088" fill="none" stroke-linecap="round"/></g></g><g stroke="#029f0f" stroke-width="1"><g><path d="M241.33846,201.58758c0.06758,0.04179 0.12908,0.08966 0.18424,0.14248l0.02983,-0.02904l0.40857,0.01417l0.30491,-0.09712l0.21141,0.11503l0.18967,0.00658l0.01024,0.01883l0.15982,-0.00546l0.25776,0.25118l0.23811,0.14724l0.09503,0.09762l0.11587,0.07165l0.10969,0.11267l0.4281,0.26473l0.01242,-0.00042l0.02277,0.02219l0.02622,0.01621l0.17737,0.18219l0.1821,0.17746l0.01621,0.02624l0.02217,0.02277l-0.00043,0.01243l0.00437,0.00706l0.66228,0.79395l0.6288,0.71912l0.00602,0.01177l0.01068,0.0078l0.17333,0.20779l0.02888,0.01785l0.12408,0.12747l0.14369,0.10488l0.02915,0.03494l0.36926,0.22835l0.07609,-0.04137l0.54336,0.17336l0.24128,0.1492l0.01242,-0.00042l0.02276,0.02218l0.02623,0.01622l0.17737,0.18218l0.1821,0.17746l0.01621,0.02624l0.02217,0.02277l-0.00043,0.01243l0.04569,0.07398l0.02742,0.08609l0.04528,0.0316l0.03382,0.21674l0.06658,0.20902l-0.02639,0.0485l0.01394,0.08927l-0.00784,0.0866l0.00594,0.01092l-0.00966,0.03028l-0.00278,0.03072l-0.08363,0.24012l-0.07729,0.24224l-0.01621,0.02622l-0.00316,0.00905l-0.00895,0.03789l-0.04031,0.07798l-0.01256,0.08687l-0.16407,0.40067l-0.04778,0.06504l-0.047,0.13496l-0.03064,0.09602l-0.03754,0.15885l-0.08167,0.15803l-0.05407,0.16947l-0.04842,0.0783l-0.1711,0.49125l-0.08478,0.26572l-0.01339,0.02167l0.01035,0.06632l0.06658,0.20902l-0.02639,0.0485l0.01394,0.08927l-0.01434,0.15851l-0.04009,0.11509l-0.00777,0.12162l-0.1784,0.55918l-0.01419,0.02294l-0.00301,0.02681l-0.1026,0.27556l-0.08768,0.37105l-0.03211,0.06212l-0.00778,0.06949l-0.07493,0.20125l-0.001,0.01092l-0.08363,0.24013l-0.07729,0.24224l-0.01622,0.02623l-0.01046,0.03001l-0.0113,0.00517l-0.00268,0.00434l-0.0478,0.1498l-0.07165,0.11588l-0.0414,0.12978l-0.16698,0.27003l-0.0884,0.23744l-0.06236,0.09087l-0.0335,0.105l-0.09211,0.14896l-0.0367,0.09856l-0.00099,0.01092l-0.08363,0.24013l-0.0773,0.24224l-0.01621,0.02623l-0.01047,0.03001l-0.0113,0.00517l-0.8225,1.33011l0.00042,0.01242l-0.02218,0.02277l-0.01622,0.02623l-0.18219,0.17736l-0.17747,0.1821l-0.02623,0.01621l-0.02278,0.02217l-0.01241,-0.00043l-0.41569,0.25677l-0.02183,0.2415l-0.02621,0.07522l0.00103,0.07964l-0.05177,0.21905l-0.06395,0.12371l-0.00009,0.00101l-0.16013,0.45979l-0.00078,0.02258l-0.00874,0.00474l-0.01794,0.0515l-0.33871,0.15492l-0.02895,0.02818l-0.03036,-0.00105l-0.08678,0.0397l-0.46839,0.25456l-0.05194,-0.01657l-0.00905,0.00414l-0.01853,-0.01293l-0.46383,-0.14799l-0.1202,-0.07433l-0.01243,0.00042l-0.02276,-0.02218l-0.02623,-0.01622l-0.17737,-0.18219l-0.18211,-0.17746l-0.0162,-0.02623l-0.02217,-0.02278l0.00043,-0.01242l-0.21299,-0.34481l-0.03572,-0.11218l-0.06522,-0.09801l-0.1401,-0.39325l-0.41564,-0.95256l-0.25119,-0.46217l-0.00303,-0.01172l-0.008,-0.00908l-0.19038,-0.3688l-0.01035,-0.04389l-0.027,-0.03613l-0.20187,-0.48186l-0.09166,-0.10987l-0.07742,-0.16017l-0.10314,-0.14494l-0.12985,-0.33136l-0.00227,-0.01761l-0.00983,-0.01478l-0.15296,-0.42934l-0.00111,-0.01133l-0.00611,-0.0096l-0.70071,-2.09873l-0.14923,-0.4189l-0.00242,-0.0249l-0.01292,-0.02142l-0.18056,-0.58754l-0.09267,-0.15004l-0.05399,-0.16949l-0.0816,-0.15807l-0.01982,-0.08401l-0.04653,-0.14606l-0.08497,-0.22178l-0.00884,-0.07277l-0.00719,-0.0226l0.00364,-0.00669l-0.04258,-0.35037l0.00934,-0.07488l-0.01732,-0.07344l0.00504,-0.37608l-0.04664,-0.8186l-0.07177,-0.95544l0.00082,-0.00481l-0.00149,-0.00464l-0.03804,-0.57172l-0.00918,-0.0128l0.0548,-0.29369l0.05306,-0.29401l0.01313,-0.00871l0.22258,-0.486l0.04366,-0.05461l0.02125,-0.06662l1.64715,-2.6637c0.0992,-0.16043 0.23274,-0.28666 0.38527,-0.37508l0.02339,-0.02277l0.0168,0.00058c0.33526,-0.17617 0.75233,-0.17553 1.09777,0.03807z" fill="#01d312" stroke-linecap="butt"/><path d="M242.84022,202.81309l-0.3587,14.92563" fill="none" stroke-linecap="round"/></g><g data-paper-data="{&quot;index&quot;:null}"><path d="M251.37803,203.91172l0.01236,0.00492l0.00972,0.02397c0.08249,0.11264 0.13919,0.24668 0.1601,0.39459l0.34728,2.45594l-0.00577,0.05507l0.0143,0.05351l0.00682,0.42329l0.00675,0.01049l-0.05504,0.23012l-0.05368,0.23045l-0.01073,0.00637l-0.20947,0.40256l-0.00256,0.00289l-0.00093,0.00374l-0.356,0.67014l-0.29423,0.57888l-0.11599,0.27437l-0.03592,0.04775l-0.01704,0.05729l-0.14234,0.24058l0.00051,0.006l-0.01241,0.01411l-0.02957,0.04998l-0.13218,0.13381l-0.08021,0.09114l-0.04109,0.05464l-0.10947,0.08868l-0.09309,0.10576l-0.11494,0.07933l-0.31786,0.3687l-0.01619,0.01143l-0.00968,0.01728l-0.2415,0.25634l-1.17587,1.29927l-0.00748,0.00501l-0.00441,0.00787l-0.24751,0.26273l-0.01183,0.00759l-0.00725,0.01205l-0.19959,0.19902l-0.12091,0.07231l-0.1071,0.09153l-0.10143,0.05054l-0.2997,0.28526l-0.03108,0.01762l-0.02146,0.02856l-0.2554,0.20691l-0.00869,0.00404l-0.00592,0.00754l-0.32921,0.2553l-0.60448,0.55866l-0.22672,0.24066l-0.07849,0.05034l-0.06161,0.06999l-0.26415,0.18232l-0.00364,0.00915l-0.02333,0.00946l-0.02009,0.01387l-0.18854,0.07078l-0.1866,0.07571l-0.02418,0.00342l-0.02357,0.00885l-0.00887,-0.00427l-0.11083,0.01568l-0.38349,-0.04022l-0.01756,0.00348l-0.00525,-0.00588l-0.04295,-0.00451l-0.25874,-0.33364l-0.05032,-0.0564l-0.02235,-0.00889l-0.01203,-0.02965l-0.19638,-0.22011l0.00337,-0.04306l-0.00483,-0.00623l0.00663,-0.01663l0.03012,-0.38441l0.00026,-0.00077l-0.00702,-0.11006l0.03214,-0.17535l0.02608,-0.05744l0.00493,-0.06288l0.061,-0.1821l-0.21982,-0.31848l-0.00914,-0.00364l-0.00947,-0.02332l-0.01388,-0.02009l-0.07077,-0.18854l-0.07572,-0.1866l-0.00341,-0.02419l-0.00885,-0.02356l0.00426,-0.00888l-0.17342,-1.22635l-0.00655,-0.00734l0.00196,-0.0251l-0.00342,-0.02419l0.02101,-0.20028l0.01573,-0.20076l0.00276,-0.00823l0.00475,-0.08316l-0.01942,-0.13734l0.0091,-0.08682l-0.01632,-0.08576l0.01141,-0.20033l-0.03521,-0.24898l0.01126,-0.1073l-0.01511,-0.10683l0.01299,-0.12386l-0.00056,-0.004l-0.00655,-0.00734l0.00196,-0.0251l-0.00342,-0.02418l0.02101,-0.20029l0.01573,-0.20076l0.00276,-0.00823l0.00968,-0.1698l0.01647,-0.05288l-0.00352,-0.05527l0.05443,-0.29701l0.01326,-0.2325l0.00635,-0.0204l-0.00299,-0.02116l0.04849,-0.46232l0.03305,-0.09069l0.00753,-0.09622l0.04003,-0.11952l0.03851,-0.06031l-0.00371,-0.04357l0.11478,-0.13042l0.0286,-0.04481l-0.00282,-0.01997l0.02304,-0.21968l0.03218,-0.41073l-0.0102,-0.07219l0.01469,-0.14012l-0.00897,-0.1406l0.02331,-0.12715l0.00833,-0.07939l0.00884,-0.11284l-0.01397,-0.06238l0.00846,-0.34279l0.01852,-0.06701l-0.00443,-0.06938l0.00556,-0.03033l0.0006,-0.00757l-0.00342,-0.02418l0.02101,-0.20028l0.01574,-0.20077l0.00776,-0.02315l0.00263,-0.02504l0.00779,-0.00603l0.02187,-0.0653l0.0385,-0.06032l-0.0037,-0.04357l0.11478,-0.13043l0.09348,-0.14644l0.04289,-0.00851l0.04728,-0.05372l0.05667,-0.03913l0.00364,-0.00915l0.02333,-0.00946l0.0201,-0.01387l0.18854,-0.07078l0.1866,-0.07571l0.02418,-0.00342l0.02356,-0.00884l0.00888,0.00426l0.22246,-0.03146l0.44924,0.04712l0.04204,0.05421l0.34046,-0.04814l0.03225,-0.01608l0.13757,-0.03036l0.13055,-0.05297l0.02663,-0.00376l0.19181,-0.09557l0.01023,-0.00226l0.00812,-0.00662l0.68483,-0.32155l0.73292,-0.36516l0.00541,-0.00374l0.00365,-0.00914l0.02333,-0.00947l0.02009,-0.01387l0.18854,-0.07078l0.1866,-0.07571l0.02417,-0.00343l0.02357,-0.00884l0.00887,0.00426l0.39471,-0.05581l0.1154,-0.04683l0.10683,-0.01511l0.09997,-0.04057l0.21953,-0.03105l0.26685,-0.10018l0.11418,0.05481l0.01342,-0.01041l0.13967,0.05557l0.18992,-0.01617l0.19026,0.16744l0.30084,0.1197l0.01239,0.03055c0.05681,-0.02076 0.11666,-0.03592 0.17894,-0.04472c0.3185,-0.04504 0.62119,0.08717 0.80831,0.3216z" fill="#01d312" stroke-linecap="butt"/><path d="M249.09066,204.00124l-4.48793,10.93948" fill="none" stroke-linecap="round"/></g><g><path d="M236.85053,201.7238c0.05352,0.03308 0.10222,0.07101 0.14591,0.11283l0.02363,-0.023l0.32358,0.01122l0.24149,-0.07692l0.16743,0.09109l0.15022,0.00522l0.0081,0.01492l0.12659,-0.00432l0.20413,0.19893l0.18857,0.11661l0.07527,0.07731l0.09177,0.05675l0.08687,0.08924l0.33906,0.20965l0.00984,-0.00033l0.01803,0.01756l0.02076,0.01284l0.14048,0.14428l0.14423,0.14055l0.01283,0.02078l0.01756,0.01803l-0.00034,0.00984l0.00346,0.0056l0.52452,0.6288l0.498,0.56954l0.00478,0.00931l0.00846,0.00618l0.13727,0.16457l0.02288,0.01415l0.09827,0.10094l0.1138,0.08307l0.02309,0.02768l0.29244,0.18084l0.06028,-0.03276l0.43033,0.13729l0.19109,0.11817l0.00984,-0.00034l0.01803,0.01756l0.02077,0.01284l0.14048,0.14429l0.14423,0.14054l0.01283,0.02078l0.01756,0.01804l-0.00034,0.00984l0.03619,0.05859l0.02172,0.06819l0.03586,0.02502l0.02679,0.17166l0.05273,0.16554l-0.0209,0.03841l0.01104,0.0707l-0.0062,0.06859l0.00471,0.00865l-0.00764,0.02398l-0.0022,0.02432l-0.06624,0.19018l-0.06121,0.19186l-0.01284,0.02077l-0.0025,0.00717l-0.00709,0.03001l-0.03192,0.06177l-0.00996,0.0688l-0.12994,0.31732l-0.03784,0.05151l-0.03723,0.10689l-0.02427,0.07605l-0.02972,0.12579l-0.06469,0.12516l-0.04282,0.13422l-0.03835,0.06201l-0.1355,0.38906l-0.06714,0.21044l-0.0106,0.01716l0.0082,0.05253l0.05272,0.16555l-0.02089,0.03841l0.01104,0.0707l-0.01135,0.12554l-0.03175,0.09114l-0.00616,0.09633l-0.14129,0.44286l-0.01124,0.01818l-0.00238,0.02123l-0.08125,0.21824l-0.06944,0.29387l-0.02543,0.0492l-0.00616,0.05504l-0.05934,0.15938l-0.00078,0.00865l-0.06624,0.19018l-0.06121,0.19185l-0.01284,0.02078l-0.00829,0.02378l-0.00895,0.00409l-0.00212,0.00343l-0.03786,0.11865l-0.05674,0.09177l-0.03279,0.10279l-0.13225,0.21386l-0.07002,0.18804l-0.04939,0.07198l-0.02654,0.08317l-0.07295,0.11797l-0.02905,0.07806l-0.00078,0.00865l-0.06624,0.19018l-0.06121,0.19186l-0.01285,0.02077l-0.00828,0.02378l-0.00895,0.00409l-0.6514,1.05342l0.00034,0.00984l-0.01756,0.01803l-0.01284,0.02077l-0.14429,0.14047l-0.14055,0.14423l-0.02077,0.01283l-0.01804,0.01757l-0.00984,-0.00034l-0.32922,0.20336l-0.01729,0.19127l-0.02075,0.05957l0.00081,0.06308l-0.041,0.17348l-0.05065,0.09797l-0.00007,0.0008l-0.12682,0.36414l-0.00062,0.0179l-0.00692,0.00376l-0.01421,0.04078l-0.26825,0.12269l-0.02293,0.02232l-0.02404,-0.00083l-0.06873,0.03143l-0.37097,0.20162l-0.04114,-0.01312l-0.00716,0.00328l-0.01469,-0.01024l-0.36735,-0.1172l-0.09519,-0.05886l-0.00984,0.00034l-0.01803,-0.01757l-0.02077,-0.01284l-0.14047,-0.14428l-0.14423,-0.14055l-0.01283,-0.02078l-0.01757,-0.01803l0.00035,-0.00984l-0.16867,-0.27308l-0.02831,-0.08883l-0.05166,-0.07763l-0.11096,-0.31145l-0.32918,-0.75441l-0.19894,-0.36603l-0.0024,-0.00928l-0.00633,-0.0072l-0.15078,-0.29207l-0.00819,-0.03477l-0.02138,-0.02862l-0.15988,-0.38162l-0.07259,-0.08703l-0.06132,-0.12684l-0.08168,-0.11479l-0.10283,-0.26243l-0.0018,-0.01394l-0.0078,-0.0117l-0.12113,-0.34002l-0.00088,-0.00898l-0.00484,-0.00759l-0.55496,-1.66216l-0.1182,-0.33177l-0.00192,-0.01971l-0.01024,-0.01696l-0.143,-0.46532l-0.0734,-0.11882l-0.04276,-0.13425l-0.06463,-0.12518l-0.01568,-0.06654l-0.03685,-0.11568l-0.0673,-0.17564l-0.007,-0.05765l-0.00569,-0.0179l0.00287,-0.00529l-0.03372,-0.27749l0.0074,-0.0593l-0.01371,-0.05816l0.00399,-0.29786l-0.03693,-0.64831l-0.05685,-0.7567l0.00066,-0.00379l-0.00118,-0.00367l-0.03013,-0.4528l-0.00727,-0.01013l0.04341,-0.23261l0.04202,-0.23285l0.0104,-0.0069l0.17628,-0.38491l0.03458,-0.04325l0.01684,-0.05276l1.30452,-2.10961c0.07858,-0.12705 0.18433,-0.22703 0.30512,-0.29705l0.01853,-0.01804l0.0133,0.00045c0.26553,-0.13952 0.59583,-0.13903 0.86943,0.03016z" fill="#01d312" stroke-linecap="butt"/><path d="M238.03989,202.69437l-0.28408,11.82088" fill="none" stroke-linecap="round"/></g></g><path d="M267.75001,187.82747c0,13.25484 -11.52867,24 -25.75,24c-14.22133,0 -25.75,-10.74516 -25.75,-24c0,-13.25484 11.52867,-24 25.75,-24c14.22133,0 25.75,10.74516 25.75,24z" fill="#01d312" stroke="#029f0f" stroke-width="2.5" stroke-linecap="butt"/><g data-paper-data="{&quot;index&quot;:null}" stroke-width="0" stroke-linecap="butt"><path d="M254.03618,188.80679c-0.00315,2.30899 -2.8436,4.17692 -6.34432,4.17214c-3.50072,-0.00478 -6.33607,-1.88046 -6.33292,-4.18945c0.00315,-2.30899 2.8436,-4.17692 6.34432,-4.17214c3.50072,0.00478 6.33607,1.88046 6.33292,4.18945z" fill="url(#color-1)" stroke="#029f0f"/><path d="M251.61028,187.80689c-0.00122,0.8938 -1.08906,1.61688 -2.42976,1.61505c-1.3407,-0.00183 -2.42656,-0.72788 -2.42534,-1.62169c0.00122,-0.8938 1.08906,-1.61688 2.42976,-1.61505c1.3407,0.00183 2.42656,0.72788 2.42534,1.62169z" fill="url(#color-2)" stroke="none"/></g><g data-paper-data="{&quot;index&quot;:null}" stroke-width="0" stroke-linecap="butt"><path d="M251.51527,179.37469c-0.00249,1.82055 -2.24207,3.29334 -5.00226,3.28957c-2.76019,-0.00377 -4.99575,-1.48267 -4.99326,-3.30322c0.00249,-1.82055 2.24207,-3.29334 5.00226,-3.28957c2.76019,0.00377 4.99575,1.48267 4.99326,3.30322z" fill="url(#color-3)" stroke="#029f0f"/><path d="M249.60254,178.41506c-0.00096,0.70473 -0.85869,1.27485 -1.91578,1.27341c-1.05709,-0.00144 -1.91326,-0.57391 -1.91229,-1.27864c0.00096,-0.70473 0.85869,-1.27485 1.91578,-1.27341c1.05709,0.00144 1.91326,0.57391 1.91229,1.27864z" fill="url(#color-4)" stroke="none"/></g><g stroke-linecap="butt"><path d="M288.7172,184.3556c0,12.01219 -6.26801,21.75 -14,21.75c-7.73199,0 -14,-9.73781 -14,-21.75c0,-12.01219 6.26801,-21.75 14,-21.75c7.73199,0 14,9.73781 14,21.75z" fill="#01d312" stroke="#029f0f" stroke-width="2.5"/><path d="M286.7172,184.3556c0,8.42234 -3.69365,15.25 -8.25,15.25c-4.55635,0 -8.25,-6.82766 -8.25,-15.25c0,-8.42234 3.69365,-15.25 8.25,-15.25c4.55635,0 8.25,6.82766 8.25,15.25z" fill="#0f0f0f" stroke="none" stroke-width="0"/></g><path d="M239.41036,210.33007l-2.3892,-45.612l6.0816,-0.4344c0,0 3.3559,11.15288 4.04921,22.57422c0.58619,9.65667 -1.47418,19.62911 -1.45528,21.94479c0.00709,0.86889 -2.37673,0.65859 -2.37673,0.65859z" fill="#ff0000" stroke="none" stroke-width="0" stroke-linecap="butt"/><path d="M246.98277,215.21776c-18.24348,0 -52.14636,-29.87429 -52.14636,-29.87429c0,0 33.90288,-27.26789 52.14636,-27.26789c1.51501,0 3.00619,0.08822 4.46706,0.25904c-1.86627,0.8184 -3.72303,1.81259 -5.39533,2.58854c-7.57133,3.58205 -9.33434,10.9579 -9.33434,18.38932c0.00014,5.23102 1.74178,10.19135 2.57126,15.1577c0.45475,2.72272 2.13116,5.21681 2.14829,7.98944c1.53841,3.08462 2.66397,5.93789 4.80891,8.54972c1.18551,1.44356 3.56349,2.09454 4.06091,4.06532c-1.09408,0.09464 -2.20388,0.1431 -3.32677,0.1431z" fill="#9f9f9f" stroke="#535353" stroke-width="2" stroke-linecap="butt"/><path d="M254.71723,182.88388c-0.88388,0.88388 -1.76777,0 -1.76777,0l-0.99546,-1.24738c-0.4901,-1.96038 -0.70399,-3.61647 -0.70399,-5.6365c0,0 0,-1.25 1.25,-1.25c1.25,0 1.25,1.25 1.25,1.25c0,1.83193 0.18471,3.25164 0.62934,5.03016l0.33787,0.08595c0,0 0.88388,0.88388 0,1.76777z" fill="#543a00" stroke="none" stroke-width="0.5" stroke-linecap="butt"/><path d="M256.56196,181.18585c-1.18585,0.39528 -1.58114,-0.79057 -1.58114,-0.79057l-0.36016,-1.09212c-0.23602,-0.9693 -0.36437,-1.97223 -0.37066,-2.96984c0,0 0,-1.25 1.25,-1.25c1.25,0 1.25,1.25 1.25,1.25c-0.0063,0.79396 0.09754,1.59472 0.29601,2.3635l0.30651,0.90788c0,0 0.39528,1.18585 -0.79057,1.58114z" fill="#543a00" stroke="none" stroke-width="0.5" stroke-linecap="butt"/><path d="M255.16668,191.25c-1.25,0 -1.25,-1.25 -1.25,-1.25c0,-1.33333 0,-3.66667 0,-5c0,0 0,-1.25 1.25,-1.25c1.25,0 1.25,1.25 1.25,1.25c0,1.33333 0,2.66667 0,4v1c0,0 0,1.25 -1.25,1.25z" fill="#543a00" stroke="none" stroke-width="0.5" stroke-linecap="butt"/><path d="M259.16668,192.58333c-1.25,0 -1.25,-1.25 -1.25,-1.25c0,-2.11111 0,-5.22222 0,-7.33333c0,0 0,-1.25 1.25,-1.25c1.25,0 1.25,1.25 1.25,1.25c0,2.11111 0,4.22222 0,6.33333v1c0,0 0,1.25 -1.25,1.25z" fill="#543a00" stroke="none" stroke-width="0.5" stroke-linecap="butt"/><path d="M226.38007,196.14601c-0.24684,-0.5631 1.97973,-2.47666 1.97973,-2.47666c0,0 -0.69092,-2.65013 -0.34604,-3.1499c0.39532,-0.57286 2.86267,0.62899 2.86267,0.62899c0,0 2.2648,-2.13553 2.60117,-2.01976c0.48667,0.1675 0.24273,3.60166 0.24273,3.60166c0,0 2.32979,1.73262 2.27972,2.08244c-0.09916,0.69278 -2.9984,1.00384 -2.9984,1.00384c0,0 -1.17449,3.525 -1.54674,3.53289c-0.62724,0.01331 -1.58558,-2.84235 -1.58558,-2.84235c0,0 -3.22034,0.25232 -3.48926,-0.36114z" fill="#535353" stroke="none" stroke-width="0" stroke-linecap="round"/><path d="M238.12536,203.00393c0.34423,0.38455 -0.93102,2.49349 -0.93102,2.49349c0,0 1.24456,1.93302 1.10025,2.42189c-0.16541,0.56036 -2.44793,0.24739 -2.44793,0.24739c0,0 -1.24765,2.29598 -1.54624,2.29166c-0.43202,-0.00625 -1.13605,-2.80927 -1.13605,-2.80927c0,0 -2.31168,-0.77235 -2.36328,-1.06447c-0.10218,-0.57853 2.12893,-1.58528 2.12893,-1.58528c0,0 0.01441,-3.11896 0.30927,-3.22266c0.49681,-0.17474 2.00845,1.85223 2.00845,1.85223c0,0 2.5026,-1.04393 2.87762,-0.62498z" data-paper-data="{&quot;index&quot;:null}" fill="#535353" stroke="none" stroke-width="0" stroke-linecap="round"/><path d="M227.27164,204.16681c0,0 -1.85945,2.49336 -2.47057,2.27841c-0.3627,-0.12757 -0.38043,-3.96416 -0.38043,-3.96416c0,0 -2.74446,-1.23839 -2.61877,-1.95003c0.06347,-0.35933 2.90705,-1.3094 2.90705,-1.3094c0,0 0.86602,-3.44795 1.39744,-3.45564c0.3673,-0.00531 1.90202,2.81895 1.90202,2.81895c0,0 2.80769,-0.385 3.01117,0.3043c0.17751,0.60136 -1.3534,2.97914 -1.3534,2.97914c0,0 1.56867,2.59418 1.14523,3.06721c-0.46131,0.51534 -3.53973,-0.76878 -3.53973,-0.76878z" data-paper-data="{&quot;index&quot;:null}" fill="#535353" stroke="none" stroke-width="0" stroke-linecap="round"/><path d="M236.23408,167.88836l1.03488,2.35097l-3.43082,3.31935l3.23131,3.02485l-1.27491,2.07673l-2.24647,-2.28827l-3.31618,-3.53152z" fill="#535353" stroke="none" stroke-width="0" stroke-linecap="round"/><path d="M229.33408,167.58836l1.03488,2.35097l-3.43082,3.31935l3.23131,3.02485l-1.27491,2.07673l-2.24647,-2.28827l-3.31618,-3.53152z" fill="#535353" stroke="none" stroke-width="0" stroke-linecap="round"/><path d="M225.53408,166.98836l1.03488,2.35097l-3.43082,3.31935l3.23132,3.02485l-1.27492,2.07673l-2.24647,-2.28827l-3.31618,-3.53152z" fill="#535353" stroke="none" stroke-width="0" stroke-linecap="round"/><path d="M232.56692,167.68836l1.00606,2.28549l-3.33527,3.2269l3.14132,2.94061l-1.23941,2.0189l-2.18391,-2.22454l-3.22383,-3.43316z" fill="#535353" stroke="none" stroke-width="0" stroke-linecap="round"/><path d="M277.93832,180.75201v-3.6h16v3.6z" fill="#939496" stroke="#14435c" stroke-width="0.5" stroke-linecap="butt"/><path d="M278.33832,188.75201v-3.2h15.4v3.2z" fill="#939496" stroke="#14435c" stroke-width="0.5" stroke-linecap="butt"/><path d="M277.93832,192.55201v-2.8h14.8v2.8z" fill="#939496" stroke="#14435c" stroke-width="0.5" stroke-linecap="butt"/><path d="M276.73832,197.95201v-3h16.6v3z" fill="#939496" stroke="#14435c" stroke-width="0.5" stroke-linecap="butt"/><path d="M277.73832,184.95201v-3.2h18v3.2z" fill="#939496" stroke="#14435c" stroke-width="0.5" stroke-linecap="butt"/><path d="M275.33832,197.55201l-0.8,-23.8h6.4v25.2z" fill="#080809" stroke="none" stroke-width="0" stroke-linecap="butt"/><path d="M288.82374,184.62001c0,4.6435 -2.9812,14.17576 -8.59913,19.10009c-2.67557,2.34524 -7.79648,1.1263 -10.03095,2.53718c-0.51069,-14.05627 7.13209,-31.78631 -4.09117,-43.94046c2.05363,0.54461 4.51435,-0.03882 6.36196,0.73625c2.59923,1.09037 6.02768,0.30579 8.07398,1.91058c5.92849,4.64935 8.28531,13.29525 8.28531,19.65635z" data-paper-data="{&quot;index&quot;:null}" fill="url(#color-5)" stroke="none" stroke-width="0" stroke-linecap="butt"/></g></g></svg>