<svg version="1.1" xmlns="http://www.w3.org/2000/svg" xmlns:xlink="http://www.w3.org/1999/xlink" width="119.85392" height="70.53022" viewBox="0,0,119.85392,70.53022"><g transform="translate(-170.05779,-143.21978)"><g data-paper-data="{&quot;isPaintingLayer&quot;:true}" fill-rule="nonzero" stroke-linejoin="miter" stroke-miterlimit="10" stroke-dasharray="" stroke-dashoffset="0" style="mix-blend-mode: normal"><g stroke-width="2.5" stroke-linecap="butt"><g><path d="M243.03187,205.53607l0.51394,-12.48944l36.46914,1.50071l-0.51394,12.48943z" fill="#9c671d" stroke="#6b3b0d"/><path d="M278.73211,210.65752c-4.87185,-0.49232 -8.35307,-5.5244 -7.77553,-11.23945c0.57754,-5.71505 4.99514,-9.9489 9.86698,-9.45657c4.87185,0.49232 8.35307,5.5244 7.77553,11.23945c-0.57754,5.71505 -4.99513,9.94891 -9.86698,9.45657z" fill="#5be62d" stroke="#199e25"/></g><g><path d="M243.58869,164.03179l-0.53133,-12.4887l36.46701,-1.55147l0.53132,12.4887z" fill="#9c671d" stroke="#6b3b0d"/><path d="M279.592,166.15265c-4.89595,-0.08357 -8.78542,-4.8072 -8.68738,-10.55052c0.09803,-5.74332 4.14645,-10.33146 9.04239,-10.24788c4.89595,0.08357 8.78543,4.8072 8.68739,10.55053c-0.09803,5.74332 -4.14645,10.33146 -9.0424,10.24788z" fill="#5be62d" stroke="#199e25"/></g></g><path d="M271.6875,180c0,17.94925 -14.18698,32.5 -31.6875,32.5c-17.50053,0 -31.6875,-14.55075 -31.6875,-32.5c0,-17.94925 14.18697,-32.5 31.6875,-32.5c17.50052,0 31.6875,14.55075 31.6875,32.5z" fill="#32c302" stroke="#1a6521" stroke-width="2.5" stroke-linecap="butt"/><path d="M205.33702,151.28148c0.79132,0.61141 0.17991,1.40272 0.17991,1.40272l0.03704,-0.2206c-0.31873,1.20732 0.61912,2.9689 1.45054,3.92021c2.40584,2.75278 6.15365,5.37476 9.05147,7.60265c0,0 0.79132,0.61141 0.17991,1.40272c-0.61141,0.79132 -1.40272,0.17991 -1.40272,0.17991c-3.74953,-2.90998 -12.09844,-8.12833 -11.24161,-13.49144l0.34274,-0.61626c0,0 0.61141,-0.79132 1.40272,-0.17991z" fill="#141514" stroke="none" stroke-width="0.5" stroke-linecap="butt"/><path d="M197.875,169.00001c1,0 1,1 1,1l-0.29289,-0.20711c1.72983,1.93375 7.75372,1.70523 10.09678,1.22653c0,0 0.98058,-0.19612 1.1767,0.78446c0.19612,0.98058 -0.78446,1.1767 -0.78446,1.1767c-3.26199,0.64038 -9.34913,0.62331 -11.90322,-1.77347l-0.29289,-1.20711c0,0 0,-1 1,-1z" fill="#141514" stroke="none" stroke-width="0.5" stroke-linecap="butt"/><path d="M196.92779,178.60558c0.89443,-0.44721 1.34164,0.44721 1.34164,0.44721l0.2313,0.66717c5.39799,0.47632 10.65539,0.21117 16.00024,-0.46224c0,0 0.99228,-0.12403 1.11631,0.86824c0.12403,0.99228 -0.86824,1.11631 -0.86824,1.11631c-5.56644,0.69061 -12.05852,1.75576 -17.49976,0.03776l-0.7687,-1.33283c0,0 -0.44721,-0.89443 0.44721,-1.34164z" fill="#141514" stroke="none" stroke-width="0.5" stroke-linecap="butt"/><path d="M260.375,164c0,5.10863 -3.74962,9.25 -8.375,9.25c-4.62538,0 -8.375,-4.14137 -8.375,-9.25c0,-5.10863 3.74962,-9.25 8.375,-9.25c4.62538,0 8.375,4.14137 8.375,9.25z" fill="#ffffa8" stroke="#040404" stroke-width="2.5" stroke-linecap="butt"/><path d="M260.69216,186.62501c0,4.21117 -3.26097,7.625 -7.28358,7.625c-4.02261,0 -7.28358,-3.41383 -7.28358,-7.625c0,-4.21117 3.26097,-7.625 7.28358,-7.625c4.02261,0 7.28358,3.41383 7.28358,7.625z" fill="#ffffa8" stroke="#040404" stroke-width="2.5" stroke-linecap="butt"/><path d="M257.125,162c0,1.38071 -1.39911,2.5 -3.125,2.5c-1.72589,0 -3.125,-1.11929 -3.125,-2.5c0,-1.38071 1.39911,-2.5 3.125,-2.5c1.72589,0 3.125,1.11929 3.125,2.5z" fill="#0c0c0b" stroke="#040404" stroke-width="0" stroke-linecap="butt"/><path d="M259.125,184.62501c0,1.17361 -0.7835,2.125 -1.75,2.125c-0.9665,0 -1.75,-0.95139 -1.75,-2.125c0,-1.17361 0.7835,-2.125 1.75,-2.125c0.9665,0 1.75,0.95139 1.75,2.125z" fill="#0c0c0b" stroke="none" stroke-width="0" stroke-linecap="butt"/><path d="M259.625,172.50001c0,-0.69036 0.55964,-1.25 1.25,-1.25c0.69036,0 1.25,0.55964 1.25,1.25c0,0.69036 -0.55964,1.25 -1.25,1.25c-0.69036,0 -1.25,-0.55964 -1.25,-1.25z" fill="#0c0c0b" stroke="none" stroke-width="0.5" stroke-linecap="butt"/><path d="M260.625,178.50001c0,-0.69036 0.55964,-1.25 1.25,-1.25c0.69036,0 1.25,0.55964 1.25,1.25c0,0.69036 -0.55964,1.25 -1.25,1.25c-0.69036,0 -1.25,-0.55964 -1.25,-1.25z" fill="#0c0c0b" stroke="none" stroke-width="0.5" stroke-linecap="butt"/><path d="M205.1405,185.69378l-32.81232,-15.58259l33.21038,-16.81795l0.94367,-8.69894l7.64202,0.86131l-1.35202,51.46614l-7.66261,-0.59709z" fill="#f2870a" stroke="#b16e1e" stroke-width="2" stroke-linecap="round"/><g><path d="M232.96287,197.17714c0,0 -8.04757,0.40047 -18.40524,0.51708c-0.01297,-0.04096 -0.02655,-0.08023 -0.04042,-0.11763c0.07801,-0.21382 0.12057,-0.44469 0.12057,-0.6855c0,-1.10457 -0.89543,-2 -2,-2c-0.12025,0 -0.23803,0.01061 -0.35244,0.03095c-0.10913,-0.11967 -0.21825,-0.23933 -0.32738,-0.359l-1.11301,0.77904l-0.32344,-0.59298l-0.99973,0.54531c-0.9834,-0.91967 -2.13141,-1.72839 -2.79471,-2.10147c-1.10991,-0.62428 -2.25101,-2.12673 -3.43806,-1.66568c-1.12152,0.4356 -1.69857,2.13494 -1.99501,4.04575l-0.70838,0.10898c-0.95319,0.13031 -1.69254,0.93224 -1.72544,1.9132c-3.48489,-0.09505 -6.93017,-0.24843 -10.16568,-0.48043c0.09586,-1.80053 0.1596,-3.33003 0.22862,-4.10974c0.22339,-2.5237 0.44757,-6.89044 -1.13372,-9.0308c-0.67961,-0.91988 -2.46864,-1.94495 -2.74992,-3.06794c-0.35128,-1.40249 1.01087,-3.9868 0.44004,-6.55555c-0.26909,-1.21088 -3.3119,-4.039 -3.17037,-4.88512c0.49859,-2.98073 2.54449,-5.50839 2.54449,-8.66287c0,-1.71743 -2.18396,-5.07029 -1.90206,-6.18948c0.22469,-0.89207 0.96965,-1.68002 0.92822,-2.59902c-0.00352,-0.07814 -1.1776,-3.4476 -1.5303,-3.79264c-0.15374,-0.1504 0.23668,-2.06765 -0.13838,-2.49091c-0.11247,-0.12692 -0.23094,-0.2536 -0.35512,-0.37989c0,0 8.64109,2.67813 14.19842,2.98152c0.29086,0.9785 1.19938,1.23152 1.64977,1.29694c-0.00246,0.04771 -0.00372,0.09665 -0.00372,0.14685c0,2 2,2 2,2c2.40681,-0.0016 4.73764,-0.17671 7.13246,-0.3944l0.83965,-3.96416c0,0 -0.20762,-0.27683 -0.5653,-0.51383c-0.01271,-0.10078 -0.0324,-0.20605 -0.05989,-0.31599c-0.04263,-0.17053 -0.09651,-0.32233 -0.15932,-0.45737c1.0174,-0.22279 2.08734,-0.32242 3.32277,-0.18328c1.01322,0.11411 2.12646,0.27818 3.30021,0.47831c-0.21911,1.41812 0.2352,2.75961 1.05708,3.83168c0.59294,1.42212 1.53023,2.65564 2.48962,3.18968c3.65858,2.03653 6.68187,-0.45822 9.14761,-2.7762c-0.00253,-0.44928 0.08004,-0.92905 0.17038,-1.41161c4.1065,1.04161 7.15233,1.91147 7.15233,1.91147z" fill="#858481" stroke="#504c40" stroke-width="2" stroke-linecap="butt"/><path d="" fill="#858481" stroke="#504c40" stroke-width="2" stroke-linecap="butt"/><path d="M223.29217,157.90962c0,-1.58621 1.28587,-2.87208 2.87208,-2.87208c1.58621,0 2.87208,1.28588 2.87208,2.87208c0,1.58621 -1.28588,2.87208 -2.87208,2.87208c-1.58621,0 -2.87208,-1.28588 -2.87208,-2.87208z" fill="#504c40" stroke="none" stroke-width="0.5" stroke-linecap="butt"/><path d="M223.29217,191.47162c0,-1.58621 1.28587,-2.87208 2.87208,-2.87208c1.58621,0 2.87208,1.28588 2.87208,2.87208c0,1.58621 -1.28588,2.87208 -2.87208,2.87208c-1.58621,0 -2.87208,-1.28588 -2.87208,-2.87208z" fill="#504c40" stroke="none" stroke-width="0.5" stroke-linecap="butt"/><path d="M225.69117,156.64385l24.40162,7.09866l-3.99299,31.27843l-21.96145,-3.54933" fill="none" stroke="#7b7975" stroke-width="2" stroke-linecap="round"/><path d="M184.78655,162.41151c-0.00213,1.03511 -0.8132,2.37166 -0.08194,3.10427c0.25689,0.25737 0.71721,-0.38928 1.05854,-0.26387c1.63953,0.60238 3.0951,2.00387 2.78416,3.9871c-0.49757,3.17361 -2.00749,2.68754 -4.34859,2.9098c-0.91904,-1.15435 -1.97423,-2.37006 -1.88955,-2.87629c0.43186,-2.58178 2.02454,-4.82365 2.44315,-7.42734c0.02082,0.18841 0.03463,0.3771 0.03424,0.56633z" fill="#d40505" stroke="none" stroke-width="0.5" stroke-linecap="butt"/><path d="M186.83495,153.74792c0.38103,0.49156 -0.0534,1.2651 0.12181,1.86185c0.52186,1.77733 2.5701,2.36868 0.0589,4.67912c-0.49349,0.45404 -1.80049,-0.5389 -2.2716,-0.46135c-0.43908,-1.80636 -2.03602,-4.44045 -1.79247,-5.40737c0.19977,-0.79313 0.8108,-1.50395 0.91477,-2.29775c0.8451,-0.23098 1.81292,0.13459 2.96859,1.6255z" fill="#d40505" stroke="none" stroke-width="0.5" stroke-linecap="butt"/><path d="M192.08291,149.29664l1.44862,0.29513c0.64153,0.35701 1.11168,0.93826 1.46179,1.61864l0.54692,-0.23439l0.65299,1.52365c0.0826,0.18125 0.12862,0.38269 0.12862,0.59486c0,0.46378 -0.21985,0.87621 -0.56103,1.13876c0.06207,0.9666 -0.48519,1.80607 -2.51708,2.06917c-0.93297,0.12081 -1.32804,-1.34661 -1.8607,-2.12205c-1.1916,-1.73472 -2.30285,-3.90584 -3.14116,-5.84418c0,0 -0.56568,-1.31993 0.75425,-1.88562c1.31993,-0.56569 1.88561,0.75424 1.88561,0.75424c0.30213,0.71256 0.74336,1.40205 1.20116,2.09178z" fill="#d40505" stroke="none" stroke-width="0.5" stroke-linecap="butt"/><path d="M198.48299,191.36203c1.68093,-0.07358 3.2161,0.22349 1.82253,3.55292c-0.64272,1.53554 -5.02859,1.31831 -6.30704,1.32021c0,0 -1.43604,-0.00001 -1.43604,-1.43605c0,-1.43604 1.43604,-1.43604 1.43604,-1.43604c0.13275,0.00022 0.34885,-0.0255 0.61332,-0.06052c0.09549,-0.34167 0.31418,-0.6319 0.60514,-0.81982l1.31247,-0.87498l0.08487,0.12731l0.19917,-0.27392c0.36244,-0.00361 0.77522,-0.04099 1.19515,-0.07084c0.13871,-0.12806 0.29058,-0.23589 0.44982,-0.3158z" fill="#d40505" stroke="none" stroke-width="0.5" stroke-linecap="butt"/></g></g></g></svg>