<svg version="1.1" xmlns="http://www.w3.org/2000/svg" xmlns:xlink="http://www.w3.org/1999/xlink" width="72.28611" height="55.81557" viewBox="0,0,72.28611,55.81557"><defs><linearGradient x1="249.91968" y1="178.59448" x2="260.41968" y2="178.59448" gradientUnits="userSpaceOnUse" id="color-1"><stop offset="0" stop-color="#7600d4"/><stop offset="1" stop-color="#c800ec"/></linearGradient><linearGradient x1="249.91968" y1="193.92781" x2="260.41968" y2="193.92781" gradientUnits="userSpaceOnUse" id="color-2"><stop offset="0" stop-color="#7600d4"/><stop offset="1" stop-color="#c800ec"/></linearGradient></defs><g transform="translate(-218.70859,-165.73513)"><g data-paper-data="{&quot;isPaintingLayer&quot;:true}" fill-rule="nonzero" stroke-linejoin="miter" stroke-miterlimit="10" stroke-dasharray="" stroke-dashoffset="0" style="mix-blend-mode: normal"><g><g data-paper-data="{&quot;index&quot;:null}" fill="#007724" stroke="#8fd200" stroke-width="1"><g><path d="M249.23068,205.37788c0.07316,0.02385 0.142,0.0548 0.20601,0.09187l0.02142,-0.03417l0.38771,-0.08025l0.26467,-0.16123l0.22528,0.05981l0.17999,-0.03725l0.01395,0.01537l0.14914,-0.04175l0.30008,0.17731l0.25779,0.08401l0.11178,0.07009l0.12546,0.04088l0.12901,0.08089l0.46349,0.15105l0.01159,-0.00325l0.0265,0.01567l0.02838,0.00925l0.20864,0.13082l0.212,0.12527l0.02127,0.02098l0.02608,0.01636l0.00244,0.01179l0.00574,0.00565l0.80507,0.59539l0.75642,0.53266l0.00836,0.00969l0.01183,0.0049l0.2107,0.15582l0.03127,0.01019l0.14596,0.09152l0.15924,0.06579l0.03543,0.0262l0.39978,0.13028l0.06214,-0.05635l0.551,0.03866l0.26121,0.08512l0.01159,-0.00324l0.02651,0.01567l0.0284,0.00924l0.20863,0.13081l0.212,0.12528l0.02126,0.02097l0.02608,0.01635l0.00244,0.01179l0.05994,0.05915l0.04552,0.07472l0.04985,0.01936l0.08148,0.1962l0.11053,0.18144l-0.01373,0.05168l0.03357,0.08081l0.01246,0.08328l0.00808,0.00893l-0.00215,0.03071l0.00442,0.02953l-0.02369,0.24512l-0.01725,0.24565l-0.00926,0.02838l-0.00089,0.00925l0.00025,0.03771l-0.02007,0.0826l0.00808,0.08461l-0.06261,0.41461l-0.03007,0.07215l-0.01332,0.13775l-0.00683,0.09738l0.00107,0.15807l-0.04065,0.16742l-0.01206,0.17186l-0.02763,0.08478l-0.04848,0.50145l-0.01891,0.26946l-0.00764,0.02345l0.02493,0.06005l0.11053,0.18143l-0.01372,0.05169l0.03357,0.08081l0.02282,0.15244l-0.01135,0.11748l0.02054,0.11623l-0.03978,0.56705l-0.0081,0.02483l0.00331,0.02592l-0.03342,0.2828l0.00248,0.36925l-0.01598,0.06581l0.00859,0.06717l-0.02441,0.20654l0.00157,0.01049l-0.0237,0.24512l-0.01724,0.24566l-0.00926,0.0284l-0.00297,0.03063l-0.00945,0.00746l-0.00152,0.0047l-0.01067,0.15191l-0.04087,0.12544l-0.00923,0.13161l-0.09527,0.29235l-0.0288,0.24367l-0.03786,0.0998l-0.00747,0.10648l-0.05256,0.16126l-0.01195,0.10114l0.00156,0.0105l-0.02369,0.24511l-0.01724,0.24566l-0.00924,0.02839l-0.00298,0.03064l-0.00945,0.00746l-0.46928,1.44003l0.00324,0.01159l-0.01566,0.0265l-0.00925,0.0284l-0.13081,0.20864l-0.12527,0.21201l-0.02098,0.02126l-0.01635,0.02608l-0.01179,0.00244l-0.33233,0.33683l0.03478,0.23225l-0.00743,0.0768l0.01921,0.0747l0.00146,0.21799l-0.03183,0.13106l0.00015,0.00097l-0.04536,0.46934l0.00444,0.02143l-0.00713,0.00647l-0.00509,0.05257l-0.28323,0.22336l-0.02079,0.03315l-0.02881,0.00597l-0.07257,0.05723l-0.38244,0.34683l-0.05268,-0.0037l-0.00756,0.00598l-0.0204,-0.00794l-0.47036,-0.03301l-0.13014,-0.04241l-0.0116,0.00324l-0.0265,-0.01567l-0.02839,-0.00924l-0.20864,-0.13081l-0.21201,-0.12528l-0.02125,-0.02097l-0.02608,-0.01635l-0.00244,-0.0118l-0.2794,-0.27566l-0.05931,-0.09738l-0.08382,-0.07729l-0.22191,-0.33795l-0.60931,-0.80114l-0.34224,-0.37736l-0.00552,-0.01034l-0.00961,-0.00671l-0.26362,-0.30343l-0.0198,-0.03894l-0.03369,-0.02781l-0.30034,-0.40719l-0.11142,-0.0824l-0.10954,-0.13298l-0.13026,-0.11276l-0.19809,-0.28207l-0.00617,-0.01604l-0.01265,-0.01166l-0.24226,-0.36896l-0.00364,-0.01041l-0.00794,-0.00764l-1.14011,-1.81438l-0.2364,-0.36001l-0.00798,-0.02288l-0.01707,-0.0172l-0.30449,-0.51151l-0.12157,-0.11996l-0.08963,-0.14713l-0.11299,-0.13005l-0.03788,-0.07452l-0.07724,-0.12679l-0.13076,-0.18923l-0.025,-0.06645l-0.01194,-0.01962l0.00189,-0.00712l-0.12033,-0.31996l-0.00837,-0.07259l-0.03312,-0.06515l-0.0814,-0.35505l-0.23139,-0.75961l-0.28639,-0.88262l-0.00032,-0.00472l-0.00247,-0.00403l-0.16676,-0.52927l-0.01156,-0.00994l-0.01571,-0.28892l-0.01742,-0.28882l0.01036,-0.0112l0.09812,-0.50831l0.02858,-0.0614l0.00474,-0.06755l0.9398,-2.88385c0.0566,-0.17369 0.15334,-0.32306 0.27662,-0.44119l0.0168,-0.02678l0.01594,-0.0033c0.27512,-0.24257 0.66773,-0.33751 1.04172,-0.21564z" stroke-linecap="butt"/><path d="M254.00595,220.31418l-3.08141,-14.12712" stroke-linecap="round"/></g><g data-paper-data="{&quot;index&quot;:null}"><path d="M259.21024,205.26518l0.01276,0.00179l0.01464,0.02033c0.10343,0.0871 0.18748,0.20025 0.24105,0.33464l0.88935,2.23148l0.00719,0.05315l0.02572,0.04707l0.10337,0.39676l0.00877,0.00832l0.00091,0.22915l0.00228,0.22915l-0.00865,0.00844l-0.10489,0.42679l-0.00175,0.0033l-0.00002,0.00373l-0.18149,0.71215l-0.14427,0.61212l-0.0463,0.28476l-0.02287,0.05317l-0.00292,0.0578l-0.07883,0.259l0.00185,0.00553l-0.00845,0.01612l-0.01636,0.0538l-0.09373,0.15619l-0.0546,0.10413l-0.02616,0.06083l-0.0827,0.10852l-0.06337,0.12084l-0.09,0.10098l-0.21464,0.41976l-0.01263,0.01446l-0.00515,0.01848l-0.16853,0.29654l-0.80887,1.49195l-0.00591,0.00643l-0.00235,0.0084l-0.17272,0.30393l-0.0094,0.00984l-0.00406,0.013l-0.14222,0.23299l-0.09721,0.09574l-0.07981,0.11066l-0.08387,0.07079l-0.21668,0.33708l-0.02521,0.02369l-0.01367,0.03179l-0.19293,0.25321l-0.00724,0.00579l-0.00386,0.00845l-0.25131,0.31563l-0.44086,0.66417l-0.1582,0.27839l-0.06233,0.06534l-0.04193,0.07998l-0.20681,0.23207l-0.00133,0.00944l-0.01979,0.01426l-0.01573,0.01765l-0.1612,0.10979l-0.15825,0.11398l-0.02198,0.00876l-0.02014,0.01372l-0.00934,-0.00197l-0.10069,0.04013l-0.37008,0.05l-0.01572,0.00729l-0.00629,-0.00433l-0.04145,0.00559l-0.3199,-0.25468l-0.06028,-0.04154l-0.02307,-0.00325l-0.01811,-0.02514l-0.23521,-0.16214l-0.00671,-0.04128l-0.00596,-0.00475l0.00242,-0.01717l-0.05971,-0.36863l0.00007,-0.00078l-0.03182,-0.10196l-0.00993,-0.17235l0.01139,-0.06003l-0.00977,-0.06031l0.01568,-0.18533l-0.27979,-0.24934l-0.00945,-0.00134l-0.01426,-0.01978l-0.01765,-0.01572l-0.10978,-0.16121l-0.114,-0.15824l-0.00876,-0.02197l-0.01371,-0.02016l0.00197,-0.00933l-0.4441,-1.11427l-0.00784,-0.0054l-0.00391,-0.02407l-0.00875,-0.02197l-0.02611,-0.19327l-0.03118,-0.19253l0.00071,-0.00838l-0.01459,-0.07934l-0.04974,-0.12479l-0.01132,-0.08378l-0.03501,-0.07696l-0.03515,-0.19112l-0.09016,-0.22621l-0.01399,-0.10355l-0.03869,-0.09707l-0.01615,-0.11952l-0.00144,-0.00364l-0.00785,-0.00541l-0.00391,-0.02407l-0.00876,-0.02197l-0.0261,-0.19328l-0.03118,-0.19252l0.00072,-0.00838l-0.02979,-0.16199l0.00338,-0.05354l-0.01597,-0.0512l-0.01682,-0.29195l-0.04078,-0.22182l0.0013,-0.02065l-0.00766,-0.01923l-0.06027,-0.44613l0.01032,-0.09291l-0.01494,-0.09227l0.01029,-0.12163l0.02242,-0.06557l-0.01347,-0.04015l0.07813,-0.14902l0.01665,-0.04871l-0.00723,-0.01814l-0.02864,-0.21201l-0.0638,-0.39387l-0.02613,-0.06559l-0.01826,-0.13521l-0.04064,-0.13025l-0.0072,-0.12498l-0.01034,-0.07662l-0.01753,-0.1082l-0.02743,-0.05549l-0.07056,-0.32451l0.00208,-0.0673l-0.02007,-0.06427l-0.00171,-0.02982l-0.00117,-0.00726l-0.00876,-0.02197l-0.0261,-0.19327l-0.03118,-0.19253l0.00199,-0.02357l-0.00326,-0.02415l0.00594,-0.00746l0.00563,-0.06646l0.02242,-0.06557l-0.01346,-0.04015l0.07814,-0.14901l0.05442,-0.15921l0.0384,-0.01784l0.03219,-0.06138l0.04437,-0.0498l0.00133,-0.00944l0.01978,-0.01426l0.01573,-0.01765l0.1612,-0.10979l0.15825,-0.11398l0.02198,-0.00876l0.02014,-0.01371l0.00933,0.00198l0.20212,-0.08056l0.43353,-0.05858l0.05198,0.04138l0.30934,-0.1233l0.02668,-0.02251l0.12249,-0.06009l0.11072,-0.07974l0.02419,-0.00965l0.1586,-0.13387l0.00911,-0.00446l0.00613,-0.00809l0.57076,-0.45944l0.60602,-0.5115l0.00424,-0.00476l0.00134,-0.00944l0.01978,-0.01425l0.01572,-0.01765l0.1612,-0.10979l0.15824,-0.11399l0.02197,-0.00875l0.02016,-0.01372l0.00932,0.00199l0.35863,-0.14294l0.09787,-0.0705l0.09706,-0.03869l0.08478,-0.06107l0.19947,-0.07949l0.22815,-0.15541l0.12,0.02542l0.01024,-0.01287l0.14415,0.0203l0.17501,-0.05872l0.21738,0.11397l0.31051,0.04373l0.01866,0.02591c0.0487,-0.03255 0.10155,-0.06051 0.15814,-0.08307c0.28939,-0.11534 0.6045,-0.06026 0.83428,0.11747z" stroke-linecap="butt"/><path d="M257.07834,205.87336l-1.71727,11.32203" stroke-linecap="round"/></g><g><path d="M245.03877,206.53409c0.05794,0.01887 0.11246,0.04339 0.16315,0.07275l0.01696,-0.02706l0.30707,-0.06356l0.20962,-0.12769l0.17842,0.04737l0.14256,-0.0295l0.01104,0.01218l0.11812,-0.03306l0.23766,0.14044l0.20415,0.06652l0.08854,0.0555l0.09935,0.03239l0.10219,0.06407l0.36708,0.11962l0.00918,-0.00258l0.02099,0.01239l0.02248,0.00732l0.16525,0.10359l0.16791,0.09922l0.01683,0.01662l0.02066,0.01295l0.00194,0.00933l0.00454,0.00447l0.63761,0.47154l0.59908,0.42186l0.00663,0.00767l0.00938,0.00388l0.16686,0.12341l0.02477,0.00806l0.1156,0.07247l0.12611,0.05211l0.02806,0.02075l0.31661,0.10318l0.04921,-0.04464l0.43639,0.03062l0.20688,0.06743l0.00919,-0.00256l0.02098,0.01239l0.02249,0.00732l0.16524,0.1036l0.16791,0.09922l0.01684,0.0166l0.02065,0.01295l0.00194,0.00934l0.04747,0.04684l0.03606,0.05919l0.03947,0.01533l0.06453,0.15539l0.08754,0.1437l-0.01087,0.04093l0.02659,0.064l0.00989,0.06597l0.00641,0.00706l-0.00169,0.02433l0.0035,0.02339l-0.01877,0.19412l-0.01365,0.19456l-0.00732,0.02248l-0.00071,0.00732l0.0002,0.02986l-0.01589,0.06542l0.00639,0.06703l-0.04959,0.32835l-0.02382,0.05714l-0.01055,0.1091l-0.00541,0.07712l0.00084,0.12519l-0.0322,0.13259l-0.00956,0.1361l-0.02188,0.06714l-0.03838,0.39714l-0.01497,0.2134l-0.00605,0.01858l0.01975,0.04755l0.08753,0.1437l-0.01086,0.04093l0.02657,0.064l0.01808,0.12072l-0.009,0.09305l0.01627,0.09205l-0.03152,0.4491l-0.00641,0.01968l0.00262,0.02053l-0.02647,0.22397l0.00197,0.29243l-0.01265,0.05212l0.00681,0.0532l-0.01933,0.16358l0.00125,0.00832l-0.01877,0.19413l-0.01365,0.19456l-0.00733,0.02248l-0.00235,0.02428l-0.00749,0.0059l-0.00121,0.00372l-0.00845,0.12031l-0.03238,0.09935l-0.00731,0.10424l-0.07546,0.23154l-0.02281,0.19299l-0.02999,0.07903l-0.00592,0.08435l-0.04162,0.12772l-0.00946,0.08011l0.00125,0.00831l-0.01877,0.19413l-0.01365,0.19455l-0.00733,0.0225l-0.00233,0.02427l-0.00749,0.0059l-0.37167,1.14048l0.00258,0.00918l-0.01241,0.02099l-0.00732,0.0225l-0.10359,0.16523l-0.09922,0.16791l-0.0166,0.01683l-0.01296,0.02066l-0.00934,0.00193l-0.26322,0.26678l0.02755,0.18393l-0.00588,0.06081l0.01521,0.05917l0.00116,0.17264l-0.02522,0.1038l0.00011,0.00077l-0.03593,0.3717l0.00351,0.01698l-0.00565,0.00512l-0.00403,0.04163l-0.22433,0.1769l-0.01646,0.02625l-0.02281,0.00473l-0.05747,0.04533l-0.30289,0.2747l-0.04172,-0.00293l-0.00599,0.00472l-0.01617,-0.00627l-0.37252,-0.02615l-0.10306,-0.03358l-0.00918,0.00257l-0.02098,-0.01239l-0.0225,-0.00733l-0.16523,-0.10359l-0.16791,-0.09922l-0.01683,-0.0166l-0.02065,-0.01295l-0.00193,-0.00933l-0.22128,-0.21832l-0.04698,-0.07712l-0.06639,-0.0612l-0.17575,-0.26767l-0.48257,-0.63449l-0.27104,-0.29887l-0.00438,-0.00819l-0.00761,-0.00532l-0.20879,-0.2403l-0.01568,-0.03084l-0.02668,-0.02203l-0.23786,-0.32247l-0.08824,-0.06527l-0.08674,-0.10531l-0.10315,-0.08929l-0.15688,-0.22339l-0.00489,-0.01272l-0.01002,-0.00922l-0.19188,-0.2922l-0.00287,-0.00824l-0.0063,-0.00604l-0.90296,-1.43696l-0.18722,-0.2851l-0.00632,-0.01812l-0.01351,-0.01362l-0.24115,-0.40512l-0.09629,-0.095l-0.07099,-0.11652l-0.08949,-0.103l-0.03,-0.05902l-0.06117,-0.10041l-0.10356,-0.14985l-0.01979,-0.05264l-0.00947,-0.01553l0.0015,-0.00564l-0.0953,-0.2534l-0.00662,-0.05749l-0.02623,-0.05159l-0.06448,-0.28121l-0.18325,-0.6016l-0.22683,-0.69902l-0.00026,-0.00372l-0.00195,-0.00319l-0.13207,-0.41918l-0.00917,-0.00788l-0.01244,-0.22882l-0.0138,-0.22874l0.00821,-0.00887l0.07771,-0.40257l0.02263,-0.04862l0.00375,-0.0535l0.74431,-2.28395c0.04484,-0.13755 0.12145,-0.25585 0.21907,-0.34942l0.0133,-0.02123l0.01262,-0.00261c0.21791,-0.19211 0.52883,-0.2673 0.82503,-0.17078z" stroke-linecap="butt"/><path d="M248.8207,218.36341l-2.44043,-11.18846" stroke-linecap="round"/></g></g><g data-paper-data="{&quot;index&quot;:null}" fill="#007724" stroke="#8fd200" stroke-width="1"><g><path d="M240.03232,202.06707c0.04816,0.06002 0.0888,0.12362 0.12205,0.18969l0.03663,-0.01686l0.36835,0.14519l0.30975,0.01005l0.15573,0.17343l0.171,0.06741l0.00325,0.0205l0.14765,0.04675l0.15397,0.3127l0.16968,0.21147l0.05514,0.11986l0.08258,0.10292l0.06364,0.13834l0.30508,0.38022l0.01147,0.00363l0.01359,0.02762l0.01868,0.02328l0.10292,0.22372l0.10877,0.22092l0.00631,0.0292l0.01286,0.02796l-0.00441,0.0112l0.00171,0.00787l0.34751,0.93908l0.34118,0.85994l0.00169,0.01268l0.00722,0.01057l0.09095,0.24577l0.02058,0.02565l0.072,0.15652l0.0972,0.14225l0.0153,0.04133l0.26314,0.32795l0.08285,-0.01312l0.43985,0.33412l0.17194,0.21427l0.01148,0.00364l0.0136,0.02763l0.0187,0.02329l0.10292,0.22372l0.10877,0.22093l0.0063,0.02919l0.01287,0.02796l-0.00442,0.01121l0.01776,0.08232l-0.00283,0.08745l0.0311,0.0435l-0.03928,0.20879l-0.00689,0.21234l-0.03979,0.03572l-0.01617,0.086l-0.03519,0.07651l0.00188,0.01189l-0.01862,0.02452l-0.01248,0.02713l-0.15406,0.19212l-0.14896,0.19609l-0.02329,0.01868l-0.00582,0.00725l-0.02044,0.03169l-0.06203,0.05812l-0.03958,0.07522l-0.27946,0.31261l-0.06468,0.0439l-0.08659,0.10797l-0.05905,0.07774l-0.08567,0.13284l-0.1257,0.11782l-0.10421,0.13718l-0.06954,0.0558l-0.31519,0.39301l-0.1634,0.2151l-0.01923,0.01544l-0.01203,0.06389l-0.00688,0.21233l-0.03979,0.03573l-0.01617,0.086l-0.06439,0.14004l-0.07384,0.09208l-0.04647,0.1085l-0.34384,0.45266l-0.02037,0.01635l-0.01143,0.02349l-0.18285,0.21832l-0.20016,0.31031l-0.04941,0.04631l-0.02961,0.06091l-0.13354,0.15944l-0.00443,0.00964l-0.15408,0.19211l-0.14896,0.1961l-0.0233,0.01869l-0.01926,0.02401l-0.01199,0.00107l-0.00384,0.0031l-0.09212,0.12126l-0.1029,0.08257l-0.0798,0.10506l-0.23982,0.19242l-0.15755,0.18811l-0.08634,0.06276l-0.06456,0.085l-0.1323,0.10615l-0.06539,0.07808l-0.00445,0.00964l-0.15406,0.1921l-0.14897,0.19609l-0.02328,0.01869l-0.01927,0.024l-0.01199,0.00106l-1.18131,0.94785l-0.00363,0.01147l-0.02762,0.01359l-0.02329,0.01869l-0.22372,0.10292l-0.22092,0.10877l-0.0292,0.0063l-0.02796,0.01286l-0.0112,-0.00441l-0.46254,0.09982l-0.0981,0.21337l-0.04827,0.06018l-0.02484,0.07303l-0.11816,0.18319l-0.09841,0.09222l-0.00041,0.00089l-0.295,0.36785l-0.00803,0.02036l-0.00951,0.00151l-0.03305,0.04119l-0.3593,0.03177l-0.03555,0.01635l-0.02737,-0.01079l-0.09206,0.00814l-0.50994,0.08074l-0.04205,-0.03194l-0.0096,0.00086l-0.01272,-0.01781l-0.37547,-0.28522l-0.08566,-0.10676l-0.01148,-0.00364l-0.01359,-0.02762l-0.0187,-0.02329l-0.10292,-0.22371l-0.10878,-0.22094l-0.0063,-0.02919l-0.01286,-0.02796l0.00442,-0.01121l-0.08281,-0.38367l0.00371,-0.11396l-0.0278,-0.11058l-0.00059,-0.4043l-0.07105,-1.00402l-0.07968,-0.50317l0.00104,-0.01168l-0.00437,-0.01088l-0.05439,-0.39826l0.00475,-0.04343l-0.01295,-0.04171l-0.02829,-0.50518l-0.04809,-0.12996l-0.01883,-0.17125l-0.04723,-0.16568l-0.01126,-0.34449l0.00362,-0.0168l-0.0042,-0.01668l-0.00064,-0.44139l0.00266,-0.0107l-0.00247,-0.01074l0.03976,-2.14249l-0.00063,-0.43068l0.00586,-0.02351l-0.00486,-0.02373l0.02538,-0.59474l-0.03602,-0.16695l0.00559,-0.17219l-0.02332,-0.1707l0.00911,-0.0831l0.00481,-0.14839l-0.00577,-0.22994l0.01548,-0.06928l0.00076,-0.02296l0.00548,-0.00492l0.07455,-0.3336l0.03275,-0.06532l0.00797,-0.07265l0.12634,-0.34165l0.22241,-0.76228l0.24376,-0.89533l0.00232,-0.00412l0.00014,-0.00472l0.15034,-0.53417l-0.00423,-0.01465l0.14508,-0.25034l0.1436,-0.25119l0.0148,-0.0037l0.36049,-0.37156l0.05754,-0.03571l0.04096,-0.05393l2.36572,-1.89819c0.14248,-0.11432 0.30523,-0.18632 0.47307,-0.21764l0.02872,-0.01321l0.01515,0.00597c0.36304,-0.05228 0.74353,0.08331 0.9897,0.39009z" stroke-linecap="butt"/><path d="M241.0064,203.67179l-5.15881,13.50767" stroke-linecap="round"/></g><g data-paper-data="{&quot;index&quot;:null}"><path d="M248.44389,207.43828l0.00969,0.00849l0.00112,0.02502c0.03883,0.12952 0.0472,0.27022 0.01841,0.412l-0.478,2.35414l-0.02309,0.04841l-0.00427,0.05347l-0.1308,0.38858l0.00277,0.01176l-0.12473,0.19223l-0.12359,0.19298l-0.01186,0.00233l-0.3215,0.29965l-0.00327,0.00181l-0.00206,0.00312l-0.54188,0.49645l-0.45595,0.43315l-0.19469,0.2129l-0.04825,0.03196l-0.03409,0.04677l-0.2078,0.17353l-0.00148,0.00564l-0.0159,0.00886l-0.04315,0.03605l-0.16396,0.07935l-0.10272,0.05723l-0.0552,0.03657l-0.12863,0.04551l-0.1192,0.0664l-0.1306,0.0352l-0.40948,0.23365l-0.01848,0.00518l-0.01443,0.01264l-0.30341,0.15582l-1.49388,0.80532l-0.00846,0.00215l-0.00656,0.00574l-0.31097,0.1597l-0.01326,0.00309l-0.01052,0.00865l-0.2466,0.11705l-0.13377,0.02687l-0.12739,0.04887l-0.10894,0.0133l-0.3659,0.16336l-0.03407,0.00602l-0.02885,0.01911l-0.3001,0.10619l-0.00923,0.00088l-0.00786,0.00496l-0.38313,0.12645l-0.7326,0.31426l-0.28483,0.14629l-0.08794,0.02053l-0.07889,0.04395l-0.30013,0.0809l-0.00629,0.00717l-0.02436,0.0011l-0.02283,0.00616l-0.195,0.00358l-0.19484,0.0087l-0.02318,-0.00471l-0.02437,0.00045l-0.00673,-0.00677l-0.10623,-0.02157l-0.33702,-0.16084l-0.01715,-0.00251l-0.00289,-0.00707l-0.03774,-0.01802l-0.12817,-0.38829l-0.02768,-0.06777l-0.01752,-0.01536l-0.00139,-0.03095l-0.10799,-0.26448l0.017,-0.03821l-0.00238,-0.00724l0.01143,-0.01304l0.15192,-0.34113l0.00049,-0.00062l0.02922,-0.10273l0.08608,-0.14965l0.0424,-0.04399l0.02485,-0.05581l0.11461,-0.14648l-0.09755,-0.36185l-0.00717,-0.0063l-0.0011,-0.02436l-0.00616,-0.02282l-0.00356,-0.195l-0.00872,-0.19484l0.0047,-0.02318l-0.00043,-0.02437l0.00676,-0.00673l0.23868,-1.17552l-0.00361,-0.00882l0.00991,-0.02228l0.00471,-0.02318l0.08401,-0.17601l0.07936,-0.17816l0.00518,-0.00662l0.03125,-0.07437l0.02673,-0.13165l0.03641,-0.0763l0.01286,-0.08356l0.07526,-0.17916l0.04845,-0.23865l0.04501,-0.0943l0.02079,-0.10241l0.05194,-0.10885l0.00079,-0.00383l-0.0036,-0.00882l0.00991,-0.02228l0.00471,-0.02318l0.08401,-0.17601l0.07935,-0.17816l0.00519,-0.00661l0.06379,-0.15185l0.03215,-0.04294l0.01468,-0.05159l0.14583,-0.25348l0.08736,-0.20793l0.0124,-0.01657l0.00412,-0.02028l0.1939,-0.40629l0.05952,-0.07209l0.03803,-0.08539l0.07523,-0.09614l0.05466,-0.04259l0.01072,-0.04097l0.14698,-0.0819l0.04061,-0.03164l0.00389,-0.01914l0.09215,-0.19307l0.16233,-0.36449l0.01405,-0.06919l0.05877,-0.12313l0.03732,-0.13124l0.06242,-0.10851l0.03331,-0.06977l0.04459,-0.10014l0.00744,-0.06145l0.11869,-0.31016l0.0386,-0.05517l0.01841,-0.06476l0.01489,-0.02588l0.003,-0.00672l0.0047,-0.02318l0.08401,-0.17601l0.07935,-0.17817l0.01458,-0.01862l0.0105,-0.02199l0.00905,-0.00299l0.04111,-0.05252l0.05467,-0.04258l0.01073,-0.04097l0.14698,-0.08189l0.13273,-0.10341l0.04189,0.00611l0.06055,-0.03373l0.0644,-0.01736l0.00629,-0.00717l0.02436,-0.0011l0.02282,-0.00616l0.19501,-0.00358l0.19484,-0.0087l0.02318,0.00471l0.02436,-0.00045l0.00672,0.00676l0.21324,0.04329l0.39481,0.18842l0.02082,0.06309l0.32635,0.06626l0.03465,-0.00422l0.1354,0.01681l0.13631,-0.00609l0.02553,0.00518l0.20602,-0.02515l0.01006,0.00125l0.00956,-0.00341l0.72917,-0.07182l0.78719,-0.09607l0.00615,-0.00166l0.00629,-0.00716l0.02436,-0.00109l0.02283,-0.00616l0.195,-0.00357l0.19483,-0.00872l0.02317,0.00471l0.02438,-0.00044l0.00671,0.00676l0.37835,0.07682l0.12049,-0.00539l0.1024,0.02079l0.10438,-0.00467l0.21043,0.04273l0.276,-0.00507l0.08648,0.08699l0.01562,-0.00516l0.1095,0.09593l0.17859,0.04671l0.11946,0.21442l0.23585,0.20664l0.00143,0.0319c0.05858,-0.00056 0.11811,0.00498 0.17781,0.0171c0.3053,0.06199 0.53878,0.28064 0.6337,0.5552z" stroke-linecap="butt"/><path d="M246.32706,206.77957l-7.63758,8.53257" stroke-linecap="round"/></g><g><path d="M235.89175,200.73867c0.03815,0.04752 0.07033,0.0979 0.09666,0.15022l0.02901,-0.01335l0.29173,0.11499l0.24532,0.00796l0.12334,0.13736l0.13544,0.05339l0.00257,0.01624l0.11694,0.03702l0.12193,0.24766l0.13438,0.16747l0.04369,0.09493l0.06539,0.08151l0.05041,0.10957l0.24162,0.30112l0.00909,0.00288l0.01077,0.02187l0.0148,0.01844l0.08152,0.17717l0.08616,0.17497l0.00498,0.02312l0.01019,0.02215l-0.00349,0.00887l0.00135,0.00623l0.27523,0.74374l0.27021,0.68107l0.00134,0.01005l0.00572,0.00839l0.07202,0.19464l0.0163,0.02031l0.05703,0.12395l0.07698,0.11266l0.01211,0.03274l0.2084,0.25973l0.06562,-0.0104l0.34835,0.26462l0.13617,0.16972l0.00909,0.00288l0.01077,0.02186l0.0148,0.01845l0.08152,0.17718l0.08615,0.17498l0.005,0.02311l0.01019,0.02215l-0.0035,0.00887l0.01407,0.06519l-0.00225,0.06927l0.02463,0.03444l-0.03112,0.16535l-0.00546,0.16817l-0.03151,0.02829l-0.0128,0.06811l-0.02785,0.06061l0.0015,0.00941l-0.01474,0.01943l-0.00988,0.02149l-0.12202,0.15214l-0.11798,0.15531l-0.01844,0.0148l-0.00461,0.00574l-0.01619,0.02509l-0.04913,0.04604l-0.03136,0.05958l-0.22131,0.24757l-0.05122,0.03477l-0.06858,0.08551l-0.04676,0.06157l-0.06786,0.1052l-0.09955,0.09331l-0.08253,0.10864l-0.05508,0.04419l-0.24962,0.31127l-0.1294,0.17035l-0.01523,0.01223l-0.00952,0.0506l-0.00547,0.16816l-0.0315,0.0283l-0.01282,0.0681l-0.05099,0.11091l-0.05849,0.07292l-0.0368,0.08593l-0.27232,0.3585l-0.01614,0.01295l-0.00905,0.01861l-0.14481,0.1729l-0.15851,0.24575l-0.03913,0.03668l-0.02344,0.04824l-0.10576,0.12627l-0.00351,0.00764l-0.12202,0.15215l-0.11798,0.15531l-0.01845,0.0148l-0.01526,0.01903l-0.00949,0.00084l-0.00305,0.00245l-0.07296,0.09604l-0.0815,0.06539l-0.06321,0.08321l-0.18994,0.1524l-0.12479,0.14898l-0.06838,0.0497l-0.05115,0.06733l-0.10478,0.08406l-0.05178,0.06185l-0.00351,0.00764l-0.12202,0.15214l-0.11797,0.1553l-0.01846,0.01481l-0.01524,0.01903l-0.00949,0.00084l-0.93558,0.75068l-0.00287,0.00909l-0.02188,0.01077l-0.01845,0.01481l-0.17716,0.08151l-0.17498,0.08615l-0.02311,0.00499l-0.02215,0.01019l-0.00887,-0.0035l-0.36634,0.07906l-0.07768,0.16898l-0.03822,0.04766l-0.01968,0.05784l-0.09358,0.14508l-0.07795,0.07304l-0.00033,0.00071l-0.23363,0.29133l-0.00636,0.01613l-0.00753,0.00119l-0.02617,0.03263l-0.28457,0.02515l-0.02815,0.01295l-0.02168,-0.00854l-0.07291,0.00645l-0.40388,0.06395l-0.0333,-0.0253l-0.0076,0.00068l-0.0101,-0.0141l-0.29736,-0.2259l-0.06784,-0.08454l-0.00909,-0.00287l-0.01077,-0.02186l-0.01481,-0.01846l-0.08152,-0.17717l-0.08615,-0.17498l-0.00499,-0.02311l-0.01019,-0.02215l0.0035,-0.00886l-0.06557,-0.30386l0.00293,-0.09025l-0.02203,-0.08757l-0.00046,-0.32021l-0.05627,-0.79516l-0.0631,-0.39851l0.00081,-0.00925l-0.00345,-0.00862l-0.04309,-0.31541l0.00378,-0.03439l-0.01026,-0.03305l-0.02241,-0.40008l-0.03808,-0.10294l-0.0149,-0.13562l-0.0374,-0.13121l-0.00892,-0.27283l0.00287,-0.01332l-0.00333,-0.0132l-0.00051,-0.34957l0.00211,-0.00847l-0.00197,-0.00851l0.03148,-1.69682l-0.0005,-0.34108l0.00463,-0.01862l-0.00385,-0.0188l0.0201,-0.47103l-0.02854,-0.13222l0.00442,-0.13637l-0.01847,-0.13519l0.00722,-0.06581l0.00381,-0.11752l-0.00458,-0.1821l0.01227,-0.05489l0.00059,-0.01818l0.00434,-0.0039l0.05904,-0.26421l0.02595,-0.05173l0.00631,-0.05753l0.10006,-0.2706l0.17615,-0.60372l0.19305,-0.7091l0.00182,-0.00325l0.00011,-0.00373l0.11907,-0.42306l-0.00335,-0.01161l0.11491,-0.19826l0.11373,-0.19894l0.01172,-0.00292l0.2855,-0.29427l0.04556,-0.02828l0.03244,-0.04271l1.87361,-1.50333c0.11285,-0.09053 0.24174,-0.14755 0.37466,-0.17237l0.02275,-0.01048l0.01199,0.00473c0.28753,-0.0414 0.58886,0.06597 0.78382,0.30896z" stroke-linecap="butt"/><path d="M236.6632,202.00958l-4.0857,10.69787" stroke-linecap="round"/></g></g><g data-paper-data="{&quot;index&quot;:null}" fill="#007724" stroke="#8fd200" stroke-width="1"><g><path d="M234.01153,191.53384c0.02604,0.07241 0.04381,0.14577 0.05379,0.21906l0.04012,-0.00405l0.30118,0.257l0.28968,0.11016l0.09093,0.21462l0.13982,0.11931l-0.00359,0.02045l0.12444,0.09219l0.04401,0.34576l0.09176,0.25514l0.0132,0.13128l0.04466,0.12416l0.01524,0.15151l0.16497,0.45872l0.00967,0.00716l0.00388,0.03054l0.01011,0.02809l0.02465,0.24502l0.03108,0.24428l-0.00352,0.02966l0.00308,0.03062l-0.00782,0.00916l-0.00094,0.008l0.02351,1.00104l0.04324,0.92414l-0.00253,0.01254l0.00339,0.01235l0.00615,0.26199l0.01113,0.03095l0.01724,0.17142l0.04571,0.16612l0.00104,0.04406l0.1423,0.39566l0.08261,0.01452l0.30742,0.45891l0.09298,0.25852l0.00967,0.00717l0.00389,0.03055l0.01012,0.0281l0.02465,0.24502l0.03108,0.24429l-0.00352,0.02966l0.00308,0.03063l-0.00782,0.00916l-0.00996,0.08362l-0.03109,0.08178l0.01528,0.05124l-0.10499,0.18469l-0.07551,0.19858l-0.04924,0.02086l-0.04324,0.07608l-0.05814,0.06092l-0.00209,0.01185l-0.02558,0.01714l-0.02062,0.0216l-0.20813,0.13163l-0.20459,0.13704l-0.02809,0.0101l-0.00786,0.00496l-0.02963,0.02332l-0.07755,0.03482l-0.06188,0.05828l-0.36587,0.20484l-0.07543,0.0205l-0.11697,0.07397l-0.08111,0.05433l-0.12419,0.09779l-0.15717,0.07058l-0.14313,0.09588l-0.0839,0.03017l-0.42579,0.26927l-0.22443,0.15033l-0.02321,0.00835l-0.03213,0.05652l-0.0755,0.19857l-0.04924,0.02086l-0.04324,0.07608l-0.1064,0.11152l-0.09976,0.06308l-0.0792,0.08751l-0.47227,0.31637l-0.02458,0.00884l-0.01844,0.01851l-0.24387,0.14705l-0.29012,0.22843l-0.06178,0.02774l-0.04779,0.04798l-0.1781,0.1074l-0.00733,0.00767l-0.20814,0.13162l-0.2046,0.13705l-0.02811,0.01011l-0.02602,0.01645l-0.01169,-0.00289l-0.00464,0.00168l-0.12653,0.08475l-0.12415,0.04466l-0.10961,0.07342l-0.28934,0.10406l-0.21012,0.12671l-0.10205,0.03131l-0.08868,0.05941l-0.15961,0.0574l-0.08721,0.05259l-0.00734,0.00768l-0.20812,0.13162l-0.2046,0.13705l-0.02809,0.01011l-0.02602,0.01644l-0.01168,-0.00289l-1.4252,0.51257l-0.00717,0.00967l-0.03053,0.00388l-0.0281,0.01011l-0.24502,0.02465l-0.24428,0.03108l-0.02966,-0.00353l-0.03063,0.00308l-0.00916,-0.00781l-0.46987,-0.05589l-0.16211,0.16992l-0.06521,0.04123l-0.04722,0.06099l-0.17127,0.13485l-0.12304,0.05524l-0.00067,0.00071l-0.39852,0.25204l-0.0142,0.01665l-0.00949,-0.00167l-0.04464,0.02822l-0.35013,-0.0867l-0.03893,0.00392l-0.02238,-0.01909l-0.08971,-0.02222l-0.5085,-0.08933l-0.02939,-0.04388l-0.00936,-0.0023l-0.00625,-0.02098l-0.26241,-0.39175l-0.04632,-0.1288l-0.00968,-0.00718l-0.00388,-0.03054l-0.01012,-0.0281l-0.02464,-0.24502l-0.03109,-0.2443l0.00353,-0.02965l-0.00308,-0.03062l0.00782,-0.00916l0.04636,-0.38976l0.04054,-0.10657l0.00963,-0.11361l0.13081,-0.38255l0.25905,-0.97262l0.08814,-0.50175l0.00478,-0.01071l-0.00059,-0.0117l0.07797,-0.39432l0.01861,-0.03952l0.0013,-0.04366l0.1374,-0.48696l-0.00326,-0.13854l0.03784,-0.16808l0.00917,-0.17204l0.10129,-0.32945l0.00889,-0.01471l0.00145,-0.01714l0.14282,-0.41765l0.00599,-0.00926l0.00116,-0.01096l0.73377,-2.01331l0.13935,-0.40751l0.01318,-0.02033l0.00311,-0.02402l0.21725,-0.55422l0.02018,-0.16959l0.06123,-0.16103l0.03341,-0.16901l0.03562,-0.07563l0.05276,-0.13877l0.06926,-0.21934l0.03715,-0.0605l0.00817,-0.02147l0.00679,-0.00287l0.1789,-0.29127l0.0522,-0.05113l0.03114,-0.06612l0.2305,-0.28206l0.45804,-0.64865l0.52146,-0.76754l0.00353,-0.00315l0.00167,-0.00442l0.31575,-0.45633l0.00076,-0.01523l0.21856,-0.18961l0.21743,-0.1909l0.0152,0.00131l0.46166,-0.23426l0.06602,-0.01508l0.05626,-0.03769l2.85414,-1.02648c0.17189,-0.06183 0.34921,-0.07703 0.51812,-0.05212l0.03145,-0.00316l0.01239,0.01057c0.36033,0.06852 0.67611,0.32038 0.80924,0.69051z" stroke-linecap="butt"/><path d="M234.41131,193.36799l-9.26799,11.09842" stroke-linecap="round"/></g><g data-paper-data="{&quot;index&quot;:null}"><path d="M240.22135,199.34681l0.0064,0.01118l-0.00707,0.02403c-0.00536,0.13511 -0.04317,0.2709 -0.11646,0.39563l-1.217,2.07108l-0.03757,0.03827l-0.02141,0.04918l-0.24997,0.325l-0.0012,0.01202l-0.18042,0.14127l-0.17959,0.14234l-0.01197,-0.00166l-0.40142,0.17892l-0.00368,0.00065l-0.00296,0.00228l-0.67378,0.29343l-0.57195,0.26149l-0.25331,0.13809l-0.05602,0.01454l-0.04744,0.03315l-0.25291,0.09659l-0.00323,0.00485l-0.01791,0.00322l-0.05252,0.02007l-0.18085,0.02177l-0.11574,0.02075l-0.06409,0.01664l-0.13643,0.00124l-0.13431,0.02407l-0.13495,-0.00914l-0.46318,0.08792l-0.01916,-0.0011l-0.01776,0.00727l-0.33758,0.04877l-1.67449,0.2762l-0.0087,-0.00072l-0.00808,0.0033l-0.34599,0.04999l-0.01354,-0.00139l-0.01276,0.00477l-0.27125,0.03058l-0.13524,-0.01806l-0.13636,0.00483l-0.10735,-0.02282l-0.39913,0.0356l-0.03418,-0.00537l-0.03349,0.0087l-0.31832,0.00292l-0.00902,-0.00217l-0.00904,0.00213l-0.40343,-0.0049l-0.79496,0.05916l-0.31691,0.04579l-0.08983,-0.00915l-0.08888,0.01593l-0.31014,-0.02101l-0.00827,0.00474l-0.0234,-0.00688l-0.02359,-0.00159l-0.18558,-0.05998l-0.18709,-0.05508l-0.0204,-0.01198l-0.02319,-0.0075l-0.00416,-0.00859l-0.09346,-0.05491l-0.26647,-0.26163l-0.0154,-0.00795l-0.00044,-0.00762l-0.02984,-0.02931l0.00495,-0.40887l-0.00415,-0.07309l-0.01158,-0.02021l0.00875,-0.02973l-0.0162,-0.28522l0.0285,-0.03062l0.0001,-0.00762l0.01504,-0.00862l0.25453,-0.27325l0.00066,-0.00043l0.06101,-0.08767l0.13004,-0.11355l0.05439,-0.02782l0.04164,-0.0447l0.15599,-0.10128l0.02533,-0.37391l-0.00473,-0.00828l0.00688,-0.0234l0.00159,-0.02359l0.05999,-0.18558l0.05507,-0.18709l0.01198,-0.02039l0.00751,-0.02319l0.00857,-0.00416l0.6077,-1.03418l-0.00054,-0.00951l0.01661,-0.01785l0.01198,-0.02039l0.13664,-0.13916l0.13294,-0.14271l0.00706,-0.00458l0.05372,-0.06018l0.06805,-0.11582l0.05923,-0.06033l0.03932,-0.07485l0.12939,-0.14499l0.12337,-0.20996l0.07321,-0.07455l0.05294,-0.0901l0.0845,-0.08606l0.00199,-0.00337l-0.00054,-0.00951l0.01661,-0.01785l0.01198,-0.0204l0.13664,-0.13916l0.13293,-0.1427l0.00705,-0.00457l0.10967,-0.12288l0.04436,-0.03016l0.03064,-0.04402l0.22028,-0.19235l0.15018,-0.16825l0.01711,-0.01164l0.01049,-0.01784l0.3154,-0.32124l0.07972,-0.04883l0.06371,-0.0684l0.10238,-0.06648l0.06553,-0.02251l0.02345,-0.03527l0.16562,-0.0297l0.04869,-0.01673l0.0099,-0.01684l0.14988,-0.15265l0.27195,-0.29197l0.03578,-0.06087l0.09559,-0.09735l0.07794,-0.11199l0.09429,-0.08234l0.05417,-0.05516l0.07471,-0.08021l0.027,-0.0557l0.21302,-0.25476l0.05443,-0.03964l0.03846,-0.05527l0.0225,-0.01964l0.00502,-0.00538l0.01198,-0.02039l0.13664,-0.13916l0.13294,-0.14272l0.01983,-0.01287l0.01708,-0.01739l0.00953,0.00012l0.05595,-0.03631l0.06554,-0.02251l0.02346,-0.03526l0.16562,-0.02969l0.15913,-0.05467l0.03764,0.01939l0.06822,-0.01222l0.06655,0.00451l0.00827,-0.00474l0.02339,0.00688l0.02359,0.00159l0.18559,0.05998l0.18709,0.05508l0.02039,0.01198l0.02319,0.0075l0.00416,0.00858l0.1876,0.11023l0.31216,0.30648l-0.0008,0.06643l0.28711,0.16871l0.03414,0.00726l0.12259,0.05989l0.13089,0.03853l0.02246,0.01319l0.20301,0.04316l0.00911,0.00446l0.01015,-0.00012l0.71294,0.16901l0.77569,0.16493l0.00636,0.00043l0.00827,-0.00473l0.02339,0.00688l0.02359,0.00159l0.18558,0.05999l0.18709,0.05506l0.02039,0.01198l0.0232,0.00751l0.00415,0.00857l0.33286,0.19559l0.11571,0.03406l0.09009,0.05294l0.10023,0.02951l0.18513,0.10878l0.26268,0.08489l0.05352,0.11037l0.01645,0.0002l0.07239,0.12631l0.15372,0.10221l0.04331,0.2416l0.15591,0.27207l-0.00902,0.03063c0.05558,0.0185 0.11008,0.04309 0.1626,0.07395c0.26859,0.15782 0.41836,0.44049 0.41891,0.73098z" stroke-linecap="butt"/><path d="M238.43343,198.036l-9.99566,5.58785" stroke-linecap="round"/></g><g><path d="M230.52728,188.93211c0.02063,0.05733 0.0347,0.11544 0.0426,0.17347l0.03177,-0.0032l0.23854,0.20354l0.22942,0.08725l0.07202,0.16998l0.11074,0.0945l-0.00285,0.01619l0.09856,0.07301l0.03484,0.27384l0.07267,0.20204l0.01047,0.10398l0.03536,0.09833l0.01207,0.12001l0.13067,0.36329l0.00766,0.00568l0.00309,0.02418l0.008,0.02225l0.01953,0.19405l0.02462,0.19348l-0.0028,0.02348l0.00244,0.02426l-0.00618,0.00726l-0.00075,0.00632l0.01863,0.79281l0.03424,0.73191l-0.00199,0.00994l0.00269,0.00979l0.00487,0.20749l0.00882,0.02451l0.01366,0.13575l0.0362,0.13157l0.00082,0.03489l0.1127,0.31336l0.06544,0.01149l0.24346,0.36345l0.07363,0.20475l0.00766,0.00568l0.00309,0.02418l0.008,0.02225l0.01953,0.19405l0.02462,0.19348l-0.00279,0.02348l0.00244,0.02426l-0.00619,0.00726l-0.00788,0.06623l-0.02463,0.06478l0.01211,0.04058l-0.08316,0.14627l-0.0598,0.15728l-0.039,0.01652l-0.03424,0.06025l-0.04603,0.04827l-0.00164,0.00939l-0.02025,0.01358l-0.01633,0.01711l-0.16483,0.10424l-0.16204,0.10855l-0.02225,0.008l-0.00622,0.00393l-0.02346,0.01847l-0.06142,0.02757l-0.04902,0.04616l-0.28975,0.16222l-0.05974,0.01624l-0.09265,0.05859l-0.06423,0.04303l-0.09836,0.07745l-0.12447,0.05589l-0.11335,0.07593l-0.06644,0.02389l-0.33721,0.21326l-0.17774,0.11906l-0.01838,0.00662l-0.02544,0.04476l-0.05981,0.15726l-0.03899,0.01653l-0.03426,0.06024l-0.08426,0.08832l-0.07901,0.04996l-0.06273,0.0693l-0.37404,0.25056l-0.01948,0.007l-0.0146,0.01466l-0.19313,0.11646l-0.22976,0.18091l-0.04892,0.02198l-0.03784,0.03801l-0.14105,0.08505l-0.0058,0.00609l-0.16484,0.10425l-0.16204,0.10855l-0.02225,0.008l-0.02062,0.01303l-0.00925,-0.0023l-0.00368,0.00133l-0.10021,0.06712l-0.09833,0.03536l-0.08682,0.05816l-0.22915,0.08241l-0.16642,0.10035l-0.08082,0.02479l-0.07025,0.04706l-0.12641,0.04546l-0.06907,0.04166l-0.00581,0.00609l-0.16483,0.10424l-0.16203,0.10854l-0.02227,0.008l-0.0206,0.01304l-0.00925,-0.00229l-1.12874,0.40594l-0.00567,0.00766l-0.02419,0.00308l-0.02226,0.00801l-0.19404,0.01952l-0.19348,0.02462l-0.02348,-0.00279l-0.02426,0.00244l-0.00726,-0.00619l-0.37215,-0.04427l-0.12838,0.13457l-0.05163,0.03265l-0.03741,0.04831l-0.13564,0.1068l-0.09745,0.04375l-0.00054,0.00056l-0.31561,0.1996l-0.01126,0.01319l-0.00751,-0.00132l-0.03535,0.02235l-0.27731,-0.06868l-0.03083,0.0031l-0.01773,-0.01512l-0.07105,-0.01759l-0.40274,-0.07075l-0.02327,-0.03475l-0.0074,-0.00183l-0.00497,-0.01662l-0.20783,-0.31027l-0.03668,-0.10199l-0.00766,-0.00567l-0.00309,-0.02418l-0.008,-0.02227l-0.01952,-0.19404l-0.02462,-0.19348l0.00279,-0.02348l-0.00244,-0.02426l0.00619,-0.00724l0.03672,-0.30868l0.03209,-0.0844l0.00762,-0.08998l0.10361,-0.30298l0.20516,-0.7703l0.06981,-0.39739l0.00377,-0.00848l-0.00047,-0.00927l0.06174,-0.3123l0.01475,-0.0313l0.00103,-0.03459l0.10881,-0.38565l-0.00257,-0.10973l0.02998,-0.1331l0.00726,-0.13624l0.08021,-0.26092l0.00704,-0.01166l0.00114,-0.01357l0.11311,-0.33077l0.00475,-0.00732l0.00091,-0.00869l0.58113,-1.59452l0.11036,-0.32273l0.01043,-0.0161l0.00247,-0.01902l0.17206,-0.43894l0.01597,-0.13431l0.0485,-0.12753l0.02646,-0.13386l0.02822,-0.05989l0.04179,-0.1099l0.05484,-0.17371l0.02944,-0.04792l0.00647,-0.017l0.00537,-0.00228l0.14169,-0.23069l0.04135,-0.04049l0.02465,-0.05236l0.18256,-0.2234l0.36276,-0.51372l0.41299,-0.60789l0.00278,-0.00248l0.00132,-0.00349l0.25008,-0.36141l0.0006,-0.01207l0.1731,-0.15017l0.1722,-0.15119l0.01204,0.00104l0.36563,-0.18554l0.05228,-0.01194l0.04456,-0.02985l2.26043,-0.81295c0.13615,-0.04895 0.27656,-0.061 0.41034,-0.04128l0.02492,-0.00252l0.0098,0.00837c0.28538,0.05428 0.53547,0.25373 0.6409,0.54688z" stroke-linecap="butt"/><path d="M230.8439,190.38473l-7.3401,8.78977" stroke-linecap="round"/></g></g><g data-paper-data="{&quot;index&quot;:null}" fill="#007724" stroke="#8fd200" stroke-width="1"><g><path d="M235.44757,184.12105c-0.03397,0.06905 -0.07438,0.1328 -0.12014,0.1909l0.03079,0.02604l0.02449,0.39517l0.12209,0.28485l-0.09115,0.21453l0.01137,0.18345l-0.0172,0.01163l0.02019,0.15355l-0.21805,0.27192l-0.1197,0.24328l-0.08523,0.10072l-0.05825,0.11839l-0.09836,0.11625l-0.21522,0.4374l0.00156,0.01193l-0.01927,0.02401l-0.01318,0.02679l-0.15906,0.18799l-0.15406,0.19211l-0.02378,0.01808l-0.01988,0.0235l-0.01202,0.00075l-0.00641,0.00488l-0.7035,0.71254l-0.6345,0.67328l-0.01077,0.0069l-0.00652,0.01102l-0.18412,0.18648l-0.01452,0.02951l-0.11129,0.13152l-0.08769,0.14831l-0.03096,0.03136l-0.18563,0.37727l0.04697,0.0695l-0.11637,0.53996l-0.12129,0.24651l0.00156,0.01193l-0.01926,0.02402l-0.01318,0.0268l-0.15906,0.18799l-0.15407,0.19211l-0.02377,0.01807l-0.01988,0.0235l-0.01202,0.00075l-0.06705,0.05095l-0.08042,0.03447l-0.02623,0.0466l-0.20577,0.05285l-0.19527,0.0837l-0.04922,-0.02091l-0.08475,0.02177l-0.08421,0.00053l-0.00997,0.00674l-0.0301,-0.00648l-0.02986,0.00019l-0.23928,-0.0582l-0.24072,-0.05189l-0.02679,-0.01319l-0.00903,-0.0022l-0.03736,-0.0051l-0.07892,-0.03157l-0.08491,-0.004l-0.40155,-0.12075l-0.06716,-0.04l-0.13448,-0.03271l-0.09543,-0.02057l-0.15662,-0.02135l-0.15997,-0.06397l-0.16841,-0.0363l-0.08,-0.03936l-0.48952,-0.11907l-0.26406,-0.05692l-0.02213,-0.01089l-0.06297,0.01617l-0.19526,0.0837l-0.04922,-0.02091l-0.08475,0.02177l-0.15414,0.00099l-0.11469,-0.0279l-0.11796,0.00387l-0.55569,-0.11976l-0.02344,-0.01154l-0.02612,-0.0004l-0.27521,-0.07317l-0.36588,-0.04988l-0.06288,-0.02515l-0.06771,-0.00102l-0.20099,-0.05344l-0.01061,0.00006l-0.23929,-0.05821l-0.24073,-0.05189l-0.0268,-0.01319l-0.02991,-0.00728l-0.00605,-0.01041l-0.00443,-0.00217l-0.14886,-0.03209l-0.11838,-0.05825l-0.12897,-0.02779l-0.27589,-0.13575l-0.23713,-0.06305l-0.09343,-0.05163l-0.10434,-0.02249l-0.15219,-0.07488l-0.09842,-0.02617l-0.01062,0.00006l-0.23928,-0.0582l-0.24073,-0.05189l-0.0268,-0.01318l-0.02991,-0.00729l-0.00604,-0.01041l-1.35897,-0.66867l-0.01193,0.00156l-0.02401,-0.01926l-0.0268,-0.01319l-0.18799,-0.15906l-0.19211,-0.15406l-0.01808,-0.02378l-0.0235,-0.01988l-0.00075,-0.01201l-0.28633,-0.37673l-0.23484,0.0015l-0.07497,-0.01824l-0.07667,0.00843l-0.21599,-0.02945l-0.12522,-0.05009l-0.00098,0.00001l-0.45817,-0.11143l-0.02184,0.00136l-0.00539,-0.00798l-0.05131,-0.01249l-0.18096,-0.31203l-0.02987,-0.02528l-0.00182,-0.02936l-0.04636,-0.07995l-0.28913,-0.42774l0.01113,-0.05163l-0.00484,-0.00833l0.01074,-0.01907l0.09935,-0.46093l0.06043,-0.12281l-0.00157,-0.01194l0.01927,-0.02401l0.01318,-0.0268l0.15906,-0.18799l0.15407,-0.19212l0.02377,-0.01807l0.01988,-0.0235l0.01202,-0.00075l0.31249,-0.23751l0.1048,-0.04491l0.08839,-0.07202l0.366,-0.17177l0.87943,-0.4896l0.42206,-0.28529l0.01102,-0.00401l0.00801,-0.00856l0.33773,-0.21795l0.04135,-0.01409l0.03231,-0.0294l0.44565,-0.23959l0.09736,-0.09862l0.14716,-0.08958l0.13009,-0.11296l0.30729,-0.15611l0.01675,-0.00383l0.01333,-0.01087l0.39958,-0.18752l0.01082,-0.00213l0.00868,-0.00679l1.95767,-0.87141l0.38988,-0.18297l0.02378,-0.00466l0.01944,-0.01445l0.54951,-0.22891l0.13598,-0.10334l0.15835,-0.06787l0.14475,-0.09342l0.07914,-0.02694l0.13645,-0.05849l0.20585,-0.10261l0.06932,-0.01533l0.02111,-0.00904l0.00678,0.00289l0.33378,-0.07376l0.07304,0.002l0.06919,-0.02355l0.363,-0.03026l0.78474,-0.12138l0.91431,-0.15839l0.00471,0.00035l0.00433,-0.00187l0.54757,-0.09005l0.01148,-0.01004l0.28822,0.0254l0.28837,0.0237l0.00962,0.01184l0.48927,0.16918l0.05673,0.037l0.06619,0.01426l2.72151,1.33909c0.16391,0.08065 0.29806,0.19759 0.39753,0.33637l0.02413,0.02042l0.00101,0.01625c0.20112,0.30673 0.23945,0.70883 0.0658,1.06176z" stroke-linecap="butt"/><path d="M219.98519,186.7309l14.42125,-1.04781" stroke-linecap="round"/></g><g data-paper-data="{&quot;index&quot;:null}"><path d="M234.14455,194.01582l-0.00359,0.01237l-0.0222,0.01161c-0.10088,0.09003 -0.22479,0.15721 -0.36542,0.19118l-2.33501,0.56407l-0.05363,-0.00042l-0.05024,0.01878l-0.40741,0.0461l-0.00948,0.00749l-0.22697,-0.03157l-0.22716,-0.03023l-0.00713,-0.00976l-0.40761,-0.16433l-0.00302,-0.0022l-0.00369,-0.00055l-0.67923,-0.2806l-0.58549,-0.22958l-0.27532,-0.08619l-0.04938,-0.03018l-0.05681,-0.01108l-0.24521,-0.11475l-0.00574,0.00105l-0.01476,-0.01065l-0.05093,-0.02383l-0.14133,-0.11492l-0.09534,-0.06881l-0.05651,-0.03452l-0.09571,-0.09725l-0.11064,-0.07986l-0.0872,-0.1034l-0.38509,-0.27198l-0.01252,-0.01454l-0.01756,-0.00772l-0.26966,-0.20886l-1.36224,-1.01219l-0.00553,-0.00675l-0.00799,-0.00352l-0.27637,-0.21406l-0.00841,-0.01071l-0.01229,-0.00586l-0.21048,-0.17381l-0.08099,-0.1098l-0.09823,-0.09469l-0.05819,-0.09306l-0.30296,-0.26227l-0.01989,-0.02831l-0.02953,-0.01803l-0.2233,-0.22688l-0.00471,-0.00799l-0.00781,-0.00501l-0.27683,-0.29351l-0.59497,-0.53055l-0.25315,-0.19607l-0.05584,-0.07096l-0.07322,-0.05285l-0.20041,-0.23762l-0.00916,-0.00265l-0.01131,-0.02161l-0.01525,-0.01807l-0.08583,-0.17514l-0.0904,-0.17281l-0.00556,-0.023l-0.01072,-0.02189l0.00328,-0.00896l-0.02545,-0.10536l0.00297,-0.37343l-0.00499,-0.0166l0.00518,-0.00561l0.00034,-0.04182l0.29746,-0.28057l0.04967,-0.05377l0.00648,-0.02237l0.02746,-0.01436l0.19384,-0.20985l0.04182,-0.00078l0.00555,-0.00523l0.01666,0.00483l0.37337,-0.00686l0.00077,0.00018l0.10544,-0.01704l0.17202,0.0146l0.05781,0.01978l0.06108,-0.00112l0.18123,0.04179l0.28648,-0.24162l0.00266,-0.00916l0.02161,-0.01131l0.01807,-0.01525l0.17514,-0.08582l0.17281,-0.09041l0.02299,-0.00555l0.0219,-0.01072l0.00895,0.00328l1.16597,-0.28167l0.00646,-0.007l0.02438,-0.00045l0.02299,-0.00555l0.19502,0.00155l0.195,-0.00357l0.00819,0.00189l0.08061,-0.0032l0.13058,-0.03154l0.08454,0.00067l0.08115,-0.02374l0.19418,-0.00771l0.23671,-0.05719l0.10448,0.00084l0.10158,-0.02454l0.12061,0.00096l0.0038,-0.00091l0.00646,-0.007l0.02438,-0.00045l0.023,-0.00556l0.19502,0.00155l0.19499,-0.00357l0.00819,0.00189l0.16458,-0.00652l0.05251,0.01094l0.05295,-0.00855l0.29139,0.02474l0.22536,-0.00893l0.02026,0.00422l0.02012,-0.00486l0.45018,0.00358l0.09051,0.02339l0.09346,-0.00172l0.11895,0.02743l0.06173,0.03148l0.04165,-0.00764l0.13645,0.09846l0.04587,0.02339l0.01899,-0.00458l0.21392,0.0017l0.39893,-0.00733l0.06864,-0.01657l0.13643,0.00109l0.1347,-0.02177l0.12473,0.01059l0.07731,0.00062l0.1096,-0.00201l0.05882,-0.01929l0.33123,-0.02385l0.06632,0.0116l0.06647,-0.01075l0.02976,0.00253l0.00735,-0.00013l0.02299,-0.00555l0.19502,0.00155l0.195,-0.00358l0.02304,0.00532l0.02437,0.0002l0.00654,0.00694l0.06499,0.01499l0.06173,0.03148l0.04165,-0.00763l0.13644,0.09847l0.14989,0.07644l0.01221,0.04054l0.0562,0.04056l0.043,0.05098l0.00916,0.00265l0.01131,0.02161l0.01525,0.01807l0.08583,0.17514l0.0904,0.17282l0.00555,0.02299l0.01072,0.02189l-0.00328,0.00895l0.0511,0.21151l-0.00347,0.43745l-0.04833,0.04559l0.0782,0.3237l0.0185,0.0296l0.04212,0.12978l0.06325,0.1209l0.00612,0.02532l0.11003,0.17597l0.00312,0.00965l0.00714,0.00721l0.37389,0.63012l0.42043,0.67241l0.00411,0.00487l0.00915,0.00267l0.01131,0.02161l0.01525,0.01807l0.08582,0.17514l0.09041,0.1728l0.00555,0.02299l0.01072,0.0219l-0.00328,0.00895l0.09065,0.37527l0.05592,0.10687l0.02454,0.10157l0.04843,0.09258l0.05043,0.20872l0.12149,0.24788l-0.04217,0.11518l0.01129,0.01196l-0.04053,0.13983l0.03333,0.18157l-0.14364,0.19904l-0.0873,0.30117l-0.02829,0.0148c0.02532,0.05282 0.04551,0.1091 0.05982,0.16832c0.07315,0.30282 -0.02603,0.60694 -0.23454,0.80921z" stroke-linecap="butt"/><path d="M233.8447,191.81923l-10.96429,-3.3048" stroke-linecap="round"/></g><g><path d="M234.89723,179.80757c-0.02689,0.05468 -0.0589,0.10518 -0.09514,0.15119l0.02438,0.02062l0.0194,0.31298l0.09669,0.22561l-0.07218,0.1699l0.00899,0.1453l-0.01363,0.0092l0.01599,0.12161l-0.17271,0.21535l-0.09479,0.19266l-0.0675,0.07978l-0.04614,0.09376l-0.07791,0.09207l-0.17044,0.34642l0.00125,0.00945l-0.01524,0.01902l-0.01044,0.02122l-0.12596,0.14889l-0.12202,0.15216l-0.01883,0.01431l-0.01575,0.01861l-0.00952,0.0006l-0.00507,0.00386l-0.55717,0.56433l-0.50252,0.53323l-0.00854,0.00548l-0.00517,0.00873l-0.14582,0.14769l-0.0115,0.02337l-0.08813,0.10416l-0.06945,0.11746l-0.02453,0.02483l-0.14702,0.2988l0.03721,0.05504l-0.09217,0.42764l-0.09607,0.19524l0.00124,0.00945l-0.01524,0.01902l-0.01044,0.02122l-0.12597,0.14889l-0.12202,0.15216l-0.01882,0.01431l-0.01575,0.01861l-0.00952,0.00059l-0.0531,0.04036l-0.0637,0.0273l-0.02077,0.0369l-0.16297,0.04184l-0.15465,0.06629l-0.03898,-0.01656l-0.06712,0.01724l-0.0667,0.00044l-0.0079,0.00535l-0.02384,-0.00512l-0.02365,0.00015l-0.1895,-0.0461l-0.19066,-0.04109l-0.02122,-0.01044l-0.00715,-0.00174l-0.02958,-0.00403l-0.06251,-0.025l-0.06725,-0.00318l-0.31801,-0.09563l-0.05319,-0.03168l-0.10651,-0.02591l-0.07557,-0.01629l-0.12404,-0.01691l-0.12669,-0.05067l-0.13337,-0.02875l-0.06336,-0.03118l-0.38769,-0.09429l-0.20913,-0.04507l-0.01753,-0.00862l-0.04987,0.01281l-0.15465,0.06628l-0.03898,-0.01655l-0.06712,0.01723l-0.12207,0.00078l-0.09083,-0.0221l-0.09342,0.00306l-0.44009,-0.09486l-0.01857,-0.00914l-0.02069,-0.00031l-0.21796,-0.05795l-0.28975,-0.0395l-0.0498,-0.01991l-0.05363,-0.0008l-0.15918,-0.04232l-0.00841,0.00006l-0.18951,-0.04609l-0.19066,-0.04109l-0.02122,-0.01044l-0.0237,-0.00577l-0.00478,-0.00825l-0.00351,-0.00172l-0.1179,-0.02542l-0.09376,-0.04614l-0.10215,-0.02201l-0.2185,-0.10752l-0.18781,-0.04994l-0.07399,-0.04089l-0.08265,-0.01782l-0.12053,-0.05931l-0.07796,-0.02071l-0.00841,0.00006l-0.1895,-0.0461l-0.19065,-0.04109l-0.02123,-0.01045l-0.0237,-0.00575l-0.00478,-0.00825l-1.07628,-0.52958l-0.00945,0.00125l-0.01902,-0.01525l-0.02123,-0.01044l-0.14888,-0.12597l-0.15216,-0.12202l-0.01431,-0.01882l-0.01861,-0.01575l-0.00059,-0.00952l-0.22677,-0.29838l-0.18598,0.0012l-0.05936,-0.01444l-0.06073,0.00667l-0.17106,-0.02333l-0.09918,-0.03968h-0.00078l-0.36286,-0.08825l-0.0173,0.00107l-0.00427,-0.00632l-0.04064,-0.00989l-0.14332,-0.24714l-0.02366,-0.02002l-0.00144,-0.02325l-0.03672,-0.06332l-0.22899,-0.33878l0.00882,-0.04088l-0.00383,-0.0066l0.0085,-0.01512l0.07869,-0.36506l0.04785,-0.09726l-0.00125,-0.00945l0.01524,-0.01902l0.01045,-0.02123l0.12597,-0.14888l0.12202,-0.15216l0.01882,-0.01431l0.01575,-0.01861l0.00951,-0.00058l0.24749,-0.1881l0.083,-0.03557l0.07,-0.05705l0.28988,-0.13604l0.69649,-0.38775l0.33427,-0.22595l0.00872,-0.00318l0.00634,-0.00677l0.26748,-0.17263l0.03275,-0.01114l0.02559,-0.02329l0.35293,-0.18975l0.07712,-0.0781l0.11654,-0.07094l0.10302,-0.08945l0.24337,-0.12364l0.01328,-0.00304l0.01055,-0.00861l0.31646,-0.14852l0.00857,-0.00168l0.00687,-0.00538l1.55045,-0.69015l0.30877,-0.14492l0.01883,-0.00369l0.01539,-0.01144l0.43521,-0.18129l0.10768,-0.08185l0.12541,-0.05375l0.11464,-0.07399l0.06268,-0.02133l0.10807,-0.04632l0.16302,-0.08127l0.05492,-0.01213l0.01672,-0.00717l0.00537,0.00228l0.26435,-0.05841l0.05785,0.0016l0.05478,-0.01866l0.28751,-0.02397l0.6215,-0.09613l0.72412,-0.12545l0.00371,0.00027l0.00343,-0.00148l0.43367,-0.07132l0.0091,-0.00795l0.22827,0.02012l0.22838,0.01877l0.00761,0.00938l0.3875,0.13399l0.04492,0.0293l0.05243,0.0113l2.15539,1.06054c0.12981,0.06389 0.23605,0.15649 0.31483,0.26639l0.01913,0.01617l0.0008,0.01286c0.15928,0.24293 0.18964,0.56138 0.0521,0.8409z" stroke-linecap="butt"/><path d="M234.07268,181.04468l-11.42141,0.82984" stroke-linecap="round"/></g></g><path d="M267.75001,187.66081c0,13.25484 -4.59097,19.0858 -18.8123,19.0858c-14.22133,0 -17.36694,-6.12003 -17.36694,-19.37487c0,-13.25484 1.41119,-20.38661 15.63252,-20.38661c14.22133,0 20.54672,7.42085 20.54672,20.67569z" fill="#c4ff45" stroke="#8fd200" stroke-width="2.5" stroke-linecap="butt"/><path d="M267.75002,187.66081c0,7.16244 -3.36629,13.59207 -8.70471,17.98947c-0.95667,-1.21032 -2.01972,-2.36282 -2.43324,-3.76999c-0.28878,-0.98269 -3.03704,1.89691 -3.63595,1.06602c-0.63512,-0.88113 -6.11447,-6.26594 -6.26584,-7.4142c-0.95385,-7.23546 1.49484,-16.90152 4.00244,-23.77466c0.66261,-1.81616 5.82002,-1.72991 6.45468,-3.49347c6.41488,4.36495 10.58263,11.42725 10.58263,19.39683z" fill="#5a5a5a" stroke="none" stroke-width="0" stroke-linecap="butt"/><path d="M249.91968,178.59448c0,-2.8995 2.3505,-5.25 5.25,-5.25c2.89949,0 5.25,2.3505 5.25,5.25c0,2.8995 -2.35051,5.25 -5.25,5.25c-2.8995,0 -5.25,-2.3505 -5.25,-5.25z" fill="url(#color-1)" stroke="#000000" stroke-width="1" stroke-linecap="butt"/><path d="M249.91968,193.92781c0,-2.8995 2.3505,-5.25 5.25,-5.25c2.89949,0 5.25,2.3505 5.25,5.25c0,2.8995 -2.35051,5.25 -5.25,5.25c-2.8995,0 -5.25,-2.3505 -5.25,-5.25z" fill="url(#color-2)" stroke="#000000" stroke-width="1" stroke-linecap="butt"/><g stroke="#000000" stroke-width="1" stroke-linecap="round"><path d="M261.96464,175.5055l27.60158,11.70326l-28.04325,9.08958" fill="#5a5a5a"/><path d="M288.38185,187.34235l-26.75264,-1.67444" fill="none"/></g><path d="M252.7537,174.41409l2.0235,-3.46885" fill="none" stroke="#000000" stroke-width="1" stroke-linecap="round"/><path d="M255.64441,173.83595l1.58989,-1.30082" fill="none" stroke="#000000" stroke-width="1" stroke-linecap="round"/><path d="M248.70671,198.98511l2.31257,-1.44535" fill="none" stroke="#000000" stroke-width="1" stroke-linecap="round"/><path d="M252.46463,198.55151l-1.30082,2.16803" fill="none" stroke="#000000" stroke-width="1" stroke-linecap="round"/></g></g></g></svg>