<svg version="1.1" xmlns="http://www.w3.org/2000/svg" xmlns:xlink="http://www.w3.org/1999/xlink" width="33.50286" height="46.74464" viewBox="0,0,33.50286,46.74464"><g transform="translate(-222.67468,-156.91037)"><g data-paper-data="{&quot;isPaintingLayer&quot;:true}" fill="none" fill-rule="nonzero" stroke-linecap="round" stroke-linejoin="miter" stroke-miterlimit="10" stroke-dasharray="" stroke-dashoffset="0" style="mix-blend-mode: normal"><path d="M245.39789,184.5668c-8.38532,3.00243 -16.94722,-5.21234 -18.43464,-12.20321c-1.48741,-6.99086 7.3702,-10.91146 13.24179,-12.20321c5.87159,-1.29175 10.50535,-0.84847 12.7225,6.49107c2.21715,7.33954 1.59442,9.95054 -5.19286,18.43464c-6.78728,8.48411 -20.01874,5.07292 -21.81,15.31893" stroke="#ffffff" stroke-width="6.5"/><path d="M245.39789,184.56679c-8.38532,3.00243 -16.94722,-5.21234 -18.43464,-12.20321c-1.48741,-6.99086 7.3702,-10.91146 13.24179,-12.20321c5.87159,-1.29175 10.50535,-0.84847 12.7225,6.49107c2.21715,7.33954 1.59442,9.95054 -5.19286,18.43464c-6.78728,8.48411 -20.01874,5.07292 -21.81,15.31893" stroke="#000000" stroke-width="4"/></g></g></svg>