<svg version="1.1" xmlns="http://www.w3.org/2000/svg" xmlns:xlink="http://www.w3.org/1999/xlink" width="115.13045" height="24.19808" viewBox="0,0,115.13045,24.19808"><defs><radialGradient cx="240" cy="179.5" r="33.125" gradientUnits="userSpaceOnUse" id="color-1"><stop offset="0" stop-color="#08ae26"/><stop offset="1" stop-color="#05ff0e"/></radialGradient></defs><g transform="translate(-183.49639,-167.60214)"><g data-paper-data="{&quot;isPaintingLayer&quot;:true}" fill-rule="nonzero" stroke="#0d0d0d" stroke-linecap="butt" stroke-linejoin="miter" stroke-miterlimit="10" stroke-dasharray="" stroke-dashoffset="0" style="mix-blend-mode: normal"><path d="M206.625,189.5c-25.7147,-3.54274 -22.5,-3.49252 -22.5,-10.625c0,-7.13248 15.65415,-8.59512 22.75,-9.375c3.63905,-0.39996 27.11501,-1.39786 27.11501,-1.39786c0,0 26.61719,-0.01288 39.13499,1.39786c25.69558,2.89585 25,5.22254 25,11.625c0,6.40246 -18.21938,7.4171 -25,8.375c-3.97868,0.56207 -32.88114,1.80006 -32.88114,1.80006c0,0 -22.99284,-0.3361 -33.61886,-1.80006z" fill="url(#color-1)" stroke-width="1"/><path d="M203.25,180c0,-4.62538 3.74962,-8.375 8.375,-8.375c4.62538,0 8.375,3.74962 8.375,8.375c0,4.62538 -3.74962,8.375 -8.375,8.375c-4.62538,0 -8.375,-3.74962 -8.375,-8.375z" fill="#4c04ec" stroke-width="0"/><path d="M231.625,180c0,-4.62538 3.74962,-8.375 8.375,-8.375c4.62538,0 8.375,3.74962 8.375,8.375c0,4.62538 -3.74962,8.375 -8.375,8.375c-4.62538,0 -8.375,-3.74962 -8.375,-8.375z" fill="#4c04ec" stroke-width="0"/><path d="M262.125,180c0,-4.62538 3.74962,-8.375 8.375,-8.375c4.62538,0 8.375,3.74962 8.375,8.375c0,4.62538 -3.74962,8.375 -8.375,8.375c-4.62538,0 -8.375,-3.74962 -8.375,-8.375z" fill="#4c04ec" stroke-width="0"/></g></g></svg>