<svg version="1.1" xmlns="http://www.w3.org/2000/svg" xmlns:xlink="http://www.w3.org/1999/xlink" width="106.83657" height="81.21613" viewBox="0,0,106.83657,81.21613"><g transform="translate(-207.07527,-170.71926)"><g data-paper-data="{&quot;isPaintingLayer&quot;:true}" fill-rule="nonzero" stroke-linejoin="miter" stroke-miterlimit="10" stroke-dasharray="" stroke-dashoffset="0" style="mix-blend-mode: normal"><g><path d="M289.25961,199.68443c0.30211,4.50111 -3.88871,10.88354 -8.49393,15.7434c-4.60522,4.85986 -12.96042,10.17857 -20.69614,10.69779c-7.73572,0.51922 -26.21776,-6.54935 -26.869,-16.25207c-0.65124,-9.70272 3.2415,-6.12853 3.95315,-8.30445c0.71165,-2.17592 0.12659,-2.65471 0.83431,-3.60245c0.70772,-0.94774 1.76939,-1.35913 2.61792,-2.48766c0.84853,-1.12853 3.11319,-5.79995 4.04442,-6.3731c0.93123,-0.57315 1.3445,-1.01595 1.87131,-1.35252c0.52681,-0.33657 2.09807,-1.1933 3.29889,-1.95501c1.20082,-0.76171 7.76526,-5.93303 13.38725,-6.23673c5.62199,-0.3037 11.16845,4.0922 12.64554,4.83039c1.47709,0.73819 4.77018,3.23717 6.66439,4.55705c1.89421,1.31988 1.66229,0.52534 2.25645,1.05499c0.59416,0.52965 0.94021,0.88297 1.36208,1.34937c0.42187,0.4664 1.44238,1.77293 1.9826,2.73389c0.54022,0.96096 0.99409,2.06396 1.26966,3.16427c0.27557,1.10031 -0.17747,1.70962 -0.12892,2.43287c0.04855,0.72325 -0.30209,-4.50114 0.00002,-0.00003z" fill="#d7c195" stroke="#6b4b04" stroke-width="0.5" stroke-linecap="butt"/><path d="M279.35944,193.42168c0.21214,3.16052 -1.25138,3.60587 -2.9284,3.71842c-1.67702,0.11255 -2.25074,-0.15029 -2.46286,-3.31081c-0.21212,-3.16052 0.29365,-2.69702 1.97067,-2.80957c1.67702,-0.11255 3.20847,-0.75857 3.4206,2.40195c0.21213,3.16052 -0.21215,-3.16051 -0.00001,0.00001z" fill="#ffffff" stroke="none" stroke-width="0" stroke-linecap="butt"/><path d="M284.54499,194.36287c0.18833,2.80578 -0.75266,2.72275 -1.88141,2.79852c-1.12875,0.07577 -2.01785,0.28161 -2.20618,-2.52415c-0.18833,-2.80576 0.57405,-3.81058 1.7028,-3.88634c1.12875,-0.07576 2.19645,0.80621 2.38478,3.61198c0.18833,2.80577 -0.18832,-2.80579 0.00001,-0.00001z" fill="#ffffff" stroke="none" stroke-width="0" stroke-linecap="butt"/><path d="M256.39842,186.70162c1.00391,-1.90777 3.69024,-1.35723 5.33517,-1.35976c1.37186,-0.00211 4.39689,0.50854 4.85634,2.63654" fill="none" stroke="#6b4b04" stroke-width="1" stroke-linecap="round"/><path d="M273.82487,212.26805c1.09626,0.13624 2.44992,1.79991 0.74908,1.84149c-1.70084,0.04158 -0.97223,0.01181 -1.62977,-0.00216c-0.65754,-0.01397 -0.50835,-1.50696 0.21275,-1.91552" fill="#6b4b04" stroke="#6b4b04" stroke-width="2" stroke-linecap="round"/></g><g stroke-linecap="butt"><g data-paper-data="{&quot;index&quot;:null}"><path d="M267.00131,228.93257c-0.70584,-1.07821 -1.41436,-3.79219 -1.41436,-5.76686c0,-0.6448 -0.84238,-1.64055 -0.70696,-2.47762c0.13542,-0.83707 0.60946,-2.29256 1.64987,-3.28924c1.04041,-0.99668 1.51306,-0.88141 3.03714,-1.20079c1.52408,-0.31938 2.17068,0.10073 2.97156,0.10073c0.88154,0 2.77933,-0.95075 4.07654,-0.83624c1.29721,0.11451 2.61023,0.14958 3.50369,1.46484c0.89346,1.31526 3.25293,4.3206 2.82874,6.55263c-0.42419,2.23203 1.25531,2.09342 0.53866,3.1758c-0.71665,1.08238 -2.39232,0.34002 -3.52455,1.33385c-1.13223,0.99383 -1.51167,3.75124 -3.58821,4.90949c-2.07654,1.15825 -2.78327,-1.295 -2.89195,-1.295c-0.94566,0 -2.02883,-0.9832 -3.37816,-1.53949c-1.34933,-0.55629 -2.39617,-0.05389 -3.10201,-1.1321z" fill="#6b4b04" stroke="#362602" stroke-width="1"/><path d="M268.32435,220.87926c0.4282,-1.78514 2.96472,-3.00362 3.99257,-1.53717c1.02785,1.46645 0.80121,4.583 -1.29268,5.38916c-2.09389,0.80616 -3.12809,-2.06685 -2.69989,-3.85199z" fill="#f6dfb1" stroke="none" stroke-width="0"/></g><g data-paper-data="{&quot;index&quot;:null}"><path d="M227.86156,220.14416c-0.3954,-0.60399 -0.7923,-2.1243 -0.7923,-3.23047c0,-0.3612 -0.05667,-1.33421 0.01919,-1.80312c0.07586,-0.46891 0.34141,-1.28424 0.92422,-1.84256c0.58281,-0.55832 0.84758,-0.49375 1.70133,-0.67266c0.85375,-0.17891 1.21597,0.05643 1.66461,0.05643c0.49382,0 0.00581,-1.39814 0.69056,-1.59628c0.68475,-0.19814 2.1202,-0.16843 3.31571,0.43702c1.19551,0.60545 0.83261,1.60584 1.04026,1.91152c0.20765,0.30568 1.50421,0.94959 1.66424,1.57119c0.16003,0.6216 -1.18516,1.53603 -1.29511,2.11453c-0.10995,0.5785 0.69353,1.1873 0.30175,1.77901c-0.39178,0.59171 -1.61121,-0.01373 -1.97438,0.7472c-0.36317,0.76093 1.14864,1.35958 0.63059,2.06839c-0.51805,0.70881 -1.54876,0.69298 -2.64062,0.6818c-1.09186,-0.01118 -1.55913,-0.72543 -1.62001,-0.72543c-0.52974,0 -1.1365,-0.55077 -1.89237,-0.86239c-0.75587,-0.31162 -1.34227,-0.03019 -1.73767,-0.63418z" fill="#6b4b04" stroke="#362602" stroke-width="1"/><path d="M228.13761,215.13764c0.5155,-1.44973 2.00702,-1.68353 3.19686,-0.94112c1.18984,0.74241 -1.04096,1.56642 -1.33316,2.10399c-0.2922,0.53757 0.53517,2.96304 -0.28633,2.45046c-0.8215,-0.51258 -2.09287,-2.1636 -1.57737,-3.61333z" fill="#f6dfb1" stroke="none" stroke-width="0"/></g><g data-paper-data="{&quot;index&quot;:null}"><path d="M284.86751,218.16531c0.40992,0.62617 0.8214,2.20234 0.8214,3.34914c0,0.37447 0.48921,0.95276 0.41057,1.43889c-0.07864,0.48613 -0.35395,1.33142 -0.95817,1.91025c-0.60422,0.57883 -0.87872,0.51188 -1.76383,0.69737c-0.88511,0.18549 -1.26064,-0.0585 -1.72576,-0.0585c-0.51196,0 -1.37297,0.31102 -2.12633,0.24451c-0.75336,-0.06651 -1.75704,0.15427 -2.27592,-0.60958c-0.51888,-0.76385 -1.88916,-2.50921 -1.64281,-3.80547c0.24635,-1.29626 -0.72903,-1.21577 -0.31283,-1.84436c0.4162,-0.62859 1.39299,-0.19335 2.04691,-0.77464c0.65392,-0.58129 1.09573,-2.48367 2.49908,-3.26643c1.40335,-0.78276 1.20119,1.16729 1.26431,1.16729c0.5492,0 1.17826,0.571 1.96189,0.89407c0.78363,0.32307 1.39157,0.03129 1.80149,0.65746z" fill="#6b4b04" stroke="#362602" stroke-width="1"/><path d="M284.09916,222.84231c-0.24868,1.03673 -1.72178,1.74437 -2.31871,0.89272c-0.59693,-0.85165 -0.46531,-2.6616 0.75073,-3.12978c1.21604,-0.46818 1.81666,1.20033 1.56798,2.23706z" fill="#f6dfb1" stroke="none" stroke-width="0"/></g><g data-paper-data="{&quot;index&quot;:null}"><path d="M278.77869,222.11399c0.70584,1.0782 1.41437,3.79219 1.41437,5.76686c0,0.6448 0.84238,1.64055 0.70696,2.47762c-0.13542,0.83707 -0.60946,2.29256 -1.64987,3.28924c-1.04041,0.99668 -1.51306,0.88141 -3.03714,1.20079c-1.52408,0.31938 -2.17068,-0.10073 -2.97156,-0.10073c-0.88154,0 -2.36412,0.53554 -3.66133,0.42102c-1.29721,-0.11452 -3.02545,0.26563 -3.9189,-1.04963c-0.89345,-1.31526 -3.25292,-4.3206 -2.82874,-6.55262c0.42418,-2.23202 -1.25531,-2.09342 -0.53866,-3.1758c0.71665,-1.08238 2.39232,-0.34002 3.52455,-1.33385c1.13223,-0.99383 1.51167,-3.75124 3.58821,-4.90949c2.07654,-1.15825 2.78327,1.295 2.89195,1.295c0.94566,0 2.02883,0.98321 3.37816,1.5395c1.34933,0.55629 2.39616,0.05389 3.102,1.13209z" fill="#6b4b04" stroke="#362602" stroke-width="1"/><path d="M277.45565,230.1673c-0.4282,1.78514 -2.96473,3.00363 -3.99258,1.53718c-1.02785,-1.46645 -0.80121,-4.58299 1.29268,-5.38916c2.09389,-0.80617 3.1281,2.06684 2.6999,3.85198z" fill="#f6dfb1" stroke="none" stroke-width="0"/></g><g data-paper-data="{&quot;index&quot;:null}"><path d="M266.10526,234.77895c-1.19141,0.49119 -2.4325,1.53949 -3.37816,1.53949c-0.10868,0 -1.81166,1.89755 -2.89195,1.29499c-1.08029,-0.60256 -1.79532,-3.33575 -3.58821,-4.90949c-1.79289,-1.57374 -2.69133,-0.07543 -3.52455,-1.33386c-0.83322,-1.25843 1.10385,-0.20186 0.53866,-3.17579c-0.56519,-2.97393 1.93528,-5.23736 2.82874,-6.55263c0.89346,-1.31527 1.8448,-0.86654 3.9189,-1.04963c2.0741,-0.18309 2.77979,0.42102 3.66132,0.42102c0.80088,0 1.99904,-0.30453 2.97157,-0.10073c0.97253,0.2038 2.11527,0.31767 3.03713,1.20079c0.92186,0.88312 1.37057,1.56281 1.64987,3.28924c0.2793,1.72643 -0.70696,1.83282 -0.70696,2.47762c0,1.97467 -0.14043,3.82086 -1.41437,5.76687c-1.27394,1.94601 -1.91058,0.64092 -3.10199,1.13211z" fill="#6b4b04" stroke="#362602" stroke-width="1"/><path d="M265.18433,229.44553c-1.71319,-0.65959 -2.59403,-3.5325 -1.29268,-5.38916c1.30135,-1.85666 3.54304,-0.33691 3.99257,1.53718c0.44953,1.87409 -0.9867,4.51157 -2.69989,3.85198z" fill="#f6dfb1" stroke="none" stroke-width="0"/></g><g data-paper-data="{&quot;index&quot;:null}"><path d="M255.81957,233.49324c-1.19142,0.49119 -2.4325,1.53949 -3.37816,1.53949c-0.10868,0 -1.81167,1.89756 -2.89196,1.295c-1.08029,-0.60256 -1.79531,-3.33575 -3.5882,-4.90949c-1.79289,-1.57374 -2.69133,-0.07542 -3.52455,-1.33385c-0.83322,-1.25843 1.10385,-0.20186 0.53866,-3.17579c-0.56519,-2.97393 0.50671,-4.52307 1.40017,-5.83834c0.89346,-1.31527 2.94385,-3.64875 5.63319,-4.04963c2.68934,-0.40088 2.49407,2.70674 3.37561,2.70674c0.80088,0 1.99905,-0.30453 2.97157,-0.10073c0.97252,0.2038 2.11527,0.31767 3.03713,1.20079c0.92186,0.88312 1.37058,1.56282 1.64987,3.28924c0.27929,1.72642 -0.70695,1.83282 -0.70695,2.47762c0,1.97467 -0.14042,3.82086 -1.41437,5.76687c-1.27395,1.94601 -1.91059,0.64089 -3.10201,1.13208z" fill="#6b4b04" stroke="#362602" stroke-width="1"/><path d="M254.89864,228.01696c-1.71319,-0.65959 -2.59403,-3.53249 -1.29268,-5.38915c1.30135,-1.85666 3.54304,-0.33692 3.99257,1.53717c0.44953,1.87409 -0.9867,4.51157 -2.69989,3.85198z" fill="#f6dfb1" stroke="none" stroke-width="0"/></g><g data-paper-data="{&quot;index&quot;:null}"><path d="M246.63585,217.70147c0.70584,1.0782 1.41437,3.79219 1.41437,5.76687c0,0.6448 0.84238,1.64055 0.70696,2.47762c-0.13542,0.83707 -0.60946,2.29256 -1.64987,3.28925c-1.04041,0.99669 -1.51305,0.88141 -3.03713,1.20079c-1.52408,0.31938 -2.17068,-0.10073 -2.97157,-0.10073c-0.88154,0 -1.68508,2.95874 -3.37561,2.70674c-1.69053,-0.252 -4.73973,-2.73437 -5.63318,-4.04964c-0.89345,-1.31527 -1.82435,-3.60631 -1.40016,-5.83834c0.42419,-2.23203 -1.25532,-2.09342 -0.53867,-3.17579c0.71665,-1.08237 2.3961,-0.33573 3.52455,-1.33385c1.12845,-0.99812 1.75561,-4.01107 4.00342,-5.3247c2.24781,-1.31363 2.78328,1.295 2.89195,1.295c0.94566,0 1.71079,1.31741 2.96295,1.9547c1.25216,0.63729 2.39615,0.05388 3.10199,1.13208z" fill="#6b4b04" stroke="#362602" stroke-width="1"/><path d="M245.31282,225.89764c-0.4282,1.78515 -2.96473,3.00362 -3.99258,1.53717c-1.02785,-1.46645 -0.80121,-4.583 1.29268,-5.38916c2.09389,-0.80616 3.1281,2.06684 2.6999,3.85199z" fill="#f6dfb1" stroke="none" stroke-width="0"/></g></g><path d="M209.94725,202.94951c-5.14708,-9.52454 0.89956,-21.52028 11.0688,-29.05905c10.16924,-7.53877 10.01843,6.98941 18.95191,6.80378c8.93348,-0.18563 13.84275,-8.902 23.46385,-7.68516c9.6211,1.21684 3.43172,7.98434 8.52166,11.73058c5.08994,3.74624 8.63965,-0.02077 12.21607,3.53258c3.57642,3.55335 -5.08718,4.24177 -2.51046,6.11044c2.57672,1.86867 15.68861,0.71009 21.30805,7.52178c5.61944,6.81169 -7.83047,6.87438 -5.02095,12.22088c2.80952,5.3465 11.98206,-0.5643 14.15623,5.1635c2.17417,5.7278 -0.0777,12.71082 -6.20008,15.7968c-6.12238,3.08598 -10.74068,-8.37644 -16.38637,-4.41211c-5.64569,3.96433 2.1167,18.57345 -6.18563,20.26187c-8.30233,1.68842 -15.37105,-11.33031 -27.28073,-13.45593c-11.90968,-2.12562 -10.19997,10.44873 -15.31129,5.85418c-5.11132,-4.59455 3.93474,-13.08849 -0.36218,-19.94301c-4.29692,-6.85452 -12.12946,4.33713 -12.95303,-1.29764c-0.82357,-5.63477 15.64055,-11.50187 10.21333,-17.44698c-5.42722,-5.94511 -22.5421,7.82803 -27.68918,-1.69651z" fill="#faff4f" stroke="#987200" stroke-width="2" stroke-linecap="round"/><text transform="translate(238.61413,211.3932) rotate(-0.8289) scale(0.28511,0.28511)" font-size="40" xml:space="preserve" fill="#000000" fill-rule="nonzero" stroke="none" stroke-width="1" stroke-linecap="butt" stroke-linejoin="miter" stroke-miterlimit="10" stroke-dasharray="" stroke-dashoffset="0" font-family="Marker" font-weight="normal" text-anchor="start" style="mix-blend-mode: normal"><tspan x="0" dy="0">SPUDOW</tspan></text></g></g></svg>