<svg version="1.1" xmlns="http://www.w3.org/2000/svg" xmlns:xlink="http://www.w3.org/1999/xlink" width="98.1965" height="67.5" viewBox="0,0,98.1965,67.5"><g transform="translate(-207.0625,-146.25)"><g data-paper-data="{&quot;isPaintingLayer&quot;:true}" fill-rule="nonzero" stroke-linecap="butt" stroke-linejoin="miter" stroke-miterlimit="10" stroke-dasharray="" stroke-dashoffset="0" style="mix-blend-mode: normal"><g><g stroke="#1a6521" stroke-width="2.5"><path d="M255.2634,202.08761v-12c0,0 3.03965,-3.2357 5.76641,-3.2357c1.983,0 6.21343,5.46834 10.26249,3.92666c9.03715,-3.44091 24.0687,-0.69096 24.0687,-0.69096v12c0,0 -7.68207,2.95 -15.09755,2.89906c-1.94749,-0.01337 -3.6171,-4.10697 -5.43238,-3.91752c-6.41188,0.66917 -9.75285,4.25415 -12.68638,4.25415c-3.1526,0 -6.88128,-3.23569 -6.88128,-3.23569z" fill="#7f4e07"/><path d="M302.63162,196.46261c0,4.90153 -5.06957,8.875 -11.32319,8.875c-6.25363,0 -11.32319,-3.97347 -11.32319,-8.875c0,-4.90153 5.06957,-8.875 11.32319,-8.875c6.25363,0 11.32319,3.97347 11.32319,8.875z" fill="#32c302"/></g><g stroke="#1a6521" stroke-width="2.5"><path d="M251.61227,166.12727v-12.5c0,0 5.74065,-1.61785 9.84351,-1.61785c2.22954,0 5.6592,3.38439 9.71283,3.59162c2.46844,0.12619 5.85867,-5.96216 8.38097,-6.14679c6.99831,-0.51227 12.45469,4.17302 12.45469,4.17302v12.5c0,0 -6.37855,3.45682 -13.41158,3.52544c-2.02522,0.01976 -3.87016,-4.05665 -5.92187,-3.87363c-5.1089,0.45571 -9.91407,3.12164 -12.49387,3.12164c-3.67107,0 -8.56469,-2.77345 -8.56469,-2.77345z" fill="#7f4e07"/><path d="M293.53212,169.7766c-5.40918,-0.2916 -9.4873,-5.17629 -9.10875,-10.91025c0.37854,-5.73396 5.07043,-10.14587 10.47959,-9.85426c1.81535,0.09786 6.29557,0.47375 8.06327,1.46475c1.32916,0.74516 0.08886,1.94209 0.78621,3.05204c1.13867,1.81236 0.41526,4.03081 0.25928,6.39345c-0.12054,1.82575 0.11608,3.75676 -0.76297,5.20528c-1.03703,1.70881 -2.23273,3.00648 -4.18984,3.79393c-1.59417,0.64141 -3.87177,0.94428 -5.52678,0.85506z" fill="#32c302"/></g><path d="M271.6875,180c0,17.94925 -14.18698,32.5 -31.6875,32.5c-17.50053,0 -31.6875,-14.55075 -31.6875,-32.5c0,-17.94925 14.18697,-32.5 31.6875,-32.5c17.50052,0 31.6875,14.55075 31.6875,32.5z" fill="#32c302" stroke="#1a6521" stroke-width="2.5"/><path d="M243.4476,162.1306c0,1.38071 -1.39911,2.5 -3.125,2.5c-1.72589,0 -3.125,-1.11929 -3.125,-2.5c0,-1.38071 1.39911,-2.5 3.125,-2.5c1.72589,0 3.125,1.11929 3.125,2.5z" fill="#ad0303" stroke="#040404" stroke-width="0"/><path d="M245.39628,185.34049c0,1.17361 -0.7835,2.125 -1.75,2.125c-0.9665,0 -1.75,-0.95139 -1.75,-2.125c0,-1.17361 0.7835,-2.125 1.75,-2.125c0.9665,0 1.75,0.95139 1.75,2.125z" fill="#ad0303" stroke="none" stroke-width="0"/></g><path d="M244.98541,163.29015c0,5.10863 -3.74962,9.25 -8.375,9.25c-2.97585,0 -3.49002,-0.87845 -4.76989,-3.46163c-0.70944,-1.43187 -2.44583,-12.2599 -1.14026,-13.92774c1.34385,-1.71674 3.56404,-1.11063 5.91015,-1.11063c4.62538,0 8.375,4.14137 8.375,9.25z" fill="#ffffa8" stroke="#040404" stroke-width="2.5"/><path d="M248.83763,162.47152c0,3.15423 -0.84194,5.71124 -1.88053,5.71124c-1.03859,0 -1.88053,-2.55701 -1.88053,-5.71124c0,-3.15423 0.84194,-5.71124 1.88053,-5.71124c1.03859,0 1.88053,2.55701 1.88053,5.71124z" fill="#2c077b" stroke="none" stroke-width="0"/><path d="M247.66772,186.76433c0,4.21117 -3.26097,7.625 -7.28358,7.625c-4.02261,0 -7.28358,-3.41383 -7.28358,-7.625c0,-2.10871 2.76785,-3.4603 4.08937,-4.84064c1.3176,-1.37624 1.18589,-2.78436 3.19421,-2.78436c4.02261,0 7.28358,3.41383 7.28358,7.625z" fill="#ffffa8" stroke="#040404" stroke-width="2.5"/><path d="M243.4476,162.13061c0,1.38071 -1.39911,2.5 -3.125,2.5c-1.72589,0 -3.125,-1.11929 -3.125,-2.5c0,-1.38071 1.39911,-2.5 3.125,-2.5c1.72589,0 3.125,1.11929 3.125,2.5z" fill="#ad0303" stroke="#040404" stroke-width="0"/><path d="M245.39628,185.34049c0,1.17361 -0.7835,2.125 -1.75,2.125c-0.9665,0 -1.75,-0.95139 -1.75,-2.125c0,-1.17361 0.7835,-2.125 1.75,-2.125c0.9665,0 1.75,0.95139 1.75,2.125z" fill="#ad0303" stroke="none" stroke-width="0"/><g stroke-width="1"><path d="M250.96162,201.1752c-1.21486,3.18901 -2.70946,5.58002 -4.52542,4.88822c-1.81596,-0.6918 -1.34088,-3.47119 -0.12602,-6.6602c1.21486,-3.18901 2.70946,-5.58002 4.52542,-4.88822c1.81596,0.6918 1.34088,3.47119 0.12602,6.6602z" fill="#b58c36" stroke="#725732"/><path d="M246.42474,200.5489l1.16095,-3.0475l4.33066,1.64977l-1.16095,3.0475z" fill="#ffde99" stroke="#b58c36"/></g><g data-paper-data="{&quot;index&quot;:null}" stroke-width="1"><path d="M272.19255,154.72584c1.63749,-0.6238 2.98519,1.53221 4.08065,4.4078c1.09546,2.87559 1.52385,5.38182 -0.11364,6.00562c-1.63749,0.6238 -2.98519,-1.53221 -4.08065,-4.4078c-1.09546,-2.87559 -1.52385,-5.38182 0.11364,-6.00562z" fill="#b58c36" stroke="#725732"/><path d="M272.26486,161.65434l-1.04685,-2.74799l3.90503,-1.48763l1.04685,2.74799z" fill="#ffde99" stroke="#b58c36"/></g></g></g></svg>