<svg version="1.1" xmlns="http://www.w3.org/2000/svg" xmlns:xlink="http://www.w3.org/1999/xlink" width="23.01958" height="20.38804" viewBox="0,0,23.01958,20.38804"><g transform="translate(-228.41764,-169.8011)"><g data-paper-data="{&quot;isPaintingLayer&quot;:true}" fill-rule="nonzero" stroke-linejoin="miter" stroke-miterlimit="10" stroke-dasharray="" stroke-dashoffset="0" style="mix-blend-mode: normal"><g><path d="M247.27346,182.68485l-2.69599,5.71013l-2.53301,-1.49316l-2.13727,2.82334l-1.0579,-2.00308l-3.47819,1.56783l-0.2142,-2.53839l-4.28381,1.15598l0.93786,-4.45264l-2.93949,-2.39492l4.77909,-2.4642l-0.62069,-3.44014l3.27326,0.38451l3.05707,-5.2529l1.72201,2.7887l3.22056,-1.45169l-0.07612,1.89426l4.155,-1.09791l-0.33181,5.10945l2.86676,-0.51725z" fill="#fff900" stroke="#000000" stroke-width="0.5" stroke-linecap="round"/><path d="M235.57727,182.22214c-1.04967,-2.32868 0.0382,-5.09036 2.42979,-6.1684c2.39161,-1.07804 5.18132,-0.06419 6.231,2.26447c1.04967,2.32868 -0.0382,5.09036 -2.42979,6.1684c-2.39161,1.07804 -5.18132,0.06419 -6.231,-2.26447z" fill="#ff9800" stroke="none" stroke-width="0" stroke-linecap="butt"/></g></g></g></svg>