<svg version="1.1" xmlns="http://www.w3.org/2000/svg" xmlns:xlink="http://www.w3.org/1999/xlink" width="42.05252" height="44.58522" viewBox="0,0,42.05252,44.58522"><g transform="translate(-219.58529,-157.37568)"><g data-paper-data="{&quot;isPaintingLayer&quot;:true}" fill="none" fill-rule="nonzero" stroke-linecap="round" stroke-linejoin="miter" stroke-miterlimit="10" stroke-dasharray="" stroke-dashoffset="0" style="mix-blend-mode: normal"><path d="M241.77067,160.62568c9.23372,2.3829 16.0842,8.45578 16.61714,17.91536c0.53294,9.45957 -6.94014,15.55702 -14.54,18.95393c-7.59987,3.39691 -14.65285,4.20913 -19.73286,-3.635c-5.08001,-7.84413 -1.52414,-16.84862 2.07714,-23.6275c3.60128,-6.77888 6.34485,-11.98968 15.57857,-9.60679z" stroke="#ffffff" stroke-width="6.5"/><path d="M241.77067,160.62568c9.23372,2.3829 16.0842,8.45578 16.61714,17.91536c0.53294,9.45957 -6.94014,15.55702 -14.54,18.95393c-7.59987,3.39691 -14.65285,4.20913 -19.73286,-3.635c-5.08001,-7.84413 -1.52414,-16.84862 2.07714,-23.6275c3.60128,-6.77888 6.34485,-11.98968 15.57857,-9.60679z" stroke="#000000" stroke-width="4"/></g></g></svg>