<svg version="1.1" xmlns="http://www.w3.org/2000/svg" xmlns:xlink="http://www.w3.org/1999/xlink" width="117.77633" height="91.21804" viewBox="0,0,117.77633,91.21804"><g transform="translate(-188.73581,-133.31503)"><g data-paper-data="{&quot;isPaintingLayer&quot;:true}" fill-rule="nonzero" stroke-linejoin="miter" stroke-miterlimit="10" stroke-dasharray="" stroke-dashoffset="0" style="mix-blend-mode: normal"><path d="M210.15807,151.75794c4.91107,-4.04132 9.38427,-8.28226 14.99943,-11.39375c1.01528,-0.56259 4.11581,-2.38659 5.33374,-2.6174c2.41828,-0.4583 5.33993,0.16215 7.85658,0.3155c-0.09812,-0.54207 -0.15406,-1.82398 1.35005,-2.32228c0.04014,-0.01329 0.07971,-0.02548 0.11874,-0.0366c0.45165,-0.75586 1.37384,-0.95608 1.37384,-0.95608l2.01115,-0.43667c1.00167,-0.13456 2.04463,-0.71857 3.005,-0.40369c3.65143,1.19723 5.73216,7.78214 3.63733,10.78953c-1.36589,1.9609 -6.80568,3.98642 -8.90098,2.47593c-0.32601,-0.23502 -0.50469,-0.57516 -0.61185,-0.96558c-0.28966,0.06228 -0.58561,0.05916 -0.86759,-0.00354l-0.18061,-0.03917c0.01136,0.12001 -0.00988,0.23326 -0.08465,0.3354c-1.16146,1.58659 -4.98835,2.91024 -6.75281,3.71034c-5.1622,2.34081 -10.28705,4.27169 -15.69944,5.93966c-1.69455,0.52222 -3.73658,1.63334 -5.61745,1.04886c-0.93856,-0.29166 -1.4964,-1.27461 -2.24459,-1.91192c0,0 -1.45429,-1.42174 -0.03255,-2.87604c0.44781,-0.45807 0.89886,-0.63081 1.30667,-0.65251zM243.57026,144.06719c-0.04072,0.19646 0.17934,-0.37593 0.33911,-0.4973c0.82093,-0.62358 1.97524,-0.73221 2.75347,-1.40833c0.65626,-0.57016 -0.4109,-1.79363 -0.53139,-2.04931c-0.75481,-1.60174 -0.38728,-2.60194 -2.0668,-1.82659l-1.26882,0.27549c0.63889,1.83932 1.17436,3.57649 0.77443,5.50605z" data-paper-data="{&quot;index&quot;:null}" fill="#adadad" stroke="#000000" stroke-width="1" stroke-linecap="butt"/><path d="M198.41242,190.48063c-0.60211,-1.94263 1.34051,-2.54474 1.34051,-2.54474c0.9565,-0.22599 1.9012,-0.8464 2.8695,-0.67796c1.94045,0.33755 3.25109,2.25763 4.52104,3.49514c4.05622,3.95263 7.73664,8.0081 11.26336,12.44544c1.20545,1.5167 4.00764,4.43986 4.31778,6.38153c0.01996,0.125 -0.01277,0.23547 -0.07761,0.3371l0.1786,0.0475c0.27954,0.07279 0.54435,0.20497 0.77374,0.39249c0.27342,-0.29859 0.58755,-0.51982 0.98486,-0.58032c2.55357,-0.38878 6.47112,3.89454 6.79249,6.26256c0.49289,3.63177 -4.36177,8.54326 -8.15739,7.94362c-0.99828,-0.15771 -1.66017,-1.15308 -2.49026,-1.72962l-1.59073,-1.30575c0,0 -0.72942,-0.59874 -0.78668,-1.47739c-0.02966,-0.02769 -0.05933,-0.05658 -0.08898,-0.08672c-1.11137,-1.12938 -0.47701,-2.24473 -0.14249,-2.68241c-2.30967,-1.01117 -5.19278,-1.79134 -7.13597,-3.302c-0.97866,-0.76082 -2.90624,-3.79803 -3.55325,-4.76172c-3.57839,-5.32977 -5.62543,-11.14396 -8.15318,-16.98017c-0.35304,-0.20529 -0.67568,-0.56471 -0.86533,-1.17659zM222.30622,218.28555l1.00358,0.82379c1.14114,1.45594 1.27017,0.39819 2.67236,-0.68309c0.22383,-0.1726 1.73149,-0.7748 1.40745,-1.58149c-0.38427,-0.95662 -1.36203,-1.57969 -1.80826,-2.50902c-0.08685,-0.18087 -0.02167,-0.79064 -0.07503,-0.59722c-0.52399,1.89962 -1.79274,3.20146 -3.20011,4.54704z" fill="#adadad" stroke="#000000" stroke-width="1" stroke-linecap="butt"/><g data-paper-data="{&quot;index&quot;:null}" stroke-linecap="butt"><path d="M296.51661,214.4992c-6.27958,2.25318 -14.27757,0.94218 -17.86399,-2.92819c-3.58643,-3.87037 -1.40319,-8.8345 4.8764,-11.08768c6.27958,-2.25318 14.27757,-0.94218 17.86399,2.9282c3.58643,3.87037 1.40319,8.8345 -4.8764,11.08767z" fill="#32c302" stroke="#000000" stroke-width="2.5"/><path d="M263.74316,212.91189c-7.18894,2.57946 -16.29311,1.13475 -20.33474,-3.22687c-4.04163,-4.36162 -1.49022,-9.98848 5.69871,-12.56794c7.18894,-2.57946 16.2931,-1.13475 20.33473,3.22687c4.04163,4.36162 1.49023,9.98847 -5.69871,12.56794z" fill="#32c302" stroke="#000000" stroke-width="3"/><path d="M277.42716,213.94437c-6.10017,2.18881 -13.9527,0.82562 -17.53913,-3.04476c-3.58643,-3.87037 -1.54863,-8.78231 4.55154,-10.97112c6.10017,-2.18881 13.9527,-0.82561 17.53913,3.04476c3.58643,3.87037 1.54863,8.78231 -4.55154,10.97111z" fill="#32c302" stroke="#000000" stroke-width="3"/><path d="M263.52659,212.9896c-7.18894,2.57946 -16.29311,1.13475 -20.33473,-3.22687c-4.04163,-4.36162 -1.49022,-9.98847 5.69871,-12.56794c7.18894,-2.57946 16.29311,-1.13476 20.33473,3.22686c4.04163,4.36162 1.49023,9.98848 -5.69871,12.56795z" fill="#8c3801" stroke="none" stroke-width="0"/><path d="M277.21058,214.02208c-6.10017,2.18881 -13.9527,0.82562 -17.53913,-3.04476c-3.58643,-3.87037 -1.54863,-8.78231 4.55154,-10.97112c6.10017,-2.18881 13.9527,-0.82562 17.53913,3.04475c3.58643,3.87037 1.54863,8.78232 -4.55154,10.97112z" fill="#8c3801" stroke="none" stroke-width="0"/><path d="M296.51661,214.4992c-6.27958,2.25318 -14.27757,0.94218 -17.86399,-2.92819c-3.58643,-3.87037 -1.40319,-8.8345 4.8764,-11.08768c6.27958,-2.25318 14.27757,-0.94218 17.86399,2.9282c3.58643,3.87037 1.40319,8.8345 -4.8764,11.08767z" fill="#32c302" stroke="none" stroke-width="0"/></g><g data-paper-data="{&quot;index&quot;:null}" stroke-linecap="butt"><path d="M301.23153,192.34692c-4.84942,0.84886 -12.16068,-2.58891 -16.33016,-7.67847c-4.16949,-5.08956 -3.61829,-9.90361 1.23111,-10.75248c4.84942,-0.84886 12.16068,2.58891 16.33016,7.67847c4.16949,5.08956 3.6183,9.9036 -1.23111,10.75247z" fill="#32c302" stroke="#000000" stroke-width="2.5"/><path d="M273.06215,177.03333c-5.46492,0.9566 -13.76461,-2.99131 -18.53788,-8.81789c-4.77328,-5.82658 -4.21259,-11.32545 1.25233,-12.28205c5.46492,-0.9566 13.76461,2.9913 18.53789,8.81789c4.77328,5.82658 4.21259,11.32545 -1.25233,12.28205z" fill="#32c302" stroke="#000000" stroke-width="3"/><path d="M284.79739,182.00379c-4.84942,0.84886 -12.0641,-2.47102 -16.11446,-7.41517c-4.05036,-4.94415 -3.40259,-9.64032 1.44682,-10.48918c4.84942,-0.84886 12.0641,2.47102 16.11446,7.41517c4.05036,4.94415 3.4026,9.64032 -1.44681,10.48918z" fill="#32c302" stroke="#000000" stroke-width="3"/><path d="M272.91835,176.85779c-5.46492,0.9566 -13.76461,-2.9913 -18.53788,-8.81788c-4.77328,-5.82658 -4.21259,-11.32545 1.25233,-12.28205c5.46492,-0.9566 13.76461,2.9913 18.53789,8.81788c4.77328,5.82658 4.21259,11.32545 -1.25233,12.28205z" fill="#8c3801" stroke="none" stroke-width="0"/><path d="M284.65359,181.82826c-4.84942,0.84886 -12.0641,-2.47102 -16.11446,-7.41517c-4.05036,-4.94415 -3.4026,-9.64031 1.44681,-10.48917c4.84942,-0.84886 12.0641,2.47102 16.11446,7.41517c4.05036,4.94415 3.4026,9.64032 -1.44681,10.48918z" fill="#8c3801" stroke="none" stroke-width="0"/><path d="M301.23153,192.34692c-4.84942,0.84886 -12.16068,-2.58891 -16.33016,-7.67847c-4.16949,-5.08956 -3.61829,-9.90361 1.23111,-10.75248c4.84942,-0.84886 12.16068,2.58891 16.33016,7.67847c4.16949,5.08956 3.6183,9.9036 -1.23111,10.75247z" fill="#32c302" stroke="none" stroke-width="0"/></g><g stroke-linecap="butt"><g fill="none" stroke="none" stroke-width="1" font-family="sans-serif" font-weight="normal" font-size="12" text-anchor="start"/><g fill="none" stroke="none" stroke-width="1" font-family="sans-serif" font-weight="normal" font-size="12" text-anchor="start"/><path d="M267.13734,163.6396c9.26728,15.37183 4.63009,35.15797 -10.35744,44.19357c-14.98755,9.0356 -34.64995,3.89906 -43.91723,-11.47277c-9.26728,-15.37183 -4.6301,-35.15796 10.35744,-44.19356c14.98754,-9.0356 34.64995,-3.89907 43.91723,11.47276z" fill="#32c302" stroke="#1a6521" stroke-width="2.5"/></g><path d="M232.32566,186.55713c0,-3.57806 2.90059,-6.47865 6.47865,-6.47865c3.57806,0 6.47865,2.90059 6.47865,6.47865c0,3.57806 -2.90059,6.47865 -6.47865,6.47865c-3.57806,0 -6.47865,-2.90059 -6.47865,-6.47865z" fill="#f2eda6" stroke="#000000" stroke-width="1.5" stroke-linecap="butt"/><path d="M238.17994,168.8687c0,-3.57806 2.90059,-6.47865 6.47865,-6.47865c3.57806,0 6.47865,2.90059 6.47865,6.47865c0,3.57806 -2.90059,6.47865 -6.47865,6.47865c-3.57806,0 -6.47865,-2.90059 -6.47865,-6.47865z" fill="#f2eda6" stroke="#000000" stroke-width="1.5" stroke-linecap="butt"/><path d="M246.73762,170.01696c0,-0.69036 0.55964,-1.25 1.25,-1.25c0.69036,0 1.25,0.55964 1.25,1.25c0,0.69036 -0.55964,1.25 -1.25,1.25c-0.69036,0 -1.25,-0.55964 -1.25,-1.25z" fill="#383727" stroke="none" stroke-width="0.5" stroke-linecap="butt"/><path d="M241.40686,187.94769c0,-0.69036 0.55964,-1.25 1.25,-1.25c0.69036,0 1.25,0.55964 1.25,1.25c0,0.69036 -0.55964,1.25 -1.25,1.25c-0.69036,0 -1.25,-0.55964 -1.25,-1.25z" fill="#383727" stroke="none" stroke-width="0.5" stroke-linecap="butt"/><g stroke-linecap="butt"><g fill="none" stroke="none" stroke-width="1" font-family="sans-serif" font-weight="normal" font-size="12" text-anchor="start"/><g fill="none" stroke="none" stroke-width="1" font-family="sans-serif" font-weight="normal" font-size="12" text-anchor="start"/><path d="M226.81154,205.34221l-0.05134,-0.04401l-1.29004,-1.50504l-0.49813,-0.02768l-0.3111,-0.26665l-0.4405,-0.881l-0.41124,-0.47978l-0.21253,-0.59509l-0.96923,-1.45385l-0.10251,-0.09319l-0.13979,-0.39142l-0.48461,-0.72692l-0.31053,-0.2823l-0.20882,-0.34803l-0.20757,-0.58121l-0.48461,-0.72692l-0.20392,-0.18537l-0.07629,-0.12716l-0.19702,-0.19702l-0.1542,-0.24231l-0.11014,-0.02203l-0.02324,-0.02324l-0.07573,-0.04543l-0.40889,-0.68149l-0.50786,-0.50786l-0.02203,-0.11014l-0.24231,-0.1542l-0.19703,-0.19702l-1.54106,-0.92464l-0.05384,-0.04895l-0.02488,0.00172l-0.35051,-0.21031l-0.55122,-0.35077l-0.26508,-0.9278l-0.11132,-0.19296l-0.01709,-0.22211l-0.48461,-1.45384l-0.38642,-0.60724l-0.15614,-0.70262l-0.72692,-1.45384l-0.25518,-0.29771l-0.11417,-0.37511l-0.52561,-0.87601l-0.01633,-0.04899l-0.041,-0.06442l-0.25926,-0.51851l-0.10904,-0.12721l-0.13327,-0.59971l-0.14974,-0.29948l-0.24838,-0.8693v-0.90137l0.24231,-0.96923v-0.46509l0.18604,-0.74416v-0.87608l0.02772,-0.08315l0.04252,-0.55277l0.22834,-0.91335v-0.02933l0.16509,-0.42648l0.21701,-1.73603l0.45108,-2.70647l-0.06665,-0.83314l0.20272,-0.81085v-0.98547l0.25659,-1.79613l0.19948,-0.59841l0.04565,-0.59349l0.01179,-0.02357l0.05,-0.08334l0.56153,-0.65512l0.24231,-0.48461l0.06158,-0.27711l0.39084,-0.61417l0.27451,-0.32026l0.2423,-0.48462l0.00248,-0.01116l0.05546,-0.08716l0.08811,-0.26434l0.14777,-0.24629l-0.02955,-0.10836l0.03597,-0.10793l0.00909,-0.11812l0.23322,-0.36649l0.24231,-0.72692l0.03007,-0.39095l0.18452,-0.34597l0.48462,-1.93846v-0.45726l2.03992,-1.01997l0.66069,-0.5663l0.76185,-0.30474l0.0959,-0.06926l0.00943,-0.00397l0.10223,-0.07667l0.78412,-0.56632l0.15284,-0.05095l0.17158,-0.10918l0.90742,-0.38207l0.23085,-0.0513l0.96923,-0.48462l0.47977,-0.41124l0.1368,-0.04885l0.11035,-0.02453l0.10422,-0.05211l0.24372,-0.08704l0.20891,-0.13927l0.41238,-0.20619l0.69013,-0.59154l0.83773,-0.35273l0.55653,-0.4174l0.43366,-0.2602l0.41157,-0.13719l1.33502,-0.33375l0.00723,-0.00145h3.99756l0.63747,0.10625l0.83315,-0.06665l0.81085,0.20271h1.93846l0.12479,0.03119l0.24922,0.12462l0.08853,0.01967l0.0198,0.01056l0.96922,0.24231h0.14888l0.99033,0.22007l0.77884,0.36893l0.34233,0.06846l0.1527,0.09718l0.72692,0.2423l0.30713,0.02363l0.32147,0.16073l0.08852,0.01967l0.0198,0.01056l0.96923,0.24231h0.06058l0.90866,0.48461l1.28004,0.32001l0.5814,0.23256l1.07497,0.14658l0.99495,0.43259l1.29478,0.2158l0.82008,0.16402l0.36579,0.09145l0.0838,0.02793l0.93869,0.37547l0.29794,0.04063l0.25368,0.16144l0.65423,0.21807l0.79962,0.50884l0.44814,0.14938l0.93869,0.37547l0.07261,0.0099l0.12994,0.19491c-2.09061,3.24076 -3.19037,8.17366 -3.99291,11.78509l-0.36662,1.46649c-6.0155,12.78295 -6.79447,22.99636 -15.63938,33.71149z" fill-opacity="0.84677" fill="#ffa403" stroke="#b58802" stroke-width="2"/></g><g stroke-linecap="butt"><path d="M251.20045,151.32904c0.6193,-0.71103 1.18565,-1.49278 2.00035,-1.94289c3.04806,-1.68403 3.91887,-0.87757 6.89518,-0.25742c7.58035,1.57942 10.00193,7.54739 13.69839,13.67879c2.47109,4.09885 7.16956,9.42749 7.48742,14.36631c0.29244,4.54381 -2.45188,9.68791 -4.74399,13.45145c-2.6005,4.26991 -6.42079,9.71144 -10.52871,12.60947c-2.35465,1.66114 -3.78431,1.7371 -6.48336,2.35015c-5.69028,1.29247 -10.93716,2.23841 -16.77776,1.57671c-1.31287,-1.1353 -3.55683,-1.71274 -3.93862,-3.4059c-0.15105,-0.66983 3.13699,-5.48106 3.88802,-6.50207c3.75716,-5.10773 10.31229,-9.88154 12.5785,-15.88674c0.9714,-2.57409 0.33029,-7.4318 0.1073,-9.85712c-0.23481,-2.55389 -0.34665,-6.58296 -1.45808,-9.03074c-0.71473,-1.57414 -1.71692,-3.12015 -2.71811,-4.63843c-0.52357,0.04296 -1.12874,-0.10546 -1.76511,-0.64859c-1.62615,-1.3879 -0.67479,-2.97955 -0.3651,-3.41149c-0.02338,-0.67463 0.22128,-1.47585 1.23445,-2.08667c0.31532,-0.1901 0.6122,-0.30576 0.88923,-0.36479z" fill="#c2c2c2" stroke="#666666" stroke-width="1.5"/><path d="M252.06693,193.11152c-0.67424,-0.73852 0.06428,-1.41275 0.06428,-1.41275l0.98851,-0.89587c1.15474,-0.69617 1.83582,-1.35989 2.71616,-2.38516c2.19119,-4.1596 2.31232,-8.35827 2.45839,-12.93386c0.05764,-1.8055 0.82506,-3.55919 1.12542,-5.34119c0.31297,-1.85682 0.07367,-3.66978 0.31467,-5.52985c0,0 0.13183,-0.99127 1.1231,-0.85944c0.99127,0.13183 0.85944,1.12309 0.85944,1.12309c-0.2573,1.87945 -0.01172,3.72 -0.32671,5.60835c-0.27709,1.66113 -1.07154,3.38142 -1.09665,5.05237c-0.0747,4.97176 -0.41195,9.52282 -2.80384,14.00517c-1.0099,1.18896 -1.84226,2.0606 -3.17363,2.86325l-0.83642,0.77019c0,0 -0.73851,0.67423 -1.41275,-0.06428z" fill="#7f7f7f" stroke="none" stroke-width="0.5"/><path d="M267.97569,161.75253c0.8564,-0.5163 1.37271,0.3401 1.37271,0.3401l0.12511,0.20751c2.45817,4.07743 3.51668,10.99083 3.62253,15.74236c-0.77722,5.02774 -2.61275,11.5427 -5.89296,15.59028c-2.20515,2.72102 -6.18163,4.35582 -9.13035,6.13353c0,0 -0.85641,0.5163 -1.37271,-0.3401c-0.5163,-0.8564 0.3401,-1.37271 0.3401,-1.37271c2.72735,-1.64425 6.59773,-3.17979 8.63038,-5.70571c3.01148,-3.74229 4.69903,-9.80384 5.42986,-14.43663c-0.05851,-2.37043 -0.78834,-4.15377 -1.16854,-6.43144c-0.51225,-3.06884 -0.55658,-5.46887 -2.17113,-8.14697l-0.12511,-0.20752c0,0 -0.5163,-0.8564 0.3401,-1.37271z" fill="#7f7f7f" stroke="none" stroke-width="0.5"/><path d="M269.03137,194.90763c-0.76063,-0.64918 -0.11143,-1.40982 -0.11143,-1.40982l0.58383,-0.67215c2.17613,-1.98671 2.7796,-4.03075 4.30337,-6.45489c2.04037,-3.19249 3.89632,-8.51704 2.77051,-12.22475c-0.7214,-2.37582 -2.54296,-4.63026 -3.82172,-6.75137c0,0 -0.5163,-0.85641 0.3401,-1.37271c0.8564,-0.5163 1.37271,0.3401 1.37271,0.3401c1.37439,2.27973 3.23136,4.64354 4.02014,7.19469c1.30949,4.23536 -0.68404,10.21233 -2.99214,13.88422c-1.6268,2.54539 -2.32385,4.7431 -4.6445,6.86174l-0.41104,0.49349c0,0 -0.64918,0.76063 -1.40981,0.11144z" fill="#7f7f7f" stroke="none" stroke-width="0.5"/></g><path d="M224.73284,210.17061c0,0 -22.08601,-9.08943 -30.96245,-22.45599c-4.36447,-6.57222 -4.71983,-12.94498 -2.26202,-18.86865c2.54088,-6.12387 8.08832,-11.7678 15.32101,-16.65598c14.22892,-9.61657 37.28132,-5.8901 37.28132,-5.8901z" fill="#adadad" stroke="#666666" stroke-width="2.5" stroke-linecap="round"/><g stroke-linecap="butt"><path d="M233.13251,178.56493c-1.26812,7.64053 -9.02614,14.46076 -14.68936,19.23129c-0.45296,0.5037 -1.8705,2.13557 -2.27322,2.2137c-0.68422,0.13273 -2.37356,-1.56265 -2.79701,-1.86716c-2.90618,-2.08989 -5.81781,-4.28216 -8.91756,-6.10137c-0.76302,-0.44781 -3.0155,-1.30092 -3.28482,-2.2125c-0.68942,-2.33346 0.4015,-1.83048 1.49269,-2.78428c2.33385,-2.04 4.18632,-5.21274 5.99305,-7.72174c2.45865,-2.90715 2.73903,-5.63485 3.88893,-9.106c2.21032,-6.67218 6.60084,-13.35015 13.8779,-14.47409c3.30146,0.65454 2.74438,2.92434 3.735,5.54064c2.11541,5.58698 3.4913,10.5653 2.58042,16.33377c0.49769,0.30514 0.39398,0.94775 0.39398,0.94775z" data-paper-data="{&quot;index&quot;:null}" fill="#ff1c1c" stroke="#bf1515" stroke-width="1.5"/><g><path d="M210.41221,194.01132c-0.30359,-0.15093 -0.44543,-0.46665 -0.44543,-0.46665l-0.28538,-0.68733c-0.85089,-4.1221 -1.27355,-9.0242 1.50983,-12.58606c1.10964,-1.42 2.83277,-1.47797 4.00702,-2.52881c0.42951,-0.38437 0.86267,-1.86351 1.15244,-2.38544c0.48907,-1.292 1.01245,-2.93153 2.0698,-3.88696c1.86693,-1.68697 6.80685,-1.56629 8.63973,0.35062c3.22715,3.37511 1.36452,9.17834 -1.51422,11.81959c-0.28448,0.19378 -1.18083,0.55555 -1.22873,1.1296c-0.07361,0.88208 0.19594,1.84124 -0.16277,2.65045c-0.63415,1.43057 -2.25743,2.42222 -3.5583,3.10989c-0.51354,0.27147 -0.97442,0.81085 -1.33736,0.6793c-0.03297,0.33837 -0.20147,0.66297 -0.32476,0.98295c-0.525,1.3625 -0.59105,1.53611 -1.72699,2.42743c-1.98788,1.55979 -4.70781,1.20877 -6.53111,-0.24703c0,0 -0.16436,-0.13913 -0.26377,-0.36157z" fill="#ffaaaa" stroke="#ae7575" stroke-width="1"/><path d="M221.26983,190.29168c-0.03711,0.8956 -0.93271,0.85848 -0.93271,0.85848l-0.98207,-0.0407c-0.68405,-0.02936 -1.37895,-0.02565 -2.07992,0.00008c-0.34902,1.55242 -0.67223,3.12383 -1.04649,4.68281c0,0 -0.21204,0.87093 -1.08296,0.65889c-0.87093,-0.21204 -0.65889,-1.08296 -0.65889,-1.08296c0.34191,-1.38742 0.64487,-2.77599 0.95718,-4.14955c-1.8,0.14137 -3.61276,0.3634 -5.36017,0.48479c0,0 -0.89422,0.06201 -0.95623,-0.8322c-0.06201,-0.89422 0.8322,-0.95623 0.8322,-0.95623c1.9279,-0.13348 3.92968,-0.37998 5.91033,-0.51723c0.04622,-0.18997 0.09304,-0.3795 0.1406,-0.56855c-0.87086,-0.24352 -1.60494,-0.81289 -2.17285,-1.82602c-0.48888,-0.87213 -0.6647,-1.77768 -0.84939,-2.72333c-0.94657,0.19327 -1.83748,0.54979 -2.60649,1.2761c0,0 -0.65953,0.60704 -1.26656,-0.05249c-0.60704,-0.65953 0.05249,-1.26656 0.05249,-1.26656c1.99531,-1.80087 4.34067,-1.85144 6.88164,-2.06135c0.80893,-0.06682 1.6162,-0.18886 2.426,-0.27514c0.73011,-1.40502 1.62726,-2.73817 2.76687,-3.97422c-2.4176,0.07158 -4.90483,0.66672 -6.90731,1.5672c0,0 -0.81764,0.36733 -1.18497,-0.45032c-0.36733,-0.81764 0.45032,-1.18497 0.45032,-1.18497c2.48164,-1.11385 5.52938,-1.76438 8.44438,-1.71019c-0.06402,-0.72762 -0.1141,-1.46581 -0.16515,-2.22062c-0.09458,-1.39872 -0.45841,-2.10354 -0.07821,-3.50645c0,0 0.25322,-0.85985 1.11307,-0.60663c0.85985,0.25322 0.60663,1.11307 0.60663,1.11307c-0.36739,1.10858 0.0643,1.71192 0.14829,2.89737c0.04696,0.66287 0.08975,1.31225 0.14163,1.9527c1.29202,-0.73943 2.70811,-1.12073 4.26064,-1.44548l1.07608,0.52651c0,0 0.60704,0.65953 -0.05249,1.26656c-0.4736,0.43591 -0.92014,0.21871 -1.13427,0.0616c-0.65145,0.14091 -1.27695,0.2986 -1.87443,0.50907l0.13754,-0.0077c0,0 0.8956,0.03711 0.85848,0.93271c-0.03711,0.8956 -0.93271,0.85848 -0.93271,0.85848l-0.70714,-0.05609c-0.44245,-0.13388 -0.90245,-0.23943 -1.375,-0.3186c0.16903,1.12262 0.41979,2.23462 0.82896,3.36246c0.09821,-0.133 0.19563,-0.26267 0.29246,-0.38816l-0.01553,-0.26999c0,0 0.21204,-0.87093 1.08296,-0.65889c0.87093,0.21204 0.65889,1.08296 0.65889,1.08296l-0.31192,0.94743c-0.10292,0.13069 -0.20488,0.26119 -0.30612,0.39134c0.04961,0.11509 0.07747,0.25646 0.07027,0.43011c-0.03711,0.8956 -0.93271,0.85848 -0.93271,0.85848l-0.0272,-0.02791c-0.03506,0.00702 -0.06994,0.01377 -0.10465,0.02027c-1.82376,2.32381 -3.64961,4.33634 -6.86585,4.97857c-0.21948,0.04383 -0.4343,0.07818 -0.64419,0.10205c-0.0319,0.12485 -0.06339,0.24993 -0.09451,0.37521c0.58217,-0.0144 1.15988,-0.01307 1.73063,0.00982l0.98207,0.0407c0,0 0.8956,0.03711 0.85848,0.93271zM215.81244,186.80111c0.19396,0.18568 0.41056,0.30308 0.64107,0.37111c0.3289,-1.15231 0.70113,-2.28118 1.14825,-3.37604c-0.47073,0.06392 -0.93993,0.12726 -1.40707,0.16632c-0.47617,0.03981 -0.95617,0.06531 -1.43261,0.09954c0.16679,0.96696 0.36467,2.08267 1.05035,2.73908zM219.06717,186.87066c1.63038,-0.32218 2.9053,-1.54602 4.00078,-2.9184c-0.6147,-0.05301 -1.2327,-0.1593 -1.91587,-0.2762c-0.51091,-0.08742 -1.02167,-0.10695 -1.53159,-0.08808c-0.51967,1.11361 -0.9412,2.27265 -1.30328,3.46133c0.26288,-0.06518 0.51646,-0.1325 0.74997,-0.17864zM221.44461,181.90735c0.6567,0.10764 1.22872,0.22239 1.80544,0.27298c-0.35727,-0.98163 -0.60956,-1.95115 -0.79521,-2.92412c-0.73164,0.80792 -1.35505,1.66386 -1.89352,2.55832c0.29358,0.01488 0.58794,0.04442 0.88329,0.09282z" fill="#c78686" stroke="none" stroke-width="0.5"/></g></g></g></g></svg>