<svg version="1.1" xmlns="http://www.w3.org/2000/svg" xmlns:xlink="http://www.w3.org/1999/xlink" width="98.29518" height="69.25563" viewBox="0,0,98.29518,69.25563"><g transform="translate(-208.21696,-147.59594)"><g data-paper-data="{&quot;isPaintingLayer&quot;:true}" fill-rule="nonzero" stroke-linecap="butt" stroke-linejoin="miter" stroke-miterlimit="10" stroke-dasharray="" stroke-dashoffset="0" style="mix-blend-mode: normal"><g data-paper-data="{&quot;index&quot;:null}"><path d="M296.51661,214.4992c-6.27958,2.25318 -14.27757,0.94218 -17.86399,-2.92819c-3.58643,-3.87037 -1.40319,-8.8345 4.8764,-11.08768c6.27958,-2.25318 14.27757,-0.94218 17.86399,2.9282c3.58643,3.87037 1.40319,8.8345 -4.8764,11.08767z" fill="#32c302" stroke="#000000" stroke-width="2.5"/><path d="M263.74316,212.91189c-7.18894,2.57946 -16.29311,1.13475 -20.33474,-3.22687c-4.04163,-4.36162 -1.49022,-9.98848 5.69871,-12.56794c7.18894,-2.57946 16.2931,-1.13475 20.33473,3.22687c4.04163,4.36162 1.49023,9.98847 -5.69871,12.56794z" fill="#32c302" stroke="#000000" stroke-width="3"/><path d="M277.42716,213.94437c-6.10017,2.18881 -13.9527,0.82562 -17.53913,-3.04476c-3.58643,-3.87037 -1.54863,-8.78231 4.55154,-10.97112c6.10017,-2.18881 13.9527,-0.82561 17.53913,3.04476c3.58643,3.87037 1.54863,8.78231 -4.55154,10.97111z" fill="#32c302" stroke="#000000" stroke-width="3"/><path d="M263.52659,212.9896c-7.18894,2.57946 -16.29311,1.13475 -20.33473,-3.22687c-4.04163,-4.36162 -1.49022,-9.98847 5.69871,-12.56794c7.18894,-2.57946 16.29311,-1.13476 20.33473,3.22686c4.04163,4.36162 1.49023,9.98848 -5.69871,12.56795z" fill="#8c3801" stroke="none" stroke-width="0"/><path d="M277.21058,214.02208c-6.10017,2.18881 -13.9527,0.82562 -17.53913,-3.04476c-3.58643,-3.87037 -1.54863,-8.78231 4.55154,-10.97112c6.10017,-2.18881 13.9527,-0.82562 17.53913,3.04475c3.58643,3.87037 1.54863,8.78232 -4.55154,10.97112z" fill="#8c3801" stroke="none" stroke-width="0"/><path d="M296.51661,214.4992c-6.27958,2.25318 -14.27757,0.94218 -17.86399,-2.92819c-3.58643,-3.87037 -1.40319,-8.8345 4.8764,-11.08768c6.27958,-2.25318 14.27757,-0.94218 17.86399,2.9282c3.58643,3.87037 1.40319,8.8345 -4.8764,11.08767z" fill="#32c302" stroke="none" stroke-width="0"/></g><g data-paper-data="{&quot;index&quot;:null}"><path d="M301.23153,192.34692c-4.84942,0.84886 -12.16068,-2.58891 -16.33016,-7.67847c-4.16949,-5.08956 -3.61829,-9.90361 1.23111,-10.75248c4.84942,-0.84886 12.16068,2.58891 16.33016,7.67847c4.16949,5.08956 3.6183,9.9036 -1.23111,10.75247z" fill="#32c302" stroke="#000000" stroke-width="2.5"/><path d="M273.06215,177.03333c-5.46492,0.9566 -13.76461,-2.99131 -18.53788,-8.81789c-4.77328,-5.82658 -4.21259,-11.32545 1.25233,-12.28205c5.46492,-0.9566 13.76461,2.9913 18.53789,8.81789c4.77328,5.82658 4.21259,11.32545 -1.25233,12.28205z" fill="#32c302" stroke="#000000" stroke-width="3"/><path d="M284.79739,182.00379c-4.84942,0.84886 -12.0641,-2.47102 -16.11446,-7.41517c-4.05036,-4.94415 -3.40259,-9.64032 1.44682,-10.48918c4.84942,-0.84886 12.0641,2.47102 16.11446,7.41517c4.05036,4.94415 3.4026,9.64032 -1.44681,10.48918z" fill="#32c302" stroke="#000000" stroke-width="3"/><path d="M272.91835,176.85779c-5.46492,0.9566 -13.76461,-2.9913 -18.53788,-8.81788c-4.77328,-5.82658 -4.21259,-11.32545 1.25233,-12.28205c5.46492,-0.9566 13.76461,2.9913 18.53789,8.81788c4.77328,5.82658 4.21259,11.32545 -1.25233,12.28205z" fill="#8c3801" stroke="none" stroke-width="0"/><path d="M284.65359,181.82826c-4.84942,0.84886 -12.0641,-2.47102 -16.11446,-7.41517c-4.05036,-4.94415 -3.4026,-9.64031 1.44681,-10.48917c4.84942,-0.84886 12.0641,2.47102 16.11446,7.41517c4.05036,4.94415 3.4026,9.64032 -1.44681,10.48918z" fill="#8c3801" stroke="none" stroke-width="0"/><path d="M301.23153,192.34692c-4.84942,0.84886 -12.16068,-2.58891 -16.33016,-7.67847c-4.16949,-5.08956 -3.61829,-9.90361 1.23111,-10.75248c4.84942,-0.84886 12.16068,2.58891 16.33016,7.67847c4.16949,5.08956 3.6183,9.9036 -1.23111,10.75247z" fill="#32c302" stroke="none" stroke-width="0"/></g><g><g fill="none" stroke="none" stroke-width="1" font-family="sans-serif" font-weight="normal" font-size="12" text-anchor="start"/><g fill="none" stroke="none" stroke-width="1" font-family="sans-serif" font-weight="normal" font-size="12" text-anchor="start"/><path d="M268.51482,164.79402c9.26728,15.37183 4.63009,35.15797 -10.35744,44.19357c-14.98755,9.0356 -34.64995,3.89906 -43.91723,-11.47277c-9.26728,-15.37183 -4.6301,-35.15796 10.35744,-44.19356c14.98754,-9.0356 34.64995,-3.89907 43.91723,11.47276z" fill="#32c302" stroke="#1a6521" stroke-width="2.5"/></g><path d="M232.32566,186.55713c0,-3.57806 2.90059,-6.47865 6.47865,-6.47865c3.57806,0 6.47865,2.90059 6.47865,6.47865c0,3.57806 -2.90059,6.47865 -6.47865,6.47865c-3.57806,0 -6.47865,-2.90059 -6.47865,-6.47865z" fill="#f2eda6" stroke="#000000" stroke-width="1.5"/><path d="M238.17994,168.8687c0,-3.57806 2.90059,-6.47865 6.47865,-6.47865c3.57806,0 6.47865,2.90059 6.47865,6.47865c0,3.57806 -2.90059,6.47865 -6.47865,6.47865c-3.57806,0 -6.47865,-2.90059 -6.47865,-6.47865z" fill="#f2eda6" stroke="#000000" stroke-width="1.5"/><path d="M246.73762,170.01696c0,-0.69036 0.55964,-1.25 1.25,-1.25c0.69036,0 1.25,0.55964 1.25,1.25c0,0.69036 -0.55964,1.25 -1.25,1.25c-0.69036,0 -1.25,-0.55964 -1.25,-1.25z" fill="#ff0303" stroke="none" stroke-width="0.5"/><path d="M241.40686,187.94769c0,-0.69036 0.55964,-1.25 1.25,-1.25c0.69036,0 1.25,0.55964 1.25,1.25c0,0.69036 -0.55964,1.25 -1.25,1.25c-0.69036,0 -1.25,-0.55964 -1.25,-1.25z" fill="#696d6c" stroke="none" stroke-width="0.5"/><g><path d="M253.2008,149.60047c3.04806,-1.68403 3.91887,-0.87757 6.89518,-0.25742c3.78874,0.78941 6.28877,2.67513 8.30337,5.12962c-0.48066,0.30578 -1.66417,-0.03285 -2.32777,0.17058c-0.64904,0.19897 -0.96565,0.9599 -1.3805,1.49725c-0.70255,0.91002 -0.13493,6.80564 0.21432,7.41682c0.58333,1.02083 1.78172,1.72702 2.93484,1.95656c3.11027,0.61912 4.42494,-2.17043 4.83059,-4.40255c0.3655,0.63185 0.73757,1.27029 1.12354,1.91051c2.47109,4.09885 7.16956,9.42749 7.48742,14.36631c0.20178,3.13518 -1.04219,6.55614 -2.58582,9.6122c-2.00066,-0.58839 -3.9977,-0.98384 -6.01181,-1.66203l-3.74388,1.40896c0,0 -2.03433,1.4531 -0.58124,3.48743c1.4531,2.03433 3.48743,0.58124 3.48743,0.58124l-0.74345,-0.73421c1.69425,0.55979 3.37942,0.91839 5.05584,1.3742c-2.58534,4.16506 -6.23708,9.23284 -10.14977,11.99314c-2.35465,1.66114 -3.78431,1.7371 -6.48336,2.35015c-2.58169,0.5864 -5.0721,1.10146 -7.5681,1.42741c-0.57967,-1.71865 -2.73617,-2.72239 -4.4961,-2.87087c-1.22969,-0.10375 -2.52555,0.88667 -3.44129,0.80674c-1.53213,-0.13373 -2.58846,-1.23585 -4.3229,-0.9798c-0.25623,0.03783 -0.50028,0.11995 -0.73286,0.23751c-0.06668,-0.14109 -0.11917,-0.29069 -0.15513,-0.45019c-0.15105,-0.66983 3.13699,-5.48106 3.88802,-6.50207c3.75716,-5.10773 10.31229,-9.88154 12.5785,-15.88674c0.9714,-2.57409 0.33029,-7.4318 0.1073,-9.85712c-0.23481,-2.55389 -0.34665,-6.58296 -1.45808,-9.03074c-0.71473,-1.57414 -1.71692,-3.12015 -2.71811,-4.63843c-0.52357,0.04296 -1.12874,-0.10546 -1.76511,-0.64859c-1.35832,-1.15931 -0.91825,-2.46078 -0.55595,-3.10978l1.74391,2.00188c0,0 2.23607,1.11803 3.3541,-1.11803c0.68657,-1.37315 0.10829,-2.32467 -0.44028,-2.85459c-0.2289,-0.92879 -0.49975,-1.70949 -0.84081,-2.3899c0.15636,-0.12467 0.32133,-0.23785 0.49797,-0.33544z" fill="#696d6c" stroke="#000000" stroke-width="2"/><path d="M252.06693,193.32584c-0.67424,-0.73852 0.06428,-1.41275 0.06428,-1.41275l0.98851,-0.89587c1.15474,-0.69617 1.83582,-1.35989 2.71616,-2.38516c2.19119,-4.1596 2.31232,-8.35827 2.45839,-12.93386c0.05764,-1.8055 0.82506,-3.55919 1.12542,-5.34119c0.31297,-1.85682 0.07367,-3.66978 0.31467,-5.52985c0,0 0.13183,-0.99127 1.1231,-0.85944c0.99127,0.13183 0.85944,1.12309 0.85944,1.12309c-0.2573,1.87945 -0.01172,3.72 -0.32671,5.60835c-0.27709,1.66113 -1.07154,3.38142 -1.09665,5.05237c-0.0747,4.97176 -0.41195,9.52282 -2.80384,14.00517c-1.0099,1.18896 -1.84226,2.0606 -3.17363,2.86325l-0.83642,0.77019c0,0 -0.73851,0.67423 -1.41275,-0.06428z" fill="#ff0303" stroke="none" stroke-width="0.5"/><path d="M273.09604,178.25682c-0.36283,2.3471 -0.9563,5.01832 -1.81972,7.61132l-2.33604,0.87914c0,0 -0.05131,0.03665 -0.13181,0.10646c1.12968,-2.90499 1.87011,-6.05456 2.29189,-8.72826c-0.05851,-2.37043 -0.78834,-4.15377 -1.16854,-6.43144c-0.37874,-2.26902 -0.50169,-4.17242 -1.19264,-6.09293c0.76809,-0.01023 1.4034,-0.25435 1.92518,-0.64615c1.61658,4.04882 2.34483,9.4031 2.43168,13.30186z" fill="#7f7f7f" stroke="none" stroke-width="0.5"/><path d="M267.20308,193.8471c-2.20515,2.72102 -6.18163,4.35582 -9.13035,6.13353c0,0 -0.85641,0.5163 -1.37271,-0.3401c-0.5163,-0.8564 0.3401,-1.37271 0.3401,-1.37271c2.72735,-1.64425 6.59773,-3.17979 8.63038,-5.70571c0.82477,-1.02492 1.55023,-2.2238 2.18393,-3.51964c0.04932,0.36667 0.20068,0.76674 0.50461,1.19224c0.23601,0.33041 0.48735,0.56882 0.74281,0.73641c-0.57019,1.04475 -1.20188,2.01605 -1.89878,2.87598z" fill="#7f7f7f" stroke="none" stroke-width="0.5"/><path d="M276.57765,174.36034c-0.7214,-2.37582 -2.54296,-4.63026 -3.82172,-6.75137c0,0 -0.5163,-0.85641 0.3401,-1.37271c0.8564,-0.5163 1.37271,0.3401 1.37271,0.3401c1.37439,2.27973 3.23136,4.64354 4.02014,7.19469c1.16338,3.76279 -0.2803,8.90023 -2.23545,12.57465c-0.66121,-0.16856 -1.32294,-0.33718 -1.98594,-0.52305c1.84467,-3.2293 3.35049,-8.03613 2.31016,-11.46232z" fill="#ff0303" stroke="none" stroke-width="0.5"/><path d="M269.03137,195.12195c-0.76063,-0.64918 -0.11143,-1.40982 -0.11143,-1.40982l0.58383,-0.67215c0.67716,-0.61821 1.20203,-1.24198 1.64974,-1.88102c0.41885,-0.14723 0.69296,-0.34302 0.69296,-0.34302l-0.28232,-0.27881c0.0537,-0.086 0.10648,-0.17231 0.1585,-0.25898c0.65431,0.19921 1.30726,0.37377 1.95888,0.54094c-0.73235,1.28952 -1.52398,2.50622 -2.8293,3.69791l-0.41104,0.49349c0,0 -0.64918,0.76063 -1.40981,0.11144z" fill="#ff0303" stroke="none" stroke-width="0.5"/></g><path d="M219.38609,184.63802c-0.57213,0 -1.17542,0 -1.78611,0c0,0.16674 0,0.33348 0,0.50021v1.07158c0,0 0,1 -1,1c-1,0 -1,-1 -1,-1c0,-0.48482 0,-1.01497 0,-1.5718c-0.31597,0 -0.62675,0 -0.92885,0c0,0 -1,0 -1,-1c0,-1 1,-1 1,-1c0.30962,0 0.61923,0 0.92885,0c0,-0.40445 0,-0.81133 0,-1.21474c-0.45249,0 -0.90499,0 -1.35748,0c0,0 -1,0 -1,-1c0,-1 1,-1 1,-1c0.45249,0 0.90499,0 1.35748,0c0,-0.47866 0,-0.93526 0,-1.35748c0,0 0,-1 1,-1c1,0 1,1 1,1c0,0.45249 0,0.90499 0,1.35748c0.53474,0 1.06948,0 1.60422,0c0.0182,-0.7459 0.03915,-1.48708 0.03915,-2.21474c0,0 0,-1 1,-1c1,0 1,1 1,1c0,0.72214 -0.02622,1.46498 -0.04925,2.21474c0.61179,0 1.22358,0 1.83536,0l0.87585,0.31989c0,0 0.89443,0.44721 0.44721,1.34164c-0.44721,0.89443 -1.34164,0.44721 -1.34164,0.44721l0.01858,-0.10874c-0.62288,0 -1.24575,0 -1.86863,0c0.008,1.0531 0.07347,2.09583 0.27741,3.09021l0.01942,0.41043c0,0 0,1 -1,1c-1,0 -1,-1 -1,-1l0.01942,-0.0182c-0.01754,-0.08958 -0.03411,-0.17943 -0.04977,-0.26953c-0.02627,0.00183 -0.04123,0.00183 -0.04123,0.00183zM219.17177,182.63802h0.04111c-0.02094,-0.40305 -0.03101,-0.80843 -0.03402,-1.21474c-0.5263,0 -1.05259,0 -1.57889,0c0,0.40491 0,0.80983 0,1.21474c0.52393,0 1.04786,0 1.5718,0z" fill="#000000" stroke="none" stroke-width="0.5"/><path d="M232.6737,172.6363c-1,0 -1,-1 -1,-1l0.01942,-0.41043c0.10608,-0.51724 0.15641,-1.01968 0.17956,-1.52248c-0.54432,0.10849 -1.08256,0.21224 -1.62804,0.30102c0,0.32965 0,0.6593 0,0.98894v0.64295c0,0 0,1 -1,1c-1,0 -1,-1 -1,-1c0,-0.44033 0,-0.90971 0,-1.39579c-0.37052,0.02466 -0.75043,0.03831 -1.14316,0.03831c0,0 -1,0 -1,-1c0,-1 1,-1 1,-1c0.39516,0 0.77473,-0.01416 1.14316,-0.03969c0,-0.32472 0,-0.64955 0,-0.97128c-0.7755,0.23997 -1.56437,0.43011 -2.42906,0.43917c0,0 -1,0 -1,-1c0,-1 1,-1 1,-1c0.84598,0.01199 1.64045,-0.20718 2.42906,-0.47477c0,-0.15433 0,-0.30585 0,-0.45407c0,0 0,-1 1,-1c0.70714,0 0.91423,0.50004 0.97488,0.79293c0.17944,-0.04924 0.36046,-0.09342 0.54353,-0.13056l0.41043,-0.01942c0,0 0.45638,0 0.75252,0.30832c0.07502,-0.29628 0.29818,-0.73695 0.96201,-0.73695c1,0 1,1 1,1c0,0.80066 0.00373,1.54379 -0.05538,2.29669c0.12887,-0.02322 0.25921,-0.04604 0.39119,-0.06834l0.57445,-0.33667c0,0 0.89443,-0.44721 1.34164,0.44721c0.44721,0.89443 -0.44721,1.34164 -0.44721,1.34164l-1.14008,0.5206c-0.22808,0.03743 -0.4522,0.07652 -0.6731,0.11671c-0.01801,0.76625 -0.07123,1.52094 -0.22525,2.30775l0.01942,0.0182c0,0 0,1 -1,1zM231.17349,166.42113l-0.0182,-0.01942c-0.31123,0.06121 -0.61371,0.13781 -0.91065,0.22305c0,0.45552 0,0.91103 0,1.36655c0.51437,-0.088 1.02256,-0.18978 1.53966,-0.29585c0.07318,-0.52261 0.09639,-1.02779 0.10297,-1.54482c-0.29552,0.2705 -0.71377,0.2705 -0.71377,0.2705z" fill="#000000" stroke="none" stroke-width="0.5"/><path d="M226.90574,199.53459c-0.89443,0.44721 -1.34164,-0.44721 -1.34164,-0.44721l-0.17738,-0.36135c-0.43787,-0.75043 -0.75215,-1.58496 -0.93328,-2.43723c-0.29621,-0.17359 -0.49513,-0.49525 -0.49513,-0.86338c0,-0.55228 0.44772,-1 1,-1c0.37242,0 0.69729,0.20358 0.8694,0.50554c0.45439,0.21124 0.54563,0.7587 0.54563,0.7587c0.10598,0.70388 0.35211,1.40314 0.72836,2.00738l0.25125,0.49591c0,0 0.44721,0.89443 -0.44721,1.34164z" fill="#000000" stroke="none" stroke-width="0.5"/><path d="M293.79102,209.58887c-0.44721,0.89443 -1.34164,0.44721 -1.34164,0.44721l-0.41005,-0.32306c-0.1172,0 -0.2344,0 -0.35159,0c-0.09712,0.28714 -0.33781,0.64295 -0.9343,0.64295c-0.5965,0 -0.83719,-0.35581 -0.9343,-0.64295c-0.7242,0 -1.44839,0 -2.17259,0c0.0953,0.2673 0.10484,0.63015 -0.25801,0.993c-0.70711,0.70711 -1.41421,0 -1.41421,0l-0.50721,-0.92142c0,-0.02386 0,-0.04772 0,-0.07158c-0.73825,0 -1.4765,0 -2.21474,0c0,0 -1,0 -1,-1c0,-1 1,-1 1,-1c0.73825,0 1.4765,0 2.21474,0c0,-0.33348 0,-0.66695 0,-1.00043c-0.68278,0 -1.35317,0 -2.00043,0c0,0 -1,0 -1,-1c0,-1 1,-1 1,-1c0.66681,0 1.33362,0 2.00043,0c0,-0.23818 0,-0.47635 0,-0.71453c0,0 0,-1 1,-1c1,0 1,1 1,1c0,0.23818 0,0.47635 0,0.71453c0.76211,0 1.52422,0 2.28633,0c0,-0.47019 0,-0.93412 0,-1.14316c0,0 0,-1 1,-1c1,0 1,1 1,1c0,0.38105 0,0.76211 0,1.14316c0.02386,0 0.04772,0 0.07158,0h0.42863c0,0 1,0 1,1c0,1 -1,1 -1,1c-0.16529,0 -0.33209,0 -0.50021,0c0,0.33444 0,0.67444 0,1.00043c0.0953,0 0.1906,0 0.2859,0l1.30448,0.53421c0,0 0.89443,0.44721 0.44721,1.34164zM289.75343,206.7126c-0.75508,0 -1.52192,0 -2.28633,0c0,0.33348 0,0.66695 0,1.00043c0.76211,0 1.52422,0 2.28633,0c0,-0.33608 0,-0.67287 0,-1.00043z" fill="#000000" stroke="none" stroke-width="0.5"/></g></g></svg>