<svg version="1.1" xmlns="http://www.w3.org/2000/svg" xmlns:xlink="http://www.w3.org/1999/xlink" width="100.5468" height="104.53198" viewBox="0,0,100.5468,104.53198"><defs><linearGradient x1="314.59978" y1="131.50328" x2="324.55947" y2="217.71955" gradientUnits="userSpaceOnUse" id="color-1"><stop offset="0" stop-color="#b1cf16"/><stop offset="1" stop-color="#e9f366"/></linearGradient><radialGradient cx="307.91472" cy="156.73672" r="4.34806" gradientUnits="userSpaceOnUse" id="color-2"><stop offset="0" stop-color="#020702"/><stop offset="1" stop-color="#050a02"/></radialGradient><radialGradient cx="344.0133" cy="159.4018" r="3.41025" gradientUnits="userSpaceOnUse" id="color-3"><stop offset="0" stop-color="#020702"/><stop offset="1" stop-color="#050a02"/></radialGradient></defs><g transform="translate(-271.68377,-114.10711)"><g data-paper-data="{&quot;isPaintingLayer&quot;:true}" fill-rule="nonzero" stroke-linejoin="miter" stroke-miterlimit="10" stroke-dasharray="" stroke-dashoffset="0" style="mix-blend-mode: normal"><g stroke="#004700" stroke-width="1" stroke-linecap="butt"><path d="M310.18471,145.7524c0,0 1.84857,-10.69967 3.11124,-15.22812c1.13057,-4.05474 6.03471,-12.76294 6.03471,-12.76294c0,0 9.78554,4.59168 11.31767,4.91983c0.3218,0.06894 3.19996,1.47352 3.19996,1.47352c0,0 -4.59755,5.75879 -5.69195,9.68372c-1.28329,4.60239 -4.14754,14.87479 -4.14754,14.87479z" fill="#399435"/><path d="M335.22907,123.9478c-0.44911,1.61063 -2.92363,0.74751 -6.67769,-0.188c-0.63223,-0.15756 -0.78609,-2.16285 -1.48731,-2.31306c-0.90958,-0.19481 -2.27764,1.33271 -3.0607,0.93182c-3.4054,-1.74347 -5.4801,-5.05151 -5.05348,-6.58156c0.52471,-1.88189 4.87223,-1.21331 9.73729,-0.17133c4.86508,1.04199 7.06663,6.44024 6.54192,8.32214z" fill="#91e665"/></g><path d="M275.95018,202.21785c-3.92283,-7.1427 -3.4999,-14.03823 -2.8282,-21.5346c0.73176,-8.16631 1.66621,-15.2768 6.25969,-22.62615c2.60547,-3.38035 5.29441,-6.88405 7.5328,-10.42086c3.51899,-5.56024 5.59355,-12.11496 13.73713,-14.81874c4.71966,-1.56699 11.31871,-2.04525 15.8672,0.43377c1.30001,0.70853 3.01147,1.10246 4.21321,1.8669c2.48174,-1.32354 2.92033,-1.82112 6.97456,-0.03114c0.98007,0.43272 1.86375,1.06672 2.47194,1.7915c0.63706,-0.48886 1.54712,-0.79199 2.34728,-1.13997c2.84487,-1.23716 3.64821,-1.44718 7.02995,-1.22153c8.02618,0.53554 10.4215,6.41351 12.6314,11.3306c1.38698,3.27512 3.46287,6.52601 4.53702,9.83844c0.25727,0.79336 0.57087,3.31897 1.14928,4.28851c1.77045,2.96774 4.16963,5.59261 5.48981,8.74109c2.60793,6.21969 3.71406,12.92944 5.23465,19.2741c1.13598,4.7399 3.02438,9.644 2.56085,14.36326c-0.03044,0.49009 -0.35057,5.86285 -0.427,6.13634c-0.39103,1.39941 -1.94679,2.4452 -2.37946,3.83533c-0.2538,0.81551 0.37123,1.8381 -0.20168,2.54054c-2.44011,2.99168 -9.67884,3.22428 -14.04624,2.28117c-2.84393,-0.61413 -4.20071,-1.53933 -6.23686,-3.08607c-0.76389,-0.58028 -1.55739,-1.16071 -2.13801,-1.84527c-0.20575,-0.24261 0.23611,-0.84331 -0.13177,-0.83098c-0.45757,0.01533 -0.28511,0.69803 -0.67455,0.85799c-1.97878,0.81292 -4.22127,1.28757 -6.45685,1.67379c-6.10899,1.05542 -11.14203,-0.0439 -16.30382,-2.92356c-0.63564,-0.74045 -1.31412,-1.46303 -1.90692,-2.22134c-0.19459,-0.24893 -0.07869,-0.80635 -0.44799,-0.79107c-0.4973,0.02057 -0.4653,0.6797 -0.89477,0.84664c-3.34158,1.29898 -7.48943,2.03104 -11.3327,2.29353c-10.28318,0.70232 -26.22731,1.71582 -32.7096,-6.21964c0,0 -1.35525,-1.73009 0.85484,-2.60186c0.07595,-0.02995 0.15092,-0.05685 0.22484,-0.08083z" fill="url(#color-1)" stroke="#334a0d" stroke-width="2" stroke-linecap="butt"/><path d="M339.04322,156.46927c2.29169,-0.00532 3.37415,-3.68154 5.16162,-2.72868c2.4728,1.31819 4.203,3.37842 4.47083,5.69694c0.46143,3.99444 -3.59237,7.24292 -9.05447,7.25562c-5.4621,0.01272 -9.57674,-1.54718 -10.03819,-5.54165c-0.46143,-3.99444 2.38737,-4.8286 7.84946,-4.84132z" data-paper-data="{&quot;index&quot;:null}" fill="#f6f9df" stroke="#354c0d" stroke-width="1.5" stroke-linecap="butt"/><path d="M321.23716,158.71087c0.46143,3.99444 -3.29071,5.57269 -8.7528,5.58541c-5.4621,0.01272 -10.26404,-3.21511 -10.72547,-7.20955c-0.26782,-2.31852 0.98553,-4.38572 3.15255,-5.7147c1.56641,-0.96066 4.79924,3.95583 7.09092,3.95048c5.4621,-0.01272 8.77333,-0.60607 9.23476,3.38838z" fill="#f6f9df" stroke="#354c0d" stroke-width="1.5" stroke-linecap="butt"/><path d="M347.13876,157.41778c-1.03315,0.00241 -1.12266,-0.77251 -1.12266,-0.77251l0.0302,-0.00585c-0.75122,-1.96363 -2.46927,-0.96226 -4.53295,-0.95258c-2.13906,-0.05058 -4.20012,1.70553 -6.62441,1.94744c-6.3395,0.6326 -11.97044,-0.23764 -17.94928,-2.37343c-1.89144,-0.80495 -4.17895,-0.22581 -6.6865,-0.85783c-4.31239,-1.08694 -8.92505,-2.72217 -10.76329,0.75943c0,0 -0.38194,0.6942 -1.34608,0.34977c-0.96412,-0.3444 -0.58214,-1.03859 -0.58214,-1.03859c3.6235,-6.38937 13.75501,-3.3231 20.21539,-0.57369c5.59718,1.99945 10.74911,2.75528 16.68174,2.1967c2.70652,-0.25483 4.27254,-1.91102 6.87551,-1.95963c3.11344,0.00142 5.26411,-0.75881 6.67319,2.12185l0.07494,0.38161c0,0 0.08952,0.77492 -0.94363,0.77732z" fill="#334a0d" stroke="none" stroke-width="0.5" stroke-linecap="butt"/><path d="M310.41147,156.73091c0.21013,1.81891 -0.7374,3.29602 -2.11634,3.29921c-1.37893,0.00321 -2.66711,-1.46871 -2.87722,-3.28759c-0.21013,-1.81891 0.73739,-3.29601 2.11631,-3.29922c1.37893,-0.00321 2.66712,1.4687 2.87723,3.28759z" fill="url(#color-2)" stroke="none" stroke-width="0" stroke-linecap="butt"/><path d="M346.59617,159.39579c0.1648,1.42659 -0.85801,2.58575 -2.28448,2.58909c-1.42647,0.0033 -2.71648,-1.15047 -2.88129,-2.57704c-0.1648,-1.42659 0.858,-2.58576 2.28448,-2.58909c1.42647,-0.0033 2.71648,1.15047 2.88129,2.57704z" fill="url(#color-3)" stroke="none" stroke-width="0" stroke-linecap="butt"/><path d="M298.30125,190.68229c-0.66726,0.54966 -1.4611,0.0034 -1.4611,0.0034l-0.76811,-0.60531c-3.07374,0.29458 -6.83105,1.14395 -8.08336,-2.06948c-0.05065,-0.12998 -0.29089,-2.27889 -0.31677,-2.50274c0,0 -0.08953,-0.77492 0.94364,-0.77731c1.03315,-0.00241 1.12266,0.77251 1.12266,0.77251c0.08268,0.7156 -0.04084,1.44446 0.22036,2.14678c0.83014,2.2321 4.49718,0.90959 6.7388,0.99652l1.47726,0.93971c0,0 0.79384,0.54626 0.1266,1.09589z" fill="#334a0d" stroke="none" stroke-width="0.5" stroke-linecap="butt"/><path d="M361.13159,200.14641c0.96412,0.3444 0.58214,1.03859 0.58214,1.03859l-0.77188,1.08964c-1.7353,0.13258 -3.38542,0.4931 -5.10796,0.51497c-0.00871,0.00018 -0.01747,0.0003 -0.02623,0.0003c-0.13057,0.00031 -0.25759,-0.01758 -0.37644,-0.05045c-0.30509,-0.07484 -0.69294,-0.26066 -0.74623,-0.72205c-0.05328,-0.4614 0.29141,-0.64892 0.57905,-0.72514c0.11118,-0.03342 0.23403,-0.05188 0.36461,-0.05219c0.00843,-0.00002 0.01685,0.00003 0.02526,0.00016c1.45742,0.00602 2.53242,-0.62679 4.04935,-0.28145l0.08227,-0.46261c0,0 0.38194,-0.6942 1.34608,-0.34977z" fill="#334a0d" stroke="none" stroke-width="0.5" stroke-linecap="butt"/><path d="M357.65327,193.24584c0.29028,2.24216 -12.84427,-2.68235 -20.13892,-4.10787c-6.84861,-1.33835 -13.61077,-3.11363 -13.84738,-3.11109c-3.75769,0.04031 -7.22431,0.50253 -10.08797,1.0364c-4.72668,0.8812 -18.55851,-0.34748 -18.92707,-3.19424c-0.59185,-4.57149 16.68728,-10.76057 26.64727,-10.86738c9.95998,-0.10683 35.76225,15.6727 36.35409,20.24419z" fill="#ffffff" stroke="#334a0d" stroke-width="1.5" stroke-linecap="butt"/><path d="M306.4432,176.68819l4.13462,9.12636" fill="none" stroke="#334a0d" stroke-width="1.5" stroke-linecap="round"/><path d="M329.24052,175.56188l0.41736,13.75159" fill="none" stroke="#334a0d" stroke-width="1.5" stroke-linecap="round"/><path d="M345.3967,182.7957l-0.24384,8.64425" fill="none" stroke="#334a0d" stroke-width="1.5" stroke-linecap="round"/><path d="M296.80753,184.72772l31.14261,-5.09573l29.18104,13.09036" fill="none" stroke="#334a0d" stroke-width="1.5" stroke-linecap="round"/></g></g></svg>