<svg version="1.1" xmlns="http://www.w3.org/2000/svg" xmlns:xlink="http://www.w3.org/1999/xlink" width="55.5873" height="48.88528" viewBox="0,0,55.5873,48.88528"><defs><radialGradient cx="259.25762" cy="186.11154" r="27.79365" gradientUnits="userSpaceOnUse" id="color-1"><stop offset="0" stop-color="#81fe6b" stop-opacity="0"/><stop offset="1" stop-color="#ffffff" stop-opacity="0.12834"/></radialGradient><radialGradient cx="259.42429" cy="186.52809" r="21.4333" gradientUnits="userSpaceOnUse" id="color-2"><stop offset="0" stop-color="#e8fcec" stop-opacity="0.6129"/><stop offset="1" stop-color="#81fe6b" stop-opacity="0.51613"/></radialGradient><radialGradient cx="259.36959" cy="185.76532" r="13.68368" gradientUnits="userSpaceOnUse" id="color-3"><stop offset="0" stop-color="#e8fcec"/><stop offset="1" stop-color="#81fe6b"/></radialGradient><radialGradient cx="259.44512" cy="186.04505" r="21.60615" gradientUnits="userSpaceOnUse" id="color-4"><stop offset="0" stop-color="#81fe6b" stop-opacity="0.06836"/><stop offset="1" stop-color="#ffffff" stop-opacity="0.57768"/></radialGradient></defs><g transform="translate(-231.46398,-161.6689)"><g data-paper-data="{&quot;isPaintingLayer&quot;:true}" fill-rule="nonzero" stroke-linecap="butt" stroke-linejoin="miter" stroke-miterlimit="10" stroke-dasharray="" stroke-dashoffset="0" style="mix-blend-mode: normal"><path d="M287.05128,186.11154c0,13.4993 -12.44364,24.44264 -27.79365,24.44264c-15.35001,0 -27.79365,-10.94334 -27.79365,-24.44264c0,-13.4993 12.44364,-24.44264 27.79365,-24.44264c15.35001,0 27.79365,10.94334 27.79365,24.44264z" fill="url(#color-1)" stroke="none" stroke-width="0"/><path d="M280.85759,186.52809c0,10.41009 -9.59601,18.84914 -21.4333,18.84914c-11.83729,0 -21.4333,-8.43905 -21.4333,-18.84914c0,-10.41009 9.59601,-18.84914 21.4333,-18.84914c11.83729,0 21.4333,8.43905 21.4333,18.84914z" fill="url(#color-2)" stroke="none" stroke-width="0"/><path d="M276.05083,186.07205c0,8.73255 -7.40991,15.81168 -16.55053,15.81168c-9.14061,0 -16.55055,-7.07913 -16.55055,-15.81168c0,-8.73255 7.40993,-15.81167 16.55055,-15.81167c9.14062,0 16.55053,7.07912 16.55053,15.81167zM259.36675,172.08449c-3.77123,0 -7.17796,1.56059 -9.60962,4.07121c-2.51062,2.43167 -4.0712,5.83841 -4.0712,9.60963c0,6.07713 4.05249,11.20777 9.60252,12.83695c1.45843,0.54558 3.03756,0.84388 4.68635,0.84388c7.38781,0 13.37681,-5.98901 13.37681,-13.37681c0,-3.84857 -1.62526,-7.31753 -4.22685,-9.75799c-2.44047,-2.6016 -5.90944,-4.22685 -9.75799,-4.22685z" fill="#ffffff" stroke="none" stroke-width="0"/><path d="M273.05327,185.76532c0,7.2199 -6.1264,13.07279 -13.68368,13.07279c-7.55728,0 -13.68368,-5.85289 -13.68368,-13.07279c0,-7.2199 6.12639,-13.07279 13.68368,-13.07279c7.55729,0 13.68368,5.85289 13.68368,13.07279z" fill="url(#color-3)" stroke="#f7f4f4" stroke-width="1"/><path d="M281.05128,186.04505c0,10.49405 -9.6734,19.00115 -21.60615,19.00115c-11.93275,0 -21.60615,-8.5071 -21.60615,-19.00115c0,-10.49405 9.6734,-19.00115 21.60615,-19.00115c11.93275,0 21.60615,8.5071 21.60615,19.00115z" fill="url(#color-4)" stroke="none" stroke-width="0"/></g></g></svg>