<svg version="1.1" xmlns="http://www.w3.org/2000/svg" xmlns:xlink="http://www.w3.org/1999/xlink" width="22.99167" height="17.96873" viewBox="0,0,22.99167,17.96873"><g transform="translate(-228.45811,-171.60347)"><g data-paper-data="{&quot;isPaintingLayer&quot;:true}" fill-rule="nonzero" stroke-linejoin="miter" stroke-miterlimit="10" stroke-dasharray="" stroke-dashoffset="0" style="mix-blend-mode: normal"><path d="M238.35638,172.34245l6.29712,-0.46931l-0.05041,2.93992l3.51005,0.46769l-1.22125,1.90789l3.07873,2.25328l-2.10291,1.43772l3.11756,3.15724l-4.33634,1.37905l-0.6346,3.73811l-4.49993,-2.94324l-2.68709,2.23592l-1.27908,-3.03743l-6.07732,-0.07025l1.57739,-2.87298l-2.85068,-2.08638l1.68562,-0.86759l-3.00354,-3.07379l4.60902,-2.23013l-1.86326,-2.23923z" fill="#fff900" stroke="#000000" stroke-width="0.5" stroke-linecap="round"/><path d="M243.7197,182.74676c-1.50859,2.06124 -4.44767,2.47618 -6.56461,0.92682c-2.11694,-1.54937 -2.61011,-4.47634 -1.10152,-6.53757c1.50859,-2.06124 4.44767,-2.47618 6.56461,-0.92682c2.11694,1.54937 2.61011,4.47634 1.10152,6.53757z" fill="#ff9800" stroke="none" stroke-width="0" stroke-linecap="butt"/></g></g></svg>