<svg version="1.1" xmlns="http://www.w3.org/2000/svg" xmlns:xlink="http://www.w3.org/1999/xlink" width="93.54294" height="69.64688" viewBox="0,0,93.54294,69.64688"><g transform="translate(-196.36877,-144.10312)"><g data-paper-data="{&quot;isPaintingLayer&quot;:true}" fill-rule="nonzero" stroke-linecap="butt" stroke-linejoin="miter" stroke-miterlimit="10" stroke-dasharray="" stroke-dashoffset="0" style="mix-blend-mode: normal"><g stroke-width="2.5"><path d="M243.03186,205.53607l0.51394,-12.48944l36.46914,1.50071l-0.51394,12.48942z" fill="#9c671d" stroke="#6b3b0d"/><path d="M278.7321,210.65752c-4.87185,-0.49233 -8.35306,-5.5244 -7.77553,-11.23945c0.57753,-5.71505 4.99514,-9.9489 9.86697,-9.45657c4.87185,0.49233 8.35308,5.5244 7.77553,11.23945c-0.57753,5.71505 -4.99513,9.94891 -9.86698,9.45657z" fill="#5be62d" stroke="#199e25"/></g><g stroke-width="2.5"><path d="M243.58869,164.03179l-0.53132,-12.4887l36.46701,-1.55147l0.53132,12.4887z" fill="#9c671d" stroke="#6b3b0d"/><path d="M279.592,166.15265c-4.89595,-0.08357 -8.78542,-4.80721 -8.68738,-10.55052c0.09803,-5.74332 4.14646,-10.33145 9.04239,-10.24788c4.89595,0.08357 8.78542,4.8072 8.68738,10.55052c-0.09803,5.74332 -4.14646,10.33145 -9.0424,10.24788z" fill="#5be62d" stroke="#199e25"/></g><path d="M271.6875,180c0,17.94925 -14.18698,32.5 -31.6875,32.5c-17.50053,0 -31.6875,-14.55075 -31.6875,-32.5c0,-17.94925 14.18697,-32.5 31.6875,-32.5c17.50052,0 31.6875,14.55075 31.6875,32.5z" fill="#32c302" stroke="#1a6521" stroke-width="2.5"/><path d="M199.625,158.75c1,0 1,1 1,1l-0.10557,-0.19721c0.48595,1.15024 2.30513,1.9708 3.54468,2.21526c3.58685,0.70737 8.15565,0.49074 11.81089,0.48196c0,0 1,0 1,1c0,1 -1,1 -1,1c-4.74625,-0.01022 -14.54341,0.965 -17.14443,-3.80279l-0.10557,-0.69721c0,0 0,-1 1,-1z" fill="#141514" stroke="none" stroke-width="0.5"/><path d="M197.875,169c1,0 1,1 1,1l-0.29289,-0.20711c1.72983,1.93375 7.75372,1.70523 10.09678,1.22653c0,0 0.98058,-0.19612 1.1767,0.78446c0.19612,0.98058 -0.78446,1.1767 -0.78446,1.1767c-3.26199,0.64038 -9.34913,0.62331 -11.90322,-1.77347l-0.29289,-1.20711c0,0 0,-1 1,-1z" fill="#141514" stroke="none" stroke-width="0.5"/><path d="M196.92779,178.60557c0.89443,-0.44721 1.34164,0.44721 1.34164,0.44721l0.2313,0.66717c5.39799,0.47632 10.65539,0.21117 16.00024,-0.46224c0,0 0.99228,-0.12403 1.11631,0.86824c0.12403,0.99228 -0.86824,1.11631 -0.86824,1.11631c-5.56644,0.69061 -12.05852,1.75576 -17.49976,0.03776l-0.7687,-1.33283c0,0 -0.44721,-0.89443 0.44721,-1.34164z" fill="#141514" stroke="none" stroke-width="0.5"/><path d="M260.375,164c0,5.10863 -3.74962,9.25 -8.375,9.25c-4.62538,0 -8.375,-4.14137 -8.375,-9.25c0,-5.10863 3.74962,-9.25 8.375,-9.25c4.62538,0 8.375,4.14137 8.375,9.25z" fill="#ffffa8" stroke="#040404" stroke-width="2.5"/><path d="M260.69216,186.625c0,4.21117 -3.26097,7.625 -7.28358,7.625c-4.02261,0 -7.28358,-3.41383 -7.28358,-7.625c0,-4.21117 3.26097,-7.625 7.28358,-7.625c4.02261,0 7.28358,3.41383 7.28358,7.625z" fill="#ffffa8" stroke="#040404" stroke-width="2.5"/><path d="M257.125,162c0,1.38071 -1.39911,2.5 -3.125,2.5c-1.72589,0 -3.125,-1.11929 -3.125,-2.5c0,-1.38071 1.39911,-2.5 3.125,-2.5c1.72589,0 3.125,1.11929 3.125,2.5z" fill="#0c0c0b" stroke="#040404" stroke-width="0"/><path d="M259.125,184.625c0,1.17361 -0.7835,2.125 -1.75,2.125c-0.9665,0 -1.75,-0.95139 -1.75,-2.125c0,-1.17361 0.7835,-2.125 1.75,-2.125c0.9665,0 1.75,0.95139 1.75,2.125z" fill="#0c0c0b" stroke="none" stroke-width="0"/><path d="M259.625,172.5c0,-0.69036 0.55964,-1.25 1.25,-1.25c0.69036,0 1.25,0.55964 1.25,1.25c0,0.69036 -0.55964,1.25 -1.25,1.25c-0.69036,0 -1.25,-0.55964 -1.25,-1.25z" fill="#0c0c0b" stroke="none" stroke-width="0.5"/><path d="M260.625,178.5c0,-0.69036 0.55964,-1.25 1.25,-1.25c0.69036,0 1.25,0.55964 1.25,1.25c0,0.69036 -0.55964,1.25 -1.25,1.25c-0.69036,0 -1.25,-0.55964 -1.25,-1.25z" fill="#0c0c0b" stroke="none" stroke-width="0.5"/></g></g></svg>