<svg version="1.1" xmlns="http://www.w3.org/2000/svg" xmlns:xlink="http://www.w3.org/1999/xlink" width="129.06181" height="118.12847" viewBox="0,0,129.06181,118.12847"><g transform="translate(-188.1333,-132.57892)"><g data-paper-data="{&quot;isPaintingLayer&quot;:true}" fill-rule="nonzero" stroke-linejoin="miter" stroke-miterlimit="10" stroke-dasharray="" stroke-dashoffset="0" style="mix-blend-mode: normal"><g stroke="none" stroke-width="0.5" stroke-linecap="butt"><path d="M198.16263,184.09242c-1.6377,-0.49597 -1.6377,-2.38166 -1.6377,-2.38166c0.00737,-1.21631 -0.14636,-2.44432 0.02212,-3.64893c0.1641,-1.17324 0.31065,-2.43352 0.96659,-3.42001c1.02277,-1.5382 2.08179,-3.69607 3.91513,-3.92183c4.37172,-0.53833 10.01402,9.02784 14.52728,5.00123c5.96799,-5.32447 11.21652,-11.54037 17.16446,-16.94758c0.79662,-0.7242 5.11815,-4.82322 6.05392,-4.88798c4.01029,-0.27757 5.46185,2.50389 7.46874,4.94964c0.52263,1.1178 1.11632,2.20506 1.5679,3.35341c0.20497,0.52123 -0.08249,1.33797 0.39322,1.6336c0.83252,0.51738 5.27691,-0.66553 5.49941,-0.6965c4.55135,-0.63355 9.05598,-0.51111 13.63252,-0.50053c2.92114,0.00675 5.98374,-0.44422 8.71526,0.98245c5.74221,2.99915 7.71436,10.2736 9.6765,15.85429c0.79006,2.24709 1.94028,4.38278 2.47194,6.70461c0.11039,0.4821 -0.47508,1.2821 -0.02339,1.48356c5.19509,2.31701 12.95393,-3.97978 15.02229,4.72271c0.37724,1.58722 -0.48825,3.22613 -0.73237,4.83919c-2.86072,9.93297 -10.21913,18.11907 -14.72702,27.40357c-1.57287,3.2395 -2.76284,9.41625 -6.75884,10.69689c-1.19495,0.38296 -2.40583,-0.77072 -3.65296,-0.90936c-4.07379,-0.45287 -8.30111,0.48454 -11.99898,2.16549c-0.29885,0.13585 -2.98139,1.43564 -3.30232,2.33881c-0.53158,1.49596 0.10757,5.58965 -0.89985,6.56623c-2.25219,2.18325 -5.49211,0.82776 -7.82038,0.22141c-6.10329,-2.25236 -12.07394,-5.15512 -17.46623,-8.84333c-1.27393,-0.87134 -2.52522,-1.78276 -3.69975,-2.78407c-0.26173,-0.22313 -0.23663,-0.93152 -0.57267,-0.85828c-0.34179,0.07449 -0.02374,0.73144 -0.20844,1.02852c-0.64199,1.03261 -1.54442,1.88275 -2.22709,2.88892c-3.06412,4.51609 -6.51814,12.75733 -13.68497,10.95318c-6.5621,-1.65191 -3.05693,-9.2344 -5.77734,-12.96293c-2.15543,-2.95419 -8.60467,-2.09961 -11.40527,-2.10021c-1.20354,0.11028 -6.72837,0.63574 -6.97309,0.53138c-3.43893,-1.46663 -3.2803,-4.55758 -3.45723,-7.43464c-0.3911,-6.35982 0.39432,-12.1752 1.70561,-18.35817c0.22995,-1.08426 0.17023,-2.24891 0.60014,-3.27051c0.88315,-2.09862 4.12662,-5.7377 5.41252,-7.30159c0.56145,-0.68283 2.274,-1.75037 1.50388,-2.18441c-2.08387,-1.17448 -5.37193,-0.14946 -5.86886,-4.08712c-0.4571,-3.62208 3.19506,-5.50574 6.5753,-6.81942z" fill-opacity="0.65323" fill="#f3efef"/><g fill-opacity="0.48866" fill="#f3efef"><path d="M232.55474,148.11767c-1.10686,-1.30495 -0.08408,-2.88917 -0.08408,-2.88917c0.66591,-1.01785 1.20281,-2.13293 1.99773,-3.05357c0.77421,-0.89667 1.5809,-1.87597 2.66703,-2.34897c1.69356,-0.73754 3.75368,-1.97603 5.41637,-1.1713c3.96478,1.91891 3.51644,13.01603 9.49215,12.08112c7.90181,-1.23625 15.68268,-3.61165 23.61252,-4.92829c1.06205,-0.17634 6.91596,-1.27608 7.73726,-0.82294c3.5197,1.94194 3.23057,5.06604 3.59006,8.20929c-0.16721,1.22257 -0.25816,2.45801 -0.50162,3.6677c-0.11051,0.54907 -0.795,1.07932 -0.55569,1.58571c0.4188,0.88622 4.79425,2.30301 4.99798,2.39767c4.16734,1.93634 7.88539,4.48248 11.72453,6.97364c2.45047,1.59007 5.26804,2.87233 6.78905,5.55245c3.19748,5.63418 0.90874,12.81532 -0.46972,18.56804c-0.55504,2.31636 -0.74709,4.73448 -1.55977,6.97348c-0.16874,0.4649 -1.09453,0.81945 -0.82432,1.23369c3.10781,4.76434 13.04154,3.68256 10.05908,12.11561c-0.54396,1.53808 -2.16001,2.44554 -3.24001,3.66831c-7.79091,6.79333 -18.41296,9.67957 -27.23598,15.03469c-3.07848,1.86848 -7.42841,6.41231 -11.48016,5.32082c-1.21162,-0.32639 -1.60317,-1.9524 -2.57573,-2.74531c-3.17687,-2.59005 -7.2368,-4.09536 -11.25521,-4.68884c-0.32476,-0.04796 -3.28342,-0.41096 -4.04292,0.17375c-1.25798,0.96848 -2.94141,4.75437 -4.31745,5.0284c-3.0763,0.61264 -5.06303,-2.28344 -6.6902,-4.05569c-3.90588,-5.20263 -7.34756,-10.87973 -9.87732,-16.90303c-0.59766,-1.423 -1.15455,-2.8674 -1.5982,-4.34568c-0.09886,-0.32942 0.30645,-0.91094 -0.0156,-1.03168c-0.32755,-0.1228 -0.41667,0.60162 -0.73297,0.75103c-1.09942,0.51931 -2.31869,0.74407 -3.43796,1.21911c-5.02373,2.13214 -12.39551,7.1824 -17.43801,1.77947c-4.61701,-4.94703 2.44043,-9.41611 2.17727,-14.02407c-0.20851,-3.65098 -6.09021,-6.43102 -8.44274,-7.95055c-1.07094,-0.56014 -5.99751,-3.1153 -6.14649,-3.33571c-2.09365,-3.0974 -0.28389,-5.60815 1.12796,-8.12121c3.12093,-5.55518 6.93499,-10.01484 11.39022,-14.49809c0.78128,-0.78619 1.3628,-1.79704 2.27809,-2.42213c1.88024,-1.2841 6.57895,-2.58216 8.50751,-3.19857c0.84205,-0.26914 2.85983,-0.23713 2.44825,-1.01949c-1.11369,-2.11698 -4.43203,-3.03924 -2.71377,-6.61691c1.58055,-3.29093 5.67051,-2.89256 9.22287,-2.1628z"/><path d="M281.28753,146.48144c0.64752,-1.58391 2.52488,-1.4069 2.52488,-1.4069c1.21025,0.12152 2.44727,0.08373 3.63074,0.36455c1.15265,0.2735 2.39361,0.53771 3.31417,1.28335c1.43539,1.16265 3.48434,2.41955 3.537,4.26599c0.12558,4.40295 -9.92799,9.12236 -6.34282,13.99367c4.74075,6.44145 10.43652,12.25029 15.26153,18.67953c0.64622,0.86108 4.32148,5.5483 4.29812,6.48602c-0.1001,4.01863 -3.00554,5.20271 -5.62887,6.97115c-1.16193,0.4154 -2.30011,0.9044 -3.48578,1.2462c-0.53817,0.15514 -1.32431,-0.20772 -1.6633,0.23814c-0.59325,0.78028 0.16725,5.31608 0.1772,5.54051c0.20352,4.59072 -0.34123,9.06397 -0.78136,13.61932c-0.28093,2.90761 -0.11944,5.99902 -1.79621,8.58455c-3.52492,5.43533 -10.95238,6.71591 -16.69261,8.14553c-2.31133,0.57564 -4.54556,1.52031 -6.90705,1.83167c-0.49033,0.06465 -1.23184,-0.59333 -1.47481,-0.16255c-2.79444,4.95466 2.74622,13.27031 -6.112,14.51264c-1.61562,0.22658 -3.16605,-0.78892 -4.74908,-1.18338c-9.62058,-3.78049 -17.07981,-11.87484 -25.90015,-17.23436c-3.07755,-1.87001 -9.11532,-3.63454 -10.01521,-7.73311c-0.2691,-1.22562 0.99315,-2.32286 1.24825,-3.55147c0.83327,-4.01329 0.29681,-8.30995 -1.0296,-12.14928c-0.1072,-0.31028 -1.14943,-3.10299 -2.01849,-3.50729c-1.43946,-0.66965 -5.57508,-0.41761 -6.45278,-1.51225c-1.9622,-2.44719 -0.30856,-5.54556 0.51367,-7.80663c2.81532,-5.86491 6.26573,-11.53672 10.44383,-16.55899c0.98708,-1.18651 2.01193,-2.34672 3.11907,-3.42207c0.24671,-0.23963 0.94962,-0.14814 0.90825,-0.48958c-0.04208,-0.34727 -0.72598,-0.0923 -1.00441,-0.30407c-0.96779,-0.73608 -1.72946,-1.71433 -2.66711,-2.48844c-4.20852,-3.47451 -12.08914,-7.68689 -9.62021,-14.65272c2.2606,-6.37805 9.48057,-2.1766 13.44801,-4.535c3.14348,-1.8686 2.89806,-8.36959 3.16155,-11.15776c0.00318,-1.20858 -0.00134,-6.75834 0.12553,-6.99218c1.78297,-3.28607 4.84538,-2.83801 7.72634,-2.74408c6.36845,0.20762 12.08443,1.53546 18.11701,3.42135c1.05788,0.33071 2.223,0.38059 3.19973,0.9045c2.00646,1.07625 5.325,4.64699 6.76128,6.07402c0.62711,0.62307 1.52918,2.42826 2.0336,1.70229c1.3649,-1.96442 0.65306,-5.33417 4.61999,-5.45928c3.64899,-0.11508 5.18151,3.69777 6.17209,7.1864z"/></g></g><g><g data-paper-data="{&quot;index&quot;:null}" stroke="#029f0f" stroke-width="1"><g><path d="M246.4665,173.84497c-0.06758,-0.04179 -0.12908,-0.08966 -0.18424,-0.14248l-0.02983,0.02905l-0.40857,-0.01417l-0.30491,0.09712l-0.21141,-0.11503l-0.18967,-0.00658l-0.01024,-0.01883l-0.15982,0.00546l-0.25776,-0.25117l-0.23811,-0.14724l-0.09503,-0.09762l-0.11588,-0.07165l-0.10968,-0.11266l-0.42811,-0.26473l-0.01242,0.00042l-0.02276,-0.02219l-0.02622,-0.01621l-0.17737,-0.18219l-0.1821,-0.17746l-0.01621,-0.02624l-0.02217,-0.02277l0.00043,-0.01243l-0.00438,-0.00707l-0.66228,-0.79395l-0.6288,-0.71912l-0.00602,-0.01176l-0.01068,-0.0078l-0.17333,-0.20779l-0.02888,-0.01786l-0.12409,-0.12747l-0.14369,-0.10489l-0.02915,-0.03494l-0.36926,-0.22834l-0.0761,0.04136l-0.54336,-0.17335l-0.24128,-0.14919l-0.01242,0.00042l-0.02277,-0.02219l-0.02623,-0.01621l-0.17737,-0.18219l-0.1821,-0.17747l-0.01621,-0.02623l-0.02217,-0.02277l0.00043,-0.01243l-0.04569,-0.07398l-0.02742,-0.08608l-0.04528,-0.0316l-0.03383,-0.21674l-0.06658,-0.20902l0.02639,-0.0485l-0.01394,-0.08927l0.00784,-0.0866l-0.00593,-0.01092l0.00966,-0.03029l0.00278,-0.03071l0.08363,-0.24013l0.07729,-0.24223l0.01622,-0.02622l0.00316,-0.00906l0.00896,-0.03789l0.0403,-0.07797l0.01256,-0.08687l0.16407,-0.40067l0.04779,-0.06504l0.047,-0.13495l0.03064,-0.09603l0.03753,-0.15884l0.08167,-0.15804l0.05407,-0.16947l0.04842,-0.0783l0.1711,-0.49125l0.08478,-0.26572l0.01339,-0.02166l-0.01035,-0.06633l-0.06658,-0.20901l0.02639,-0.0485l-0.01394,-0.08927l0.01433,-0.15851l0.04009,-0.11509l0.00777,-0.12162l0.1784,-0.55918l0.01419,-0.02294l0.00301,-0.02681l0.1026,-0.27556l0.08769,-0.37106l0.03211,-0.06212l0.00779,-0.06949l0.07493,-0.20125l0.00099,-0.01091l0.08364,-0.24013l0.07729,-0.24224l0.01622,-0.02623l0.01046,-0.03001l0.0113,-0.00518l0.00267,-0.00434l0.0478,-0.1498l0.07165,-0.11587l0.0414,-0.12978l0.16698,-0.27003l0.0884,-0.23743l0.06236,-0.09088l0.0335,-0.105l0.09211,-0.14896l0.03669,-0.09855l0.001,-0.01092l0.08363,-0.24012l0.07729,-0.24224l0.01621,-0.02623l0.01047,-0.03001l0.0113,-0.00517l0.8225,-1.33011l-0.00042,-0.01242l0.02218,-0.02276l0.01622,-0.02623l0.18219,-0.17737l0.17746,-0.1821l0.02624,-0.01621l0.02277,-0.02217l0.01242,0.00043l0.41568,-0.25677l0.02183,-0.2415l0.02621,-0.07523l-0.00103,-0.07964l0.05177,-0.21905l0.06395,-0.12371l0.00009,-0.00101l0.16013,-0.45979l0.00078,-0.02258l0.00874,-0.00475l0.01794,-0.05149l0.3387,-0.15492l0.02895,-0.02818l0.03036,0.00105l0.08678,-0.03969l0.46839,-0.25457l0.05195,0.01658l0.00904,-0.00415l0.01853,0.01294l0.46383,0.14799l0.1202,0.07433l0.01243,-0.00042l0.02276,0.02219l0.02623,0.01621l0.17737,0.18219l0.18211,0.17747l0.0162,0.02623l0.02217,0.02277l-0.00043,0.01243l0.21299,0.3448l0.03572,0.11218l0.06522,0.09801l0.1401,0.39325l0.41564,0.95256l0.25119,0.46217l0.00302,0.01172l0.008,0.00908l0.19038,0.3688l0.01036,0.0439l0.027,0.03613l0.20187,0.48186l0.09166,0.10988l0.07742,0.16016l0.10314,0.14494l0.12985,0.33136l0.00227,0.0176l0.00984,0.01478l0.15295,0.42933l0.00111,0.01133l0.00611,0.0096l0.70071,2.09873l0.14924,0.41891l0.00242,0.0249l0.01292,0.02142l0.18056,0.58754l0.09267,0.15004l0.05399,0.1695l0.0816,0.15807l0.01981,0.08402l0.04653,0.14606l0.08497,0.22178l0.00885,0.07277l0.00719,0.0226l-0.00364,0.00668l0.04258,0.35038l-0.00933,0.07487l0.01732,0.07345l-0.00504,0.37608l0.04663,0.81859l0.07177,0.95544l-0.00083,0.00481l0.00149,0.00464l0.03804,0.57172l0.00918,0.0128l-0.0548,0.29369l-0.05306,0.29401l-0.01313,0.00871l-0.22258,0.486l-0.04367,0.05462l-0.02125,0.06661l-1.64715,2.66371c-0.0992,0.16043 -0.23274,0.28666 -0.38527,0.37507l-0.02339,0.02277l-0.0168,-0.00058c-0.33526,0.17617 -0.75233,0.17553 -1.09777,-0.03807z" fill="#01d312" stroke-linecap="butt"/><path d="M245.32344,157.69383l-0.35869,14.92564" fill="none" stroke-linecap="round"/></g><g data-paper-data="{&quot;index&quot;:null}"><path d="M236.42693,171.52083l-0.01236,-0.00492l-0.00972,-0.02397c-0.08249,-0.11264 -0.13919,-0.24668 -0.16011,-0.39459l-0.34728,-2.45594l0.00577,-0.05508l-0.0143,-0.0535l-0.00682,-0.4233l-0.00675,-0.01049l0.05504,-0.23012l0.05368,-0.23045l0.01074,-0.00636l0.20946,-0.40256l0.00256,-0.00289l0.00093,-0.00374l0.356,-0.67014l0.29423,-0.57888l0.11599,-0.27438l0.03593,-0.04775l0.01704,-0.05728l0.14234,-0.24059l-0.00051,-0.006l0.01241,-0.01411l0.02956,-0.04997l0.13218,-0.13381l0.08021,-0.09114l0.0411,-0.05464l0.10947,-0.08868l0.09309,-0.10576l0.11495,-0.07933l0.31786,-0.3687l0.01619,-0.01142l0.00968,-0.01728l0.2415,-0.25635l1.17587,-1.29927l0.00749,-0.00501l0.00441,-0.00786l0.24751,-0.26273l0.01184,-0.00758l0.00725,-0.01205l0.19958,-0.19902l0.12091,-0.07231l0.1071,-0.09153l0.10143,-0.05054l0.2997,-0.28526l0.03108,-0.01762l0.02147,-0.02855l0.2554,-0.20691l0.00868,-0.00405l0.00593,-0.00753l0.32921,-0.25529l0.60449,-0.55866l0.22671,-0.24066l0.07849,-0.05033l0.0616,-0.06999l0.26416,-0.18232l0.00364,-0.00915l0.02333,-0.00947l0.02009,-0.01387l0.18854,-0.07078l0.1866,-0.07571l0.02419,-0.00342l0.02356,-0.00884l0.00888,0.00426l0.11082,-0.01567l0.38349,0.04022l0.01756,-0.00348l0.00525,0.00588l0.04295,0.00451l0.25874,0.33364l0.05032,0.0564l0.02235,0.00889l0.01203,0.02965l0.19638,0.22011l-0.00336,0.04306l0.00482,0.00622l-0.00662,0.01664l-0.03012,0.38441l-0.00026,0.00077l0.00702,0.11006l-0.03213,0.17534l-0.02608,0.05744l-0.00493,0.06289l-0.06099,0.1821l0.21981,0.31848l0.00915,0.00365l0.00947,0.02333l0.01387,0.02009l0.07077,0.18854l0.07572,0.1866l0.00342,0.02418l0.00884,0.02357l-0.00426,0.00887l0.17342,1.22636l0.00655,0.00734l-0.00196,0.0251l0.00342,0.02418l-0.02101,0.20028l-0.01574,0.20077l-0.00276,0.00823l-0.00474,0.08316l0.01942,0.13734l-0.0091,0.08682l0.01632,0.08576l-0.01141,0.20033l0.03521,0.24897l-0.01126,0.1073l0.01511,0.10684l-0.01299,0.12386l0.00056,0.004l0.00655,0.00734l-0.00196,0.0251l0.00342,0.02419l-0.02101,0.20028l-0.01574,0.20076l-0.00276,0.00823l-0.00968,0.16979l-0.01647,0.05288l0.00352,0.05527l-0.05443,0.29701l-0.01326,0.2325l-0.00635,0.0204l0.00299,0.02116l-0.04849,0.46231l-0.03305,0.09069l-0.00754,0.09622l-0.04003,0.11952l-0.0385,0.06031l0.00371,0.04357l-0.11477,0.13043l-0.0286,0.04481l0.00282,0.01997l-0.02304,0.21969l-0.03218,0.41073l0.0102,0.07219l-0.0147,0.14011l0.00897,0.1406l-0.0233,0.12714l-0.00833,0.07939l-0.00884,0.11284l0.01397,0.06237l-0.00846,0.34279l-0.01852,0.06701l0.00443,0.06938l-0.00556,0.03033l-0.0006,0.00757l0.00342,0.02418l-0.02101,0.20028l-0.01573,0.20077l-0.00776,0.02315l-0.00263,0.02503l-0.00778,0.00603l-0.02188,0.0653l-0.0385,0.06031l0.0037,0.04357l-0.11478,0.13042l-0.09348,0.14644l-0.04288,0.00851l-0.04728,0.05372l-0.05668,0.03912l-0.00364,0.00915l-0.02333,0.00947l-0.02009,0.01387l-0.18854,0.07078l-0.18661,0.07571l-0.02418,0.00342l-0.02356,0.00884l-0.00887,-0.00426l-0.22246,0.03146l-0.44924,-0.04711l-0.04204,-0.05421l-0.34046,0.04815l-0.03226,0.01607l-0.13757,0.03037l-0.13055,0.05297l-0.02663,0.00377l-0.19181,0.09557l-0.01023,0.00225l-0.00812,0.00662l-0.68482,0.32154l-0.73292,0.36516l-0.00541,0.00374l-0.00365,0.00914l-0.02333,0.00947l-0.02009,0.01387l-0.18854,0.07077l-0.18659,0.07572l-0.02418,0.00342l-0.02357,0.00884l-0.00887,-0.00426l-0.39471,0.05581l-0.1154,0.04683l-0.10683,0.01511l-0.09997,0.04056l-0.21953,0.03105l-0.26685,0.10019l-0.11418,-0.05481l-0.01342,0.01041l-0.13967,-0.05557l-0.18992,0.01618l-0.19026,-0.16744l-0.30084,-0.1197l-0.01239,-0.03055c-0.05681,0.02076 -0.11666,0.03591 -0.17894,0.04472c-0.3185,0.04504 -0.62119,-0.08717 -0.80831,-0.3216z" fill="#01d312" stroke-linecap="butt"/><path d="M238.7143,171.43132l4.48793,-10.93949" fill="none" stroke-linecap="round"/></g><g><path d="M250.95443,173.70875c-0.05352,-0.03308 -0.10223,-0.071 -0.14591,-0.11283l-0.02362,0.023l-0.32359,-0.01122l-0.24149,0.07691l-0.16743,-0.0911l-0.15023,-0.00522l-0.0081,-0.01492l-0.12658,0.00433l-0.20413,-0.19894l-0.18857,-0.1166l-0.07527,-0.07731l-0.09177,-0.05675l-0.08687,-0.08924l-0.33906,-0.20965l-0.00984,0.00034l-0.01803,-0.01756l-0.02077,-0.01284l-0.14048,-0.14428l-0.14423,-0.14055l-0.01283,-0.02078l-0.01756,-0.01804l0.00033,-0.00984l-0.00346,-0.00559l-0.52452,-0.6288l-0.498,-0.56954l-0.00478,-0.00932l-0.00846,-0.00618l-0.13727,-0.16457l-0.02287,-0.01414l-0.09828,-0.10094l-0.1138,-0.08307l-0.02308,-0.02768l-0.29245,-0.18084l-0.06027,0.03276l-0.43033,-0.1373l-0.19109,-0.11817l-0.00984,0.00033l-0.01803,-0.01756l-0.02077,-0.01284l-0.14048,-0.14429l-0.14423,-0.14055l-0.01283,-0.02077l-0.01756,-0.01804l0.00034,-0.00984l-0.03619,-0.05859l-0.02172,-0.06819l-0.03586,-0.02502l-0.02678,-0.17166l-0.05273,-0.16554l0.0209,-0.03841l-0.01104,-0.0707l0.00619,-0.06859l-0.00471,-0.00865l0.00764,-0.02399l0.0022,-0.02432l0.06624,-0.19017l0.06121,-0.19186l0.01284,-0.02077l0.0025,-0.00717l0.00709,-0.03l0.03192,-0.06176l0.00996,-0.0688l0.12994,-0.31731l0.03785,-0.05151l0.03723,-0.10689l0.02426,-0.07605l0.02973,-0.1258l0.06469,-0.12516l0.04282,-0.13421l0.03835,-0.06201l0.1355,-0.38906l0.06714,-0.21044l0.0106,-0.01716l-0.0082,-0.05253l-0.05272,-0.16554l0.02089,-0.03841l-0.01103,-0.0707l0.01135,-0.12553l0.03175,-0.09115l0.00616,-0.09632l0.1413,-0.44286l0.01124,-0.01818l0.00238,-0.02123l0.08125,-0.21824l0.06944,-0.29386l0.02542,-0.0492l0.00616,-0.05504l0.05934,-0.15938l0.00078,-0.00865l0.06623,-0.19018l0.06121,-0.19186l0.01284,-0.02077l0.00829,-0.02378l0.00895,-0.00409l0.00212,-0.00344l0.03786,-0.11864l0.05675,-0.09177l0.03279,-0.10279l0.13225,-0.21386l0.07002,-0.18805l0.04939,-0.07197l0.02654,-0.08317l0.07295,-0.11797l0.02905,-0.07806l0.00078,-0.00865l0.06624,-0.19017l0.06121,-0.19185l0.01285,-0.02078l0.00827,-0.02378l0.00895,-0.00409l0.65141,-1.05342l-0.00034,-0.00984l0.01757,-0.01803l0.01284,-0.02078l0.14428,-0.14047l0.14055,-0.14423l0.02077,-0.01283l0.01804,-0.01756l0.00984,0.00034l0.32923,-0.20336l0.01728,-0.19126l0.02075,-0.05957l-0.00081,-0.06308l0.041,-0.17348l0.05065,-0.09798l0.00008,-0.0008l0.12682,-0.36414l0.00062,-0.01789l0.00692,-0.00376l0.01421,-0.04078l0.26826,-0.12269l0.02293,-0.02232l0.02404,0.00083l0.06873,-0.03144l0.37097,-0.20162l0.04114,0.01313l0.00716,-0.00328l0.01469,0.01024l0.36735,0.11721l0.09519,0.05886l0.00984,-0.00034l0.01803,0.01756l0.02078,0.01285l0.14047,0.14428l0.14423,0.14055l0.01283,0.02077l0.01756,0.01804l-0.00035,0.00983l0.16868,0.27308l0.0283,0.08884l0.05166,0.07762l0.11096,0.31146l0.32918,0.75441l0.19894,0.36604l0.0024,0.00928l0.00633,0.00719l0.15079,0.29208l0.00819,0.03477l0.02139,0.02862l0.15988,0.38161l0.07259,0.08703l0.06131,0.12684l0.08168,0.11478l0.10284,0.26243l0.0018,0.01395l0.0078,0.0117l0.12114,0.34002l0.00087,0.00897l0.00485,0.0076l0.55496,1.66216l0.1182,0.33176l0.00192,0.01972l0.01023,0.01696l0.143,0.46533l0.0734,0.11882l0.04276,0.13424l0.06463,0.12519l0.01568,0.06654l0.03685,0.11568l0.0673,0.17563l0.007,0.05765l0.0057,0.0179l-0.00288,0.00529l0.03372,0.2775l-0.0074,0.0593l0.01372,0.05816l-0.00399,0.29787l0.03693,0.64831l0.05685,0.7567l-0.00065,0.00379l0.00118,0.00367l0.03013,0.4528l0.00727,0.01014l-0.0434,0.2326l-0.04202,0.23285l-0.0104,0.00689l-0.17628,0.38491l-0.03458,0.04325l-0.01683,0.05276l-1.30452,2.10961c-0.07858,0.12705 -0.18433,0.22702 -0.30512,0.29705l-0.01852,0.01805l-0.0133,-0.00046c-0.26553,0.13952 -0.59583,0.13902 -0.86942,-0.03016z" fill="#01d312" stroke-linecap="butt"/><path d="M249.76507,172.73818l0.28408,-11.82088" fill="none" stroke-linecap="round"/></g></g><g data-paper-data="{&quot;index&quot;:null}" stroke="#029f0f" stroke-width="1"><g><path d="M235.79984,176.1783c-0.06758,-0.04179 -0.12908,-0.08966 -0.18424,-0.14248l-0.02983,0.02905l-0.40857,-0.01417l-0.30491,0.09712l-0.21141,-0.11503l-0.18967,-0.00658l-0.01024,-0.01883l-0.15982,0.00546l-0.25776,-0.25117l-0.23811,-0.14724l-0.09503,-0.09762l-0.11587,-0.07165l-0.10969,-0.11266l-0.4281,-0.26473l-0.01242,0.00042l-0.02277,-0.02218l-0.02622,-0.01622l-0.17737,-0.18219l-0.1821,-0.17746l-0.01621,-0.02623l-0.02217,-0.02277l0.00043,-0.01243l-0.00438,-0.00707l-0.66228,-0.79395l-0.6288,-0.71912l-0.00602,-0.01176l-0.01068,-0.0078l-0.17333,-0.20779l-0.02888,-0.01786l-0.12409,-0.12747l-0.14369,-0.10488l-0.02915,-0.03494l-0.36926,-0.22834l-0.07609,0.04136l-0.54336,-0.17335l-0.24128,-0.1492l-0.01242,0.00042l-0.02276,-0.02219l-0.02623,-0.01621l-0.17737,-0.18219l-0.1821,-0.17747l-0.01621,-0.02623l-0.02217,-0.02277l0.00043,-0.01243l-0.04569,-0.07398l-0.02742,-0.08608l-0.04528,-0.0316l-0.03383,-0.21675l-0.06658,-0.20902l0.02639,-0.0485l-0.01394,-0.08927l0.00784,-0.08661l-0.00593,-0.01092l0.00966,-0.03028l0.00278,-0.03071l0.08363,-0.24013l0.07729,-0.24223l0.01621,-0.02622l0.00316,-0.00905l0.00896,-0.03789l0.0403,-0.07797l0.01256,-0.08687l0.16407,-0.40067l0.04779,-0.06504l0.047,-0.13496l0.03064,-0.09603l0.03753,-0.15885l0.08167,-0.15803l0.05407,-0.16947l0.04842,-0.0783l0.1711,-0.49125l0.08478,-0.26572l0.01339,-0.02166l-0.01035,-0.06633l-0.06658,-0.20901l0.02639,-0.0485l-0.01394,-0.08927l0.01433,-0.15851l0.04009,-0.11509l0.00777,-0.12163l0.1784,-0.55918l0.01419,-0.02294l0.00301,-0.02681l0.1026,-0.27556l0.08768,-0.37105l0.03211,-0.06212l0.00778,-0.06949l0.07493,-0.20125l0.00099,-0.01091l0.08363,-0.24013l0.07729,-0.24224l0.01622,-0.02623l0.01046,-0.03001l0.01131,-0.00517l0.00267,-0.00434l0.0478,-0.1498l0.07165,-0.11587l0.0414,-0.12978l0.16698,-0.27003l0.08841,-0.23743l0.06236,-0.09088l0.0335,-0.105l0.0921,-0.14896l0.0367,-0.09856l0.00099,-0.01092l0.08363,-0.24013l0.0773,-0.24223l0.01621,-0.02623l0.01047,-0.03001l0.0113,-0.00517l0.82249,-1.33011l-0.00042,-0.01242l0.02218,-0.02276l0.01622,-0.02623l0.18219,-0.17737l0.17746,-0.1821l0.02624,-0.01621l0.02277,-0.02217l0.01242,0.00043l0.41568,-0.25677l0.02183,-0.2415l0.02621,-0.07523l-0.00103,-0.07964l0.05177,-0.21905l0.06395,-0.12371l0.00009,-0.00101l0.16013,-0.45978l0.00078,-0.02258l0.00874,-0.00475l0.01794,-0.05149l0.33871,-0.15492l0.02895,-0.02818l0.03036,0.00105l0.08678,-0.03969l0.46839,-0.25457l0.05195,0.01657l0.00904,-0.00414l0.01853,0.01294l0.46383,0.14799l0.1202,0.07432l0.01243,-0.00042l0.02276,0.02219l0.02623,0.01621l0.17737,0.18219l0.18211,0.17747l0.0162,0.02623l0.02217,0.02277l-0.00043,0.01243l0.21299,0.3448l0.03572,0.11218l0.06522,0.09801l0.1401,0.39325l0.41564,0.95256l0.25119,0.46217l0.00302,0.01172l0.008,0.00908l0.19038,0.3688l0.01036,0.0439l0.027,0.03613l0.20187,0.48185l0.09166,0.10988l0.07742,0.16016l0.10314,0.14494l0.12985,0.33136l0.00227,0.0176l0.00984,0.01478l0.15295,0.42933l0.00111,0.01133l0.00611,0.0096l0.70071,2.09872l0.14924,0.41891l0.00242,0.0249l0.01292,0.02142l0.18056,0.58754l0.09267,0.15004l0.05399,0.1695l0.0816,0.15807l0.01981,0.08402l0.04653,0.14606l0.08497,0.22177l0.00884,0.07278l0.0072,0.02259l-0.00364,0.00669l0.04258,0.35038l-0.00934,0.07487l0.01732,0.07345l-0.00504,0.37608l0.04664,0.81859l0.07177,0.95544l-0.00082,0.00481l0.00149,0.00463l0.03804,0.57172l0.00918,0.0128l-0.0548,0.29369l-0.05306,0.29401l-0.01313,0.00871l-0.22257,0.486l-0.04367,0.05462l-0.02125,0.06661l-1.64715,2.6637c-0.0992,0.16043 -0.23274,0.28666 -0.38526,0.37508l-0.02339,0.02277l-0.0168,-0.00058c-0.33526,0.17617 -0.75233,0.17553 -1.09777,-0.03808z" fill="#01d312" stroke-linecap="butt"/><path d="M234.65678,160.02716l-0.3587,14.92564" fill="none" stroke-linecap="round"/></g><g data-paper-data="{&quot;index&quot;:null}"><path d="M225.76027,173.85416l-0.01236,-0.00492l-0.00972,-0.02397c-0.08249,-0.11264 -0.13919,-0.24668 -0.1601,-0.39459l-0.34728,-2.45594l0.00577,-0.05508l-0.0143,-0.0535l-0.00682,-0.4233l-0.00675,-0.01049l0.05504,-0.23012l0.05368,-0.23045l0.01074,-0.00636l0.20946,-0.40257l0.00256,-0.00289l0.00093,-0.00374l0.356,-0.67014l0.29423,-0.57888l0.11599,-0.27438l0.03592,-0.04775l0.01705,-0.05728l0.14234,-0.24059l-0.00051,-0.006l0.01241,-0.01411l0.02956,-0.04997l0.13218,-0.13381l0.08021,-0.09114l0.0411,-0.05464l0.10947,-0.08868l0.09309,-0.10576l0.11495,-0.07933l0.31786,-0.3687l0.01619,-0.01142l0.00968,-0.01728l0.2415,-0.25635l1.17587,-1.29927l0.00749,-0.00501l0.00441,-0.00787l0.24751,-0.26273l0.01183,-0.00758l0.00725,-0.01205l0.19958,-0.19902l0.12091,-0.07231l0.1071,-0.09153l0.10143,-0.05054l0.2997,-0.28526l0.03108,-0.01762l0.02146,-0.02855l0.25541,-0.20692l0.00868,-0.00404l0.00592,-0.00753l0.32921,-0.2553l0.60448,-0.55866l0.22672,-0.24066l0.07849,-0.05033l0.06161,-0.06999l0.26415,-0.18232l0.00364,-0.00915l0.02333,-0.00947l0.02009,-0.01387l0.18854,-0.07078l0.1866,-0.07571l0.02419,-0.00342l0.02356,-0.00884l0.00887,0.00426l0.11083,-0.01567l0.38349,0.04022l0.01756,-0.00348l0.00525,0.00588l0.04295,0.00451l0.25874,0.33365l0.05032,0.0564l0.02235,0.00889l0.01203,0.02965l0.19638,0.22011l-0.00337,0.04305l0.00483,0.00622l-0.00663,0.01664l-0.03012,0.38441l-0.00026,0.00077l0.00702,0.11006l-0.03213,0.17534l-0.02608,0.05744l-0.00493,0.06289l-0.06099,0.1821l0.21981,0.31848l0.00915,0.00365l0.00946,0.02333l0.01388,0.02009l0.07077,0.18854l0.07572,0.1866l0.00341,0.02418l0.00885,0.02357l-0.00426,0.00887l0.17342,1.22635l0.00655,0.00734l-0.00196,0.02511l0.00342,0.02418l-0.021,0.20028l-0.01574,0.20077l-0.00276,0.00823l-0.00475,0.08316l0.01942,0.13734l-0.0091,0.08682l0.01632,0.08576l-0.01141,0.20033l0.03521,0.24897l-0.01126,0.1073l0.01511,0.10684l-0.01299,0.12386l0.00056,0.004l0.00655,0.00734l-0.00196,0.0251l0.00342,0.02419l-0.02101,0.20028l-0.01574,0.20076l-0.00276,0.00823l-0.00968,0.16979l-0.01647,0.05288l0.00352,0.05527l-0.05443,0.29701l-0.01326,0.2325l-0.00635,0.0204l0.00299,0.02116l-0.04849,0.46231l-0.03305,0.09069l-0.00753,0.09622l-0.04003,0.11952l-0.0385,0.06031l0.00371,0.04357l-0.11477,0.13043l-0.02861,0.04481l0.00282,0.01997l-0.02304,0.21969l-0.03218,0.41073l0.0102,0.07219l-0.01469,0.14012l0.00897,0.1406l-0.0233,0.12714l-0.00833,0.07939l-0.00884,0.11284l0.01397,0.06237l-0.00846,0.34279l-0.01851,0.06701l0.00443,0.06938l-0.00556,0.03032l-0.0006,0.00757l0.00342,0.02417l-0.02101,0.20029l-0.01574,0.20076l-0.00775,0.02315l-0.00263,0.02503l-0.00779,0.00603l-0.02187,0.0653l-0.0385,0.06031l0.0037,0.04357l-0.11478,0.13042l-0.09348,0.14644l-0.04288,0.00851l-0.04728,0.05373l-0.05668,0.03912l-0.00364,0.00915l-0.02333,0.00947l-0.02009,0.01387l-0.18854,0.07078l-0.18661,0.07571l-0.02418,0.00342l-0.02356,0.00884l-0.00887,-0.00426l-0.22246,0.03146l-0.44924,-0.04711l-0.04204,-0.05421l-0.34047,0.04815l-0.03225,0.01607l-0.13757,0.03037l-0.13055,0.05297l-0.02663,0.00376l-0.19181,0.09558l-0.01024,0.00225l-0.00812,0.00661l-0.68482,0.32155l-0.73292,0.36516l-0.00541,0.00374l-0.00364,0.00915l-0.02333,0.00947l-0.02009,0.01387l-0.18854,0.07077l-0.1866,0.07572l-0.02417,0.00342l-0.02357,0.00884l-0.00887,-0.00426l-0.39471,0.05581l-0.1154,0.04683l-0.10683,0.01511l-0.09997,0.04056l-0.21953,0.03105l-0.26685,0.10019l-0.11418,-0.05481l-0.01342,0.01041l-0.13967,-0.05557l-0.18992,0.01617l-0.19026,-0.16743l-0.30084,-0.1197l-0.01239,-0.03056c-0.05681,0.02076 -0.11666,0.03592 -0.17894,0.04472c-0.3185,0.04504 -0.62119,-0.08717 -0.80831,-0.3216z" fill="#01d312" stroke-linecap="butt"/><path d="M228.04763,173.76465l4.48794,-10.93949" fill="none" stroke-linecap="round"/></g><g><path d="M240.28776,176.04208c-0.05352,-0.03308 -0.10223,-0.07101 -0.14591,-0.11283l-0.02363,0.023l-0.32358,-0.01122l-0.24149,0.07691l-0.16743,-0.09109l-0.15023,-0.00522l-0.0081,-0.01492l-0.12659,0.00433l-0.20413,-0.19894l-0.18857,-0.1166l-0.07527,-0.07731l-0.09176,-0.05675l-0.08687,-0.08924l-0.33906,-0.20965l-0.00984,0.00034l-0.01803,-0.01756l-0.02077,-0.01284l-0.14048,-0.14428l-0.14423,-0.14055l-0.01283,-0.02078l-0.01756,-0.01804l0.00034,-0.00984l-0.00346,-0.00559l-0.52452,-0.6288l-0.498,-0.56954l-0.00478,-0.00932l-0.00846,-0.00618l-0.13727,-0.16457l-0.02287,-0.01414l-0.09828,-0.10094l-0.1138,-0.08307l-0.02309,-0.02768l-0.29244,-0.18084l-0.06027,0.03276l-0.43033,-0.1373l-0.19109,-0.11816l-0.00984,0.00033l-0.01803,-0.01756l-0.02077,-0.01284l-0.14048,-0.14429l-0.14423,-0.14055l-0.01283,-0.02078l-0.01756,-0.01804l0.00034,-0.00984l-0.03619,-0.05859l-0.02172,-0.06819l-0.03586,-0.02502l-0.02679,-0.17166l-0.05272,-0.16554l0.0209,-0.03841l-0.01104,-0.0707l0.00619,-0.06858l-0.00471,-0.00865l0.00764,-0.02399l0.0022,-0.02432l0.06624,-0.19018l0.06121,-0.19186l0.01284,-0.02076l0.0025,-0.00717l0.00709,-0.03l0.03192,-0.06176l0.00996,-0.0688l0.12994,-0.31732l0.03785,-0.05151l0.03722,-0.10689l0.02427,-0.07604l0.02972,-0.1258l0.06469,-0.12516l0.04282,-0.13422l0.03835,-0.06201l0.1355,-0.38907l0.06714,-0.21044l0.0106,-0.01716l-0.0082,-0.05253l-0.05272,-0.16554l0.02089,-0.03841l-0.01103,-0.0707l0.01135,-0.12553l0.03175,-0.09115l0.00616,-0.09633l0.1413,-0.44286l0.01124,-0.01818l0.00238,-0.02123l0.08125,-0.21824l0.06944,-0.29386l0.02542,-0.0492l0.00616,-0.05504l0.05934,-0.15938l0.00078,-0.00865l0.06624,-0.19018l0.06121,-0.19186l0.01284,-0.02077l0.00829,-0.02378l0.00895,-0.00409l0.00212,-0.00344l0.03786,-0.11865l0.05675,-0.09177l0.03279,-0.10279l0.13225,-0.21386l0.07002,-0.18805l0.04939,-0.07197l0.02654,-0.08317l0.07295,-0.11797l0.02905,-0.07806l0.00078,-0.00865l0.06624,-0.19017l0.06121,-0.19185l0.01285,-0.02078l0.00827,-0.02378l0.00895,-0.00409l0.6514,-1.05342l-0.00034,-0.00984l0.01757,-0.01803l0.01284,-0.02078l0.14428,-0.14047l0.14055,-0.14423l0.02077,-0.01283l0.01804,-0.01756l0.00984,0.00034l0.32922,-0.20336l0.01729,-0.19126l0.02075,-0.05957l-0.00081,-0.06308l0.041,-0.17348l0.05065,-0.09797l0.00007,-0.0008l0.12682,-0.36414l0.00062,-0.01789l0.00692,-0.00376l0.01421,-0.04078l0.26825,-0.12269l0.02293,-0.02232l0.02404,0.00083l0.06873,-0.03144l0.37097,-0.20162l0.04114,0.01313l0.00716,-0.00328l0.01469,0.01024l0.36735,0.11721l0.09519,0.05886l0.00984,-0.00034l0.01803,0.01756l0.02077,0.01285l0.14047,0.14429l0.14423,0.14054l0.01283,0.02078l0.01756,0.01804l-0.00035,0.00984l0.16868,0.27308l0.0283,0.08884l0.05166,0.07762l0.11096,0.31146l0.32918,0.75441l0.19894,0.36604l0.0024,0.00928l0.00633,0.00719l0.15078,0.29208l0.00819,0.03477l0.02139,0.02862l0.15988,0.38161l0.07259,0.08703l0.06132,0.12684l0.08168,0.11478l0.10283,0.26243l0.0018,0.01395l0.0078,0.0117l0.12113,0.34002l0.00088,0.00897l0.00484,0.0076l0.55496,1.66216l0.1182,0.33176l0.00192,0.01971l0.01023,0.01696l0.143,0.46533l0.0734,0.11882l0.04276,0.13424l0.06463,0.12518l0.01568,0.06655l0.03685,0.11568l0.0673,0.17563l0.007,0.05765l0.0057,0.0179l-0.00288,0.00529l0.03372,0.27749l-0.0074,0.05931l0.01372,0.05816l-0.00399,0.29787l0.03693,0.64831l0.05685,0.7567l-0.00065,0.00379l0.00118,0.00367l0.03013,0.4528l0.00727,0.01014l-0.0434,0.2326l-0.04203,0.23285l-0.0104,0.00689l-0.17627,0.38491l-0.03458,0.04325l-0.01684,0.05275l-1.30451,2.10962c-0.07858,0.12705 -0.18433,0.22702 -0.30512,0.29705l-0.01852,0.01805l-0.0133,-0.00046c-0.26553,0.13952 -0.59583,0.13903 -0.86943,-0.03016z" fill="#01d312" stroke-linecap="butt"/><path d="M239.09841,175.07151l0.28408,-11.82088" fill="none" stroke-linecap="round"/></g></g><g stroke="#029f0f" stroke-width="1"><g><path d="M230.531,209.44137c0.06758,0.04179 0.12908,0.08966 0.18424,0.14248l0.02983,-0.02905l0.40857,0.01417l0.30492,-0.09712l0.2114,0.11503l0.18967,0.00658l0.01024,0.01883l0.15982,-0.00546l0.25776,0.25117l0.23811,0.14724l0.09503,0.09762l0.11587,0.07165l0.10969,0.11266l0.4281,0.26473l0.01242,-0.00042l0.02276,0.02218l0.02622,0.01622l0.17737,0.18219l0.1821,0.17746l0.01621,0.02623l0.02217,0.02277l-0.00043,0.01243l0.00437,0.00707l0.66228,0.79395l0.6288,0.71912l0.00602,0.01176l0.01068,0.0078l0.17333,0.20779l0.02888,0.01786l0.12409,0.12747l0.14368,0.10488l0.02915,0.03494l0.36926,0.22834l0.0761,-0.04136l0.54336,0.17335l0.24128,0.1492l0.01242,-0.00042l0.02276,0.02219l0.02623,0.01621l0.17737,0.18219l0.1821,0.17747l0.01621,0.02623l0.02217,0.02277l-0.00043,0.01243l0.04569,0.07398l0.02742,0.08608l0.04528,0.0316l0.03383,0.21675l0.06657,0.20902l-0.02638,0.0485l0.01394,0.08927l-0.00784,0.08661l0.00593,0.01092l-0.00966,0.03028l-0.00278,0.03071l-0.08364,0.24013l-0.07729,0.24223l-0.01621,0.02622l-0.00316,0.00905l-0.00895,0.03789l-0.04031,0.07797l-0.01256,0.08687l-0.16407,0.40067l-0.04779,0.06504l-0.047,0.13496l-0.03064,0.09603l-0.03753,0.15885l-0.08168,0.15803l-0.05407,0.16947l-0.04842,0.0783l-0.1711,0.49125l-0.08478,0.26572l-0.01339,0.02166l0.01035,0.06633l0.06658,0.20901l-0.02639,0.0485l0.01394,0.08927l-0.01434,0.15851l-0.04009,0.11509l-0.00777,0.12163l-0.1784,0.55918l-0.01419,0.02294l-0.00301,0.02681l-0.1026,0.27556l-0.08768,0.37105l-0.03211,0.06212l-0.00779,0.06949l-0.07493,0.20125l-0.001,0.01091l-0.08363,0.24013l-0.07729,0.24224l-0.01622,0.02623l-0.01046,0.03001l-0.0113,0.00517l-0.00268,0.00434l-0.0478,0.1498l-0.07165,0.11587l-0.0414,0.12978l-0.16698,0.27003l-0.0884,0.23743l-0.06236,0.09088l-0.0335,0.105l-0.09211,0.14896l-0.0367,0.09856l-0.00099,0.01092l-0.08363,0.24013l-0.07729,0.24223l-0.01622,0.02623l-0.01046,0.03001l-0.0113,0.00517l-0.8225,1.33011l0.00042,0.01242l-0.02218,0.02276l-0.01622,0.02623l-0.18219,0.17737l-0.17747,0.1821l-0.02623,0.01621l-0.02277,0.02217l-0.01242,-0.00043l-0.41568,0.25677l-0.02183,0.2415l-0.0262,0.07523l0.00103,0.07964l-0.05177,0.21905l-0.06395,0.12371l-0.00009,0.00101l-0.16013,0.45978l-0.00078,0.02258l-0.00874,0.00475l-0.01794,0.05149l-0.33871,0.15492l-0.02895,0.02818l-0.03036,-0.00105l-0.08678,0.03969l-0.46839,0.25457l-0.05194,-0.01657l-0.00905,0.00414l-0.01853,-0.01294l-0.46383,-0.14799l-0.1202,-0.07432l-0.01242,0.00042l-0.02276,-0.02219l-0.02623,-0.01621l-0.17737,-0.18219l-0.18211,-0.17747l-0.0162,-0.02623l-0.02217,-0.02277l0.00043,-0.01243l-0.21299,-0.3448l-0.03572,-0.11218l-0.06522,-0.09801l-0.1401,-0.39325l-0.41564,-0.95256l-0.25119,-0.46217l-0.00303,-0.01172l-0.008,-0.00908l-0.19038,-0.3688l-0.01036,-0.0439l-0.027,-0.03613l-0.20187,-0.48185l-0.09166,-0.10988l-0.07742,-0.16016l-0.10314,-0.14494l-0.12985,-0.33136l-0.00228,-0.0176l-0.00983,-0.01478l-0.15296,-0.42933l-0.00111,-0.01133l-0.00611,-0.0096l-0.70071,-2.09872l-0.14924,-0.41891l-0.00242,-0.0249l-0.01292,-0.02142l-0.18056,-0.58754l-0.09268,-0.15004l-0.05399,-0.1695l-0.0816,-0.15807l-0.01981,-0.08402l-0.04653,-0.14606l-0.08497,-0.22177l-0.00885,-0.07278l-0.00719,-0.02259l0.00364,-0.00669l-0.04258,-0.35038l0.00933,-0.07487l-0.01732,-0.07345l0.00504,-0.37608l-0.04664,-0.81859l-0.07177,-0.95544l0.00082,-0.00481l-0.00149,-0.00463l-0.03804,-0.57172l-0.00918,-0.0128l0.0548,-0.29369l0.05306,-0.29401l0.01313,-0.00871l0.22258,-0.486l0.04367,-0.05462l0.02125,-0.06661l1.64715,-2.6637c0.0992,-0.16043 0.23274,-0.28666 0.38527,-0.37508l0.02339,-0.02277l0.0168,0.00058c0.33526,-0.17617 0.75233,-0.17553 1.09777,0.03808z" fill="#01d312" stroke-linecap="butt"/><path d="M231.67406,225.59251l0.3587,-14.92564" fill="none" stroke-linecap="round"/></g><g data-paper-data="{&quot;index&quot;:null}"><path d="M240.57057,211.76551l0.01237,0.00492l0.00972,0.02397c0.08249,0.11264 0.13919,0.24668 0.1601,0.39459l0.34729,2.45594l-0.00577,0.05508l0.01429,0.0535l0.00683,0.4233l0.00675,0.01049l-0.05504,0.23012l-0.05368,0.23045l-0.01073,0.00636l-0.20946,0.40257l-0.00256,0.00289l-0.00093,0.00374l-0.356,0.67014l-0.29423,0.57888l-0.11599,0.27438l-0.03592,0.04775l-0.01704,0.05728l-0.14234,0.24059l0.00051,0.006l-0.01241,0.01411l-0.02957,0.04997l-0.13218,0.13381l-0.08021,0.09114l-0.04109,0.05464l-0.10947,0.08868l-0.09308,0.10576l-0.11495,0.07933l-0.31786,0.3687l-0.01619,0.01142l-0.00968,0.01728l-0.2415,0.25635l-1.17586,1.29927l-0.00749,0.00501l-0.00441,0.00787l-0.24751,0.26273l-0.01183,0.00758l-0.00725,0.01205l-0.19959,0.19902l-0.12091,0.07231l-0.1071,0.09153l-0.10143,0.05054l-0.29971,0.28526l-0.03107,0.01762l-0.02147,0.02855l-0.2554,0.20692l-0.00869,0.00404l-0.00592,0.00753l-0.32921,0.2553l-0.60449,0.55866l-0.22672,0.24066l-0.07849,0.05033l-0.06161,0.06999l-0.26415,0.18232l-0.00364,0.00915l-0.02333,0.00947l-0.02009,0.01387l-0.18854,0.07078l-0.1866,0.07571l-0.02418,0.00342l-0.02357,0.00884l-0.00887,-0.00426l-0.11083,0.01567l-0.38349,-0.04022l-0.01756,0.00348l-0.00525,-0.00588l-0.04295,-0.00451l-0.25874,-0.33365l-0.05032,-0.0564l-0.02235,-0.00889l-0.01203,-0.02965l-0.19638,-0.22011l0.00337,-0.04305l-0.00483,-0.00622l0.00663,-0.01664l0.03012,-0.38441l0.00026,-0.00077l-0.00702,-0.11006l0.03214,-0.17534l0.02608,-0.05744l0.00493,-0.06289l0.061,-0.1821l-0.21982,-0.31848l-0.00914,-0.00365l-0.00947,-0.02333l-0.01388,-0.02009l-0.07077,-0.18854l-0.07572,-0.1866l-0.00341,-0.02418l-0.00885,-0.02357l0.00426,-0.00887l-0.17342,-1.22635l-0.00655,-0.00734l0.00196,-0.02511l-0.00342,-0.02418l0.02101,-0.20028l0.01574,-0.20077l0.00275,-0.00823l0.00475,-0.08316l-0.01942,-0.13734l0.0091,-0.08682l-0.01632,-0.08576l0.01141,-0.20033l-0.03521,-0.24897l0.01126,-0.1073l-0.01511,-0.10684l0.01299,-0.12386l-0.00056,-0.004l-0.00655,-0.00734l0.00196,-0.0251l-0.00342,-0.02419l0.02101,-0.20028l0.01574,-0.20076l0.00275,-0.00823l0.00968,-0.16979l0.01647,-0.05288l-0.00352,-0.05527l0.05444,-0.29701l0.01325,-0.2325l0.00635,-0.0204l-0.00299,-0.02116l0.04849,-0.46231l0.03305,-0.09069l0.00753,-0.09622l0.04003,-0.11952l0.03851,-0.06031l-0.00371,-0.04357l0.11478,-0.13043l0.0286,-0.04481l-0.00282,-0.01997l0.02304,-0.21969l0.03218,-0.41073l-0.0102,-0.07219l0.01469,-0.14012l-0.00897,-0.1406l0.0233,-0.12714l0.00833,-0.07939l0.00884,-0.11284l-0.01396,-0.06237l0.00846,-0.34279l0.01852,-0.06701l-0.00443,-0.06938l0.00557,-0.03032l0.00059,-0.00757l-0.00342,-0.02417l0.02101,-0.20029l0.01574,-0.20076l0.00776,-0.02315l0.00263,-0.02503l0.00779,-0.00603l0.02187,-0.0653l0.03851,-0.06031l-0.0037,-0.04357l0.11477,-0.13042l0.09348,-0.14644l0.04289,-0.00851l0.04728,-0.05373l0.05667,-0.03912l0.00364,-0.00915l0.02333,-0.00947l0.02009,-0.01387l0.18854,-0.07078l0.1866,-0.07571l0.02418,-0.00342l0.02356,-0.00884l0.00888,0.00426l0.22246,-0.03146l0.44924,0.04711l0.04204,0.05421l0.34046,-0.04815l0.03225,-0.01607l0.13757,-0.03036l0.13055,-0.05297l0.02663,-0.00376l0.19181,-0.09557l0.01023,-0.00226l0.00812,-0.00661l0.68483,-0.32155l0.73292,-0.36516l0.00541,-0.00374l0.00365,-0.00915l0.02333,-0.00947l0.02009,-0.01387l0.18854,-0.07077l0.1866,-0.07572l0.02417,-0.00342l0.02357,-0.00884l0.00887,0.00426l0.39471,-0.05581l0.1154,-0.04683l0.10684,-0.01511l0.09997,-0.04056l0.21953,-0.03105l0.26685,-0.10019l0.11418,0.05481l0.01343,-0.01041l0.13967,0.05557l0.18992,-0.01617l0.19026,0.16743l0.30084,0.1197l0.01239,0.03056c0.05681,-0.02076 0.11666,-0.03592 0.17894,-0.04472c0.3185,-0.04504 0.62119,0.08717 0.80832,0.3216z" fill="#01d312" stroke-linecap="butt"/><path d="M233.79528,222.79451l4.48793,-10.93949" fill="none" stroke-linecap="round"/></g><g><path d="M226.04308,209.57759c0.05352,0.03308 0.10222,0.07101 0.14591,0.11283l0.02363,-0.023l0.32359,0.01122l0.24149,-0.07691l0.16743,0.09109l0.15023,0.00522l0.0081,0.01492l0.12659,-0.00433l0.20413,0.19894l0.18858,0.1166l0.07527,0.07731l0.09177,0.05675l0.08687,0.08924l0.33905,0.20965l0.00984,-0.00034l0.01803,0.01756l0.02076,0.01284l0.14048,0.14428l0.14423,0.14055l0.01283,0.02078l0.01756,0.01804l-0.00034,0.00984l0.00346,0.00559l0.52452,0.6288l0.498,0.56954l0.00478,0.00932l0.00846,0.00618l0.13728,0.16457l0.02287,0.01414l0.09828,0.10094l0.11379,0.08307l0.02309,0.02768l0.29244,0.18084l0.06028,-0.03276l0.43033,0.1373l0.19109,0.11816l0.00984,-0.00033l0.01803,0.01756l0.02076,0.01284l0.14048,0.14429l0.14423,0.14055l0.01283,0.02078l0.01756,0.01804l-0.00034,0.00984l0.03619,0.05859l0.02172,0.06819l0.03586,0.02502l0.02678,0.17166l0.05273,0.16554l-0.0209,0.03841l0.01104,0.0707l-0.00619,0.06858l0.0047,0.00865l-0.00764,0.02399l-0.0022,0.02432l-0.06623,0.19018l-0.06121,0.19186l-0.01284,0.02076l-0.0025,0.00717l-0.00709,0.03l-0.03192,0.06176l-0.00996,0.0688l-0.12994,0.31732l-0.03785,0.05151l-0.03723,0.10689l-0.02427,0.07604l-0.02972,0.1258l-0.06469,0.12516l-0.04282,0.13422l-0.03835,0.06201l-0.1355,0.38907l-0.06714,0.21044l-0.0106,0.01716l0.0082,0.05253l0.05272,0.16554l-0.0209,0.03841l0.01104,0.0707l-0.01135,0.12553l-0.03175,0.09115l-0.00616,0.09633l-0.14129,0.44286l-0.01124,0.01818l-0.00238,0.02123l-0.08125,0.21824l-0.06944,0.29386l-0.02543,0.0492l-0.00615,0.05504l-0.05934,0.15938l-0.00078,0.00865l-0.06624,0.19018l-0.06121,0.19186l-0.01284,0.02077l-0.00829,0.02378l-0.00895,0.00409l-0.00212,0.00344l-0.03785,0.11865l-0.05675,0.09177l-0.03279,0.10279l-0.13225,0.21386l-0.07002,0.18805l-0.04939,0.07197l-0.02654,0.08317l-0.07295,0.11797l-0.02905,0.07806l-0.00078,0.00865l-0.06623,0.19017l-0.06121,0.19185l-0.01285,0.02078l-0.00827,0.02378l-0.00895,0.00409l-0.65141,1.05342l0.00034,0.00984l-0.01756,0.01803l-0.01284,0.02078l-0.14428,0.14047l-0.14055,0.14423l-0.02077,0.01283l-0.01804,0.01756l-0.00984,-0.00034l-0.32923,0.20336l-0.01729,0.19126l-0.02074,0.05957l0.00081,0.06308l-0.041,0.17348l-0.05064,0.09797l-0.00008,0.0008l-0.12682,0.36414l-0.00061,0.01789l-0.00692,0.00376l-0.01421,0.04078l-0.26826,0.12269l-0.02293,0.02232l-0.02404,-0.00083l-0.06873,0.03144l-0.37097,0.20162l-0.04114,-0.01313l-0.00717,0.00328l-0.01468,-0.01024l-0.36735,-0.11721l-0.0952,-0.05886l-0.00984,0.00034l-0.01803,-0.01756l-0.02077,-0.01285l-0.14047,-0.14429l-0.14423,-0.14054l-0.01283,-0.02078l-0.01757,-0.01804l0.00035,-0.00984l-0.16868,-0.27308l-0.02831,-0.08884l-0.05166,-0.07762l-0.11096,-0.31146l-0.32918,-0.75441l-0.19894,-0.36604l-0.0024,-0.00928l-0.00632,-0.00719l-0.15079,-0.29208l-0.00819,-0.03477l-0.02138,-0.02862l-0.15988,-0.38161l-0.07259,-0.08703l-0.06132,-0.12684l-0.08168,-0.11478l-0.10283,-0.26243l-0.0018,-0.01395l-0.00779,-0.0117l-0.12114,-0.34002l-0.00088,-0.00897l-0.00484,-0.0076l-0.55496,-1.66216l-0.1182,-0.33176l-0.00192,-0.01971l-0.01023,-0.01696l-0.143,-0.46533l-0.0734,-0.11882l-0.04276,-0.13424l-0.06463,-0.12518l-0.01569,-0.06655l-0.03685,-0.11568l-0.0673,-0.17563l-0.007,-0.05765l-0.0057,-0.0179l0.00287,-0.00529l-0.03372,-0.27749l0.0074,-0.05931l-0.01371,-0.05816l0.00399,-0.29787l-0.03693,-0.64831l-0.05684,-0.7567l0.00065,-0.00379l-0.00118,-0.00367l-0.03013,-0.4528l-0.00727,-0.01014l0.04341,-0.2326l0.04202,-0.23285l0.0104,-0.00689l0.17628,-0.38491l0.03458,-0.04325l0.01683,-0.05275l1.30452,-2.10962c0.07858,-0.12705 0.18433,-0.22702 0.30512,-0.29705l0.01853,-0.01805l0.0133,0.00046c0.26553,-0.13952 0.59583,-0.13903 0.86943,0.03016z" fill="#01d312" stroke-linecap="butt"/><path d="M227.23243,210.54816l-0.28408,11.82088" fill="none" stroke-linecap="round"/></g></g><g stroke="#029f0f" stroke-width="1"><g><path d="M239.86434,208.7747c0.06758,0.04179 0.12908,0.08966 0.18424,0.14248l0.02983,-0.02904l0.40857,0.01417l0.30491,-0.09712l0.21141,0.11503l0.18967,0.00658l0.01024,0.01883l0.15982,-0.00546l0.25776,0.25118l0.23811,0.14724l0.09503,0.09762l0.11587,0.07165l0.10969,0.11267l0.4281,0.26473l0.01242,-0.00042l0.02277,0.02219l0.02622,0.01621l0.17737,0.18219l0.1821,0.17746l0.01621,0.02624l0.02217,0.02277l-0.00043,0.01243l0.00437,0.00706l0.66228,0.79395l0.6288,0.71912l0.00602,0.01177l0.01068,0.0078l0.17333,0.20779l0.02888,0.01785l0.12408,0.12747l0.14369,0.10488l0.02915,0.03494l0.36926,0.22835l0.07609,-0.04137l0.54336,0.17336l0.24128,0.1492l0.01242,-0.00042l0.02276,0.02218l0.02623,0.01622l0.17737,0.18218l0.1821,0.17746l0.01621,0.02624l0.02217,0.02277l-0.00043,0.01243l0.04569,0.07398l0.02742,0.08609l0.04528,0.0316l0.03382,0.21674l0.06658,0.20902l-0.02639,0.0485l0.01394,0.08927l-0.00784,0.0866l0.00594,0.01092l-0.00966,0.03028l-0.00278,0.03072l-0.08363,0.24012l-0.07729,0.24224l-0.01621,0.02622l-0.00316,0.00905l-0.00895,0.03789l-0.04031,0.07798l-0.01256,0.08687l-0.16407,0.40067l-0.04778,0.06504l-0.047,0.13496l-0.03064,0.09602l-0.03754,0.15885l-0.08167,0.15803l-0.05407,0.16947l-0.04842,0.0783l-0.1711,0.49125l-0.08478,0.26572l-0.01339,0.02167l0.01035,0.06632l0.06658,0.20902l-0.02639,0.0485l0.01394,0.08927l-0.01434,0.15851l-0.04009,0.11509l-0.00777,0.12162l-0.1784,0.55918l-0.01419,0.02294l-0.00301,0.02681l-0.1026,0.27556l-0.08768,0.37105l-0.03211,0.06212l-0.00778,0.06949l-0.07493,0.20125l-0.001,0.01092l-0.08363,0.24013l-0.07729,0.24224l-0.01622,0.02623l-0.01046,0.03001l-0.0113,0.00517l-0.00268,0.00434l-0.0478,0.1498l-0.07165,0.11588l-0.0414,0.12978l-0.16698,0.27003l-0.0884,0.23744l-0.06236,0.09087l-0.0335,0.105l-0.09211,0.14896l-0.0367,0.09856l-0.00099,0.01092l-0.08363,0.24013l-0.0773,0.24224l-0.01621,0.02623l-0.01047,0.03001l-0.0113,0.00517l-0.8225,1.33011l0.00042,0.01242l-0.02218,0.02277l-0.01622,0.02623l-0.18219,0.17736l-0.17747,0.1821l-0.02623,0.01621l-0.02278,0.02217l-0.01241,-0.00043l-0.41569,0.25677l-0.02183,0.2415l-0.02621,0.07522l0.00103,0.07964l-0.05177,0.21905l-0.06395,0.12371l-0.00009,0.00101l-0.16013,0.45979l-0.00078,0.02258l-0.00874,0.00474l-0.01794,0.0515l-0.33871,0.15492l-0.02895,0.02818l-0.03036,-0.00105l-0.08678,0.0397l-0.46839,0.25456l-0.05194,-0.01657l-0.00905,0.00414l-0.01853,-0.01293l-0.46383,-0.14799l-0.1202,-0.07433l-0.01243,0.00042l-0.02276,-0.02218l-0.02623,-0.01622l-0.17737,-0.18219l-0.18211,-0.17746l-0.0162,-0.02623l-0.02217,-0.02278l0.00043,-0.01242l-0.21299,-0.34481l-0.03572,-0.11218l-0.06522,-0.09801l-0.1401,-0.39325l-0.41564,-0.95256l-0.25119,-0.46217l-0.00303,-0.01172l-0.008,-0.00908l-0.19038,-0.3688l-0.01035,-0.04389l-0.027,-0.03613l-0.20187,-0.48186l-0.09166,-0.10987l-0.07742,-0.16017l-0.10314,-0.14494l-0.12985,-0.33136l-0.00227,-0.01761l-0.00983,-0.01478l-0.15296,-0.42934l-0.00111,-0.01133l-0.00611,-0.0096l-0.70071,-2.09873l-0.14923,-0.4189l-0.00242,-0.0249l-0.01292,-0.02142l-0.18056,-0.58754l-0.09267,-0.15004l-0.05399,-0.16949l-0.0816,-0.15807l-0.01982,-0.08401l-0.04653,-0.14606l-0.08497,-0.22178l-0.00884,-0.07277l-0.00719,-0.0226l0.00364,-0.00669l-0.04258,-0.35037l0.00934,-0.07488l-0.01732,-0.07344l0.00504,-0.37608l-0.04664,-0.8186l-0.07177,-0.95544l0.00082,-0.00481l-0.00149,-0.00464l-0.03804,-0.57172l-0.00918,-0.0128l0.0548,-0.29369l0.05306,-0.29401l0.01313,-0.00871l0.22258,-0.486l0.04366,-0.05461l0.02125,-0.06662l1.64715,-2.6637c0.0992,-0.16043 0.23274,-0.28666 0.38527,-0.37508l0.02339,-0.02277l0.0168,0.00058c0.33526,-0.17617 0.75233,-0.17553 1.09777,0.03807z" fill="#01d312" stroke-linecap="butt"/><path d="M241.3661,210.00021l-0.3587,14.92563" fill="none" stroke-linecap="round"/></g><g data-paper-data="{&quot;index&quot;:null}"><path d="M249.90391,211.09884l0.01236,0.00492l0.00972,0.02397c0.08249,0.11264 0.13919,0.24668 0.1601,0.39459l0.34728,2.45594l-0.00577,0.05507l0.0143,0.05351l0.00682,0.42329l0.00675,0.01049l-0.05504,0.23012l-0.05368,0.23045l-0.01073,0.00637l-0.20947,0.40256l-0.00256,0.00289l-0.00093,0.00374l-0.356,0.67014l-0.29423,0.57888l-0.11599,0.27437l-0.03592,0.04775l-0.01704,0.05729l-0.14234,0.24058l0.00051,0.006l-0.01241,0.01411l-0.02957,0.04998l-0.13218,0.13381l-0.08021,0.09114l-0.04109,0.05464l-0.10947,0.08868l-0.09309,0.10576l-0.11494,0.07933l-0.31786,0.3687l-0.01619,0.01143l-0.00968,0.01728l-0.2415,0.25634l-1.17587,1.29927l-0.00748,0.00501l-0.00441,0.00787l-0.24751,0.26273l-0.01183,0.00759l-0.00725,0.01205l-0.19959,0.19902l-0.12091,0.07231l-0.1071,0.09153l-0.10143,0.05054l-0.2997,0.28526l-0.03108,0.01762l-0.02146,0.02856l-0.2554,0.20691l-0.00869,0.00404l-0.00592,0.00754l-0.32921,0.2553l-0.60448,0.55866l-0.22672,0.24066l-0.07849,0.05034l-0.06161,0.06999l-0.26415,0.18232l-0.00364,0.00915l-0.02333,0.00946l-0.02009,0.01387l-0.18854,0.07078l-0.1866,0.07571l-0.02418,0.00342l-0.02357,0.00885l-0.00887,-0.00427l-0.11083,0.01568l-0.38349,-0.04022l-0.01756,0.00348l-0.00525,-0.00588l-0.04295,-0.00451l-0.25874,-0.33364l-0.05032,-0.0564l-0.02235,-0.00889l-0.01203,-0.02965l-0.19638,-0.22011l0.00337,-0.04306l-0.00483,-0.00623l0.00663,-0.01663l0.03012,-0.38441l0.00026,-0.00077l-0.00702,-0.11006l0.03214,-0.17535l0.02608,-0.05744l0.00493,-0.06288l0.061,-0.1821l-0.21982,-0.31848l-0.00914,-0.00364l-0.00947,-0.02332l-0.01388,-0.02009l-0.07077,-0.18854l-0.07572,-0.1866l-0.00341,-0.02419l-0.00885,-0.02356l0.00426,-0.00888l-0.17342,-1.22635l-0.00655,-0.00734l0.00196,-0.0251l-0.00342,-0.02419l0.02101,-0.20028l0.01573,-0.20076l0.00276,-0.00823l0.00475,-0.08316l-0.01942,-0.13734l0.0091,-0.08682l-0.01632,-0.08576l0.01141,-0.20033l-0.03521,-0.24898l0.01126,-0.1073l-0.01511,-0.10683l0.01299,-0.12386l-0.00056,-0.004l-0.00655,-0.00734l0.00196,-0.0251l-0.00342,-0.02418l0.02101,-0.20029l0.01573,-0.20076l0.00276,-0.00823l0.00968,-0.1698l0.01647,-0.05288l-0.00352,-0.05527l0.05443,-0.29701l0.01326,-0.2325l0.00635,-0.0204l-0.00299,-0.02116l0.04849,-0.46232l0.03305,-0.09069l0.00753,-0.09622l0.04003,-0.11952l0.03851,-0.06031l-0.00371,-0.04357l0.11478,-0.13042l0.0286,-0.04481l-0.00282,-0.01997l0.02304,-0.21968l0.03218,-0.41073l-0.0102,-0.07219l0.01469,-0.14012l-0.00897,-0.1406l0.02331,-0.12715l0.00833,-0.07939l0.00884,-0.11284l-0.01397,-0.06238l0.00846,-0.34279l0.01852,-0.06701l-0.00443,-0.06938l0.00556,-0.03033l0.0006,-0.00757l-0.00342,-0.02418l0.02101,-0.20028l0.01574,-0.20077l0.00776,-0.02315l0.00263,-0.02504l0.00779,-0.00603l0.02187,-0.0653l0.0385,-0.06032l-0.0037,-0.04357l0.11478,-0.13043l0.09348,-0.14644l0.04289,-0.00851l0.04728,-0.05372l0.05667,-0.03913l0.00364,-0.00915l0.02333,-0.00946l0.0201,-0.01387l0.18854,-0.07078l0.1866,-0.07571l0.02418,-0.00342l0.02356,-0.00884l0.00888,0.00426l0.22246,-0.03146l0.44924,0.04712l0.04204,0.05421l0.34046,-0.04814l0.03225,-0.01608l0.13757,-0.03036l0.13055,-0.05297l0.02663,-0.00376l0.19181,-0.09557l0.01023,-0.00226l0.00812,-0.00662l0.68483,-0.32155l0.73292,-0.36516l0.00541,-0.00374l0.00365,-0.00914l0.02333,-0.00947l0.02009,-0.01387l0.18854,-0.07078l0.1866,-0.07571l0.02417,-0.00343l0.02357,-0.00884l0.00887,0.00426l0.39471,-0.05581l0.1154,-0.04683l0.10683,-0.01511l0.09997,-0.04057l0.21953,-0.03105l0.26685,-0.10018l0.11418,0.05481l0.01342,-0.01041l0.13967,0.05557l0.18992,-0.01617l0.19026,0.16744l0.30084,0.1197l0.01239,0.03055c0.05681,-0.02076 0.11666,-0.03592 0.17894,-0.04472c0.3185,-0.04504 0.62119,0.08717 0.80831,0.3216z" fill="#01d312" stroke-linecap="butt"/><path d="M247.61654,211.18836l-4.48793,10.93948" fill="none" stroke-linecap="round"/></g><g><path d="M235.37641,208.91092c0.05352,0.03308 0.10222,0.07101 0.14591,0.11283l0.02363,-0.023l0.32358,0.01122l0.24149,-0.07692l0.16743,0.09109l0.15022,0.00522l0.0081,0.01492l0.12659,-0.00432l0.20413,0.19893l0.18857,0.11661l0.07527,0.07731l0.09177,0.05675l0.08687,0.08924l0.33906,0.20965l0.00984,-0.00033l0.01803,0.01756l0.02076,0.01284l0.14048,0.14428l0.14423,0.14055l0.01283,0.02078l0.01756,0.01803l-0.00034,0.00984l0.00346,0.0056l0.52452,0.6288l0.498,0.56954l0.00478,0.00931l0.00846,0.00618l0.13727,0.16457l0.02288,0.01415l0.09827,0.10094l0.1138,0.08307l0.02309,0.02768l0.29244,0.18084l0.06028,-0.03276l0.43033,0.13729l0.19109,0.11817l0.00984,-0.00034l0.01803,0.01756l0.02077,0.01284l0.14048,0.14429l0.14423,0.14054l0.01283,0.02078l0.01756,0.01804l-0.00034,0.00984l0.03619,0.05859l0.02172,0.06819l0.03586,0.02502l0.02679,0.17166l0.05273,0.16554l-0.0209,0.03841l0.01104,0.0707l-0.0062,0.06859l0.00471,0.00865l-0.00764,0.02398l-0.0022,0.02432l-0.06624,0.19018l-0.06121,0.19186l-0.01284,0.02077l-0.0025,0.00717l-0.00709,0.03001l-0.03192,0.06177l-0.00996,0.0688l-0.12994,0.31732l-0.03784,0.05151l-0.03723,0.10689l-0.02427,0.07605l-0.02972,0.12579l-0.06469,0.12516l-0.04282,0.13422l-0.03835,0.06201l-0.1355,0.38906l-0.06714,0.21044l-0.0106,0.01716l0.0082,0.05253l0.05272,0.16555l-0.02089,0.03841l0.01104,0.0707l-0.01135,0.12554l-0.03175,0.09114l-0.00616,0.09633l-0.14129,0.44286l-0.01124,0.01818l-0.00238,0.02123l-0.08125,0.21824l-0.06944,0.29387l-0.02543,0.0492l-0.00616,0.05504l-0.05934,0.15938l-0.00078,0.00865l-0.06624,0.19018l-0.06121,0.19185l-0.01284,0.02078l-0.00829,0.02378l-0.00895,0.00409l-0.00212,0.00343l-0.03786,0.11865l-0.05674,0.09177l-0.03279,0.10279l-0.13225,0.21386l-0.07002,0.18804l-0.04939,0.07198l-0.02654,0.08317l-0.07295,0.11797l-0.02905,0.07806l-0.00078,0.00865l-0.06624,0.19018l-0.06121,0.19186l-0.01285,0.02077l-0.00828,0.02378l-0.00895,0.00409l-0.6514,1.05342l0.00034,0.00984l-0.01756,0.01803l-0.01284,0.02077l-0.14429,0.14047l-0.14055,0.14423l-0.02077,0.01283l-0.01804,0.01757l-0.00984,-0.00034l-0.32922,0.20336l-0.01729,0.19127l-0.02075,0.05957l0.00081,0.06308l-0.041,0.17348l-0.05065,0.09797l-0.00007,0.0008l-0.12682,0.36414l-0.00062,0.0179l-0.00692,0.00376l-0.01421,0.04078l-0.26825,0.12269l-0.02293,0.02232l-0.02404,-0.00083l-0.06873,0.03143l-0.37097,0.20162l-0.04114,-0.01312l-0.00716,0.00328l-0.01469,-0.01024l-0.36735,-0.1172l-0.09519,-0.05886l-0.00984,0.00034l-0.01803,-0.01757l-0.02077,-0.01284l-0.14047,-0.14428l-0.14423,-0.14055l-0.01283,-0.02078l-0.01757,-0.01803l0.00035,-0.00984l-0.16867,-0.27308l-0.02831,-0.08883l-0.05166,-0.07763l-0.11096,-0.31145l-0.32918,-0.75441l-0.19894,-0.36603l-0.0024,-0.00928l-0.00633,-0.0072l-0.15078,-0.29207l-0.00819,-0.03477l-0.02138,-0.02862l-0.15988,-0.38162l-0.07259,-0.08703l-0.06132,-0.12684l-0.08168,-0.11479l-0.10283,-0.26243l-0.0018,-0.01394l-0.0078,-0.0117l-0.12113,-0.34002l-0.00088,-0.00898l-0.00484,-0.00759l-0.55496,-1.66216l-0.1182,-0.33177l-0.00192,-0.01971l-0.01024,-0.01696l-0.143,-0.46532l-0.0734,-0.11882l-0.04276,-0.13425l-0.06463,-0.12518l-0.01568,-0.06654l-0.03685,-0.11568l-0.0673,-0.17564l-0.007,-0.05765l-0.00569,-0.0179l0.00287,-0.00529l-0.03372,-0.27749l0.0074,-0.0593l-0.01371,-0.05816l0.00399,-0.29786l-0.03693,-0.64831l-0.05685,-0.7567l0.00066,-0.00379l-0.00118,-0.00367l-0.03013,-0.4528l-0.00727,-0.01013l0.04341,-0.23261l0.04202,-0.23285l0.0104,-0.0069l0.17628,-0.38491l0.03458,-0.04325l0.01684,-0.05276l1.30452,-2.10961c0.07858,-0.12705 0.18433,-0.22703 0.30512,-0.29705l0.01853,-0.01804l0.0133,0.00045c0.26553,-0.13952 0.59583,-0.13903 0.86943,0.03016z" fill="#01d312" stroke-linecap="butt"/><path d="M236.56577,209.88149l-0.28408,11.82088" fill="none" stroke-linecap="round"/></g></g><path d="M265.57005,193.27699c0,13.25484 -11.52867,24 -25.75,24c-14.22133,0 -25.75,-10.74516 -25.75,-24c0,-13.25484 11.52867,-24 25.75,-24c14.22133,0 25.75,10.74516 25.75,24z" fill="#01d312" stroke="#029f0f" stroke-width="2.5" stroke-linecap="butt"/><g stroke-linecap="butt"><path d="M286.53725,189.80512c0,12.01219 -6.26801,21.75 -14,21.75c-7.73199,0 -14,-9.73781 -14,-21.75c0,-12.01219 6.26801,-21.75 14,-21.75c7.73199,0 14,9.73781 14,21.75z" fill="#01d312" stroke="#029f0f" stroke-width="2.5"/><path d="M284.53725,189.80512c0,8.42234 -3.69365,15.25 -8.25,15.25c-4.55635,0 -8.25,-6.82766 -8.25,-15.25c0,-8.42234 3.69365,-15.25 8.25,-15.25c4.55635,0 8.25,6.82766 8.25,15.25z" fill="#0f0f0f" stroke="none" stroke-width="0"/></g><path d="M244.80281,220.66728c-18.24348,0 -33.03276,-12.79171 -33.03276,-28.57109c0,-15.77938 14.78928,-28.57109 33.03276,-28.57109c1.51501,0 3.00619,0.08822 4.46706,0.25904c-1.86627,0.8184 -3.72303,1.81259 -5.39533,2.58854c-7.57133,3.58205 -9.33434,10.9579 -9.33434,18.38932c0.00014,5.23102 1.74178,10.19135 2.57126,15.1577c0.45475,2.72272 2.13116,5.21681 2.14829,7.98944c1.53841,3.08462 2.66397,5.93789 4.80891,8.54972c1.18551,1.44356 3.56349,2.09454 4.06091,4.06532c-1.09408,0.09464 -2.20388,0.1431 -3.32677,0.1431z" fill="#222a38" stroke="#14435c" stroke-width="2" stroke-linecap="butt"/><g data-paper-data="{&quot;index&quot;:null}" stroke-width="0" stroke-linecap="butt"><path d="M249.33531,184.82421c-0.00249,1.82055 -2.24207,3.29334 -5.00226,3.28957c-2.76019,-0.00377 -4.99575,-1.48267 -4.99326,-3.30322c0.00249,-1.82055 2.24207,-3.29334 5.00226,-3.28957c2.76019,0.00377 4.99575,1.48267 4.99326,3.30322z" fill="#0f0f0f" stroke="#029f0f"/><path d="M247.42258,183.86458c-0.00096,0.70473 -0.85869,1.27485 -1.91578,1.27341c-1.05709,-0.00144 -1.91326,-0.57391 -1.91229,-1.27864c0.00096,-0.70473 0.85869,-1.27485 1.91578,-1.27341c1.05709,0.00144 1.91326,0.57391 1.91229,1.27864z" fill="#ece4e4" stroke="none"/></g><g data-paper-data="{&quot;index&quot;:null}" stroke-width="0" stroke-linecap="butt"><path d="M251.85622,194.25631c-0.00315,2.30899 -2.8436,4.17692 -6.34432,4.17214c-3.50072,-0.00478 -6.33607,-1.88046 -6.33292,-4.18945c0.00315,-2.30899 2.8436,-4.17692 6.34432,-4.17214c3.50072,0.00478 6.33607,1.88046 6.33292,4.18945z" fill="#0f0f0f" stroke="#029f0f"/><path d="M249.43032,193.03921c-0.00122,0.8938 -1.08906,1.61688 -2.42976,1.61505c-1.3407,-0.00183 -2.42656,-0.72788 -2.42534,-1.62169c0.00122,-0.8938 1.08906,-1.61688 2.42976,-1.61505c1.3407,0.00183 2.42656,0.72788 2.42534,1.62169z" fill="#ece4e4" stroke="none"/></g><path d="M252.53727,188.3334c-0.88388,0.88388 -1.76777,0 -1.76777,0l-0.99546,-1.24738c-0.4901,-1.96038 -0.70399,-3.61647 -0.70399,-5.6365c0,0 0,-1.25 1.25,-1.25c1.25,0 1.25,1.25 1.25,1.25c0,1.83193 0.18471,3.25164 0.62934,5.03016l0.33787,0.08595c0,0 0.88388,0.88388 0,1.76777z" fill="#111111" stroke="none" stroke-width="0.5" stroke-linecap="butt"/><path d="M254.382,186.63537c-1.18585,0.39528 -1.58114,-0.79057 -1.58114,-0.79057l-0.36016,-1.09212c-0.23602,-0.9693 -0.36437,-1.97223 -0.37066,-2.96984c0,0 0,-1.25 1.25,-1.25c1.25,0 1.25,1.25 1.25,1.25c-0.0063,0.79396 0.09754,1.59472 0.29601,2.3635l0.30651,0.90788c0,0 0.39528,1.18585 -0.79057,1.58114z" fill="#111111" stroke="none" stroke-width="0.5" stroke-linecap="butt"/><path d="M252.98672,196.69952c-1.25,0 -1.25,-1.25 -1.25,-1.25c0,-1.33333 0,-3.66667 0,-5c0,0 0,-1.25 1.25,-1.25c1.25,0 1.25,1.25 1.25,1.25c0,1.33333 0,2.66667 0,4v1c0,0 0,1.25 -1.25,1.25z" fill="#111111" stroke="none" stroke-width="0.5" stroke-linecap="butt"/><path d="M256.98672,198.03285c-1.25,0 -1.25,-1.25 -1.25,-1.25c0,-2.11111 0,-5.22222 0,-7.33333c0,0 0,-1.25 1.25,-1.25c1.25,0 1.25,1.25 1.25,1.25c0,2.11111 0,4.22222 0,6.33333v1c0,0 0,1.25 -1.25,1.25z" fill="#111111" stroke="none" stroke-width="0.5" stroke-linecap="butt"/><path d="M224.20011,201.59553c-0.24684,-0.5631 1.97973,-2.47666 1.97973,-2.47666c0,0 -0.69092,-2.65013 -0.34604,-3.1499c0.39532,-0.57286 2.86267,0.62899 2.86267,0.62899c0,0 2.2648,-2.13553 2.60117,-2.01976c0.48667,0.1675 0.24273,3.60166 0.24273,3.60166c0,0 2.32979,1.73262 2.27972,2.08244c-0.09916,0.69278 -2.9984,1.00384 -2.9984,1.00384c0,0 -1.17449,3.525 -1.54674,3.53289c-0.62724,0.01331 -1.58558,-2.84235 -1.58558,-2.84235c0,0 -3.22034,0.25232 -3.48926,-0.36114z" fill="#edcf15" stroke="none" stroke-width="0" stroke-linecap="round"/><path d="M235.9454,208.45345c0.34423,0.38455 -0.93102,2.49349 -0.93102,2.49349c0,0 1.24456,1.93302 1.10025,2.42189c-0.16541,0.56036 -2.44793,0.24739 -2.44793,0.24739c0,0 -1.24765,2.29598 -1.54624,2.29166c-0.43202,-0.00625 -1.13605,-2.80927 -1.13605,-2.80927c0,0 -2.31168,-0.77235 -2.36328,-1.06447c-0.10218,-0.57853 2.12893,-1.58528 2.12893,-1.58528c0,0 0.01441,-3.11896 0.30927,-3.22266c0.49681,-0.17474 2.00845,1.85223 2.00845,1.85223c0,0 2.5026,-1.04393 2.87762,-0.62498z" data-paper-data="{&quot;index&quot;:null}" fill="#edcf15" stroke="none" stroke-width="0" stroke-linecap="round"/><path d="M225.09168,209.61633c0,0 -1.85945,2.49336 -2.47057,2.27841c-0.3627,-0.12757 -0.38043,-3.96416 -0.38043,-3.96416c0,0 -2.74446,-1.23839 -2.61877,-1.95003c0.06347,-0.35933 2.90705,-1.3094 2.90705,-1.3094c0,0 0.86602,-3.44795 1.39744,-3.45564c0.3673,-0.00531 1.90202,2.81895 1.90202,2.81895c0,0 2.80769,-0.385 3.01117,0.3043c0.17751,0.60136 -1.3534,2.97914 -1.3534,2.97914c0,0 1.56867,2.59418 1.14523,3.06721c-0.46131,0.51534 -3.53973,-0.76878 -3.53973,-0.76878z" data-paper-data="{&quot;index&quot;:null}" fill="#edcf15" stroke="none" stroke-width="0" stroke-linecap="round"/><path d="M234.05412,173.33788l1.03488,2.35097l-3.43082,3.31935l3.23131,3.02485l-1.27491,2.07673l-2.24647,-2.28827l-3.31618,-3.53152z" fill="#edcf15" stroke="none" stroke-width="0" stroke-linecap="round"/><path d="M227.15412,173.03788l1.03488,2.35097l-3.43082,3.31935l3.23131,3.02485l-1.27491,2.07673l-2.24647,-2.28827l-3.31618,-3.53152z" fill="#edcf15" stroke="none" stroke-width="0" stroke-linecap="round"/><path d="M223.35412,172.43788l1.03488,2.35097l-3.43082,3.31935l3.23132,3.02485l-1.27492,2.07673l-2.24647,-2.28827l-3.31618,-3.53152z" fill="#edcf15" stroke="none" stroke-width="0" stroke-linecap="round"/><path d="M230.38696,173.13788l1.00606,2.28549l-3.33527,3.2269l3.14132,2.94061l-1.23941,2.0189l-2.18391,-2.22454l-3.22383,-3.43316z" fill="#edcf15" stroke="none" stroke-width="0" stroke-linecap="round"/><path d="M275.75836,186.20153v-3.6h16v3.6z" fill="#939496" stroke="#14435c" stroke-width="0.5" stroke-linecap="butt"/><path d="M276.15836,194.20153v-3.2h15.4v3.2z" fill="#939496" stroke="#14435c" stroke-width="0.5" stroke-linecap="butt"/><path d="M275.75836,198.00153v-2.8h14.8v2.8z" fill="#939496" stroke="#14435c" stroke-width="0.5" stroke-linecap="butt"/><path d="M274.55836,203.40153v-3h16.6v3z" fill="#939496" stroke="#14435c" stroke-width="0.5" stroke-linecap="butt"/><path d="M275.55836,190.40153v-3.2h18v3.2z" fill="#939496" stroke="#14435c" stroke-width="0.5" stroke-linecap="butt"/><path d="M273.15836,203.00153l-0.8,-23.8h6.4v25.2z" fill="#080809" stroke="none" stroke-width="0" stroke-linecap="butt"/></g></g></g></svg>