<svg version="1.1" xmlns="http://www.w3.org/2000/svg" xmlns:xlink="http://www.w3.org/1999/xlink" width="106.16607" height="141.80593" viewBox="0,0,106.16607,141.80593"><defs><linearGradient x1="322.09094" y1="106.53953" x2="342.05373" y2="225.73839" gradientUnits="userSpaceOnUse" id="color-1"><stop offset="0" stop-color="#b1cf16"/><stop offset="1" stop-color="#e9f366"/></linearGradient><radialGradient cx="317.97026" cy="142.2769" r="4.53045" gradientUnits="userSpaceOnUse" id="color-2"><stop offset="0" stop-color="#020702"/><stop offset="1" stop-color="#050a02"/></radialGradient><radialGradient cx="355.73242" cy="142.7899" r="3.5533" gradientUnits="userSpaceOnUse" id="color-3"><stop offset="0" stop-color="#020702"/><stop offset="1" stop-color="#050a02"/></radialGradient></defs><g transform="translate(-283.5346,-81.83677)"><g data-paper-data="{&quot;isPaintingLayer&quot;:true}" fill-rule="nonzero" stroke-linejoin="miter" stroke-miterlimit="10" stroke-dasharray="" stroke-dashoffset="0" style="mix-blend-mode: normal"><path d="M374.855,209.24063c1.13064,0.3327 0.68269,1.00331 0.68269,1.00331l-0.9052,1.05262c-2.03502,0.12808 -3.97015,0.47634 -5.9902,0.49748c-0.01021,0.00017 -0.02049,0.00029 -0.03076,0.00029c-0.15312,0.0003 -0.30209,-0.01698 -0.44146,-0.04873c-0.35779,-0.0723 -0.81262,-0.25181 -0.87512,-0.69753c-0.06248,-0.44573 0.34175,-0.62688 0.67906,-0.7005c0.13038,-0.03228 0.27446,-0.05012 0.42759,-0.05042c0.00988,-0.00001 0.01976,0.00003 0.02962,0.00016c1.70914,0.00581 2.96982,-0.6055 4.74875,-0.27189l0.09648,-0.4469c0,0 0.44791,-0.67062 1.57857,-0.33789z" fill="#334a0d" stroke="none" stroke-width="0.5" stroke-linecap="butt"/><g><g stroke="#004700" stroke-width="1" stroke-linecap="butt"><path d="M319.09973,126.77687c0,0 0.72388,-15.06626 1.52873,-21.48534c0.72063,-5.74759 4.83806,-18.31091 4.83806,-18.31091c0,0 10.66851,5.5281 12.29525,5.84938c0.34168,0.06751 3.48557,1.76875 3.48557,1.76875c0,0 -4.12856,8.42821 -4.82613,13.99182c-0.81799,6.5239 -2.64368,21.08505 -2.64368,21.08505z" fill="#399435"/><path d="M342.65728,94.18824c-0.28627,2.28307 -2.9508,1.30022 -6.95138,0.32989c-0.67375,-0.16343 -1.05732,-2.94274 -1.80185,-3.08983c-0.96575,-0.19072 -2.21503,2.05801 -3.07248,1.56905c-3.72894,-2.12653 -6.25148,-6.55009 -5.97955,-8.71893c0.33445,-2.66758 4.92114,-2.12164 10.08663,-1.10151c5.16552,1.02016 8.05311,8.34371 7.71866,11.0113z" fill="#91e665"/></g><path d="M289.8742,208.45529c-4.86877,-9.6007 -5.19973,-19.24221 -5.3396,-29.74262c-0.15233,-11.43883 0.02358,-21.42507 3.97031,-32.06826c2.32664,-4.93902 4.72614,-10.05724 6.65433,-15.18164c3.03133,-8.0561 4.45256,-17.3693 12.60242,-21.85676c4.7233,-2.60073 11.51868,-3.85162 16.51606,-0.80194c1.42831,0.87162 3.24851,1.26865 4.58109,2.22684c2.42788,-2.06332 2.82751,-2.79523 7.23501,-0.66143c1.06547,0.51584 2.05338,1.32058 2.76551,2.27613c0.60658,-0.73733 1.51724,-1.24019 2.30882,-1.79576c2.81439,-1.9752 3.62468,-2.33891 7.1596,-2.3243c8.3897,0.03465 11.53194,8.00918 14.37447,14.66185c1.80514,4.43866 4.32255,8.78252 5.80718,13.30088c0.35558,1.08218 0.96304,4.57206 1.67159,5.87116c2.1688,3.97656 4.95185,7.41986 6.67351,11.68806c3.40106,8.43164 5.2982,17.67891 7.58473,26.38096c1.70818,6.50104 4.2156,13.16409 4.26144,19.77813c0.02313,0.68528 0.29076,8.1968 0.24197,8.58449c-0.24959,1.98374 -1.74745,3.57817 -2.04128,5.55269c-0.17235,1.15834 0.5905,2.5272 0.07435,3.55632c-2.19842,4.38303 -9.6851,5.34846 -14.32307,4.42192c-3.02012,-0.60333 -4.53153,-1.77172 -6.81744,-3.74558c-0.85758,-0.74051 -1.74592,-1.47861 -2.42494,-2.38061c-0.24062,-0.31968 0.15089,-1.19547 -0.22954,-1.14571c-0.47318,0.0619 -0.21797,0.99747 -0.60428,1.25478c-1.96289,1.30758 -4.23725,2.16737 -6.5143,2.90342c-6.22233,2.01133 -11.56856,0.92622 -17.2472,-2.62714c-0.74236,-0.97497 -1.5272,-1.92126 -2.2271,-2.92488c-0.22974,-0.32946 -0.1717,-1.11611 -0.55327,-1.06209c-0.51382,0.07271 -0.40702,0.98791 -0.8341,1.25848c-3.323,2.10533 -7.54607,3.4925 -11.50547,4.19868c-10.5939,1.88944 -27.02821,4.71395 -34.64181,-5.76408c0,0 -1.5997,-2.28956 0.59668,-3.69961c0.07549,-0.04845 0.15028,-0.09255 0.22432,-0.1325z" fill="url(#color-1)" stroke="#334a0d" stroke-width="2" stroke-linecap="butt"/><path d="M350.24684,139.14592c2.37782,-0.2105 3.09078,-5.42663 5.05228,-4.2579c2.71355,1.61684 4.73926,4.33299 5.27609,7.53848c0.92488,5.52253 -2.91963,10.40623 -8.587,10.90795c-5.66737,0.50175 -10.11188,-1.30625 -11.03679,-6.82883c-0.92488,-5.52253 1.93859,-6.93682 7.60595,-7.43853z" data-paper-data="{&quot;index&quot;:null}" fill="#f6f9df" stroke="#354c0d" stroke-width="1.5" stroke-linecap="butt"/><path d="M332.01726,143.84592c0.92488,5.52253 -2.79303,8.05321 -8.4604,8.55496c-5.66737,0.50175 -11.01142,-3.56842 -11.93629,-9.09097c-0.53682,-3.20549 0.53315,-6.19574 2.63379,-8.23876c1.51842,-1.47682 5.42252,5.08436 7.80033,4.87384c5.66737,-0.50175 9.03765,-1.62159 9.96254,3.90095z" fill="#f6f9df" stroke="#354c0d" stroke-width="1.5" stroke-linecap="butt"/><path d="M358.75463,139.7496c-1.07197,0.09491 -1.2514,-0.97646 -1.2514,-0.97646l0.03068,-0.01084c-0.9989,-2.66835 -2.67015,-1.12142 -4.81084,-0.92504c-2.22565,0.11911 -4.16863,2.74765 -6.65765,3.29941c-6.50877,1.44287 -12.44995,0.72978 -18.8935,-1.71511c-2.05289,-0.95353 -4.36231,0.05581 -7.03531,-0.60224c-4.59694,-1.13174 -9.56672,-3.00051 -11.0858,2.01152c0,0 -0.31889,1.00073 -1.35796,0.60645c-1.03906,-0.39423 -0.72013,-1.39495 -0.72013,-1.39495c3.04723,-9.22017 13.9045,-5.8473 20.91631,-2.59045c6.03223,2.28882 11.46351,2.885 17.55826,1.58129c2.78048,-0.59478 4.22085,-3.04027 6.91689,-3.33864c3.23142,-0.27393 5.37859,-1.52335 7.16262,2.36396l0.12039,0.52487c0,0 0.17943,1.07137 -0.89255,1.16626z" fill="#334a0d" stroke="none" stroke-width="0.5" stroke-linecap="butt"/><path d="M320.56084,142.04754c0.42116,2.51474 -0.3973,4.65603 -1.82806,4.78267c-1.43075,0.12666 -2.93202,-1.80926 -3.35316,-4.32397c-0.42116,-2.51474 0.39729,-4.65599 1.82803,-4.78268c1.43075,-0.12666 2.93203,1.80925 3.35317,4.32397z" fill="url(#color-2)" stroke="none" stroke-width="0" stroke-linecap="butt"/><path d="M358.41236,142.55264c0.33032,1.97234 -0.60178,3.67745 -2.08185,3.8085c-1.48008,0.131 -2.94773,-1.36164 -3.27805,-3.33396c-0.33032,-1.97234 0.60176,-3.67746 2.08185,-3.8085c1.48008,-0.131 2.94773,1.36164 3.27805,3.33396z" fill="url(#color-3)" stroke="none" stroke-width="0" stroke-linecap="butt"/><path d="M311.7831,190.40798c-0.63114,0.82469 -1.516,0.13422 -1.516,0.13422l-0.86476,-0.77499c-3.15716,0.68266 -6.96182,2.19862 -8.62031,-2.16604c-0.06708,-0.17656 -0.55634,-3.14825 -0.60819,-3.45772c0,0 -0.17945,-1.07137 0.89256,-1.16625c1.07197,-0.09491 1.2514,0.97646 1.2514,0.97646c0.16571,0.98936 0.11889,2.01545 0.46839,2.97048c1.11076,3.0353 4.76892,0.86835 7.10507,0.79076l1.63808,1.17791c0,0 0.88487,0.69047 0.25375,1.51514z" fill="#334a0d" stroke="none" stroke-width="0.5" stroke-linecap="butt"/><path d="M373.6673,188.71894c0.5516,3.09714 -13.6298,-2.59776 -21.35966,-3.9368c-7.2572,-1.25714 -14.47347,-3.13051 -14.71875,-3.106c-3.89539,0.38913 -7.44159,1.34011 -10.354,2.33745c-4.80715,1.64617 -19.29958,1.16061 -19.99994,-2.77168c-1.12467,-6.31469 16.11732,-16.466 26.44228,-17.49739c10.32496,-1.0314 38.86543,18.65972 39.99008,24.97442z" fill="#ffffff" stroke="#334a0d" stroke-width="1.5" stroke-linecap="butt"/><path d="M318.67068,170.19558l5.31006,12.34472" fill="none" stroke="#334a0d" stroke-width="1.5" stroke-linecap="round"/><path d="M342.20493,166.60666l1.96854,19.11615" fill="none" stroke="#334a0d" stroke-width="1.5" stroke-linecap="round"/><path d="M359.78014,175.25019l0.71208,12.06126" fill="none" stroke="#334a0d" stroke-width="1.5" stroke-linecap="round"/><path d="M309.56801,182.24686l31.75215,-9.85703l31.74686,15.64626" fill="none" stroke="#334a0d" stroke-width="1.5" stroke-linecap="round"/></g></g></g></svg>