<svg version="1.1" xmlns="http://www.w3.org/2000/svg" xmlns:xlink="http://www.w3.org/1999/xlink" width="106.34964" height="90.52718" viewBox="0,0,106.34964,90.52718"><g transform="translate(-198.84912,-124.06307)"><g data-paper-data="{&quot;isPaintingLayer&quot;:true}" fill-rule="nonzero" stroke-linejoin="miter" stroke-miterlimit="10" stroke-dasharray="" stroke-dashoffset="0" style="mix-blend-mode: normal"><g data-paper-data="{&quot;index&quot;:null}" stroke-linecap="butt"><path d="M266.35476,141.45668c-0.5136,0.45395 -1.03199,0.90271 -1.5543,1.34731c-0.52984,0.17496 -0.61207,2.09566 -1.07368,2.4226c-1.37805,0.97607 -2.95422,0.75566 -4.52032,1.25446c-1.62851,0.51868 -3.97916,-0.6205 -5.49039,-0.03284l-0.04407,-0.12912c0,0 -1.20862,-0.01165 -1.65428,0.97471c-0.64313,-1.58569 -1.98426,-1.39334 -2.94893,-2.86896c-1.23321,-1.88639 -2.16913,-5.38939 -3.66026,-6.90304c-0.55581,-0.3429 -1.13125,-0.67836 -1.72237,-1.0008c7.66351,-3.02105 16.10148,-1.87674 21.54763,3.67537c0.39739,0.40512 0.771,0.82572 1.12097,1.26032z" fill="#82e7ff" stroke="#04acd6" stroke-width="1.5"/><path d="M254.86897,144.06686c-0.27836,-0.28377 -0.27396,-0.73948 0.00981,-1.01785c0.28377,-0.27836 0.73948,-0.27395 1.01785,0.00982c0.27836,0.28377 0.27396,0.73947 -0.00981,1.01784c-0.28377,0.27836 -0.73948,0.27396 -1.01785,-0.00981z" fill="#050303" stroke="none" stroke-width="0.5"/><path d="M251.77751,141.05533c-0.27836,-0.28377 -0.27396,-0.73948 0.00981,-1.01785c0.28377,-0.27836 0.73948,-0.27396 1.01785,0.00981c0.27836,0.28377 0.27395,0.73947 -0.00982,1.01784c-0.28377,0.27836 -0.73947,0.27396 -1.01784,-0.00981z" fill="#050303" stroke="none" stroke-width="0.5"/><path d="M255.46774,140.27896c-0.27836,-0.28377 -0.27396,-0.73948 0.00981,-1.01785c0.28377,-0.27836 0.73947,-0.27396 1.01784,0.00981c0.27836,0.28377 0.27396,0.73947 -0.00981,1.01784c-0.28377,0.27836 -0.73947,0.27396 -1.01784,-0.00981z" fill="#050303" stroke="none" stroke-width="0.5"/><path d="M259.70814,142.49278c-0.18548,0.06863 -0.3699,0.13793 -0.55317,0.20799c-0.17101,-0.01081 -0.33879,-0.08235 -0.46821,-0.2143c-0.27836,-0.28377 -0.27396,-0.73947 0.00981,-1.01784c0.28377,-0.27836 0.73948,-0.27395 1.01785,0.00982c0.2772,0.28259 0.27401,0.73567 -0.00626,1.01433z" fill="#050303" stroke="none" stroke-width="0.5"/><path d="M248.28005,139.22607c-0.27836,-0.28377 -0.27398,-0.73947 0.00979,-1.01784c0.28377,-0.27836 0.73948,-0.27396 1.01785,0.00981c0.27836,0.28377 0.27395,0.73947 -0.00982,1.01784c-0.28377,0.27836 -0.73947,0.27396 -1.01784,-0.00981z" fill="#050303" stroke="none" stroke-width="0.5"/></g><g><path d="M250.45756,124.75459l17.79587,11.40173l-9.97791,17.05206l-18.27578,-12.02689z" fill="#3b9987" stroke="#3b9987" stroke-width="1" stroke-linecap="butt"/><path d="M263.22774,132.75419l4.84337,3.27612l-10.04036,17.38304l-5.03532,-3.52618z" fill-opacity="0.62059" fill="#7bcebf" stroke="#29907d" stroke-width="0" stroke-linecap="butt"/><path d="M250.45756,124.75459l14.11171,8.98389c0,0 -3.48246,4.97842 -5.29458,7.56896c-1.91181,2.73306 -5.8932,8.42474 -5.8932,8.42474l-13.38175,-8.55069z" fill-opacity="0.25158" fill="#7bcebf" stroke="none" stroke-width="0" stroke-linecap="butt"/><path d="M243.65983,135.33305l14.16385,8.05023l-4.42294,6.30927c0,0 -8.38955,-4.6032 -11.03282,-6.03975c-1.33871,-0.72756 -3.02503,-1.64405 -3.02503,-1.64405z" fill-opacity="0.54612" fill="#7bcebf" stroke="none" stroke-width="0" stroke-linecap="butt"/><path d="M243.9618,135.19759l13.93374,7.99758" fill="none" stroke="#29907d" stroke-width="0.5" stroke-linecap="round"/><path d="M253.21258,149.94706l11.3258,-16.20548" fill="none" stroke="#29907d" stroke-width="0.5" stroke-linecap="round"/><path d="M260.80732,135.04257c-0.3468,1.78471 -0.65485,3.61369 -2.35262,4.60803c-0.95428,0.30708 -2.63649,0.05512 -2.97754,-1.12657c-0.1549,-0.5367 0.39549,-1.5804 -0.05063,-2.07875c-1.00257,-1.11996 -2.02785,1.04725 -3.00637,0.97673c-1.14374,-0.08241 -2.10697,-1.42957 -2.25982,-2.41906c-0.02501,-1.92968 -1.8101,-0.52546 -1.88567,-2.30977c-0.12559,-2.9649 2.99935,-1.5248 4.10596,-2.03058c0.93362,-0.42672 0.00194,-1.97773 1.87817,-1.48538c1.50858,0.73259 1.69025,2.08967 2.79942,2.94065c1.11597,0.85619 1.53683,-0.66215 2.63641,-0.29664c1.18655,0.39442 1.626,1.93514 1.31516,2.96358c0,0 -0.05655,0.16614 -0.20247,0.25777z" fill="#b9f8ed" stroke="none" stroke-width="0.5" stroke-linecap="butt"/><path d="M263.16592,142.7221l-0.01723,0.04605c-1.27662,1.41805 -1.12844,3.23017 -2.2666,4.67531c-0.66017,0.83824 -1.41253,0.99905 -1.90559,2.01342c-0.51313,1.04898 -0.82679,1.98956 -2.02366,2.47446c-1.26631,0.51302 -2.61473,-1.01201 -2.43343,-2.26961c0.17939,-1.24435 2.6685,-2.49126 3.37483,-3.9444c0.4602,-0.94674 0.34082,-2.36451 0.83647,-3.16757c0.51473,-0.83397 1.63128,-0.48103 2.24067,-1.19153c0.0954,-0.11123 0.60368,-0.99361 0.62578,-1.00609c1.42696,-0.80576 2.20618,1.16751 1.77827,2.15114c0,0 -0.06905,0.14208 -0.2095,0.21883z" fill="#b9f8ed" stroke="none" stroke-width="0.5" stroke-linecap="butt"/><path d="M252.36426,144.13862c-0.06922,0.04112 -0.137,0.05822 -0.20023,0.06029c-1.07291,1.80737 -2.30178,1.4053 -3.56219,-0.44789c-2.41207,1.53406 -2.62474,-1.4991 -4.19082,-1.94011c-0.78407,-0.2208 -1.91043,0.13459 -2.43614,-0.70239c-0.96439,-1.53541 1.27255,-3.86622 2.63079,-3.90073c2,0.62453 2.68819,2.05839 4.02887,3.44921c1.26884,1.3163 3.63457,0.17356 4.0824,2.94732c0,0 0.05969,0.43763 -0.35268,0.5343z" fill="#b9f8ed" stroke="none" stroke-width="0.5" stroke-linecap="butt"/><path d="M257.82655,133.3319c0.44769,-0.07342 0.9464,-0.44045 1.34306,-0.22027c0.63379,0.35179 0.79646,0.8556 0.69282,1.33941c0.11165,-0.03211 0.22465,-0.06136 0.33954,-0.08806l-0.04419,-0.09298l0.80962,-0.38473c0.18316,-0.08896 0.40384,-0.09601 0.60119,-0.00008c0.34139,0.16594 0.48362,0.57721 0.31768,0.9186c-0.04577,0.09417 -0.11023,0.17319 -0.18673,0.23477l-0.51953,0.4377l-0.00802,-0.00952l-0.01365,0.02705c-0.24725,0.17638 -0.49449,0.35274 -0.74174,0.52912c0,0 -0.38587,0.2749 -0.7451,0.04784c-0.38596,0.17366 -0.81337,0.33141 -1.15202,0.56904l-0.04914,0.00685l0.00821,0.01598l-0.61981,0.31863c-0.18706,0.09873 -0.41701,0.11008 -0.62181,0.01053c-0.34139,-0.16594 -0.48362,-0.57721 -0.31767,-0.91859c0.00887,-0.01825 0.01844,-0.03595 0.02867,-0.05303l0.46021,-0.78685l0.01284,0.00752c0.01087,-0.02596 0.02218,-0.05177 0.03399,-0.0774c0.02727,-0.05918 0.08211,-0.12688 0.15346,-0.19738l-0.05519,0.00753c-0.13276,0.02008 -0.27276,0.00155 -0.40265,-0.06158c-0.34139,-0.16594 -0.48362,-0.57721 -0.31768,-0.9186c0.06874,-0.14141 0.17956,-0.24864 0.31008,-0.31396l0.62076,-0.31912l0.01389,0.02703z" fill="#e7fffb" stroke="none" stroke-width="0.5" stroke-linecap="butt"/><path d="M254.08326,148.12384c-0.6784,-0.11018 -0.56823,-0.78858 -0.56823,-0.78858l0.01796,-0.09857c-0.08648,0.0483 -0.18063,0.07776 -0.28565,0.08061c-0.28906,0.00783 -0.56956,-0.25111 -0.79737,-0.61793c-0.12291,0.01262 -0.25074,-0.00773 -0.37005,-0.06573c-0.12989,-0.06313 -0.23095,-0.16178 -0.29717,-0.27858l-0.38094,-0.64964l0.02422,-0.0142l-0.05559,-0.04592c-0.2456,-0.70614 -1.06709,-2.76517 0.09656,-3.25785c0.97748,-0.41387 2.1725,1.70346 2.52804,2.27901c0,0 0.01704,0.0277 0.0377,0.07477c0.0403,0.03239 0.07629,0.06883 0.10765,0.10844l0.53389,0.64462l-0.20913,0.17321c0.25492,0.30988 0.44999,0.65548 0.53335,1.03514l-0.12666,0.85296c0,0 -0.11018,0.6784 -0.78858,0.56822z" fill="#e7fffb" stroke="none" stroke-width="0.5" stroke-linecap="butt"/><path d="M264.43627,135.82804c0.68107,-0.09237 0.77341,0.5887 0.77341,0.5887l0.03457,0.26442c0.0417,0.02689 0.08112,0.05874 0.1174,0.09555c0.07352,0.07457 0.12652,0.16168 0.15905,0.25434l0.23935,0.63577l-0.07614,0.02867l0.1175,0.15231c-0.26322,1.58206 -0.52847,2.45051 -1.59588,2.67839l0.0407,0.3001l-0.48753,0.06611c-0.13572,0.09694 -0.42933,0.24984 -0.74216,0.05236l-0.06904,0.0133c-0.22086,0.04589 -0.45975,-0.01777 -0.6299,-0.19035c-0.23719,-0.24058 -0.26081,-0.61175 -0.07257,-0.87836l0.39586,-0.58475l0.03038,0.02057l0.0329,-0.10056c0.27289,-0.21626 0.59572,-0.35151 0.94087,-0.43507l-0.05373,-0.21025l0.03648,-0.00932c0.00361,-0.08009 0.02116,-0.15966 0.05262,-0.23474l0.24011,-0.6113c0.00016,-0.16526 0.00486,-0.33041 0.01588,-0.49532l-0.08882,-0.62715c0,0 -0.09237,-0.68107 0.5887,-0.77342z" fill="#e7fffb" stroke="none" stroke-width="0.5" stroke-linecap="butt"/></g><g stroke-linecap="butt"><path d="M281.4753,134.83624c7.16572,0 13.36252,4.81173 16.31991,11.80158c-0.59348,-0.18077 -1.18539,-0.34284 -1.76954,-0.48716c-3.48904,-0.00747 -7.37006,0.59052 -10.69173,1.95768c0.36124,-0.92953 -0.42621,-1.71699 -0.42621,-1.71699l-0.11338,0.05432c-1.34401,-3.136 -3.14688,-6.37086 -4.75463,-9.64197c-0.04456,-0.63039 -0.08385,-1.26092 -0.11664,-1.89162c0.51165,-0.05022 1.02937,-0.07584 1.55221,-0.07584z" fill="#82e7ff" stroke="#04acd6" stroke-width="1.5"/><path d="M284.63808,142.34524c0,-0.36625 0.29691,-0.66315 0.66315,-0.66315c0.36625,0 0.66315,0.29691 0.66315,0.66315c0,0.36625 -0.29691,0.66315 -0.66315,0.66315c-0.36625,0 -0.66315,-0.29691 -0.66315,-0.66315z" fill="#050303" stroke="none" stroke-width="0.5"/><path d="M288.61349,142.43561c0,-0.36625 0.29691,-0.66315 0.66315,-0.66315c0.36625,0 0.66315,0.29691 0.66315,0.66315c0,0.36625 -0.29691,0.66315 -0.66315,0.66315c-0.36625,0 -0.66315,-0.29691 -0.66315,-0.66315z" fill="#050303" stroke="none" stroke-width="0.5"/><path d="M286.74324,139.50746c0,-0.36625 0.29691,-0.66315 0.66315,-0.66315c0.36625,0 0.66315,0.29691 0.66315,0.66315c0,0.36625 -0.29691,0.66315 -0.66315,0.66315c-0.36625,0 -0.66315,-0.29691 -0.66315,-0.66315z" fill="#050303" stroke="none" stroke-width="0.5"/><path d="M283.8775,138.15128c0.36625,0 0.66315,0.29691 0.66315,0.66315c0,0.36625 -0.29691,0.66315 -0.66315,0.66315c-0.1703,0 -0.32562,-0.06419 -0.44304,-0.16971c-0.07217,-0.16575 -0.14558,-0.33177 -0.2201,-0.49804c0.00247,-0.36413 0.29842,-0.65856 0.66314,-0.65856z" fill="#050303" stroke="none" stroke-width="0.5"/><path d="M292.07326,143.55583c0,-0.36625 0.29691,-0.66315 0.66315,-0.66315c0.36625,0 0.66315,0.29691 0.66315,0.66315c0,0.36625 -0.29691,0.66315 -0.66315,0.66315c-0.36625,0 -0.66315,-0.29691 -0.66315,-0.66315z" fill="#050303" stroke="none" stroke-width="0.5"/></g><g><path d="M286.91708,127.21297l16.39647,10.50514l-9.19328,15.71115l-16.83864,-11.08113z" fill="#3b9987" stroke="#3b9987" stroke-width="1" stroke-linecap="butt"/><path d="M298.68307,134.58352l4.46251,3.0185l-9.25082,16.01609l-4.63937,-3.24889z" fill-opacity="0.62059" fill="#7bcebf" stroke="#29907d" stroke-width="0" stroke-linecap="butt"/><path d="M286.91708,127.21297l13.00201,8.27744c0,0 -3.20862,4.58693 -4.87822,6.97376c-1.76148,2.51814 -5.42978,7.76224 -5.42978,7.76224l-12.32946,-7.8783z" fill-opacity="0.25158" fill="#7bcebf" stroke="none" stroke-width="0" stroke-linecap="butt"/><path d="M280.65391,136.95959l13.05005,7.41719l-4.07513,5.81313c0,0 -7.72983,-4.24122 -10.16523,-5.56481c-1.23343,-0.67035 -2.78715,-1.51476 -2.78715,-1.51476z" fill-opacity="0.54612" fill="#7bcebf" stroke="none" stroke-width="0" stroke-linecap="butt"/><path d="M293.77017,144.20346l-12.83804,-7.36868" fill="none" stroke="#29907d" stroke-width="0.5" stroke-linecap="round"/><path d="M299.89064,135.49325l-10.43517,14.93113" fill="none" stroke="#29907d" stroke-width="0.5" stroke-linecap="round"/><path d="M296.45299,136.69196c-0.31953,1.64436 -0.60336,3.32952 -2.16763,4.24567c-0.87923,0.28293 -2.42916,0.05078 -2.7434,-1.03799c-0.14272,-0.49449 0.36439,-1.45612 -0.04665,-1.91529c-0.92373,-1.03189 -1.86838,0.96489 -2.76996,0.89993c-1.05381,-0.07593 -1.94129,-1.31715 -2.08211,-2.22884c-0.02305,-1.77793 -1.66776,-0.48414 -1.73739,-2.12813c-0.11571,-2.73175 2.7635,-1.40489 3.78309,-1.87091c0.8602,-0.39317 0.00179,-1.82221 1.73047,-1.36857c1.38995,0.67498 1.55733,1.92535 2.57929,2.70941c1.02822,0.78887 1.41598,-0.61008 2.42908,-0.27332c1.09324,0.3634 1.49814,1.78297 1.21175,2.73053c0,0 -0.05211,0.15306 -0.18655,0.23749z" fill="#b9f8ed" stroke="none" stroke-width="0.5" stroke-linecap="butt"/><path d="M298.62611,143.76759l-0.01588,0.04242c-1.17623,1.30654 -1.0397,2.97617 -2.08837,4.30767c-0.60826,0.77231 -1.30145,0.92048 -1.75574,1.8551c-0.47279,0.9665 -0.76178,1.83311 -1.86453,2.27987c-1.16673,0.47268 -2.40911,-0.93242 -2.24207,-2.09115c0.16529,-1.14651 2.45865,-2.29535 3.10945,-3.63423c0.424,-0.8723 0.31402,-2.17858 0.7707,-2.91848c0.47426,-0.76839 1.50299,-0.4432 2.06447,-1.09783c0.0879,-0.10248 0.55621,-0.91547 0.57656,-0.92697c1.31474,-0.74239 2.0327,1.0757 1.63844,1.98198c0,0 -0.06363,0.13091 -0.19303,0.20162z" fill="#b9f8ed" stroke="none" stroke-width="0.5" stroke-linecap="butt"/><path d="M288.67386,145.07271c-0.06378,0.03789 -0.12623,0.05364 -0.18449,0.05555c-0.98855,1.66525 -2.12077,1.29479 -3.28207,-0.41267c-2.22239,1.41342 -2.41834,-1.38121 -3.86128,-1.78754c-0.72242,-0.20344 -1.7602,0.12401 -2.24457,-0.64716c-0.88855,-1.41467 1.17248,-3.56219 2.42392,-3.59399c1.84273,0.57543 2.4768,1.89652 3.71205,3.17797c1.16906,1.21279 3.34877,0.15991 3.76137,2.71555c0,0 0.05499,0.40322 -0.32494,0.49229z" fill="#b9f8ed" stroke="none" stroke-width="0.5" stroke-linecap="butt"/><path d="M293.70661,135.1158c0.41248,-0.06765 0.87198,-0.40581 1.23745,-0.20295c0.58394,0.32413 0.73383,0.78831 0.63833,1.23408c0.10286,-0.02959 0.20699,-0.05654 0.31285,-0.08114l-0.04071,-0.08567l0.74595,-0.35447c0.16875,-0.08196 0.37208,-0.08846 0.55391,-0.00008c0.31455,0.1529 0.44559,0.53182 0.2927,0.84636c-0.04217,0.08677 -0.10156,0.15958 -0.17204,0.21631l-0.47868,0.40328l-0.00739,-0.00878l-0.01258,0.02492c-0.22781,0.1625 -0.45561,0.32501 -0.68342,0.48751c0,0 -0.35552,0.25327 -0.68651,0.04408c-0.35561,0.15999 -0.74941,0.30535 -1.06144,0.52429l-0.04528,0.00631l0.00757,0.01472l-0.57108,0.29358c-0.17234,0.09097 -0.38421,0.10143 -0.57292,0.0097c-0.31455,-0.1529 -0.44558,-0.53182 -0.29269,-0.84635c0.00818,-0.01681 0.01699,-0.03312 0.02641,-0.04886l0.42402,-0.72498l0.01183,0.00693c0.01002,-0.02392 0.02044,-0.0477 0.03131,-0.07131c0.02512,-0.05453 0.07565,-0.11691 0.1414,-0.18185l-0.05086,0.00694c-0.12232,0.0185 -0.25131,0.00143 -0.37099,-0.05674c-0.31455,-0.1529 -0.44558,-0.53183 -0.2927,-0.84636c0.06333,-0.13029 0.16544,-0.22909 0.28569,-0.28927l0.57194,-0.29402l0.0128,0.0249z" fill="#e7fffb" stroke="none" stroke-width="0.5" stroke-linecap="butt"/><path d="M290.25768,148.74455c-0.62505,-0.10151 -0.52354,-0.72656 -0.52354,-0.72656l0.01655,-0.09082c-0.07967,0.0445 -0.16643,0.07165 -0.26318,0.07426c-0.26633,0.00721 -0.52477,-0.23137 -0.73466,-0.56935c-0.11325,0.01164 -0.23102,-0.00713 -0.34094,-0.06055c-0.11967,-0.05818 -0.21279,-0.14906 -0.2738,-0.25668l-0.35098,-0.59855l0.02231,-0.01308l-0.05121,-0.04231c-0.22629,-0.65062 -0.98317,-2.54773 0.08896,-3.00166c0.90061,-0.38131 2.00166,1.56951 2.32925,2.0998c0,0 0.0157,0.02553 0.03473,0.06889c0.03713,0.02983 0.07028,0.06343 0.09917,0.09992l0.49191,0.59392l-0.19268,0.1596c0.23488,0.28551 0.4146,0.60393 0.49141,0.95374l-0.1167,0.78589c0,0 -0.10151,0.62505 -0.72657,0.52354z" fill="#e7fffb" stroke="none" stroke-width="0.5" stroke-linecap="butt"/><path d="M299.79656,137.41565c0.6275,-0.0851 0.71259,0.54241 0.71259,0.54241l0.03185,0.24362c0.03842,0.02477 0.07474,0.05413 0.10816,0.08803c0.06773,0.06871 0.11657,0.14897 0.14654,0.23434l0.22053,0.58577l-0.07016,0.02641l0.10826,0.14033c-0.24252,1.45764 -0.48691,2.25781 -1.47038,2.46777l0.0375,0.2765l-0.4492,0.06092c-0.12505,0.08932 -0.39556,0.2302 -0.6838,0.04824l-0.06362,0.01225c-0.20349,0.04228 -0.4236,-0.01636 -0.58036,-0.17538c-0.21853,-0.22166 -0.24031,-0.56364 -0.06686,-0.80928l0.36473,-0.53877l0.028,0.01895l0.03032,-0.09265c0.25144,-0.19926 0.54888,-0.32387 0.86689,-0.40086l-0.04951,-0.19371l0.03361,-0.00859c0.00333,-0.07379 0.0195,-0.1471 0.04847,-0.21628l0.22123,-0.56322c0.00015,-0.15225 0.00447,-0.30443 0.01463,-0.45638l-0.08183,-0.57784c0,0 -0.0851,-0.62751 0.54241,-0.7126z" fill="#e7fffb" stroke="none" stroke-width="0.5" stroke-linecap="butt"/></g><g><g data-paper-data="{&quot;index&quot;:null}" stroke-linecap="butt"><path d="M214.90001,129.21394c0.33979,0.5953 0.67355,1.19425 1.00241,1.79618c0.44917,3.93036 0.69882,7.94201 1.30968,11.59434l-0.1354,0.01684c0,0 -0.25761,1.1809 0.61726,1.81815c-3.8355,0.69853 -7.73099,2.42758 -10.91349,4.47982c-0.44895,0.47429 -0.8946,0.96933 -1.33069,1.48237c-1.39648,-8.11826 1.44283,-16.14614 7.98798,-20.347c0.47757,-0.30653 0.96547,-0.58663 1.46225,-0.84071z" fill="#82e7ff" stroke="#04acd6" stroke-width="1.5"/><path d="M214.73403,139.76203c-0.33452,0.21472 -0.77978,0.11758 -0.99449,-0.21695c-0.21472,-0.33452 -0.11758,-0.77978 0.21695,-0.99449c0.33452,-0.21472 0.77978,-0.11758 0.99449,0.21695c0.21472,0.33452 0.11758,0.77978 -0.21695,0.99449z" fill="#050303" stroke="none" stroke-width="0.5"/><path d="M211.15585,142.17515c-0.33452,0.21472 -0.77978,0.11758 -0.99449,-0.21695c-0.21472,-0.33452 -0.11758,-0.77978 0.21695,-0.99449c0.33452,-0.21472 0.77978,-0.11758 0.99449,0.21695c0.21472,0.33452 0.11758,0.77978 -0.21695,0.99449z" fill="#050303" stroke="none" stroke-width="0.5"/><path d="M211.14754,138.40412c-0.33452,0.21472 -0.77978,0.11758 -0.99449,-0.21695c-0.21472,-0.33452 -0.11758,-0.77978 0.21695,-0.99449c0.33452,-0.21472 0.77978,-0.11758 0.99449,0.21695c0.21472,0.33452 0.11758,0.77978 -0.21695,0.99449z" fill="#050303" stroke="none" stroke-width="0.5"/><path d="M214.1788,134.70368c0.02941,0.19557 0.05968,0.39024 0.09093,0.58393c-0.04542,0.16521 -0.14964,0.3149 -0.30519,0.41474c-0.33452,0.21472 -0.77978,0.11758 -0.99449,-0.21695c-0.21472,-0.33452 -0.11758,-0.77978 0.21695,-0.99449c0.33314,-0.21381 0.77607,-0.11839 0.99179,0.21277z" fill="#050303" stroke="none" stroke-width="0.5"/><path d="M208.65245,145.22662c-0.33452,0.21472 -0.77978,0.11758 -0.99449,-0.21695c-0.21472,-0.33452 -0.11758,-0.77978 0.21695,-0.99449c0.33452,-0.21472 0.77978,-0.11758 0.99449,0.21695c0.21472,0.33452 0.11758,0.77978 -0.21695,0.99449z" fill="#050303" stroke="none" stroke-width="0.5"/></g><g><path d="M199.40439,150.00188l2.47464,-20.98973l19.69832,1.51926l-2.82709,21.69464z" fill="#3b9987" stroke="#3b9987" stroke-width="1" stroke-linecap="butt"/><path d="M201.01632,135.01945l0.82909,-5.78824l20.02328,1.43073l-0.97008,6.07021z" fill-opacity="0.62059" fill="#7bcebf" stroke="#29907d" stroke-width="0" stroke-linecap="butt"/><path d="M199.40439,150.00188l1.9107,-16.61926c0,0 5.99992,0.95564 9.12199,1.45289c3.29384,0.52462 10.15337,1.61717 10.15337,1.61717l-1.8402,15.77336z" fill-opacity="0.25158" fill="#7bcebf" stroke="none" stroke-width="0" stroke-linecap="butt"/><path d="M211.89021,151.49101l1.04819,-16.25798l7.608,1.21967c0,0 -0.47235,9.55777 -0.60881,12.56308c-0.06911,1.52206 -0.15616,3.43938 -0.15616,3.43938z" fill-opacity="0.54612" fill="#7bcebf" stroke="none" stroke-width="0" stroke-linecap="butt"/><path d="M212.73779,135.25062l-1.10143,16.02802" fill="none" stroke="#29907d" stroke-width="0.5" stroke-linecap="round"/><path d="M201.33138,133.40902l19.52616,3.10162" fill="none" stroke="#29907d" stroke-width="0.5" stroke-linecap="round"/><path d="M204.13258,136.1959c1.75673,-0.46832 3.53636,-0.99084 5.17287,0.1014c0.69337,0.72401 1.20217,2.3471 0.28847,3.17045c-0.41497,0.37394 -1.59427,0.33521 -1.84745,0.9543c-0.56898,1.3913 1.82838,1.36598 2.19275,2.27686c0.42589,1.06469 -0.36462,2.51993 -1.18773,3.08998c-1.72458,0.8661 0.31873,1.85768 -1.253,2.7057c-2.61166,1.40913 -2.6826,-2.03096 -3.62127,-2.8051c-0.79194,-0.65312 -1.77957,0.86286 -2.157,-1.03981c-0.00064,-1.67705 1.14048,-2.43371 1.42093,-3.80331c0.28217,-1.37798 -1.26738,-1.09272 -1.41935,-2.24144c-0.16398,-1.23959 1.02959,-2.30838 2.09042,-2.47842c0,0 0.17414,-0.02177 0.32033,0.06941z" fill="#b9f8ed" stroke="none" stroke-width="0.5" stroke-linecap="butt"/><path d="M210.00826,130.71737l0.04896,-0.00463c1.83346,0.52823 3.39847,-0.39723 5.19577,-0.00538c1.0425,0.2273 1.51604,0.83365 2.64389,0.83365c1.16776,0.00292 2.15082,-0.12618 3.11015,0.73828c1.01499,0.91461 0.23291,2.79405 -0.97742,3.18079c-1.19757,0.38266 -3.40717,-1.31088 -5.02289,-1.31088c-1.05267,0 -2.27559,0.72717 -3.21452,0.63246c-0.97509,-0.09835 -1.14578,-1.25685 -2.0512,-1.49431c-0.14174,-0.03717 -1.15754,-0.10856 -1.17842,-0.12298c-1.3485,-0.93112 0.08554,-2.49459 1.15728,-2.53975c0,0 0.15797,0 0.2884,0.09276z" fill="#b9f8ed" stroke="none" stroke-width="0.5" stroke-linecap="butt"/><path d="M216.00442,139.81288c0.06725,0.04428 0.11226,0.09776 0.14176,0.15372c2.09456,0.17483 2.27017,1.45581 1.15446,3.39956c2.43419,1.49872 -0.2008,3.016 0.08721,4.61729c0.1442,0.8017 0.95624,1.65936 0.43329,2.49807c-0.95931,1.53858 -4.03351,0.5457 -4.65834,-0.66079c-0.31265,-2.07177 0.67608,-3.31757 1.34084,-5.13137c0.62914,-1.71662 -1.43283,-3.34473 0.86605,-4.96011c0,0 0.36751,-0.245 0.63473,0.08361z" fill="#b9f8ed" stroke="none" stroke-width="0.5" stroke-linecap="butt"/><path d="M203.89713,139.62461c-0.26175,-0.37054 -0.80986,-0.65863 -0.78526,-1.11163c0.03932,-0.72381 0.42131,-1.09037 0.90177,-1.20866c-0.07769,-0.08637 -0.15339,-0.17522 -0.22764,-0.26687l-0.06431,0.08039l-0.69996,-0.55997c-0.16009,-0.12583 -0.2629,-0.32124 -0.2629,-0.54066c0,-0.37958 0.30771,-0.68729 0.68729,-0.68729c0.10472,0 0.20396,0.02342 0.29278,0.0653l0.62078,0.2759l-0.00506,0.01138l0.0303,0.00045c0.26672,0.14527 0.53343,0.29053 0.80015,0.43579c0,0 0.41593,0.22686 0.36877,0.64922c0.32491,0.27121 0.65365,0.58664 1.01541,0.78734l0.02764,0.04121l0.01078,-0.01438l0.55753,0.41815c0.17057,0.12507 0.28131,0.32692 0.28131,0.55463c0,0.37958 -0.30771,0.68729 -0.68729,0.68729c-0.02029,0 -0.04039,-0.00088 -0.06022,-0.0026l-0.90888,-0.06992l0.00114,-0.01484c-0.0281,0.00158 -0.05626,0.00268 -0.08447,0.00327c-0.06515,0.00134 -0.15001,-0.01837 -0.2446,-0.05173l0.0309,0.04635c0.0761,0.11062 0.12064,0.24464 0.12064,0.38906c0,0.37958 -0.30771,0.68729 -0.68729,0.68729c-0.15722,0 -0.30213,-0.0528 -0.41793,-0.14163l-0.55838,-0.41878l0.01824,-0.02431z" fill="#e7fffb" stroke="none" stroke-width="0.5" stroke-linecap="butt"/><path d="M218.83716,136.52464c0.19749,0.65831 -0.46082,0.85579 -0.46082,0.85579l-0.0965,0.02695c0.08125,0.05665 0.1489,0.12847 0.19737,0.22167c0.13342,0.25655 0.02315,0.62202 -0.20716,0.98727c0.06509,0.10503 0.10267,0.22889 0.10267,0.36154c0,0.14442 -0.04455,0.27844 -0.12064,0.38906l-0.41773,0.62661l-0.02335,-0.01557l-0.017,0.07006c-0.52772,0.52959 -2.02043,2.16856 -2.97226,1.33739c-0.79954,-0.69819 0.5823,-2.6986 0.94451,-3.26999c0,0 0.01746,-0.02744 0.05076,-0.06659c0.01151,-0.05041 0.02856,-0.0987 0.05048,-0.14422l0.34636,-0.76198l0.24721,0.11237c0.16725,-0.36474 0.39279,-0.69126 0.69782,-0.93221l0.82251,-0.25898c0,0 0.65831,-0.19749 0.85579,0.46082z" fill="#e7fffb" stroke="none" stroke-width="0.5" stroke-linecap="butt"/><path d="M203.25253,132.58872c-0.38081,-0.57215 0.19135,-0.95296 0.19135,-0.95296l0.22271,-0.14669c0.00595,-0.04926 0.01737,-0.09864 0.03461,-0.14735c0.03493,-0.09872 0.09011,-0.18447 0.15922,-0.25424l0.46716,-0.4932l0.05907,0.05595l0.08562,-0.17225c1.53793,-0.4549 2.43496,-0.59601 3.10656,0.26437l0.25211,-0.1678l0.2726,0.40957c0.14652,0.07968 0.41239,0.2769 0.37155,0.6446l0.04215,0.05629c0.13782,0.17857 0.18501,0.42126 0.10418,0.64973c-0.11269,0.3185 -0.43617,0.50201 -0.75825,0.44927l-0.69897,-0.10039l0.00522,-0.03631l-0.10482,0.01437c-0.3138,-0.1509 -0.57657,-0.3821 -0.80261,-0.656l-0.1656,0.14024l-0.02433,-0.02873c-0.07361,0.03177 -0.15284,0.05076 -0.23412,0.0553l-0.65475,0.05129c-0.14869,0.07211 -0.29928,0.14007 -0.45243,0.20227l-0.52523,0.35405c0,0 -0.57215,0.38081 -0.95296,-0.19135z" fill="#e7fffb" stroke="none" stroke-width="0.5" stroke-linecap="butt"/></g></g><g><g data-paper-data="{&quot;index&quot;:null}" stroke-linecap="butt"><path d="M211.18806,178.06524c0.68455,0.03498 1.36894,0.077 2.05318,0.12473c3.55188,1.74173 7.06458,3.69531 10.46956,5.15092l-0.05885,0.1231c0,0 0.85544,0.85388 1.86393,0.4609c-1.48058,3.6065 -2.12577,7.81937 -2.11423,11.60617c0.15723,0.63388 0.33372,1.27614 0.53048,1.9201c-7.5893,-3.20292 -12.81782,-9.92386 -12.82487,-17.70117c-0.00051,-0.56748 0.02678,-1.12939 0.08077,-1.68477z" fill="#82e7ff" stroke="#04acd6" stroke-width="1.5"/><path d="M219.98069,183.89444c0.00036,0.39751 -0.32159,0.72004 -0.7191,0.7204c-0.39751,0.00036 -0.72004,-0.32159 -0.7204,-0.7191c-0.00036,-0.39751 0.32159,-0.72004 0.7191,-0.7204c0.39751,-0.00036 0.72004,0.32159 0.7204,0.7191z" fill="#050303" stroke="none" stroke-width="0.5"/><path d="M220.0827,188.20907c0.00036,0.39751 -0.32159,0.72004 -0.7191,0.7204c-0.39751,0.00036 -0.72004,-0.32159 -0.7204,-0.7191c-0.00036,-0.39751 0.32159,-0.72004 0.7191,-0.7204c0.39751,-0.00036 0.72006,0.32159 0.72041,0.71909z" fill="#050303" stroke="none" stroke-width="0.5"/><path d="M216.90279,186.18207c0.00036,0.39751 -0.32159,0.72004 -0.7191,0.7204c-0.39751,0.00036 -0.72004,-0.32159 -0.7204,-0.7191c-0.00036,-0.39751 0.32159,-0.72004 0.7191,-0.7204c0.39751,-0.00036 0.72004,0.32159 0.7204,0.7191z" fill="#050303" stroke="none" stroke-width="0.5"/><path d="M215.42176,181.63361c0.18054,0.08073 0.36078,0.16024 0.54076,0.23839c0.11463,0.12736 0.18446,0.29585 0.18462,0.4807c0.00036,0.39751 -0.32159,0.72004 -0.7191,0.7204c-0.39751,0.00036 -0.72004,-0.32159 -0.7204,-0.7191c-0.00036,-0.39585 0.31891,-0.71735 0.71412,-0.72038z" fill="#050303" stroke="none" stroke-width="0.5"/><path d="M221.30192,191.96301c0.00036,0.39751 -0.32158,0.72004 -0.71909,0.7204c-0.39751,0.00036 -0.72004,-0.32159 -0.7204,-0.7191c-0.00036,-0.39751 0.32159,-0.72004 0.7191,-0.7204c0.39751,-0.00036 0.72004,0.32159 0.7204,0.7191z" fill="#050303" stroke="none" stroke-width="0.5"/></g><g data-paper-data="{&quot;index&quot;:null}"><path d="M229.70477,188.02419l-18.27578,12.02688l-9.97791,-17.05206l17.79587,-11.40173z" fill="#3b9987" stroke="#3b9987" stroke-width="1" stroke-linecap="butt"/><path d="M216.70907,196.72987l-5.03532,3.52617l-10.04035,-17.38304l4.84337,-3.27612z" fill-opacity="0.62059" fill="#7bcebf" stroke="#29907d" stroke-width="0" stroke-linecap="butt"/><path d="M229.70477,188.02419l-13.38175,8.55069c0,0 -3.98139,-5.69168 -5.8932,-8.42473c-1.8121,-2.59054 -5.29457,-7.56896 -5.29457,-7.56896l14.11169,-8.9839z" fill-opacity="0.25158" fill="#7bcebf" stroke="none" stroke-width="0" stroke-linecap="butt"/><path d="M230.36162,188.85146c0,0 -1.68632,0.91649 -3.02503,1.64405c-2.64326,1.43655 -11.03282,6.03975 -11.03282,6.03975l-4.42294,-6.30926l14.16385,-8.05023z" fill-opacity="0.54612" fill="#7bcebf" stroke="none" stroke-width="0" stroke-linecap="butt"/><path d="M225.7427,182.04029l-13.93374,7.99758" fill="none" stroke="#29907d" stroke-width="0.5" stroke-linecap="round"/><path d="M216.49192,196.78975l-11.3258,-16.20548" fill="none" stroke="#29907d" stroke-width="0.5" stroke-linecap="round"/><path d="M208.89718,181.88526c-0.14592,-0.09163 -0.20247,-0.25777 -0.20247,-0.25777c-0.31084,-1.02842 0.12862,-2.56916 1.31516,-2.96358c1.09958,-0.36551 1.52043,1.15285 2.63641,0.29664c1.10918,-0.85098 1.29084,-2.20808 2.79942,-2.94065c1.87622,-0.49234 0.94455,1.05865 1.87817,1.48537c1.10661,0.50578 4.23156,-0.93432 4.10596,2.03059c-0.07559,1.78431 -1.86066,0.38009 -1.88567,2.30977c-0.15284,0.98949 -1.11607,2.33665 -2.25982,2.41906c-0.97852,0.07051 -2.0038,-2.09669 -3.00637,-0.97673c-0.44612,0.49835 0.10426,1.54206 -0.05064,2.07876c-0.34106,1.1817 -2.02326,1.43366 -2.97754,1.12657c-1.69777,-0.99434 -2.00584,-2.82333 -2.35262,-4.60804z" fill="#b9f8ed" stroke="none" stroke-width="0.5" stroke-linecap="butt"/><path d="M206.53857,189.5648c-0.14044,-0.07675 -0.20951,-0.21883 -0.20951,-0.21883c-0.42791,-0.98363 0.35132,-2.9569 1.77828,-2.15114c0.02209,0.01248 0.53038,0.89486 0.62577,1.00609c0.60939,0.7105 1.72593,0.35756 2.24067,1.19153c0.49565,0.80306 0.37628,2.22083 0.83647,3.16757c0.70634,1.45314 3.19544,2.70003 3.37483,3.9444c0.18129,1.25762 -1.16712,2.78264 -2.43343,2.26961c-1.19687,-0.4849 -1.51052,-1.42547 -2.02366,-2.47445c-0.49307,-1.01437 -1.24541,-1.17518 -1.90559,-2.01342c-1.13817,-1.44514 -0.98999,-3.25727 -2.2666,-4.67532l-0.01723,-0.04605z" fill="#b9f8ed" stroke="none" stroke-width="0.5" stroke-linecap="butt"/><path d="M217.34024,190.98132c-0.41237,-0.09667 -0.35269,-0.5343 -0.35269,-0.5343c0.44783,-2.77376 2.81356,-1.63102 4.0824,-2.94732c1.34067,-1.39081 2.02887,-2.82467 4.02887,-3.44921c1.35824,0.03451 3.59518,2.36531 2.6308,3.90073c-0.52571,0.83699 -1.65207,0.4816 -2.43614,0.70239c-1.56609,0.441 -1.77875,3.47416 -4.19083,1.9401c-1.26041,1.85319 -2.48927,2.25526 -3.56219,0.44789c-0.06324,-0.00207 -0.13101,-0.01917 -0.20023,-0.0603z" fill="#b9f8ed" stroke="none" stroke-width="0.5" stroke-linecap="butt"/><path d="M211.92687,180.23003l0.01388,-0.02702l0.62076,0.31911c0.13051,0.06532 0.24135,0.17255 0.31008,0.31396c0.16595,0.34139 0.02371,0.75266 -0.31768,0.9186c-0.12989,0.06313 -0.2699,0.08167 -0.40265,0.06158l-0.0552,-0.00753c0.07135,0.07049 0.1262,0.13818 0.15346,0.19737c0.01181,0.02563 0.02312,0.05144 0.03399,0.0774l0.01284,-0.00752l0.46022,0.78685c0.01023,0.0171 0.01979,0.03479 0.02867,0.05304c0.16595,0.34139 0.02372,0.75264 -0.31767,0.91859c-0.2048,0.09955 -0.43475,0.0882 -0.62181,-0.01053l-0.61981,-0.31864l0.00821,-0.01598l-0.04913,-0.00686c-0.33866,-0.23763 -0.76606,-0.39539 -1.15203,-0.56904c-0.35923,0.22705 -0.7451,-0.04784 -0.7451,-0.04784c-0.24726,-0.17638 -0.49449,-0.35274 -0.74174,-0.52912l-0.01365,-0.02704l-0.00803,0.00952l-0.51953,-0.4377c-0.0765,-0.06158 -0.14096,-0.1406 -0.18673,-0.23477c-0.16595,-0.34139 -0.02371,-0.75265 0.31768,-0.91859c0.19735,-0.09592 0.41803,-0.08887 0.60119,0.00009l0.80962,0.38473l-0.04419,0.09298c0.1149,0.0267 0.2279,0.05596 0.33955,0.08807c-0.10365,-0.48382 0.05903,-0.98763 0.69282,-1.33942c0.39667,-0.22018 0.89537,0.14686 1.34306,0.22028z" fill="#e7fffb" stroke="none" stroke-width="0.5" stroke-linecap="butt"/><path d="M215.62125,194.96654c-0.6784,0.11018 -0.78858,-0.56822 -0.78858,-0.56822l-0.12666,-0.85296c0.08337,-0.37967 0.27844,-0.72527 0.53335,-1.03514l-0.20914,-0.17321l0.53389,-0.64462c0.03136,-0.03961 0.06733,-0.07606 0.10765,-0.10844c0.02065,-0.04706 0.03769,-0.07476 0.03769,-0.07476c0.35554,-0.57555 1.55056,-2.69288 2.52804,-2.27901c1.16364,0.49268 0.34217,2.5517 0.09657,3.25786l-0.05559,0.04591l0.02422,0.0142l-0.38094,0.64964c-0.06622,0.1168 -0.16728,0.21545 -0.29717,0.27858c-0.1193,0.05799 -0.24713,0.07835 -0.37005,0.06572c-0.2278,0.36681 -0.5083,0.62577 -0.79737,0.61793c-0.10501,-0.00285 -0.19917,-0.0323 -0.28564,-0.08061l0.01796,0.09857c0,0 0.11018,0.6784 -0.56822,0.78858z" fill="#e7fffb" stroke="none" stroke-width="0.5" stroke-linecap="butt"/><path d="M205.26824,182.67073c0.68107,0.09236 0.5887,0.77342 0.5887,0.77342l-0.08882,0.62716c0.01102,0.16492 0.01571,0.33007 0.01587,0.49532l0.24012,0.6113c0.03145,0.07508 0.049,0.15465 0.05262,0.23474l0.03648,0.00932l-0.05373,0.21024c0.34516,0.08356 0.66798,0.21881 0.94087,0.43507l0.03291,0.10056l0.03038,-0.02057l0.39586,0.58475c0.18824,0.2666 0.16461,0.63778 -0.07256,0.87836c-0.17015,0.17258 -0.40905,0.23623 -0.6299,0.19034l-0.06904,-0.01329c-0.31284,0.19748 -0.60645,0.04458 -0.74216,-0.05237l-0.48753,-0.06611l0.0407,-0.3001c-1.06741,-0.22788 -1.33266,-1.09634 -1.59588,-2.67839l0.1175,-0.15231l-0.07614,-0.02867l0.23935,-0.63577c0.03253,-0.09265 0.08553,-0.17978 0.15905,-0.25435c0.03628,-0.0368 0.07569,-0.06866 0.11739,-0.09555l0.03457,-0.26442c0,0 0.09235,-0.68106 0.77341,-0.5887z" fill="#e7fffb" stroke="none" stroke-width="0.5" stroke-linecap="butt"/></g></g><g><g data-paper-data="{&quot;index&quot;:null}" stroke-linecap="butt"><path d="M230.6242,198.97813c0.5136,-0.45395 1.03199,-0.90271 1.5543,-1.34732c0.52984,-0.17496 0.61207,-2.09566 1.07368,-2.4226c1.37805,-0.97607 2.95422,-0.75566 4.5203,-1.25445c1.62851,-0.51868 3.97916,0.6205 5.49039,0.03284l0.04407,0.12912c0,0 1.20862,0.01165 1.65428,-0.97471c0.64313,1.58569 1.98426,1.39334 2.94893,2.86896c1.23321,1.88639 2.16913,5.3894 3.66026,6.90304c0.55579,0.3429 1.13125,0.67836 1.72237,1.0008c-7.66351,3.02105 -16.10149,1.87673 -21.54763,-3.67537c-0.39737,-0.40512 -0.771,-0.8257 -1.12097,-1.26032z" fill="#82e7ff" stroke="#04acd6" stroke-width="1.5"/><path d="M242.11,196.36796c0.27836,0.28377 0.27396,0.73948 -0.00981,1.01785c-0.28377,0.27836 -0.73948,0.27395 -1.01785,-0.00981c-0.27836,-0.28377 -0.27396,-0.73948 0.00981,-1.01785c0.28377,-0.27836 0.73948,-0.27396 1.01785,0.00981z" fill="#050303" stroke="none" stroke-width="0.5"/><path d="M245.20145,199.37949c0.27836,0.28377 0.27396,0.73948 -0.00981,1.01785c-0.28377,0.27836 -0.73948,0.27396 -1.01785,-0.00981c-0.27836,-0.28377 -0.27396,-0.73947 0.00981,-1.01784c0.28377,-0.27836 0.73948,-0.27396 1.01785,0.00981z" fill="#050303" stroke="none" stroke-width="0.5"/><path d="M241.51122,200.15587c0.27836,0.28377 0.27396,0.73948 -0.00981,1.01785c-0.28377,0.27836 -0.73947,0.27395 -1.01784,-0.00981c-0.27836,-0.28377 -0.27396,-0.73947 0.00981,-1.01784c0.28377,-0.27836 0.73948,-0.27398 1.01785,0.00979z" fill="#050303" stroke="none" stroke-width="0.5"/><path d="M237.27083,197.94206c0.18548,-0.06862 0.3699,-0.13793 0.55317,-0.20799c0.171,0.01081 0.33879,0.08234 0.46821,0.2143c0.27836,0.28377 0.27396,0.73948 -0.00981,1.01785c-0.28377,0.27836 -0.73948,0.27395 -1.01785,-0.00981c-0.27721,-0.28259 -0.27401,-0.73566 0.00626,-1.01433z" fill="#050303" stroke="none" stroke-width="0.5"/><path d="M248.69892,201.20876c0.27836,0.28377 0.27398,0.73947 -0.00979,1.01784c-0.28377,0.27836 -0.73948,0.27396 -1.01785,-0.00981c-0.27836,-0.28377 -0.27396,-0.73947 0.00981,-1.01784c0.28377,-0.27836 0.73946,-0.27396 1.01784,0.00981z" fill="#050303" stroke="none" stroke-width="0.5"/></g><g data-paper-data="{&quot;index&quot;:null}"><path d="M237.71002,184.95774l17.79587,11.40173l-9.97791,17.05206l-18.27578,-12.02688z" fill="#3b9987" stroke="#3b9987" stroke-width="1" stroke-linecap="butt"/><path d="M250.48021,192.95734l4.84337,3.27612l-10.04035,17.38303l-5.03533,-3.52617z" fill-opacity="0.62059" fill="#7bcebf" stroke="#29907d" stroke-width="0" stroke-linecap="butt"/><path d="M237.71002,184.95774l14.11171,8.9839c0,0 -3.48248,4.97842 -5.29458,7.56896c-1.91181,2.73306 -5.8932,8.42474 -5.8932,8.42474l-13.38175,-8.55069z" fill-opacity="0.25158" fill="#7bcebf" stroke="none" stroke-width="0" stroke-linecap="butt"/><path d="M230.91229,195.5362l14.16384,8.05023l-4.42294,6.30926c0,0 -8.38955,-4.6032 -11.03282,-6.03975c-1.3387,-0.72756 -3.02503,-1.64405 -3.02503,-1.64405z" fill-opacity="0.54612" fill="#7bcebf" stroke="none" stroke-width="0" stroke-linecap="butt"/><path d="M245.14802,203.39832l-13.93374,-7.99758" fill="none" stroke="#29907d" stroke-width="0.5" stroke-linecap="round"/><path d="M251.79086,193.94472l-11.3258,16.20548" fill="none" stroke="#29907d" stroke-width="0.5" stroke-linecap="round"/><path d="M248.0598,195.24572c-0.34679,1.78471 -0.65486,3.61369 -2.35262,4.60803c-0.95428,0.30708 -2.63649,0.05512 -2.97754,-1.12657c-0.15489,-0.5367 0.39549,-1.5804 -0.05063,-2.07876c-1.00257,-1.11996 -2.02784,1.04725 -3.00637,0.97673c-1.14374,-0.08241 -2.10697,-1.42957 -2.25982,-2.41906c-0.02501,-1.92967 -1.8101,-0.52546 -1.88567,-2.30977c-0.12559,-2.9649 2.99935,-1.5248 4.10596,-2.03059c0.93362,-0.42672 0.00194,-1.97773 1.87817,-1.48537c1.50858,0.73257 1.69025,2.08967 2.79942,2.94065c1.11598,0.8562 1.53683,-0.66215 2.63641,-0.29664c1.18655,0.39442 1.62601,1.93516 1.31516,2.96358c0,0 -0.05655,0.16614 -0.20247,0.25776z" fill="#b9f8ed" stroke="none" stroke-width="0.5" stroke-linecap="butt"/><path d="M250.41839,202.92525l-0.01723,0.04605c-1.27662,1.41804 -1.12843,3.23017 -2.2666,4.67532c-0.66017,0.83824 -1.41253,0.99905 -1.90559,2.01342c-0.51313,1.04898 -0.82679,1.98956 -2.02366,2.47446c-1.26631,0.51302 -2.61472,-1.01201 -2.43343,-2.26962c0.17939,-1.24436 2.66849,-2.49126 3.37483,-3.9444c0.46019,-0.94675 0.34083,-2.36451 0.83647,-3.16757c0.51474,-0.83397 1.63128,-0.48103 2.24067,-1.19153c0.0954,-0.11123 0.60367,-0.99361 0.62577,-1.00609c1.42696,-0.80576 2.20618,1.1675 1.77827,2.15113c0,0 -0.06905,0.14208 -0.2095,0.21883z" fill="#b9f8ed" stroke="none" stroke-width="0.5" stroke-linecap="butt"/><path d="M239.61674,204.34177c-0.06922,0.04111 -0.13701,0.05822 -0.20023,0.06029c-1.07292,1.80737 -2.30178,1.4053 -3.56219,-0.44789c-2.41207,1.53406 -2.62475,-1.4991 -4.19083,-1.9401c-0.78407,-0.2208 -1.91043,0.13459 -2.43613,-0.70239c-0.96439,-1.53541 1.27255,-3.86622 2.6308,-3.90072c1.99999,0.62453 2.6882,2.05839 4.02887,3.4492c1.26884,1.3163 3.63457,0.17356 4.0824,2.94732c0,0 0.05968,0.43763 -0.35269,0.5343z" fill="#b9f8ed" stroke="none" stroke-width="0.5" stroke-linecap="butt"/><path d="M245.07902,193.53505c0.44769,-0.07342 0.9464,-0.44045 1.34306,-0.22028c0.63379,0.35179 0.79646,0.85559 0.69282,1.33941c0.11164,-0.03211 0.22465,-0.06136 0.33955,-0.08806l-0.04419,-0.09298l0.80962,-0.38473c0.18316,-0.08895 0.40384,-0.09601 0.60119,-0.00009c0.34139,0.16595 0.48363,0.57721 0.31768,0.9186c-0.04577,0.09417 -0.11022,0.17319 -0.18673,0.23477l-0.51953,0.4377l-0.00803,-0.00952l-0.01365,0.02705c-0.24726,0.17638 -0.49448,0.35275 -0.74174,0.52912c0,0 -0.38587,0.2749 -0.7451,0.04784c-0.38596,0.17366 -0.81337,0.33141 -1.15202,0.56904l-0.04914,0.00685l0.00821,0.01598l-0.61981,0.31864c-0.18706,0.09873 -0.41701,0.11008 -0.62181,0.01053c-0.34139,-0.16595 -0.48361,-0.5772 -0.31767,-0.91859c0.00887,-0.01825 0.01844,-0.03595 0.02867,-0.05303l0.46021,-0.78685l0.01284,0.00752c0.01087,-0.02596 0.02218,-0.05177 0.03399,-0.0774c0.02726,-0.05918 0.08211,-0.12688 0.15346,-0.19737l-0.05519,0.00753c-0.13276,0.02009 -0.27276,0.00155 -0.40265,-0.06159c-0.34139,-0.16595 -0.48362,-0.57721 -0.31768,-0.9186c0.06874,-0.14141 0.17957,-0.24864 0.31008,-0.31396l0.62076,-0.31912l0.01388,0.02702z" fill="#e7fffb" stroke="none" stroke-width="0.5" stroke-linecap="butt"/><path d="M241.33572,208.32699c-0.6784,-0.11018 -0.56822,-0.78858 -0.56822,-0.78858l0.01796,-0.09857c-0.08647,0.0483 -0.18063,0.07776 -0.28564,0.08061c-0.28906,0.00783 -0.56957,-0.25112 -0.79737,-0.61793c-0.12291,0.01262 -0.25074,-0.00773 -0.37005,-0.06572c-0.12989,-0.06313 -0.23095,-0.16178 -0.29718,-0.27858l-0.38094,-0.64964l0.02422,-0.0142l-0.05558,-0.04592c-0.2456,-0.70615 -1.06709,-2.76517 0.09656,-3.25785c0.97748,-0.41386 2.1725,1.70346 2.52804,2.27901c0,0 0.01704,0.0277 0.0377,0.07476c0.0403,0.03239 0.07629,0.06884 0.10765,0.10845l0.53389,0.64461l-0.20914,0.17321c0.25491,0.30988 0.44999,0.65548 0.53335,1.03514l-0.12666,0.85296c0,0 -0.11018,0.6784 -0.78858,0.56822z" fill="#e7fffb" stroke="none" stroke-width="0.5" stroke-linecap="butt"/><path d="M251.68874,196.03118c0.68107,-0.09236 0.77341,0.5887 0.77341,0.5887l0.03457,0.26443c0.0417,0.02689 0.08111,0.05875 0.11739,0.09555c0.07352,0.07457 0.12652,0.16168 0.15905,0.25434l0.23935,0.63577l-0.07614,0.02866l0.1175,0.15231c-0.26322,1.58205 -0.52847,2.45051 -1.59588,2.67839l0.0407,0.3001l-0.48753,0.06611c-0.13572,0.09695 -0.42933,0.24985 -0.74216,0.05237l-0.06904,0.01329c-0.22086,0.04589 -0.45976,-0.01776 -0.6299,-0.19034c-0.23718,-0.24058 -0.26081,-0.61176 -0.07257,-0.87836l0.39586,-0.58475l0.03038,0.02057l0.03291,-0.10056c0.27289,-0.21626 0.59572,-0.35151 0.94087,-0.43507l-0.05373,-0.21024l0.03648,-0.00932c0.00362,-0.08009 0.02117,-0.15966 0.05262,-0.23474l0.24012,-0.6113c0.00016,-0.16526 0.00485,-0.33041 0.01587,-0.49532l-0.08882,-0.62716c0,0 -0.09236,-0.68107 0.5887,-0.77342z" fill="#e7fffb" stroke="none" stroke-width="0.5" stroke-linecap="butt"/></g></g><g><g data-paper-data="{&quot;index&quot;:null}" stroke-linecap="butt"><path d="M284.70689,209.12298c-0.01383,-0.68532 -0.02061,-1.37094 -0.02167,-2.05685c0.2094,-0.5172 -1.2019,-1.82258 -1.15254,-2.38609c0.14736,-1.68228 1.3352,-2.74148 1.96812,-4.25834c0.65815,-1.57731 3.04765,-2.63262 3.57731,-4.16512l0.12698,0.04993c0,0 0.79087,-0.91403 0.32712,-1.89202c1.62517,0.53555 2.34622,-0.61149 4.09551,-0.39232c2.23623,0.28017 5.5128,1.83298 7.63168,1.67534c0.62107,-0.20194 1.24916,-0.42368 1.87747,-0.66577c-2.65476,7.79798 -8.98663,13.49147 -16.74372,14.05192c-0.56602,0.04089 -1.12843,0.05365 -1.68625,0.03932z" fill="#82e7ff" stroke="#04acd6" stroke-width="1.5"/><path d="M290.14795,198.67639c0.39647,-0.02865 0.7411,0.26955 0.76975,0.66602c0.02865,0.39647 -0.26955,0.7411 -0.66602,0.76975c-0.39647,0.02865 -0.7411,-0.26955 -0.76975,-0.66602c-0.02865,-0.39647 0.26955,-0.7411 0.66602,-0.76975z" fill="#050303" stroke="none" stroke-width="0.5"/><path d="M294.4444,198.26763c0.39647,-0.02865 0.7411,0.26955 0.76975,0.66602c0.02865,0.39647 -0.26955,0.7411 -0.66602,0.76975c-0.39647,0.02865 -0.7411,-0.26955 -0.76975,-0.66602c-0.02865,-0.39647 0.26955,-0.74111 0.66602,-0.76976z" fill="#050303" stroke="none" stroke-width="0.5"/><path d="M292.6488,201.58372c0.39647,-0.02865 0.7411,0.26955 0.76975,0.66602c0.02865,0.39647 -0.26955,0.7411 -0.66602,0.76975c-0.39647,0.02865 -0.7411,-0.26955 -0.76975,-0.66602c-0.02865,-0.39647 0.26955,-0.7411 0.66602,-0.76975z" fill="#050303" stroke="none" stroke-width="0.5"/><path d="M288.21725,203.38464c0.06767,-0.18583 0.13415,-0.37128 0.1993,-0.55636c0.11887,-0.1234 0.28198,-0.20504 0.46634,-0.21836c0.39647,-0.02865 0.7411,0.26955 0.76975,0.66602c0.02865,0.39647 -0.26955,0.7411 -0.66602,0.76975c-0.39483,0.02853 -0.73822,-0.26705 -0.76937,-0.66105z" fill="#050303" stroke="none" stroke-width="0.5"/><path d="M298.10204,196.78438c0.39647,-0.02865 0.7411,0.26953 0.76975,0.666c0.02865,0.39647 -0.26955,0.7411 -0.66602,0.76975c-0.39647,0.02865 -0.7411,-0.26955 -0.76975,-0.66602c-0.02865,-0.39647 0.26955,-0.7411 0.66602,-0.76975z" fill="#050303" stroke="none" stroke-width="0.5"/></g><g><path d="M286.72881,185.42906l17.79587,11.40173l-9.97791,17.05206l-18.27578,-12.02688z" fill="#3b9987" stroke="#3b9987" stroke-width="1" stroke-linecap="butt"/><path d="M299.499,193.42867l4.84337,3.27612l-10.04035,17.38304l-5.03532,-3.52617z" fill-opacity="0.62059" fill="#7bcebf" stroke="#29907d" stroke-width="0" stroke-linecap="butt"/><path d="M286.72881,185.42906l14.11169,8.98389c0,0 -3.48246,4.97842 -5.29457,7.56896c-1.91181,2.73306 -5.8932,8.42473 -5.8932,8.42473l-13.38175,-8.55069z" fill-opacity="0.25158" fill="#7bcebf" stroke="none" stroke-width="0" stroke-linecap="butt"/><path d="M279.93108,196.00753l14.16385,8.05023l-4.42294,6.30927c0,0 -8.38955,-4.6032 -11.03282,-6.03975c-1.33871,-0.72756 -3.02503,-1.64405 -3.02503,-1.64405z" fill-opacity="0.54612" fill="#7bcebf" stroke="none" stroke-width="0" stroke-linecap="butt"/><path d="M294.1668,203.86965l-13.93374,-7.99758" fill="none" stroke="#29907d" stroke-width="0.5" stroke-linecap="round"/><path d="M300.80963,194.41605l-11.3258,16.20548" fill="none" stroke="#29907d" stroke-width="0.5" stroke-linecap="round"/><path d="M297.07859,195.71706c-0.34679,1.78471 -0.65486,3.61369 -2.35262,4.60804c-0.95428,0.30708 -2.63648,0.05512 -2.97754,-1.12658c-0.1549,-0.5367 0.39548,-1.5804 -0.05064,-2.07875c-1.00257,-1.11996 -2.02784,1.04725 -3.00637,0.97673c-1.14375,-0.08241 -2.10697,-1.42957 -2.25982,-2.41906c-0.02501,-1.92967 -1.8101,-0.52546 -1.88567,-2.30977c-0.12559,-2.9649 2.99935,-1.5248 4.10596,-2.03059c0.93362,-0.42672 0.00194,-1.97773 1.87817,-1.48538c1.50858,0.73257 1.69025,2.08967 2.79942,2.94065c1.11598,0.8562 1.53683,-0.66215 2.63641,-0.29664c1.18655,0.39442 1.62601,1.93516 1.31516,2.96358c0,0 -0.05655,0.16614 -0.20247,0.25776z" fill="#b9f8ed" stroke="none" stroke-width="0.5" stroke-linecap="butt"/><path d="M299.43718,203.39659l-0.01723,0.04605c-1.27662,1.41804 -1.12843,3.23017 -2.2666,4.67532c-0.66017,0.83824 -1.41253,0.99905 -1.90559,2.01342c-0.51313,1.04898 -0.82679,1.98956 -2.02366,2.47445c-1.26631,0.51302 -2.61472,-1.01201 -2.43343,-2.26962c0.17939,-1.24436 2.66849,-2.49126 3.37483,-3.9444c0.4602,-0.94675 0.34083,-2.36451 0.83647,-3.16757c0.51474,-0.83397 1.63128,-0.48103 2.24067,-1.19153c0.0954,-0.11123 0.60368,-0.99361 0.62578,-1.00609c1.42696,-0.80576 2.20618,1.16751 1.77827,2.15114c0,0 -0.06907,0.14208 -0.20951,0.21883z" fill="#b9f8ed" stroke="none" stroke-width="0.5" stroke-linecap="butt"/><path d="M288.63553,204.81309c-0.06922,0.04111 -0.137,0.05822 -0.20023,0.06029c-1.07292,1.80737 -2.30178,1.4053 -3.56219,-0.44789c-2.41207,1.53406 -2.62474,-1.4991 -4.19082,-1.9401c-0.78407,-0.2208 -1.91043,0.13459 -2.43614,-0.70239c-0.96439,-1.53541 1.27255,-3.86622 2.6308,-3.90073c1.99999,0.62454 2.6882,2.05839 4.02887,3.44921c1.26884,1.3163 3.63457,0.17356 4.0824,2.94732c0,0 0.05968,0.43763 -0.35269,0.5343z" fill="#b9f8ed" stroke="none" stroke-width="0.5" stroke-linecap="butt"/><path d="M294.0978,194.00638c0.44769,-0.07342 0.9464,-0.44045 1.34306,-0.22028c0.63378,0.35179 0.79646,0.85559 0.69282,1.33942c0.11164,-0.03211 0.22465,-0.06136 0.33955,-0.08807l-0.04419,-0.09298l0.80962,-0.38473c0.18316,-0.08895 0.40384,-0.09601 0.60119,-0.00008c0.34139,0.16595 0.48363,0.57721 0.31768,0.91859c-0.04577,0.09417 -0.11022,0.17319 -0.18673,0.23477l-0.51953,0.4377l-0.00803,-0.00952l-0.01365,0.02705c-0.24726,0.17638 -0.49449,0.35275 -0.74174,0.52912c0,0 -0.38587,0.2749 -0.7451,0.04784c-0.38596,0.17366 -0.81337,0.33141 -1.15203,0.56904l-0.04913,0.00685l0.00821,0.01598l-0.61981,0.31864c-0.18706,0.09873 -0.41701,0.11008 -0.62181,0.01053c-0.34139,-0.16595 -0.48361,-0.5772 -0.31767,-0.91859c0.00887,-0.01825 0.01844,-0.03595 0.02867,-0.05304l0.46022,-0.78685l0.01284,0.00752c0.01087,-0.02596 0.02218,-0.05177 0.03399,-0.0774c0.02726,-0.05918 0.08211,-0.12688 0.15346,-0.19738l-0.0552,0.00753c-0.13275,0.02009 -0.27276,0.00155 -0.40265,-0.06158c-0.34139,-0.16595 -0.48362,-0.57721 -0.31768,-0.9186c0.06873,-0.14141 0.17957,-0.24864 0.31008,-0.31396l0.62076,-0.31912l0.01388,0.02702z" fill="#e7fffb" stroke="none" stroke-width="0.5" stroke-linecap="butt"/><path d="M290.35451,208.79833c-0.6784,-0.11018 -0.56822,-0.78858 -0.56822,-0.78858l0.01796,-0.09857c-0.08647,0.0483 -0.18063,0.07776 -0.28565,0.08061c-0.28906,0.00783 -0.56957,-0.25112 -0.79737,-0.61793c-0.12291,0.01262 -0.25074,-0.00774 -0.37005,-0.06573c-0.12989,-0.06313 -0.23095,-0.16178 -0.29717,-0.27858l-0.38094,-0.64964l0.02422,-0.0142l-0.05559,-0.04591c-0.2456,-0.70615 -1.06708,-2.76518 0.09657,-3.25786c0.97748,-0.41386 2.1725,1.70346 2.52804,2.27901c0,0 0.01704,0.0277 0.03769,0.07477c0.0403,0.03239 0.07629,0.06883 0.10765,0.10844l0.53389,0.64462l-0.20914,0.17321c0.25491,0.30988 0.44999,0.65547 0.53335,1.03513l-0.12666,0.85296c0,0 -0.11018,0.67841 -0.78858,0.56823z" fill="#e7fffb" stroke="none" stroke-width="0.5" stroke-linecap="butt"/><path d="M300.70752,196.50252c0.68107,-0.09236 0.77341,0.5887 0.77341,0.5887l0.03457,0.26442c0.0417,0.02689 0.08111,0.05875 0.11739,0.09555c0.07352,0.07457 0.12652,0.16168 0.15905,0.25435l0.23935,0.63577l-0.07614,0.02867l0.1175,0.15231c-0.26322,1.58205 -0.52847,2.45051 -1.59588,2.67839l0.0407,0.3001l-0.48753,0.06613c-0.13572,0.09695 -0.42933,0.24984 -0.74216,0.05236l-0.06904,0.01329c-0.22085,0.04589 -0.45976,-0.01776 -0.6299,-0.19034c-0.23718,-0.24058 -0.26081,-0.61175 -0.07256,-0.87836l0.39586,-0.58475l0.03038,0.02057l0.03291,-0.10056c0.2729,-0.21626 0.59572,-0.35151 0.94087,-0.43506l-0.05373,-0.21025l0.03648,-0.00931c0.00361,-0.08009 0.02116,-0.15966 0.05261,-0.23474l0.24012,-0.6113c0.00016,-0.16526 0.00485,-0.33041 0.01587,-0.49532l-0.08882,-0.62715c0,0 -0.09237,-0.68107 0.5887,-0.77342z" fill="#e7fffb" stroke="none" stroke-width="0.5" stroke-linecap="butt"/></g></g></g></g></svg>