<svg version="1.1" xmlns="http://www.w3.org/2000/svg" xmlns:xlink="http://www.w3.org/1999/xlink" width="118.87082" height="100.27583" viewBox="0,0,118.87082,100.27583"><defs><radialGradient cx="260.31982" cy="180.32307" r="7.16015" gradientUnits="userSpaceOnUse" id="color-1"><stop offset="0" stop-color="#b40404"/><stop offset="1" stop-color="#ff0505"/></radialGradient></defs><g transform="translate(-200.41153,-150.47531)"><g data-paper-data="{&quot;isPaintingLayer&quot;:true}" fill-rule="nonzero" stroke-linejoin="miter" stroke-miterlimit="10" stroke-dasharray="" stroke-dashoffset="0" style="mix-blend-mode: normal"><g><path d="M286.38372,207.01737c0.66244,9.86967 -10.69937,18.66926 -25.37733,19.65445c-14.67796,0.98519 -27.11382,-6.21711 -27.77627,-16.08679c-0.14204,-2.11616 0.84198,-4.1531 1.56588,-6.36646c0.38575,-1.17945 0.12877,-2.70039 0.84867,-3.66443c0.72429,-0.96994 2.66297,-2.53047 2.66297,-2.53047c0,0 1.75199,-1.18386 2.69924,-1.76687c0.42058,-0.25886 0.89605,-0.71904 1.43193,-1.0614c0.97838,-0.62507 2.13417,-1.21383 3.35565,-1.98865c1.93764,-1.22911 7.60168,-5.83698 13.32041,-6.14591c5.71872,-0.30894 11.65782,3.96448 13.16033,4.71537c2.51678,1.2578 4.85227,3.29287 6.77907,4.63546c0.8389,0.58455 1.69089,0.53438 2.29528,1.07314c0.49383,0.44021 0.95639,0.89816 1.38552,1.37259c0.79034,0.87378 1.4672,1.80344 2.01672,2.78093c0.57539,1.02352 1.01119,2.09948 1.29151,3.21872c0.17627,0.70377 0.29106,1.42464 0.34044,2.16034z" fill="#d7c195" stroke="#6b4b04" stroke-width="0.5" stroke-linecap="butt"/><path d="M257.05791,192.65632l-0.31778,-14.91701l6.81041,-0.35947l-3.47883,16.53875" fill="#7b7878" stroke="#42413f" stroke-width="0.5" stroke-linecap="round"/><path d="M267.09907,180.46671c0.23961,3.56979 -2.76467,6.67837 -6.71024,6.94319c-3.94557,0.26482 -7.33832,-2.41438 -7.57792,-5.98417c-0.23961,-3.56979 2.76467,-6.67837 6.71024,-6.94319c3.94557,-0.26482 7.33832,2.41438 7.57792,5.98417z" fill="url(#color-1)" stroke="#7e0707" stroke-width="0.5" stroke-linecap="butt"/><path d="M275.38603,201.14194c0.05945,0.88574 -0.1317,1.61983 -0.42694,1.63966c-0.29524,0.01981 -0.58278,-0.68215 -0.64223,-1.56789c-0.05945,-0.88574 0.1317,-1.61983 0.42694,-1.63966c0.29524,-0.01981 0.58278,0.68215 0.64223,1.56789z" fill="#0b0a0a" stroke="none" stroke-width="0" stroke-linecap="butt"/><path d="M280.83697,200.57004c0.05284,0.78733 -0.25003,1.44878 -0.6765,1.4774c-0.18125,0.01216 -0.35566,-0.09194 -0.50036,-0.27613c-0.19575,-0.24918 -0.33713,-0.64492 -0.36751,-1.09761c-0.05284,-0.78733 0.25003,-1.44878 0.6765,-1.4774c0.42646,-0.02862 0.81503,0.58642 0.86787,1.37374z" fill="#0b0a0a" stroke="none" stroke-width="0" stroke-linecap="butt"/><path d="M252.48548,194.12556c0,0 3.75374,-1.38058 5.42697,-1.38316c1.39546,-0.00214 4.9399,2.6819 4.9399,2.6819" fill="none" stroke="#6b4b04" stroke-width="1" stroke-linecap="round"/><path d="M283.37005,212.61859c0,0 -6.59397,2.3088 -9.86964,2.2392c-2.91166,-0.06187 -11.12331,-2.48186 -11.12331,-2.48186" fill="none" stroke="#6b4b04" stroke-width="1" stroke-linecap="round"/><path d="M262.31201,213.86683c0,0 -0.18797,-1.99382 0.13631,-2.31182c0.38758,-0.38009 2.03327,0.18415 2.03327,0.18415" fill="none" stroke="#6b4b04" stroke-width="1" stroke-linecap="round"/><path d="M281.38475,210.10911c0,0 1.24398,1.31847 1.58623,2.11394c0.42322,0.98366 0.76217,3.34423 0.76217,3.34423" fill="none" stroke="#6b4b04" stroke-width="1" stroke-linecap="round"/></g><g stroke-linecap="butt"><path d="M308.36687,228.18139c0,0 1.98612,0.82276 1.16337,2.80887c-0.49145,1.18634 -1.39795,1.37052 -2.04834,1.32647c-1.24426,0.43822 -2.04972,-0.39838 -2.3637,-0.8234c-1.93299,-0.79769 -4.54834,-1.89522 -5.61302,-2.5017c-1.81142,-1.03186 -3.35926,-2.48884 -5.17893,-3.50607c-1.08578,-0.60698 -2.23429,-1.09682 -3.32071,-1.70268c-0.55791,-0.31113 -1.09731,-0.65914 -1.6064,-1.045c-0.17118,-0.12976 -0.29989,-0.66892 -0.4186,-0.48991c-1.19079,1.79561 -0.88044,4.2635 -1.42071,6.18077c-1.79282,6.36221 -4.67854,12.907 -7.14609,19.03149l-0.38937,0.23246l0.1121,0.11127l-1.53807,1.54951c-0.33318,0.34146 -0.78159,0.57473 -1.2925,0.63342c-1.17954,0.13549 -2.24559,-0.71088 -2.38109,-1.89042l-0.20794,-1.81018c-3.1488,-6.17247 -7.54188,-11.35649 -12.32288,-16.56401c-1.63751,-1.7836 -4.28374,-2.51929 -5.8687,-4.14147c-0.00192,-0.00197 -0.00384,-0.00394 -0.00576,-0.00591c-0.88801,1.19722 -1.8458,2.33916 -3.25445,3.27793c-1.09284,0.7283 -2.1021,2.38806 -3.3691,2.04243c-3.03189,-0.82707 -3.34628,-6.97188 -3.93311,-9.26535c-0.08068,-0.31532 -0.25351,-0.60479 -0.42203,-0.8938c-0.73768,1.00734 -1.67969,1.86664 -2.55466,2.76138c-3.92929,4.01802 -8.12994,7.3155 -13.42908,9.16741c-1.55887,-4.26175 -2.22848,-9.03766 -2.49748,-13.80729c-2.39148,1.5451 -5.24723,2.4417 -7.54824,2.08224c-1.297,-0.20261 -2.78516,-0.56465 -3.60191,-1.59236c-1.85626,-2.33575 -0.30162,-4.60244 -0.00267,-6.88628c0.73588,-5.62176 1.43328,-11.15232 2.13463,-16.82208c0.17844,-1.4426 0.30603,-2.90436 0.69414,-4.30518c0.099,-0.35733 1.07264,-0.69452 0.73094,-0.8385c-0.67895,-0.2861 -1.46547,0.28493 -2.19935,0.21976c-1.14385,-0.10158 -2.2655,-0.40064 -3.37016,-0.71438c-4.54876,-1.29195 -8.33277,-3.77014 -12.16844,-6.44619c-0.21908,-1.61231 -1.43102,-3.40555 -0.65726,-4.83691c0.64946,-1.20142 2.58261,-0.91304 3.91865,-1.19625c2.59047,-0.54914 5.29608,-0.0009 7.9441,0.00904c3.04636,0.01143 6.245,-0.55355 9.30792,-0.9462c-1.66321,-3.81073 -4.54108,-7.25763 -5.21082,-11.32095c-0.24506,-1.48677 -1.39077,-3.68547 -0.13512,-4.51845c3.18536,-2.11312 6.80927,0.73175 9.52305,1.76957c3.38759,1.2955 7.08093,1.89278 10.42183,3.30546c4.60073,1.94536 9.15783,3.65944 13.84654,5.36915c3.58334,-3.52536 7.95559,-6.96383 10.71004,-11.04108c1.09254,-1.61723 1.90913,-3.41519 3.0568,-4.99377c1.07433,-1.47771 2.60776,-5.0589 5.58413,-3.57654c1.78722,0.89011 2.3301,3.25555 3.28217,5.01056c1.89523,3.49365 2.62418,8.54914 3.07968,12.47303c0.16526,1.42363 0.48061,2.83834 0.49066,4.2715c0.00646,0.92117 -1.21919,2.23423 -0.44156,2.72807c0.80255,0.50967 1.556,-1.14529 2.45722,-1.44801c0.01538,-0.00517 8.45896,-1.61648 8.52908,-1.62987c2.7828,-0.53086 5.55185,-1.13535 8.30966,-1.78355c1.12669,-0.26482 2.6961,-0.41438 3.59157,-1.32831c0.85507,-0.87269 2.57408,-4.84323 3.83537,-4.9857c1.64122,-0.18539 3.41343,0.77367 4.54262,1.97905c0.82918,0.88514 0.41515,2.39038 0.66283,3.57768c0.45181,2.16584 1.29537,3.93718 0.49185,6.23424c-0.85647,2.44845 -4.20528,5.2013 -6.03827,6.97312c-1.10185,1.06508 -2.23359,2.14528 -3.04164,3.4474c-0.38675,0.62321 -0.66803,1.32861 -1.16951,1.86385c-0.21315,0.2275 -1.11134,0.11479 -0.87817,0.32171c0.72198,0.64064 1.79165,0.73627 2.62306,1.2266c3.18097,1.876 6.27948,3.99948 9.48785,5.87642c1.54413,1.02347 3.0882,2.04704 4.63221,3.07069c0.38163,-0.20588 0.76606,-0.4091 1.15401,-0.60862c0,0 1.91362,-0.97963 2.89324,0.934c0.47969,0.93703 0.26566,1.65011 -0.07772,2.13389c-0.03649,0.18707 -0.07888,0.30344 -0.07888,0.30344l-3.73398,2.5c-0.12445,-0.08253 -0.2489,-0.16504 -0.37335,-0.24757c-4.00708,2.25119 -7.80427,4.57959 -12.37527,5.98483c-1.08671,0.33409 -2.20523,0.56163 -3.32375,0.76518c-0.77789,0.14156 -1.56641,0.29178 -2.35674,0.26858c-0.32952,-0.00967 -0.93601,-0.69395 -0.91929,-0.36471c0.11958,2.35322 3.12409,5.04067 4.48494,6.34809c3.3512,3.2196 5.98543,6.0219 8.11775,10.16451l0.24205,0.44822c0.07609,0.03195 0.15234,0.06375 0.22875,0.09539z" data-paper-data="{&quot;index&quot;:null}" fill="#faff4f" stroke="#987200" stroke-width="1.5"/><text transform="translate(240.62711,210.73043) scale(0.3555,0.3555)" font-size="40" xml:space="preserve" fill="#000000" fill-rule="nonzero" stroke="none" stroke-width="1" stroke-linecap="butt" stroke-linejoin="miter" stroke-miterlimit="10" stroke-dasharray="" stroke-dashoffset="0" font-family="Marker" font-weight="normal" text-anchor="start" style="mix-blend-mode: normal"><tspan x="0" dy="0">SPUDOW</tspan></text></g></g></g></svg>