<svg version="1.1" xmlns="http://www.w3.org/2000/svg" xmlns:xlink="http://www.w3.org/1999/xlink" width="36.12816" height="43.62893" viewBox="0,0,36.12816,43.62893"><g transform="translate(-223.13039,-160.10073)"><g data-paper-data="{&quot;isPaintingLayer&quot;:true}" fill="none" fill-rule="nonzero" stroke-linecap="round" stroke-linejoin="miter" stroke-miterlimit="10" stroke-dasharray="" stroke-dashoffset="0" style="mix-blend-mode: normal"><path d="M226.40929,173.47681c-0.4299,-5.15883 4.00891,-7.21869 8.56821,-10.12607c4.5593,-2.90738 5.82064,-2.69551 9.34714,-1.29821c3.52651,1.39729 5.5829,3.69342 4.41393,6.75071c-1.16897,3.0573 -8.60842,12.21492 -14.54,19.73286c-5.93158,7.51794 -5.56071,4.62536 -7.78929,8.56821c-2.22857,3.94286 -0.81691,3.79706 1.03857,3.37536c1.85548,-0.4217 5.75712,-5.25646 10.38571,-5.97179c4.62859,-0.71533 13.80245,-4.08173 18.175,1.55786" stroke="#ffffff" stroke-width="6.5"/><path d="M226.40928,173.4768c-0.4299,-5.15883 4.00891,-7.21869 8.56821,-10.12607c4.5593,-2.90738 5.82064,-2.69551 9.34714,-1.29821c3.52651,1.39729 5.5829,3.69342 4.41393,6.75071c-1.16897,3.0573 -8.60842,12.21492 -14.54,19.73286c-5.93158,7.51794 -5.56071,4.62536 -7.78929,8.56821c-2.22857,3.94286 -0.81691,3.79706 1.03857,3.37536c1.85548,-0.4217 5.75712,-5.25646 10.38571,-5.97179c4.62859,-0.71533 13.80245,-4.08173 18.175,1.55786" stroke="#000000" stroke-width="4"/></g></g></svg>