<svg version="1.1" xmlns="http://www.w3.org/2000/svg" xmlns:xlink="http://www.w3.org/1999/xlink" width="82.5468" height="120.03197" viewBox="0,0,82.5468,120.03197"><defs><linearGradient x1="295.94364" y1="91.04512" x2="304.08415" y2="190.23166" gradientUnits="userSpaceOnUse" id="color-1"><stop offset="0" stop-color="#b1cf16"/><stop offset="1" stop-color="#e9f366"/></linearGradient><radialGradient cx="290.47963" cy="120.07465" r="3.55387" gradientUnits="userSpaceOnUse" id="color-2"><stop offset="0" stop-color="#020702"/><stop offset="1" stop-color="#050a02"/></radialGradient><radialGradient cx="319.98465" cy="123.14066" r="2.78735" gradientUnits="userSpaceOnUse" id="color-3"><stop offset="0" stop-color="#020702"/><stop offset="1" stop-color="#050a02"/></radialGradient></defs><g transform="translate(-260.68376,-71.10713)"><g data-paper-data="{&quot;isPaintingLayer&quot;:true}" fill-rule="nonzero" stroke-linejoin="miter" stroke-miterlimit="10" stroke-dasharray="" stroke-dashoffset="0" style="mix-blend-mode: normal"><g><g stroke-linecap="butt"><g stroke="#004700" stroke-width="1"><path d="M292.335,107.43786c0,0 1.51092,-12.30931 2.54296,-17.51902c0.92407,-4.66473 4.93244,-14.68298 4.93244,-14.68298c0,0 7.99817,5.28245 9.25045,5.65996c0.26302,0.07931 2.61547,1.6952 2.61547,1.6952c0,0 -3.75779,6.62513 -4.65229,11.14053c-1.04889,5.29477 -3.38997,17.11253 -3.38997,17.11253z" fill="#399435"/><path d="M312.8049,82.353c-0.36708,1.85293 -2.38962,0.85997 -5.45798,-0.21628c-0.51675,-0.18126 -0.64251,-2.48823 -1.21565,-2.66103c-0.74344,-0.22412 -1.86162,1.5332 -2.50165,1.072c-2.78339,-2.00576 -4.47914,-5.81145 -4.13044,-7.57168c0.42887,-2.165 3.9823,-1.39584 7.95873,-0.19711c3.97645,1.19874 5.77588,7.4091 5.34701,9.57411z" fill="#91e665"/></g><path d="M264.35355,172.3979c-3.20631,-8.21724 -2.86063,-16.15012 -2.31162,-24.77424c0.5981,-9.39484 1.36187,-17.57502 5.11633,-26.03c2.12957,-3.88889 4.32736,-7.91968 6.1569,-11.98856c2.87623,-6.39672 4.57186,-13.93752 11.22798,-17.04805c3.85759,-1.80273 9.2513,-2.35293 12.96899,0.49903c1.06256,0.81512 2.46141,1.26831 3.44365,2.14775c2.02844,-1.52265 2.38692,-2.09509 5.70063,-0.03582c0.80106,0.49782 1.52333,1.2272 2.02043,2.06101c0.5207,-0.5624 1.26453,-0.91114 1.91854,-1.31146c2.32524,-1.42328 2.98185,-1.66489 5.7459,-1.40529c6.56016,0.61611 8.51797,7.37835 10.32422,13.03516c1.13364,3.76782 2.83036,7.50777 3.70831,11.31852c0.21028,0.91271 0.4666,3.81827 0.93936,4.93367c1.44707,3.4142 3.40803,6.43396 4.48707,10.05609c2.13158,7.15537 3.03567,14.87453 4.27852,22.17367c0.92849,5.45297 2.47196,11.09483 2.0931,16.52405c-0.02488,0.56382 -0.28654,6.74485 -0.34901,7.05948c-0.31961,1.60994 -1.5912,2.81305 -1.94484,4.41231c-0.20744,0.93819 0.30342,2.11462 -0.16484,2.92274c-1.99441,3.44175 -7.91096,3.70934 -11.48063,2.62435c-2.32447,-0.70652 -3.43343,-1.77091 -5.09767,-3.55034c-0.62436,-0.66758 -1.27293,-1.33533 -1.74749,-2.12287c-0.16817,-0.27911 0.19298,-0.97018 -0.1077,-0.95599c-0.37399,0.01764 -0.23303,0.80304 -0.55134,0.98707c-1.61735,0.93521 -3.45024,1.48127 -5.27748,1.92559c-4.99316,1.2142 -9.10689,-0.05051 -13.32586,-3.36338c-0.51954,-0.85184 -1.07409,-1.68313 -1.55861,-2.55552c-0.15905,-0.28638 -0.06432,-0.92766 -0.36616,-0.91008c-0.40647,0.02367 -0.38031,0.78195 -0.73134,0.97401c-2.73123,1.4944 -6.12145,2.33659 -9.26273,2.63856c-8.40491,0.80798 -21.43678,1.97395 -26.73505,-7.15531c0,0 -1.10771,-1.99036 0.6987,-2.99328c0.06208,-0.03446 0.12335,-0.0654 0.18377,-0.09299z" fill="url(#color-1)" stroke="#334a0d" stroke-width="2"/><path d="M315.92238,119.76696c1.8731,-0.00612 2.75785,-4.23539 4.21883,-3.13918c2.02113,1.5165 3.4353,3.88667 3.65421,6.55398c0.37715,4.59536 -2.93621,8.33253 -7.40063,8.34715c-4.46442,0.01463 -7.82751,-1.77994 -8.20467,-6.37533c-0.37715,-4.59536 1.95131,-5.55501 6.41572,-5.56964z" data-paper-data="{&quot;index&quot;:null}" fill="#f6f9df" stroke="#354c0d" stroke-width="1.5"/><path d="M301.36867,122.34578c0.37715,4.59536 -2.68965,6.41104 -7.15406,6.42567c-4.46442,0.01463 -8.38927,-3.69879 -8.76642,-8.29415c-0.2189,-2.66731 0.80552,-5.0455 2.57672,-6.57441c1.2803,-1.10518 3.92264,4.55094 5.79573,4.54479c4.46442,-0.01463 7.17084,-0.69725 7.54799,3.89812z" fill="#f6f9df" stroke="#354c0d" stroke-width="1.5"/><path d="M322.53923,120.85816c-0.84444,0.00277 -0.9176,-0.88872 -0.9176,-0.88872l0.02468,-0.00673c-0.61401,-2.25904 -2.01825,-1.10702 -3.70499,-1.09589c-1.74835,-0.05819 -3.43295,1.96211 -5.41443,2.24041c-5.18156,0.72777 -9.78399,-0.27339 -14.67077,-2.73049c-1.54596,-0.92605 -3.41565,-0.25978 -5.46518,-0.98688c-3.52471,-1.25046 -7.29485,-3.13169 -8.79733,0.87368c0,0 -0.31218,0.79863 -1.10021,0.40239c-0.78802,-0.39621 -0.47581,-1.19483 -0.47581,-1.19483c2.96165,-7.35058 11.2426,-3.82302 16.52296,-0.65999c4.57483,2.30024 8.78574,3.16978 13.63475,2.52717c2.21216,-0.29317 3.49214,-2.19851 5.61967,-2.25443c2.54476,0.00163 4.3026,-0.87297 5.4543,2.44106l0.06125,0.43902c0,0 0.07317,0.8915 -0.77127,0.89426z" fill="#334a0d" stroke="none" stroke-width="0.5"/><path d="M292.52034,120.06796c0.17175,2.09254 -0.60271,3.79187 -1.72978,3.79554c-1.12706,0.00369 -2.17995,-1.68966 -2.35168,-3.78217c-0.17175,-2.09254 0.6027,-3.79186 1.72976,-3.79555c1.12706,-0.00369 2.17996,1.68965 2.35169,3.78217z" fill="url(#color-2)" stroke="none" stroke-width="0"/><path d="M322.09575,123.13374c0.1347,1.6412 -0.70129,2.97475 -1.86721,2.97859c-1.16592,0.0038 -2.2203,-1.32354 -2.35501,-2.96473c-0.1347,-1.6412 0.70128,-2.97476 1.86721,-2.97859c1.16592,-0.0038 2.2203,1.32354 2.35501,2.96473z" fill="url(#color-3)" stroke="none" stroke-width="0"/><path d="M282.6221,159.12695c-0.54538,0.63235 -1.19422,0.00391 -1.19422,0.00391l-0.62781,-0.69637c-2.51231,0.3389 -5.58333,1.31604 -6.6069,-2.38081c-0.0414,-0.14953 -0.23776,-2.62172 -0.25891,-2.87925c0,0 -0.07318,-0.8915 0.77128,-0.89425c0.84444,-0.00277 0.9176,0.88872 0.9176,0.88872c0.06758,0.82325 -0.03338,1.66176 0.18011,2.46974c0.67851,2.56789 3.67575,1.04643 5.50793,1.14644l1.20743,1.08108c0,0 0.64884,0.62844 0.10348,1.26076z" fill="#334a0d" stroke="none" stroke-width="0.5"/><path d="M333.97621,170.01483c0.78802,0.39621 0.47581,1.19483 0.47581,1.19483l-0.63089,1.25356c-1.41834,0.15252 -2.76706,0.56728 -4.17497,0.59244c-0.00712,0.00021 -0.01428,0.00034 -0.02144,0.00035c-0.10672,0.00036 -0.21054,-0.02023 -0.30768,-0.05804c-0.24936,-0.0861 -0.56637,-0.29987 -0.60993,-0.83068c-0.04355,-0.53081 0.23818,-0.74654 0.47328,-0.83423c0.09087,-0.03845 0.19128,-0.05969 0.29801,-0.06004c0.00689,-0.00002 0.01377,0.00004 0.02065,0.00018c1.19122,0.00692 2.06986,-0.72108 3.30972,-0.32379l0.06724,-0.5322c0,0 0.31218,-0.79863 1.10021,-0.40239z" fill="#334a0d" stroke="none" stroke-width="0.5"/></g><path d="M331.13322,162.07615c0.23726,2.57947 -10.49821,-3.08588 -16.46046,-4.72585c-5.59768,-1.53969 -11.1247,-3.58204 -11.3181,-3.57912c-3.07133,0.04637 -5.90476,0.57813 -8.24536,1.19232c-3.86333,1.01377 -15.16872,-0.39976 -15.46996,-3.67478c-0.48375,-5.25922 13.63928,-12.37938 21.78003,-12.50226c8.14075,-0.1229 29.23012,18.03048 29.71386,23.2897z" fill="#ffffff" stroke="#334a0d" stroke-width="1.5" stroke-linecap="butt"/><path d="M292.6563,153.52691l-3.37941,-10.49932" fill="none" stroke="#334a0d" stroke-width="1.5" stroke-linecap="round"/><path d="M308.25131,157.5522l-0.34113,-15.82036" fill="none" stroke="#334a0d" stroke-width="1.5" stroke-linecap="round"/><path d="M321.11536,150.05391l-0.1993,9.94468" fill="none" stroke="#334a0d" stroke-width="1.5" stroke-linecap="round"/><path d="M281.40122,152.27658l25.45428,-5.86232l23.851,15.05966" fill="none" stroke="#334a0d" stroke-width="1.5" stroke-linecap="round"/></g></g></g></svg>