<svg version="1.1" xmlns="http://www.w3.org/2000/svg" xmlns:xlink="http://www.w3.org/1999/xlink" width="85.91936" height="122.37355" viewBox="0,0,85.91936,122.37355"><defs><linearGradient x1="268.6026" y1="106.29011" x2="255.49581" y2="204.32358" gradientUnits="userSpaceOnUse" id="color-1"><stop offset="0" stop-color="#b1cf16"/><stop offset="1" stop-color="#e9f366"/></linearGradient><radialGradient cx="256.63771" cy="133.67923" r="3.75905" gradientUnits="userSpaceOnUse" id="color-2"><stop offset="0" stop-color="#020702"/><stop offset="1" stop-color="#050a02"/></radialGradient><radialGradient cx="286.53839" cy="141.56719" r="2.94828" gradientUnits="userSpaceOnUse" id="color-3"><stop offset="0" stop-color="#020702"/><stop offset="1" stop-color="#050a02"/></radialGradient></defs><g transform="translate(-215.67662,-87.74425)"><g data-paper-data="{&quot;isPaintingLayer&quot;:true}" fill-rule="nonzero" stroke-linejoin="miter" stroke-miterlimit="10" stroke-dasharray="" stroke-dashoffset="0" style="mix-blend-mode: normal"><g><g stroke-linecap="butt"><g stroke="#004700" stroke-width="1"><path d="M261.30415,121.66965c0,0 4.23847,-11.74756 6.43902,-16.65434c1.97035,-4.39348 8.29856,-13.49314 8.29856,-13.49314c0,0 7.13874,6.47716 8.35409,7.05309c0.25527,0.12098 2.34143,2.08669 2.34143,2.08669c0,0 -5.33175,5.83383 -7.23903,10.08666c-2.23648,4.98689 -7.22824,16.11747 -7.22824,16.11747z" fill="#399435"/><path d="M287.95812,100.61735c-0.78268,1.74519 -2.66235,0.44145 -5.60737,-1.11712c-0.49598,-0.26248 -0.12526,-2.53208 -0.6815,-2.79569c-0.72151,-0.3419 -2.26156,1.18536 -2.82446,0.62952c-2.44794,-2.4173 -3.37823,-6.40846 -2.63471,-8.06634c0.91447,-2.03911 4.4287,-0.69932 8.28787,1.12944c3.85917,1.82877 4.37465,8.1811 3.46018,10.22021z" fill="#91e665"/></g><path d="M218.20875,180.34283c-1.53714,-8.54214 0.54375,-16.21728 2.9854,-24.53245c2.65988,-9.05827 5.2276,-16.90504 10.95328,-24.52307c3.05073,-3.43706 6.20295,-7.00111 8.98194,-10.66344c4.36888,-5.75757 7.76313,-12.82639 15.33422,-14.7531c4.38787,-1.11664 10.09511,-0.75731 13.3272,2.63996c0.92377,0.97098 2.27453,1.645 3.10112,2.66534c2.43209,-1.14737 2.92779,-1.64582 5.9135,0.91169c0.72177,0.61826 1.31163,1.44916 1.64553,2.34446c0.66157,-0.46173 1.5079,-0.67815 2.27237,-0.95976c2.71799,-1.00123 3.45068,-1.1277 6.2578,-0.41568c6.66237,1.68988 7.22208,8.60645 7.86483,14.42034c0.35618,3.86092 1.30173,7.78816 1.3837,11.64846c0.01964,0.92458 -0.34582,3.79933 -0.09828,4.96506c0.75767,3.56827 2.13339,6.83739 2.46464,10.54722c0.65435,7.32863 -0.08539,15.00297 -0.38297,22.32416c-0.22232,5.46944 0.15145,11.22511 -1.42009,16.45432c-0.14821,0.54545 -1.76162,6.52694 -1.89466,6.82325c-0.68074,1.51621 -2.25936,2.47779 -2.97302,3.97795c-0.41866,0.88005 -0.1449,2.11161 -0.8055,2.82156c-2.8136,3.02366 -9.00112,2.30203 -12.4636,0.65169c-2.25467,-1.07466 -3.17236,-2.29632 -4.51005,-4.30715c-0.50185,-0.75439 -1.02873,-1.51298 -1.34933,-2.35943c-0.11361,-0.29998 0.41062,-0.91363 0.09603,-0.94974c-0.39128,-0.04491 -0.41581,0.74407 -0.78553,0.8706c-1.87864,0.64303 -3.89605,0.87094 -5.88553,1.00063c-5.43649,0.35441 -9.42356,-1.56146 -13.07486,-5.49122c-0.35324,-0.9166 -0.74721,-1.81898 -1.0597,-2.74979c-0.10258,-0.30556 0.13482,-0.91491 -0.18169,-0.94789c-0.42623,-0.04442 -0.5638,0.69905 -0.96918,0.82798c-3.15403,1.00313 -6.84911,1.2611 -10.16899,1.03383c-8.88276,-0.60808 -22.63669,-1.63553 -26.14299,-11.41402c0,0 -0.71532,-2.12403 1.37388,-2.80166c0.0718,-0.02329 0.14199,-0.04327 0.21058,-0.06014z" fill="url(#color-1)" stroke="#334a0d" stroke-width="2"/><path d="M283.06263,137.60414c1.94182,0.30506 3.77686,-3.67048 5.05234,-2.35936c1.76452,1.81381 2.71483,4.35896 2.36236,6.99526c-0.60725,4.54194 -4.85141,7.63454 -9.47961,6.90747c-4.62821,-0.72707 -7.72258,-3.03477 -7.11533,-7.57674c0.60725,-4.54194 3.22789,-5.0907 7.8561,-4.36364z" data-paper-data="{&quot;index&quot;:null}" fill="#f6f9df" stroke="#354c0d" stroke-width="1.5"/><path d="M267.42529,137.70116c-0.60725,4.54194 -4.17868,5.80252 -8.80689,5.07545c-4.62821,-0.72707 -7.88783,-4.99844 -7.28058,-9.54038c0.35248,-2.6363 1.93023,-4.78432 4.09718,-5.98052c1.56637,-0.86467 3.07544,5.08737 5.01726,5.39242c4.62821,0.72707 7.58025,0.51109 6.973,5.05303z" fill="#f6f9df" stroke="#354c0d" stroke-width="1.5"/><path d="M289.68056,139.76653c-0.87542,-0.13752 -0.75761,-1.01865 -0.75761,-1.01865l0.02702,-0.00246c-0.14551,-2.30394 -1.85045,-1.41419 -3.6003,-1.68343c-1.79861,-0.34704 -3.98257,1.34251 -6.09577,1.28475c-5.52603,-0.15102 -10.07662,-1.89114 -14.6056,-5.09765c-1.40047,-1.15938 -3.48212,-0.82039 -5.44748,-1.86946c-3.37995,-1.80417 -6.87719,-4.26393 -9.30357,-0.6092c0,0 -0.49686,0.72662 -1.22718,0.20954c-0.73032,-0.51706 -0.23345,-1.24367 -0.23345,-1.24367c4.66451,-6.67316 12.47731,-1.85963 17.26074,2.10035c4.23987,3.00181 8.41345,4.54862 13.57647,4.72743c2.35542,0.08157 4.09522,-1.56311 6.31144,-1.26434c2.63595,0.42415 4.64698,-0.13647 5.1204,3.28511l-0.03188,0.4381c0,0 -0.11781,0.88114 -0.99323,0.74361z" fill="#334a0d" stroke="none" stroke-width="0.5"/><path d="M258.7533,134.01158c-0.27651,2.06822 -1.44787,3.59602 -2.61628,3.41246c-1.16841,-0.18355 -1.89143,-2.00897 -1.61492,-4.07716c0.27651,-2.06822 1.44786,-3.59603 2.61627,-3.41247c1.16841,0.18355 1.89144,2.00897 1.61493,4.07716z" fill="url(#color-2)" stroke="none" stroke-width="0"/><path d="M288.72695,141.91099c-0.21688,1.62212 -1.37254,2.78318 -2.58124,2.59331c-1.2087,-0.18989 -2.01275,-1.6588 -1.79588,-3.28092c0.21688,-1.62212 1.37254,-2.78319 2.58124,-2.59331c1.2087,0.18989 2.01275,1.6588 1.79588,3.28092z" fill="url(#color-3)" stroke="none" stroke-width="0"/><path d="M240.01657,170.44056c-0.70233,0.52582 -1.23803,-0.19449 -1.23803,-0.19449l-0.49916,-0.78303c-2.67629,-0.08683 -6.07,0.35568 -6.32756,-3.41778c-0.01042,-0.15263 0.32304,-2.595 0.35706,-2.84953c0,0 0.1178,-0.88113 0.99323,-0.7436c0.87542,0.13752 0.75761,1.01865 0.75761,1.01865c-0.10878,0.81368 -0.39547,1.61426 -0.34976,2.43728c0.14526,2.61571 3.58074,1.63037 5.45711,2.03209l1.01608,1.25427c0,0 0.53571,0.7203 -0.1666,1.24611z" fill="#334a0d" stroke="none" stroke-width="0.5"/><path d="M290.85373,189.58095c0.73032,0.51706 0.23345,1.24367 0.23345,1.24367l-0.92582,1.11714c-1.50248,-0.08685 -2.98981,0.09347 -4.45383,-0.11578c-0.00742,-0.00098 -0.01486,-0.00204 -0.0223,-0.00321c-0.11064,-0.01738 -0.21373,-0.05468 -0.30615,-0.10767c-0.23964,-0.12533 -0.52161,-0.38634 -0.45147,-0.91098c0.07015,-0.52464 0.40888,-0.68814 0.67148,-0.73457c0.1025,-0.02239 0.21112,-0.02642 0.32176,-0.00904c0.00714,0.00113 0.01426,0.00233 0.02136,0.00361c1.23258,0.20454 2.30092,-0.35917 3.49911,0.23397l0.18523,-0.50759c0,0 0.49686,-0.72662 1.22718,-0.20954z" fill="#334a0d" stroke="none" stroke-width="0.5"/></g><path d="M289.6325,181.37066c-0.31439,2.55372 -10.20574,-4.7512 -16.02635,-7.33981c-5.46469,-2.43031 -10.74703,-5.33886 -10.94802,-5.36813c-3.1919,-0.46481 -6.24274,-0.41697 -8.80094,-0.20695c-4.22247,0.34666 -15.62763,-2.90846 -15.22847,-6.15081c0.64099,-5.20673 16.81838,-9.80192 25.2787,-8.56991c8.46032,1.232 26.36607,22.42887 25.72508,27.6356z" fill="#ffffff" stroke="#334a0d" stroke-width="1.5" stroke-linecap="butt"/><path d="M251.62791,166.64814l-1.22087,-10.79533" fill="none" stroke="#334a0d" stroke-width="1.5" stroke-linecap="round"/><path d="M269.99209,157.68388l-3.08227,15.47748" fill="none" stroke="#334a0d" stroke-width="1.5" stroke-linecap="round"/><path d="M281.86508,167.98854l-2.36614,9.66044" fill="none" stroke="#334a0d" stroke-width="1.5" stroke-linecap="round"/><path d="M240.23945,163.56045l27.64316,-1.48754l21.43859,18.63986" fill="none" stroke="#334a0d" stroke-width="1.5" stroke-linecap="round"/></g></g></g></svg>