<svg version="1.1" xmlns="http://www.w3.org/2000/svg" xmlns:xlink="http://www.w3.org/1999/xlink" width="24.24106" height="18.31361" viewBox="0,0,24.24106,18.31361"><g transform="translate(-228.05919,-170.39573)"><g data-paper-data="{&quot;isPaintingLayer&quot;:true}" fill-rule="nonzero" stroke-linejoin="miter" stroke-miterlimit="10" stroke-dasharray="" stroke-dashoffset="0" style="mix-blend-mode: normal"><g><path d="M235.76622,173.50689l5.67636,-2.76639l1.04115,2.74985l3.43393,-0.86449l-0.42849,2.22439l3.69403,0.95395l-1.42154,2.11388l4.06463,1.77936l-3.51812,2.88591l0.79383,3.70756l-5.26967,-1.06897l-1.66886,3.07159l-2.31234,-2.34842l-5.67185,2.18379l0.40218,-3.25276l-3.4204,-0.88329l1.24488,-1.4298l-3.92782,-1.74403l3.45648,-3.77747l-2.55966,-1.39071z" fill="#fff900" stroke="#000000" stroke-width="0.5" stroke-linecap="round"/><path d="M244.59912,181.18769c-0.63868,2.47318 -3.21553,3.94635 -5.75555,3.29041c-2.54002,-0.65594 -4.08137,-3.19259 -3.44269,-5.66578c0.63868,-2.47318 3.21553,-3.94635 5.75555,-3.29041c2.54002,0.65594 4.08137,3.19259 3.44269,5.66578z" fill="#ff9800" stroke="none" stroke-width="0" stroke-linecap="butt"/></g></g></g></svg>