<svg version="1.1" xmlns="http://www.w3.org/2000/svg" xmlns:xlink="http://www.w3.org/1999/xlink" width="103.08856" height="70.3615" viewBox="0,0,103.08856,70.3615"><g transform="translate(-202.17044,-146.25)"><g data-paper-data="{&quot;isPaintingLayer&quot;:true}" fill-rule="nonzero" stroke-linejoin="miter" stroke-miterlimit="10" stroke-dasharray="" stroke-dashoffset="0" style="mix-blend-mode: normal"><path d="M236.8619,156.49614l1.13349,0.75566c-0.15739,0.01391 -0.32005,0.01833 -0.48847,0.01253c-0.50607,-0.01742 -0.79124,-0.4322 -1.01497,-0.95316z" fill="#000000" stroke="#040404" stroke-width="2.5" stroke-linecap="butt"/><g stroke="#1a6521" stroke-width="2.5" stroke-linecap="butt"><path d="M255.2634,202.08761v-12c0,0 3.03965,-3.2357 5.76641,-3.2357c1.983,0 6.21343,5.46834 10.26249,3.92666c9.03715,-3.44091 24.0687,-0.69096 24.0687,-0.69096v12c0,0 -7.68207,2.95 -15.09755,2.89906c-1.94749,-0.01337 -3.6171,-4.10697 -5.43238,-3.91752c-6.41188,0.66917 -9.75285,4.25415 -12.68638,4.25415c-3.1526,0 -6.88128,-3.23569 -6.88128,-3.23569z" fill="#7f4e07"/><path d="M302.63162,196.46261c0,4.90153 -5.06957,8.875 -11.32319,8.875c-6.25363,0 -11.32319,-3.97347 -11.32319,-8.875c0,-4.90153 5.06957,-8.875 11.32319,-8.875c6.25363,0 11.32319,3.97347 11.32319,8.875z" fill="#32c302"/></g><g stroke="#1a6521" stroke-width="2.5" stroke-linecap="butt"><path d="M251.61227,166.12727v-12.5c0,0 5.74065,-1.61785 9.84351,-1.61785c2.22954,0 5.6592,3.38439 9.71283,3.59162c2.46844,0.12619 5.85867,-5.96216 8.38097,-6.14679c6.99831,-0.51227 12.45469,4.17302 12.45469,4.17302v12.5c0,0 -6.37855,3.45682 -13.41158,3.52544c-2.02522,0.01976 -3.87016,-4.05665 -5.92187,-3.87363c-5.1089,0.45571 -9.91407,3.12164 -12.49387,3.12164c-3.67107,0 -8.56469,-2.77345 -8.56469,-2.77345z" fill="#7f4e07"/><path d="M293.53212,169.7766c-5.40918,-0.2916 -9.4873,-5.17629 -9.10875,-10.91025c0.37854,-5.73396 5.07043,-10.14587 10.47959,-9.85426c1.81535,0.09786 6.29557,0.47375 8.06327,1.46475c1.32916,0.74516 0.08886,1.94209 0.78621,3.05204c1.13867,1.81236 0.41526,4.03081 0.25928,6.39345c-0.12054,1.82575 0.11608,3.75676 -0.76297,5.20528c-1.03703,1.70881 -2.23273,3.00648 -4.18984,3.79393c-1.59417,0.64141 -3.87177,0.94428 -5.52678,0.85506z" fill="#32c302"/></g><path d="M271.6875,180c0,17.94925 -14.18698,32.5 -31.6875,32.5c-17.50053,0 -31.6875,-14.55075 -31.6875,-32.5c0,-17.94925 14.18697,-32.5 31.6875,-32.5c17.50052,0 31.6875,14.55075 31.6875,32.5z" fill="#32c302" stroke="#1a6521" stroke-width="2.5" stroke-linecap="butt"/><path d="M244.98541,163.29015c0,5.10863 -3.74962,9.25 -8.375,9.25c-4.62538,0 -8.375,-4.14137 -8.375,-9.25c0,-5.10863 3.74962,-9.25 8.375,-9.25c4.62538,0 8.375,4.14137 8.375,9.25z" fill="#ffffa8" stroke="#040404" stroke-width="2.5" stroke-linecap="butt"/><path d="M243.4476,162.1306c0,1.38071 -1.39911,2.5 -3.125,2.5c-1.72589,0 -3.125,-1.11929 -3.125,-2.5c0,-1.38071 1.39911,-2.5 3.125,-2.5c1.72589,0 3.125,1.11929 3.125,2.5z" fill="#070606" stroke="#040404" stroke-width="0" stroke-linecap="butt"/><path d="M245.39628,185.34049c0,1.17361 -0.7835,2.125 -1.75,2.125c-0.9665,0 -1.75,-0.95139 -1.75,-2.125c0,-1.17361 0.7835,-2.125 1.75,-2.125c0.9665,0 1.75,0.95139 1.75,2.125z" fill="#ad0303" stroke="none" stroke-width="0" stroke-linecap="butt"/><path d="M205.25822,208.81921v-37.94014l1.60483,-1.49784l0.09146,-0.07839c0.53266,0.22998 1.1894,0.36029 1.99861,0.36029c3.12262,0 3.89881,-1.88377 4.21929,-4.0334c4.77322,0.0359 10.27388,0.25874 14.87656,1.12572c3.60883,0.67977 6.18138,4.75463 10.08895,5.36247c2.5736,0.40034 6.23761,-1.2494 8.18591,-2.71292c0.91301,-0.68583 1.3076,-2.46697 2.44736,-2.39706c7.59045,0.46558 14.43961,1.79131 22.12539,1.46565v40.34562z" fill="#cb5959" stroke="#9d9a9a" stroke-width="1.5" stroke-linecap="butt"/><path d="M271.6875,180c0,17.94925 -14.18698,32.5 -31.6875,32.5c-17.50053,0 -31.6875,-14.55075 -31.6875,-32.5c0,-1.29462 0.0738,-2.57157 0.21733,-3.82664c0.20953,0.02113 0.43116,0.03207 0.66559,0.03207c3.12262,0 3.89881,-1.88378 4.21929,-4.03341c4.77322,0.0359 10.27388,0.25874 14.87656,1.12572c3.60883,0.67977 6.18138,4.75463 10.08895,5.36247c2.5736,0.40034 6.23761,-1.2494 8.18591,-2.71292c0.91301,-0.68583 1.3076,-2.46697 2.44736,-2.39706c7.64872,0.46915 14.54472,1.81172 22.30255,1.45786c0.24458,1.62729 0.37147,3.2944 0.37147,4.99191z" fill="#32c302" stroke="#1a6521" stroke-width="2.5" stroke-linecap="butt"/><path d="M205.50053,215.3615v-37.94014l1.60483,-1.49784l0.09146,-0.07839c0.53266,0.22998 1.1894,0.36029 1.99861,0.36029c3.12262,0 3.89881,-1.88377 4.21929,-4.0334c4.77322,0.0359 10.27388,0.25874 14.87656,1.12572c3.60883,0.67977 6.18138,4.75463 10.08895,5.36247c2.5736,0.40034 6.23761,-1.2494 8.18591,-2.71292c0.91301,-0.68583 1.3076,-2.46697 2.44736,-2.39706c7.59045,0.46558 14.43961,1.79131 22.12539,1.46565v40.34562z" fill="#a90000" stroke="#040404" stroke-width="2.5" stroke-linecap="butt"/><path d="" fill="#a90000" stroke="#040404" stroke-width="2.5" stroke-linecap="butt"/><path d="" fill="#a90000" stroke="#040404" stroke-width="2.5" stroke-linecap="butt"/><path d="" fill="#a90000" stroke="#040404" stroke-width="2.5" stroke-linecap="butt"/><path d="M228.15038,194.56062v-21.28917c0.04706,0.0087 0.09402,0.01746 0.1409,0.02629c3.60883,0.67977 6.18138,4.75463 10.08895,5.36247c2.5736,0.40034 6.23761,-1.2494 8.18591,-2.71292c0.10827,-0.08133 0.20925,-0.17806 0.30504,-0.28528v18.8986z" fill="#000000" stroke="#040404" stroke-width="2.5" stroke-linecap="butt"/><path d="M247.4366,186.62504c0,4.21117 -3.26097,7.625 -7.28358,7.625c-4.02261,0 -7.28358,-3.41383 -7.28358,-7.625c0,-4.21117 3.26097,-7.625 7.28358,-7.625c4.02261,0 7.28358,3.41383 7.28358,7.625z" fill="#ffffa8" stroke="#040404" stroke-width="2.5" stroke-linecap="butt"/><path d="" fill="#060606" stroke="#040404" stroke-width="0" stroke-linecap="butt"/><path d="M245.39628,185.34049c0,1.17361 -0.7835,2.125 -1.75,2.125c-0.9665,0 -1.75,-0.95139 -1.75,-2.125c0,-1.17361 0.7835,-2.125 1.75,-2.125c0.9665,0 1.75,0.95139 1.75,2.125z" fill="#070606" stroke="none" stroke-width="0" stroke-linecap="butt"/><path d="M213.39943,172.2721l11.47597,0.51004" fill="none" stroke="#9d9a9a" stroke-width="2.5" stroke-linecap="round"/><path d="M248.07012,173.99378l6.98027,0.07426" fill="none" stroke="#9d9a9a" stroke-width="2.5" stroke-linecap="round"/><path d="M205.50053,179.30664l19.41416,0.69336" fill="none" stroke="#9d9a9a" stroke-width="2.5" stroke-linecap="round"/><path d="M269.05877,181.38673h-21.26312" fill="none" stroke="#9d9a9a" stroke-width="2.5" stroke-linecap="round"/><path d="M203.42044,186.47139l24.03657,0.23112" fill="none" stroke="#9d9a9a" stroke-width="2.5" stroke-linecap="round"/><path d="M270.67663,188.55147l-22.41873,-0.46224" fill="none" stroke="#9d9a9a" stroke-width="2.5" stroke-linecap="round"/><path d="M203.88268,193.63613l22.18761,0.69336" fill="none" stroke="#9d9a9a" stroke-width="2.5" stroke-linecap="round"/><path d="M269.2899,194.09837l-22.88097,-0.46224" fill="none" stroke="#9d9a9a" stroke-width="2.5" stroke-linecap="round"/><path d="M204.1138,204.26769l64.94497,1.1556" fill="none" stroke="#9d9a9a" stroke-width="2.5" stroke-linecap="round"/><path d="M260.50731,209.58347l0.24178,-34.9368" fill="none" stroke="#9d9a9a" stroke-width="2.5" stroke-linecap="round"/><path d="M250.00038,173.61569l-0.12464,36.89227" fill="none" stroke="#9d9a9a" stroke-width="2.5" stroke-linecap="round"/><path d="M239.24418,213.05029v-19.8764" fill="none" stroke="#9d9a9a" stroke-width="2.5" stroke-linecap="round"/><path d="M219.59891,212.1258l-0.26181,-39.79427" fill="none" stroke="#9d9a9a" stroke-width="2.5" stroke-linecap="round"/><path d="M211.38177,175.76181l0.35902,35.90175" fill="none" stroke="#9d9a9a" stroke-width="2.5" stroke-linecap="round"/><path d="M227.94853,173.23465l0.66408,40.509" fill="none" stroke="#9d9a9a" stroke-width="2.5" stroke-linecap="round"/><path d="M213.17426,171.23848c0,0.75 -0.75,0.75 -0.75,0.75l-1.17651,-0.08181c0.0728,0.49883 0.1707,0.99069 0.29016,1.45558l-0.42784,0.9428c0,0 -0.53033,0.53033 -1.06066,0c-0.41253,-0.41253 -0.18326,-0.82506 -0.06106,-0.98798c-0.24476,-1.12609 -0.38286,-2.3224 -0.38918,-3.46198c0,0 0,-0.75 0.75,-0.75c0.04394,0 0.0853,0.00257 0.12424,0.00742c0.10983,-0.13215 0.28573,-0.23799 0.56746,-0.23799c0.75,0 0.75,0.75 0.75,0.75c-0.01452,0.31798 -0.05122,0.65639 0.06503,0.95271l0.56837,-0.08874c0,0 0.75,0 0.75,0.75z" fill="#9d9a9a" stroke="none" stroke-width="0.5" stroke-linecap="butt"/><path d="M220.21841,168.63459c-0.62404,0.41603 -1.04006,-0.20801 -1.04006,-0.20801l-0.36742,-0.57739c-0.57236,-0.3648 -1.00408,-0.54026 -1.47181,-0.62462c0.37158,0.75928 0.44101,1.64403 0.44647,2.63051v0.23057c0,0 0,0.75 -0.75,0.75c-0.75,0 -0.75,-0.75 -0.75,-0.75v-0.23057c0.00622,-0.91938 0.03279,-2.14054 -0.81886,-2.60389c0,0 -0.45029,-0.30019 -0.33087,-0.77307c-0.00204,-0.02614 -0.00311,-0.05331 -0.00311,-0.08153c0,-0.75 0.75,-0.75 0.75,-0.75c1.67877,0 2.57642,0.174 3.98882,1.14193l0.55484,0.806c0,0 0.41603,0.62404 -0.20801,1.04006z" fill="#9d9a9a" stroke="none" stroke-width="0.5" stroke-linecap="butt"/><path d="M224.68016,167.7104c-0.11354,0.04843 -0.20893,0.10889 -0.2999,0.17099c0.05849,0.1068 0.09174,0.22938 0.09174,0.35973v0.92226h-0.12792l0.07083,0.28701c-2.63318,1.87331 -1.96829,-0.03148 -2.97769,-2.0267c0,0 -0.33541,-0.67082 0.33541,-1.00623c0.67082,-0.33541 1.00623,0.33541 1.00623,0.33541c0.0191,0.03859 0.08474,0.22249 0.16525,0.47168c0.29202,-0.6978 1.02843,-1.07833 2.39186,-1.11684l0.29976,1.5109c0,0 -0.46249,0.46249 -0.95557,0.09178z" fill="#9d9a9a" stroke="none" stroke-width="0.5" stroke-linecap="butt"/><path d="M232.02239,173.37188c-0.75,0 -0.75,-0.75 -0.75,-0.75l0.02239,-0.04866c-0.15684,-0.64205 -0.24403,-1.30595 -0.25242,-1.96706c-0.90561,-0.27892 -1.65304,-0.23097 -1.84507,-1.9039c0,0 0,-0.75 0.75,-0.75c0.75,0 0.75,0.75 0.75,0.75c-0.32773,0.95054 0.9378,0.01523 1.41197,0.71066c0.08838,-0.11398 0.47506,-0.54573 1.02085,-0.18186c0.62404,0.41603 0.20801,1.04006 0.20801,1.04006l-0.78208,0.7392c0.02736,0.40454 0.09336,0.80763 0.19395,1.1991l0.02239,0.41247c0,0 0,0.75 -0.75,0.75z" fill="#9d9a9a" stroke="none" stroke-width="0.5" stroke-linecap="butt"/><path d="M240.63334,173.82952c-0.94445,0.6958 -2.73764,1.14149 -3.25607,0.77633c-0.76156,0.46889 -2.01768,1.07647 -2.17069,-0.68405c-0.05603,-0.64464 0.51504,-1.65333 1.14963,-1.59504c0.0657,-0.05149 0.13438,-0.09687 0.20712,-0.13395c-0.04191,-0.46859 0.42667,-0.70288 0.42667,-0.70288c0.23921,-0.11078 0.47843,-0.22156 0.71764,-0.33234l0.37068,-0.55602c0.13354,-0.20678 0.36603,-0.34365 0.63049,-0.34365c0.41421,0 0.75,0.33579 0.75,0.75c0,0.1576 -0.04861,0.30384 -0.13165,0.42456l-0.39933,0.599c0.37704,0.35761 0.45061,0.76454 0.34634,1.14094c0.2501,-0.19651 0.51031,-0.4925 0.74884,-0.85029l0.15039,-0.03958l-0.03609,-0.05413l0.68317,-0.45544c0.12072,-0.08304 0.26696,-0.13165 0.42456,-0.13165c0.41421,0 0.75,0.33579 0.75,0.75c0,0.1576 -0.04861,0.30384 -0.13165,0.42456l-0.45544,0.68317c0,0 -0.30084,0.45126 -0.7746,0.33048z" fill="#9d9a9a" stroke="none" stroke-width="0.5" stroke-linecap="butt"/><path d="M251.83021,169.95993c-0.11542,0.23084 -0.27056,0.34253 -0.42441,0.38973l-0.00148,0.08543c-0.67858,-0.0619 -1.63698,0.36682 -2.03574,-0.18571c-0.21568,-0.29884 -0.31749,-0.55778 -0.33344,-0.78226c-0.11646,-0.20396 -0.14785,-0.44337 -0.07096,-0.68735c-0.20431,0.0724 -0.41213,0.13466 -0.62023,0.18895c0,0 -0.72761,0.1819 -0.90951,-0.54571c-0.1819,-0.72761 0.54571,-0.90951 0.54571,-0.90951c0.52813,-0.12455 1.04097,-0.34899 1.49245,-0.64998l0.1321,0.00064l-0.01059,-0.04236l0.90595,-0.22649c0.06314,-0.01726 0.1296,-0.02647 0.19822,-0.02647c0.41421,0 0.75,0.33579 0.75,0.75c0,0.14555 -0.04146,0.28142 -0.11322,0.39644l-0.00526,0.00877c0.01985,-0.00158 0.03992,-0.00238 0.06018,-0.00238c0.41421,0 0.75,0.33579 0.75,0.75c0,0.1576 -0.04861,0.30384 -0.13165,0.42456l-0.17552,0.26327l-0.01698,0.08491c0.10943,0.16676 0.16952,0.40526 0.0144,0.7155z" fill="#9d9a9a" stroke="none" stroke-width="0.5" stroke-linecap="butt"/><path d="M262.05252,169.7294c-0.09069,1.08917 -1.50468,1.51336 -2.39675,1.34393c-0.40229,-0.0764 3.77,-2.59599 4.00987,-2.48745c0.02775,-0.01069 0.05563,-0.02095 0.08362,-0.03076l0.14772,-0.08465c0.00727,0.01037 0.01474,0.02071 0.0224,0.03101c0.20146,-0.05632 0.40725,-0.0881 0.61285,-0.0881l1.40034,0.17212c-0.36815,0.26262 -0.75814,0.53417 -1.16623,0.76275c0.19611,0.22101 0.32202,0.45482 0.25315,0.72417c-0.24198,0.94634 -3.875,1.40501 -5.36372,1.00091c-0.40229,-0.0764 -0.69844,-0.27353 -0.71922,-0.58483c-0.01426,-0.03662 -0.02696,-0.07419 -0.03815,-0.11262c-0.09078,0.01131 -0.19434,0.00572 -0.31222,-0.02375c-0.35553,-0.08888 -0.4939,-0.30805 -0.54246,-0.50897c-0.30992,-0.17392 -0.54444,-0.37474 -0.48677,-0.67977c0.13373,-0.70741 1.24916,-0.71613 1.87373,-1.07419l0.00402,0.10608c0.54533,-0.6908 1.376,-0.95178 2.12343,0.1074c0.29684,-0.20743 0.67505,-0.08136 0.67505,-0.08136l0.45453,0.19208c0.02336,0.0435 0.04673,0.087 0.07009,0.1305c0.07266,0.13528 0.14532,0.27056 0.21798,0.40584c0.15905,-0.10719 0.32794,-0.20396 0.50324,-0.28485l0.04414,0.0198l0.15912,-0.09118c0.25619,0.11841 0.49818,0.28743 0.71517,0.48329l0.18454,0.08277c0.00178,0.0017 0.00356,0.00339 0.00534,0.00509c-0.02283,0.009 -0.04567,0.018 -0.0685,0.027c0.06309,0.06254 0.12367,0.12714 0.18143,0.19315c-0.29885,0.16311 -0.60721,0.3019 -0.92364,0.39629c-0.09875,-0.03351 -0.19616,-0.07262 -0.29168,-0.11647c-0.01776,0.05104 -0.06959,0.11429 -0.16198,0.19168l-0.13017,-0.14199c-0.08385,0.03305 -0.16771,0.0661 -0.25156,0.09915c-0.08451,0.03331 -0.16901,0.06662 -0.25352,0.09992z" fill="#9d9a9a" stroke="none" stroke-width="0.5" stroke-linecap="butt"/><path d="M256.68617,171.75337c0,-0.13807 0.11193,-0.25 0.25,-0.25c0.13807,0 0.25,0.11193 0.25,0.25c0,0.13807 -0.11193,0.25 -0.25,0.25c-0.13807,0 -0.25,-0.11193 -0.25,-0.25z" fill="#9d9a9a" stroke="none" stroke-width="0.5" stroke-linecap="butt"/><path d="M262.04113,172.61016c0,-0.13807 0.11193,-0.25 0.25,-0.25c0.13807,0 0.25,0.11193 0.25,0.25c0,0.13807 -0.11193,0.25 -0.25,0.25c-0.13807,0 -0.25,-0.11193 -0.25,-0.25z" fill="#9d9a9a" stroke="none" stroke-width="0.5" stroke-linecap="butt"/><path d="M264.29021,172.39597c0,-0.13807 0.11193,-0.25 0.25,-0.25c0.13807,0 0.25,0.11193 0.25,0.25c0,0.13807 -0.11193,0.25 -0.25,0.25c-0.13807,0 -0.25,-0.11193 -0.25,-0.25z" fill="#9d9a9a" stroke="none" stroke-width="0.5" stroke-linecap="butt"/><path d="M258.39976,172.82436c0,-0.13807 0.11193,-0.25 0.25,-0.25c0.13807,0 0.25,0.11193 0.25,0.25c0,0.13807 -0.11193,0.25 -0.25,0.25c-0.13807,0 -0.25,-0.11193 -0.25,-0.25z" fill="#9d9a9a" stroke="none" stroke-width="0.5" stroke-linecap="butt"/><path d="M233.98117,174.85924c0,-0.13807 0.11193,-0.25 0.25,-0.25c0.13807,0 0.25,0.11193 0.25,0.25c0,0.13807 -0.11193,0.25 -0.25,0.25c-0.13807,0 -0.25,-0.11193 -0.25,-0.25z" fill="#9d9a9a" stroke="none" stroke-width="0.5" stroke-linecap="butt"/><path d="M236.55155,175.60894c0,-0.13807 0.11193,-0.25 0.25,-0.25c0.13807,0 0.25,0.11193 0.25,0.25c0,0.13807 -0.11193,0.25 -0.25,0.25c-0.13807,0 -0.25,-0.11193 -0.25,-0.25z" fill="#9d9a9a" stroke="none" stroke-width="0.5" stroke-linecap="butt"/><path d="M240.19292,175.71604c0,-0.13807 0.11193,-0.25 0.25,-0.25c0.13807,0 0.25,0.11193 0.25,0.25c0,0.13807 -0.11193,0.25 -0.25,0.25c-0.13807,0 -0.25,-0.11193 -0.25,-0.25z" fill="#9d9a9a" stroke="none" stroke-width="0.5" stroke-linecap="butt"/><path d="M229.80431,172.18177c0,-0.13807 0.11193,-0.25 0.25,-0.25c0.13807,0 0.25,0.11193 0.25,0.25c0,0.13807 -0.11193,0.25 -0.25,0.25c-0.13807,0 -0.25,-0.11193 -0.25,-0.25z" fill="#9d9a9a" stroke="none" stroke-width="0.5" stroke-linecap="butt"/><path d="M232.80308,172.18177c0,-0.13807 0.11193,-0.25 0.25,-0.25c0.13807,0 0.25,0.11193 0.25,0.25c0,0.13807 -0.11193,0.25 -0.25,0.25c-0.13807,0 -0.25,-0.11193 -0.25,-0.25z" fill="#9d9a9a" stroke="none" stroke-width="0.5" stroke-linecap="butt"/><path d="M245.33367,172.82436c0,-0.13807 0.11193,-0.25 0.25,-0.25c0.13807,0 0.25,0.11193 0.25,0.25c0,0.13807 -0.11193,0.25 -0.25,0.25c-0.13807,0 -0.25,-0.11193 -0.25,-0.25z" fill="#9d9a9a" stroke="none" stroke-width="0.5" stroke-linecap="butt"/><path d="M254.1158,170.68238c0,-0.13807 0.11193,-0.25 0.25,-0.25c0.13807,0 0.25,0.11193 0.25,0.25c0,0.13807 -0.11193,0.25 -0.25,0.25c-0.13807,0 -0.25,-0.11193 -0.25,-0.25z" fill="#9d9a9a" stroke="none" stroke-width="0.5" stroke-linecap="butt"/></g></g></svg>