<svg version="1.1" xmlns="http://www.w3.org/2000/svg" xmlns:xlink="http://www.w3.org/1999/xlink" width="46.19153" height="23.61701" viewBox="0,0,46.19153,23.61701"><g transform="translate(-100.21584,-194.78167)"><g data-paper-data="{&quot;isPaintingLayer&quot;:true}" fill-rule="nonzero" stroke="#000000" stroke-width="2" stroke-linejoin="miter" stroke-miterlimit="10" stroke-dasharray="" stroke-dashoffset="0" style="mix-blend-mode: normal"><g data-paper-data="{&quot;index&quot;:null}"><path d="M145.40737,205.99339c0,4.16505 -7.93259,7.54148 -17.71795,7.54148c-9.78535,0 -17.71796,-3.37644 -17.71796,-7.54148c0,-4.16505 7.93259,-7.54149 17.71796,-7.54149c9.78535,0 17.71795,3.37644 17.71795,7.54149z" data-paper-data="{&quot;index&quot;:null}" fill="#9966ff" stroke-linecap="butt"/><path d="M143.03969,203.5395c0,1.72007 -1.67327,3.11446 -3.73735,3.11446c-2.06408,0 -3.73735,-1.39439 -3.73735,-3.11446c0,-1.72007 1.67327,-3.11446 3.73735,-3.11446c2.06408,0 3.73735,1.39439 3.73735,3.11446z" data-paper-data="{&quot;index&quot;:null}" fill="#58ff00" stroke-linecap="butt"/><path d="M132.84691,213.33589l-0.22651,-1.47229l-4.19036,-6.68193l4.30361,-2.71807l0.11326,3.3976h2.15181l1.58555,2.49156l2.71807,-0.11325l3.05783,1.9253" data-paper-data="{&quot;index&quot;:null}" fill="#00e6ff" stroke-linecap="round"/><path d="M136.92403,202.01058l4.75663,3.05784" data-paper-data="{&quot;index&quot;:null}" fill="none" stroke-linecap="round"/><path d="M130.12884,206.99372l3.6241,-0.79277l-1.69879,4.41687l5.77591,-2.26506l-1.9253,4.30361" data-paper-data="{&quot;index&quot;:null}" fill="none" stroke-linecap="round"/></g><path d="M116.24205,217.39868l-13.99186,-5.8942l9.6313,-6.90546l-6.3603,-3.45273l12.17155,-5.36462" data-paper-data="{&quot;index&quot;:null}" fill="#58ff00" stroke-linecap="round"/></g></g></svg>