<svg version="1.1" xmlns="http://www.w3.org/2000/svg" xmlns:xlink="http://www.w3.org/1999/xlink" width="133.19699" height="118.12847" viewBox="0,0,133.19699,118.12847"><g transform="translate(-173.11238,-128.62877)"><g data-paper-data="{&quot;isPaintingLayer&quot;:true}" fill-rule="nonzero" stroke-linejoin="miter" stroke-miterlimit="10" stroke-dasharray="" stroke-dashoffset="0" style="mix-blend-mode: normal"><path d="M217.63819,144.16752c-1.10686,-1.30495 -0.08408,-2.88917 -0.08408,-2.88917c0.66591,-1.01785 1.20281,-2.13293 1.99773,-3.05357c0.77421,-0.89667 1.5809,-1.87597 2.66703,-2.34897c1.69356,-0.73754 3.75368,-1.97603 5.41637,-1.1713c3.96478,1.91891 3.51644,13.01603 9.49215,12.08112c7.90181,-1.23625 15.68268,-3.61165 23.61252,-4.92829c1.06205,-0.17634 6.91596,-1.27608 7.73726,-0.82294c3.5197,1.94194 3.23057,5.06604 3.59006,8.20929c-0.16721,1.22257 -0.25816,2.45801 -0.50162,3.6677c-0.11051,0.54907 -0.795,1.07932 -0.55569,1.58571c0.4188,0.88622 4.79425,2.30301 4.99798,2.39767c4.16734,1.93634 7.88539,4.48248 11.72453,6.97364c2.45047,1.59007 5.26804,2.87233 6.78905,5.55245c3.19748,5.63418 0.90874,12.81532 -0.46972,18.56804c-0.55504,2.31636 -0.74709,4.73448 -1.55977,6.97348c-0.16874,0.4649 -1.09453,0.81945 -0.82432,1.23369c3.10781,4.76434 13.04154,3.68256 10.05908,12.11561c-0.54396,1.53808 -2.16001,2.44554 -3.24001,3.66831c-7.79091,6.79333 -18.41296,9.67957 -27.23598,15.03469c-3.07848,1.86848 -7.42841,6.41231 -11.48016,5.32082c-1.21162,-0.32639 -1.60317,-1.9524 -2.57573,-2.74531c-3.17687,-2.59005 -7.2368,-4.09536 -11.25521,-4.68884c-0.32476,-0.04796 -3.28342,-0.41096 -4.04292,0.17375c-1.25798,0.96848 -2.94141,4.75437 -4.31745,5.0284c-3.0763,0.61264 -5.06303,-2.28344 -6.6902,-4.05569c-3.90588,-5.20263 -7.34756,-10.87973 -9.87732,-16.90303c-0.59766,-1.423 -1.15455,-2.8674 -1.5982,-4.34568c-0.09886,-0.32942 0.30645,-0.91094 -0.0156,-1.03168c-0.32755,-0.1228 -0.41667,0.60162 -0.73297,0.75103c-1.09942,0.51931 -2.31869,0.74407 -3.43796,1.21911c-5.02373,2.13214 -12.39551,7.1824 -17.43801,1.77947c-4.61701,-4.94703 2.44043,-9.41611 2.17727,-14.02407c-0.20851,-3.65098 -6.09021,-6.43102 -8.44274,-7.95055c-1.07094,-0.56014 -5.99751,-3.1153 -6.14649,-3.33571c-2.09365,-3.0974 -0.28389,-5.60815 1.12796,-8.12121c3.12093,-5.55518 6.93499,-10.01484 11.39022,-14.49809c0.78128,-0.78619 1.3628,-1.79704 2.27809,-2.42213c1.88024,-1.2841 6.57895,-2.58216 8.50751,-3.19857c0.84205,-0.26914 2.85983,-0.23713 2.44825,-1.01949c-1.11369,-2.11698 -4.43203,-3.03924 -2.71377,-6.61691c1.58055,-3.29093 5.67051,-2.89256 9.22287,-2.1628z" fill-opacity="0.48866" fill="#f3efef" stroke="none" stroke-width="0.5" stroke-linecap="butt"/><path d="M266.37098,142.53129c0.64752,-1.58391 2.52488,-1.4069 2.52488,-1.4069c1.21025,0.12152 2.44727,0.08373 3.63074,0.36455c1.15265,0.2735 2.39361,0.53771 3.31417,1.28335c1.43539,1.16265 3.48434,2.41955 3.537,4.26599c0.12558,4.40295 -9.92799,9.12236 -6.34282,13.99367c4.74075,6.44145 10.43652,12.25029 15.26153,18.67953c0.64622,0.86108 4.32148,5.5483 4.29812,6.48602c-0.1001,4.01863 -3.00554,5.20271 -5.62887,6.97115c-1.16193,0.4154 -2.30011,0.9044 -3.48578,1.2462c-0.53817,0.15514 -1.32431,-0.20772 -1.6633,0.23814c-0.59325,0.78028 0.16725,5.31608 0.1772,5.54051c0.20352,4.59072 -0.34123,9.06397 -0.78136,13.61932c-0.28093,2.90761 -0.11944,5.99902 -1.79621,8.58455c-3.52492,5.43533 -10.95238,6.71591 -16.69261,8.14553c-2.31133,0.57564 -4.54556,1.52031 -6.90705,1.83167c-0.49033,0.06465 -1.23184,-0.59333 -1.47481,-0.16255c-2.79444,4.95466 2.74622,13.27031 -6.112,14.51264c-1.61562,0.22658 -3.16605,-0.78892 -4.74908,-1.18338c-9.62058,-3.78049 -17.07981,-11.87484 -25.90015,-17.23436c-3.07755,-1.87001 -9.11532,-3.63454 -10.01521,-7.73311c-0.2691,-1.22562 0.99315,-2.32286 1.24825,-3.55147c0.83327,-4.01329 0.29681,-8.30995 -1.0296,-12.14928c-0.1072,-0.31028 -1.14943,-3.10299 -2.01849,-3.50729c-1.43946,-0.66965 -5.57508,-0.41761 -6.45278,-1.51225c-1.9622,-2.44719 -0.30856,-5.54556 0.51367,-7.80663c2.81532,-5.86491 6.26573,-11.53672 10.44383,-16.55899c0.98708,-1.18651 2.01193,-2.34672 3.11907,-3.42207c0.24671,-0.23963 0.94962,-0.14814 0.90825,-0.48958c-0.04208,-0.34727 -0.72598,-0.0923 -1.00441,-0.30407c-0.96779,-0.73608 -1.72946,-1.71433 -2.66711,-2.48844c-4.20852,-3.47451 -12.08914,-7.68689 -9.62021,-14.65272c2.2606,-6.37805 9.48057,-2.1766 13.44801,-4.535c3.14348,-1.8686 2.89806,-8.36959 3.16155,-11.15776c0.00318,-1.20858 -0.00134,-6.75834 0.12553,-6.99218c1.78297,-3.28607 4.84538,-2.83801 7.72634,-2.74408c6.36845,0.20762 12.08443,1.53546 18.11701,3.42135c1.05788,0.33071 2.223,0.38059 3.19973,0.9045c2.00646,1.07625 5.325,4.64699 6.76128,6.07402c0.62711,0.62307 1.52918,2.42826 2.0336,1.70229c1.3649,-1.96442 0.65306,-5.33417 4.61999,-5.45928c3.64899,-0.11508 5.18151,3.69777 6.17209,7.1864z" fill-opacity="0.48866" fill="#f3efef" stroke="none" stroke-width="0.5" stroke-linecap="butt"/><path d="M200.77931,167.34775c-1.6377,-0.49597 -1.6377,-2.38166 -1.6377,-2.38166c0.00737,-1.21631 -0.14636,-2.44432 0.02212,-3.64893c0.1641,-1.17324 0.31065,-2.43352 0.96659,-3.42001c1.02277,-1.5382 2.08179,-3.69607 3.91513,-3.92183c4.37172,-0.53833 10.01402,9.02784 14.52728,5.00123c5.96799,-5.32447 11.21652,-11.54037 17.16446,-16.94758c0.79662,-0.7242 5.11815,-4.82322 6.05392,-4.88798c4.01029,-0.27757 5.46185,2.50389 7.46874,4.94964c0.52263,1.1178 1.11632,2.20506 1.5679,3.35341c0.20497,0.52123 -0.08249,1.33797 0.39322,1.6336c0.83252,0.51738 5.27691,-0.66553 5.49941,-0.6965c4.55135,-0.63355 9.05598,-0.51111 13.63252,-0.50053c2.92114,0.00675 5.98374,-0.44422 8.71526,0.98245c5.74221,2.99915 7.71436,10.2736 9.6765,15.85429c0.79006,2.24709 1.94028,4.38278 2.47194,6.70461c0.11039,0.4821 -0.47508,1.2821 -0.02339,1.48356c5.19509,2.31701 12.95393,-3.97978 15.02229,4.72271c0.37724,1.58722 -0.48825,3.22613 -0.73237,4.83919c-2.86072,9.93297 -10.21913,18.11907 -14.72702,27.40357c-1.57287,3.2395 -2.76284,9.41625 -6.75884,10.69689c-1.19495,0.38296 -2.40583,-0.77072 -3.65296,-0.90936c-4.07379,-0.45287 -8.30111,0.48454 -11.99898,2.16549c-0.29885,0.13585 -2.98139,1.43564 -3.30232,2.33881c-0.53158,1.49596 0.10757,5.58965 -0.89985,6.56623c-2.25219,2.18325 -5.49211,0.82776 -7.82038,0.22141c-6.10329,-2.25236 -12.07394,-5.15512 -17.46623,-8.84333c-1.27393,-0.87134 -2.52522,-1.78276 -3.69975,-2.78407c-0.26173,-0.22313 -0.23663,-0.93152 -0.57267,-0.85828c-0.34179,0.07449 -0.02374,0.73144 -0.20844,1.02852c-0.64199,1.03261 -1.54442,1.88275 -2.22709,2.88892c-3.06412,4.51609 -6.51814,12.75733 -13.68497,10.95318c-6.5621,-1.65191 -3.05693,-9.2344 -5.77734,-12.96293c-2.15543,-2.95419 -8.60467,-2.09961 -11.40527,-2.10021c-1.20354,0.11028 -6.72837,0.63574 -6.97309,0.53138c-3.43893,-1.46663 -3.2803,-4.55758 -3.45723,-7.43464c-0.3911,-6.35982 0.39432,-12.1752 1.70561,-18.35817c0.22995,-1.08426 0.17023,-2.24891 0.60014,-3.27051c0.88315,-2.09862 4.12662,-5.7377 5.41252,-7.30159c0.56145,-0.68283 2.274,-1.75037 1.50388,-2.18441c-2.08387,-1.17448 -5.37193,-0.14946 -5.86886,-4.08712c-0.4571,-3.62208 3.19506,-5.50574 6.5753,-6.81942z" fill-opacity="0.65323" fill="#f3efef" stroke="none" stroke-width="0.5" stroke-linecap="butt"/><path d="M282.375,182.125c0,20.77971 -18.52422,37.625 -41.375,37.625c-22.85078,0 -41.375,-16.84529 -41.375,-37.625c0,-20.77971 18.52422,-37.625 41.375,-37.625c22.85078,0 41.375,16.84529 41.375,37.625z" fill-opacity="0.5" fill="#09f4c9" stroke="#498f82" stroke-width="0" stroke-linecap="butt"/><g stroke-width="1.5" stroke-linecap="round"><path d="M180.65733,169.7709l6.4168,1.06637l30.84775,3.1589l-1.91241,11.09753l-37.94943,-2.80016l-3.98448,-8.31784z" fill="#09f4c9" stroke="#498f82"/><g fill="none" stroke="#b5e8e1"><path d="M212.94171,179.54952c0,0 -18.50857,-1.36749 -24.15225,-1.78446c-3.04568,-0.22503 -13.26193,-3.07413 -13.26193,-3.07413"/></g></g><g stroke-linecap="butt"><path d="M288.95414,184.59254c0,12.01219 -6.26801,21.75 -14,21.75c-7.73199,0 -14,-9.73781 -14,-21.75c0,-12.01219 6.26801,-21.75 14,-21.75c7.73199,0 14,9.73781 14,21.75z" fill="#09f4c9" stroke="#498f82" stroke-width="2.5"/><path d="M286.95414,184.59254c0,8.42234 -3.69365,15.25 -8.25,15.25c-4.55635,0 -8.25,-6.82766 -8.25,-15.25c0,-8.42234 3.69365,-15.25 8.25,-15.25c4.55635,0 8.25,6.82766 8.25,15.25z" fill="#0f0f0f" stroke="none" stroke-width="0"/></g><path d="M267.98695,187.89774c0,13.25484 -11.52867,24 -25.75,24c-14.22133,0 -25.75,-10.74516 -25.75,-24c0,-13.25484 11.52867,-24 25.75,-24c14.22133,0 25.75,10.74516 25.75,24z" fill="#09f4c9" stroke="#498f82" stroke-width="2.5" stroke-linecap="butt"/><g data-paper-data="{&quot;index&quot;:null}" stroke-width="0" stroke-linecap="butt"><path d="M266.41888,179.94496c-0.00249,1.82055 -2.24207,3.29334 -5.00226,3.28957c-2.76019,-0.00377 -4.99575,-1.48267 -4.99326,-3.30322c0.00249,-1.82055 2.24207,-3.29334 5.00226,-3.28957c2.76019,0.00377 4.99575,1.48267 4.99326,3.30322z" fill="#0f0f0f" stroke="#029f0f"/><path d="M264.50615,178.98533c-0.00096,0.70473 -0.85869,1.27485 -1.91578,1.27341c-1.05709,-0.00144 -1.91326,-0.57391 -1.91229,-1.27864c0.00096,-0.70473 0.85869,-1.27485 1.91578,-1.27341c1.05709,0.00144 1.91326,0.57391 1.91229,1.27864z" fill="#ece4e4" stroke="none"/></g><g data-paper-data="{&quot;index&quot;:null}" stroke-width="0" stroke-linecap="butt"><path d="M268.93978,188.7104c-0.00315,2.30899 -2.8436,4.17692 -6.34432,4.17214c-3.50072,-0.00478 -6.33607,-1.88046 -6.33292,-4.18945c0.00315,-2.30899 2.8436,-4.17692 6.34432,-4.17214c3.50072,0.00478 6.33607,1.88046 6.33292,4.18945z" fill="#0f0f0f" stroke="#029f0f"/><path d="M266.51389,187.4933c-0.00122,0.8938 -1.08906,1.61688 -2.42976,1.61505c-1.3407,-0.00183 -2.42656,-0.72788 -2.42534,-1.62169c0.00122,-0.8938 1.08906,-1.61688 2.42976,-1.61505c1.3407,0.00183 2.42656,0.72788 2.42534,1.62169z" fill="#ece4e4" stroke="none"/></g><path d="M228.85297,171.68666c1.87146,1.51361 2.4173,2.61025 2.26673,3.5559c-0.34406,2.16088 -4.32439,3.53339 -4.4334,7.29111c-0.04519,1.55767 -0.96834,4.53254 0.09202,5.92246c0.73114,0.95837 2.10158,2.15816 1.75689,3.53695c-0.26219,1.04874 -1.30978,2.42723 -2.51558,2.36025c-6.94065,-0.38559 -4.68396,-15.34582 -1.29611,-18.99899c0.27842,-0.30022 2.27035,-3.00945 2.48742,-3.05286z" fill="#b5e8e1" stroke="none" stroke-width="0.5" stroke-linecap="butt"/><path d="M276.67299,198.26917v-23.69355h4.73871v23.69355z" fill="#0f0f0f" stroke="#14435c" stroke-width="0" stroke-linecap="butt"/><g stroke-width="1.5" stroke-linecap="round"><path d="M196.28472,182.90816l3.6195,1.38443l17.51794,5.08599l-1.76212,8.69304l-21.61588,-5.39062l-1.7892,-6.96634z" fill="#09f4c9" stroke="#498f82"/><g fill="none" stroke="#b5e8e1"><path d="M214.23101,193.39401c0,0 -10.54232,-2.63055 -13.75691,-3.43266c-1.73479,-0.43287 -7.4285,-3.55541 -7.4285,-3.55541"/></g></g><g stroke-width="1.5" stroke-linecap="round"><path d="M202.0048,158.93829l3.6195,1.38443l17.51794,5.08599l-1.76212,8.69304l-21.61588,-5.39062l-1.7892,-6.96634z" fill="#09f4c9" stroke="#498f82"/><g fill="none" stroke="#b5e8e1"><path d="M219.95109,169.42415c0,0 -10.54232,-2.63055 -13.75691,-3.43266c-1.73479,-0.43287 -7.4285,-3.55541 -7.4285,-3.55541"/></g></g><path d="M239.15884,161.83004c-0.23939,3.45148 -0.99955,4.76442 -2.70142,5.74471c-0.98438,0.56701 -2.28381,1.02273 -3.97975,1.71663c-1.76814,0.72344 -3.12322,0.63968 -4.92032,2.12332c-0.28991,0.23935 -1.13376,0.4172 -0.88503,0.69911c0.78852,0.89369 1.67403,1.76606 2.43964,2.73528c4.80996,6.08912 -6.67519,7.00658 -8.80689,8.50406c-0.00537,0.00377 0.9892,1.21436 1.18658,1.49151c0.67056,0.94159 1.51829,1.94984 2.0818,2.96363c1.01518,1.82638 0.87515,2.92137 0.7704,4.59157c-0.07588,1.20989 2.53649,1.26582 2.66854,2.47087c0.14951,1.36436 0.27169,2.99177 -0.56684,4.07837c-0.83853,1.08659 -2.44406,1.37895 -3.80145,1.5822c-1.87318,0.28048 -3.05501,-2.23454 -4.61981,-2.5907c-0.96136,-0.21881 -1.81178,0.07837 -2.78789,-0.26198c-0.25492,-0.08888 -0.5356,-0.09904 -0.78295,-0.20721c-0.76738,-0.3356 -1.64164,-1.60023 -2.06955,-2.14193c-1.67669,-2.12259 0.82062,-4.83027 2.46073,-5.72563c0.84143,-0.45935 -1.25392,-1.45237 -1.82973,-2.21883c-1.64508,-2.18976 -4.68377,-3.76348 -4.48528,-6.62531c0.29276,-4.22097 5.98287,-3.73198 8.66986,-4.99365c0.72287,-0.33942 -1.37813,-0.92151 -1.76477,-1.62026c-0.63461,-1.14689 -0.75363,-3.97181 0.21687,-4.93346c3.73025,-3.69623 9.20736,-5.49584 13.86954,-7.56768c0.99809,-0.44354 5.42587,-2.70692 6.29457,-2.11038z" fill="#f5ef0a" stroke="#b5e8e1" stroke-width="1" stroke-linecap="butt"/><path d="M219.23788,168.81138c0,-0.9026 0.73171,-1.63431 1.63431,-1.63431c0.9026,0 1.63431,0.73171 1.63431,1.63431c0,0.9026 -0.73171,1.63431 -1.63431,1.63431c-0.9026,0 -1.63431,-0.73171 -1.63431,-1.63431z" fill="#498f82" stroke="none" stroke-width="0.5" stroke-linecap="butt"/><path d="M214.87972,181.61347c0,-0.9026 0.73171,-1.63431 1.63431,-1.63431c0.9026,0 1.63431,0.73171 1.63431,1.63431c0,0.9026 -0.73171,1.63431 -1.63431,1.63431c-0.9026,0 -1.63431,-0.73171 -1.63431,-1.63431z" fill="#498f82" stroke="none" stroke-width="0.5" stroke-linecap="butt"/><path d="M218.96549,195.5051c0,-0.9026 0.73171,-1.63431 1.63431,-1.63431c0.9026,0 1.63431,0.73171 1.63431,1.63431c0,0.9026 -0.73171,1.63431 -1.63431,1.63431c-0.9026,0 -1.63431,-0.73171 -1.63431,-1.63431z" fill="#498f82" stroke="none" stroke-width="0.5" stroke-linecap="butt"/></g></g></svg>