<svg version="1.1" xmlns="http://www.w3.org/2000/svg" xmlns:xlink="http://www.w3.org/1999/xlink" width="122.54681" height="78.03199" viewBox="0,0,122.54681,78.03199"><defs><linearGradient x1="312.95729" y1="164.65755" x2="325.14042" y2="228.69885" gradientUnits="userSpaceOnUse" id="color-1"><stop offset="0" stop-color="#b1cf16"/><stop offset="1" stop-color="#e9f366"/></linearGradient><radialGradient cx="304.77983" cy="183.40091" r="5.31874" gradientUnits="userSpaceOnUse" id="color-2"><stop offset="0" stop-color="#020702"/><stop offset="1" stop-color="#050a02"/></radialGradient><radialGradient cx="348.9372" cy="185.38053" r="4.17157" gradientUnits="userSpaceOnUse" id="color-3"><stop offset="0" stop-color="#020702"/><stop offset="1" stop-color="#050a02"/></radialGradient></defs><g transform="translate(-260.68377,-151.60711)"><g data-paper-data="{&quot;isPaintingLayer&quot;:true}" fill-rule="nonzero" stroke-linejoin="miter" stroke-miterlimit="10" stroke-dasharray="" stroke-dashoffset="0" style="mix-blend-mode: normal"><g stroke="#004700" stroke-width="1" stroke-linecap="butt"><path d="M307.55658,175.24178c0,0 2.26125,-7.9477 3.80581,-11.31142c1.38296,-3.01185 7.38192,-9.48029 7.38192,-9.48029c0,0 11.9701,3.41069 13.84427,3.65444c0.39364,0.05121 3.91433,1.09453 3.91433,1.09453c0,0 -5.62393,4.27762 -6.96264,7.19305c-1.56978,3.41865 -5.07345,11.04897 -5.07345,11.04897z" fill="#399435"/><path d="M338.19195,159.04536c-0.54937,1.19637 -3.57631,0.55525 -8.16845,-0.13965c-0.77337,-0.11704 -0.96158,-1.60656 -1.81934,-1.71814c-1.11264,-0.1447 -2.78611,0.98993 -3.74398,0.69215c-4.16564,-1.29505 -6.7035,-3.75225 -6.18164,-4.88877c0.64185,-1.39786 5.95993,-0.90124 11.91108,-0.12726c5.95118,0.77399 8.64421,4.7838 8.00237,6.18167z" fill="#91e665"/></g><path d="M265.67939,217.18422c-4.79858,-5.30559 -4.28123,-10.42757 -3.45958,-15.99586c0.89512,-6.06592 2.03818,-11.34758 7.65713,-16.80667c3.18713,-2.51092 6.47636,-5.11346 9.21445,-7.7406c4.30458,-4.13014 6.84228,-8.99897 16.80386,-11.00733c5.7733,-1.16396 13.84555,-1.51921 19.40946,0.3222c1.59023,0.52629 3.68376,0.81891 5.15378,1.38673c3.03577,-0.98312 3.57228,-1.35272 8.53159,-0.02313c1.19886,0.32142 2.27982,0.79236 3.02379,1.33072c0.77928,-0.36312 1.89251,-0.58829 2.8713,-0.84677c3.47997,-0.91896 4.46265,-1.07496 8.59935,-0.90735c9.81798,0.3978 12.74804,4.76394 15.45129,8.41635c1.69662,2.43275 4.23594,4.84751 5.54988,7.30798c0.3147,0.58931 0.69831,2.46533 1.40585,3.1855c2.16569,2.20443 5.10048,4.15418 6.71538,6.49287c3.19014,4.61998 4.5432,9.60397 6.40326,14.31677c1.38958,3.52079 3.69956,7.16355 3.13254,10.66901c-0.03724,0.36404 -0.42883,4.35492 -0.52233,4.55806c-0.47833,1.03948 -2.3814,1.81629 -2.91066,2.84888c-0.31046,0.60576 0.4541,1.36534 -0.2467,1.88711c-2.98485,2.22221 -11.83958,2.39499 -17.18198,1.69445c-3.47882,-0.45617 -5.13849,-1.14341 -7.6292,-2.29233c-0.93442,-0.43103 -1.90507,-0.86217 -2.61531,-1.37066c-0.25168,-0.18021 0.28882,-0.62641 -0.16119,-0.61725c-0.55972,0.01139 -0.34876,0.5185 -0.82514,0.63731c-2.42053,0.60384 -5.16364,0.9564 -7.8983,1.24329c-7.47279,0.78396 -13.62942,-0.03261 -19.94355,-2.17162c-0.77754,-0.55001 -1.60749,-1.08674 -2.33263,-1.65001c-0.23803,-0.1849 -0.09626,-0.59896 -0.548,-0.58761c-0.60832,0.01528 -0.56918,0.50488 -1.09452,0.62888c-4.08757,0.96488 -9.1614,1.50865 -13.86266,1.70363c-12.57884,0.52168 -32.0824,1.27451 -40.01183,-4.61994c0,0 -1.6578,-1.28511 1.04568,-1.93266c0.09291,-0.02225 0.18461,-0.04223 0.27503,-0.06004z" fill="url(#color-1)" stroke="#334a0d" stroke-width="2" stroke-linecap="butt"/><path d="M342.85758,183.20225c2.8033,-0.00395 4.12741,-2.73464 6.31392,-2.02686c3.02484,0.97915 5.1413,2.50948 5.46892,4.23168c0.56444,2.96706 -4.39435,5.38003 -11.07583,5.38946c-6.68148,0.00945 -11.71469,-1.14924 -12.27916,-4.11633c-0.56444,-2.96706 2.92034,-3.58668 9.60181,-3.59612z" data-paper-data="{&quot;index&quot;:null}" fill="#f6f9df" stroke="#354c0d" stroke-width="1.5" stroke-linecap="butt"/><path d="M321.07642,184.86731c0.56444,2.96706 -4.02534,4.13938 -10.70681,4.14883c-6.68148,0.00945 -12.55543,-2.38818 -13.11987,-5.35524c-0.32761,-1.72219 1.20554,-3.25771 3.85634,-4.24487c1.9161,-0.71358 5.87064,2.93838 8.67393,2.93441c6.68148,-0.00945 10.73192,-0.45019 11.29637,2.51688z" fill="#f6f9df" stroke="#354c0d" stroke-width="1.5" stroke-linecap="butt"/><path d="M352.7604,183.9068c-1.26379,0.00179 -1.37329,-0.57382 -1.37329,-0.57382l0.03694,-0.00435c-0.91893,-1.45858 -3.02052,-0.71477 -5.5449,-0.70757c-2.61659,-0.03757 -5.13777,1.26686 -8.10327,1.44656c-7.75476,0.46989 -14.64277,-0.17652 -21.95635,-1.76298c-2.31369,-0.59792 -5.11188,-0.16773 -8.17922,-0.63719c-5.27511,-0.80738 -10.91752,-2.02202 -13.16613,0.5641c0,0 -0.46721,0.51565 -1.64658,0.25981c-1.17935,-0.25582 -0.7121,-0.77146 -0.7121,-0.77146c4.43243,-4.74601 16.82574,-2.46839 24.72836,-0.42614c6.84672,1.48519 13.14879,2.04662 20.40584,1.63171c3.31073,-0.18929 5.22636,-1.4195 8.41043,-1.45561c3.8085,0.00105 6.43929,-0.56364 8.16294,1.57611l0.09167,0.28346c0,0 0.1095,0.57561 -1.15429,0.57739z" fill="#334a0d" stroke="none" stroke-width="0.5" stroke-linecap="butt"/><path d="M307.83396,183.39659c0.25704,1.35108 -0.90202,2.44828 -2.5888,2.45065c-1.68677,0.00238 -3.26253,-1.09096 -3.51954,-2.44202c-0.25704,-1.35108 0.90201,-2.44827 2.58876,-2.45066c1.68677,-0.00238 3.26254,1.09095 3.51955,2.44202z" fill="url(#color-2)" stroke="none" stroke-width="0" stroke-linecap="butt"/><path d="M352.09668,185.37606c0.20159,1.05967 -1.04956,1.92069 -2.79448,1.92317c-1.74492,0.00245 -3.32292,-0.85457 -3.52452,-1.91422c-0.20159,-1.05967 1.04954,-1.9207 2.79448,-1.92317c1.74492,-0.00245 3.32292,0.85457 3.52452,1.91422z" fill="url(#color-3)" stroke="none" stroke-width="0" stroke-linecap="butt"/><path d="M293.02021,208.61562c-0.81622,0.40829 -1.78728,0.00253 -1.78728,0.00253l-0.93959,-0.44962c-3.75993,0.21881 -8.35604,0.84972 -9.88792,-1.53721c-0.06196,-0.09655 -0.35583,-1.69276 -0.38749,-1.85903c0,0 -0.10952,-0.57561 1.1543,-0.57738c1.26379,-0.00179 1.37329,0.57382 1.37329,0.57382c0.10114,0.53155 -0.04996,1.07294 0.26955,1.59462c1.01546,1.658 5.50115,0.67564 8.2432,0.74021l1.80705,0.69801c0,0 0.97106,0.40576 0.15486,0.81403z" fill="#334a0d" stroke="none" stroke-width="0.5" stroke-linecap="butt"/><path d="M369.87705,215.64555c1.17935,0.25582 0.7121,0.77146 0.7121,0.77146l-0.9442,0.80938c-2.1227,0.09848 -4.1412,0.36627 -6.24828,0.38252c-0.01065,0.00013 -0.02137,0.00022 -0.03209,0.00022c-0.15972,0.00023 -0.3151,-0.01306 -0.46048,-0.03747c-0.3732,-0.05559 -0.84763,-0.19362 -0.91282,-0.53634c-0.06517,-0.34273 0.35647,-0.48202 0.70832,-0.53863c0.136,-0.02482 0.28628,-0.03854 0.44601,-0.03877c0.01031,-0.00001 0.02061,0.00002 0.0309,0.00012c1.78278,0.00447 3.09777,-0.46558 4.95334,-0.20906l0.10064,-0.34363c0,0 0.46721,-0.51565 1.64658,-0.25981z" fill="#334a0d" stroke="none" stroke-width="0.5" stroke-linecap="butt"/><path d="M365.62222,210.51982c0.35508,1.66547 -15.71168,-1.99245 -24.63482,-3.05132c-8.37752,-0.99412 -16.6493,-2.3128 -16.93873,-2.31091c-4.59657,0.02994 -8.8371,0.37328 -12.34005,0.76984c-5.78188,0.65455 -22.70159,-0.25811 -23.15243,-2.37268c-0.72398,-3.3957 20.41262,-7.99293 32.59612,-8.07227c12.18349,-0.07935 43.74596,11.64165 44.46993,15.03735z" fill="#ffffff" stroke="#334a0d" stroke-width="1.5" stroke-linecap="butt"/><path d="M302.9798,198.22083l5.05765,6.77904" fill="none" stroke="#334a0d" stroke-width="1.5" stroke-linecap="round"/><path d="M331.37702,207.59887l-0.51053,-10.21466" fill="none" stroke="#334a0d" stroke-width="1.5" stroke-linecap="round"/><path d="M350.33116,209.17841l0.29828,-6.42093" fill="none" stroke="#334a0d" stroke-width="1.5" stroke-linecap="round"/><path d="M291.19302,204.19258l38.09502,-3.7851l35.69554,9.7235" fill="none" stroke="#334a0d" stroke-width="1.5" stroke-linecap="round"/></g></g></svg>