<svg version="1.1" xmlns="http://www.w3.org/2000/svg" xmlns:xlink="http://www.w3.org/1999/xlink" width="132.81583" height="108.82095" viewBox="0,0,132.81583,108.82095"><defs><radialGradient cx="260.34093" cy="178.29698" r="7.77958" gradientUnits="userSpaceOnUse" id="color-1"><stop offset="0" stop-color="#b40404"/><stop offset="1" stop-color="#ff0505"/></radialGradient></defs><g transform="translate(-193.51625,-149.3329)"><g data-paper-data="{&quot;isPaintingLayer&quot;:true}" fill-rule="nonzero" stroke-linejoin="miter" stroke-miterlimit="10" stroke-dasharray="" stroke-dashoffset="0" style="mix-blend-mode: normal"><g><path d="M290.36759,204.45401c0.71975,10.7235 -13.33294,23.13095 -29.28069,24.20136c-15.94775,1.07042 -30.88275,-9.3169 -31.6025,-20.04041c-0.15433,-2.29923 0.91482,-4.51239 1.70134,-6.91722c0.41912,-1.28148 0.13991,-2.934 0.92209,-3.98144c0.78695,-1.05385 4.31665,-0.18744 4.31665,-0.18744c0,0 1.90356,-1.28628 2.93275,-1.91972c0.45696,-0.28125 0.97357,-0.78124 1.55581,-1.15322c1.06302,-0.67914 2.3188,-1.31884 3.64595,-2.16069c2.10527,-1.33544 8.2593,-6.34194 14.47276,-6.67759c6.21345,-0.33567 12.66634,4.30745 14.29883,5.1233c2.73451,1.36661 5.27204,3.57774 7.36553,5.03648c0.91147,0.63512 2.97581,-0.27337 3.63249,0.312c0.53655,0.47829 1.03913,0.97586 1.50538,1.49133c0.85871,0.94937 2.16345,-0.03317 2.76051,1.02889c0.62517,1.11207 1.09867,2.28111 1.40324,3.49717c0.19152,0.76465 0.31624,1.54789 0.36989,2.34723z" fill="#d7c195" stroke="#6b4b04" stroke-width="0.5" stroke-linecap="butt"/><path d="M256.79683,191.69718l-0.34527,-16.20748l7.39958,-0.39057l-3.77978,17.96952" fill="#7b7878" stroke="#42413f" stroke-width="0.5" stroke-linecap="round"/><path d="M267.70666,178.45305c0.26034,3.87861 -3.00384,7.25612 -7.29074,7.54385c-4.2869,0.28773 -7.97316,-2.62325 -8.23349,-6.50186c-0.26034,-3.87861 3.00384,-7.25612 7.29074,-7.54385c4.2869,-0.28773 7.97316,2.62325 8.23349,6.50186z" fill="url(#color-1)" stroke="#7e0707" stroke-width="0.5" stroke-linecap="butt"/><path d="M276.71052,200.9169c0.06459,0.96237 -0.14309,1.75996 -0.46387,1.78151c-0.32078,0.02152 -0.6332,-0.74116 -0.69779,-1.70353c-0.06459,-0.96237 0.14309,-1.75996 0.46387,-1.78151c0.32078,-0.02152 0.6332,0.74116 0.69779,1.70353z" fill="#0b0a0a" stroke="none" stroke-width="0" stroke-linecap="butt"/><path d="M282.63303,200.29552c0.05741,0.85544 -0.27166,1.57411 -0.73502,1.60521c-0.19693,0.01321 -0.38643,-0.09989 -0.54365,-0.30002c-0.21268,-0.27074 -0.3663,-0.70071 -0.3993,-1.19256c-0.05741,-0.85544 0.27166,-1.57411 0.73502,-1.60521c0.46335,-0.0311 0.88554,0.63715 0.94295,1.49258z" fill="#0b0a0a" stroke="none" stroke-width="0" stroke-linecap="butt"/><path d="M251.82884,193.29353c0,0 4.07848,-1.50001 5.89646,-1.50282c1.51618,-0.00233 5.36725,2.91391 5.36725,2.91391" fill="none" stroke="#6b4b04" stroke-width="1" stroke-linecap="round"/><path d="M286.52388,212.53241c0,0 -8.30306,3.36252 -11.86211,3.28689c-3.16355,-0.06722 -12.08559,-2.69657 -12.08559,-2.69657" fill="none" stroke="#6b4b04" stroke-width="1" stroke-linecap="round"/><path d="M262.50547,214.74262c0,0 -0.20423,-2.16631 0.1481,-2.51182c0.42111,-0.41297 2.20917,0.20008 2.20917,0.20008" fill="none" stroke="#6b4b04" stroke-width="1" stroke-linecap="round"/><path d="M284.36684,209.80584c0,0 1.3516,1.43253 1.72346,2.29682c0.45983,1.06876 0.82811,3.63354 0.82811,3.63354" fill="none" stroke="#6b4b04" stroke-width="1" stroke-linecap="round"/></g><g stroke-linecap="butt"><path d="M314.53717,231.9885c0,0 2.15794,0.89394 1.26401,3.05187c-0.53397,1.28897 -1.51889,1.48908 -2.22554,1.44122c-1.3519,0.47613 -2.22704,-0.43284 -2.56818,-0.89463c-2.10021,-0.8667 -6.93444,-0.35121 -8.09123,-1.01016c-1.96813,-1.12113 -3.64987,-2.70415 -5.62696,-3.80938c-1.17971,-0.65949 -2.42758,-1.19171 -3.60799,-1.84998c-0.60617,-0.33805 -1.19224,-0.71616 -1.74537,-1.1354c-0.18599,-0.14099 -0.32583,-0.72679 -0.45481,-0.53229c-1.29381,1.95095 -0.95661,4.63234 -1.54362,6.71547c-1.94792,6.91261 -5.08328,14.02359 -7.7643,20.67791l-0.42305,0.25257l0.1218,0.1209l-1.67113,1.68356c-0.362,0.371 -0.84921,0.62445 -1.40431,0.68822c-1.28158,0.14721 -2.43986,-0.77238 -2.58708,-2.05396l-0.22593,-1.96678c-3.4212,-6.70645 -8.19433,-12.33894 -13.38894,-17.99697c-1.77917,-1.9379 -4.65433,-2.73723 -6.3764,-4.49975c-0.00209,-0.00214 -0.00417,-0.00428 -0.00626,-0.00642c-0.96483,1.30079 -2.00548,2.54152 -3.53599,3.5615c-1.18738,0.79131 -2.28395,2.59465 -3.66056,2.21912c-3.29418,-0.89862 -3.63577,-7.57502 -4.27336,-10.0669c-0.08766,-0.3426 -0.27544,-0.65711 -0.45854,-0.97112c-0.8015,1.09449 -1.825,2.02812 -2.77566,3.00027c-4.26921,4.36562 -10.25656,5.38642 -16.01413,7.39854c-1.69373,-4.63044 -2.42127,-9.81951 -2.71354,-15.00176c-2.59837,1.67877 -5.70117,2.65293 -8.20124,2.26238c-1.4092,-0.22014 -3.02611,-0.6135 -3.91351,-1.73012c-2.01685,-2.53782 -0.32771,-5.0006 -0.0029,-7.48201c0.79954,-6.1081 1.55727,-12.11711 2.3193,-18.27736c0.19388,-1.5674 0.3325,-3.15562 0.75419,-4.67762c0.10756,-0.38824 1.16543,-0.7546 0.79417,-0.91104c-0.73769,-0.31085 -1.59225,0.30958 -2.38962,0.23877c-1.2428,-0.11037 -2.46149,-0.4353 -3.66171,-0.77618c-4.94227,-1.40372 -9.05364,-4.0963 -13.22114,-7.00385c-0.23803,-1.75179 -1.55482,-3.70017 -0.71412,-5.25535c0.70564,-1.30536 2.80603,-0.99203 4.25765,-1.29974c2.81457,-0.59665 5.75425,-0.00098 8.63135,0.00982c3.3099,0.01242 6.78526,-0.60144 10.11315,-1.02806c-1.80709,-4.1404 -4.93393,-7.88549 -5.66161,-12.30033c-0.26626,-1.61539 -1.51109,-4.0043 -0.14681,-4.90934c3.46093,-2.29593 7.39834,0.79505 10.34689,1.92266c3.68065,1.40757 9.1168,4.61847 12.74673,6.15336c4.99874,2.11365 9.95008,3.97602 15.04441,5.83364c3.89334,-3.83034 8.64383,-7.56627 11.63657,-11.99625c1.18706,-1.75714 2.07429,-3.71064 3.32124,-5.42578c1.16727,-1.60555 2.83336,-5.49655 6.06721,-3.88595c1.94183,0.96711 2.53168,3.53719 3.56611,5.44403c2.05919,3.79589 2.8512,9.28873 3.3461,13.55208c0.17956,1.54679 0.52219,3.08389 0.53311,4.64103c0.00702,1.00086 -1.32466,2.42751 -0.47976,2.96408c0.87198,0.55376 1.69061,-1.24437 2.66979,-1.57328c0.01671,-0.00562 9.19075,-1.75632 9.26693,-1.77087c3.02354,-0.57678 6.03214,-1.23357 9.02853,-1.93785c1.22416,-0.28773 2.92934,-0.45023 3.90228,-1.44322c0.92904,-0.94819 2.79676,-5.26222 4.16717,-5.41701c1.7832,-0.20143 5.70135,-0.86736 6.92823,0.4423c0.90091,0.96171 0.45106,2.59717 0.72017,3.88719c0.4909,2.35321 1.40743,4.27779 0.5344,6.77357c-0.93056,2.66027 -6.5617,7.35923 -8.55326,9.28433c-1.19717,1.15722 -2.42682,2.33087 -3.30477,3.74564c-0.42021,0.67712 -0.72582,1.44355 -1.27068,2.02509c-0.23159,0.24718 -1.20748,0.12472 -0.95414,0.34954c0.78444,0.69606 1.94665,0.79996 2.84998,1.33271c3.45616,2.03829 8.81534,2.63751 12.30127,4.67683c1.67771,1.11201 3.35536,2.22413 5.03294,3.33634c0.41464,-0.22369 0.83233,-0.44449 1.25384,-0.66127c0,0 2.07917,-1.06438 3.14354,1.0148c0.52119,1.01809 0.28864,1.79286 -0.08444,2.31849c-0.03965,0.20325 -0.0857,0.32969 -0.0857,0.32969l-4.05701,2.71628c-0.13522,-0.08967 -0.27043,-0.17932 -0.40565,-0.26899c-4.35373,2.44594 -10.47204,6.68373 -15.43848,8.21054c-1.18072,0.36299 -2.39601,0.61022 -3.61129,0.83138c-0.84519,0.15381 -1.70192,0.31702 -2.56062,0.29181c-0.35803,-0.01051 -1.01698,-0.75398 -0.99882,-0.39626c0.12992,2.5568 3.39436,5.47674 4.87293,6.89727c3.64111,3.49813 8.49585,4.83489 10.81264,9.33588l0.26299,0.487c0.08267,0.03471 0.16552,0.06927 0.24854,0.10364z" data-paper-data="{&quot;index&quot;:null}" fill="#faff4f" stroke="#987200" stroke-width="1.5"/><text transform="translate(238.9446,214.73582) scale(0.38625,0.38625)" font-size="40" xml:space="preserve" fill="#000000" fill-rule="nonzero" stroke="none" stroke-width="1" stroke-linecap="butt" stroke-linejoin="miter" stroke-miterlimit="10" stroke-dasharray="" stroke-dashoffset="0" font-family="Marker" font-weight="normal" text-anchor="start" style="mix-blend-mode: normal"><tspan x="0" dy="0">SPUDOW</tspan></text></g></g></g></svg>