<svg version="1.1" xmlns="http://www.w3.org/2000/svg" xmlns:xlink="http://www.w3.org/1999/xlink" width="52.65043" height="70.60025" viewBox="0,0,52.65043,70.60025"><g transform="translate(-213.08344,-144.74857)"><g data-paper-data="{&quot;isPaintingLayer&quot;:true}" fill-rule="nonzero" stroke-linecap="butt" stroke-linejoin="miter" stroke-miterlimit="10" stroke-dasharray="" stroke-dashoffset="0" style="mix-blend-mode: normal"><path d="M264.48387,178.15951c0,2.69796 -0.10813,5.33946 -0.34175,7.88818c-0.604,0.85754 -1.05551,1.81837 -1.28343,2.844l0.16676,0.25014c-2.33617,1.33495 -2.67292,4.34884 -1.82803,7.1346c-1.06558,0.60405 -1.88074,1.78691 -2.30758,3.83575c-0.15257,0.73233 -0.06947,1.42842 0.19355,2.07419c-0.42406,0.29738 -0.73532,0.59785 -0.88617,0.88072c-0.50694,0.95057 -0.6229,2.01144 -0.44585,3.03968c-3.6562,4.97425 -9.01788,7.99205 -16.59271,7.99205c-4.49529,0 -8.43651,-0.96623 -11.81541,-2.72588c0.59994,-0.81815 1.05159,-1.88871 1.29661,-3.26077c0.77277,-4.32749 -3.02575,-4.13938 -5.31818,-6.43182c-1.1716,-1.1716 -4.11035,-1.9942 -6.99834,-2.21502c-2.65041,-5.55322 -3.9899,-12.35388 -3.9899,-19.80583c0,-15.04446 5.45947,-28.33328 16.14346,-33.56925c0.53601,0.16745 1.07817,0.30307 1.63345,0.30307c0.49974,0 1.65535,-0.69147 2.049,-0.43516c0.89056,0.57985 1.66662,1.37414 2.65468,1.76536c1.05926,0.41941 3.75931,-1.05722 4.2537,-0.73352c2.24529,1.47009 5.70883,3.88347 8.57212,3.37216c1.43815,-0.25681 3.07522,-1.40995 4.26917,-2.94868c7.80196,5.60985 10.57485,17.08328 10.57485,30.74601z" fill="#a16a04" stroke="#ab8c53" stroke-width="2.5"/><path d="M246.88985,163.61218c0,5.79899 -9.25,5 -9.25,5c0,0 -8.75,0.79899 -8.75,-5c0,-5.79899 4.02944,-10.5 9,-10.5c4.97056,0 9,4.70101 9,10.5z" fill="#edeee1" stroke="#000000" stroke-width="2.5"/><path d="M262.88985,166.11218c0,6.62742 -7.375,7.5 -7.375,7.5c0,0 -7.875,-0.87258 -7.875,-7.5c0,-6.62742 8.375,-6 8.375,-6c0,0 6.875,-0.62742 6.875,6z" fill="#edeee1" stroke="#000000" stroke-width="2.5"/><path d="M238.13985,163.61218c0,-1.38071 1.11929,-2.5 2.5,-2.5c1.38071,0 2.5,1.11929 2.5,2.5c0,1.38071 -1.11929,2.5 -2.5,2.5c-1.38071,0 -2.5,-1.11929 -2.5,-2.5z" fill="#050505" stroke="none" stroke-width="0.5"/><path d="M255.38985,164.36218c0,-1.38071 1.11929,-2.5 2.5,-2.5c1.38071,0 2.5,1.11929 2.5,2.5c0,1.38071 -1.11929,2.5 -2.5,2.5c-1.38071,0 -2.5,-1.11929 -2.5,-2.5z" fill="#050505" stroke="none" stroke-width="0.5"/><path d="M221.79884,165.7142c0.1691,-0.04258 0.37445,-0.06712 0.58098,-0.08138c0.21173,-0.28913 0.73474,-0.80582 1.56904,-0.38868c1.11803,0.55902 0.55902,1.67705 0.55902,1.67705l-1.36803,1.19098c-0.53776,-0.0029 -3.27102,-0.01496 -3.29249,-0.03332c-0.57332,-0.49043 -0.35656,-1.469 -0.45751,-2.21668c-0.06901,-0.51113 0.67231,-1.30976 0.20751,-1.53332c-0.51994,-0.25008 -1.13056,0.28332 -1.70751,0.28332c0,0 -1.25,0 -1.25,-1.25c0,-1.25 1.25,-1.25 1.25,-1.25c0.68736,0 2.89931,-0.05725 3.29249,0.28332c0.55628,0.48186 0.55426,1.37241 0.70143,2.09351c0.05699,0.27925 0.00924,0.81788 -0.08492,1.2252z" fill="#050505" stroke="none" stroke-width="0.5"/><path d="M222.33322,190.07212c1.04006,0.69338 0.34669,1.73344 0.34669,1.73344l-1.54006,1.30662c-1.45779,-0.02212 -3.40659,-1.43515 -4.28576,-0.8394c0,0 -1.1606,0.46424 -1.62483,-0.69636c-0.46424,-1.1606 0.69636,-1.62483 0.69636,-1.62483c2.51615,-0.77517 2.87761,0.71259 5.21424,0.6606l-0.54006,-0.19338c0,0 0.69338,-1.04006 1.73344,-0.34669z" fill="#050505" stroke="none" stroke-width="0.5"/><path d="M260.16497,184.83845c-0.26248,0.20089 -0.96075,0.60588 -1.65901,-0.09238c-0.88388,-0.88388 0,-1.76777 0,-1.76777l1.13388,-0.61612c2.41481,0.05373 2.33683,-1.80699 3.86612,-3.38388c0,0 0.88388,-0.88388 1.76777,0c0.88388,0.88388 0,1.76777 0,1.76777c-2.01406,1.92753 -2.04183,3.85325 -5.10876,4.09238z" fill="#050505" stroke="none" stroke-width="0.5"/><path d="M235.0531,179.43354c0.36403,0.11397 0.83674,0.40995 0.83674,1.17864c0,1.25 -1.25,1.25 -1.25,1.25l-1.32187,-0.60688c-0.96887,-2.12014 -2.9312,0.28808 -4.64481,-1.35063c-0.68969,-0.65954 -0.04368,-1.96195 -0.44392,-2.82825c0,0 -0.46424,-1.1606 0.69636,-1.62483c1.1606,-0.46424 1.62483,0.69636 1.62483,0.69636c0.19472,0.53332 0.56951,1.03239 0.58417,1.59995c0.00149,0.0576 -0.02432,0.10503 -0.06523,0.14682c0.02393,-0.01576 0.04754,-0.0271 0.07047,-0.03253c0.44541,-0.10547 0.92041,-0.06116 1.37317,0.00608c0.97593,0.14494 1.87498,0.78891 2.54008,1.56527zM230.99415,177.95654c-0.1591,0.11043 -0.39547,0.19178 -0.38762,0.36316c0.00852,0.18597 0.19643,-0.17862 0.38762,-0.36316z" fill="#050505" stroke="none" stroke-width="0.5"/><path d="M243.38985,173.86218c0,1.25 -1.25,1.25 -1.25,1.25h-1.25c-2.18946,0 -4.95403,0.07419 -7.01021,-0.85887c-1.40349,-0.63688 -2.30154,-2.03338 -3.63291,-2.81927c0,0 -1.07187,-0.64312 -0.42875,-1.71499c0.64312,-1.07187 1.71499,-0.42875 1.71499,-0.42875c1.17825,0.7163 2.15511,2.16113 3.36709,2.68073c1.761,0.75497 4.12587,0.64113 5.98979,0.64113h1.25c0,0 1.25,0 1.25,1.25z" fill="#050505" stroke="none" stroke-width="0.5"/><path d="M259.00788,175.30316c0.55902,1.11803 -0.55902,1.67705 -0.55902,1.67705l-1.55902,0.63197c-2.84916,-0.00897 -5.83328,-0.80192 -8.46424,-1.8394c0,0 -1.1606,-0.46424 -0.69636,-1.62483c0.46424,-1.1606 1.62483,-0.69636 1.62483,-0.69636c2.29835,0.9353 5.0307,1.6699 7.53576,1.6606l0.44098,-0.36803c0,0 1.11803,-0.55902 1.67705,0.55902z" fill="#050505" stroke="none" stroke-width="0.5"/><path d="M248.77373,200.99606c-0.80059,0.80059 -1.60117,0.1509 -1.74496,0.02133c-4.86973,-0.8936 -9.81153,-0.00793 -13.50504,3.72867c0,0 -0.88388,0.88388 -1.76777,0c-0.88388,-0.88388 0,-1.76777 0,-1.76777c4.42789,-4.38491 10.28517,-5.49836 16.12903,-4.34184l0.88874,0.59184c0,0 0.88388,0.88388 0,1.76777z" fill="#050505" stroke="none" stroke-width="0.5"/><path d="M221.80044,176.07642c-0.46424,1.1606 -1.62483,0.69636 -1.62483,0.69636l-1.14195,-0.46242c-0.62016,-0.21856 -1.41454,-0.17248 -1.86049,-0.65569c-0.92578,-1.00313 0.56387,-2.2632 -1.03818,-1.56676c0,0 -1.22573,0.24515 -1.47087,-0.98058c-0.24515,-1.22573 0.98058,-1.47087 0.98058,-1.47087c0.61913,-0.07355 1.28055,-0.45728 1.85738,-0.22064c2.22711,0.91365 1.15272,2.76386 2.24395,2.49819l1.35805,0.53758c0,0 1.1606,0.46424 0.69636,1.62483z" fill="#050505" stroke="none" stroke-width="0.5"/><path d="M229.38985,155.86218c0,1.25 -1.25,1.25 -1.25,1.25l-1.14312,-0.17813c-2.3699,-1.53793 -2.35688,-2.94343 -2.35688,-5.57187c0,0 0,-1.25 1.25,-1.25c1.25,0 1.25,1.25 1.25,1.25c0,1.6423 -0.42363,2.61503 1.14312,3.42813l-0.14312,-0.17813c0,0 1.25,0 1.25,1.25z" fill="#050505" stroke="none" stroke-width="0.5"/><path d="M262.0757,192.50746c-0.39528,1.18585 -1.58114,0.79057 -1.58114,0.79057l-1.10472,-0.43585c-2.08539,-1.61472 -5.69858,-1.43138 -6.99215,-4.23964c-0.3856,-0.83712 -0.86896,-1.84908 -0.54294,-2.71114c0.24704,-0.65321 0.84132,-0.67033 1.2718,-0.56802c-0.09616,-0.14064 -0.65618,-1.0416 0.26329,-1.7312c1,-0.75 1.75,0.25 1.75,0.25c0.33333,0.58333 1.0761,1.08247 1,1.75c-0.07316,0.64175 -0.90941,1.61195 -1.55455,1.86815c0.50649,0.37039 1.14741,0.92976 1.43844,1.24797c1.05356,1.15195 3.46233,1.10525 4.86612,2.13388l0.39528,0.06415c0,0 1.18585,0.39528 0.79057,1.58114z" fill="#050505" stroke="none" stroke-width="0.5"/></g></g></svg>