<svg version="1.1" xmlns="http://www.w3.org/2000/svg" xmlns:xlink="http://www.w3.org/1999/xlink" width="60.02381" height="61.12126" viewBox="0,0,60.02381,61.12126"><defs><radialGradient cx="258.06496" cy="182.81908" r="6.68182" gradientUnits="userSpaceOnUse" id="color-1"><stop offset="0" stop-color="#b40404"/><stop offset="1" stop-color="#ff0505"/></radialGradient></defs><g transform="translate(-226.56924,-177.11871)"><g data-paper-data="{&quot;isPaintingLayer&quot;:true}" fill-rule="nonzero" stroke-linejoin="miter" stroke-miterlimit="10" stroke-dasharray="" stroke-dashoffset="0" style="mix-blend-mode: normal"><g><path d="M282.38766,207.73006c0.61819,9.21033 -9.9846,17.42206 -23.682,18.34143c-13.6974,0.91937 -25.30248,-5.80178 -25.92068,-15.01211c-0.13255,-1.97479 0.78573,-3.87565 1.46127,-5.94115c0.35998,-1.10066 0.12017,-2.51999 0.79197,-3.41963c0.6759,-0.90514 2.48507,-2.36142 2.48507,-2.36142c0,0 1.63495,-1.10477 2.51892,-1.64883c0.39248,-0.24157 0.83619,-0.671 1.33627,-0.99049c0.91302,-0.58331 1.9916,-1.13274 3.13148,-1.8558c1.8082,-1.147 7.09385,-5.44704 12.43054,-5.73533c5.33668,-0.2883 10.87902,3.69963 12.28115,4.40036c2.34865,1.17377 4.52811,3.07289 6.32619,4.32579c0.78286,0.5455 1.57793,0.49868 2.14194,1.00145c0.46084,0.4108 0.8925,0.83816 1.29296,1.28089c0.73754,0.81541 1.36918,1.68296 1.88199,2.59515c0.53695,0.95514 0.94364,1.95922 1.20523,3.00369c0.16449,0.65675 0.27162,1.32947 0.3177,2.01602z" fill="#d7c195" stroke="#6b4b04" stroke-width="0.5" stroke-linecap="butt"/><path d="M255.02097,194.3284l-0.29655,-13.92048l6.35544,-0.33546l-3.24643,15.43388" fill="#7b7878" stroke="#42413f" stroke-width="0.5" stroke-linecap="round"/><path d="M264.39132,182.95312c0.2236,3.33131 -2.57998,6.23222 -6.26196,6.47935c-3.68199,0.24713 -6.84808,-2.25309 -7.07168,-5.5844c-0.2236,-3.33131 2.57998,-6.23222 6.26196,-6.47935c3.68199,-0.24713 6.84808,2.25309 7.07168,5.5844z" fill="url(#color-1)" stroke="#7e0707" stroke-width="0.5" stroke-linecap="butt"/><path d="M272.54981,201.93927c0.20137,3.00013 -0.92589,5.51884 -2.5178,5.62568c-1.59191,0.10685 -3.04565,-2.23862 -3.24701,-5.23875c-0.20137,-3.00013 0.92589,-5.51884 2.5178,-5.62568c1.59191,-0.10685 3.04565,2.23862 3.24701,5.23875z" fill="#0b0a0a" stroke="none" stroke-width="0" stroke-linecap="butt"/><path d="M277.51901,202.97195c0.17877,2.66339 -0.54492,4.88078 -1.61639,4.9527c-1.07148,0.07192 -2.08499,-2.02888 -2.26376,-4.69226c-0.17877,-2.66339 0.54492,-4.88078 1.61639,-4.9527c1.07148,-0.07192 2.08499,2.02888 2.26376,4.69226z" fill="#0b0a0a" stroke="none" stroke-width="0" stroke-linecap="butt"/><path d="M272.12467,202.24714c0.05548,0.82657 -0.1229,1.51162 -0.39842,1.53012c-0.27552,0.01849 -0.54385,-0.63658 -0.59933,-1.46315c-0.05548,-0.82657 0.1229,-1.51162 0.39842,-1.53012c0.27552,-0.01849 0.54385,0.63658 0.59933,1.46315z" fill="#f0eeee" stroke="none" stroke-width="0" stroke-linecap="butt"/><path d="M277.21146,201.71345c0.04931,0.73473 -0.23333,1.35199 -0.63131,1.3787c-0.39797,0.02671 -0.76058,-0.54724 -0.80989,-1.28197c-0.04931,-0.73473 0.23333,-1.35199 0.63131,-1.3787c0.39797,-0.02671 0.76058,0.54724 0.80989,1.28197z" fill="#f0eeee" stroke="none" stroke-width="0" stroke-linecap="butt"/><path d="M250.754,195.69949c0,0 3.50297,-1.28835 5.06442,-1.29076c1.30224,-0.002 4.60989,2.50274 4.60989,2.50274" fill="none" stroke="#6b4b04" stroke-width="1" stroke-linecap="round"/><path d="M279.57532,212.95709c0,0 -6.15346,3.21309 -9.2103,3.14814c-2.71715,-0.05774 -10.38022,-3.37459 -10.38022,-3.37459" fill="none" stroke="#6b4b04" stroke-width="1" stroke-linecap="round"/><path d="M259.92404,214.12194c0,0 -0.17541,-1.86062 0.1272,-2.15738c0.36169,-0.3547 1.89744,0.17185 1.89744,0.17185" fill="none" stroke="#6b4b04" stroke-width="1" stroke-linecap="round"/><path d="M277.72265,210.61526c0,0 1.16088,1.23039 1.48026,1.97272c0.39495,0.91795 0.71125,3.12082 0.71125,3.12082" fill="none" stroke="#6b4b04" stroke-width="1" stroke-linecap="round"/></g><g stroke-linecap="butt"><g data-paper-data="{&quot;index&quot;:null}"><path d="M267.00131,228.93256c0,0 -1.41436,-3.79219 -1.41436,-5.76686c0,-0.6448 -0.84238,-1.64055 -0.70696,-2.47762c0.27929,-1.72643 1.64987,-3.28924 1.64987,-3.28924c0,0 1.51306,-0.88141 3.03714,-1.20079c0.97252,-0.2038 2.17068,0.10073 2.97156,0.10073c0.88154,0 2.36412,-0.53554 3.66133,-0.42103c2.0741,0.1831 3.02544,-0.26563 3.9189,1.04963c0.89345,1.31527 3.25293,4.3206 2.82874,6.55263c-0.56519,2.97393 0.53866,3.1758 0.53866,3.1758l-3.52455,1.33385l-3.58821,4.90949c0,0 -2.78327,-1.295 -2.89195,-1.295c-0.94566,0 -3.37816,-1.53949 -3.37816,-1.53949z" fill="#6b4b04" stroke="#362602" stroke-width="1"/><path d="M268.32435,220.87925l3.99257,-1.53717l-1.29268,5.38916z" fill="#f6dfb1" stroke="none" stroke-width="0"/></g><g data-paper-data="{&quot;index&quot;:null}"><path d="M227.86155,220.14415c0,0 -0.7923,-2.1243 -0.7923,-3.23047c0,-0.3612 -0.47188,-0.919 -0.39602,-1.38791c0.15645,-0.96711 0.92422,-1.84256 0.92422,-1.84256c0,0 0.84758,-0.49375 1.70133,-0.67266c0.54479,-0.11416 1.21597,0.05643 1.66461,0.05643c0.49382,0 0.69056,-1.59628 0.69056,-1.59628c0,0 2.1202,-0.16843 3.31571,0.43702c0.84771,0.42931 0.83261,1.60584 1.04026,1.91152c0.26893,0.39589 1.50421,0.94959 1.66424,1.57119c0.13779,0.53524 -0.76995,1.12082 -0.8799,1.69932c-0.3166,1.66593 0.30175,1.77901 0.30175,1.77901l-1.97438,0.7472l0.63059,2.06839l-2.64062,0.6818c0,0 -1.55913,-0.72543 -1.62001,-0.72543c-0.52974,0 -1.89237,-0.86239 -1.89237,-0.86239z" fill="#6b4b04" stroke="#362602" stroke-width="1"/><path d="M227.7224,215.55284l3.19686,-0.94112c0,0 -0.62575,1.15121 -0.91795,1.68878c-0.26701,0.49122 -0.28633,2.45046 -0.28633,2.45046z" fill="#f6dfb1" stroke="none" stroke-width="0"/></g><g data-paper-data="{&quot;index&quot;:null}"><path d="M284.86751,218.1653c0,0 0.8214,2.20234 0.8214,3.34914c0,0.37447 0.48921,0.95276 0.41057,1.43889c-0.1622,1.00263 -0.95817,1.91025 -0.95817,1.91025c0,0 -0.87872,0.51188 -1.76383,0.69737c-0.5648,0.11836 -1.26064,-0.0585 -1.72576,-0.0585c-0.51196,0 -1.37297,0.31102 -2.12633,0.24451c-1.20455,-0.10634 -1.75704,0.15427 -2.27592,-0.60958c-0.51888,-0.76385 -1.88916,-2.50921 -1.64281,-3.80547c0.32823,-1.72713 -0.31283,-1.84436 -0.31283,-1.84436l2.04691,-0.77464l2.08387,-2.85122c0,0 1.6164,0.75208 1.67952,0.75208c0.5492,0 1.96189,0.89407 1.96189,0.89407z" fill="#6b4b04" stroke="#362602" stroke-width="1"/><path d="M284.09915,222.8423l-2.31871,0.89272l0.75073,-3.12978z" fill="#f6dfb1" stroke="none" stroke-width="0"/></g><g data-paper-data="{&quot;index&quot;:null}"><path d="M278.77869,222.11398c0,0 1.41437,3.79219 1.41437,5.76686c0,0.6448 0.84238,1.64055 0.70696,2.47762c-0.27929,1.72643 -1.64987,3.28924 -1.64987,3.28924c0,0 -1.51306,0.88141 -3.03714,1.20079c-0.97252,0.2038 -2.17068,-0.10073 -2.97156,-0.10073c-0.88154,0 -2.36412,0.53554 -3.66133,0.42102c-2.0741,-0.1831 -3.02545,0.26563 -3.9189,-1.04963c-0.89345,-1.31527 -3.25292,-4.3206 -2.82874,-6.55262c0.56519,-2.97393 -0.53866,-3.1758 -0.53866,-3.1758l3.52455,-1.33385l3.58821,-4.90949c0,0 2.78327,1.295 2.89195,1.295c0.94566,0 3.37816,1.5395 3.37816,1.5395z" fill="#6b4b04" stroke="#362602" stroke-width="1"/><path d="M277.45565,230.16729l-3.99258,1.53718l1.29268,-5.38916z" fill="#f6dfb1" stroke="none" stroke-width="0"/></g><g data-paper-data="{&quot;index&quot;:null}"><path d="M266.10526,234.77894c0,0 -2.4325,1.53949 -3.37816,1.53949c-0.10868,0 -2.89195,1.29499 -2.89195,1.29499l-3.58821,-4.90949l-3.52455,-1.33386c0,0 1.10385,-0.20186 0.53866,-3.17579c-0.42419,-2.23203 1.93528,-5.23736 2.82874,-6.55263c0.89346,-1.31526 1.8448,-0.86654 3.9189,-1.04963c1.29721,-0.11452 2.77979,0.42102 3.66132,0.42102c0.80088,0 1.99904,-0.30453 2.97157,-0.10073c1.52408,0.31939 3.03713,1.20079 3.03713,1.20079c0,0 1.37057,1.56281 1.64987,3.28924c0.13542,0.83708 -0.70696,1.83282 -0.70696,2.47762c0,1.97467 -1.41437,5.76687 -1.41437,5.76687z" fill="#6b4b04" stroke="#362602" stroke-width="1"/><path d="M265.18433,229.44552l-1.29268,-5.38916l3.99257,1.53718z" fill="#f6dfb1" stroke="none" stroke-width="0"/></g><g data-paper-data="{&quot;index&quot;:null}"><path d="M255.81956,233.49323c0,0 -2.4325,1.53949 -3.37816,1.53949c-0.10868,0 -2.89196,1.295 -2.89196,1.295l-3.5882,-4.90949l-3.52455,-1.33385c0,0 1.10385,-0.20186 0.53866,-3.17579c-0.42418,-2.23202 0.50671,-4.52307 1.40017,-5.83834c0.89345,-1.31527 5.63319,-4.04963 5.63319,-4.04963c0,0 2.49407,2.70674 3.37561,2.70674c0.80088,0 1.99905,-0.30453 2.97157,-0.10073c1.52408,0.31939 3.03713,1.20079 3.03713,1.20079c0,0 1.37058,1.56282 1.64987,3.28924c0.13542,0.83707 -0.70695,1.83282 -0.70695,2.47762c0,1.97467 -1.41437,5.76687 -1.41437,5.76687z" fill="#6b4b04" stroke="#362602" stroke-width="1"/><path d="M254.89863,228.01695l-1.29268,-5.38915l3.99257,1.53717z" fill="#f6dfb1" stroke="none" stroke-width="0"/></g><g data-paper-data="{&quot;index&quot;:null}"><path d="M246.63584,217.70146c0,0 1.41437,3.79219 1.41437,5.76687c0,0.6448 0.84238,1.64055 0.70696,2.47762c-0.27929,1.72643 -1.64987,3.28925 -1.64987,3.28925c0,0 -1.51305,0.88141 -3.03713,1.20079c-0.97252,0.2038 -2.17068,-0.10073 -2.97157,-0.10073c-0.88154,0 -3.37561,2.70674 -3.37561,2.70674c0,0 -4.73973,-2.73437 -5.63318,-4.04964c-0.89345,-1.31527 -1.82435,-3.60631 -1.40016,-5.83834c0.56519,-2.97393 -0.53867,-3.17579 -0.53867,-3.17579l3.52455,-1.33385l3.58821,-4.90949c0,0 2.78328,1.295 2.89195,1.295c0.94566,0 3.37816,1.53949 3.37816,1.53949z" fill="#6b4b04" stroke="#362602" stroke-width="1"/><path d="M245.31281,225.89763l-3.99258,1.53717l1.29268,-5.38916z" fill="#f6dfb1" stroke="none" stroke-width="0"/></g></g></g></g></svg>