<svg version="1.1" xmlns="http://www.w3.org/2000/svg" xmlns:xlink="http://www.w3.org/1999/xlink" width="109.7296" height="50.5" viewBox="0,0,109.7296,50.5"><defs><radialGradient cx="241.86308" cy="187.4" r="25.75" gradientUnits="userSpaceOnUse" id="color-1"><stop offset="0" stop-color="#dfeff7"/><stop offset="1" stop-color="#7deded"/></radialGradient><radialGradient cx="207.78689" cy="180.96589" r="15.82168" gradientUnits="userSpaceOnUse" id="color-2"><stop offset="0" stop-color="#dfeff7"/><stop offset="1" stop-color="#7deded"/></radialGradient><radialGradient cx="263.25" cy="180.33334" r="6.83333" gradientUnits="userSpaceOnUse" id="color-3"><stop offset="0" stop-color="#ffffff"/><stop offset="1" stop-color="#99eded"/></radialGradient><radialGradient cx="262.41667" cy="193.66667" r="6.66667" gradientUnits="userSpaceOnUse" id="color-4"><stop offset="0" stop-color="#ffffff"/><stop offset="1" stop-color="#99eded"/></radialGradient><radialGradient cx="274.56667" cy="170.2" r="21.75" gradientUnits="userSpaceOnUse" id="color-5"><stop offset="0" stop-color="#dfeff7"/><stop offset="1" stop-color="#7deded"/></radialGradient></defs><g transform="translate(-180.90427,-162.4108)"><g data-paper-data="{&quot;isPaintingLayer&quot;:true}" fill-rule="nonzero" stroke-linejoin="miter" stroke-miterlimit="10" stroke-dasharray="" stroke-dashoffset="0" style="mix-blend-mode: normal"><path d="M267.51308,187.6608c0,13.25484 -11.52867,24 -25.75,24c-14.22133,0 -25.75,-10.74516 -25.75,-24c0,-13.25484 11.52867,-24 25.75,-24c14.22133,0 25.75,10.74516 25.75,24z" fill="url(#color-1)" stroke="#0afb89" stroke-width="2.5" stroke-linecap="butt"/><path d="M226.98389,178.08388c-0.88388,0.88388 -1.76777,0 -1.76777,0l-0.29699,-0.3078c-0.47265,-0.47402 -1.18506,-0.79448 -1.41795,-1.42206c-0.011,-0.02964 1.24725,-1.71421 0.19882,-0.30403c0,0 -1.25,0 -1.25,-1.25c0,-1.25 1.25,-1.25 1.25,-1.25c0.80468,0.17304 1.81828,-0.04879 2.41405,0.51911c0.43255,0.41231 -0.20465,1.5801 0.36682,1.7548l0.50301,0.4922c0,0 0.88388,0.88388 0,1.76777z" fill="#dfeff7" stroke="none" stroke-width="0.5" stroke-linecap="butt"/><path d="M223.50001,187.25c-1.25,0 -1.25,-1.25 -1.25,-1.25l0.27391,-0.01913c-0.27476,-0.49194 -1.05369,-0.40014 -1.58614,-0.5845c-1.39764,-0.48394 -1.77666,-1.19029 -2.61386,-2.2155c0,0 -0.78087,-0.97609 0.19522,-1.75695c0.97609,-0.78087 1.75695,0.19522 1.75695,0.19522c1.36609,1.75601 2.67252,1.13499 4.2,2.8l0.27391,1.58087c0,0 0,1.25 -1.25,1.25z" fill="#dfeff7" stroke="none" stroke-width="0.5" stroke-linecap="butt"/><path d="M225.92574,193.55485c0.24515,1.22573 -0.98058,1.47087 -0.98058,1.47087l-1.80416,0.09231c-0.5681,-0.35362 -1.32574,-0.50907 -1.7043,-1.06087c-0.28606,-0.41697 0.04008,-1.0207 -0.06332,-1.51568c-0.10062,-0.48167 -0.98217,-0.12066 -1.47337,-0.09149c0,0 -1.25,0 -1.25,-1.25c0,-1.25 1.25,-1.25 1.25,-1.25c1.75158,0.06129 2.6173,-0.32229 3.72663,1.50851c0.26906,0.44405 0.12327,1.32164 0.63239,1.42345l0.19584,-0.30769c0,0 1.22573,-0.24515 1.47087,0.98058z" fill="#dfeff7" stroke="none" stroke-width="0.5" stroke-linecap="butt"/><path d="M233.70001,175.85c-1.25,0 -1.25,-1.25 -1.25,-1.25v-0.4c0.15581,-1.08426 -1.55283,-1.62466 -1.94882,-2.64597c-0.29094,-0.75038 1.21914,-1.34595 0.00353,-0.76817c0,0 -1.18585,-0.39528 -0.79057,-1.58114c0.39528,-1.18585 1.58114,-0.79057 1.58114,-0.79057c0.64092,0.34228 1.52277,0.42025 1.92275,1.02684c0.26438,0.40095 -0.39788,0.93121 -0.31922,1.40499c0.13049,0.78588 1.59336,0.68951 1.92781,1.41254c0.27224,0.58855 0.08225,1.29432 0.12337,1.94149v0.4c0,0 0,1.25 -1.25,1.25z" fill="#dfeff7" stroke="none" stroke-width="0.5" stroke-linecap="butt"/><path d="M232.30001,195.95c1.25,0 1.25,1.25 1.25,1.25l-0.0062,1.32438c-0.25478,0.97494 0.00111,2.26944 -0.76433,2.92482c-0.46356,0.39691 -3.14508,-0.45413 -3.72369,-0.8808c-0.06718,-0.04954 -0.09258,-0.21107 -0.10083,-0.34411c-0.06849,1.9678 -1.65508,1.80755 -3.45494,1.82571c0,0 -1.25,0 -1.25,-1.25c0,-1.25 1.25,-1.25 1.25,-1.25c0.54697,0.00736 1.3663,0.5225 1.64031,0.04907c0.28998,-0.50103 -0.01779,-1.40862 0.50253,-1.66238c2.27991,-1.11191 4.24205,2.78448 3.41337,0.33893l-0.0062,-1.07562c0,0 0,-1.25 1.25,-1.25z" fill="#dfeff7" stroke="none" stroke-width="0.5" stroke-linecap="butt"/><path d="M219.14944,187.86619l-9.60243,-4.78265l-1.6796,10.52358l-5.71674,-7.4076l-16.184,-18.59952l15.05676,7.48812l3.30121,-5.63622l8.21278,1.20776l-2.25449,6.84398l7.32708,1.77139" fill="url(#color-2)" stroke="#0afb89" stroke-width="2.5" stroke-linecap="round"/><path d="M266.08333,179.75c0,2.62336 -3.05939,4.75 -6.83333,4.75c-3.77395,0 -6.83334,-2.12664 -6.83334,-4.75c0,-2.62336 3.05939,-4.75 6.83334,-4.75c3.77395,0 6.83333,2.12664 6.83333,4.75z" fill="url(#color-3)" stroke="#0afb89" stroke-width="1.5" stroke-linecap="butt"/><path d="M266.75,193.75c0,2.16312 -2.98477,3.91667 -6.66667,3.91667c-3.6819,0 -6.66667,-1.75356 -6.66667,-3.91667c0,-2.16312 2.98477,-3.91666 6.66667,-3.91666c3.6819,0 6.66667,1.75355 6.66667,3.91666z" fill="url(#color-4)" stroke="#0afb89" stroke-width="1.5" stroke-linecap="butt"/><g stroke-linecap="butt"><path d="M289.38387,188.3556c0,12.01219 -6.26801,21.75 -14,21.75c-7.73199,0 -14,-9.73781 -14,-21.75c0,-12.01219 6.26801,-21.75 14,-21.75c7.73199,0 14,9.73781 14,21.75z" fill="url(#color-5)" stroke="#0afb89" stroke-width="2.5"/><path d="M286.38387,188.68893c0,8.42234 -3.69365,15.25 -8.25,15.25c-4.55635,0 -8.25,-6.82766 -8.25,-15.25c0,-8.42234 3.69365,-15.25 8.25,-15.25c4.55635,0 8.25,6.82766 8.25,15.25z" fill="#c4e1f5" stroke="none" stroke-width="0"/></g></g></g></svg>